<svg width="461" height="335" viewBox="0 0 461 335" fill="none" xmlns="http://www.w3.org/2000/svg">
<path d="M142.68 210.434C142.68 220.268 150.033 229.609 165.865 232.977C181.697 236.345 209.526 221.281 211.573 211.663C213.62 202.044 188.431 193.451 172.791 197.619C159.854 201.064 142.68 207.962 142.68 210.434Z" fill="#3F8CB2"/>
<path d="M299.287 235.624C299.287 245.509 306.678 254.897 322.591 258.282C338.504 261.667 366.479 246.526 368.535 236.859C370.593 227.191 345.274 218.552 329.553 222.742C316.551 226.209 299.287 233.14 299.287 235.624Z" fill="#2A535E"/>
<path d="M11.3877 229.641L65.1367 267.914L102.731 275.019L120.326 203.538L76.9886 195.35L15.4508 211.34C14.1203 217.293 13.0442 223.576 11.3877 229.641Z" fill="#F9E098"/>
<path opacity="0.14" d="M11.3877 229.641L65.1367 267.914L102.731 275.019L106.303 256.948L88.1734 253.565L14.4425 227.412C14.0449 227.161 11.8909 229.121 11.3877 229.641Z" fill="#E22F05"/>
<path d="M393.33 251.743L76.9906 195.35L94.1041 217.284L71.0655 231.633L88.1753 253.563L65.1387 267.914L381.478 324.305L393.33 251.743Z" fill="#00C44F"/>
<path d="M393.329 251.743L76.9902 195.35L94.1037 217.284L390.369 269.887L393.329 251.743Z" fill="#74E89D"/>
<path d="M88.1753 253.563L65.1387 267.914L381.478 324.305L384.439 306.163L88.1753 253.563Z" fill="#DB0000"/>
<path d="M88.1753 253.563L65.1387 267.914L381.478 324.305L384.439 306.163L88.1753 253.563Z" fill="#009B3F"/>
<path opacity="0.19" d="M173.609 208.692C175.241 207.749 181.319 205.079 185.094 204.103C188.13 203.317 205.102 212.413 215.465 214.709C221.882 216.13 228.365 217.426 229.857 217.649C228.551 220.425 226.723 222.515 223.619 224.671C220.517 226.825 198.802 230.92 194.392 231.826C197.358 242.868 199.757 253.182 201.849 260.341C202.094 261.18 183.516 266.426 183.36 265.908C181.147 258.636 168.31 225.965 167.5 221.631C166.802 217.875 167.76 212.072 173.609 208.692Z" fill="#074404"/>
<path d="M200.916 261.9C201.421 263.626 185.47 268.441 184.947 266.715C180.267 251.329 170.626 230.611 169.124 222.579C168.487 219.173 170.835 212.232 175.744 210.482C179.528 209.132 186.241 206.948 186.241 206.948C188.897 219.12 197.177 249.115 200.916 261.9Z" fill="#FFC19F"/>
<path d="M177.165 179.46C177.551 179.423 177.919 179.232 178.177 178.904C178.671 178.265 178.556 177.35 177.921 176.854C173.53 173.447 171.197 162.222 171.551 153.778C171.585 152.973 170.959 152.291 170.155 152.257C169.372 152.236 168.67 152.845 168.634 153.653C168.323 161.024 170.085 174.466 176.127 179.159C176.436 179.398 176.809 179.494 177.165 179.46Z" fill="#CCCCCC"/>
<path d="M245.694 202.681C242.23 206.137 238.676 210.187 235.153 212.297C230.137 212.301 192.947 203.304 191.894 202.524C188.775 140.131 184.883 133.41 196.098 128.16C202.308 127.444 214.569 127.981 232.545 129.979C241.005 130.919 247.74 131.969 248.564 149.084C248.477 151.285 246.536 152.211 244.881 151.02C245.336 165.154 245.402 193.288 245.694 202.681Z" fill="#166FB2"/>
<path d="M231.697 145.053C231.423 142.422 230.487 134.807 236.225 134.151C241.538 133.544 244.414 140.977 244.525 143.707C243.128 145.019 232.922 144.917 231.697 145.053Z" fill="#18263D"/>
<path d="M244.45 143.253C241.905 143.067 232.436 142.539 231.418 142.601C231.507 152.827 231.39 168.548 231.887 186.803C235.905 186.765 242.066 185.591 246.016 184.463C245.578 168.678 245.322 153.298 244.45 143.253Z" fill="#1C96D3"/>
<path d="M231.825 185.039C232.654 193.25 233.127 204.09 233.655 211.826C237.912 210.615 242.392 209.222 246.672 206.998C246.945 200.097 247.537 191.937 247.399 183.916C247.393 183.585 245.79 182.806 245.537 182.74C242.352 183.245 234.995 184.615 231.825 185.039Z" fill="#166FB2"/>
<path d="M231.801 185.161C232.166 192.847 232.803 205.481 233.175 212.22C234.075 212.288 234.825 212.734 235.723 212.587C239.689 211.941 245.098 210.171 247.544 208.106C250.348 205.739 248.177 189.428 247.795 184.174C247.74 183.43 245.765 182.74 245.535 182.742C246.219 183.004 247.437 183.893 247.239 184.304C245.699 187.513 235.715 186.94 231.801 185.161Z" fill="#1C96D3"/>
<path d="M232.739 186.129C232.366 186.008 232.121 185.923 231.793 185.78L231.801 185.16C234.039 186.146 237.622 186.545 240.543 186.247C242.508 186.046 246.061 185.371 246.834 184.51C247.487 183.779 246.296 183.249 245.537 182.738C245.537 182.738 245.899 182.799 246.072 182.87C249.238 183.992 247.259 185.405 245.918 185.874C241.977 187.254 236.389 187.314 232.739 186.129Z" fill="#7EC8ED"/>
<path d="M122.76 123.553C123.254 121.507 125.952 115.295 127.993 112.314C151.452 122.656 175.789 127.895 181.435 129.16L175.158 144.01C164.165 142.22 141.901 133.807 122.76 123.553Z" fill="#FFC19F"/>
<path d="M157.881 122.89C156.073 128.018 153.346 139.363 152.106 145.052C163.764 149.147 173.417 151.888 174.291 151.69C183.395 149.643 187.705 131.331 188.288 130.3C182.248 129.154 169.346 126.556 157.881 122.89Z" fill="#F72828"/>
<path d="M232.024 202.192C218.297 204.482 201.197 205.405 188.823 203.562C178.522 202.028 175.682 199.309 173.221 197.598C173.019 197.458 171.463 197.999 171.295 197.924C170.837 193.94 173.225 195.496 173.809 193.81C175.202 189.794 170.569 139.137 170.488 134.984C177.589 132.602 185.195 130.442 193.016 130.619C204.073 130.87 216.433 130.602 219.577 132.76C226.906 137.792 224.999 150.169 226.559 163.874C227.782 174.601 230.268 187.099 232.024 202.192Z" fill="#F72828"/>
<path d="M183.41 142.936C180.572 141.594 178.412 136.73 182.266 131.292C185.606 129.827 193.353 128.951 201.202 129.134C204.148 129.204 207.029 130.08 209.475 131.064C210.598 131.87 210.627 133.31 208.842 134.117C205.915 135.441 203.017 137.965 200.784 139.633C194.474 144.344 187.387 144.819 183.41 142.936Z" fill="#BA0C0C"/>
<path d="M173.638 156.274L168.037 155.784C167.762 155.697 167.113 155.622 167.012 155.58C167.1 152.418 169.023 142.343 172.072 136.133C174.62 130.947 177.482 127.915 181.724 128.226C184.142 128.403 187.178 130.005 188.237 130.796C188.982 131.354 189.541 132.283 189.464 132.236C189.238 132.029 188.874 131.631 188.053 131.494C185.52 131.073 178.374 133.226 176.127 139.919C174.271 145.462 173.638 156.274 173.638 156.274Z" fill="#166FB2"/>
<path d="M171.704 155.898L167.016 155.58C167.067 152.793 167.636 142.362 170.445 135.847C172.643 130.751 176.369 127.517 180.136 127.696C182.395 127.803 185.812 129.313 186.668 130.329C186.996 130.721 187.457 131.752 187.461 132.142C187.056 131.565 186.523 130.926 185.827 130.67C184.107 130.033 177.105 131.337 174.35 139.199C172.569 144.278 171.704 155.898 171.704 155.898Z" fill="#1C96D3"/>
<path d="M180.625 115.757L182.044 135.285C182.255 139.553 184.29 141.166 189.307 141.161C195.083 141.155 200.356 135.62 206.383 131.672L205.371 114.478L180.625 115.757Z" fill="#FFC19F"/>
<path d="M228.617 192.554C222.398 194.195 212.246 197.256 209.167 198.085C190.845 203.011 180.055 207.246 176.076 209.413C175.584 209.682 174.983 210.297 175.168 210.681C175.392 210.536 175.79 210.472 176.061 210.316C179.348 209.878 181.888 210.084 184.789 212.569C189.119 216.282 189.609 221.123 192.383 230.405C197.394 230.037 206.325 228.356 209.806 227.612C214.478 226.611 221.697 225.23 225.399 221.414C232.006 214.597 231.03 203.885 228.617 192.554Z" fill="#3F8CB2"/>
<path d="M228.721 192.524C228.646 198.087 228.348 205.612 227.947 213.991C227.741 213.987 227.544 214.021 227.336 214.004C221.404 213.535 216.975 208.343 217.444 202.411C217.906 196.585 222.923 192.236 228.721 192.524Z" fill="#085B84"/>
<path d="M232.478 204.858C231.302 205.348 227.452 207.114 219.148 205.55C213.142 204.417 205.674 199.849 193.575 202.518C200.878 186.816 222.725 181.635 228.835 181.635C229.634 186.13 231.894 197.897 232.478 204.858Z" fill="#F72828"/>
<path d="M204.125 266.393C204.221 266.773 184.577 273.658 184.358 273.211C182.739 269.917 180.157 261.555 179.279 259.621L200.085 252.36C201.063 256.207 203.509 263.956 204.125 266.393Z" fill="#FFFFE3"/>
<path d="M178.777 269.323C178.675 268.181 178.775 266.651 178.784 265.283C178.79 264.267 187.559 261.176 188.379 263.308C188.588 263.853 188.746 264.346 188.863 264.8C190.359 264.262 191.971 263.643 193.655 262.948C197.319 261.435 200.534 259.899 202.731 258.661C204.139 261.991 206.018 267.963 207.552 271.675C207.552 271.675 171.373 293.38 163.152 290.014C160.834 289.064 167.977 278.382 178.777 269.323Z" fill="#0984AF"/>
<path d="M206.639 269.327C206.95 270.164 207.257 270.969 207.549 271.675C207.549 271.675 171.37 293.38 163.15 290.014C162.824 289.88 162.688 289.55 162.722 289.06C174.314 287.407 197.576 274.542 206.639 269.327Z" fill="#00517E"/>
<path d="M176.461 271.428C176.186 271.596 175.832 271.524 175.658 271.255C175.485 270.985 175.562 270.627 175.832 270.452C177.909 269.123 180.928 269.193 183.18 270.635C183.451 270.808 183.528 271.166 183.357 271.438C183.291 271.541 183.195 271.617 183.089 271.66C182.92 271.73 182.72 271.718 182.554 271.613C180.671 270.405 178.161 270.322 176.461 271.428ZM173.981 273.912C173.706 274.076 173.346 273.944 173.201 273.658C173.056 273.371 173.171 273.023 173.455 272.877C175.732 271.713 178.414 271.734 180.811 272.917C181.097 273.058 181.216 273.407 181.075 273.695C181.011 273.827 180.901 273.923 180.775 273.974C180.626 274.036 180.453 274.035 180.296 273.957C177.471 272.565 175.129 273.33 173.981 273.912ZM170.86 275.565C172.867 274.396 175.992 274.361 178.468 275.461C178.762 275.591 178.894 275.934 178.764 276.228C178.702 276.369 178.589 276.473 178.455 276.53C178.314 276.588 178.15 276.592 177.997 276.524C175.839 275.565 173.127 275.563 171.443 276.571C171.158 276.741 170.81 276.637 170.649 276.36C170.489 276.079 170.583 275.725 170.86 275.565Z" fill="#D3DAE5"/>
<path d="M228.975 192.273C230.967 192.232 232.838 191.977 234.497 191.574C235.281 191.383 235.759 190.594 235.569 189.808C235.375 189.033 234.6 188.547 233.803 188.736C227.827 190.191 218.593 189.484 212.321 182.671C205.933 175.723 202.827 166.649 203.085 155.698C203.106 154.893 202.469 154.222 201.662 154.205C200.812 154.083 200.189 154.823 200.17 155.628C199.887 167.361 203.253 177.123 210.173 184.646C215.553 190.503 222.824 192.403 228.975 192.273Z" fill="#CCCCCC"/>
<path d="M205.882 158.984L198.883 158.605C198.659 158.438 197.929 158.566 197.664 158.398C197.296 155.255 198.966 145.327 201.751 138.695C204.079 133.155 207.111 130.186 212.308 129.6C215.925 129.193 219.078 130.245 222.396 131.474C224.618 132.295 227.549 136.528 228.964 139.309C226.41 136.697 223.638 133.465 220.504 133.198C215.279 132.753 208.992 134.804 207.26 141.788C205.824 147.571 205.882 158.984 205.882 158.984Z" fill="#166FB2"/>
<path d="M203.934 158.828L197.664 158.4C197.302 155.635 197.358 144.948 200.023 138.03C202.108 132.619 206.583 129.529 210.168 129.331C213.754 129.133 219.956 129.683 222.042 130.695C226.976 133.093 229.139 138.912 229.81 140.156C229.52 139.835 229.038 139.347 228.917 139.221C227.948 137.297 224.89 131.779 220.116 131.074C214.184 130.198 208.019 132.442 205.634 140.683C204.094 146.007 203.934 158.828 203.934 158.828Z" fill="#1C96D3"/>
<path opacity="0.19" d="M205.761 120.15C207.994 124.494 204.321 130.832 197.561 134.307C190.802 137.78 183.51 137.075 181.277 132.731C179.046 128.388 182.717 122.05 189.477 118.575C196.238 115.1 203.528 115.806 205.761 120.15Z" fill="#820303"/>
<path d="M254.66 70.0783C247.744 106.094 220.371 119.212 197.366 118.332C168.163 117.214 142.594 83.7224 150.219 48.7415C154.451 29.3194 173.382 15.0101 201.032 18.8678C230.461 22.9742 260.257 40.9358 254.66 70.0783Z" fill="#9B4734"/>
<path d="M169.527 48.3326C169.506 51.461 157.208 89.1217 152.346 88.4923C147.484 87.8628 144.417 75.291 146.27 62.4874C148.104 49.8082 150.682 41.1017 159.224 39.0023C163.894 37.8546 169.553 44.5994 169.527 48.3326Z" fill="#9B4734"/>
<path d="M237.216 59.9977C237.879 64.8146 225.739 109.97 217.368 117.463C210.714 123.418 195.298 130.344 173.718 128.301C157.826 126.797 145.525 112.42 145.346 100.866C145.196 91.1002 147.693 80.2113 149.176 67.6113C149.898 61.4733 150.237 48.4059 154.158 40.9111C159.997 29.7546 177.849 26.664 200.121 30.4651C219.808 33.8233 234.817 42.5563 237.216 59.9977Z" fill="#FFC19F"/>
<path d="M220.77 61.9317C218.642 78.4573 220.368 99.0252 227.232 99.7092C232.034 100.188 246.226 93.1963 251.84 80.4116C255.321 72.4833 256.288 61.4361 255.059 52.8294C253.353 40.8851 243.418 29.1916 234.419 32.4801C227.91 34.8584 222.289 50.1458 220.77 61.9317Z" fill="#9B4734"/>
<path d="M238.96 104.952C234.415 112.978 224.74 115.666 219.073 113.429C214.663 111.687 215.784 103.874 218.688 96.8164C221.815 89.216 227.116 85.5732 233.226 86.7115C241.425 88.2417 243.005 97.8077 238.96 104.952Z" fill="#FFC19F"/>
<path d="M231.257 102.737C229.906 106.454 224.569 108.83 221.446 106.827C220.395 106.152 225.649 94.1889 227.441 94.4697C231.514 95.1105 232.609 99.0209 231.257 102.737Z" fill="#E0956C"/>
<path d="M159.66 27.9496C155.099 25.3659 152.557 22.8425 153.084 20.9485C153.997 17.6769 159.712 16.7969 172.179 19.2298C167.68 13.889 166.272 11.277 168.27 7.13668C172.286 -1.18546 190.461 -2.29546 208.601 5.15414C226.105 12.3418 243.657 24.1221 239.643 32.4404C245.64 34.0593 241.353 39.2512 242.039 41.7746C239.56 44.9651 235.963 48.3874 229.55 52.0868C220.398 57.3654 210.391 56.2384 208.703 52.524C208.058 51.1012 208.633 49.309 210.135 47.4207C202.902 49.0037 193.787 49.8856 183.874 49.7537C160.379 49.4409 144.538 44.298 144.536 37.3629C144.532 33.6258 149.274 27.7932 159.66 27.9496Z" fill="#9B4734"/>
<path d="M188.97 103.62C188.644 99.7299 183.145 99.8825 175.686 98.8611C175.295 98.8065 173.777 98.6124 173.385 98.5653C165.907 97.672 161.655 96.1474 160.805 99.9711C159.267 106.882 163.892 115.032 171.41 116.45C178.901 117.861 189.607 111.263 188.97 103.62Z" fill="#701608"/>
<path d="M165.115 113.129C166.841 114.755 168.948 115.986 171.408 116.45C174.061 116.949 177.107 116.408 179.92 115.208C178.168 112.696 175.199 111.062 172.244 110.749C169.546 110.464 166.857 111.286 165.115 113.129Z" fill="#DD6B5B"/>
<path d="M173.22 103.548C167.697 102.84 163.487 100.608 163.268 97.7683L163.257 97.5949C164.983 97.1501 169.691 98.017 172.544 98.36C175.655 98.7331 184.58 99.9769 184.58 99.9769L184.526 100.141C183.587 102.834 178.738 104.255 173.22 103.548Z" fill="white"/>
<path d="M210.205 101.541C210.003 103.675 206.875 105.126 203.217 104.781C199.559 104.436 196.757 102.427 196.956 100.294C197.158 98.1604 200.286 96.7092 203.944 97.0541C207.604 97.3971 210.406 99.4079 210.205 101.541Z" fill="#FF8A8A"/>
<path d="M154.815 94.2252C154.449 96.0965 152.357 97.2612 150.141 96.8296C147.927 96.3962 146.427 94.5305 146.792 92.6591C147.158 90.7878 149.25 89.6231 151.464 90.0547C153.68 90.4862 155.18 92.3538 154.815 94.2252Z" fill="#FF8A8A"/>
<path d="M177.476 93.423C177.242 93.3929 177.06 93.1969 177.05 92.9538C176.995 91.2276 175.804 89.9593 174.018 89.7218C172.222 89.4844 170.709 90.4153 170.251 92.0398C170.177 92.2999 169.906 92.4525 169.646 92.379C169.386 92.3055 169.233 92.0341 169.307 91.7741C169.891 89.6917 171.881 88.4479 174.146 88.7494C176.398 89.0472 177.958 90.7244 178.03 92.9199C178.039 93.1913 177.827 93.4174 177.555 93.4268L177.476 93.423Z" fill="#C4735B"/>
<path d="M165.07 89.4595C165.07 89.4595 153.829 92.716 150.876 84.4202C147.275 74.3115 155.838 67.8796 160.513 69.9997C164.838 71.9634 168.182 77.9581 165.07 89.4595Z" fill="#F9FEFF"/>
<path d="M151.756 72.2646C154.195 69.1042 156.982 68.3843 159.788 69.1702C162.656 69.9749 165.216 73.2596 165.64 76.3484C164.533 72.7847 161.993 71.1904 160.376 70.4573C157.802 69.2851 154.042 70.4818 151.988 73.6422C150.16 76.4539 149.653 80.9749 150.974 84.6837C149.171 82.0378 149.214 75.5588 151.756 72.2646Z" fill="#773220"/>
<path d="M164.82 78.896C165.319 82.4201 163.593 86.1025 160.964 87.122C158.335 88.1397 155.798 86.1081 155.297 82.584C154.798 79.0599 156.524 75.3757 159.153 74.358C161.784 73.3385 164.32 75.37 164.82 78.896Z" fill="#229996"/>
<path d="M164.58 77.7918C164.718 78.7699 164.239 79.7913 163.51 80.074C162.781 80.3567 162.076 79.7932 161.938 78.8151C161.799 77.837 162.279 76.8156 163.009 76.5329C163.738 76.2503 164.443 76.8137 164.58 77.7918Z" fill="#FEFFFE"/>
<path d="M186.496 92.0335C186.496 92.0335 199.185 98.588 205.331 91.5454C212.818 82.9632 204.366 74.1888 198.022 74.79C192.15 75.3459 186.238 80.0667 186.496 92.0335Z" fill="#F9FEFF"/>
<path d="M207.99 79.6334C205.99 75.8605 202.816 74.319 199.159 74.2153C195.42 74.1098 191.292 76.473 189.83 79.2998C192.271 76.2261 195.853 75.4742 198.049 75.2669C201.544 74.9314 205.754 77.2268 207.287 80.8809C208.649 84.1318 207.88 88.617 205.131 91.7661C208.138 89.7854 210.072 83.5645 207.99 79.6334Z" fill="#773220"/>
<path d="M204.722 83.9281C205.48 87.4917 203.45 91.1289 200.19 92.0523C196.929 92.9757 193.671 90.833 192.913 87.2693C192.156 83.7057 194.186 80.0685 197.446 79.1451C200.706 78.2235 203.964 80.3644 204.722 83.9281Z" fill="#229996"/>
<path d="M204.383 82.8087C204.594 83.7981 204.031 84.8063 203.126 85.0626C202.222 85.3189 201.317 84.7253 201.108 83.7359C200.897 82.7465 201.46 81.7383 202.365 81.482C203.267 81.2257 204.172 81.8193 204.383 82.8087Z" fill="#FEFFFE"/>
<path d="M212.858 66.0336C212.51 65.9601 212.187 65.7641 211.961 65.455C209.065 61.5277 202.486 59.2266 196.644 60.1124C195.833 60.2386 195.066 59.6771 194.94 58.8554C194.816 58.0394 195.377 57.278 196.197 57.1518C203.168 56.1002 210.814 58.8479 214.372 63.6836C214.862 64.3488 214.718 65.2855 214.053 65.7754C213.697 66.0374 213.262 66.1165 212.858 66.0336Z" fill="#842F21"/>
<path d="M152.531 58.3567C152.199 58.3359 151.881 58.1644 151.662 57.8535C151.255 57.2749 151.351 56.4363 151.879 55.9765C155.714 52.6408 162.251 52.0642 167.423 54.6008C168.029 54.9004 168.295 55.6881 168.018 56.3647C167.739 57.0431 167.023 57.3484 166.418 57.0488C162.085 54.9155 156.468 55.3546 153.353 58.0683C153.111 58.2813 152.817 58.3755 152.531 58.3567Z" fill="#842F21"/>
<path d="M106.987 117.667C109.121 120.707 112.935 121.376 116.483 120.285C120.032 119.194 120.047 116.518 119.05 112.941C118.223 109.967 110.905 109.253 107.225 109.746C104.545 110.103 104.402 113.985 106.987 117.667Z" fill="#F29D77"/>
<path d="M112.484 117.473C114.302 117.807 115.885 117.488 116.017 116.761C116.151 116.033 114.785 115.176 112.964 114.842C111.146 114.509 109.563 114.827 109.429 115.555C109.297 116.28 110.665 117.14 112.484 117.473Z" fill="#C16B49"/>
<path d="M99.91 97.5293C104.261 99.2329 122.92 109.558 132.26 114.298C133.411 114.882 129.797 121.521 127.805 122.045C124.341 125.481 118.156 125.373 108.204 123.713C107.836 123.651 102.618 121.395 100.347 119.825C102.872 114.456 108.933 119.381 112.378 116.897C114.924 115.061 113.343 112.834 111.811 111.403C104.695 104.753 97.1793 103.125 99.91 97.5293Z" fill="#FFC19F"/>
<path opacity="0.25" d="M227.945 156.339C229.385 160.822 230.749 166.596 231.944 174.319C223.456 176.703 215.449 178.056 212.89 177.97C211.35 171.153 208.992 159.646 208.029 154.763C209.639 149.792 226.522 155.152 227.945 156.339Z" fill="#380202"/>
<path d="M228.717 138.978C231.866 142.991 235.282 153.112 239.334 170.782C231.244 173.055 216.556 175.974 214.113 175.893C210.538 161.632 206.846 150.016 205.927 145.359C206.762 142.78 207.911 139.093 209.975 136.53C212.67 133.18 218.284 132.111 222.271 133.719C224.535 134.633 226.589 136.267 228.717 138.978Z" fill="#F72828"/>
<path d="M211.882 194.369L169.316 193.532L165.059 149.434L169.832 146.046C170.369 145.697 170.985 145.495 171.622 145.461L207.504 143.993C208.017 143.973 208.288 144.385 208.333 144.911L213.005 193.287C213.056 193.862 212.445 194.373 211.882 194.369Z" fill="#55267A"/>
<path d="M210.65 193.463L204.674 198.078L170.731 196.777L166.248 150.359L170.775 147.387L206.095 146.291L210.65 193.463Z" fill="#F9E7D7"/>
<path d="M206.752 198.969L169.715 197.665L165.059 149.434L202.276 148.824C203.055 148.808 203.68 149.415 203.756 150.211L208.303 197.307C208.39 198.217 207.644 198.999 206.752 198.969Z" fill="#7737A5"/>
<path opacity="0.56" d="M201.185 195.23C201.018 195.253 200.842 195.26 200.671 195.254L174.858 194.163C173.428 194.109 172.131 193.001 171.984 191.58L168.585 156.363C168.502 155.557 168.654 154.756 169.195 154.149C169.732 153.544 170.545 153.19 171.317 153.18L197.226 152.865C198.747 152.847 199.998 153.972 200.145 155.483L203.679 192.081C203.761 192.916 203.473 193.743 202.896 194.352C202.44 194.838 201.832 195.143 201.185 195.23ZM171.07 153.964C170.571 154.032 170.102 154.279 169.766 154.658C169.359 155.112 169.282 155.683 169.348 156.284L172.748 191.5C172.853 192.544 173.839 193.357 174.885 193.398L200.707 194.489C201.317 194.512 201.915 194.273 202.342 193.826C202.765 193.377 202.977 192.771 202.913 192.154L199.38 155.557C199.276 154.445 198.353 153.616 197.237 153.629L171.329 153.943C171.238 153.947 171.155 153.953 171.07 153.964Z" fill="white"/>
<path opacity="0.23" d="M164.489 171.214C165.375 169.862 169.366 170.113 171.694 170.366C172.902 170.498 174.336 170.85 174.351 170.545C174.376 170.07 167.921 167.535 168.931 165.911C169.342 165.251 176.068 164.769 178.228 165.765C180.932 167.013 182.777 168.067 182.926 167.565C183.069 167.083 179.326 163.097 181.752 161.78C182.739 161.243 186.7 163.434 188.517 164.527C190.343 165.624 196.355 174.777 198.543 176.886C198.543 176.886 195.42 186.201 195.443 186.899C186.725 186.972 176.013 186.13 171.909 185.438C169.953 185.108 165.778 181.349 165.882 180.81C166.165 179.355 167.307 179.466 167.222 179.206C167.097 178.822 164.369 177.465 164.41 176.654C164.525 174.429 166.73 174.308 166.822 174.046C166.954 173.681 163.756 172.333 164.489 171.214Z" fill="#A31708"/>
<path d="M171.891 185.195C175.996 185.887 180.722 186.221 189.44 186.147C195.749 186.094 197.413 181.37 196.922 178.066C196.639 176.168 191.093 166.499 188.336 164.842C186.519 163.749 182.742 161.686 182.296 161.904C180.138 162.965 181.851 165.815 184.802 167.756C185.616 168.406 186.246 169.147 186.666 170.767C186.359 171.514 180.743 167.467 178.038 166.22C175.879 165.225 169.345 165.255 168.934 165.915C167.924 167.539 173.252 168.971 175.361 169.74C176.094 170.008 178.025 171.416 179.107 172.461C177.303 172.411 174.124 171.585 172.916 171.455C170.589 171.203 165.576 169.964 164.717 171.331C164.044 172.397 167.067 173.901 170.979 175.077C171.929 175.364 175.421 176.525 177.678 177.35C177.662 177.45 172.093 176.975 171.337 176.728C169.1 175.993 166.149 174.712 164.562 176.466C164.129 176.945 168.68 179.898 171.049 180.458C172.106 180.706 174.418 181.351 177.256 181.82C175.57 181.941 172.445 181.781 171.787 181.737C168.578 180.113 167.238 179.576 166.024 180.868C165.648 181.262 169.935 184.866 171.891 185.195Z" fill="#FFC19F"/>
<path d="M192.002 173.224C204.142 173.993 224.914 173.373 235.61 171.979C236.739 177.721 234.973 188.097 223.979 188.512C213.755 188.898 204.67 187.848 190.53 185.084C188.54 184.694 190.029 173.1 192.002 173.224Z" fill="#FFC19F"/>
<path d="M287.261 120.653C286.558 117.894 288.594 117.006 290.701 115.97C293.428 114.628 295.429 113.735 294.191 105.976C293.62 102.392 294.583 99.9381 297.332 96.9888C299.37 94.8008 299.607 94.733 302.021 91.6932C301.412 98.2364 294.289 99.1466 296.45 107.618C299.63 120.076 287.114 115.437 289.613 122.541C294.517 136.476 291.843 138.647 289.636 140.196C287.766 141.507 278.281 149.277 300.596 165.143C301.026 162.083 301.78 155.551 303.287 153.158C303.568 156.488 304.526 164.216 306.521 166.274C327.174 178.088 384.355 174.77 404.197 171.323C406.206 169.497 411.375 160.104 412.35 155.357C415.111 164.252 409.958 169.512 409.958 170.416C414.592 169.357 420.506 166.259 421.373 160.562C422.13 155.591 420.472 154.294 418.107 147.606C416.364 142.676 426.7 136.811 416.801 131.171C410.606 127.641 410.831 122.683 412.638 118.983C412.561 119.763 412.57 120.534 412.813 121.284C413.46 123.271 415.016 126.356 418.467 128.423C421.034 129.961 422.826 131.316 423.276 133.123C423.612 134.465 423.538 135.857 422.338 138.264C420.647 141.651 420.792 144.406 421.299 146.117C422.658 150.7 425.389 152.114 423.178 157.132C426.531 152.33 423.838 150.229 422.176 145.642C421.652 144.195 421.808 141.311 422.715 139.48C424 136.883 425.01 135.563 424.271 132.597C423.727 130.409 421.729 129.058 418.865 127.466C415.783 125.751 414.281 122.609 413.74 120.941C413.1 118.97 413.659 117.721 414.884 115.248C417.977 109.014 416.784 103.718 413.168 97.4995C410.071 92.1757 407.934 92.0532 406.739 84.059C406.739 84.059 305.654 80.9306 302.562 80.7817C302.413 89.8087 299.628 91.2805 296.375 95.5961C293.901 98.879 291.929 100.694 293.154 105.993C294.49 111.769 293.117 113.629 290.288 115.022C288.213 116.043 285.863 117.199 286.287 120.789C287.431 130.487 287.048 132.673 283.977 136.651C284.958 136.381 290.38 132.897 287.261 120.653ZM411.924 98.0686C415.448 103.272 416.594 108.213 414.6 113.364C414.884 106.172 409.941 95.1438 411.924 98.0686Z" fill="#752912"/>
<path d="M399.609 230.966C395.235 233.708 391.592 235.708 387.011 237.359C378.367 239.905 331.353 237.883 330.74 233.571C328.083 171.577 324.812 161.587 335.821 157.2C341.808 156.542 366.313 155.434 384.832 155.569C393.036 155.63 397.972 155.918 398.663 173.763C398.682 174.225 395.689 174.326 395.269 174.411C395.629 188.455 398.74 221.146 399.609 230.966Z" fill="#F93B00"/>
<path d="M394.467 168.262C394.303 166.605 393.351 158.922 388.355 158.943C382.96 158.966 383.018 166.583 382.993 169.208C382.869 182.294 385.006 210.779 387.439 236.475C391.408 234.82 395.375 232.694 399.27 229.998C397.346 206.294 395.669 180.376 394.467 168.262Z" fill="#590707"/>
<path d="M394.435 167.471C391.896 167.723 383.892 167.876 383.007 168.176C382.86 180.762 384.863 212.617 387.254 237.334C391.225 235.742 395.906 233.867 399.805 231.27C397.921 208.473 396.21 179.739 394.435 167.471Z" fill="#FF6C22"/>
<path opacity="0.37" d="M385.003 210.474C385.723 220.944 386.299 227.459 387.255 237.336C391.228 235.743 395.907 233.868 399.806 231.271C399.197 223.901 398.568 215.066 397.987 207.211C395.251 208.353 388.205 209.714 385.003 210.474Z" fill="#700606"/>
<path d="M385.029 210.769C385.681 219.76 386.445 228.955 387.257 237.336C388.126 237.319 388.887 237.69 389.735 237.464C393.481 236.456 396.393 234.219 399.84 231.933C402.209 230.359 399.748 213.108 398.894 207.946C398.773 207.215 398.163 206.887 397.942 206.91C398.621 211.484 389.447 212.345 385.029 210.769Z" fill="#FF6C22"/>
<path opacity="0.19" d="M327.021 238.755C328.661 237.807 334.77 235.124 338.564 234.142C343.351 232.904 378.192 233.814 378.192 233.814C380.595 245.103 384.684 245.604 377.472 253.04C373.646 256.985 352.344 261.095 347.913 262.007C350.894 273.107 353.305 283.474 355.41 290.669C355.657 291.511 336.983 296.786 336.826 296.264C334.603 288.954 321.699 256.114 320.885 251.757C320.178 247.986 321.141 242.155 327.021 238.755Z" fill="#820303"/>
<path d="M354.141 291.044C354.648 292.778 338.616 297.619 338.089 295.885C333.385 280.421 323.695 259.594 322.183 251.523C321.542 248.101 323.904 241.124 328.839 239.364C332.642 238.007 339.389 235.813 339.389 235.813C342.059 248.044 350.383 278.191 354.141 291.044Z" fill="#FFC19F"/>
<path d="M330.27 208.178C330.658 208.141 331.028 207.949 331.288 207.619C331.785 206.978 331.669 206.055 331.032 205.559C326.618 202.135 324.272 190.852 324.63 182.366C324.664 181.556 324.034 180.871 323.226 180.838C322.44 180.815 321.733 181.429 321.697 182.241C321.385 189.65 323.156 203.162 329.23 207.879C329.535 208.116 329.91 208.212 330.27 208.178Z" fill="#CCCCCC"/>
<path d="M277.258 146.339C278.036 144.372 281.592 138.566 284.04 135.886C305.942 149.464 329.433 158.089 334.874 160.136L326.544 174.038C315.855 170.718 294.873 159.226 277.258 146.339Z" fill="#FFC19F"/>
<path d="M312.307 150.596C309.791 155.447 305.487 166.357 303.457 171.848C314.487 177.558 323.71 181.636 324.609 181.563C333.958 180.8 340.812 163.177 341.536 162.233C335.685 160.245 323.207 155.852 312.307 150.596Z" fill="#28AFC6"/>
<path d="M265.613 139.012C265.093 139.753 263.697 139.87 261.528 140.124C259.647 140.345 256.816 140.59 255.753 141.553C254.619 142.582 255.714 143.735 257.874 144.24C261.439 145.077 269.556 146.671 273.641 147.176C280.548 148.478 287.759 144.131 288.778 137.612C290.308 127.837 290.305 123.951 291.024 117.909C291.202 116.421 287.987 117.367 286.986 119.159C284.843 122.998 285.382 124.534 284.125 126.412C282.898 128.244 281.221 127.551 279.666 126.1C274.175 116.911 272 111.035 268.772 111.255C266.139 111.858 269.071 118.703 272.729 126.267C265.966 120.137 260.037 115.778 258.714 117.779C257.148 120.146 262.875 125.546 267.654 130.92C260.778 129.818 253.965 126.712 253.385 130.313C252.957 132.944 267.078 136.928 265.613 139.012Z" fill="#FFC19F"/>
<path d="M385.41 231.026C371.612 233.327 354.423 234.257 341.987 232.404C331.633 230.863 328.778 228.128 326.303 226.409C326.102 226.27 324.536 226.813 324.366 226.737C323.906 222.733 326.305 224.297 326.893 222.601C328.293 218.564 323.637 167.646 323.558 163.471C330.694 161.076 338.34 158.905 346.2 159.084C357.314 159.337 368.868 162.005 372.026 164.174C379.395 169.23 378.347 178.734 379.917 192.51C381.145 203.294 383.644 215.856 385.41 231.026Z" fill="#28AFC6"/>
<path d="M328.078 180.163C327.358 181.985 327.727 185.082 328.447 186.653C329.672 189.322 332.147 189.703 333.453 187.4C334.039 186.367 329.947 182.769 328.078 180.163Z" fill="#FFB8B6"/>
<path d="M328.973 183.709C328.771 184.701 329.376 186.397 330 187.26C331.057 188.728 332.573 188.956 333.061 187.707C333.277 187.147 330.405 185.149 328.973 183.709Z" fill="#E08686"/>
<path d="M330.155 204.353C333.458 208.874 343.833 209.174 348.778 205.314C352.545 202.372 353.352 196.964 350.236 191.067C347.323 185.555 340.748 182.061 334.906 185.144C330.222 187.613 325.451 197.914 330.155 204.353Z" fill="#FFB8B6"/>
<path d="M333.024 198.487C333.158 199.156 333.752 199.576 334.351 199.425C334.95 199.276 335.329 198.613 335.195 197.946C335.063 197.277 334.468 196.856 333.869 197.007C333.271 197.156 332.892 197.819 333.024 198.487Z" fill="#773733"/>
<path d="M341.729 198.532C341.863 199.199 342.457 199.619 343.056 199.47C343.655 199.322 344.034 198.658 343.9 197.991C343.769 197.322 343.173 196.902 342.574 197.053C341.974 197.203 341.598 197.863 341.729 198.532Z" fill="#773733"/>
<path d="M333.021 190.613C333.136 190.931 333.603 191.02 334.065 190.811C334.527 190.603 334.807 190.178 334.692 189.859C334.578 189.541 334.11 189.452 333.648 189.659C333.187 189.869 332.906 190.294 333.021 190.613Z" fill="#8E4D4C"/>
<path d="M343.241 190.283C343.166 190.615 343.496 190.995 343.978 191.131C344.46 191.267 344.913 191.106 344.988 190.775C345.064 190.441 344.734 190.062 344.251 189.927C343.769 189.791 343.317 189.951 343.241 190.283Z" fill="#8E4D4C"/>
<path d="M333.933 202.055C333.609 204.377 335.298 206.776 338.155 206.914C341.025 207.051 343.993 204.091 342.968 201.637C341.839 198.938 334.421 198.565 333.933 202.055Z" fill="#FFF0F0"/>
<path d="M336.215 202.955C336.385 202.981 336.568 202.97 336.756 202.919C337.178 202.8 337.4 202.467 337.621 201.982C337.826 202.406 338.241 202.851 338.769 202.947C339.355 203.051 339.871 202.845 340.208 202.397C340.271 202.314 340.244 202.188 340.165 202.125C340.088 202.063 339.988 202.092 339.922 202.173C339.524 202.657 339.172 202.687 338.876 202.63C338.26 202.514 337.824 201.813 337.781 201.309C337.785 201.247 337.783 201.181 337.781 201.117C337.775 201.015 337.704 200.936 337.61 200.932C337.517 200.929 337.389 200.953 337.382 201.053C337.376 201.119 337.376 201.187 337.382 201.255C337.342 201.929 337.078 202.297 336.669 202.544C336.358 202.73 335.872 202.572 335.661 202.086C335.618 201.988 335.514 201.948 335.427 201.994C335.341 202.041 335.305 202.156 335.346 202.252C335.52 202.647 335.836 202.896 336.215 202.955Z" fill="#8E4D4C"/>
<path d="M336.439 200.032C336.405 200.707 337.547 201.319 337.856 201.28C338.235 201.231 339.296 200.735 339.33 200.06C339.364 199.386 336.473 199.357 336.439 200.032Z" fill="#773733"/>
<path d="M353.815 180.951C354.644 182.809 354.06 185.885 353.097 187.415C351.459 190.018 348.346 190.27 346.803 187.901C346.109 186.84 351.373 183.459 353.815 180.951Z" fill="#FFB8B6"/>
<path d="M352.555 184.449C352.766 185.449 351.944 187.112 351.13 187.943C349.749 189.354 347.843 189.503 347.282 188.229C347.031 187.66 350.704 185.813 352.555 184.449Z" fill="#E08686"/>
<path d="M336.545 173.041C333.694 171.616 331.523 166.46 335.395 160.692C338.754 159.139 346.539 158.21 354.429 158.404C357.39 158.477 360.286 159.406 362.746 160.451C363.875 161.306 363.903 162.833 362.111 163.688C359.169 165.092 356.257 167.768 354.011 169.536C347.666 174.534 340.542 175.037 336.545 173.041Z" fill="#FFC19F"/>
<path d="M326.724 184.872L321.094 184.38C320.817 184.294 320.165 184.218 320.065 184.175C320.154 180.996 322.086 170.868 325.152 164.629C327.713 159.416 330.591 156.367 334.855 156.681C337.284 156.86 340.337 158.47 341.4 159.265C342.15 159.825 342.712 160.761 342.633 160.712C342.405 160.505 342.039 160.104 341.214 159.966C338.668 159.544 331.484 161.706 329.228 168.433C327.359 174.004 326.724 184.872 326.724 184.872Z" fill="#BC380A"/>
<path d="M324.779 184.494L320.065 184.173C320.116 181.371 320.689 170.887 323.512 164.338C325.721 159.216 329.466 155.965 333.252 156.146C335.524 156.256 338.958 157.771 339.817 158.794C340.147 159.186 340.611 160.224 340.614 160.616C340.207 160.038 339.67 159.395 338.973 159.137C337.245 158.496 330.204 159.808 327.438 167.71C325.647 172.815 324.779 184.494 324.779 184.494Z" fill="#FF791F"/>
<path d="M333.745 144.217L335.172 164.928C335.385 169.455 337.429 171.166 342.472 171.161C348.277 171.155 353.578 165.285 359.637 161.097L358.619 142.862L333.745 144.217Z" fill="#FFC19F"/>
<path d="M381.986 221.34C375.735 222.989 365.532 226.067 362.436 226.9C344.02 231.85 333.172 236.108 329.173 238.286C328.678 238.556 328.075 239.176 328.261 239.562C328.487 239.415 328.885 239.351 329.158 239.194C332.462 238.755 335.015 238.961 337.929 241.46C342.282 245.191 342.774 250.057 345.563 259.385C350.599 259.016 359.577 257.326 363.074 256.577C367.771 255.573 375.028 254.184 378.746 250.347C385.391 243.495 384.411 232.729 381.986 221.34Z" fill="#2A535E"/>
<path d="M385.868 233.707C384.686 234.199 380.817 235.974 372.469 234.402C366.433 233.266 358.927 228.673 346.764 231.353C354.104 215.57 376.065 210.363 382.206 210.363C383.007 214.884 385.278 226.709 385.868 233.707Z" fill="#28AFC6"/>
<path d="M357.368 295.559C357.465 295.942 337.72 302.86 337.5 302.414C335.872 299.102 333.278 290.697 332.395 288.754L353.307 281.456C354.289 285.319 356.748 293.11 357.368 295.559Z" fill="#FFFFE3"/>
<path d="M331.891 298.504C331.789 297.356 331.889 295.818 331.897 294.442C331.903 293.421 340.717 290.315 341.54 292.458C341.751 293.006 341.909 293.502 342.028 293.96C343.532 293.419 345.151 292.797 346.845 292.098C350.528 290.577 353.759 289.034 355.968 287.788C357.383 291.135 359.272 297.137 360.813 300.871C360.813 300.871 324.447 322.686 316.185 319.303C313.856 318.348 321.034 307.61 331.891 298.504Z" fill="#F44D19"/>
<path d="M359.898 298.51C360.211 299.35 360.52 300.159 360.812 300.869C360.812 300.869 324.446 322.685 316.184 319.302C315.856 319.168 315.721 318.835 315.753 318.345C327.405 316.682 350.788 303.751 359.898 298.51Z" fill="#B22909"/>
<path d="M335.686 300.803C335.852 300.91 336.054 300.922 336.224 300.852C336.331 300.809 336.425 300.731 336.491 300.628C336.664 300.356 336.585 299.996 336.314 299.821C334.049 298.372 331.017 298.302 328.928 299.638C328.657 299.814 328.58 300.174 328.755 300.445C328.928 300.716 329.285 300.79 329.562 300.62C331.271 299.508 333.792 299.593 335.686 300.803ZM333.419 303.164C333.576 303.242 333.751 303.242 333.9 303.179C334.026 303.127 334.135 303.031 334.201 302.899C334.343 302.608 334.224 302.258 333.936 302.117C331.527 300.927 328.83 300.909 326.543 302.077C326.254 302.222 326.141 302.573 326.286 302.861C326.431 303.147 326.795 303.283 327.07 303.117C328.224 302.531 330.577 301.762 333.419 303.164ZM323.72 305.575C323.882 305.854 324.232 305.957 324.517 305.786C326.209 304.772 328.936 304.776 331.105 305.739C331.258 305.806 331.424 305.803 331.565 305.744C331.699 305.69 331.812 305.584 331.876 305.443C332.006 305.149 331.874 304.804 331.58 304.672C329.091 303.566 325.949 303.602 323.933 304.778C323.654 304.94 323.559 305.296 323.72 305.575Z" fill="#D3DAE5"/>
<path d="M437.488 143.235C437.952 144.011 439.337 144.228 441.483 144.639C443.343 144.995 446.148 145.446 447.139 146.482C448.196 147.59 447.02 148.661 444.83 149.009C441.214 149.584 433.001 150.587 428.891 150.792C421.909 151.591 415.034 146.731 414.487 140.156C413.669 130.296 413.956 126.419 413.675 120.342C413.605 118.843 416.743 120.019 417.612 121.881C419.47 125.865 418.822 127.358 419.939 129.323C421.028 131.24 422.753 130.669 424.409 129.335C430.553 120.568 433.148 114.867 436.352 115.321C438.932 116.115 435.513 122.727 431.314 130.006C438.506 124.382 444.734 120.466 445.91 122.556C447.301 125.03 441.197 130 436.039 135.013C442.978 134.412 449.998 131.809 450.316 135.442C450.552 138.103 436.18 141.051 437.488 143.235Z" fill="#FFC19F"/>
<path d="M379.713 221.113C381.53 221.074 383.236 220.823 384.745 220.422C385.459 220.231 385.895 219.44 385.719 218.648C385.542 217.87 384.836 217.38 384.108 217.567C378.664 219.018 370.245 218.288 364.516 211.429C358.68 204.433 355.831 195.306 356.045 184.301C356.062 183.492 355.482 182.816 354.745 182.797C353.971 182.672 353.403 183.417 353.386 184.225C353.153 196.019 356.24 205.835 362.56 213.413C367.477 219.306 374.109 221.23 379.713 221.113Z" fill="#CCCCCC"/>
<path d="M359.265 185.898L352.23 185.517C352.004 185.349 351.271 185.477 351.005 185.308C350.638 182.149 352.313 172.171 355.114 165.503C357.452 159.934 360.502 156.951 365.726 156.363C369.361 155.954 372.448 155.415 375.783 156.648C378.015 157.473 381.134 161.395 382.554 164.191C379.988 161.566 377.031 158.651 373.88 158.381C368.626 157.933 362.392 161.593 360.649 168.613C359.207 174.425 359.265 185.898 359.265 185.898Z" fill="#BC380A"/>
<path d="M357.307 185.74L351.005 185.308C350.642 182.528 350.698 171.786 353.378 164.832C355.474 159.394 360.015 155.689 363.619 155.491C367.224 155.291 373.332 154.844 375.429 155.864C380.387 158.272 382.734 163.79 383.408 165.04C383.116 164.718 382.632 164.228 382.509 164.101C381.535 162.168 378.29 156.953 373.492 156.245C367.529 155.365 361.416 159.218 359.017 167.501C357.468 172.853 357.307 185.74 357.307 185.74Z" fill="#FF791F"/>
<path d="M425.239 149.249C424.574 147.24 421.354 141.241 419.062 138.426C396.425 150.739 372.484 158.016 366.934 159.751L374.459 174.104C385.319 171.396 406.922 161.114 425.239 149.249Z" fill="#FFC19F"/>
<path d="M389.643 150.706C391.801 155.726 395.302 166.921 396.928 172.542C385.514 177.436 376.017 180.834 375.128 180.697C370.878 180.037 367.409 175.882 364.835 171.477C361.633 166.001 364.46 158.964 370.545 157.168C376.387 155.442 383.258 153.231 389.643 150.706Z" fill="#28AFC6"/>
<path opacity="0.19" d="M359.011 148.563C361.256 152.929 357.564 159.299 350.77 162.791C343.975 166.283 336.646 165.575 334.403 161.208C332.159 156.842 335.85 150.47 342.644 146.978C349.44 143.486 356.767 144.195 359.011 148.563Z" fill="#820303"/>
<path d="M409.659 98.3401C407.633 127.664 388.418 148.633 359.136 148.471C329.473 148.307 296.564 114.69 303.531 80.1449C307.4 60.964 326.294 46.6038 354.436 50.0035C384.389 53.6199 411.672 69.2032 409.659 98.3401Z" fill="#752912"/>
<path d="M391.417 91.2981C392.191 95.9454 380.051 140.36 371.844 147.748C364.383 154.464 338.043 159.703 326.415 157.969C318.189 156.743 302.398 145.164 300.403 134.469C298.697 125.331 300.604 121.658 302.061 114.474C303.772 106.045 304.093 98.2162 304.172 94.3115C304.29 88.6013 304.72 81.5701 306.448 77.6992C314.567 59.504 332.96 61.3357 354.282 63.7687C374.231 66.0433 388.611 74.4691 391.417 91.2981Z" fill="#FFC19F"/>
<path d="M372.757 132.677C376.456 132.978 399.319 129.916 403.439 120.254C405.993 114.261 406.99 104.754 406.241 98.2614C404.99 87.414 392.087 74.373 385.217 76.951C385.579 86.7299 373.565 127.768 372.757 132.677Z" fill="#752912"/>
<path d="M394.752 133.592C389.643 142.858 378.408 146.633 371.401 143.815C364.394 140.996 372.769 111.733 386.504 112.498C397.941 113.133 399.554 124.881 394.752 133.592Z" fill="#FFC19F"/>
<path d="M386.279 131.073C384.651 135.123 379.052 137.473 375.798 135.419C374.529 134.618 380.554 120.584 382.763 121.14C386.494 122.082 387.908 127.023 386.279 131.073Z" fill="#E0956C"/>
<path d="M310.696 59.7522C322.088 52.0595 331.006 48.394 349.378 51.3019C362.466 53.373 380.083 57.2514 387.953 65.4416C396.512 74.3517 387.47 103.973 385.552 101.472C383.358 98.6114 377.574 95.4322 372.871 92.7976C372.75 89.8615 370.502 82.2046 369.985 81.1511C369.978 82.6889 369.465 88.0222 369.166 90.8603C363.226 87.9581 356.283 85.4517 349.382 83.7104C350.06 80.7573 349.431 76.6471 349.461 76.4436C348.492 77.1917 346.121 81.0758 345.108 82.7285C344.062 82.5137 343.021 82.3177 341.991 82.1424C332.543 80.5443 325.439 80.0204 319.657 80.2692C321.609 71.116 322.163 68.2477 322.105 68.8847C320.748 70.658 318.458 76.0591 317.586 80.3954C315.409 80.5688 313.423 80.859 311.565 81.2473C311.866 78.5373 312.1 74.1086 312.156 73.3604C311.333 73.7279 308.889 79.4061 307.895 82.182C304.743 83.1299 303.815 83.7782 300.61 84.5226C299.473 81.1719 303.604 64.5427 310.696 59.7522Z" fill="#752912"/>
<path d="M399.858 99.0532C399.858 99.0532 401.639 107.17 397.028 106.397C392.416 105.623 389.25 101.592 389.953 97.393C390.658 93.1942 394.968 90.4164 399.579 91.1891C404.191 91.9617 399.858 99.0532 399.858 99.0532Z" fill="#F9951E"/>
<path d="M375.096 94.8979C375.096 94.8979 370.763 101.989 375.373 102.762C379.985 103.537 384.295 100.759 384.999 96.5581C385.704 92.3594 382.536 88.3265 377.925 87.5538C373.315 86.7812 375.096 94.8979 375.096 94.8979Z" fill="#F9951E"/>
<path d="M384.405 96.5691C384.069 98.5648 385.223 100.421 386.977 100.715C388.732 101.009 390.428 99.6314 390.763 97.6357C391.099 95.64 389.945 93.7837 388.191 93.4897C386.434 93.1957 384.738 94.5733 384.405 96.5691Z" fill="#F9951E"/>
<path d="M368.178 97.9718C367.827 97.8964 367.503 97.6967 367.279 97.3857C364.39 93.4225 357.792 91.0725 351.914 91.9281C351.098 92.0506 350.331 91.4815 350.209 90.656C350.088 89.8344 350.657 89.073 351.481 88.9505C358.493 87.9348 366.163 90.739 369.71 95.6199C370.198 96.2927 370.049 97.2312 369.378 97.7193C369.018 97.9813 368.581 98.0585 368.178 97.9718Z" fill="#6D1403"/>
<path d="M308.326 90.1001C307.995 90.0775 307.674 89.9023 307.458 89.5894C307.051 89.0052 307.154 88.1628 307.688 87.703C311.562 84.3711 318.136 83.8303 323.32 86.4083C323.929 86.7136 324.192 87.507 323.91 88.1836C323.625 88.8639 322.903 89.1673 322.298 88.862C317.955 86.6929 312.307 87.1018 309.161 89.8137C308.911 90.0266 308.615 90.1209 308.326 90.1001Z" fill="#6D1403"/>
<path d="M349.485 130.154C349.35 124.956 342.251 124.879 332.709 123.138C332.21 123.047 330.265 122.71 329.764 122.627C320.19 121.057 314.821 118.809 313.447 123.858C310.961 132.984 316.329 144.075 325.915 146.346C335.468 148.609 349.751 140.366 349.485 130.154Z" fill="#701608"/>
<path d="M318.046 141.603C320.153 143.857 322.778 145.604 325.916 146.346C329.299 147.147 333.265 146.582 336.978 145.127C334.901 141.691 331.196 139.364 327.408 138.797C323.95 138.28 320.426 139.236 318.046 141.603Z" fill="#DD6B5B"/>
<path d="M329.191 129.256C322.124 128.031 316.859 124.844 316.783 121.05L316.781 120.818C319.039 120.313 325.045 121.71 328.695 122.311C332.679 122.967 344.092 125.078 344.092 125.078L344.009 125.294C342.605 128.832 336.252 130.479 329.191 129.256Z" fill="white"/>
<path d="M365.851 130.91C365.547 133.043 362.338 134.351 358.68 133.831C355.024 133.311 352.305 131.16 352.608 129.027C352.911 126.896 356.123 125.586 359.777 126.106C363.435 126.628 366.154 128.778 365.851 130.91Z" fill="#FF8A8A"/>
<path d="M310.665 120.473C310.209 122.335 308.053 123.406 305.85 122.865C303.647 122.326 302.23 120.379 302.686 118.519C303.142 116.657 305.298 115.587 307.501 116.128C309.704 116.668 311.121 118.613 310.665 120.473Z" fill="#FF8A8A"/>
<path d="M334.143 119.239C333.909 119.198 333.734 118.992 333.738 118.747C333.764 117.012 332.628 115.681 330.845 115.359C329.053 115.035 327.489 115.898 326.954 117.507C326.867 117.765 326.588 117.905 326.33 117.818C326.072 117.733 325.932 117.454 326.019 117.194C326.705 115.133 328.763 113.977 331.02 114.386C333.267 114.793 334.754 116.55 334.722 118.759C334.718 119.032 334.494 119.249 334.222 119.245L334.143 119.239Z" fill="#C4735B"/>
<path d="M322.585 110.849C321.339 107.001 318.407 104.447 314.873 104.097C313.179 103.918 311.53 104.264 310.034 104.988C308.977 104.076 308.603 102.638 308.37 102.715C308.032 102.827 307.684 105.05 308.413 106.049C308.168 106.236 307.899 106.377 307.671 106.59C305.846 106.405 304.412 104.819 304.267 105.282C304.131 105.716 304.808 107.881 306.12 108.482C306.016 108.639 305.875 108.753 305.777 108.917C305.364 109.611 305.5 110.544 306.078 110.994C306.229 111.113 306.393 111.186 306.566 111.218C307.049 111.311 307.567 111.068 307.87 110.553C309.305 108.133 311.856 106.805 314.532 107.089C317.216 107.331 319.255 109.168 320.171 112.012C320.42 112.777 321.156 113.133 321.825 112.817C322.493 112.496 322.83 111.618 322.585 110.849Z" fill="#6B1A11"/>
<path d="M342.3 114.578C345.274 111.037 349.735 109.55 354.047 110.63C356.118 111.137 357.931 112.179 359.414 113.555C361.019 113.027 362.02 111.667 362.269 111.844C362.623 112.1 362.165 114.584 360.916 115.336C361.131 115.634 361.395 115.892 361.581 116.21C363.809 116.765 366.123 115.681 366.113 116.229C366.104 116.74 364.459 118.743 362.674 118.839C362.736 119.049 362.857 119.226 362.908 119.439C363.125 120.338 362.599 121.265 361.739 121.502C361.515 121.564 361.293 121.574 361.076 121.538C360.471 121.436 359.953 120.969 359.795 120.304C359.046 117.166 356.551 114.72 353.278 113.923C350.014 113.075 346.887 114.175 344.696 116.795C344.104 117.499 343.094 117.571 342.428 116.964C341.767 116.35 341.71 115.287 342.3 114.578Z" fill="#6B1A11"/>
<path d="M459.556 301.175C462.826 281.146 458.122 263.74 450.028 262.212L391.339 251.039L379.489 323.603L439.063 334.912C447.101 336.116 456.316 321.014 459.556 301.175Z" fill="#FF8B78"/>
<path opacity="0.23" d="M439.063 334.912L379.489 323.603L382.44 305.53L454.432 319.333C450.158 329.392 444.361 335.706 439.063 334.912Z" fill="#890000"/>
<path d="M396.609 251.054L384.041 326.532L408.727 330.802L421.295 255.324L396.609 251.054Z" fill="#D8D7D6"/>
<path opacity="0.13" d="M408.729 330.804L384.043 326.533L387.38 306.478L411.993 311.197L408.729 330.804Z" fill="black"/>
<path d="M21.7368 237.014L26.3936 208.499C26.3936 208.499 1.83043 211.154 0.516908 218.459C-0.817347 225.873 21.7368 237.014 21.7368 237.014Z" fill="black"/>
</svg>
