<svg width="783" height="663" viewBox="0 0 783 663" fill="none" xmlns="http://www.w3.org/2000/svg">
<g style="mix-blend-mode:multiply">
<path d="M442.157 51.1301C497.492 44.5368 559.087 35.8162 604.314 68.2808C650.895 101.718 677.202 162.226 676.748 219.524C676.325 272.746 624.162 307.882 602.028 356.317C580.031 404.451 595.539 478.195 547.925 501.422C499.615 524.988 449.185 470.225 397.317 456.178C356.448 445.109 310.194 453.747 276.65 427.953C241.781 401.141 230.959 356.098 214.277 315.43C193.259 264.19 142.333 210.099 166.913 160.43C191.683 110.375 267.848 122.813 319.807 102.18C361.909 85.4617 397.174 56.4899 442.157 51.1301Z" fill="#CDEFF7" fill-opacity="0.3"/>
</g>
<g style="mix-blend-mode:multiply">
<path d="M733.977 355.336C736.347 402.002 740.368 453.963 704.389 491.715C667.332 530.599 604.711 552.13 547.352 551.158C494.074 550.254 462.872 505.965 416.05 486.827C369.519 467.808 294.466 480.108 274.844 439.773C254.936 398.847 313.649 356.942 331.688 313.408C345.903 279.104 340.79 240.065 369.193 212.082C398.718 182.993 444.664 174.344 486.676 160.714C539.609 143.541 597.687 101.212 645.558 122.422C693.8 143.797 675.513 207.809 692.204 251.777C705.729 287.404 732.05 317.399 733.977 355.336Z" fill="#C8F5FF" fill-opacity="0.5"/>
</g>
<g style="mix-blend-mode:multiply">
<path d="M245.956 103.185C274.697 102.76 299.467 121.554 327.106 129.452C355.146 137.464 384.645 138.03 411.073 150.364C441.634 164.627 481.417 175.619 493.507 207.111C505.88 239.34 477.405 273.125 471.241 307.092C466.189 334.927 465.014 362.426 460.256 390.313C454.492 424.098 466.143 467.782 440.038 489.979C413.398 512.63 371.25 492.325 336.437 495.595C309.099 498.162 282.861 502.597 255.806 507.28C221.205 513.27 187.474 536.311 153.544 527.256C120.254 518.371 95.2327 488.742 76.9278 459.543C59.0568 431.036 55.8543 396.461 50.7047 363.211C45.8066 331.584 38.323 299.023 47.3111 268.31C56.1294 238.177 80.429 215.932 100.796 192.043C119.82 169.729 138.63 147.177 163.637 131.869C188.694 116.53 216.58 103.619 245.956 103.185Z" fill="#D9F8FF" fill-opacity="0.4"/>
</g>
<path d="M454.429 131.815C450.224 124.539 449.574 117.146 453.183 114.773C457.067 112.218 464.364 116.454 469.477 124.234C472.443 128.745 473.979 133.443 474.022 137.105C474.028 137.565 474.016 138.027 473.971 138.451C473.907 139.351 473.768 140.256 473.451 141.149C472.313 144.376 469.805 146.271 467.142 148.003C465.481 149.083 462.21 150.21 458.431 150.338C453.454 150.508 449.359 148.861 449.286 146.658C449.237 145.231 450.985 143.976 453.509 143.185C448.4 140.25 445.371 136.091 446.664 133.475C447.618 131.551 450.722 131.076 454.429 131.815Z" fill="#F3A4FC"/>
<path d="M538.9 160.95C546.74 157.925 551.888 152.578 550.569 148.466C549.148 144.04 540.809 142.756 531.946 145.602C526.805 147.253 522.659 149.944 520.328 152.767C520.034 153.121 519.755 153.489 519.521 153.847C519.005 154.587 516.414 155.298 516.099 156.191C514.961 159.417 517.855 162.55 518.841 165.569C519.455 167.453 521.295 170.382 524.155 172.854C527.922 176.111 532.144 177.4 533.586 175.732C534.52 174.652 533.947 172.577 532.477 170.376C538.297 171.299 543.266 169.963 543.9 167.116C544.365 165.018 542.249 162.7 538.9 160.95Z" fill="#F3A4FC"/>
<path d="M490.628 192.297C489.53 192.013 487.428 191.355 484.33 190.292C481.232 189.229 477.93 188.04 474.425 186.726C470.92 185.413 467.644 184.082 464.601 182.739C461.557 181.395 459.579 180.287 458.666 179.414C457.79 178.623 458.107 175.332 459.614 169.543C461.122 163.754 463.074 157.354 465.47 150.34C467.865 143.325 470.33 136.622 472.865 130.228C475.397 123.834 477.274 119.625 478.49 117.603C479.266 116.32 481.192 115.647 484.274 115.585C487.353 115.523 490.877 116 494.842 117.017C498.807 118.035 502.867 119.544 507.018 121.55C511.17 123.555 514.726 125.973 517.687 128.807C521.98 133.002 524.024 138.036 523.823 143.906C523.619 149.778 521.201 154.461 516.567 157.957L516.667 158.095C519.675 161.881 521.107 165.885 520.964 170.109C520.821 174.332 519.477 178.344 516.935 182.147C514.151 186.327 510.369 189.414 505.592 191.402C500.814 193.386 495.837 193.641 490.628 192.297ZM495.656 135.932C494.848 137.035 494.184 138.669 493.666 140.834C493.15 142.998 493.272 144.364 494.022 144.95C495.451 146.066 497.224 146.386 499.367 145.875C501.51 145.366 502.902 144.245 503.543 142.511C503.967 141.366 503.862 140.141 503.225 138.836C502.588 137.532 501.263 136.49 499.246 135.71C497.426 135.035 496.229 135.109 495.656 135.932ZM484.2 169.724C484.319 171.571 486.337 172.662 490.257 172.992C494.177 173.324 496.425 171.893 497.006 168.701C497.428 166.385 496.7 164.204 494.82 162.154C492.939 160.105 490.864 159.148 488.601 159.325C487.427 159.418 486.364 160.744 485.408 163.279C484.453 165.817 484.051 167.966 484.2 169.724Z" fill="#E068EA"/>
<path d="M591.139 188.324C590.57 179.94 593.244 173.016 597.53 172.477C602.143 171.895 606.826 178.913 607.989 188.149C608.664 193.507 607.972 198.401 606.398 201.706C606.201 202.123 605.986 202.532 605.76 202.892C605.305 203.672 604.781 204.422 604.105 205.085C601.661 207.479 598.576 208.076 595.421 208.459C593.453 208.696 590.022 208.266 586.573 206.717C582.029 204.676 579.08 201.394 579.983 199.385C580.567 198.082 582.689 197.726 585.305 198.128C582.011 193.241 581.125 188.173 583.437 186.396C585.143 185.088 588.137 186.029 591.139 188.324Z" fill="#FCF383"/>
<path d="M645.625 247.518C654 248.194 660.96 245.613 661.555 241.335C662.196 236.729 655.24 231.955 646.021 230.672C640.673 229.927 635.769 230.555 632.443 232.087C632.025 232.279 631.614 232.489 631.248 232.709C630.462 233.154 629.705 233.668 629.034 234.335C626.608 236.748 625.97 239.825 625.547 242.974C625.284 244.938 625.67 248.375 627.174 251.845C629.154 256.415 632.4 259.405 634.42 258.529C635.73 257.962 636.114 255.844 635.747 253.224C640.588 256.581 645.644 257.534 647.452 255.243C648.784 253.556 647.883 250.55 645.625 247.518Z" fill="#FCF383"/>
<path d="M626.736 237.578C625.694 236.674 624.646 235.786 623.595 234.914C622.543 234.041 621.486 233.229 620.395 232.516C617.583 230.685 614.321 229.799 610.685 229.733C607.05 229.669 604.24 231.201 602.258 234.331C601.363 235.771 601.044 237.252 601.272 238.777C601.638 241.225 602.993 243.537 605.384 245.704C607.776 247.872 610.007 249.572 612.076 250.806C613.331 251.396 614.219 252.327 614.739 253.599C615.19 254.807 615.299 256.235 615.012 257.88C614.551 260.534 613.184 263.404 610.989 266.506C608.795 269.608 606.504 271.709 604.116 272.81C602.165 273.722 600.484 273.765 599.067 272.936C594.049 270.756 589.32 267.524 584.882 263.234C580.444 258.947 577.22 254.313 575.213 249.332C572.475 242.619 571.832 235.954 573.285 229.337C574.738 222.721 578.285 216.969 583.923 212.086C592.907 204.416 602.603 200.973 613.015 201.755C623.427 202.537 632.559 207.529 640.378 216.762C641.682 218.301 642.238 220.284 642.056 222.704C641.85 225.103 640.495 228.333 637.993 232.394C635.49 236.455 632.71 238.524 629.655 238.602C628.502 238.632 627.53 238.291 626.736 237.578Z" fill="#FCCD06"/>
<path d="M273.46 154.28C266.14 150.151 261.821 144.115 263.723 140.239C265.769 136.064 274.204 136.002 282.564 140.101C287.413 142.479 291.124 145.743 293.023 148.874C293.263 149.267 293.487 149.671 293.664 150.059C294.067 150.867 294.407 151.717 294.589 152.646C295.249 156.003 294.054 158.911 292.641 161.756C291.759 163.532 289.516 166.164 286.328 168.196C282.129 170.872 277.764 171.535 276.581 169.677C275.814 168.473 276.681 166.503 278.452 164.54C272.561 164.611 267.838 162.57 267.624 159.659C267.462 157.516 269.893 155.53 273.46 154.28Z" fill="#79D0F2"/>
<path d="M365.75 136.145C370.962 129.554 372.677 122.331 369.449 119.463C365.976 116.372 358.144 119.508 351.957 126.464C348.369 130.499 346.168 134.925 345.597 138.542C345.525 138.996 345.468 139.454 345.451 139.882C345.384 140.783 345.391 141.698 345.574 142.628C346.234 145.984 348.44 148.223 350.824 150.324C352.311 151.634 355.385 153.221 359.105 153.895C364.005 154.783 368.296 153.746 368.688 151.579C368.942 150.175 367.395 148.681 365.011 147.531C370.491 145.368 374.091 141.691 373.188 138.917C372.525 136.87 369.523 135.951 365.75 136.145Z" fill="#79D0F2"/>
<path d="M294.673 187.469C293.979 186.954 293.538 186.251 293.352 185.362C292.769 182.378 292.509 177.78 292.572 171.569C292.634 165.357 292.933 158.857 293.469 152.069C294.004 145.281 294.71 138.887 295.589 132.883C296.467 126.879 297.379 122.591 298.385 120.042C298.777 119.047 300.272 117.955 302.846 116.761C305.42 115.566 308.319 114.544 311.541 113.696C314.764 112.848 317.915 112.307 320.99 112.074C324.066 111.84 326.312 112.159 327.699 113.076C329.733 114.42 332.399 117.742 335.744 122.98C339.09 128.217 342.469 133.965 345.88 140.223C349.291 146.482 352.425 152.51 355.278 158.309C358.133 164.108 360.072 168.222 361.101 170.651C361.825 172.434 361.926 173.743 361.404 174.58C360.882 175.419 359.844 176.116 358.287 176.672C355.653 177.609 352.34 178.543 348.352 179.476C344.364 180.409 341.852 180.903 340.812 180.958C340.399 180.965 340.007 180.888 339.629 180.735C338.404 180.238 336.986 178.485 335.39 175.44C333.794 172.394 332.399 170.353 331.201 169.324C330.492 168.716 329.646 168.435 328.668 168.478L321.068 169.754C318.701 170.229 317.297 171.286 316.848 172.922C316.262 175.027 315.587 177.371 314.83 179.951C314.07 182.531 313.462 184.148 313.004 184.8C312.785 185.188 312.408 185.492 311.875 185.712C310.657 186.212 307.684 186.8 302.953 187.48C298.219 188.162 295.461 188.156 294.673 187.469ZM317.561 141.41C316.729 142.667 316.036 144.657 315.476 147.377C314.917 150.098 314.849 151.834 315.263 152.59C315.966 153.865 318.067 154.129 321.576 153.373C325.085 152.62 326.859 151.429 326.893 149.8C326.912 148.811 325.606 146.789 322.973 143.734C320.342 140.679 318.539 139.905 317.561 141.41Z" fill="#009BD1"/>
<path fill-rule="evenodd" clip-rule="evenodd" d="M695.042 541.055C694.5 541.134 693.991 540.758 693.914 540.211C693.834 539.666 694.202 539.175 694.758 539.082C696.78 538.745 698.877 538.404 700.973 537.936L701.307 537.863C701.842 537.742 702.377 538.08 702.498 538.619C702.618 539.154 702.277 539.689 701.742 539.808L701.408 539.883C699.262 540.362 697.121 540.758 695.042 541.055ZM688.245 541.726C685.914 541.852 683.611 541.832 681.4 541.704C680.85 541.672 680.43 541.199 680.464 540.65C680.497 540.1 680.971 539.678 681.517 539.715C683.654 539.862 685.885 539.849 688.143 539.736C688.695 539.708 689.161 540.13 689.189 540.68C689.215 541.174 688.878 541.6 688.411 541.704L688.245 541.726ZM674.589 540.878C672.296 540.45 670.057 539.86 667.935 539.133C667.415 538.954 667.138 538.389 667.315 537.869C667.494 537.348 668.058 537.068 668.582 537.248C670.609 537.95 672.758 538.507 674.955 538.918C675.498 539.02 675.852 539.54 675.75 540.081C675.675 540.484 675.366 540.786 674.989 540.871C674.863 540.901 674.727 540.905 674.589 540.878ZM661.616 536.389C659.558 535.287 657.615 534.015 655.833 532.611C655.401 532.271 655.328 531.642 655.667 531.212C656.008 530.779 656.634 530.705 657.067 531.045C658.759 532.375 660.6 533.587 662.555 534.631C663.041 534.891 663.226 535.496 662.966 535.98C662.822 536.246 662.574 536.421 662.302 536.482C662.078 536.532 661.835 536.506 661.616 536.389ZM650.822 527.839C649.836 526.703 648.935 525.513 648.123 524.287C647.878 524.223 647.652 524.06 647.514 523.823C647.39 523.608 647.352 523.365 647.397 523.137C647.201 522.815 647.013 522.489 646.832 522.161C646.564 521.68 646.738 521.07 647.218 520.806C647.705 520.538 648.306 520.712 648.575 521.192C648.692 521.401 648.809 521.609 648.931 521.814C650.433 520.836 651.754 519.709 652.885 518.465C653.256 518.056 653.886 518.022 654.295 518.394C654.702 518.763 654.734 519.392 654.366 519.801C653.117 521.187 651.651 522.427 649.994 523.501C650.703 524.545 651.487 525.559 652.329 526.533C652.689 526.95 652.642 527.579 652.226 527.941C652.097 528.052 651.949 528.125 651.792 528.159C651.445 528.235 651.07 528.125 650.822 527.839ZM635.625 528.099C635.078 528.144 634.594 527.737 634.549 527.189C634.503 526.64 634.901 526.16 635.461 526.113C637.701 525.926 639.882 525.551 641.896 524.958C642.467 524.79 642.978 525.114 643.129 525.644C643.28 526.173 642.972 526.725 642.445 526.876C641.827 527.053 641.195 527.213 640.553 527.357C638.97 527.711 637.311 527.958 635.625 528.099ZM628.725 528.09C626.481 527.916 624.195 527.547 621.926 527.027C621.391 526.904 621.055 526.367 621.178 525.83C621.302 525.295 621.835 524.959 622.374 525.084C624.545 525.585 626.739 525.934 628.889 526.105C629.436 526.149 629.845 526.631 629.801 527.178C629.764 527.622 629.44 527.975 629.025 528.067C628.929 528.088 628.829 528.097 628.725 528.09ZM615.351 525.05C613.244 524.264 611.137 523.329 609.081 522.27C608.593 522.018 608.399 521.416 608.653 520.927C608.907 520.437 609.511 520.248 609.997 520.499C611.981 521.522 614.016 522.427 616.048 523.182C616.564 523.375 616.826 523.947 616.634 524.466C616.512 524.792 616.236 525.02 615.918 525.091C615.733 525.129 615.539 525.12 615.351 525.05ZM656.781 514.359C656.266 514.161 656.014 513.581 656.215 513.066C657.093 510.81 657.391 508.767 657.086 506.998C656.992 506.453 657.374 505.95 657.9 505.848C658.443 505.745 658.961 506.118 659.051 506.661C659.413 508.796 659.095 511.197 658.073 513.788C657.947 514.108 657.672 514.329 657.359 514.398C657.173 514.442 656.971 514.432 656.781 514.359ZM644.203 515.697C644.135 515.435 644.073 515.173 644.013 514.907C643.5 512.663 643.393 510.486 643.677 508.615C643.76 508.072 644.26 507.697 644.814 507.78C645.356 507.859 645.73 508.37 645.649 508.914C645.402 510.541 645.5 512.467 645.958 514.468C646.012 514.709 646.071 514.953 646.135 515.194C646.274 515.725 645.939 516.283 645.404 516.411C644.883 516.539 644.339 516.219 644.203 515.697ZM653.78 502.682C652.876 502.345 651.883 502.279 650.912 502.496C650.026 502.694 649.195 503.104 648.453 503.73C648.031 504.084 647.401 504.022 647.051 503.602C646.696 503.178 646.755 502.552 647.179 502.2C648.17 501.372 649.28 500.818 650.477 500.551C651.828 500.249 653.211 500.342 654.481 500.815C654.996 501.007 655.26 501.582 655.066 502.098C654.943 502.426 654.668 502.65 654.349 502.722C654.163 502.761 653.969 502.752 653.78 502.682Z" fill="#C1C1C1"/>
<path fill-rule="evenodd" clip-rule="evenodd" d="M603.847 518.865C604.09 518.81 604.31 518.667 604.459 518.445C604.766 517.989 604.642 517.369 604.184 517.063C603.291 516.466 602.399 515.833 601.516 515.173C601.075 514.845 600.449 514.936 600.121 515.375C599.791 515.816 599.88 516.442 600.323 516.771C601.235 517.454 602.151 518.106 603.076 518.722C603.312 518.876 603.59 518.922 603.847 518.865Z" fill="#C1C1C1"/>
<path fill-rule="evenodd" clip-rule="evenodd" d="M200.528 216.793C205.516 243.689 187.756 269.535 160.864 274.524C133.968 279.512 108.123 261.752 103.135 234.856C98.1482 207.964 115.906 182.117 142.802 177.129C169.693 172.14 195.539 189.9 200.528 216.793Z" fill="#FCCD06"/>
<path fill-rule="evenodd" clip-rule="evenodd" d="M155.696 234.92C155.176 235.016 154.68 234.677 154.586 234.159C154.154 231.831 151.912 230.288 149.584 230.72C147.259 231.151 145.713 233.397 146.145 235.723C146.241 236.241 145.9 236.735 145.382 236.831C144.864 236.927 144.366 236.588 144.272 236.07C143.648 232.706 145.874 229.466 149.238 228.843C152.598 228.219 155.837 230.446 156.461 233.808C156.555 234.328 156.212 234.824 155.696 234.92Z" fill="#9B5E31"/>
<path fill-rule="evenodd" clip-rule="evenodd" d="M177.416 230.891C176.897 230.987 176.4 230.648 176.306 230.13C175.874 227.802 173.63 226.259 171.302 226.69C168.977 227.122 167.435 229.366 167.867 231.694C167.963 232.21 167.622 232.706 167.103 232.802C166.587 232.898 166.088 232.559 165.993 232.041C165.37 228.677 167.595 225.437 170.955 224.815C174.319 224.191 177.559 226.417 178.183 229.781C178.275 230.301 177.932 230.795 177.416 230.891Z" fill="#9B5E31"/>
<path fill-rule="evenodd" clip-rule="evenodd" d="M163.709 247.07C160.572 247.652 157.453 245.726 156.601 242.594C156.463 242.085 156.763 241.555 157.272 241.424C157.771 241.293 158.303 241.587 158.44 242.098C159.056 244.382 161.418 245.743 163.704 245.117C164.81 244.814 165.735 244.103 166.304 243.11C166.873 242.117 167.026 240.96 166.725 239.854C166.587 239.345 166.887 238.817 167.395 238.683C167.906 238.548 168.426 238.849 168.564 239.354C168.997 240.954 168.782 242.626 167.957 244.06C167.132 245.496 165.803 246.542 164.201 246.958C164.039 247.002 163.873 247.039 163.709 247.07Z" fill="#9B5E31"/>
<path fill-rule="evenodd" clip-rule="evenodd" d="M136.02 172.675L148.469 170.367L140.94 153.713L136.02 172.675Z" fill="#FCCD06"/>
<path fill-rule="evenodd" clip-rule="evenodd" d="M117.615 181.799L128.477 175.197L114.594 165.505L117.615 181.799Z" fill="#FCCD06"/>
<path fill-rule="evenodd" clip-rule="evenodd" d="M105.345 193.61L112.501 185.303L97.123 183.036L105.345 193.61Z" fill="#FCCD06"/>
<path fill-rule="evenodd" clip-rule="evenodd" d="M98.5264 212.043L102.36 199.975L86.0752 200.58L98.5264 212.043Z" fill="#FCCD06"/>
<path fill-rule="evenodd" clip-rule="evenodd" d="M97.1586 230.932L97.0304 220.997L83 226.524L97.1586 230.932Z" fill="#FCCD06"/>
<path fill-rule="evenodd" clip-rule="evenodd" d="M103.07 250.422L98.8434 238.489L86.2227 248.799L103.07 250.422Z" fill="#FCCD06"/>
<path fill-rule="evenodd" clip-rule="evenodd" d="M155.35 279.056L167.799 276.747L164.424 290.987L155.35 279.056Z" fill="#FCCD06"/>
<path fill-rule="evenodd" clip-rule="evenodd" d="M134.951 277.13L147.406 279.406L136.811 294.997L134.951 277.13Z" fill="#FCCD06"/>
<path fill-rule="evenodd" clip-rule="evenodd" d="M118.162 268.938L128.862 275.703L117.783 283.136L118.162 268.938Z" fill="#FCCD06"/>
<path fill-rule="evenodd" clip-rule="evenodd" d="M106.233 255.751L114.138 265.642L102.835 269.512L106.233 255.751Z" fill="#FCCD06"/>
<path fill-rule="evenodd" clip-rule="evenodd" d="M168.534 172.355L156.024 170.088L165.513 156.062L168.534 172.355Z" fill="#FCCD06"/>
<path fill-rule="evenodd" clip-rule="evenodd" d="M185.27 180.56L174.567 173.792L186.513 165.779L185.27 180.56Z" fill="#FCCD06"/>
<path fill-rule="evenodd" clip-rule="evenodd" d="M197.198 193.743L189.292 183.853L203.616 180.787L197.198 193.743Z" fill="#FCCD06"/>
<path fill-rule="evenodd" clip-rule="evenodd" d="M205.248 210.886L200.859 199.008L214.944 201.09L205.248 210.886Z" fill="#FCCD06"/>
<path fill-rule="evenodd" clip-rule="evenodd" d="M206.716 231.2L206.385 218.545L221.864 223.643L206.716 231.2Z" fill="#FCCD06"/>
<path fill-rule="evenodd" clip-rule="evenodd" d="M186.536 267.564L175.725 274.156L191.879 284.566L186.536 267.564Z" fill="#FCCD06"/>
<path fill-rule="evenodd" clip-rule="evenodd" d="M199.272 253.896L191.704 264.049L206.441 265.011L199.272 253.896Z" fill="#FCCD06"/>
<path fill-rule="evenodd" clip-rule="evenodd" d="M205.678 237.31L202.755 246.51L218.129 248.775L205.678 237.31Z" fill="#FCCD06"/>
<path fill-rule="evenodd" clip-rule="evenodd" d="M187.963 234.562C188.176 235.712 186.426 236.999 184.049 237.44C181.675 237.881 179.575 237.306 179.362 236.157C179.149 235.009 180.902 233.72 183.276 233.279C185.653 232.84 187.75 233.414 187.963 234.562Z" fill="#FF6464"/>
<path fill-rule="evenodd" clip-rule="evenodd" d="M146.084 242.328C146.297 243.478 144.547 244.765 142.17 245.206C139.796 245.647 137.694 245.072 137.483 243.923C137.27 242.775 139.025 241.484 141.399 241.045C143.776 240.606 145.871 241.181 146.084 242.328Z" fill="#FF6464"/>
<path d="M140.767 335.762L143.701 340.571C143.963 340.999 144.417 341.27 144.916 341.298L150.542 341.607C151.802 341.677 152.436 343.16 151.614 344.118L147.947 348.396C147.621 348.776 147.502 349.293 147.632 349.777L149.076 355.221C149.4 356.441 148.184 357.502 147.018 357.017L141.816 354.852C141.355 354.66 140.825 354.707 140.405 354.978L135.673 358.035C134.614 358.719 133.228 357.892 133.33 356.633L133.782 351.017C133.822 350.518 133.615 350.03 133.227 349.715L128.856 346.159C127.878 345.361 128.236 343.79 129.465 343.496L134.945 342.192C135.431 342.075 135.831 341.728 136.012 341.261L138.043 336.007C138.501 334.827 140.109 334.684 140.767 335.762Z" fill="#FCCD06"/>
<path d="M106.826 317.849L108.652 320.727C108.814 320.983 109.093 321.141 109.397 321.153L112.802 321.279C113.565 321.307 113.965 322.199 113.478 322.786L111.307 325.414C111.113 325.647 111.047 325.96 111.13 326.252L112.063 329.531C112.272 330.266 111.549 330.92 110.838 330.639L107.668 329.386C107.386 329.275 107.067 329.309 106.817 329.479L103.988 331.378C103.355 331.804 102.507 331.318 102.554 330.556L102.767 327.155C102.786 326.851 102.654 326.559 102.416 326.373L99.7345 324.268C99.1333 323.797 99.3331 322.841 100.074 322.651L103.375 321.803C103.669 321.727 103.907 321.513 104.01 321.228L105.183 318.028C105.447 317.308 106.417 317.204 106.826 317.849Z" fill="#FCCD06"/>
<circle cx="150" cy="235" r="3" fill="white"/>
<circle cx="172" cy="231" r="3" fill="white"/>
<circle cx="151" cy="235" r="2" fill="#494949"/>
<circle cx="173" cy="231" r="2" fill="#494949"/>
<ellipse cx="0.5" cy="1" rx="0.5" ry="1" transform="matrix(-1 0 0 1 175 230)" fill="white"/>
<ellipse cx="0.5" cy="1" rx="0.5" ry="1" transform="matrix(-1 0 0 1 153 234)" fill="white"/>
</svg>
