<svg width="88" height="122" viewBox="0 0 88 122" fill="none" xmlns="http://www.w3.org/2000/svg">
<g id="Vector">
<g id="Vector_2">
<path d="M14.5066 35.2078C14.1566 35.0478 13.7567 34.7278 13.4767 34.4478C13.1967 34.1678 13.0567 33.9076 13.2467 33.8376V33.5776C13.3067 33.6276 13.3967 33.6976 13.4967 33.7776C13.5967 33.8576 13.7167 33.9476 13.8467 34.0476C14.0967 34.2376 14.3667 34.4677 14.5867 34.6477C15.0167 35.0377 15.2166 35.3478 14.5066 35.2078Z" fill="#F29994"/>
<path d="M11.7467 38.9678L11.9567 39.1978C11.8567 39.0778 11.7167 38.9577 11.5667 38.8377C11.4267 38.7177 11.2866 38.6076 11.1666 38.5276C11.2466 38.3776 11.7867 38.5578 12.2367 38.9378C12.0667 38.9778 11.5767 38.6678 11.7467 38.9678Z" fill="#F29994"/>
<path d="M4.46671 26.5576C4.19671 26.5876 3.99663 26.8676 3.88663 27.3176C3.77663 27.7676 3.77665 28.3776 3.90665 29.0076C3.58665 29.0376 3.2767 29.0576 2.9567 29.0676C2.8767 28.5576 2.56671 27.9376 2.21671 27.2476C1.86671 26.5576 1.49663 25.7876 1.26663 25.0476C1.09663 24.7876 1.13663 25.1477 1.13663 25.4077C1.13663 25.5377 1.13671 25.6277 1.09671 25.6177C1.04671 25.5977 0.956671 25.4577 0.806671 25.1077C0.876671 24.9077 1.10672 24.9677 1.10672 24.6377C0.83672 24.0077 0.59673 23.8776 0.36673 23.5276C0.25673 23.3476 0.146681 23.1178 0.0666809 22.7078C-0.00331905 22.3078 -0.0433093 21.7277 0.0766907 20.8877C0.156691 20.7077 0.24671 20.5277 0.34671 20.3577C0.43671 20.1877 0.546637 20.0177 0.646637 19.8477C0.796637 19.1577 1.02669 18.4676 1.32669 17.8176C1.62669 17.1676 2.00671 16.5475 2.46671 15.9775C2.91671 15.4075 3.44663 14.8777 4.01663 14.4377C4.58663 13.9977 5.2067 13.6176 5.8367 13.3176C6.4667 13.0176 7.10662 12.7777 7.75662 12.5977C8.39662 12.4177 9.04668 12.2975 9.68668 12.2275C10.3267 12.1575 10.9467 12.1277 11.5667 12.1477C12.1767 12.1677 12.7867 12.2276 13.3667 12.3276C13.8067 12.1476 14.6366 12.1676 15.5266 12.2776C16.4266 12.3876 17.3766 12.5877 18.1266 12.6777L18.0867 12.9277C18.5367 12.8477 19.0467 13.0476 19.5567 13.2876C19.8167 13.4176 20.0767 13.5477 20.3267 13.6677C20.5767 13.7977 20.8167 13.9176 21.0567 13.9976L21.7967 14.5476C21.9567 15.0476 19.3766 13.8177 19.8966 14.6777C20.3066 14.9277 20.6967 15.0878 21.0867 15.2078C21.4767 15.3278 21.8667 15.3975 22.2367 15.4875C22.9667 15.6775 23.6967 15.8577 24.3167 16.3977C24.9867 16.7977 25.3067 16.9175 25.5867 16.9775C25.7267 17.0075 25.8467 17.0176 25.9967 17.0476C26.1467 17.0676 26.3167 17.1178 26.5467 17.2078C26.8867 17.1078 26.3967 16.8377 26.6167 16.6277C27.4067 17.0377 27.9666 17.4176 28.3966 17.7876C28.8166 18.1676 29.1166 18.5477 29.3966 18.9077C29.9766 19.6177 30.4367 20.3478 31.7067 21.1978C31.8167 21.1478 32.4267 21.3978 32.8167 21.4678C33.2067 21.5278 33.3767 21.3976 32.5667 20.5476C32.2267 20.3776 31.8766 20.2477 31.5266 20.0977L31.0867 19.4277C31.4367 19.6777 31.9267 20.0276 32.3267 20.2876C32.7167 20.5576 33.0267 20.7276 33.0467 20.5576C33.1267 20.9176 33.4767 21.2877 33.9267 21.6277C34.3767 21.9777 34.8967 22.3277 35.3367 22.6077C35.7767 22.8877 36.1267 23.1175 36.1867 23.2375C36.2167 23.2975 36.1767 23.3276 36.0467 23.3276C35.9867 23.3276 35.8966 23.3176 35.7766 23.2976C35.6566 23.2776 35.5167 23.2575 35.3467 23.2275C34.4167 22.0975 34.0667 21.8276 33.0867 21.5476C33.7167 22.0576 34.2767 22.6277 34.8167 23.1677C35.3667 23.6977 35.8467 24.2776 36.3367 24.8176C36.8267 25.3576 37.2667 25.9178 37.7067 26.4478C37.9267 26.7178 38.1467 26.9775 38.3667 27.2375C38.5767 27.5075 38.7867 27.7676 38.9967 28.0176L39.8267 28.3477C39.5567 28.6377 40.1167 29.8477 40.7867 30.9177C41.1667 31.3177 41.5267 31.9177 41.6067 31.6577C41.6967 31.6777 41.5866 31.4377 41.3966 31.0977C41.2966 30.9277 41.1967 30.7276 41.0667 30.5276C40.9367 30.3276 40.8167 30.1277 40.6967 29.9277C40.2267 29.1477 39.9567 28.5178 40.9467 29.2178C41.1567 29.5278 41.3667 29.8477 41.5667 30.1677C41.7667 30.4877 41.9466 30.8277 42.1266 31.1577C42.3066 31.4877 42.4866 31.8177 42.6566 32.1377C42.8266 32.4677 42.9667 32.7977 43.1067 33.1277C43.6967 34.4177 44.0367 35.6577 44.2167 36.6177C43.8467 36.0377 43.5767 35.5076 43.2467 35.0076C43.0867 34.7576 42.8967 34.5176 42.6667 34.2776C42.4467 34.0376 42.1866 33.8076 41.8866 33.5776C40.3666 31.6676 38.8567 29.6676 37.1667 27.8376C35.4867 25.9976 33.6167 24.3577 31.6067 23.1677C31.6567 22.8377 30.7567 21.9775 31.2267 21.9775C31.0067 21.5475 29.8967 21.0276 29.8667 20.4976C29.4667 20.2676 29.0466 20.0576 28.6366 19.8276C28.2166 19.5976 27.8166 19.3477 27.3866 19.1177C26.5266 18.6677 25.6967 18.1575 24.8267 17.7275C24.3967 17.5075 23.9767 17.2676 23.5467 17.0576C23.1167 16.8476 22.6966 16.6478 22.2766 16.4478C22.0666 16.3478 21.8666 16.2477 21.6566 16.1577C21.4466 16.0677 21.2467 15.9877 21.0367 15.8977C20.6267 15.7277 20.2367 15.5677 19.8467 15.4077C19.9967 15.6677 19.9466 15.7776 19.7666 15.7976C19.5966 15.8176 19.2867 15.7577 18.9367 15.6777C18.2267 15.5177 17.3367 15.2176 16.8567 15.2476C16.4867 14.9776 15.9367 14.7977 15.3367 14.6777C14.7367 14.5577 14.0967 14.4978 13.5567 14.4478C13.4267 14.5578 12.7566 14.5476 12.9066 14.7676C13.6966 14.7376 13.9667 14.9377 14.7467 15.1377C14.5367 15.3777 14.1267 15.3077 13.6067 15.1677C13.0867 15.0277 12.4567 14.8376 11.8567 14.8076C12.0667 14.7176 12.2767 14.6176 12.4967 14.5276C11.4967 14.4676 10.3866 14.2576 9.25662 14.2576C8.69662 14.2576 8.13673 14.3178 7.61673 14.4578C7.09673 14.5978 6.62662 14.8277 6.25662 15.1477C6.81662 15.0777 7.36664 15.0576 7.89664 15.0876C7.37664 15.2976 6.83667 15.4976 6.30667 15.7476C5.77667 15.9876 5.24665 16.2777 4.78665 16.6377C4.32665 16.9877 3.92664 17.4077 3.64664 17.8577C3.57664 17.9677 3.5167 18.0878 3.4567 18.1978C3.4067 18.3078 3.36669 18.4276 3.32669 18.5376C3.28669 18.6476 3.25672 18.7677 3.23672 18.8777C3.21672 18.9877 3.2067 19.0978 3.2067 19.2078C3.5567 18.5878 4.02669 17.7675 4.57669 17.2375C4.71669 17.1075 4.84671 16.9877 4.97672 16.8977C5.04672 16.8477 5.10666 16.8076 5.16666 16.7676C5.22666 16.7376 5.28671 16.7077 5.34671 16.6877C5.56671 16.5977 5.7467 16.6076 5.8367 16.7676C5.8767 16.8576 5.81672 16.9677 5.72672 17.1077C5.62672 17.2377 5.48668 17.3976 5.31668 17.5576C4.98668 17.8776 4.62662 18.2676 4.37662 18.5176C3.80662 19.0576 3.47672 19.7578 3.35672 20.4578C3.29672 20.8078 3.27666 21.1576 3.29666 21.5076C3.31666 21.8476 3.36668 22.1876 3.43668 22.5176C3.57668 23.1776 3.79672 23.8078 3.98672 24.4578C4.18672 25.1178 4.35671 25.7876 4.46671 26.5576Z" fill="#F29994"/>
<path d="M4.40661 22.1878C4.36661 21.6278 4.34661 21.2976 4.27661 21.0476C4.21661 20.7976 4.12662 20.6376 4.03662 20.4776C3.95662 20.3176 3.87659 20.1477 3.88659 19.8877C3.89659 19.6277 3.97664 19.2576 4.30664 18.7576C4.34664 18.8676 4.43663 18.8977 4.54663 18.8777C4.65663 18.8577 4.79664 18.7878 4.93664 18.6978C5.22664 18.5178 5.57666 18.2576 5.83666 18.0476C6.00666 17.7376 6.3166 17.4977 6.6466 17.3177C6.9766 17.1277 7.33659 17.0077 7.63659 16.8877C7.85659 16.8477 7.98667 16.9377 7.96667 17.0777C7.94667 17.2177 7.77662 17.3977 7.41662 17.5677C6.89662 17.5977 6.41661 17.8177 6.02661 18.1477C5.63661 18.4777 5.3466 18.9077 5.1466 19.3777C4.9366 19.8477 4.81668 20.3176 4.72668 20.7776C4.64668 21.2376 4.56661 21.6978 4.40661 22.1878Z" fill="#F29994"/>
<path d="M7.70667 16.1978C8.08667 16.0378 8.77661 15.8878 9.39661 15.9078C10.0166 15.9178 10.5367 16.0677 10.5767 16.3177C10.7067 16.3477 10.5067 16.6076 10.9667 16.4976C10.5967 16.4376 9.88669 16.4378 9.23669 16.4478C8.56669 16.4478 7.96667 16.4678 7.70667 16.1978Z" fill="#F29994"/>
<path d="M8.55663 14.9976C8.42663 14.8376 8.61669 14.7675 8.86669 14.7375C8.99669 14.7275 9.13659 14.7278 9.26659 14.7178C9.39659 14.7178 9.50665 14.7178 9.57665 14.7078C9.76665 14.7278 9.9566 14.7676 10.1466 14.7976C9.6266 14.9476 9.00663 15.0976 8.55663 14.9976Z" fill="#F29994"/>
<path d="M16.1967 16.3977C16.7967 16.6377 16.4366 16.6577 16.1266 16.6877C15.8066 16.7177 15.5367 16.7478 16.2467 16.9678C15.9667 16.9078 15.6866 16.8576 15.4066 16.8176C15.3466 16.6076 15.2867 16.3977 15.2167 16.1877C15.5367 16.2477 15.8667 16.3177 16.1967 16.3977Z" fill="#F29994"/>
<path d="M17.9366 17.4775C18.1366 17.4775 18.3266 17.4976 18.5466 17.5476C18.6566 17.5776 18.7666 17.6177 18.8966 17.6677C19.0166 17.7277 19.1466 17.7977 19.2966 17.8877L18.8866 17.9578C18.6266 17.9478 18.4266 17.6375 17.9366 17.4775Z" fill="#F29994"/>
<path d="M16.6766 15.7078C17.3366 15.7578 17.1566 16.0077 17.5166 16.2577C17.4466 16.2777 17.3166 16.2478 17.1766 16.1778C17.0366 16.1178 16.8866 16.0378 16.7566 15.9578C16.5066 15.7978 16.3566 15.6478 16.6766 15.7078Z" fill="#F29994"/>
<path d="M24.2167 14.8276C23.8167 14.8976 23.3467 14.7376 22.8267 14.5076C22.5667 14.3876 22.2867 14.2677 21.9867 14.1577C21.6967 14.0477 21.3867 13.9377 21.0767 13.8477C21.6967 14.0177 22.1566 14.0878 22.6266 14.1978C23.0966 14.3378 23.5667 14.4976 24.2167 14.8276Z" fill="#F29994"/>
<path d="M22.9467 38.8677C23.3967 39.1677 24.0266 39.2478 24.4166 39.2078L24.1967 38.9775L22.9467 38.8677Z" fill="#F29994"/>
<path d="M16.1767 35.4976C15.4167 35.6776 16.3667 35.9676 17.1167 36.8276C17.7167 37.2076 18.4067 37.4677 19.0967 37.6877C19.4367 37.8077 19.7966 37.8976 20.1366 38.0076C20.3066 38.0576 20.4766 38.1177 20.6466 38.1777C20.8166 38.2377 20.9766 38.2977 21.1466 38.3577C21.4466 38.3677 21.7467 38.3877 22.0467 38.3777C20.5267 37.6577 17.9867 36.3076 16.1767 35.4976Z" fill="#F29994"/>
<path d="M36.1967 40.3176C35.9767 40.3376 35.7566 40.3476 35.5166 40.3476C35.2766 40.3476 35.0366 40.3476 34.7866 40.3376C34.5366 40.3276 34.2766 40.3176 34.0166 40.3076C33.7566 40.2976 33.4967 40.2876 33.2267 40.2776C32.9667 40.2676 32.6966 40.2576 32.4266 40.2576C32.1566 40.2576 31.8966 40.2476 31.6366 40.2576C31.1066 40.2876 30.5967 40.3277 30.0867 40.4477C30.5267 40.5477 30.7466 40.6375 31.0366 40.7375C31.3266 40.8275 31.6766 40.9176 32.3766 41.0176C32.1066 41.1876 31.8266 41.2476 31.5466 41.2576C31.2666 41.2676 30.9867 41.2077 30.7067 41.1277C30.4267 41.0377 30.1467 40.9376 29.8467 40.8376C29.5567 40.7376 29.2567 40.6477 28.9467 40.6077C29.9567 40.8977 28.5566 41.0377 27.6566 40.9177C26.0166 40.4477 23.3867 39.8476 21.2167 39.0276C20.9667 38.9976 20.5866 38.8778 20.1766 38.7178C19.9766 38.6278 19.7566 38.5377 19.5466 38.4477C19.4366 38.3977 19.3367 38.3576 19.2267 38.3076C19.1267 38.2576 19.0166 38.2077 18.9166 38.1677C18.1066 37.8177 17.4466 37.5478 17.5066 37.9678C17.1866 37.8178 16.9366 37.6676 16.7566 37.5176C16.5766 37.3676 16.4366 37.2076 16.3167 37.0576C16.1967 36.9076 16.0867 36.7576 15.9567 36.5976C15.8367 36.4376 15.6867 36.2777 15.4867 36.1077C13.9367 35.6477 12.9767 34.5077 12.1067 33.3577C11.8867 33.0677 11.6767 32.7775 11.4467 32.4875C11.2267 32.1975 10.9967 31.9177 10.7467 31.6477C10.4967 31.3777 10.2366 31.1077 9.93665 30.8677C9.63665 30.6277 9.31665 30.3877 8.93665 30.1777C9.04665 30.1377 9.05659 30.0477 9.00659 29.9177C8.95659 29.7777 8.84666 29.6077 8.70667 29.4277C8.57666 29.2477 8.39659 29.0477 8.25659 28.8777C8.11659 28.7077 7.98661 28.5377 7.89661 28.4177C7.49661 27.9077 6.87662 27.0176 6.40662 26.3476C6.16662 26.0176 5.9466 25.7376 5.7666 25.5976C5.5866 25.4576 5.42665 25.4577 5.31665 25.6977C5.26665 26.2077 5.66661 26.7877 6.14661 27.3677C6.62661 27.9577 7.16663 28.5476 7.41663 29.2576C7.47663 29.4076 7.51663 29.5377 7.54663 29.6377C7.58663 29.7377 7.6067 29.8177 7.6167 29.8777C7.6367 29.9977 7.59661 30.0376 7.52661 30.0176C7.37661 29.9676 7.0767 29.6876 6.7467 29.3276C6.0767 28.6076 5.33661 27.5478 5.02661 27.7078C5.17661 27.8278 5.15666 28.0176 5.19666 28.2876C5.23666 28.5476 5.34662 28.8976 5.78662 29.2976C5.35662 28.8576 5.14663 28.6978 5.04663 28.7178C4.94663 28.7378 4.95669 28.9377 4.98669 29.1677C5.05669 29.6277 5.23663 30.2276 4.66663 29.8276C5.02663 30.4876 5.31662 30.9676 5.53662 31.3276C5.75662 31.6876 5.90659 31.9477 6.00659 32.1877C6.20659 32.6777 6.26669 33.0377 6.48669 33.9177C7.19669 34.5177 7.56667 34.5976 7.83667 34.5476C8.09667 34.5076 8.26666 34.3277 8.57666 34.3677C9.39666 34.8677 9.96661 35.4877 10.5266 36.1077C10.8066 36.4077 11.0766 36.7175 11.3866 36.9875C11.6866 37.2575 12.0066 37.5077 12.3766 37.6977C11.9666 37.7477 11.8667 37.9077 11.9867 38.1477C12.1067 38.3877 12.4466 38.6876 12.8966 39.0276C13.8066 39.6776 15.1566 40.3876 16.0566 40.8176C16.6166 41.1276 16.9867 41.2276 17.2467 41.2576C17.5067 41.2876 17.6566 41.2177 17.8066 41.1677C17.9566 41.1077 18.1166 41.0476 18.3866 41.0776C18.5166 41.0876 18.6866 41.1277 18.8866 41.1977C19.0866 41.2677 19.3366 41.3675 19.6366 41.4975C20.1566 41.9775 19.4667 41.9076 18.8167 41.8276C18.1667 41.7476 17.5566 41.6776 18.2666 42.2876L18.8866 42.4377L19.5166 42.5676C19.9666 42.5176 20.3867 42.4176 20.8167 42.3276C21.2467 42.2376 21.6766 42.1777 22.1666 42.1677C22.4266 42.2477 22.7566 42.3477 23.0266 42.4477C23.2866 42.5477 23.4867 42.6378 23.4667 42.7178C22.9167 42.6578 22.6967 42.7377 22.7367 42.9177C22.7767 43.0977 23.0866 43.3577 23.6266 43.6277C24.1966 43.6077 24.3366 43.5975 24.6266 43.4975C24.1466 43.0775 24.0667 42.8877 24.2167 42.8577C24.3667 42.8277 24.7666 42.9276 25.2766 43.0776C25.5266 43.1576 25.8167 43.2276 26.1167 43.2976C26.4167 43.3676 26.7266 43.4475 27.0266 43.4975C27.6366 43.5875 28.2166 43.6376 28.6266 43.5176C29.2066 43.4776 29.6766 43.4675 30.0566 43.4775C30.4366 43.4875 30.7467 43.5376 30.9867 43.5876C31.4867 43.6976 31.7666 43.9077 32.0466 44.1277C32.3266 44.3477 32.6166 44.5678 33.1266 44.7178C33.3766 44.7978 33.6867 44.8377 34.0767 44.8577C34.2667 44.8677 34.4867 44.8576 34.7267 44.8476C34.9667 44.8276 35.2266 44.7976 35.5066 44.7576C35.1466 44.5176 35.1566 44.3575 35.3866 44.2375C35.6166 44.1275 36.0766 44.0675 36.6266 43.9875C37.7266 43.8775 39.1767 43.6877 39.8667 43.3877C40.4767 43.2977 40.9066 43.2876 41.3066 43.3276C41.6966 43.3576 42.0566 43.4275 42.5266 43.4875C42.8366 43.2975 43.7667 42.9876 43.8567 42.7576C43.3267 42.1876 42.2967 41.7877 40.9867 41.4177C39.6667 41.0377 38.0667 40.6875 36.3467 40.2375C36.2767 40.2575 36.1967 40.2876 36.1967 40.3176Z" fill="#F29994"/>
<path d="M41.2467 72.3176C41.1767 72.4576 41.0767 72.6176 40.9567 72.7576C40.8367 72.9076 40.7067 73.0377 40.5767 73.1377C40.3267 73.3477 40.0766 73.4176 40.0166 73.2476L39.7866 73.1978C39.9766 73.0278 40.3967 72.5278 40.7367 72.1978C41.0567 71.8578 41.3367 71.7076 41.2467 72.3176Z" fill="#F29994"/>
<path d="M44.9166 75.1978L45.1466 75.0076C44.9166 75.1976 44.6367 75.5075 44.4667 75.7275C44.3167 75.6375 44.5166 75.1278 44.8866 74.7178C44.9266 74.8878 44.6166 75.3378 44.9166 75.1978Z" fill="#F29994"/>
<path d="M32.4867 78.4975C32.3967 78.7475 32.5267 79.0676 32.8367 79.3676C33.1467 79.6676 33.6367 79.9576 34.2167 80.1176C34.1167 80.4076 34.0066 80.7175 33.8866 80.9975C33.4266 80.8375 32.7766 80.8276 32.0566 80.8076C31.3466 80.7776 30.5666 80.7276 29.8966 80.5876C29.6266 80.6176 29.9167 80.7476 30.1167 80.8676C30.2167 80.9176 30.2966 80.9675 30.2566 81.0075C30.2166 81.0375 30.0667 81.0575 29.7267 81.0175C29.6067 80.8575 29.7566 80.6876 29.5066 80.5376C28.8966 80.4875 28.6967 80.6477 28.3367 80.7077C28.1467 80.7377 27.9267 80.7277 27.5967 80.6477C27.2667 80.5577 26.8267 80.3775 26.2467 80.0376C26.0467 79.7776 25.8466 79.5175 25.6666 79.2475C23.7266 78.1075 21.9067 76.6476 20.4667 74.8376C19.7567 73.9276 19.1366 72.9476 18.6866 71.8876C18.4566 71.3676 18.2766 70.8175 18.1266 70.2675C18.0566 69.9975 18.0067 69.7277 17.9567 69.4577C17.9067 69.1877 17.8567 68.9177 17.8367 68.6477C17.6967 68.4777 17.5767 68.2076 17.4667 67.8776C17.3567 67.5476 17.3067 67.1575 17.2267 66.7475C17.1067 65.9275 17.0667 65.0276 16.9667 64.3476L17.2167 64.3276C17.0067 63.9276 17.0967 63.4076 17.2167 62.8776C17.2767 62.6076 17.3667 62.3476 17.4467 62.0876C17.5267 61.8276 17.5867 61.5776 17.6167 61.3476L18.0366 60.5776C18.2766 60.4676 18.1766 61.0576 18.1466 61.5976C18.1266 62.1476 18.1466 62.6276 18.5166 62.3176C18.6766 61.9076 18.7366 61.5177 18.8066 61.1477C18.8666 60.7777 18.8566 60.4076 18.9066 60.0676C18.9466 59.7176 18.9666 59.3675 19.0566 59.0275C19.1566 58.6975 19.2966 58.3676 19.5266 58.0576C19.8466 57.4176 19.9367 57.1076 19.9567 56.8476C19.9967 56.5876 19.9767 56.3877 20.1167 55.9477C19.9967 55.6277 19.7666 56.0976 19.5466 55.8876C20.2166 54.3576 20.9666 53.7775 21.6566 53.2775C21.8366 53.1575 22.0066 53.0377 22.1866 52.9077C22.2766 52.8477 22.3567 52.7777 22.4467 52.7077C22.5367 52.6377 22.6267 52.5675 22.7167 52.4975C22.9067 52.3475 23.0866 52.1775 23.2866 51.9775C23.4766 51.7775 23.6966 51.5575 23.9066 51.2875C23.8866 51.2375 23.9367 51.0676 23.9967 50.8676C24.0667 50.6676 24.1567 50.4475 24.1967 50.2675C24.2767 49.9075 24.1566 49.7177 23.3066 50.3977L22.8267 51.3376C22.6067 51.4576 22.3866 51.5777 22.1666 51.7077C22.2866 51.5477 22.4367 51.3577 22.5967 51.1677C22.7567 50.9777 22.9166 50.7876 23.0566 50.6076C23.3266 50.2476 23.5067 49.9777 23.3367 49.9377C23.6967 49.9177 24.0566 49.6075 24.4266 49.2375C24.7966 48.8675 25.1467 48.3975 25.4667 48.0275C25.6167 47.8375 25.7566 47.6776 25.8766 47.5476C25.9966 47.4276 26.0866 47.3476 26.1466 47.3276C26.2766 47.2876 26.2467 47.4876 26.0667 48.1176C25.7766 48.2876 25.5367 48.4376 25.3467 48.5776C25.1567 48.7176 25.0066 48.8575 24.8766 48.9975C24.6266 49.2775 24.4666 49.5675 24.3066 50.0075C25.3966 48.9675 26.5466 48.1577 27.6566 47.4577C28.7766 46.7477 29.8866 46.1776 30.9166 45.5876L31.3267 44.8676C31.5767 45.2076 32.7266 44.8975 33.7866 44.5275C34.1866 44.2475 34.7766 44.0277 34.5566 43.8977C34.6066 43.7377 33.6467 44.1076 32.8667 44.3776C32.0967 44.6476 31.4966 44.7875 32.2566 43.9775C33.5066 43.4475 34.8367 43.0375 36.0667 42.7675C37.2966 42.4975 38.4467 42.3977 39.3267 42.4377C38.7567 42.6677 38.2566 42.8175 37.7766 43.0375C37.2866 43.2575 36.8167 43.5475 36.3167 44.0375C34.4067 45.0775 32.4066 46.0675 30.5466 47.2775C29.6166 47.8875 28.7266 48.5275 27.9166 49.2575L27.6167 49.5275C27.5167 49.6175 27.4267 49.7176 27.3267 49.8076C27.1367 49.9976 26.9466 50.1876 26.7666 50.3776C26.4166 50.7776 26.0766 51.1776 25.7866 51.6076C25.6266 51.5576 25.3467 51.7176 25.0967 51.8276C24.8567 51.9476 24.6466 52.0276 24.6466 51.8076C24.4466 51.8876 24.1967 52.1677 23.9567 52.4177C23.7167 52.6877 23.4667 52.9277 23.2067 52.9177C23.0967 53.0977 22.9966 53.2777 22.8866 53.4677C22.7766 53.6477 22.6767 53.8375 22.5667 54.0175C22.3467 54.3875 22.1466 54.7777 21.9266 55.1477C21.7266 55.5377 21.5266 55.9176 21.3167 56.3076L21.0366 56.8977C20.9366 57.0977 20.8366 57.2875 20.7566 57.4875C20.0366 59.0775 19.4967 60.7177 19.2267 62.1877C19.6567 61.8377 19.6966 62.3077 19.6666 62.9477C19.6666 63.2677 19.6466 63.6375 19.6466 63.9875C19.6566 64.3275 19.6966 64.6376 19.7566 64.8476C19.7166 64.9376 19.6766 65.0477 19.6466 65.1577C19.6266 65.2677 19.6067 65.3875 19.5967 65.5075C19.5767 65.7575 19.5667 66.0175 19.5767 66.2876C19.6367 66.8276 19.7066 67.3976 19.8167 67.8676C19.9566 67.9476 20.1066 68.5276 20.2866 68.3376C20.0766 67.6676 20.1766 67.3877 20.1866 66.6777C20.3266 66.7377 20.4067 66.8575 20.4467 67.0275C20.4667 67.1075 20.4767 67.2076 20.4867 67.3076C20.4967 67.4076 20.5066 67.5176 20.5066 67.6376C20.5066 67.8776 20.4967 68.1377 20.4967 68.4077C20.5167 68.6777 20.5467 68.9477 20.6067 69.2077L20.1766 68.7475C20.2266 68.9675 20.2666 69.1877 20.3066 69.4277C20.3366 69.6577 20.3866 69.8977 20.4166 70.1376C20.5066 70.6176 20.5867 71.1176 20.7267 71.5976C20.9867 72.5576 21.4366 73.4675 22.1466 73.9775C22.0066 73.4975 21.8966 73.0175 21.8066 72.5376C22.4166 73.3176 22.9766 74.2776 23.6566 75.0776C24.3166 75.8876 25.1066 76.5377 25.8866 76.6877C25.4066 76.2377 24.7067 75.7275 24.2167 75.2275C23.7167 74.7275 23.4367 74.2676 23.7167 74.0576C23.8867 73.9676 24.1966 74.1875 24.5266 74.4975C24.8666 74.7975 25.2166 75.1977 25.4366 75.4677C25.8966 76.0777 26.4666 76.5176 27.0566 76.8376C27.6566 77.1576 28.2766 77.3575 28.8866 77.5075C29.4966 77.6575 30.0866 77.7577 30.6666 77.8977C31.2866 78.0577 31.8667 78.2275 32.4867 78.4975Z" fill="#F29994"/>
<path d="M29.0566 76.5175C28.9266 76.4675 28.8166 76.4176 28.7066 76.3876C28.5966 76.3476 28.5066 76.3075 28.4066 76.2875C28.2266 76.2375 28.0766 76.1976 27.9466 76.1776C27.6866 76.1476 27.5066 76.1777 27.3166 76.2076C27.1366 76.2376 26.9566 76.2576 26.7066 76.1876C26.4566 76.1176 26.1266 75.9475 25.6866 75.5675C25.9166 75.5175 25.8666 75.2376 25.6966 74.9276C25.6166 74.7676 25.5066 74.5976 25.3866 74.4276C25.2766 74.2576 25.1366 74.0976 25.0166 73.9576C24.3566 73.5976 23.9266 72.8175 23.5766 72.3075C23.4866 72.1075 23.5566 71.9576 23.6966 71.9476C23.8366 71.9376 24.0566 72.0476 24.2966 72.3676C24.5766 73.3976 25.4866 74.1975 26.4266 74.7975C26.8966 75.0975 27.3866 75.3576 27.8366 75.6276C28.2766 75.8976 28.6966 76.1775 29.0566 76.5175Z" fill="#F29994"/>
<path d="M22.9166 72.4478C22.6866 72.1378 22.3966 71.5676 22.2666 71.0276C22.2366 70.8976 22.2066 70.7577 22.1966 70.6377C22.1866 70.5177 22.1766 70.3976 22.1866 70.2976C22.1966 70.0976 22.2567 69.9477 22.3667 69.8977C22.3667 69.7877 22.6666 69.8576 22.4466 69.5176C22.4766 69.8376 22.6566 70.4276 22.8166 71.0076C22.9666 71.5876 23.1166 72.1478 22.9166 72.4478Z" fill="#F29994"/>
<path d="M21.5867 72.0276C21.3367 72.3476 21.1767 71.4475 21.0867 71.2375C21.0667 71.0676 21.0566 70.8975 21.0366 70.7275C21.2866 71.1175 21.5867 71.5976 21.5867 72.0276Z" fill="#F29994"/>
<path d="M21.0466 65.2078C21.1366 64.6478 21.2467 64.9478 21.3467 65.2078C21.4667 65.4678 21.5567 65.6877 21.5867 65.0477C21.5967 65.2977 21.6366 65.5376 21.6566 65.7776C21.4666 65.8776 21.2767 65.9777 21.0867 66.0777L21.0466 65.2078Z" fill="#F29994"/>
<path d="M21.6566 63.5576C21.6166 63.3976 21.5667 63.2376 21.5967 63.0476C21.6167 62.8576 21.6666 62.6477 21.7666 62.3877L21.9266 62.7178C21.9866 62.9278 21.6866 63.1276 21.6566 63.5576Z" fill="#F29994"/>
<path d="M20.2566 64.9478C20.1466 64.3778 20.4366 64.4677 20.5666 64.1277C20.6466 64.2377 20.5767 64.5776 20.4867 64.8276C20.3867 65.0776 20.2666 65.2378 20.2566 64.9478Z" fill="#F29994"/>
<path d="M17.9867 58.2476C18.0467 58.4376 18.0366 58.6377 18.0166 58.8677C17.9966 59.0977 17.9367 59.3477 17.8567 59.6077C17.8167 59.7377 17.7767 59.8776 17.7367 60.0076C17.6967 60.1476 17.6666 60.2877 17.6366 60.4377C17.5666 60.7277 17.5067 61.0276 17.4767 61.3376C17.5967 60.1276 17.4667 59.5476 17.9867 58.2476Z" fill="#F29994"/>
<path d="M43.6766 65.1277C43.7866 64.9177 43.8267 64.6778 43.8267 64.4478C43.8267 64.2178 43.7667 64.0077 43.7267 63.8477L43.5466 64.0676C43.5766 64.2476 43.5967 64.4177 43.6167 64.5977L43.6766 65.1277Z" fill="#F29994"/>
<path d="M41.4066 70.8877C41.6366 71.5577 41.8367 70.7677 42.5967 70.1477C42.9067 69.6377 43.0767 69.0378 43.1967 68.4478C43.3167 67.8478 43.3966 67.2478 43.5366 66.6978C43.4966 66.4478 43.4466 66.1978 43.3966 65.9578C43.1766 66.5978 42.8467 67.4777 42.4867 68.3677C42.1067 69.2277 41.7066 70.1277 41.4066 70.8877Z" fill="#F29994"/>
<path d="M42.4567 53.4377C42.5567 53.8277 42.6367 54.2578 42.7067 54.7178C42.7767 55.1678 42.8467 55.6377 42.9267 56.1177C43.0167 56.5877 43.0967 57.0676 43.2267 57.5176C43.3567 57.9676 43.5067 58.4076 43.7367 58.8176C43.7467 58.4176 43.7867 58.2077 43.8267 57.9377C43.8667 57.6677 43.8767 57.3478 43.8367 56.7078C44.2667 57.1178 44.3267 57.6077 44.2767 58.1377C44.2367 58.6577 44.0766 59.2076 44.1466 59.7576C44.1766 59.2976 44.2967 59.3577 44.4267 59.6277C44.5667 59.9077 44.6667 60.3976 44.7167 60.7876C44.6867 61.1676 44.6566 61.5876 44.6466 62.0476C44.6367 62.2776 44.6167 62.5176 44.6067 62.7576C44.5967 62.9976 44.5867 63.2576 44.5667 63.5076C44.5467 63.7576 44.5266 64.0176 44.5066 64.2776C44.4866 64.5376 44.4467 64.7976 44.4167 65.0576C44.3667 65.5876 44.2767 66.0676 44.1767 66.5476C44.2167 66.9876 43.9367 67.8576 43.6967 68.5676C43.4567 69.2776 43.2667 69.8476 43.6667 69.8076C43.4467 70.3876 43.1767 70.6477 42.9067 70.8477C42.7767 70.9477 42.6267 71.0377 42.4867 71.1377C42.3467 71.2477 42.2067 71.3576 42.0567 71.5276C41.8967 72.1976 41.5367 72.7177 41.0967 73.1477C40.6467 73.5677 40.1167 73.8777 39.5867 74.1577C39.0567 74.4377 38.5166 74.6578 38.0166 74.9478C37.5166 75.2278 37.0567 75.5676 36.6067 76.0676C36.5967 75.9576 36.5167 75.9077 36.4067 75.9077C36.2967 75.9077 36.1467 75.9375 35.9767 75.9875C35.8167 76.0376 35.6367 76.0977 35.4667 76.1477C35.3067 76.2077 35.1467 76.2476 35.0367 76.2676C34.9167 76.3076 34.7767 76.3377 34.6167 76.3777C34.4667 76.4177 34.2966 76.4475 34.1266 76.4875C33.9566 76.5275 33.7767 76.5476 33.5967 76.5876C33.4267 76.6176 33.2567 76.6377 33.0967 76.6777C32.4667 76.7977 31.9667 76.9176 32.2167 77.3376C32.5667 77.6176 33.1567 77.5377 33.7467 77.3777C34.3467 77.2177 34.9467 76.9976 35.5767 77.0576C36.1167 77.0876 36.2867 77.1576 36.2167 77.2676C36.1467 77.3776 35.8367 77.5477 35.4567 77.6877C35.2667 77.7677 35.0567 77.8277 34.8467 77.8977C34.6367 77.9677 34.4267 78.0177 34.2467 78.0977C33.8767 78.2177 33.6067 78.3476 33.6167 78.5176C33.7667 78.4476 33.9066 78.5377 34.1266 78.6277C34.2366 78.6677 34.3767 78.7077 34.5367 78.6978C34.7067 78.6878 34.8966 78.6576 35.1266 78.5376C34.8766 78.6476 34.6967 78.7176 34.5867 78.7876C34.4667 78.8576 34.4167 78.9078 34.4067 78.9578C34.3867 79.0578 34.5467 79.1278 34.7467 79.1978C34.8467 79.2278 34.9567 79.2676 35.0567 79.2976C35.1567 79.3276 35.2467 79.3577 35.3167 79.3977C35.4467 79.4777 35.4567 79.5876 35.1867 79.7676C35.5267 79.7376 35.8267 79.7177 36.0867 79.6777C36.2167 79.6577 36.3367 79.6477 36.4567 79.6277C36.5667 79.6077 36.6766 79.5876 36.7666 79.5776C37.1566 79.5176 37.4367 79.4678 37.6867 79.4478C38.1767 79.3978 38.5367 79.4876 39.4167 79.4976C39.5967 79.3676 39.7467 79.2477 39.8667 79.1377C39.9767 79.0277 40.0666 78.9176 40.1266 78.8276C40.2566 78.6376 40.2967 78.4977 40.2967 78.3577C40.2967 78.0877 40.1567 77.8977 40.2467 77.6177C40.8367 76.9477 41.4667 76.5176 42.0867 76.0776C42.7067 75.6376 43.3067 75.1676 43.6867 74.5076C43.7267 74.8976 43.8866 75.0077 44.1266 74.9077C44.2466 74.8577 44.3767 74.7577 44.5267 74.6177C44.6767 74.4777 44.8367 74.2976 44.9867 74.0876C45.3067 73.6776 45.6167 73.1377 45.9067 72.6077C46.1767 72.0677 46.4167 71.5377 46.5967 71.1077C47.0967 70.0177 46.9066 69.7278 46.7666 69.4478C46.6966 69.3078 46.6167 69.1677 46.6067 68.9177C46.6067 68.6677 46.6667 68.3075 46.8467 67.7275C47.0467 67.4675 47.1567 67.4877 47.2167 67.6677C47.2467 67.7577 47.2667 67.8776 47.2767 68.0176C47.2867 68.1576 47.2867 68.3078 47.2867 68.4678C47.2967 69.0778 47.2867 69.6577 47.8167 68.9377C47.8567 68.5377 47.8967 68.1376 47.9167 67.7375C47.8567 67.5275 47.7867 67.3277 47.7067 67.1377C47.6267 66.9477 47.5567 66.7576 47.4667 66.5676C47.3867 66.3776 47.3067 66.1875 47.2367 65.9875C47.1667 65.7876 47.0967 65.5877 47.0467 65.3677C47.0767 65.1177 47.1167 64.8076 47.1567 64.5676C47.1967 64.3176 47.2467 64.1277 47.3367 64.1277C47.4367 65.1177 47.8667 64.8876 48.1867 63.8376C48.0567 63.3376 48.0067 63.2078 47.8467 62.9678C47.5367 63.4678 47.3767 63.5678 47.3067 63.4478C47.2367 63.3178 47.2567 62.9475 47.2967 62.4775C47.3167 62.2375 47.3267 61.9778 47.3367 61.6978C47.3467 61.4278 47.3467 61.1377 47.3367 60.8677C47.2967 60.3177 47.2166 59.7978 47.0066 59.4678C46.6766 58.4778 46.5567 57.8577 46.5767 57.3977C46.5967 56.9377 46.7266 56.6577 46.8866 56.3677C47.0466 56.0777 47.2166 55.7776 47.2666 55.3176C47.2866 55.0876 47.2867 54.8078 47.2367 54.4678C47.1767 54.1378 47.0767 53.7376 46.9067 53.2576C46.7267 53.6176 46.5667 53.6378 46.4167 53.4578C46.2667 53.2778 46.1267 52.8877 45.9867 52.4277C45.8467 51.9677 45.6967 51.4177 45.5467 50.9277C45.3867 50.4277 45.2167 49.9778 45.0367 49.6978C44.7667 48.6378 44.9267 48.1777 45.0267 47.3577C44.8367 47.0977 44.5367 46.3176 44.3067 46.2476C43.7367 46.7376 43.3267 47.6777 43.0267 48.9177C42.7167 50.1577 42.5267 51.6876 42.3467 53.3376C42.3867 53.3776 42.4267 53.4477 42.4567 53.4377Z" fill="#F29994"/>
<path d="M49.0867 35.2577C49.3567 35.8077 49.5167 36.8377 49.1467 36.7677L48.9868 36.9479C48.8568 36.4479 48.2367 34.4077 49.0867 35.2577Z" fill="#263682"/>
<path d="M53.5867 34.0376L53.5967 33.8076C53.5867 34.0376 53.6367 34.3376 53.6967 34.5276C53.5467 34.5976 53.2667 34.2677 53.2167 33.8477C53.3667 33.9077 53.4967 34.2976 53.5867 34.0376Z" fill="#263682"/>
<path d="M53.3567 45.0176C53.8867 45.0176 54.3867 44.1477 54.5967 43.1777L55.4967 43.2375C55.3967 43.6076 55.4967 44.0877 55.6667 44.5977C55.7467 44.8477 55.8467 45.1177 55.9467 45.3677C55.9967 45.4977 56.0467 45.6376 56.0967 45.7676C56.1467 45.8976 56.1867 46.0377 56.2267 46.1677C56.5067 46.5277 56.2167 45.1077 56.6867 46.1077C56.5967 46.2577 56.3767 46.2278 56.3567 46.4678C56.5867 46.9178 56.8167 46.9878 57.0467 47.2178C57.1567 47.3278 57.2567 47.4976 57.3567 47.7776C57.4367 48.0576 57.5167 48.4677 57.4967 49.0977L57.3067 49.5276C57.2367 49.6676 57.1667 49.8078 57.0967 49.9478C57.0667 50.4978 57.0067 51.0777 56.8267 51.6777C56.6567 52.2777 56.3767 52.9078 55.9567 53.4578C55.9067 53.5278 55.8567 53.5977 55.8067 53.6677L55.6366 53.8577C55.5166 53.9777 55.4066 54.1175 55.2766 54.2275C55.1366 54.3475 55.0067 54.4576 54.8567 54.5676C54.7067 54.6676 54.5566 54.7677 54.4066 54.8577C53.7866 55.2177 53.0967 55.4276 52.4267 55.5276C51.7567 55.6176 51.1067 55.5778 50.4967 55.4678C49.8867 55.3578 49.3066 55.1577 48.7766 54.8877C48.5066 54.7577 48.2566 54.5977 48.0066 54.4377C47.7666 54.2577 47.5267 54.0877 47.3067 53.8777C47.0867 53.6877 46.8767 53.4478 46.6967 53.2178C46.5367 52.9978 46.3767 52.7776 46.2367 52.5476C45.8367 52.3776 45.3567 51.7877 44.9867 51.1077C44.6067 50.4277 44.3066 49.6977 44.0066 49.1777L44.2367 49.0776C43.9367 48.8276 43.8367 48.3878 43.8067 47.9478C43.7667 47.4978 43.7867 47.0478 43.6767 46.6978L43.7766 46.0176C43.9566 45.8576 44.0966 46.2877 44.2566 46.6777C44.4166 47.0777 44.6067 47.4276 44.8367 47.0776C44.8467 46.3576 44.5967 45.8376 44.3467 45.3276C44.0967 44.8176 43.8667 44.3375 43.9567 43.7275C43.8167 42.5975 43.5666 42.7877 43.2766 42.1377C42.9866 42.0177 43.0866 42.4077 42.7866 42.4077C42.0766 39.9677 43.3466 39.5577 42.7566 37.4077C42.5366 37.3777 41.6367 35.7477 41.6967 37.4377L42.1266 38.1477L41.9667 38.7375C41.8267 38.1475 41.6067 37.0375 41.3567 37.2275C42.1067 36.2375 39.5767 33.3277 41.3467 34.6677C41.3467 35.7377 41.4567 36.0177 41.9767 36.5977C41.5567 34.2777 41.4867 32.1776 41.0767 30.2776L40.5366 29.8176C40.9366 29.6876 40.9966 28.7076 40.9066 27.7776C40.7366 27.4076 40.6567 26.8976 40.4767 27.0676C40.1867 26.9476 41.0567 30.3977 39.9767 28.9377C39.6767 26.7977 39.5567 24.4876 39.8467 23.0076C40.1567 23.9676 40.2067 24.7077 40.9767 25.6277C42.2967 29.0377 42.7166 32.9478 44.1366 36.2178C43.8866 36.4078 43.9766 37.3377 43.6266 37.1277C43.4966 37.4877 43.9067 38.3177 43.5567 38.6377C44.5467 41.1977 44.9967 44.3476 45.4867 46.7576C45.7667 46.3376 45.9666 46.6777 46.1566 47.1877C46.3466 47.6977 46.5567 48.3877 46.8067 48.6577C46.7567 49.0077 46.8667 49.4477 47.0567 49.8677C47.2467 50.2877 47.5167 50.6976 47.7467 51.0276C47.8967 51.0376 48.2367 51.3977 48.3267 51.1777C47.9067 50.7777 47.9267 50.4978 47.7267 49.9478C47.8767 49.9378 47.9867 49.9977 48.0667 50.1077C48.1567 50.2077 48.2167 50.3776 48.2967 50.5476C48.3667 50.7276 48.4466 50.9277 48.5366 51.1277C48.5866 51.2277 48.6367 51.3177 48.6967 51.4177C48.7567 51.5077 48.8266 51.5877 48.8966 51.6677C48.7266 51.6377 48.5467 51.6076 48.3667 51.5476C48.6067 51.8276 48.8466 52.1478 49.1366 52.4478C49.4266 52.7478 49.7467 53.0476 50.1167 53.2776C50.4867 53.5076 50.8967 53.6976 51.3267 53.7576C51.7467 53.8276 52.1766 53.7876 52.5266 53.5876C52.3066 53.5476 52.0966 53.4577 51.8966 53.3777C51.6966 53.2777 51.5167 53.1876 51.3467 53.0776C51.7567 53.0776 52.1667 53.0776 52.5867 53.0176C53.0067 52.9576 53.4166 52.8176 53.7766 52.5876L53.9066 52.4976C53.9466 52.4676 53.9866 52.4277 54.0266 52.3977C54.1066 52.3277 54.1866 52.2577 54.2566 52.1877C54.3266 52.1077 54.3867 52.0278 54.4467 51.9478C54.5067 51.8678 54.5467 51.7777 54.5967 51.6877C54.6967 51.5177 54.7266 51.3277 54.7566 51.1577C54.7666 50.9777 54.7667 50.8077 54.7167 50.6577C54.6667 50.7777 54.6067 50.9076 54.5567 51.0376C54.4967 51.1676 54.4366 51.2977 54.3766 51.4277L54.2666 51.6177C54.2466 51.6477 54.2367 51.6778 54.2167 51.7078L54.1466 51.7976C54.1066 51.8576 54.0566 51.9078 54.0166 51.9678C53.9766 52.0278 53.9166 52.0677 53.8766 52.1077C53.8266 52.1477 53.7767 52.1975 53.7367 52.2375C53.6867 52.2775 53.6367 52.2976 53.5867 52.3276C53.5367 52.3576 53.4967 52.3777 53.4467 52.3977C53.4067 52.4177 53.3567 52.4177 53.3167 52.4277C53.1467 52.4477 53.0267 52.3975 52.9567 52.2275C52.9267 52.1375 52.9566 52.0478 53.0066 51.9578C53.0666 51.8778 53.1367 51.7778 53.2267 51.6978C53.4067 51.5078 53.6267 51.2977 53.7967 51.1477C53.8967 51.0677 53.9666 50.9677 54.0366 50.8677C54.0966 50.7577 54.1567 50.6476 54.1967 50.5276C54.2767 50.2876 54.3167 50.0276 54.3067 49.7576C54.2967 49.2276 54.1567 48.7078 53.9867 48.2078C53.8167 47.7078 53.6267 47.2178 53.4967 46.6978C53.4667 46.5678 53.4366 46.4376 53.4066 46.2976C53.3866 46.1576 53.3567 46.0177 53.3467 45.8677C53.3167 45.6377 53.3167 45.3276 53.3567 45.0176Z" fill="#263682"/>
<path d="M53.0366 48.6177C53.1166 49.0577 53.1766 49.3075 53.2866 49.4875C53.3866 49.6675 53.4967 49.7577 53.6167 49.8777C53.7267 49.9777 53.8266 50.0876 53.8866 50.2776C53.9266 50.4476 53.9366 50.7276 53.7666 51.0376C53.6266 50.8776 53.4267 50.9376 53.2267 50.9976C53.1367 51.0376 53.0267 51.0577 52.9567 51.1077C52.9167 51.1277 52.8667 51.1377 52.8367 51.1577C52.7967 51.1777 52.7667 51.2078 52.7367 51.2178C52.7267 51.2578 52.7167 51.2976 52.6967 51.3276C52.6767 51.3576 52.6466 51.3877 52.6266 51.4077L52.5867 51.4478L52.5366 51.4678C52.4966 51.4778 52.4667 51.5076 52.4267 51.5076C52.3467 51.5176 52.2667 51.5376 52.1767 51.5376C52.0967 51.5476 52.0067 51.5376 51.9267 51.5476C51.8167 51.5076 51.7767 51.3676 51.8167 51.2476C51.8567 51.1276 51.9567 51.0075 52.0867 50.9875C52.2767 51.1475 52.4667 51.1476 52.5967 51.0576C52.6167 51.0476 52.6266 51.0376 52.6466 51.0276L52.6867 50.9678C52.7067 50.9478 52.7167 50.9277 52.7367 50.9177L52.7666 50.8477C52.7766 50.8277 52.7867 50.8076 52.7967 50.7876L52.8167 50.7178C52.8267 50.6978 52.8267 50.6677 52.8367 50.6477C52.8367 50.6177 52.8367 50.5876 52.8467 50.5676C52.8867 50.1376 52.7966 49.4277 53.0366 48.6177Z" fill="#263682"/>
<path d="M51.7566 52.1777C51.5066 52.1977 51.0666 52.0776 50.7566 51.8376C50.6766 51.7776 50.6066 51.7077 50.5466 51.6477C50.4866 51.5777 50.4466 51.5077 50.4066 51.4377C50.3366 51.3077 50.3366 51.1676 50.3966 51.0576C50.3666 50.9876 50.5867 50.8376 50.3367 50.7776C50.4467 50.9476 50.7466 51.1877 51.0566 51.4077C51.3666 51.6377 51.6666 51.8577 51.7566 52.1777Z" fill="#263682"/>
<path d="M50.8567 52.9775C50.8767 53.1675 50.7266 53.1676 50.5466 53.0776C50.3666 53.0076 50.1867 52.8476 50.0967 52.8076C49.9867 52.7076 49.8966 52.5875 49.8066 52.4875C50.1766 52.6075 50.6167 52.7075 50.8567 52.9775Z" fill="#263682"/>
<path d="M48.0567 48.5276C47.9767 48.0676 48.1667 48.2577 48.3367 48.4277C48.5167 48.5877 48.6667 48.7275 48.5167 48.2275C48.5967 48.4175 48.6867 48.5876 48.7767 48.7676C48.6267 48.9076 48.4767 49.0478 48.3267 49.1978C48.2367 48.9778 48.1367 48.7576 48.0567 48.5276Z" fill="#263682"/>
<path d="M48.1366 47.0176C47.9466 46.7876 47.8266 46.5176 47.8366 45.9976L48.1067 46.2178C48.2267 46.3778 48.0366 46.6476 48.1366 47.0176Z" fill="#263682"/>
<path d="M47.2367 48.5876C46.9667 48.1776 47.2666 48.1476 47.2966 47.8276C47.3966 47.8876 47.4366 48.1877 47.4166 48.4177C47.3966 48.6477 47.3367 48.8076 47.2367 48.5876Z" fill="#263682"/>
<path d="M42.6666 44.5876C43.2166 44.9476 43.1567 45.9176 43.4867 46.7776C43.1567 45.9176 42.8266 45.6076 42.6666 44.5876Z" fill="#263682"/>
<path d="M46.5166 28.3176C46.5566 27.8976 46.2867 27.5076 46.0767 27.3276L45.9867 27.5576C46.1667 27.7876 46.3366 28.0476 46.5166 28.3176Z" fill="#263682"/>
<path d="M48.0967 34.2476C48.7567 34.5176 48.2666 33.8477 48.4066 32.9077C48.1766 31.7977 47.4167 30.7978 47.1067 29.7178L46.6167 29.1577C46.8267 30.4877 47.3567 32.7976 48.0967 34.2476Z" fill="#263682"/>
<path d="M43.7467 25.3478C43.7667 25.3078 43.8266 25.2677 43.9166 25.2477C43.9966 25.2177 44.0966 25.2079 44.1766 25.1979C44.2566 25.1879 44.2967 25.1778 44.3367 25.1178C44.3467 25.0978 44.3467 25.0977 44.3667 25.0677C44.3667 25.0577 44.3866 25.0477 44.3966 25.0477C44.4066 25.0377 44.4267 25.0377 44.4367 25.0277L44.4867 24.9977C44.5067 24.9877 44.5166 24.9779 44.5366 24.9679C44.5766 24.9479 44.6166 24.9178 44.6666 24.8978C44.6266 24.8478 44.6067 24.8077 44.5867 24.7577C44.5567 24.7177 44.5366 24.6778 44.5166 24.6278C44.4666 24.5478 44.4367 24.4478 44.2267 24.4078C44.2867 24.2178 44.3867 24.1378 44.4767 24.1278C44.5267 24.1178 44.5567 24.1378 44.5967 24.1578C44.6367 24.1778 44.6867 24.2277 44.7267 24.2677C44.8967 24.4477 44.9366 24.7078 45.1266 24.8578C45.0266 24.6778 45.1066 24.5978 45.2866 24.5978C45.4566 24.6178 45.7266 24.7479 45.8966 24.9479C46.1166 25.3779 46.4167 25.9977 46.7167 26.7577C46.8667 27.1377 47.0166 27.5477 47.1566 27.9777C47.3066 28.4277 47.4567 28.8777 47.5967 29.3077C48.0767 29.9877 48.4466 32.5777 49.0066 32.0177C49.3966 33.0677 48.9266 33.3679 49.0166 34.2079C50.5366 36.3179 48.8767 38.8778 50.6167 41.1178C50.1667 41.0878 50.6167 42.3278 50.7367 42.8278C51.0467 43.9078 51.7867 46.4578 52.3567 45.6678C52.6367 44.7778 51.3666 43.5577 51.5166 42.2877C51.7266 40.1077 52.4466 44.2077 53.1366 44.0277C52.9266 43.7877 53.4767 43.4478 52.9967 42.6578C53.8667 44.3778 53.5067 41.6777 54.2067 42.4777C53.9667 40.2677 54.0267 40.4678 54.5667 39.1478C54.0467 37.9378 53.5566 38.4679 53.1266 38.2079C52.3766 36.9879 52.8366 35.6978 52.2966 34.5978C53.6166 35.1478 52.5067 32.4177 52.0667 31.0677C51.5767 29.2977 50.9567 30.7578 50.4767 28.8778C50.6967 27.7978 51.7266 30.5578 51.8866 29.1678L51.4066 28.3778C50.8266 27.9578 50.1766 27.6878 49.6766 27.1178C49.5466 26.7178 49.3267 26.1277 49.4767 26.0477C49.7067 26.4177 49.8866 26.5078 50.0166 26.3878C50.1366 26.2678 50.2066 25.9479 50.1466 25.4679C49.8266 25.1279 49.7366 25.0378 49.5066 24.9178C49.4166 25.4578 49.3067 25.5977 49.2067 25.5277C49.0967 25.4577 48.9867 25.1577 48.8167 24.7577C48.6467 24.3677 48.4167 23.8779 48.1067 23.4679C47.7967 23.0479 47.3866 22.7178 47.0166 22.6278C46.9066 22.5678 46.7867 22.5277 46.6867 22.4777C46.6367 22.4577 46.5866 22.4278 46.5366 22.4078C46.4866 22.3878 46.4366 22.3678 46.3866 22.3478C46.2966 22.3078 46.2067 22.2777 46.1167 22.2377C46.0267 22.2077 45.9467 22.1778 45.8667 22.1578C45.7867 22.1278 45.7166 22.0978 45.6466 22.0778C45.5766 22.0578 45.5067 22.0377 45.4467 22.0077C45.3267 21.9677 45.2167 21.9078 45.1167 21.8778C44.7067 21.7078 44.4566 21.5277 44.1666 21.3177C43.8766 21.1377 43.5466 20.9379 43.0066 20.9479C42.7366 20.9479 42.4166 21.0179 42.0366 21.1779C41.6666 21.3479 41.2467 21.6278 40.8467 22.0878C41.0667 22.0478 41.1966 22.0878 41.2666 22.1478C41.3266 22.2078 41.3166 22.2978 41.2766 22.4078C41.1766 22.6378 40.8966 22.9678 40.6466 23.4279C40.3866 23.8779 40.1766 24.4677 40.1366 25.0177C40.0866 25.5677 40.1967 26.0678 40.3467 26.3578C40.4467 26.8878 40.5167 27.2578 40.5867 27.6178C40.6067 27.7978 40.6567 27.9678 40.6867 28.1578C40.7367 28.3378 40.7766 28.5477 40.8766 28.7577C41.0366 28.8477 41.2967 29.0579 41.5767 29.1979C41.7167 29.2679 41.8467 29.3278 41.9667 29.3578C42.0867 29.3878 42.1767 29.3978 42.2367 29.3678C42.2467 29.1778 42.2367 28.9677 42.2167 28.7577C42.2067 28.5477 42.1866 28.3278 42.1766 28.0978C42.1566 27.6478 42.1866 27.1777 42.3066 26.7277C42.4266 26.2877 42.6266 25.8678 42.9266 25.6078C42.9966 25.5378 43.0766 25.4879 43.1466 25.4379C43.2366 25.3979 43.3066 25.3678 43.3866 25.3578C43.5466 25.3278 43.6867 25.3678 43.8267 25.4178C43.7867 25.3778 43.7767 25.3578 43.7467 25.3478Z" fill="#263682"/>
<path d="M33.3666 12.8577C33.5266 12.9077 33.5566 13.1977 33.2666 13.3677L33.1265 13.5176C33.0865 13.4076 32.7766 13.0077 33.3666 12.8577Z" fill="#263682"/>
<path d="M37.0566 10.0176L37.0867 9.92773C37.0567 10.0177 37.0667 10.0977 37.1067 10.1277C36.9767 10.2377 36.7866 10.2677 36.7866 10.1477C36.8966 10.0877 36.9666 10.1576 37.0566 10.0176Z" fill="#263682"/>
<path d="M35.8466 14.0576C36.2666 13.7776 36.7465 13.1975 37.0065 12.7375L37.7166 12.2776C37.4866 12.6476 37.8566 12.7477 38.0166 12.9177C38.2066 12.8877 38.0965 12.5777 38.3866 12.6477C38.3065 12.7477 38.1266 12.8578 38.0966 12.9478C38.3966 12.9778 38.8467 12.4778 38.9967 12.9478L38.7766 13.3176C39.2666 13.9276 40.3066 14.1475 40.4466 14.9875C40.8666 14.8275 40.9866 15.2175 41.3466 15.2375L41.1566 15.3977C41.5766 15.2377 41.2966 15.7376 41.4466 15.8376L41.3466 16.0977C41.0566 16.3977 40.9266 15.8877 40.5266 16.3677C40.4466 16.8377 41.3065 16.4277 41.1366 16.9177C41.2166 17.1877 41.4266 16.9876 41.6366 17.0376C41.8566 16.9176 41.7966 16.8477 42.0366 16.6777C42.5366 17.0377 41.5066 17.8878 41.9166 18.2178C42.0966 18.1078 42.7666 18.1077 42.7666 17.6077L42.4466 17.6277L42.5866 17.3577C42.6866 17.4677 42.8266 17.6875 43.0366 17.4775C42.4066 18.2075 44.3466 17.6876 42.9666 18.2676C42.9966 17.9376 42.9166 17.9076 42.5166 18.0176C42.7866 18.5076 42.7866 19.1175 43.0566 19.4775L43.4766 19.3176C43.1566 19.5776 43.0765 19.9277 43.1265 20.1677C43.2565 20.1877 43.3066 20.2977 43.4466 20.1477C43.6666 20.0277 43.0766 19.4376 43.8966 19.2876C44.0666 19.7876 44.0966 20.4476 43.8266 21.0676C43.6066 20.9476 43.5867 20.7377 42.9967 20.8877C42.0367 20.5677 41.8166 19.5777 40.7766 19.3577C40.9866 19.1577 40.9366 18.9176 41.2066 18.7876C41.3166 18.6076 41.0166 18.5776 41.3066 18.2776C40.5866 18.0376 40.3167 17.3076 39.9967 16.8276C39.5167 17.4076 39.4066 16.8477 39.0666 16.9177C39.2266 16.5977 38.9566 16.4877 38.8266 16.3477C38.7166 16.4077 38.6066 16.3476 38.4566 16.4976C38.6166 16.5476 38.5166 16.6877 38.5466 16.8477C38.0866 17.1377 38.3665 16.5877 38.2565 16.4077L38.5566 16.3076C38.3466 16.0176 38.8166 15.1077 38.2066 15.1777L37.9666 15.7178C37.5366 15.5478 37.7966 14.7177 37.1066 14.8877C37.1166 15.2177 37.7166 15.3075 37.1566 15.7375C36.8566 15.9575 36.6766 15.6975 36.7066 15.4875C36.8666 14.5675 35.3666 15.1276 35.8466 14.0576Z" fill="#263682"/>
<path d="M35.4066 15.4876C35.7566 15.8776 36.3666 15.0677 36.6066 15.5177C36.2666 15.6977 36.1765 16.0876 36.2565 16.2376C36.5265 16.2276 36.5265 16.4777 36.6265 16.5777C36.6265 16.6977 36.2565 16.9777 36.1265 16.8277C36.4365 16.0077 35.1166 16.2876 35.4066 15.4876Z" fill="#263682"/>
<path d="M37.1566 16.2476C37.2966 16.3476 37.3666 16.7877 36.9767 17.0977C36.9566 17.1377 36.7367 17.2676 36.8667 17.2876C36.8967 17.0676 36.6666 16.6976 37.1566 16.2476Z" fill="#263682"/>
<path d="M38.0166 15.8377C38.2866 15.5777 38.1767 15.8878 38.2067 15.9278L38.1466 16.1077C38.0166 16.0877 37.9066 16.0277 38.0166 15.8377Z" fill="#263682"/>
<path d="M38.0266 17.6477C38.0566 17.9277 37.4966 17.7476 37.6266 18.0076L37.4867 17.9077L37.9066 17.5076L38.0266 17.6477Z" fill="#263682"/>
<path d="M37.8466 18.2575C37.9866 18.2275 38.0666 18.2577 38.0566 18.4277L37.8466 18.5075C37.7566 18.5175 37.9166 18.3275 37.8466 18.2575Z" fill="#263682"/>
<path d="M38.6866 17.1978C38.8666 17.2078 38.6266 17.3776 38.5766 17.5076C38.4166 17.5776 38.5766 17.1378 38.6866 17.1978Z" fill="#263682"/>
<path d="M42.1466 15.9578C41.7166 16.1578 41.7966 15.8175 41.5566 15.7375C41.7966 15.8075 42.0466 15.7278 42.1466 15.9578Z" fill="#263682"/>
<path d="M31.9867 11.7576C32.0467 11.5776 31.8767 11.5677 31.7267 11.5977L31.6266 11.7376L31.9867 11.7576Z" fill="#263682"/>
<path d="M32.6866 13.0276C33.1866 12.7776 32.8666 12.7877 33.0566 12.3877C32.9766 12.1177 32.4667 12.1678 32.3267 11.9478L31.9867 12.0076C32.0267 12.3676 32.2366 12.8976 32.6866 13.0276Z" fill="#263682"/>
<path d="M30.1766 9.94783C30.3966 10.1978 30.3467 10.8178 31.1167 10.6778C31.0967 10.4778 31.2266 10.3677 31.1466 10.0977C31.8366 9.80773 31.3167 10.4778 31.4767 10.6578C31.4767 10.4078 31.8766 10.4177 32.0166 10.5177C32.0666 10.8777 32.4267 11.2277 32.7167 11.5377C33.0367 11.5177 33.0867 12.2476 33.5767 11.7476C33.7867 11.9176 33.3866 12.2777 33.3866 12.5177C34.3966 12.4577 32.8366 14.2578 34.0066 14.1278C33.6566 14.3578 33.8966 14.5578 33.9366 14.6778C34.0766 14.8978 34.4267 15.4077 34.9567 14.8177C35.2667 14.3477 34.3667 14.5977 34.6067 14.0577C34.9767 13.1677 35.1667 14.2477 35.7267 13.8177C35.5867 13.8477 36.0467 13.4278 35.7467 13.4078C36.2767 13.5578 36.2467 12.7878 36.7267 12.6978C36.7467 12.0378 36.7767 12.0677 37.3267 11.3177C37.0267 11.1677 36.5866 11.6176 36.2666 11.7576C35.7866 11.7176 36.2667 11.0178 35.9467 10.9078C36.9367 10.3978 36.3167 10.0177 36.0967 9.76766C35.8767 9.39766 35.2466 10.2477 35.0366 9.83772C35.3066 9.33772 35.8666 9.76782 36.1266 9.18782L35.8267 9.15779C35.4067 9.31779 34.9167 9.56776 34.5767 9.62776C34.5167 9.55776 34.4166 9.44773 34.5466 9.34773C34.8066 9.38773 35.0966 9.08768 35.1566 8.78768C34.9666 8.81768 34.9166 8.82778 34.7566 8.89778C34.0666 9.92778 34.4567 8.62772 33.7467 8.83772C32.4967 8.81772 34.5867 7.65775 33.7067 7.36775C33.0467 8.18775 32.9666 7.29773 32.5066 7.33773C32.3966 7.14773 32.5767 6.91774 32.7367 6.59773C32.6167 6.61773 32.4666 6.52776 32.2966 6.62776C31.2966 7.56776 30.5867 8.75785 30.0867 9.96785C30.1267 9.96785 30.1566 9.96783 30.1766 9.94783Z" fill="#263682"/>
<path d="M42.1666 11.8977C42.2566 12.0077 42.0966 12.1677 41.7666 12.1277L41.5566 12.1377C41.5966 12.0477 41.6266 11.6977 42.1666 11.8977Z" fill="#263682"/>
<path d="M46.8266 12.1477L46.9066 12.1177C46.8266 12.1477 46.7866 12.1975 46.7866 12.2375C46.6166 12.2375 46.4466 12.1577 46.5266 12.0977C46.6566 12.1077 46.6566 12.1777 46.8266 12.1477Z" fill="#263682"/>
<path d="M43.2966 13.7275C43.7966 13.7775 44.5366 13.6976 45.0266 13.5776L45.8566 13.6677C45.4466 13.7577 45.6666 13.9877 45.6766 14.1577C45.8466 14.2277 45.9566 14.0177 46.1366 14.1877C46.0166 14.1977 45.8066 14.1778 45.7266 14.2078C45.9466 14.3678 46.6066 14.3177 46.4066 14.6377L45.9967 14.7275C45.9867 15.2875 46.6366 15.9077 46.2066 16.4277C46.6266 16.5477 46.4766 16.8075 46.7266 16.9875L46.4766 16.9775C46.8966 17.0975 46.3666 17.2277 46.4166 17.3477L46.1766 17.4377C45.7666 17.4577 45.9965 17.1277 45.3765 17.1877C45.0165 17.3977 45.9367 17.5976 45.4867 17.7676C45.3667 17.9476 45.6566 17.9476 45.7866 18.0676C46.0366 18.1076 46.0366 18.0376 46.3266 18.0676C46.4766 18.4976 45.1467 18.4576 45.2467 18.8376C45.4567 18.8576 45.9666 19.1877 46.2866 18.9177L46.0266 18.7676L46.3166 18.6877C46.3166 18.7877 46.2866 18.9778 46.5766 18.9678C45.6266 19.0578 47.4366 19.7177 46.0166 19.3577C46.2566 19.1977 46.2166 19.1376 45.8366 19.0076C45.7266 19.3976 45.3366 19.7276 45.3066 20.0476L45.7266 20.1677C45.3166 20.1577 45.0266 20.2978 44.9066 20.4478C44.9966 20.5178 44.9566 20.6076 45.1666 20.5876C45.4166 20.6276 45.3466 20.0277 46.0666 20.3477C45.8766 20.6977 45.4767 21.0676 44.8667 21.2676C44.7767 21.0976 44.8966 20.9776 44.3466 20.7676C43.8166 20.1376 44.2866 19.4977 43.6366 18.8777C43.9266 18.8677 44.0466 18.7176 44.3366 18.7776C44.5366 18.7376 44.3267 18.5676 44.7367 18.5476C44.3367 18.0776 44.6066 17.5477 44.6666 17.1477C43.9266 17.2277 44.1966 16.8776 43.8966 16.7476C44.2266 16.6576 44.0866 16.4676 44.0866 16.3276C43.9566 16.3076 43.9166 16.2175 43.7066 16.2275C43.7966 16.3375 43.6266 16.3578 43.5566 16.4578C43.0166 16.3878 43.5865 16.2376 43.6265 16.0876L43.9166 16.1777C43.9466 15.9177 44.8865 15.6577 44.3765 15.4077L43.8466 15.5776C43.6266 15.2776 44.3566 14.9578 43.7266 14.7178C43.5266 14.8978 43.9166 15.2378 43.2066 15.1978C42.8366 15.1678 42.8666 14.9477 43.0266 14.8477C43.7466 14.4977 42.2366 14.0675 43.2966 13.7275Z" fill="#263682"/>
<path d="M42.0366 14.2876C42.0566 14.6676 43.0466 14.5277 42.9366 14.8777C42.5566 14.8177 42.2367 14.9777 42.1967 15.0977C42.4067 15.2277 42.2466 15.3578 42.2566 15.4578C42.1766 15.5278 41.7167 15.4877 41.7167 15.3577C42.4867 15.0577 41.3066 14.5776 42.0366 14.2876Z" fill="#263682"/>
<path d="M42.8865 15.5276C42.9365 15.6476 42.6966 15.9177 42.1966 15.8977C42.1566 15.9177 41.9066 15.8677 41.9866 15.9377C42.1566 15.8477 42.2265 15.5376 42.8865 15.5276Z" fill="#263682"/>
<path d="M43.8067 15.7276C44.1767 15.7176 43.8966 15.8378 43.8966 15.8678L43.7367 15.9278C43.6467 15.8578 43.5967 15.7776 43.8067 15.7276Z" fill="#263682"/>
<path d="M42.6466 16.6978C42.4866 16.8678 42.1767 16.4978 42.1067 16.6978L42.0566 16.5776L42.6366 16.5576L42.6466 16.6978Z" fill="#263682"/>
<path d="M42.1266 16.9377C42.2566 16.9977 42.2967 17.0477 42.1767 17.1277L41.9667 17.0676C41.8767 17.0376 42.1266 17.0077 42.1266 16.9377Z" fill="#263682"/>
<path d="M43.4466 16.7775C43.5766 16.8675 43.2866 16.8376 43.1666 16.8876C42.9866 16.8476 43.3966 16.6875 43.4466 16.7775Z" fill="#263682"/>
<path d="M46.8866 17.7776C46.4266 17.6776 46.7067 17.5277 46.5767 17.3777C46.7067 17.5277 46.9666 17.6076 46.8866 17.7776Z" fill="#263682"/>
<path d="M41.8167 10.6377C41.9767 10.5777 41.8467 10.4877 41.7267 10.4277L41.5667 10.4578L41.8167 10.6377Z" fill="#263682"/>
<path d="M41.5366 11.6577C42.0766 11.7577 41.8267 11.6175 42.2367 11.4875C42.3567 11.3075 41.9266 11.0877 41.9566 10.8977L41.6566 10.7676C41.4666 10.9876 41.2766 11.3777 41.5366 11.6577Z" fill="#263682"/>
<path d="M41.6067 8.80762C41.6167 9.04762 41.1767 9.35771 41.8567 9.65771C41.9767 9.53771 42.1366 9.54768 42.2566 9.36768C42.9666 9.54768 42.1466 9.65764 42.1566 9.82764C42.3166 9.69764 42.6166 9.89758 42.6666 10.0176C42.4666 10.2376 42.5266 10.5977 42.5466 10.9077C42.8066 11.0477 42.3667 11.4677 43.0667 11.4377C43.1167 11.6277 42.5766 11.6276 42.4166 11.7576C43.2266 12.2076 40.8767 12.4277 41.8467 12.9177C41.4267 12.8677 41.4867 13.0977 41.4467 13.1777C41.4167 13.3677 41.3566 13.8076 42.1366 13.7476C42.6666 13.6476 41.8267 13.3477 42.3567 13.1777C43.2167 12.8777 42.6667 13.5476 43.3667 13.5876C43.2367 13.5276 43.8666 13.5377 43.6466 13.3777C43.9566 13.7077 44.4267 13.2878 44.8567 13.4678C45.2967 13.1178 45.2967 13.1576 46.2067 13.0176C46.0667 12.7876 45.4467 12.8176 45.1167 12.7476C44.7767 12.4976 45.5966 12.3577 45.4166 12.1377C46.5066 12.3477 46.2766 11.8377 46.2566 11.5977C46.3266 11.2877 45.2966 11.4477 45.4066 11.1277C45.9366 10.9877 46.0866 11.4876 46.6566 11.3076L46.4467 11.1477C46.0267 11.0277 45.4867 10.9276 45.1867 10.7976C45.1867 10.7276 45.1767 10.6277 45.3467 10.6277C45.5167 10.7677 45.9366 10.7477 46.1766 10.6177C46.0066 10.5477 45.9666 10.5275 45.7966 10.4875C44.6066 10.7075 45.7467 10.1978 45.0667 9.96777C44.1267 9.35777 46.4667 9.73771 45.9767 9.15771C44.9467 9.27771 45.4567 8.76763 45.0767 8.56763C45.1067 8.41763 45.3967 8.36759 45.7267 8.27759C45.6167 8.22759 45.5667 8.10764 45.3667 8.07764C43.9967 8.09764 42.6866 8.39761 41.5266 8.79761C41.5566 8.78761 41.5767 8.80762 41.6067 8.80762Z" fill="#263682"/>
<path d="M71.9066 18.6377C71.9666 17.9877 72.2667 16.9077 72.5767 17.1377L72.7966 17.0276C72.7366 17.3076 72.6266 18.0376 72.4366 18.5276C72.2566 19.0176 72.0566 19.2677 71.9066 18.6377Z" fill="#F29994"/>
<path d="M67.3766 17.5176L67.2666 17.6777C67.3766 17.5177 67.4667 17.2777 67.4967 17.1077C67.6667 17.1177 67.7667 17.4776 67.6167 17.8076C67.5067 17.7076 67.5766 17.3676 67.3766 17.5176Z" fill="#F29994"/>
<path d="M69.5066 7.81763C69.2466 7.86763 69.0566 8.13756 68.8866 8.49756C68.8066 8.67756 68.7366 8.88767 68.6766 9.10767C68.6166 9.32767 68.5766 9.54759 68.5266 9.77759C68.2266 9.79759 67.9466 9.80766 67.6466 9.84766C67.6766 9.68766 67.6567 9.49762 67.6067 9.30762C67.5767 9.20762 67.5467 9.10758 67.4967 9.01758C67.4467 8.91758 67.3967 8.82754 67.3367 8.72754C67.1167 8.32754 66.7666 7.95767 66.5166 7.60767C66.3366 7.52767 66.4166 7.72769 66.4366 7.87769C66.4466 7.95769 66.4466 8.01759 66.4066 8.02759C66.3866 8.02759 66.3566 8.01755 66.3066 7.98755C66.2666 7.95755 66.2067 7.90766 66.1167 7.84766C66.1567 7.69766 66.3667 7.62774 66.3167 7.43774C65.9866 7.20774 65.7766 7.27757 65.5166 7.25757C65.2466 7.23757 64.9967 7.08757 64.4767 6.50757L64.4467 6.34766L64.3267 5.86768C63.7967 5.43768 63.1766 5.12769 62.5566 4.87769C62.2366 4.77769 61.9267 4.65767 61.6067 4.60767L61.3667 4.55762C61.2867 4.53762 61.2066 4.51758 61.1266 4.51758C60.9666 4.49758 60.8066 4.47776 60.6566 4.45776C59.3966 4.33776 58.2466 4.51754 57.0466 4.72754C56.9166 4.99754 56.5667 5.20777 56.1967 5.46777C55.8267 5.71777 55.4267 6.01765 55.2067 6.33765L55.0466 6.14771C54.9966 6.44771 54.7567 6.59757 54.4767 6.75757C54.1967 6.90757 53.8767 7.05759 53.6967 7.27759C53.5167 7.33759 53.3466 7.41755 53.1766 7.48755C52.9566 7.42755 53.1667 7.10763 53.3567 6.81763C53.5367 6.51763 53.7066 6.23773 53.3167 6.17773C52.7667 6.45773 52.5267 6.94771 52.3367 7.39771C52.1367 7.85771 51.9866 8.27765 51.5266 8.58765C51.3666 8.77765 51.2767 8.92762 51.2167 9.05762C51.1567 9.18762 51.1366 9.27769 51.1266 9.37769C51.1066 9.56769 51.1467 9.71758 51.0667 10.0176C51.2267 10.2676 51.3767 9.95771 51.6067 10.1477C51.4067 10.6277 51.2067 10.9675 50.9867 11.2375C50.7667 11.5075 50.5466 11.7177 50.3167 11.9177C50.0966 12.1277 49.8767 12.3277 49.6967 12.6177C49.5267 12.9077 49.3566 13.2676 49.3066 13.7776C49.4066 13.8376 49.4966 14.2776 49.6666 14.5276C49.7466 14.6476 49.8367 14.7277 49.9467 14.6877C50.0567 14.6477 50.1566 14.4777 50.2966 14.1477C50.2566 13.9077 50.1966 13.6677 50.1666 13.4277L50.5466 13.0476C50.4166 13.5476 50.2466 14.4977 50.5466 14.4277C50.2866 14.5577 50.1866 14.8578 50.1566 15.2078C50.1366 15.5578 50.1966 15.9576 50.2566 16.2776C50.3166 16.6076 50.3767 16.8577 50.3267 16.9377C50.2767 17.0177 50.1266 16.9176 49.7866 16.5276C49.9166 16.0676 50.0067 15.7876 49.9967 15.5276C49.9867 15.2676 49.9166 15.0475 49.7566 14.7275C49.5666 15.7475 49.3866 16.7278 49.2766 17.6978C49.1666 18.6578 49.0966 19.5976 49.1666 20.4976C49.3166 20.6676 49.4766 20.8275 49.6366 20.9875C49.4366 21.0275 49.2766 21.2677 49.1766 21.6177C49.0766 21.9677 49.0366 22.4177 49.0366 22.8577C49.1766 23.2277 49.2066 23.7076 49.3966 23.5676C49.5366 23.6376 49.4567 22.8378 49.4867 22.2078C49.5167 21.5778 49.6267 21.1277 50.0767 21.8577C50.1167 23.8577 50.1167 26.0776 49.7367 27.4976C49.4767 26.5476 49.4766 25.8477 48.7666 24.9177C48.2266 23.2377 47.9667 21.4377 47.8267 19.6377C47.7567 18.7377 47.7266 17.8478 47.6766 16.9578C47.6666 16.7378 47.6666 16.5176 47.6566 16.2976L47.6366 15.9678L47.6266 15.6377C47.6066 15.1977 47.5867 14.7576 47.5667 14.3276C47.8567 14.2376 48.1266 13.3778 48.3766 13.6978C48.5066 13.5678 48.5466 13.2776 48.6366 13.0176C48.7166 12.7476 48.8266 12.4978 49.0566 12.4478C49.1566 11.1878 49.6367 9.86776 50.3267 8.70776C51.0067 7.54776 51.8867 6.5576 52.7067 5.7876C52.2267 5.7476 52.3767 5.41758 52.7167 5.01758C53.0567 4.61758 53.5966 4.18769 53.7866 3.87769C54.1366 3.82769 54.5166 3.64774 54.8966 3.43774C55.2866 3.23774 55.6866 2.99767 56.0566 2.85767C56.0866 2.69767 56.5467 2.49765 56.3667 2.33765C55.8267 2.61765 55.5767 2.55758 54.9767 2.76758C54.9767 2.61758 55.0466 2.49772 55.1766 2.41772C55.3066 2.32772 55.4967 2.26754 55.7067 2.22754C56.1367 2.13754 56.6667 2.11758 57.1167 2.01758C56.9767 2.14758 56.8567 2.29773 56.7367 2.42773C57.4667 2.21773 58.3267 2.30776 59.0967 2.45776C59.2867 2.49776 59.4766 2.53764 59.6666 2.57764C59.7566 2.59764 59.8466 2.60768 59.9366 2.61768C60.0266 2.63768 60.1167 2.65772 60.2067 2.66772C60.3867 2.69772 60.5567 2.70776 60.7267 2.70776C60.8967 2.70776 61.0667 2.70773 61.2367 2.67773L60.9967 2.48755L60.8667 2.39771L60.7367 2.31763C60.5667 2.20763 60.3867 2.09755 60.1967 1.98755C60.4067 1.98755 60.6267 1.99758 60.8567 2.01758C61.0767 2.04758 61.2966 2.11772 61.5166 2.16772L61.8467 2.26758L62.1666 2.39771C62.3766 2.48771 62.5866 2.56772 62.7866 2.66772C63.1766 2.87772 63.5666 3.04754 63.9166 3.22754C64.0966 3.30754 64.2767 3.37773 64.4567 3.42773C64.6267 3.48773 64.7967 3.53762 64.9767 3.55762C64.8667 3.45762 64.7467 3.35758 64.6167 3.26758C64.4867 3.17758 64.3366 3.09758 64.1866 3.01758C64.0366 2.93758 63.8867 2.85759 63.7367 2.77759C63.5867 2.70759 63.4366 2.64764 63.2866 2.57764C63.1466 2.51764 63.0166 2.4477 62.8966 2.3877C62.7866 2.3177 62.6767 2.27776 62.5967 2.20776C62.4367 2.08776 62.3566 1.94759 62.4166 1.77759C62.4566 1.69759 62.5767 1.65771 62.7467 1.65771C62.9067 1.65771 63.1167 1.69759 63.3267 1.77759C63.5367 1.85759 63.7667 1.95763 63.9667 2.06763C64.1667 2.17763 64.3367 2.31773 64.4667 2.42773C64.6067 2.55773 64.7466 2.66759 64.8766 2.77759C65.0066 2.89759 65.1366 3.00767 65.2766 3.10767C65.4066 3.21767 65.5466 3.30771 65.6766 3.40771C65.8066 3.50771 65.9367 3.60775 66.0667 3.69775C66.1966 3.78775 66.3267 3.87777 66.4567 3.96777C66.5867 4.05777 66.7067 4.15756 66.8367 4.24756C67.0867 4.42756 67.3467 4.60762 67.5767 4.80762C68.0667 5.18762 68.4967 5.61767 68.8467 6.10767C69.0167 6.35767 69.1566 6.62771 69.2766 6.90771C69.3966 7.17771 69.4666 7.48763 69.5066 7.81763Z" fill="#F29994"/>
<path d="M68.1067 3.8978C67.8767 3.6778 67.6667 3.5178 67.4967 3.3978C67.3167 3.2778 67.1766 3.1878 67.0366 3.1478C66.7566 3.0478 66.5666 3.04771 66.3766 3.05771C65.9966 3.06771 65.6566 3.06783 64.6966 2.43783C64.9166 2.34784 64.8266 2.08771 64.5666 1.80771C64.3266 1.50771 63.8866 1.24771 63.5166 1.05771C63.3166 1.02771 63.1066 0.997845 62.8966 0.947845C62.6866 0.897845 62.4866 0.827669 62.2866 0.767669C61.8766 0.657669 61.4766 0.52763 61.1266 0.47763C60.8966 0.40763 60.8066 0.267796 60.8966 0.147796C60.9866 0.0377958 61.2766 -0.0623019 61.7566 0.0476981C62.3166 0.347698 62.8967 0.607737 63.4967 0.837737C63.7867 0.967737 64.0966 1.08784 64.4066 1.19784C64.7066 1.32784 65.0066 1.45774 65.3066 1.58774C66.4866 2.11774 67.5967 2.8778 68.1067 3.8978Z" fill="#F29994"/>
<path d="M60.7566 1.03771C60.5566 1.02771 60.3066 0.987866 60.0266 0.947866C59.7466 0.917866 59.4466 0.877739 59.1566 0.817739C59.0166 0.787739 58.8767 0.757661 58.7467 0.737661C58.6167 0.707661 58.5066 0.677807 58.3966 0.637807C58.1966 0.567807 58.0466 0.477778 58.0166 0.357778C57.8866 0.337778 58.0667 0.0478757 57.6067 0.207876C57.9867 0.227876 58.7166 0.177739 59.3866 0.317739C60.0766 0.427739 60.6566 0.69771 60.7566 1.03771Z" fill="#F29994"/>
<path d="M59.7067 1.8877C59.8267 2.2677 59.1166 1.96755 58.9066 1.98755C58.7666 1.94755 58.6167 1.89767 58.4767 1.85767C58.6767 1.79767 58.8967 1.73755 59.1167 1.73755C59.3367 1.73755 59.5467 1.7777 59.7067 1.8877Z" fill="#F29994"/>
<path d="M53.3467 2.6377C52.8467 2.8877 53.0166 2.6277 53.1766 2.3877C53.3466 2.1577 53.5066 1.9276 52.9066 2.2876C53.1166 2.1176 53.3366 1.96763 53.5566 1.81763C53.7366 1.93763 53.9167 2.05773 54.0967 2.17773C53.8367 2.31773 53.5867 2.4777 53.3467 2.6377Z" fill="#F29994"/>
<path d="M51.6466 3.27759C51.4866 3.58759 51.2666 3.83772 50.7866 4.16772C50.8066 4.04772 50.8367 3.91761 50.8567 3.79761C50.9567 3.56761 51.3166 3.56759 51.6466 3.27759Z" fill="#F29994"/>
<path d="M53.5867 3.42781C53.4167 3.62781 53.3067 3.65778 53.1967 3.64778C53.0867 3.63778 52.9766 3.59778 52.8066 3.64778C52.8366 3.52778 53.1267 3.36769 53.3667 3.30769C53.6067 3.24769 53.7867 3.26781 53.5867 3.42781Z" fill="#F29994"/>
<path d="M52.9366 8.96777C52.8466 8.68777 52.9766 8.42772 53.1766 8.16772C53.3766 7.90772 53.6367 7.65767 53.8267 7.35767C53.6267 7.65767 53.5466 7.91772 53.4266 8.16772C53.3766 8.28772 53.3167 8.41761 53.2367 8.54761C53.1667 8.67761 53.0667 8.80777 52.9366 8.96777Z" fill="#F29994"/>
<path d="M69.3267 26.0876C68.9567 26.3876 68.7867 26.9075 68.7267 27.2275L68.9967 27.1277C69.1067 26.7977 69.2167 26.4376 69.3267 26.0876Z" fill="#F29994"/>
<path d="M72.1967 20.1276C71.9967 19.8076 71.9066 19.8876 71.7766 20.1276C71.6466 20.3676 71.4866 20.7876 71.1466 21.1476C71.0166 21.4176 70.9267 21.7074 70.8367 21.9974C70.7467 22.2874 70.6667 22.5876 70.5967 22.8876C70.4367 23.4776 70.2667 24.0875 69.9767 24.6075C69.9567 24.8675 69.9266 25.1376 69.8966 25.3976C70.3366 24.8176 70.8666 23.9574 71.3066 23.0074C71.7566 22.0674 72.0767 21.0076 72.1967 20.1276Z" fill="#F29994"/>
<path d="M62.3567 34.8576C62.8667 34.3576 63.5467 33.8277 64.1867 33.2077C64.8167 32.5877 65.3967 31.8675 65.6667 31.0375C65.0867 31.5175 64.9567 31.4176 64.0967 32.1776C64.1267 31.6176 64.4467 31.3175 64.8367 31.0475C65.2267 30.7775 65.7067 30.5476 66.0267 30.1376C65.6967 30.4076 65.6467 30.2875 65.7367 30.0175C65.8267 29.7575 66.0466 29.3475 66.2566 29.0475C66.7566 28.5775 67.3167 27.8775 67.8567 27.0975C68.3967 26.3175 68.9067 25.4075 69.3567 24.5675C69.3967 24.3575 69.5167 24.0574 69.6767 23.7374C69.8267 23.4074 69.9966 23.0477 70.1366 22.7177C70.2666 22.3777 70.3766 22.0676 70.3967 21.8475C70.4167 21.6275 70.3466 21.4975 70.1467 21.5275C70.3067 20.9775 70.5466 20.7174 70.7666 20.4774C70.8766 20.3574 70.9967 20.2576 71.1067 20.1276C71.2167 19.9976 71.3367 19.8476 71.4267 19.6476C71.4067 19.3076 71.4467 18.9876 71.4867 18.6776C71.5367 18.3676 71.6167 18.0775 71.7167 17.7875C71.8067 17.4975 71.9167 17.2076 72.0467 16.9176C72.1667 16.6276 72.2766 16.3275 72.3967 16.0275C72.5167 15.7275 72.6067 15.4175 72.6967 15.0975C72.7867 14.7775 72.8367 14.4476 72.8667 14.1076C72.8767 13.9376 72.8866 13.7675 72.8766 13.5975C72.8666 13.4275 72.8467 13.2475 72.8167 13.0775C72.7867 12.8975 72.7467 12.7275 72.6867 12.5475C72.6267 12.3675 72.5467 12.1975 72.4567 12.0175C72.6767 12.0775 72.7267 11.7375 72.6867 11.3075C72.6667 11.0875 72.6167 10.8576 72.5767 10.6376C72.5567 10.5276 72.5367 10.4175 72.5166 10.3275C72.4866 10.2275 72.4667 10.1375 72.4467 10.0675C72.3967 9.90752 72.3467 9.71746 72.2867 9.50746C72.2567 9.40746 72.2267 9.29764 72.1867 9.18764C72.1467 9.07764 72.1067 8.97756 72.0567 8.85756C71.9667 8.63756 71.8767 8.41765 71.7767 8.19765C71.6767 7.98765 71.5567 7.78755 71.4467 7.59755C71.3367 7.41755 71.2267 7.24756 71.1167 7.10756C70.9967 6.97756 70.8867 6.86751 70.7967 6.80751C70.5967 6.67751 70.4467 6.69764 70.3567 6.93764C70.3567 7.43764 70.7067 7.95753 71.0667 8.57753C71.2267 8.88753 71.4167 9.21752 71.5267 9.56752C71.6267 9.91752 71.6967 10.2776 71.6567 10.6276C71.5667 11.2176 71.4767 11.3575 71.3667 11.2675C71.3167 11.2175 71.2667 11.1177 71.2067 10.9677C71.1767 10.8977 71.1466 10.8174 71.1266 10.7274C71.0966 10.6374 71.0566 10.5476 71.0166 10.4476C70.9366 10.2476 70.8567 10.0375 70.7767 9.82753C70.6967 9.61753 70.5867 9.42746 70.4867 9.25746C70.3867 9.08746 70.2867 8.95757 70.1967 8.86757C70.1067 8.77757 70.0067 8.74748 69.9267 8.77748C70.0567 8.88748 69.9767 9.04747 69.9467 9.26747C69.9267 9.37747 69.9267 9.5076 69.9567 9.6476C69.9867 9.7876 70.0567 9.95761 70.1667 10.1576C70.0667 9.93761 69.9566 9.79766 69.8766 9.70766C69.7966 9.61766 69.7367 9.58754 69.6867 9.58754C69.5867 9.59754 69.5368 9.74763 69.4967 9.92763C69.4567 10.1076 69.4067 10.3076 69.3267 10.4176C69.2467 10.5276 69.1367 10.5476 68.9767 10.3676C69.0767 11.3776 69.0267 11.8376 68.9367 12.1776C68.8767 12.3476 68.7967 12.4976 68.6867 12.6576C68.5767 12.8276 68.4467 13.0075 68.2367 13.2675C68.2967 13.5375 68.3767 13.7175 68.4667 13.8475C68.5567 13.9775 68.6566 14.0475 68.7666 14.0975C68.9866 14.1975 69.2267 14.1876 69.3967 14.3576C69.4967 14.6776 69.4967 14.9775 69.4667 15.2675C69.4367 15.5575 69.3467 15.8375 69.2467 16.0975C69.1967 16.2276 69.1567 16.3574 69.1067 16.4874C69.0567 16.6174 69.0067 16.7476 68.9667 16.8676C68.9267 16.9976 68.8867 17.1275 68.8667 17.2575C68.8467 17.3875 68.8167 17.5176 68.8167 17.6576C68.5867 17.3976 68.3968 17.3775 68.2467 17.4975C68.1667 17.5575 68.0967 17.6575 68.0367 17.7775C67.9767 17.8975 67.9167 18.0477 67.8567 18.2077C67.6367 18.8677 67.3967 19.7876 67.1867 20.3776C66.8567 21.1176 67.0267 21.3375 67.1767 21.5775C67.2567 21.6975 67.3267 21.8175 67.3267 22.0075C67.3267 22.1975 67.2667 22.4675 67.0367 22.8475C66.5967 23.1275 66.6567 22.6376 66.6767 22.1976C66.6867 21.7476 66.6667 21.3474 66.1867 21.7374C66.1467 22.0074 66.0867 22.2675 66.0367 22.5375C66.1167 22.8575 66.2067 23.1775 66.2867 23.5075C66.3267 23.6675 66.3566 23.8375 66.3766 24.0075C66.3966 24.1775 66.3966 24.3475 66.3766 24.5175C66.1866 24.8475 65.8767 25.3274 65.7267 25.2474C65.9967 24.5275 65.5067 24.5075 64.8967 25.0075C64.8466 25.3975 64.8167 25.4974 64.8567 25.7374C65.7867 25.4574 65.5667 25.7876 65.0967 26.3676C64.6267 26.9376 63.8867 27.6975 63.7867 28.3275C63.1067 29.8675 62.5267 29.9377 61.9667 29.9577C61.3867 29.9777 60.7967 29.9477 59.8567 31.2177C60.5567 31.2477 60.2866 31.7075 59.7566 32.2775C59.2366 32.8575 58.4567 33.5275 58.1967 34.0275C57.5167 34.5975 57.0867 34.6075 56.4167 34.7775C56.3067 35.0275 55.8366 35.5274 55.8866 35.7374C56.5266 36.0874 57.4467 36.1575 58.5567 36.0275C59.6667 35.8875 60.9567 35.5375 62.3567 34.9975C62.3467 34.9475 62.3767 34.8776 62.3567 34.8576Z" fill="#F29994"/>
<path d="M73.3667 68.5076C73.5667 68.4876 73.8066 68.4876 74.0366 68.4776C74.2766 68.4676 74.5167 68.4776 74.7267 68.4976C75.1467 68.5476 75.4567 68.6176 75.3567 68.7976L75.5466 68.9776C75.4566 68.9876 75.3366 68.9976 75.1866 69.0176C75.0366 69.0176 74.8666 69.0276 74.6966 69.0376C74.3366 69.0476 73.9466 69.0576 73.6266 69.0076C72.9966 68.9276 72.6467 68.7776 73.3667 68.5076Z" fill="#F29994"/>
<path d="M73.5566 63.8477L73.3567 63.7676C73.5567 63.8476 73.8466 63.8977 74.0366 63.8677C74.0466 63.9477 73.9667 64.0377 73.8267 64.1077C73.6867 64.1577 73.4866 64.1777 73.2866 64.1377C73.3766 64.0177 73.7666 64.0177 73.5566 63.8477Z" fill="#F29994"/>
<path d="M84.4166 61.3276C84.2466 61.1176 83.9067 61.0977 83.4767 61.1877C83.2667 61.2277 83.0366 61.2977 82.7966 61.3777C82.6766 61.4177 82.5566 61.4676 82.4366 61.5076C82.3166 61.5576 82.1967 61.6077 82.0767 61.6577C81.9267 61.3877 81.7866 61.1377 81.6266 60.8777C81.9766 60.7377 82.3167 60.3577 82.5767 59.8677C82.8367 59.3877 83.0467 58.8176 83.2267 58.3276C83.2167 58.1076 83.0666 58.3077 82.9366 58.4277C82.8066 58.5477 82.7167 58.5977 82.8167 58.1077C82.9667 58.0477 83.1366 58.1976 83.2866 58.0276C83.3166 57.7976 83.2767 57.6276 83.2267 57.4976C83.1767 57.3576 83.1067 57.2477 83.0667 57.1177C82.9566 56.8377 82.9667 56.4776 83.2167 55.5476C83.3767 55.3576 83.5567 55.1678 83.7067 54.9578C83.8967 53.2578 83.5767 51.4978 82.9867 49.9478C82.9067 49.7578 82.8366 49.5577 82.7566 49.3777L82.6366 49.0977L82.5066 48.8176C82.4266 48.6376 82.3167 48.4476 82.2267 48.2676C82.1267 48.0876 82.0467 47.8978 81.9467 47.7178C81.5367 47.0078 81.1367 46.2977 80.7067 45.5977C80.5367 45.5477 80.3566 45.4276 80.1566 45.2676C79.9466 45.1176 79.7366 44.9178 79.5166 44.7178C79.0566 44.3178 78.5567 43.8777 78.0867 43.6677L78.2267 43.4578C78.0467 43.4478 77.8967 43.3676 77.7467 43.2676C77.5967 43.1676 77.4466 43.0277 77.3066 42.8777C77.0366 42.5677 76.7266 42.2476 76.4166 42.0576C76.2866 41.8676 76.1367 41.6976 75.9867 41.5076C75.9867 41.3876 76.0966 41.3777 76.2566 41.4177C76.3366 41.4377 76.4266 41.4676 76.5266 41.5076C76.6266 41.5476 76.7267 41.5977 76.8267 41.6477C77.2267 41.8277 77.6166 41.9676 77.5366 41.5476C77.2766 41.2776 77.0067 41.0677 76.7167 40.9277C76.4267 40.7877 76.1267 40.6977 75.8367 40.5977C75.2467 40.4377 74.7067 40.2776 74.2267 39.8376C73.6967 39.5276 73.4167 39.4875 73.1967 39.4775C72.9667 39.4775 72.7966 39.5078 72.4166 39.4578C72.1566 39.6378 72.5666 39.7676 72.3866 40.0176C72.0666 39.9376 71.7966 39.8375 71.5566 39.7375C71.3166 39.6275 71.0966 39.5477 70.9166 39.4377C70.7266 39.3377 70.5566 39.2277 70.3966 39.1077C70.2366 39.0077 70.0867 38.8976 69.9467 38.7876C69.7967 38.6776 69.6567 38.5678 69.4967 38.4678C69.3367 38.3678 69.1667 38.2777 68.9767 38.1877C68.7867 38.1077 68.5767 38.0278 68.3467 37.9578C68.1067 37.9078 67.8366 37.8676 67.5366 37.8376C67.5066 37.8876 67.3666 37.9376 67.1866 38.0076C67.0166 38.0776 66.8066 38.1576 66.6666 38.2476C66.3866 38.4276 66.3467 38.6277 67.2067 38.8477L68.0667 38.6877C68.2467 38.7977 68.4167 38.9276 68.5867 39.0476C67.9567 38.9476 66.7666 38.8077 66.8766 39.1077C66.6866 38.8577 66.3066 38.7576 65.8766 38.7576C65.4466 38.7576 64.9667 38.8277 64.5767 38.9177C64.1867 38.9977 63.8766 39.0576 63.7866 39.0276C63.6866 38.9876 63.7967 38.8178 64.2467 38.4678C64.5267 38.5278 64.7567 38.5676 64.9567 38.5876C65.1567 38.6176 65.3167 38.6277 65.4767 38.6177C65.7867 38.5977 66.0566 38.4976 66.4266 38.3376C65.1666 38.2076 63.9566 38.0876 62.7866 38.0476C61.6166 38.0176 60.4966 38.0378 59.4266 38.1978C59.2366 38.3678 59.0567 38.5478 58.8667 38.7178C58.8067 38.5178 58.5067 38.3876 58.0867 38.3276C57.6667 38.2776 57.1267 38.2777 56.6067 38.3477C56.1867 38.5377 55.6166 38.6376 55.7966 38.8076C55.7666 38.8776 55.9766 38.8676 56.2966 38.8376C56.6166 38.8076 57.0266 38.7378 57.4066 38.7178C58.1466 38.6678 58.6867 38.7176 57.8567 39.2676C55.4967 39.5476 52.9466 39.9277 51.2666 39.8577C51.7966 39.6377 52.2667 39.4776 52.7267 39.2776C52.9567 39.1776 53.1866 39.0677 53.4266 38.9177C53.6666 38.7777 53.9066 38.6077 54.1666 38.3877C56.0866 37.5577 58.2267 37.0876 60.3567 36.7676C62.4967 36.4676 64.6166 36.3177 66.6866 36.1477C66.7566 36.2977 67.0466 36.4176 67.2866 36.5376C67.5266 36.6576 67.6966 36.7877 67.5266 36.9177C67.6966 37.0377 68.0466 37.0777 68.3766 37.1377C68.7066 37.2077 69.0167 37.3076 69.1167 37.5376C70.6467 37.5876 72.2866 37.9877 73.7966 38.6077C75.3066 39.2277 76.6666 40.0577 77.7866 40.8477C77.7266 40.5877 77.8067 40.4876 77.9667 40.4976C78.0467 40.4976 78.1466 40.5276 78.2666 40.5776C78.3266 40.5976 78.3867 40.6277 78.4467 40.6577C78.5067 40.6877 78.5766 40.7276 78.6366 40.7676C78.9066 40.9276 79.2067 41.1276 79.4867 41.3076C79.7567 41.4976 80.0167 41.6675 80.2167 41.7375C80.2567 41.8275 80.3166 41.9176 80.3766 42.0076C80.4366 42.0976 80.5067 42.1976 80.5767 42.2876C80.7267 42.4776 80.9067 42.6677 81.0867 42.8477C81.2667 43.0377 81.4566 43.2377 81.6366 43.4277C81.8166 43.6177 82.0066 43.7976 82.1466 43.9875C82.3066 43.9875 82.7166 44.4177 82.7866 44.1877C82.5266 43.9377 82.3966 43.7376 82.2766 43.5176C82.1466 43.3076 82.0166 43.0876 81.7966 42.7876C81.9466 42.7476 82.0867 42.8077 82.2267 42.9277C82.2967 42.9877 82.3666 43.0577 82.4366 43.1477C82.4666 43.1877 82.5066 43.2376 82.5366 43.2876C82.5666 43.3376 82.5966 43.3878 82.6266 43.4478C82.8766 43.8878 83.1366 44.4377 83.4166 44.9077L82.8567 44.6077C82.9767 44.7977 83.0967 44.9878 83.2067 45.1978C83.3167 45.4078 83.4267 45.6176 83.4967 45.8376C83.6567 46.2876 83.8266 46.7378 83.9366 47.2078C84.2166 48.1178 84.4067 48.9677 84.8667 49.6477C84.8967 49.4077 84.9066 49.1777 84.9266 48.9277C84.9366 48.6877 84.9367 48.4478 84.9467 48.1978C85.4167 49.0978 85.5966 50.2376 85.6666 51.2876C85.7466 52.3376 85.7566 53.3076 86.0466 54.0676C86.1766 53.3876 86.0966 52.4776 86.0266 51.7576C85.9566 51.0276 85.9166 50.4677 86.2666 50.4177C86.3666 50.4177 86.4466 50.5177 86.5266 50.6877C86.5666 50.7677 86.6066 50.8675 86.6366 50.9775C86.6666 51.0875 86.6967 51.2076 86.7167 51.3376C86.8167 51.8576 86.8067 52.4677 86.7467 52.8577C86.5967 53.7077 86.5267 54.4775 86.4667 55.2375C86.4067 55.9875 86.3666 56.7177 86.2666 57.4377C86.1666 58.1577 86.0067 58.8576 85.7167 59.5176C85.4367 60.2276 85.0166 60.8376 84.4166 61.3276Z" fill="#F29994"/>
<path d="M87.3166 57.4177C87.4766 56.6977 87.4766 56.2277 87.4266 55.8977C87.3866 55.5677 87.2666 55.3777 87.1766 55.1977C87.0766 55.0177 86.9766 54.8376 86.9166 54.5376C86.8866 54.3876 86.8667 54.2075 86.8567 53.9875C86.8467 53.8775 86.8467 53.7477 86.8467 53.6177C86.8467 53.4777 86.8467 53.3277 86.8467 53.1577C87.0367 53.3277 87.2167 53.0777 87.3267 52.6577C87.3867 52.4477 87.4266 52.1977 87.4366 51.9477C87.4566 51.6877 87.4466 51.4277 87.4266 51.1977C87.2566 50.7677 87.1566 50.2876 87.0566 49.8076C86.9566 49.3376 86.8667 48.8675 86.7367 48.4875C86.6967 48.2175 86.7766 48.0576 86.9266 48.0976C87.0766 48.1376 87.2766 48.3777 87.4366 48.9077C87.4366 49.6177 87.5167 50.3176 87.6167 51.0376C87.7167 51.7576 87.8266 52.4976 87.8966 53.2476C87.9666 53.9876 87.9866 54.7478 87.9066 55.4578C87.8166 56.1678 87.6366 56.8477 87.3166 57.4177Z" fill="#F29994"/>
<path d="M86.0366 48.3777C85.8666 47.9677 85.6367 47.2577 85.4467 46.6377C85.2867 46.0077 85.1567 45.4576 85.3567 45.3076C85.3267 45.1676 85.6567 45.2476 85.3167 44.8376C85.3867 45.0376 85.5066 45.3177 85.6466 45.6277C85.7866 45.9477 85.8966 46.3177 86.0166 46.6777C86.1266 47.0277 86.1967 47.3978 86.2067 47.6978C86.2167 47.9978 86.1666 48.2477 86.0366 48.3777Z" fill="#F29994"/>
<path d="M84.7666 47.6577C84.4966 47.9477 84.3766 47.0577 84.2666 46.8477L84.2267 46.5876L84.1766 46.3376C84.3366 46.5176 84.4767 46.7475 84.5967 46.9775C84.6967 47.1975 84.7766 47.4377 84.7666 47.6577Z" fill="#F29994"/>
<path d="M81.3067 41.0476C80.8667 40.5676 81.1966 40.6976 81.5066 40.8176C81.7966 40.9576 82.0766 41.0676 81.5266 40.5176C81.7666 40.6976 81.9867 40.9077 82.2167 41.0977C82.1567 41.3177 82.1067 41.5275 82.0467 41.7375L81.3067 41.0476Z" fill="#F29994"/>
<path d="M80.1167 39.3977C79.9267 39.3377 79.7567 39.2577 79.5667 39.1377C79.3766 39.0177 79.1666 38.8677 78.9266 38.6377L79.3467 38.6677C79.4767 38.6977 79.5666 38.8078 79.6766 38.9478C79.7766 39.0678 79.9067 39.2377 80.1167 39.3977Z" fill="#F29994"/>
<path d="M80.5667 41.4578C80.0266 41.1678 80.2867 41.0077 80.0667 40.6677C80.2066 40.6777 80.4567 40.9678 80.6067 41.2078C80.7667 41.4478 80.8167 41.6378 80.5667 41.4578Z" fill="#F29994"/>
<path d="M74.1466 41.3376C74.4566 41.2376 74.7966 41.3576 75.1666 41.5476C75.3466 41.6476 75.5367 41.7677 75.7267 41.8777C75.9167 41.9977 76.1267 42.0977 76.3367 42.1977C76.1267 42.0977 75.9366 42.0375 75.7566 41.9775C75.5766 41.9175 75.4167 41.8776 75.2467 41.8176C74.9267 41.7176 74.5866 41.6076 74.1466 41.3376Z" fill="#F29994"/>
<path d="M63.9567 66.1377C63.7567 65.9177 63.5067 65.7577 63.2467 65.6177C62.9967 65.4777 62.7466 65.3676 62.5466 65.3076L62.6967 65.6177C62.9067 65.7077 63.1067 65.8177 63.3267 65.8977L63.9567 66.1377Z" fill="#F29994"/>
<path d="M71.6266 69.0476C71.9666 68.8076 71.8566 68.7177 71.5366 68.6377C71.3766 68.5977 71.1666 68.5378 70.9266 68.4578C70.6866 68.3778 70.4166 68.2877 70.1666 68.1277C69.8066 68.0177 69.4467 67.9477 69.0767 67.8777C68.7067 67.7977 68.3367 67.7277 67.9567 67.6577C67.5867 67.5777 67.2167 67.4877 66.8467 67.3877C66.4767 67.2877 66.1366 67.1375 65.7966 66.9775C65.4766 66.9475 65.1667 66.8876 64.8467 66.8276C65.5867 67.3576 66.7066 67.9477 67.9366 68.3877C69.1566 68.8377 70.5166 69.0576 71.6266 69.0476Z" fill="#F29994"/>
<path d="M54.8367 55.5676C55.2267 56.3876 55.5966 57.4077 56.1566 58.3777C56.4166 58.8677 56.7467 59.3376 57.0867 59.7776C57.2667 59.9976 57.4566 60.1977 57.6566 60.3777C57.8566 60.5677 58.0566 60.7377 58.2866 60.8877C58.2266 60.7877 58.1766 60.6977 58.1366 60.6177C58.0966 60.5377 58.0566 60.4577 58.0266 60.3777C57.9666 60.2277 57.9167 60.0978 57.8567 59.9578C57.7967 59.8178 57.7266 59.6578 57.6366 59.4578C57.5466 59.2578 57.4266 59.0178 57.2566 58.6978C57.5566 58.8278 57.7666 59.0075 57.9366 59.2275C58.1066 59.4375 58.2467 59.6878 58.3567 59.9578C58.4167 60.0878 58.4666 60.2277 58.5266 60.3677C58.5866 60.5077 58.6567 60.6476 58.7167 60.7876C58.8567 61.0676 58.9967 61.3477 59.2267 61.5977C59.0767 61.3677 59.0567 61.2578 59.0867 61.2178C59.1267 61.1778 59.2266 61.2276 59.3766 61.3176C59.5266 61.4076 59.7066 61.5478 59.8866 61.6978C59.9766 61.7778 60.0666 61.8577 60.1566 61.9377C60.2466 62.0177 60.3366 62.0977 60.4166 62.1677C60.6766 62.5077 60.9867 62.8776 61.3667 63.2476C61.7267 63.6276 62.1766 63.9977 62.6266 64.3777C63.5766 65.1177 64.6767 65.7876 65.7267 66.3076C65.9867 66.3576 66.3566 66.4977 66.7566 66.6777C67.1666 66.8477 67.6266 67.0177 68.0466 67.1677C68.4766 67.2877 68.8666 67.3877 69.1266 67.3977C69.3966 67.3977 69.5267 67.3177 69.4567 67.1277C69.7967 67.1877 70.0566 67.2777 70.2766 67.3677C70.4966 67.4677 70.6667 67.5477 70.8367 67.6477C71.1667 67.8477 71.4567 68.0778 71.9867 68.1978C72.1867 68.1678 72.3867 68.1377 72.5867 68.1277C72.7867 68.1177 72.9766 68.0876 73.1666 68.0876C73.5466 68.0776 73.9266 68.1077 74.2966 68.1177C75.0466 68.1677 75.8067 68.2576 76.5967 68.2776C76.7967 68.2776 76.9966 68.2776 77.1966 68.2776C77.3967 68.2676 77.6066 68.2776 77.8066 68.2476C78.2066 68.1876 78.6266 68.1276 79.0266 68.0076C79.4266 67.8676 79.8367 67.7076 80.2167 67.4875C80.5967 67.2375 80.9666 66.9677 81.2966 66.6177C81.3066 66.7377 81.4066 66.7578 81.5666 66.7178C81.7266 66.6778 81.9466 66.5777 82.1766 66.4277C82.2866 66.3577 82.4066 66.2778 82.5266 66.1978C82.6466 66.1178 82.7567 66.0177 82.8667 65.9377C82.9767 65.8477 83.0866 65.7677 83.1766 65.6877C83.2666 65.6077 83.3566 65.5375 83.4266 65.4775C83.5766 65.3475 83.7566 65.1876 83.9366 64.9976C84.0266 64.9076 84.1167 64.8078 84.2167 64.7078C84.3067 64.6078 84.3967 64.4977 84.4967 64.3877C84.8767 63.9577 85.2167 63.4676 85.4767 63.0276C85.6067 62.7976 85.7066 62.5877 85.7866 62.3977C85.8666 62.2077 85.9166 62.0277 85.9366 61.8977C85.9766 61.6277 85.8867 61.4876 85.6167 61.5676C85.1367 61.8876 84.8067 62.5676 84.3467 63.2876C83.8967 64.0076 83.2966 64.7476 82.5166 65.0776C81.8566 65.3576 81.6567 65.3378 81.7167 65.1978C81.7467 65.1278 81.8367 65.0077 81.9667 64.8777C82.0267 64.8077 82.1066 64.7377 82.1866 64.6577C82.2666 64.5777 82.3466 64.4877 82.4366 64.3977C82.7966 64.0377 83.1666 63.5878 83.4166 63.1978C83.6566 62.7978 83.7866 62.4777 83.6466 62.3677C83.5966 62.5577 83.3966 62.5878 83.1766 62.6978C83.0666 62.7578 82.9366 62.8277 82.7966 62.9377C82.6666 63.0577 82.5267 63.2178 82.3667 63.4478C82.5467 63.2178 82.6467 63.0377 82.6966 62.9077C82.7466 62.7777 82.7567 62.6977 82.7367 62.6577C82.6867 62.5677 82.5166 62.6177 82.3166 62.6877C82.1266 62.7577 81.8967 62.8276 81.7467 62.8276C81.6067 62.8176 81.5366 62.7278 81.6466 62.4678C80.6666 63.1778 80.1666 63.3578 79.7766 63.4578C79.5766 63.4878 79.3966 63.4875 79.1866 63.4775C78.9666 63.4475 78.7066 63.3976 78.3766 63.3276C78.1266 63.5176 77.9467 63.6476 77.8467 63.7876C77.7367 63.9276 77.6966 64.0577 77.6866 64.1777C77.6566 64.4177 77.7467 64.6577 77.6167 64.8777C77.4567 64.9777 77.2866 65.0577 77.1266 65.1277C76.9566 65.1977 76.7966 65.2576 76.6266 65.2776C76.4566 65.3076 76.2867 65.3176 76.1167 65.3376C75.9467 65.3476 75.7867 65.3577 75.6167 65.3376C75.4567 65.3276 75.2966 65.3176 75.1266 65.3076C74.9666 65.2976 74.8066 65.2976 74.6566 65.2776C74.4966 65.2676 74.3466 65.2576 74.1866 65.2676C74.0266 65.2676 73.8767 65.2976 73.7167 65.3176C73.8367 65.1876 73.8866 65.0678 73.8866 64.9678C73.8866 64.8678 73.8366 64.7975 73.7566 64.7275C73.5866 64.5975 73.2567 64.5275 72.8667 64.4775C72.0767 64.3575 70.9866 64.2576 70.2866 64.0876C70.1766 64.0576 70.0767 64.0276 69.9867 64.0076C69.8967 63.9876 69.8167 63.9678 69.7367 63.9578C69.5867 63.9378 69.4667 63.9378 69.3667 63.9478C69.1667 63.9778 69.0466 64.0677 68.9266 64.1377C68.8066 64.2177 68.6767 64.2976 68.4567 64.2976C68.3467 64.2976 68.2166 64.2876 68.0466 64.2375C67.8866 64.1875 67.6967 64.1076 67.4567 63.9875C67.0967 63.5375 67.6566 63.5977 68.1466 63.6277C68.6566 63.6377 69.1067 63.6077 68.6067 63.1177C68.4567 63.1077 68.3066 63.0676 68.1566 63.0476L67.7067 62.9578C67.6167 62.9778 67.5266 62.9976 67.4366 63.0176C67.3466 63.0376 67.2666 63.0576 67.1766 63.0676C67.0066 63.1076 66.8266 63.1477 66.6466 63.1777C66.4666 63.2077 66.2767 63.2375 66.0967 63.2375C65.9067 63.2375 65.7166 63.2277 65.5166 63.1877C65.4266 63.1277 65.3167 63.0676 65.2067 62.9976C65.1067 62.9276 65.0066 62.8476 64.9166 62.7776C64.7466 62.6276 64.6266 62.4977 64.6766 62.4277C65.4866 62.7977 65.4866 62.2877 64.9366 61.5977C64.5166 61.4677 64.4066 61.4377 64.1466 61.4377C64.2966 61.9477 64.2866 62.1377 64.1466 62.1177C64.0166 62.0977 63.7567 61.8876 63.4567 61.5776C62.8367 60.9676 62.0866 59.9878 61.4066 59.7078C61.0166 59.4178 60.7266 59.1477 60.5066 58.9077C60.2966 58.6577 60.1566 58.4376 60.0666 58.2476C59.9766 58.0576 59.9366 57.8778 59.9266 57.7078C59.9166 57.5378 59.9367 57.3875 59.9567 57.2275C59.9767 57.0675 60.0066 56.9176 60.0066 56.7476C60.0166 56.5776 60.0167 56.3977 59.9767 56.1877C59.8867 55.7777 59.6666 55.2576 59.1566 54.5076C59.0466 54.8676 58.8967 54.9376 58.7167 54.8076C58.5467 54.6776 58.3266 54.3578 58.1266 53.9478C57.6966 53.1378 57.3066 51.9975 56.9266 51.4775C56.7666 50.9775 56.7466 50.6076 56.7566 50.2776C56.7766 49.9376 56.8466 49.6376 56.9066 49.2476C56.7166 49.0076 56.4767 48.2477 56.2467 48.1677C55.6567 48.6077 55.1766 49.5076 54.8866 50.7676C54.6066 52.0276 54.5066 53.6375 54.6866 55.4775C54.7566 55.5175 54.8167 55.5776 54.8367 55.5676Z" fill="#F29994"/>
</g>
</g>
</svg>
