<svg width="90" height="90" viewBox="0 0 90 90" fill="none" xmlns="http://www.w3.org/2000/svg">
<path d="M44.9995 90C69.8523 90 89.9995 69.8528 89.9995 45C89.9995 20.1472 69.8523 0 44.9995 0C20.1467 0 -0.000488281 20.1472 -0.000488281 45C-0.000488281 69.8528 20.1467 90 44.9995 90Z" fill="#005E90"/>
<path d="M44.9994 83.9668C66.5201 83.9668 83.9661 66.5209 83.9661 45.0001C83.9661 23.4794 66.5201 6.03345 44.9994 6.03345C23.4787 6.03345 6.03271 23.4794 6.03271 45.0001C6.03271 66.5209 23.4787 83.9668 44.9994 83.9668Z" stroke="white" stroke-width="1.1595" stroke-miterlimit="10"/>
<path d="M58.7859 39.4663C58.7859 31.8574 52.6181 25.6704 44.99 25.6704C37.3715 25.6704 31.2229 31.8574 31.2229 39.4663C31.2229 42.3004 32.0875 44.9616 33.5959 47.1328V47.1808L44.99 64.3201L56.4609 47.1328H56.4321C57.9212 44.9616 58.7859 42.31 58.7859 39.4663ZM44.99 47.1328C40.7532 47.1328 37.3138 43.6935 37.3138 39.4663C37.3138 35.2391 40.7532 31.7902 44.99 31.7902C49.2556 31.7902 52.6565 35.2391 52.6565 39.4663C52.6565 43.6935 49.2652 47.1328 44.99 47.1328Z" fill="#F9F9F9"/>
</svg>
