<svg width="1440" height="1352" viewBox="0 0 1440 1352" fill="none" xmlns="http://www.w3.org/2000/svg">
<path d="M0.0146484 279.14C0.562137 279.764 1.08713 280.395 1.59712 281.041C17.2193 285.739 29.279 298.69 32.7215 314.842C38.5714 312.798 44.9612 312.024 51.5311 312.813C57.336 313.512 62.7284 315.369 67.4908 318.127C75.1106 301.373 92.8852 290.715 112.1 293.03C134.239 295.698 150.462 314.655 150.259 336.49C153.641 338.669 156.529 341.51 158.786 344.795C167.186 339.526 177.364 336.993 187.961 338.271C207.595 340.639 222.738 355.348 226.585 373.726C230.837 371.674 235.705 370.764 240.745 371.366C245.005 371.877 248.882 373.417 252.189 375.695C258.842 367.036 269.747 362.008 281.364 363.413C298.906 365.525 311.408 381.49 309.301 399.063C309.166 400.213 308.963 401.348 308.708 402.453C319.328 404.746 326.985 414.006 327.398 424.762C332.385 422.394 338.07 421.349 343.958 422.056C346.868 422.409 349.627 423.168 352.192 424.258C362.572 402.559 385.897 388.856 411.059 391.893C427.521 393.877 441.523 402.634 450.628 415.036C458.165 406.715 469.048 401.491 481.137 401.491C500.712 401.491 517.107 415.179 521.299 433.518C524.216 433.225 527.209 433.24 530.246 433.601C538.999 434.653 546.753 438.434 552.783 443.989C560.081 430.903 574.038 422.063 590.05 422.063C604.495 422.063 617.259 429.257 624.977 440.261C635.117 427.618 651.339 420.342 668.588 422.424C679.246 423.71 688.68 428.37 695.955 435.202C704.61 410.999 729.06 395.102 755.609 398.297C777.959 400.988 795.658 416.471 802.303 436.555C807.531 435.097 813.125 434.623 818.84 435.307C822.178 435.713 825.388 436.487 828.418 437.592C832.37 424.431 845.285 415.614 859.362 417.313C866.479 418.17 872.667 421.567 877.152 426.491C881.817 403.483 903.401 387.556 927.071 390.404C927.918 390.51 928.766 390.63 929.598 390.78C930.123 373.793 944.028 360.181 961.112 360.181C970.757 360.181 979.389 364.526 985.172 371.358C990.662 356.919 1004.61 346.659 1020.95 346.659C1038.69 346.659 1053.62 358.761 1057.95 375.176C1060.52 374.598 1063.22 374.432 1065.98 374.763C1074.83 375.83 1081.96 381.655 1085.11 389.375C1093.47 377.98 1107.54 371.29 1122.56 373.102C1140.33 375.244 1154.01 388.616 1157.39 405.272C1160.9 402.822 1165.16 401.386 1169.76 401.386C1179.49 401.386 1187.72 407.812 1190.46 416.667C1195.5 412.66 1201.89 410.376 1208.7 410.571C1208.04 406.978 1207.89 403.227 1208.35 399.409C1210.79 379.092 1229.19 364.608 1249.47 367.051C1258.77 368.171 1266.85 372.666 1272.63 379.168C1279.95 362.872 1297.19 352.484 1315.83 354.732C1336.92 357.272 1352.45 375.116 1352.7 395.846C1359.08 388.826 1368.63 384.895 1378.76 386.12C1383.21 386.654 1387.31 388.142 1390.91 390.337C1393.73 374.034 1408.84 362.624 1425.42 364.623C1426.83 364.796 1428.21 365.067 1429.55 365.413C1431.87 359.332 1435.48 353.958 1440 349.568V467.305H0.0146484V368.051V280.575V279.14Z" fill="#EFEFEF"/>
<path d="M1439.99 279.14C1439.44 279.764 1438.91 280.395 1438.4 281.041C1422.78 285.739 1410.72 298.69 1407.28 314.842C1401.43 312.798 1395.04 312.024 1388.47 312.813C1382.66 313.512 1377.27 315.369 1372.51 318.127C1364.89 301.373 1347.11 290.715 1327.9 293.03C1305.76 295.698 1289.54 314.655 1289.74 336.49C1286.36 338.669 1283.47 341.51 1281.21 344.795C1272.81 339.526 1262.64 336.993 1252.04 338.271C1232.4 340.639 1217.26 355.348 1213.42 373.726C1209.16 371.674 1204.3 370.764 1199.26 371.366C1195 371.877 1191.12 373.417 1187.81 375.695C1181.16 367.036 1170.25 362.008 1158.64 363.413C1141.09 365.525 1128.59 381.49 1130.7 399.063C1130.83 400.213 1131.04 401.348 1131.29 402.453C1120.67 404.746 1113.01 414.006 1112.6 424.762C1107.61 422.394 1101.93 421.349 1096.04 422.056C1093.13 422.409 1090.37 423.168 1087.81 424.258C1077.43 402.559 1054.1 388.856 1028.94 391.893C1012.48 393.877 998.477 402.634 989.372 415.036C981.835 406.715 970.953 401.491 958.863 401.491C939.288 401.491 922.893 415.178 918.701 433.518C915.784 433.225 912.791 433.24 909.754 433.601C901.001 434.653 893.247 438.434 887.217 443.989C879.919 430.903 865.962 422.063 849.95 422.063C835.505 422.063 822.741 429.257 815.023 440.261C804.883 427.618 788.661 420.342 771.412 422.424C760.754 423.71 751.32 428.37 744.045 435.202C735.39 410.999 710.94 395.102 684.391 398.297C662.041 400.988 644.342 416.471 637.697 436.555C632.47 435.097 626.875 434.623 621.16 435.307C617.822 435.713 614.612 436.487 611.582 437.592C607.63 424.431 594.715 415.614 580.638 417.313C573.521 418.17 567.333 421.567 562.848 426.491C558.184 403.483 536.599 387.556 512.93 390.405C512.082 390.51 511.235 390.63 510.402 390.78C509.877 373.793 495.972 360.181 478.888 360.181C469.243 360.181 460.611 364.526 454.828 371.358C449.338 356.919 435.389 346.659 419.054 346.659C401.309 346.659 386.385 358.761 382.05 375.176C379.485 374.598 376.777 374.432 374.017 374.763C365.167 375.83 358.043 381.655 354.893 389.375C346.53 377.98 332.461 371.29 317.438 373.102C299.671 375.244 285.992 388.616 282.609 405.272C279.099 402.822 274.839 401.386 270.242 401.386C260.515 401.386 252.28 407.812 249.542 416.667C244.502 412.66 238.105 410.376 231.303 410.571C231.963 406.978 232.105 403.227 231.648 399.409C229.21 379.092 210.806 364.608 190.534 367.051C181.226 368.171 173.149 372.666 167.367 379.168C160.054 362.872 142.812 352.484 124.175 354.732C103.078 357.272 87.5457 375.116 87.2982 395.846C80.9158 388.826 71.3685 384.895 61.2437 386.12C56.7888 386.654 52.6864 388.142 49.0865 390.337C46.2665 374.034 31.1619 362.624 14.5797 364.623C13.1697 364.796 11.7898 365.067 10.4548 365.413C8.12983 359.332 4.52241 353.958 0 349.568V1351.5H1439.97V368.073V280.59V279.14H1439.99Z" fill="#F9F9F9"/>
</svg>
