<svg width="18" height="16" viewBox="0 0 18 16" fill="none" xmlns="http://www.w3.org/2000/svg">
<path d="M17.532 3.31641L11.655 9.19345C10.2929 10.5555 8.08311 10.5555 6.72102 9.19345L0.844033 3.31641C0.834508 3.43071 0.81543 3.52604 0.81543 3.64034V12.0129C0.81543 13.9369 2.37752 15.4991 4.3016 15.4991H14.0744C15.9985 15.4991 17.5606 13.9369 17.5606 12.0129V3.64034C17.5606 3.52604 17.5415 3.43071 17.532 3.31641Z" fill="#005E90"/>
<path d="M10.6732 8.20275L17.0456 1.8305C16.4169 0.792258 15.2929 0.154056 14.0737 0.144531H4.30094C3.08172 0.144531 1.95776 0.782733 1.3291 1.8305L7.70141 8.20275C8.5301 9.02191 9.85409 9.02191 10.6732 8.20275Z" fill="#005E90"/>
</svg>
