<svg width="162" height="166" viewBox="0 0 162 166" fill="none" xmlns="http://www.w3.org/2000/svg">
<path d="M39.8999 41.5026C28.5601 47.8915 20.7528 59.4818 16.8979 71.9364C13.8679 81.7378 13.088 92.0653 13.2379 102.889C13.3054 107.79 12.293 112.607 10.508 117.177C7.07307 125.979 9.11302 136.87 14.8204 144.672C21.7653 154.166 33.0075 159.66 44.3923 162.576C62.8119 167.282 82.9115 165.951 100.071 157.743C117.223 149.535 131.136 134.277 136.888 116.253C138.643 100.867 140.278 84.594 133.895 70.4858C126.508 54.1452 109.386 43.8853 91.8363 40.3601C74.2942 36.8199 54.2246 33.4375 39.8999 41.5026Z" fill="#FFCCB3"/>
<path d="M122.691 132.624C116.121 110.804 115.506 87.2173 120.253 64.4953C110.676 70.1175 99.1636 72.3574 88.1913 70.7263C86.0389 70.4031 83.3914 69.3734 83.3539 67.1861C83.3314 65.9985 84.1564 64.9763 84.9364 64.0743C87.7488 60.8122 90.5688 57.5501 93.3812 54.288C88.1388 57.2419 82.7089 59.9929 76.8816 61.4586C71.0467 62.9243 64.7318 63.0371 59.1519 60.7972C58.3419 60.474 57.457 59.9929 57.2395 59.1511C57.007 58.2416 57.6444 57.3547 58.2519 56.6331C60.9069 53.4387 63.5693 50.2442 66.4343 47.1775C52.0271 48.4027 37.9048 52.8449 25.6201 60.0982C17.9702 70.4858 13.5979 83.2561 13.2829 96.1617C5.97803 87.6457 3.94555 75.627 5.01053 64.4502C5.46052 59.7148 6.62301 54.6563 10.5529 51.9204C7.163 52.1985 3.1431 52.206 1.14814 49.4475C-0.344331 47.388 -0.0593535 44.5543 0.615633 42.104C3.62307 31.115 12.7954 22.8245 22.7327 17.2999C42.8398 6.13061 67.8067 4.15381 89.6163 11.6476C86.9163 10.648 85.8739 6.97243 87.1263 4.37177C88.3788 1.7711 91.3262 0.305407 94.2062 0.140047C97.0861 -0.0253131 99.9061 0.914255 102.554 2.06426C117.066 8.3254 128.503 21.449 132.53 37.4288C145.693 39.6912 156.147 51.0409 159.83 63.909C163.512 76.777 161.225 90.765 156.102 103.122C150.98 115.479 143.173 126.505 135.433 137.412C131.45 135.923 127.483 134.42 122.691 132.624Z" fill="#3E2336"/>
<path d="M117.043 130.782C120.448 125.664 128.158 124.401 133.415 127.58C138.673 130.76 141.2 137.539 140.098 143.59C138.988 149.641 134.66 154.82 129.268 157.759C125.458 159.833 120.988 160.9 116.736 160.074C112.483 159.247 108.538 156.33 107.076 152.249" fill="#FFCCB3"/>
<path d="M80.3538 129.542C80.1663 124.942 85.1162 121.003 91.4086 120.747C97.7009 120.492 102.951 124.01 103.138 128.61C103.326 133.21 98.3759 137.148 92.0836 137.404C85.7912 137.659 80.5413 134.142 80.3538 129.542Z" fill="#FF888E"/>
<path d="M75.9668 119.237C76.4618 115.185 79.3718 112.209 82.4617 112.585C85.5516 112.968 87.6516 116.561 87.1491 120.612C86.6541 124.664 83.7442 127.64 80.6542 127.264C77.5718 126.881 75.4718 123.288 75.9668 119.237Z" fill="#3E2336"/>
<path d="M38.9556 124.441C40.2492 120.024 36.4006 115.003 30.3597 113.226C24.3188 111.449 18.373 113.59 17.0795 118.007C15.7859 122.424 19.6345 127.445 25.6754 129.222C31.7163 130.999 37.6621 128.859 38.9556 124.441Z" fill="#FF888E"/>
<path d="M45.7418 115.509C46.2368 111.458 44.1369 107.865 41.0544 107.481C37.9645 107.098 35.0621 110.075 34.5596 114.133C34.0646 118.185 36.1646 121.778 39.247 122.161C42.3369 122.537 45.2468 119.56 45.7418 115.509Z" fill="#3E2336"/>
<path d="M77.437 139.012C77.332 140.087 77.1595 141.177 76.912 142.237C75.9445 146.401 73.7246 150.422 70.1546 152.752C67.7172 154.346 64.7772 155.067 61.8673 155.15C55.9349 155.33 49.98 152.82 45.9226 148.483C45.6451 148.19 45.3751 147.889 45.1201 147.581C41.0627 142.688 39.3978 135.901 40.7328 129.685C41.0027 129.767 41.2577 129.857 41.5277 129.933C53.16 133.503 65.8947 133.676 77.542 130.128C77.572 131.03 77.617 131.97 77.6395 132.947C77.6845 134.871 77.662 136.938 77.437 139.012Z" fill="#3E2336"/>
<path d="M77.6323 132.947C68.295 137.788 57.0077 138.742 47.0029 135.57C44.6404 134.819 42.7355 133.052 41.828 130.745C41.723 130.474 41.6255 130.204 41.5205 129.94C53.1528 133.511 65.8875 133.684 77.5348 130.136C77.5648 131.03 77.6098 131.97 77.6323 132.947Z" fill="white"/>
<path d="M77.4372 139.012C77.3322 140.087 77.1597 141.177 76.9122 142.237C75.9447 146.401 73.7248 150.422 70.1548 152.752C67.7174 154.345 64.7775 155.067 61.8675 155.15C55.9352 155.33 49.9803 152.82 45.9229 148.483C49.6578 144.138 54.6152 140.846 60.0751 139.155C65.6774 137.434 71.7973 137.396 77.4372 139.012Z" fill="#FA4564"/>
<path d="M51.0674 121.853C51.7424 119.207 54.2473 117.148 56.9623 116.983C59.6772 116.825 62.4071 118.576 63.3896 121.124" stroke="#E0483A" stroke-width="1.4308" stroke-miterlimit="10" stroke-linecap="round" stroke-linejoin="round"/>
<path d="M80.2266 82.2118C82.274 78.7994 85.979 76.6196 89.7514 76.6046C93.5163 76.5895 97.2362 78.7467 99.3062 82.1441C101.376 85.5415 101.736 90.0814 100.236 93.8096C98.6987 89.4726 95.5113 85.8422 91.5813 83.9631C87.6439 82.084 83.009 81.9713 80.2266 82.2118Z" fill="#3E2336"/>
<path d="M49.9422 78.0777C48.0222 72.6284 41.6848 69.0431 35.9474 70.163C30.2101 71.2829 25.8302 76.9728 26.2652 82.7078C32.55 76.7699 42.8848 75.432 49.9422 78.0777Z" fill="#3E2336"/>
</svg>
