<svg width="91" height="90" viewBox="0 0 91 90" fill="none" xmlns="http://www.w3.org/2000/svg">
<path d="M45.2999 90C70.1527 90 90.2998 69.8528 90.2998 45C90.2998 20.1472 70.1527 0 45.2999 0C20.4471 0 0.299805 20.1472 0.299805 45C0.299805 69.8528 20.4471 90 45.2999 90Z" fill="#005E90"/>
<path d="M45.2992 83.9661C66.8199 83.9661 84.2659 66.5201 84.2659 44.9994C84.2659 23.4787 66.8199 6.03271 45.2992 6.03271C23.7785 6.03271 6.33252 23.4787 6.33252 44.9994C6.33252 66.5201 23.7785 83.9661 45.2992 83.9661Z" stroke="white" stroke-width="1.1595" stroke-miterlimit="10"/>
<path d="M65.3394 45.0376C65.4067 56.0186 56.2606 65.0878 45.2412 65.0493C34.2698 65.0109 25.2102 55.9225 25.2582 44.9031C25.3063 33.9797 34.3755 24.8914 45.3757 24.9586C56.4336 25.0259 65.3394 33.9317 65.3394 45.0376ZM43.5503 37.3422C43.5503 39.9266 43.5599 42.5109 43.5407 45.0952C43.5407 45.5083 43.6657 45.8157 43.9635 46.104C44.953 47.0743 45.9233 48.0543 46.9032 49.0342C48.7766 50.9076 50.65 52.7714 52.5138 54.6544C52.8692 55.0098 53.0999 55.0194 53.4361 54.6544C53.8781 54.1644 54.368 53.7129 54.8291 53.2421C55.4152 52.6561 55.4152 52.6465 54.8484 52.0797C52.4562 49.6875 50.064 47.276 47.6526 44.9031C47.2395 44.49 47.057 44.0769 47.057 43.4812C47.0762 38.8314 47.0666 34.1815 47.0762 29.5316C47.0762 28.9936 46.9321 28.7534 46.3653 28.7919C45.664 28.8303 44.9626 28.8303 44.2613 28.7919C43.6944 28.7631 43.5407 28.9936 43.5407 29.5316C43.5599 32.1255 43.5503 34.7291 43.5503 37.3422Z" fill="#F9F9F9"/>
</svg>
