<svg width="15" height="18" viewBox="0 0 15 18" fill="none" xmlns="http://www.w3.org/2000/svg">
<path d="M7.59665 0.514648C3.7485 0.514648 0.633789 3.63883 0.633789 7.47746C0.633789 9.26818 2.02442 12.0781 4.75813 15.8215C5.90114 17.3931 8.10147 17.7361 9.66359 16.5835C9.95887 16.374 10.216 16.1072 10.4256 15.8215C13.1688 12.0781 14.55 9.26818 14.55 7.47746C14.5595 3.63883 11.4448 0.524174 7.59665 0.514648ZM7.59665 10.2588C6.05358 10.2588 4.8058 9.01099 4.8058 7.46792C4.8058 5.92485 6.05358 4.67712 7.59665 4.67712C9.13972 4.67712 10.3875 5.92485 10.3875 7.46792C10.3875 9.01099 9.13972 10.2588 7.59665 10.2588Z" fill="#005E90"/>
</svg>
