<svg width="22" height="22" viewBox="0 0 22 22" fill="none" xmlns="http://www.w3.org/2000/svg">
<path d="M21.6793 11.0037C21.6793 5.25118 17.0142 0.586182 11.2617 0.586182C5.50925 0.586182 0.844238 5.25118 0.844238 11.0037C0.844238 16.2012 4.65422 20.5137 9.63422 21.2937V14.0187H6.98679V11.0112H9.63422V8.71618C9.63422 6.10618 11.1867 4.66618 13.5642 4.66618C14.7042 4.66618 15.8967 4.86868 15.8967 4.86868V7.43368H14.5842C13.2942 7.43368 12.8893 8.23618 12.8893 9.06118V11.0112H15.7768L15.3118 14.0187H12.8818V21.2937C17.8693 20.5062 21.6793 16.2012 21.6793 11.0037Z" fill="white"/>
<path d="M15.3192 14.0112L15.7842 11.0037H12.8966V9.05369C12.8966 8.22869 13.3016 7.42619 14.5916 7.42619H15.9041V4.86119C15.9041 4.86119 14.7117 4.65869 13.5717 4.65869C11.1942 4.65869 9.64166 6.09869 9.64166 8.70869V11.0037H6.99414V14.0112H9.64166V21.2862C10.1742 21.3687 10.7142 21.4137 11.2692 21.4137C11.8242 21.4137 12.3641 21.3687 12.8966 21.2862V14.0112H15.3192Z" fill="#0A6375"/>
</svg>
