<svg width="72" height="105" viewBox="0 0 72 105" fill="none" xmlns="http://www.w3.org/2000/svg">
<g id="Vector">
<path d="M45.0256 85.5208C45.1549 85.5808 45.2842 85.7112 45.3438 85.8612C45.4035 86.0112 45.3836 86.1608 45.2444 86.2508L45.1449 86.431C45.0157 86.241 44.2997 85.6008 45.0256 85.5208Z" fill="#3DA935"/>
<path d="M48.148 82.2307L48.1281 82.1008C48.148 82.2308 48.2375 82.3511 48.317 82.4211C48.2176 82.5411 47.959 82.5408 47.8596 82.3508C47.969 82.2908 48.1182 82.4107 48.148 82.2307Z" fill="#3DA935"/>
<path d="M49.2716 88.0912C49.6793 87.8112 49.9876 87.0911 50.0473 86.471L50.7433 86.0208C50.7035 86.2708 50.8427 86.4712 51.0217 86.6512C51.2007 86.8312 51.4294 87.001 51.5885 87.181C51.8371 87.211 51.4891 86.6612 51.9366 86.9012C51.8869 87.0212 51.7079 87.1311 51.7178 87.2611C52.1653 87.4311 52.4934 86.841 52.9906 87.661L52.9011 88.1513C53.4182 88.7713 54.0745 89.291 54.691 89.851C55.2777 90.421 55.8346 91.021 56.1428 91.751C56.6301 91.731 56.988 92.4514 57.4852 92.6914L57.2963 92.8413C57.7935 92.8313 57.6543 93.5013 57.883 93.7613L57.8631 94.1514C57.5946 94.4715 57.2267 93.5311 56.8787 94.1011C56.9582 94.8312 57.9526 94.6912 57.9029 95.3912C58.1117 95.9012 58.3205 95.6915 58.6089 95.9015C58.8575 95.8415 58.7481 95.6814 59.0066 95.5514C59.7822 96.5114 58.7282 97.2415 59.3746 98.0915C59.5635 98.0215 60.4385 98.5013 60.2993 97.6613C60.1601 97.5913 60.0209 97.5311 59.8817 97.4611L59.9811 97.1012C60.0607 97.2212 60.17 97.4014 60.2794 97.5314C60.3888 97.6614 60.4982 97.7315 60.6076 97.6315C60.3093 98.0315 60.7468 98.3615 61.065 98.5915C61.3832 98.8215 61.5622 98.9516 60.7567 98.9416C60.707 98.3916 60.5877 98.2816 60.1104 98.1916C60.349 98.7016 60.5181 99.2212 60.6772 99.7112C60.8363 100.201 60.9656 100.682 61.1744 101.092L61.6616 101.141C61.3136 101.351 61.2838 101.871 61.3932 102.311C61.5523 102.441 61.6318 102.682 61.7809 102.532C61.9102 102.522 61.7809 102.131 61.7113 101.811C61.6517 101.491 61.6815 101.211 62.1886 101.411C62.3577 101.911 62.4571 102.462 62.5069 102.972C62.5466 103.492 62.5168 103.992 62.3975 104.402C62.0991 104.012 62.0594 103.652 61.3534 103.431C61.0451 103.111 60.8064 102.742 60.5578 102.382C60.3192 102.012 60.0905 101.632 59.8718 101.262C59.7624 101.072 59.653 100.881 59.5336 100.701C59.4143 100.521 59.2851 100.342 59.1558 100.172C58.8873 99.8316 58.5989 99.5114 58.2509 99.2414C58.4597 99.0514 58.3404 98.6113 58.6487 98.5813C58.7481 98.3412 58.3305 98.1012 58.6188 97.7912C58.1017 97.3512 57.7139 96.7811 57.356 96.2111C56.988 95.6411 56.6798 95.0511 56.3815 94.5611C56.1726 94.9011 55.9837 94.8215 55.7848 94.6515C55.5859 94.4814 55.3771 94.2215 55.1683 94.1715C55.2479 93.7414 54.8302 93.4011 54.6015 93.1011C54.4822 93.1411 54.3032 92.9811 54.1739 93.1412C54.4126 93.3112 54.343 93.4911 54.4524 93.7711C53.9552 93.9911 54.1143 93.2514 53.8756 92.9014H54.2435C53.8259 92.3314 54.0049 91.0913 53.2193 90.9013L53.1597 91.6514C52.9906 91.5314 52.8713 91.3611 52.752 91.1811C52.6326 91.0011 52.5332 90.8111 52.4238 90.6211C52.205 90.261 51.9664 89.9413 51.5487 89.9213C51.7476 90.4513 52.6128 90.8712 52.0658 91.3013C51.7675 91.5113 51.3897 91.0309 51.3201 90.7109C51.2505 90.3609 51.0914 90.1111 50.8925 89.9111C50.6837 89.7211 50.4351 89.5711 50.1964 89.4311C49.6793 89.1411 49.2617 88.8412 49.2716 88.0912Z" fill="#3DA935"/>
<path d="M49.5003 90.1513C50.1964 90.8813 50.5842 89.8813 51.151 90.6914C50.793 90.8314 50.8627 91.4014 51.0416 91.6714C51.3996 91.7814 51.5388 92.1611 51.7079 92.3711C51.7675 92.5711 51.3996 92.821 51.1709 92.541C51.1709 91.961 50.7533 91.6313 50.3456 91.3213C50.1367 91.1613 49.9379 91.0113 49.7788 90.8213C49.6296 90.6413 49.5202 90.4313 49.5003 90.1513Z" fill="#3DA935"/>
<path d="M52.2647 92.0811C52.5034 92.3111 52.8017 93.0411 52.4238 93.3511C52.4238 93.4111 52.1752 93.5014 52.3542 93.5914C52.3045 93.2714 51.8371 92.5811 52.2647 92.0811Z" fill="#3DA935"/>
<path d="M53.2392 91.8511C53.4878 91.5711 53.4779 92.0213 53.5375 92.0913V92.3413C53.3585 92.2513 53.1696 92.1011 53.2392 91.8511Z" fill="#3DA935"/>
<path d="M54.0645 94.7613C54.2236 95.2313 53.4083 94.6312 53.6768 95.1212L53.448 94.8912L53.8359 94.461L54.0645 94.7613Z" fill="#3DA935"/>
<path d="M54.0745 95.6412C54.2535 95.6812 54.3728 95.7611 54.4126 96.0211L54.1739 96.0314C54.0546 96.0114 54.1938 95.7912 54.0745 95.6412Z" fill="#3DA935"/>
<path d="M54.7507 94.4015C54.9893 94.5115 54.7407 94.6514 54.7308 94.8414C54.5518 94.8614 54.5816 94.2415 54.7507 94.4015Z" fill="#3DA935"/>
<path d="M58.8774 94.4112C58.3802 94.4712 58.3503 93.9414 57.9924 93.6514C58.3404 93.9414 58.6487 93.9512 58.8774 94.4112Z" fill="#3DA935"/>
<path d="M42.2612 83.6209C42.2115 83.3809 41.9629 83.3309 41.784 83.3509L41.764 83.5409L42.2612 83.6209Z" fill="#3DA935"/>
<path d="M44.1804 85.6009C44.6875 85.3409 44.26 85.291 44.2301 84.741C44.071 84.531 43.8324 84.4108 43.5738 84.3108C43.3153 84.2108 43.0568 84.1209 42.8678 83.9509L42.4402 83.9807C42.6093 84.2407 42.8678 84.5811 43.1761 84.8811C43.4843 85.1812 43.8224 85.4609 44.1804 85.6009Z" fill="#3DA935"/>
<path d="M38.234 80.8908C38.4925 81.0708 38.7511 81.371 39.0494 81.611C39.3477 81.851 39.7156 82.0207 40.1929 81.9807C40.004 81.6907 40.0935 81.5609 39.7454 81.1808C40.1034 81.0108 40.2526 81.141 40.352 81.361C40.4515 81.581 40.5012 81.8607 40.6901 82.0007C40.4813 81.6507 41.058 81.7108 41.3365 81.8708C41.5254 82.1308 41.8138 82.3911 42.1419 82.6511C42.4601 82.9211 42.828 83.1909 43.1462 83.4509C43.365 83.4709 43.6335 83.7412 43.892 83.9412C44.1406 84.1412 44.3693 84.2612 44.5384 83.9412C44.956 84.2412 44.6577 84.6808 44.8367 85.0408C45.1748 85.0808 45.3836 85.251 45.5228 85.491C45.6521 85.731 45.7117 86.0411 45.7714 86.3412C45.9007 86.9512 46.0399 87.5412 46.8056 87.6112C46.4675 87.8512 46.9149 88.2313 47.0542 88.4213C47.3823 88.8013 48.1778 89.6809 48.5557 88.9809C48.6949 88.3709 47.6011 88.4508 47.6011 87.7108C47.5513 86.4708 48.4861 88.1811 49.0031 87.7211C48.8242 87.7111 49.202 87.2412 48.7645 87.0912C49.5998 87.5112 49.0529 86.3009 49.6694 86.3309C49.2518 85.3009 49.3313 85.3609 49.56 84.3709C49.0131 84.0309 48.7148 84.591 48.3568 84.701C47.9988 84.601 47.8695 84.3108 47.7602 84.0208C47.6508 83.7308 47.5613 83.421 47.2829 83.301C48.327 82.811 47.1238 82.0508 46.5968 81.6008C46.2885 81.2808 46.0797 81.4107 45.8609 81.5407C45.6521 81.6607 45.4333 81.7809 45.1151 81.4509C45.0952 80.7609 46.2785 81.5407 46.1592 80.7306L45.6919 80.6208C45.2146 80.7608 44.7074 81.031 44.2699 81.051C44.1207 80.931 43.892 80.7508 43.9915 80.6208C44.3892 80.7308 44.5583 80.3408 44.3991 79.9108C44.1506 79.9208 44.081 79.9306 43.9119 80.0006C43.8025 81.3807 43.2258 79.5409 42.3905 79.7409C41.4856 79.6209 41.5155 79.2409 41.5851 78.8009C41.6547 78.3609 41.7541 77.8809 40.9685 77.6109C40.8791 78.1609 40.5907 78.1108 40.2526 77.9307C39.9145 77.7507 39.4969 77.4508 39.1886 77.4708C38.8406 77.2108 38.8704 76.8907 38.7909 76.4507C38.6317 76.4707 38.3235 76.3307 38.1743 76.4707C37.6573 77.7408 37.7965 79.331 38.1644 80.9411C38.1743 80.9111 38.2141 80.9108 38.234 80.8908Z" fill="#3DA935"/>
<path d="M30.4679 64.4406C30.7662 64.7906 31.2534 65.2203 31.4324 65.3904L31.4722 65.1604C31.8103 65.0304 31.1341 64.2406 30.617 63.9406C30.0403 63.8306 30.1596 64.1006 30.4679 64.4406Z" fill="#4CA4DB"/>
<path d="M34.0178 60.9005C33.8488 60.7605 33.6101 60.5103 33.4809 60.3003L33.6101 60.5001C33.6499 60.6401 33.5902 60.6404 33.4908 60.6104C33.3914 60.5804 33.272 60.5201 33.1925 60.5401C33.3516 60.7101 33.5306 60.8305 33.6897 60.9005C33.8388 60.9705 33.9681 60.9705 34.0178 60.9005Z" fill="#4CA4DB"/>
<path d="M38.8406 69.8408C38.7908 70.0808 38.7014 70.2907 38.6019 70.4707C38.413 70.8207 38.1545 71.0308 37.8959 71.0308C37.8164 71.6308 37.7965 72.1209 37.8263 72.6109C37.8263 72.7309 37.8263 72.8508 37.8363 72.9708C37.8363 73.0308 37.8462 73.091 37.8462 73.151V73.3307C37.8462 73.4507 37.8561 73.5808 37.8561 73.7008C37.8462 73.8208 37.8561 73.9507 37.8462 74.0807C37.8163 74.5907 37.7269 75.1208 37.4882 75.6208C37.2496 76.1208 36.8618 76.5909 36.3148 76.9109C36.0663 77.0609 35.7083 77.3308 35.4298 77.5808C35.1415 77.8308 34.9128 78.0807 34.9923 78.2508C35.1614 78.5508 35.5989 78.3607 36.0762 77.9807C36.3148 77.7907 36.5535 77.551 36.7822 77.321C37.0109 77.081 37.2297 76.8409 37.4286 76.6408C37.3192 77.3409 36.6828 77.981 35.9072 78.471C35.5193 78.721 35.1017 78.9412 34.684 79.1512C34.2664 79.3612 33.8587 79.5711 33.4908 79.8011C33.9283 79.8011 34.3559 79.7608 34.8034 79.7108C34.2863 80.2908 33.451 80.561 32.5859 80.701C31.7208 80.841 30.8259 80.8508 30.0602 81.0008C30.1994 80.8708 30.3386 80.7412 30.4778 80.6112C30.0204 80.7112 29.4934 80.661 29.0757 80.661C28.6581 80.661 28.33 80.691 28.2305 80.971C28.857 80.961 29.1056 81.0812 29.6923 80.8812C29.8514 81.0512 29.3542 81.2012 29.2846 81.3412C28.8669 81.4212 28.3797 81.5312 27.9024 81.5712C27.4251 81.6112 26.9676 81.6011 26.6295 81.4711C26.2915 81.6611 25.5556 81.6911 24.9988 81.7811C24.7204 81.8211 24.4817 81.8808 24.3624 81.9608C24.243 82.0408 24.2331 82.1612 24.4121 82.3412C23.7657 82.3312 23.0796 82.3109 22.3537 82.2709C21.9957 82.2409 21.6278 82.211 21.2599 82.181C21.071 82.171 20.892 82.151 20.703 82.141C20.5141 82.121 20.3252 82.1009 20.1462 82.0809C19.7683 82.0409 19.3904 82.0011 19.0126 81.9711C18.6347 81.9311 18.2569 81.881 17.879 81.851C17.1233 81.791 16.3874 81.7113 15.6615 81.6713C15.4825 81.2412 14.5279 81.2411 14.2396 80.971C14.5876 80.751 13.6728 80.4409 13.6131 80.1209C11.7834 79.9909 9.92394 79.431 8.11416 78.741C7.66669 78.561 7.20929 78.381 6.76182 78.2009C6.31434 78.0009 5.87682 77.8109 5.42935 77.6208L5.09123 77.4807L4.7631 77.3308C4.54433 77.2308 4.32556 77.1308 4.09685 77.0408C3.87808 76.9408 3.64939 76.851 3.43063 76.761C3.21187 76.661 2.9931 76.5709 2.77433 76.4709C2.46608 76.4409 2.19761 76.391 1.94901 76.321C1.82968 76.291 1.71034 76.2509 1.59102 76.2009C1.48164 76.1509 1.37225 76.101 1.27281 76.051C0.855167 75.841 0.46736 75.581 0 75.321C0.218764 75.641 0.507131 75.9908 0.835277 76.3508C1.00432 76.5308 1.17338 76.7211 1.37225 76.9011C1.56118 77.0811 1.77002 77.2612 1.97884 77.4412C2.18766 77.6212 2.4064 77.8007 2.63511 77.9807C2.86381 78.1607 3.10249 78.321 3.34114 78.491C3.82839 78.831 4.32558 79.161 4.83271 79.451C5.79726 79.521 5.39951 79.151 4.80288 78.761C4.50457 78.571 4.16646 78.3412 3.91787 78.1712C3.66927 77.9912 3.51017 77.8608 3.57978 77.8308C3.55989 77.5908 4.02725 77.8807 4.44489 78.0007C4.54433 78.0707 4.64378 78.141 4.74322 78.221C4.84266 78.291 4.94209 78.3609 5.04152 78.4309C5.23046 78.5709 5.40945 78.7211 5.54867 78.8611C5.83704 79.1411 6.00608 79.4111 5.94641 79.6111C6.18507 79.5811 6.43367 79.5208 6.67232 79.4808C7.14963 79.6808 7.61697 79.921 8.11416 80.161C8.60141 80.391 9.10855 80.6312 9.61569 80.8812C10.1328 81.1112 10.6697 81.3412 11.2266 81.5712C11.7834 81.7912 12.3701 81.981 12.9767 82.181C12.5789 82.261 12.2906 82.2911 11.9823 82.2411C11.6741 82.1811 11.326 82.0511 10.8189 81.7611C9.72506 82.1411 10.1924 82.1909 11.0078 82.2909C11.4155 82.3409 11.9127 82.3711 12.3403 82.4711C12.7679 82.5711 13.1358 82.7411 13.2949 83.0111C13.2253 82.7011 14.4086 83.011 15.0649 83.141C14.8859 83.021 14.7169 82.8809 14.5478 82.7509L13.6529 82.8012C12.8077 82.4512 12.8972 82.2512 13.1955 82.1312C13.5037 82.0112 14.0308 81.941 14.1004 81.851C15.2638 82.081 15.8306 82.451 16.4471 82.871C16.7553 83.081 17.0835 83.2711 17.5011 83.4311C17.7099 83.5111 17.9486 83.581 18.2171 83.6411C18.3464 83.6711 18.4955 83.7011 18.6447 83.7211C18.7938 83.7411 18.9629 83.7509 19.1319 83.7509C19.2413 83.4709 18.8038 83.4409 19.0225 83.2109C19.4103 83.1809 19.5694 83.0909 19.7882 83.0409C19.8976 83.0109 20.0169 83.0009 20.186 83.0009C20.355 83.0009 20.5738 83.0312 20.8721 83.0712C21.4787 83.3112 22.0554 83.241 22.6421 83.121C22.9404 83.061 23.2387 82.9909 23.5569 82.9609C23.716 82.9509 23.8751 82.9411 24.0442 82.9511C24.2132 82.9611 24.3823 82.9809 24.5712 83.0209C24.7303 83.1609 24.7104 83.2612 24.5911 83.3412C24.4718 83.4212 24.2629 83.4709 24.0442 83.5009C23.5967 83.5709 23.1094 83.6112 23.2387 83.8212L23.9348 84.061C24.3226 84.041 24.78 84.1314 25.2275 84.1914C25.6749 84.2414 26.1025 84.2609 26.4009 84.0209L26.4406 84.2612C26.7091 84.1712 27.0273 84.1112 27.3555 84.0512C27.5245 84.0212 27.6935 84.0011 27.8526 83.9711C28.0217 83.9411 28.1907 83.9213 28.3598 83.8813C29.0459 83.7513 29.6724 83.5712 29.9508 83.3012C31.7804 83.1512 33.6598 82.5111 35.4 81.451C35.8375 81.191 36.2651 80.8911 36.6728 80.5711C37.0905 80.2511 37.4882 79.9008 37.8661 79.5208C38.2439 79.1408 38.6019 78.7411 38.93 78.301C39.2582 77.871 39.5665 77.4009 39.825 76.9109C39.9543 76.8209 40.0836 76.7211 40.2029 76.6111C40.3222 76.5011 40.4515 76.401 40.5708 76.281C40.6404 76.131 40.71 75.9808 40.7597 75.8508C40.8095 75.7108 40.8492 75.5909 40.889 75.4709C40.9685 75.2409 40.9884 75.031 41.0183 74.861C41.058 74.521 41.0083 74.301 40.9586 74.131C40.8989 73.961 40.8094 73.8308 40.7398 73.6808C40.7001 73.6008 40.6702 73.521 40.6404 73.421C40.6106 73.321 40.5907 73.2007 40.5608 73.0607C40.6404 72.7906 40.8393 72.8908 40.9586 72.7408C40.9188 72.4008 40.8592 72.2706 40.8194 72.2506C40.7796 72.2206 40.7498 72.3107 40.7299 72.4107C40.6702 72.6207 40.6006 72.9308 40.5211 72.6808C40.5211 72.6008 40.5211 72.5208 40.5111 72.4308C40.5012 72.3508 40.4913 72.2607 40.4813 72.1807C40.4614 72.0107 40.4316 71.841 40.4017 71.671C40.3222 71.341 40.2526 71.001 40.1531 70.691C40.1034 70.531 40.0636 70.3805 40.0239 70.2305C39.9742 70.0805 39.9443 69.9406 39.9046 69.8106C39.8449 69.5306 39.7952 69.2908 39.8151 69.0708C39.5167 69.0608 39.2184 69.0608 38.9201 69.0708C38.9301 69.3408 38.8903 69.6008 38.8406 69.8408Z" fill="#4CA4DB"/>
<path d="M36.7524 76.2608C36.8319 76.1208 36.8816 76.0009 36.9015 75.9009C36.9413 75.6909 36.9114 75.5406 36.8617 75.3906C36.812 75.2406 36.7623 75.0909 36.7524 74.8809C36.7524 74.8308 36.7523 74.7807 36.7623 74.7207C36.7623 74.6607 36.7723 74.6007 36.7822 74.5307C36.7921 74.4607 36.812 74.3905 36.8219 74.3105C36.8319 74.2305 36.8617 74.1405 36.8816 74.0405C36.633 74.3205 36.454 74.6109 36.285 74.9409C36.116 75.2609 35.937 75.6207 35.6884 75.9707C35.4497 76.3207 35.1415 76.671 34.7835 76.941C34.4156 77.211 33.988 77.4007 33.5305 77.4508C33.2322 77.6208 33.103 77.811 33.1129 77.941C33.1129 78.081 33.2422 78.1609 33.4311 78.1109C33.9184 77.8609 34.6343 77.5906 34.9724 77.0606C35.221 76.8906 35.5591 76.7109 35.8276 76.6109C36.106 76.5209 36.3347 76.4905 36.3944 76.7105C36.5535 76.5505 36.6629 76.3908 36.7524 76.2608Z" fill="#4CA4DB"/>
<path d="M30.7861 78.8809C30.8557 78.8809 30.9452 78.8709 31.0446 78.8609C31.0048 78.8109 30.9452 78.7809 30.7861 78.8809Z" fill="#4CA4DB"/>
<path d="M32.1782 78.671C31.7705 78.731 31.3529 78.8209 31.0446 78.8609C31.0744 78.9109 31.0844 78.9808 31.1341 78.9908C31.2236 79.2208 31.6611 79.2708 32.1583 79.2008C32.6555 79.1408 33.1925 78.9506 33.4809 78.7706C33.2223 78.5406 32.7052 78.5809 32.1782 78.671Z" fill="#4CA4DB"/>
<path d="M32.2677 80.3505C32.4666 80.2905 33.272 80.2606 33.0035 79.9706C32.6257 79.9106 32.1683 80.1307 31.8103 80.3407C31.9595 80.3507 32.1086 80.3505 32.2677 80.3505Z" fill="#4CA4DB"/>
<path d="M26.8284 80.2306L27.6339 80.151L27.3256 79.611L26.6395 79.7208C27.8526 79.6808 25.7943 80.1706 26.8284 80.2306Z" fill="#4CA4DB"/>
<path d="M24.422 79.7008C24.3325 79.7708 24.2331 79.8408 24.1436 79.9108C24.6607 80.0208 24.959 79.9509 25.2474 79.8209C24.8397 79.8409 24.601 79.6108 24.422 79.7008Z" fill="#4CA4DB"/>
<path d="M26.6594 81.0207C27.1665 80.9207 26.0727 80.641 25.8937 80.801C26.2219 80.911 26.1622 81.1907 26.6594 81.0207Z" fill="#4CA4DB"/>
<path d="M21.4289 84.471C22.5625 84.611 22.9901 84.3407 23.9845 84.2107C23.4873 84.2707 22.9802 84.241 22.5327 84.241C22.0852 84.241 21.6974 84.261 21.4289 84.471Z" fill="#4CA4DB"/>
<path d="M23.2884 59.7403L23.4078 59.98L24.3823 60.2203C24.084 59.8802 23.6066 59.7503 23.2884 59.7403Z" fill="#4CA4DB"/>
<path d="M28.7277 62.4405C28.5189 62.2605 28.2802 62.0903 28.0416 61.9503C27.793 61.8103 27.5245 61.6904 27.266 61.5704C27.0074 61.4504 26.7389 61.33 26.4904 61.21C26.2318 61.09 25.9832 60.9704 25.7446 60.8204L25.0187 60.73C25.5357 61.1501 26.2716 61.6703 27.0174 62.2203C27.2063 62.3503 27.4052 62.4905 27.5941 62.6105C27.783 62.7405 27.972 62.8801 28.1609 63.0001C28.3498 63.1201 28.5388 63.2402 28.7277 63.3502C28.9166 63.4602 29.0956 63.5605 29.2647 63.6505C29.9309 63.5205 29.1851 63.2406 28.7277 62.4405Z" fill="#4CA4DB"/>
<path d="M7.18939 60.8403C7.24906 60.7103 7.25899 60.5401 7.20927 60.4101C6.93084 60.1901 6.79165 60.32 6.73199 60.52C6.70215 60.62 6.68227 60.7303 6.67232 60.8403C6.66238 60.9403 6.65244 61.0301 6.64249 61.0801L6.84135 61.0303C7.00045 61.0503 7.11979 60.9703 7.18939 60.8403Z" fill="#4CA4DB"/>
<path d="M11.8033 60.1802L11.7337 60.2901C11.5846 60.4101 11.5647 60.2005 11.4454 60.1705C11.3857 60.3805 11.5547 60.5801 11.7138 60.5601C11.7039 60.4501 11.7337 60.2902 11.8033 60.1802Z" fill="#4CA4DB"/>
<path d="M6.87118 65.7702C6.89107 65.7702 6.91096 65.7702 6.93084 65.7702L6.9408 65.7605C6.89108 65.7605 6.85131 65.7702 6.79165 65.7702C6.82148 65.7802 6.8513 65.7702 6.87118 65.7702Z" fill="#4CA4DB"/>
<path d="M6.732 65.7902H6.70217C6.69222 65.7902 6.68228 65.7905 6.67234 65.8005L6.63255 65.8103C6.56295 65.8203 6.50327 65.8303 6.43366 65.8503H6.42374C6.3243 65.8703 6.21489 65.8904 6.11545 65.9104H6.12541C6.0558 65.9204 5.98621 65.9404 5.92655 65.9504L5.71771 65.9904C5.65804 66.0005 5.55861 66.0202 5.56856 66.0202C5.49895 66.0302 5.42933 66.0503 5.36967 66.0603C5.30006 66.0703 5.23046 66.0903 5.16086 66.1003H5.17081C5.30008 66.0703 5.42934 66.0502 5.56856 66.0202L5.53873 66.0305C5.51884 66.0405 5.48902 66.0403 5.45919 66.0603C5.42936 66.0703 5.3995 66.0903 5.36967 66.1003H5.35974H5.38958L5.45919 66.0906L5.58843 66.0705C5.67793 66.0605 5.75749 66.0505 5.84698 66.0305L5.97626 66.0105L6.03592 66.0002C6.04586 66.0002 6.0558 66.0002 6.06575 66.0002H6.04587C5.89671 66.0202 5.73759 66.0503 5.5586 66.0803C5.46911 66.0903 5.37963 66.1103 5.29013 66.1203C5.24041 66.1303 5.1907 66.1304 5.14098 66.1404L5.1012 66.1506L5.12107 66.1404C5.22051 66.1004 5.31003 66.0703 5.42936 66.0403C5.31998 66.0603 5.24041 66.0806 5.19069 66.0906C5.18074 66.0906 5.18075 66.0906 5.17081 66.0906C5.09126 66.1105 5.01172 66.1204 4.93217 66.1404L4.50456 66.2204H4.46481L4.4449 66.2302L4.36536 66.2502C4.31564 66.2602 4.25598 66.2805 4.20626 66.3005L4.12669 66.3303L4.08694 66.3503C4.07699 66.3503 4.06703 66.3606 4.06703 66.3606L4.25596 66.3303C4.75316 66.2403 5.25035 66.1503 5.74754 66.0603L5.93647 66.0305L6.02596 66.0105L6.06575 66.0002C6.07569 66.0002 6.07569 66.0002 6.06575 66.0002H6.05579L6.04587 66.0105H6.05579L6.02596 66.0202C6.02596 66.0202 6.03592 66.0205 6.03592 66.0105H6.04587L6.03592 66.0202L5.97626 66.0505L5.9663 66.0603C5.97625 66.0503 5.9862 66.0503 6.00609 66.0403L5.95638 66.0705L5.93647 66.0803L5.9663 66.0603H5.95638C5.94644 66.0703 5.93649 66.0703 5.92655 66.0803H5.9166L5.90664 66.0906C2.34676 66.8706 3.70907 66.5703 3.86817 66.5403C3.84828 66.5503 3.78862 66.5603 3.67924 66.5803H3.72894C3.81844 66.5803 3.90793 66.5805 4.00737 66.5705H4.08694L4.16647 66.5505L4.33553 66.5105L4.43498 66.4905C4.41509 66.4905 4.39518 66.5002 4.38524 66.5002C4.36535 66.5002 4.35541 66.4905 4.35541 66.4905C4.33552 66.4705 4.38526 66.4504 4.43498 66.4304L4.45485 66.4206H4.46481L4.98187 66.3103C4.98187 66.3103 4.99181 66.3103 5.00175 66.3103C4.99181 66.3103 4.99183 66.3103 4.99183 66.3103L5.07137 66.2903C5.04153 66.3003 5.02164 66.3005 5.00175 66.3005C5.06141 66.2905 5.2404 66.2503 5.06141 66.2903H5.07137C5.15092 66.2903 5.22053 66.2805 5.30008 66.2805C5.32992 66.2805 5.3697 66.2805 5.39953 66.2805L5.57851 66.2405L5.61826 66.2302H5.63817L5.68788 66.2204C5.95636 66.1504 6.21491 66.0702 6.47345 66.0002L6.68226 65.9406L6.79166 65.9104C6.81154 65.9104 6.83142 65.9006 6.84136 65.9006C6.92091 65.9706 7.00048 66.0802 7.01042 66.2702C7.08003 66.4102 7.17947 66.4905 7.25902 66.4905C7.33857 66.4905 7.37834 66.4303 7.34851 66.3503C7.2789 66.2503 7.20929 66.1305 7.12974 66.0505C7.05019 65.9705 6.97064 65.9206 6.88115 65.8806L6.92093 65.8405L6.93085 65.8303C6.88114 65.8203 6.84138 65.8103 6.79166 65.8103L6.732 65.7902ZM5.88677 65.9904C5.79727 66.0005 5.86688 65.9804 5.88677 65.9704C5.9166 65.9604 5.94643 65.9404 5.98621 65.9304C6.02599 65.9204 6.06576 65.9106 6.10553 65.9006C6.20497 65.8806 6.3044 65.8605 6.40383 65.8405C6.20496 65.8905 6.01604 65.9404 5.88677 65.9904Z" fill="#4CA4DB"/>
<path d="M6.66237 65.8005C6.71209 65.7905 6.69222 65.7902 6.70217 65.7902C6.732 65.7902 6.76181 65.7805 6.79165 65.7805C6.7817 65.7805 6.77176 65.7805 6.76182 65.7805H6.73199C6.72204 65.7805 6.73197 65.7805 6.71208 65.7805L6.66237 65.8005L6.60271 65.8103C6.61265 65.8103 6.61264 65.8103 6.62259 65.8103C6.63253 65.8003 6.65243 65.8005 6.66237 65.8005Z" fill="#4CA4DB"/>
<path d="M3.10247 75.3706C2.77432 75.2806 2.36664 75.2206 2.40642 75.1006C2.3567 74.9006 2.60528 74.9406 2.79421 74.8506C3.24168 74.9606 3.71899 75.2206 3.75876 75.6206C3.84826 75.4806 3.94769 75.3309 4.03719 75.1909C4.53438 75.1709 5.06142 75.2104 5.63816 75.2104C5.78732 75.2104 5.93646 75.2107 6.08561 75.2007C6.23477 75.1907 6.39387 75.1806 6.55297 75.1606C6.71207 75.1406 6.87119 75.1106 7.03029 75.0806C7.18939 75.0506 7.35843 75.0009 7.52748 74.9409C7.40815 75.1909 7.29879 75.3507 7.13969 75.4307C7.06013 75.4707 6.97061 75.5007 6.86123 75.5107C6.75185 75.5208 6.6226 75.5105 6.45356 75.5005C6.3044 75.9005 6.2646 76.0608 6.33421 76.0908C6.39387 76.1208 6.55299 76.0209 6.75186 75.8809C6.95074 75.7509 7.1695 75.5707 7.3982 75.4707C7.63686 75.3607 7.87551 75.3305 8.08433 75.4805C7.98489 75.3705 8.10421 75.2406 8.29314 75.1206C8.47213 75.0006 8.72075 74.8607 8.87985 74.7607C8.74064 74.7407 8.59146 74.7109 8.45225 74.6909L8.29314 74.9209L8.12411 75.1406C7.85563 75.1906 7.70647 75.1506 7.62692 75.0806C7.55732 75.0106 7.55731 74.9007 7.58714 74.7807C7.65675 74.5507 7.81586 74.2709 7.78603 74.1709C7.92524 74.0909 8.04457 74.0307 8.1639 73.9907C8.28322 73.9507 8.40252 73.9306 8.51191 73.9106C8.63123 73.9006 8.74062 73.9008 8.85995 73.9008C8.97927 73.9008 9.08866 73.9106 9.20799 73.9106C9.44664 73.9206 9.69522 73.9005 9.94382 73.8105C10.0731 73.7705 10.2024 73.6908 10.3316 73.5908C10.4609 73.4908 10.5902 73.3609 10.7194 73.1909C10.5404 72.9708 10.3714 73.1606 10.262 72.9106C10.3615 72.7106 10.3316 72.5806 10.3515 72.4306C10.3615 72.2906 10.4311 72.1608 10.6598 71.9008C10.7493 71.8608 10.8288 71.8006 10.8885 71.7406C10.9482 71.6706 10.9879 71.6004 11.0178 71.5204C11.0476 71.4404 11.0774 71.3604 11.0874 71.2704C11.0973 71.1804 11.1073 71.0904 11.1073 71.0004C11.1073 70.9104 11.1172 70.8203 11.1172 70.7303C11.1172 70.6403 11.1271 70.5405 11.1371 70.4505C11.1669 70.2705 11.2166 70.0907 11.3459 69.9007C11.674 69.7807 11.7238 70.0304 11.7238 70.3304C11.7238 70.6204 11.6542 70.9308 11.8729 70.9208C11.9922 70.8008 12.1215 70.6806 12.2408 70.5506C12.2806 70.2806 12.4696 70.0105 12.569 69.7005C12.6883 69.4005 12.7082 69.0904 12.5093 68.8504L12.748 68.8304C12.738 68.8004 12.7281 68.7605 12.7182 68.7205C12.5988 68.2805 12.4795 67.7405 12.2806 67.2805C12.0817 66.8205 11.8232 66.4806 11.5448 66.4006C11.3956 66.0006 11.1669 65.6305 10.8885 65.3005L10.8587 65.2702L10.8487 65.2502C10.8388 65.2402 10.8288 65.2304 10.8189 65.2204C10.799 65.2004 10.7592 65.1904 10.7294 65.1804C10.6101 65.1404 10.4112 65.1206 10.1626 65.1306L10.2123 65.1203C10.3814 65.0803 10.3416 65.0903 10.2422 65.1003C10.1825 65.1103 10.1228 65.1206 10.0731 65.1306C10.0532 65.1306 10.0433 65.1306 10.0234 65.1306C9.89412 65.1406 9.76483 65.1606 9.63556 65.1906C9.60573 65.2006 9.58586 65.2102 9.55603 65.2102C9.50631 65.2102 9.46652 65.2202 9.44663 65.2102C9.59579 65.1601 9.86428 65.1203 10.0532 65.0803C9.99355 65.0603 9.89412 65.0705 9.77479 65.1105C9.65547 65.1405 9.5262 65.1904 9.43671 65.1804C9.47648 65.1504 9.50631 65.1205 9.5262 65.0705C9.55603 65.0305 9.5759 64.9906 9.60573 64.9406C9.68528 64.8506 9.79467 64.7404 10.0433 64.7204C9.76484 64.6704 9.49635 64.6104 9.22786 64.5304C8.91961 64.6204 8.49204 64.7202 8.09428 64.8102C7.83574 64.9102 7.63687 64.9604 7.5076 64.9304C7.40816 65.0204 7.33855 65.1201 7.27888 65.2102C7.20928 65.2902 7.15955 65.3706 7.11978 65.4406C7.04023 65.5506 6.98057 65.6404 6.91097 65.7204C6.98057 65.7204 7.05018 65.7204 7.0999 65.7204C7.30872 65.7304 7.5076 65.7806 7.69654 65.8606C7.88547 65.9406 8.0744 66.0504 8.28322 66.1604C8.27328 66.1304 8.25337 66.0903 8.23348 66.0603C8.22354 66.0403 8.2136 66.0302 8.20365 66.0202C8.19371 66.0102 8.18377 65.9904 8.18377 65.9704C8.19372 65.9004 8.2136 65.8302 8.24343 65.7702C8.53181 65.7702 8.70084 65.8106 8.82016 65.9006C8.93949 65.9806 9.0091 66.1002 9.06876 66.2502C9.12842 66.4002 9.18809 66.5905 9.25769 66.7805C9.3273 66.9705 9.38696 67.1503 9.47646 67.2903C9.35713 67.2803 9.23782 67.2903 9.1185 67.2903C9.22788 67.4503 9.20799 67.7006 9.20799 67.8606C9.20799 68.0306 9.23781 68.1306 9.50629 68.0906C9.49635 67.8406 9.59579 67.6805 9.38697 67.5105C9.52618 67.3605 9.68528 67.5305 9.81454 67.5105C9.90404 67.6805 10.0333 67.8706 10.083 68.0906C10.1427 68.3006 10.1328 68.5205 9.97365 68.6805C10.0035 68.7005 10.0234 68.7303 10.0433 68.7703C10.093 68.8603 10.1129 68.9907 10.1328 69.1107C10.1427 69.2407 10.1427 69.3706 10.1626 69.4906C10.1924 69.7206 10.272 69.8904 10.6299 69.8104C10.6101 69.8904 10.5902 69.9706 10.5603 70.0506C10.5305 70.1306 10.5007 70.2104 10.4708 70.2904C10.4112 70.4604 10.3217 70.6104 10.2422 70.7704C10.0632 71.0804 9.85435 71.3905 9.62564 71.6806C9.16822 72.2606 8.64119 72.7707 8.15394 73.3207C7.99484 73.1807 7.85562 73.2205 7.70646 73.2704C7.56725 73.3305 7.43799 73.4008 7.31867 73.3408C7.30872 73.0208 6.87118 73.1205 6.71208 72.8705C6.42371 73.1805 6.04587 73.3905 5.64811 73.5405C5.25036 73.6905 4.82276 73.7905 4.38523 73.8505C3.52012 73.9706 2.64506 73.9904 1.77995 74.2104C1.25293 74.7304 0.914834 74.5909 0.43753 74.6509C1.02422 75.2809 2.07827 75.7407 3.21186 75.9107C3.68917 75.6207 3.43061 75.4706 3.10247 75.3706Z" fill="#4CA4DB"/>
<path d="M6.46348 65.8303H6.44361L6.22484 65.8703L6.1254 65.8904H6.10552C6.20496 65.8703 6.31435 65.8503 6.42373 65.8303C6.44362 65.8403 6.45354 65.8403 6.46348 65.8303Z" fill="#4CA4DB"/>
<path d="M6.46348 65.8303L6.60271 65.8005C6.56294 65.8105 6.5132 65.8203 6.46348 65.8303Z" fill="#4CA4DB"/>
<path d="M6.9408 65.8103C7.07007 65.8403 7.20929 65.8906 7.28884 65.8806C7.38828 65.8606 7.27887 65.8005 7.07999 65.7805C7.04022 65.7705 6.99052 65.7702 6.9408 65.7702C6.93085 65.7802 6.92091 65.7905 6.91097 65.8005C6.92091 65.8105 6.93085 65.8103 6.9408 65.8103Z" fill="#4CA4DB"/>
<path d="M4.54433 66.4504C4.62388 66.4304 4.50456 66.4603 5.01169 66.3303L4.62387 66.4304L4.50455 66.4602L4.42501 66.4802C4.43496 66.4802 4.43494 66.4802 4.44489 66.4802C4.46478 66.4702 4.50456 66.4604 4.54433 66.4504Z" fill="#4CA4DB"/>
<path d="M7.68657 66.9705C7.73629 67.1605 7.786 67.3605 7.82577 67.5305C7.83572 67.6405 7.79594 67.8007 7.76611 67.9407C7.80589 67.8907 7.85562 67.8606 7.87551 67.8006C7.91528 67.7606 7.96501 67.6906 8.00478 67.6106C8.02467 67.5706 8.04456 67.5302 8.06444 67.4802C8.07439 67.4602 8.08433 67.4304 8.09428 67.4104C8.10422 67.3804 8.1042 67.3704 8.1042 67.3503C8.11414 67.2104 8.08431 67.0406 8.04454 66.9006C7.96499 66.6106 7.8059 66.3905 7.68657 66.2805C7.56725 66.3905 7.60702 66.6304 7.68657 66.9705Z" fill="#4CA4DB"/>
<path d="M7.7164 68.0706C7.70646 68.1006 7.69652 68.1307 7.72635 68.1507C7.7363 68.1607 7.75616 68.1705 7.76611 68.1805C7.77605 68.1905 7.78599 68.1905 7.79594 68.2005C7.80588 68.2005 7.80589 68.2005 7.80589 68.2005C7.73628 68.1805 7.74623 68.0805 7.77606 67.9505C7.74623 67.9805 7.72634 68.0206 7.7164 68.0706Z" fill="#4CA4DB"/>
<path d="M8.70084 66.3805C8.64118 66.3205 8.57158 66.2804 8.49203 66.3605C8.49203 66.5205 8.69092 66.6904 8.87985 66.8004C8.86991 66.7204 8.85001 66.6502 8.84007 66.5802C8.80029 66.5502 8.7605 66.4405 8.70084 66.3805Z" fill="#4CA4DB"/>
<path d="M8.28322 68.8304C8.30311 68.7304 8.40252 68.7406 8.51191 68.7806C8.62129 68.8106 8.74062 68.8803 8.80029 68.7503C8.79034 68.6903 8.77047 68.6204 8.75058 68.5603C8.57159 68.6303 8.39259 68.6905 8.2136 68.7405C8.24344 68.7605 8.26333 68.8004 8.28322 68.8304Z" fill="#4CA4DB"/>
<path d="M8.29315 69.1204C8.29315 69.1704 8.2335 69.1903 8.18378 69.2103C8.13406 69.2303 8.08435 69.2403 8.12412 69.2703C8.18379 69.3103 8.2534 69.3407 8.31306 69.3807C8.38267 69.3307 8.4125 69.2805 8.4125 69.2405C8.39262 69.2005 8.35281 69.1604 8.29315 69.1204Z" fill="#4CA4DB"/>
<path d="M9.30743 69.0201C9.39692 68.9401 9.58585 68.9302 9.61568 68.8502C9.62563 68.8302 9.61567 68.7901 9.5759 68.7501C9.53612 68.6401 9.38696 68.7604 9.31735 68.8604C9.25769 68.9204 9.23782 68.9901 9.30743 69.0201Z" fill="#4CA4DB"/>
<path d="M12.0221 72.3305C12.1315 72.1705 12.211 72.0208 12.2608 71.8808C12.3105 71.7408 12.3403 71.6006 12.3602 71.4706C12.4 71.2106 12.39 70.9307 12.4199 70.5907C12.39 70.9407 12.2409 71.2704 12.1116 71.5404C12.0022 71.8304 11.9127 72.0605 12.0221 72.3305Z" fill="#4CA4DB"/>
<path d="M6.76182 55.8803L6.5828 55.9902C6.63252 56.2202 6.6922 56.4301 6.75186 56.6401C6.94079 56.4001 6.85131 56.0903 6.76182 55.8803Z" fill="#4CA4DB"/>
<path d="M7.18939 59.3003C7.259 58.7603 6.81153 58.17 6.85131 57.54C6.76181 57.41 6.66238 57.2701 6.57288 57.1401C6.4635 57.5301 6.374 58.0603 6.35412 58.5703C6.34417 59.0803 6.39387 59.5504 6.55298 59.9004C7.08994 60.0604 6.82147 59.7303 7.18939 59.3003Z" fill="#4CA4DB"/>
<path d="M6.88114 65.1203C6.93086 65.0503 6.97064 64.9806 6.98058 64.8806C6.99052 64.7705 6.98056 64.6604 6.96067 64.5304C6.95073 64.4704 6.93085 64.3902 6.91097 64.3102C6.89108 64.2302 6.87118 64.1402 6.84135 64.0602C6.80158 63.9002 6.74192 63.6804 6.72203 63.4904C6.77175 63.3804 6.83142 63.2806 6.91097 63.1906C6.93085 63.1706 6.95074 63.1402 6.97063 63.1202L7.00046 63.0905C7.00046 63.1005 7.02033 63.0504 7.02033 63.0504H7.03029C7.06012 63.0404 7.08996 63.0301 7.12973 63.0201C7.44793 62.9301 7.5573 62.9402 7.60702 63.0602C7.6269 63.1102 7.61696 63.1902 7.60702 63.2702V63.3102L7.59709 63.3405L7.58714 63.3703C7.5772 63.4103 7.56724 63.4504 7.54736 63.4904C7.51752 63.5704 7.49765 63.6501 7.46782 63.7301C7.47776 63.8401 7.49766 63.9504 7.5076 64.0504C7.51755 64.1405 7.53741 64.2202 7.54736 64.2902C7.58713 64.4302 7.63685 64.5204 7.73629 64.5304C7.70646 64.4504 7.79597 64.4002 7.90535 64.3302C7.96501 64.2902 8.02468 64.2506 8.06445 64.1906C8.10423 64.1306 8.1241 64.0506 8.11416 63.9406C8.15394 64.2706 8.21359 64.3002 8.3528 64.2902C8.49202 64.2702 8.6909 64.1703 8.85995 64.1603C8.98922 64.1403 9.0986 64.1702 9.1682 64.2502C9.18809 64.2602 9.19804 64.2805 9.20799 64.3005C9.21793 64.2905 9.23783 64.2802 9.24777 64.2702C9.33727 64.2002 9.40687 64.1505 9.46654 64.1105C9.54609 64.0305 9.60574 63.9605 9.67535 63.9005C9.79467 63.7805 9.88418 63.6905 9.99356 63.6305C10.2123 63.5005 10.441 63.4401 10.9482 63.2301C10.9581 62.8301 10.8089 62.6602 10.6101 62.5602C10.4112 62.4602 10.1825 62.4204 10.0333 62.3004C9.97365 62.1104 9.97365 61.9401 10.0035 61.7701C10.0433 61.6001 10.1029 61.4601 10.1725 61.3101C10.3118 61.0101 10.451 60.7202 10.3515 60.4302C10.8885 60.6402 11.0874 60.37 11.1371 59.98C11.1868 59.59 11.0874 59.0903 11.0575 58.7803C11.0675 58.3803 10.8288 58.3302 10.6001 58.2602C10.3714 58.2002 10.1427 58.1202 10.1825 57.7002C10.441 57.5102 10.6001 57.7104 10.7791 57.9004C10.9481 58.0804 11.1371 58.2502 11.4056 57.9902L11.1968 57.6504C10.7891 57.4304 10.272 57.2203 10.0035 56.9003C10.0134 56.8203 10.0234 56.7103 10.0532 56.6303C10.083 56.5503 10.1328 56.5002 10.2123 56.5102C10.3217 56.8502 10.7493 56.7903 11.0178 56.5702C10.8786 56.4102 10.8487 56.3702 10.7095 56.2602C10.4013 56.3302 10.2422 56.3402 10.1825 56.2802C10.1228 56.2302 10.1626 56.1101 10.2222 55.9701C10.2521 55.9001 10.3018 55.8299 10.3316 55.7499C10.3714 55.6699 10.4013 55.6202 10.4311 55.5502C10.4808 55.4102 10.5106 55.27 10.441 55.08C10.441 54.68 10.5902 54.4903 10.7493 54.4403C10.9084 54.3903 11.0973 54.48 11.2763 54.6C11.4553 54.71 11.6343 54.8503 11.7934 54.9003C11.8729 54.9303 11.9425 54.9403 12.0122 54.9203C12.211 55.0803 12.4199 55.2501 12.6386 55.4101C12.8972 55.6201 13.1656 55.8302 13.4441 56.0302C13.7225 56.2402 14.0108 56.4301 14.2992 56.6601C14.3788 56.6501 14.4384 56.6501 14.4484 56.6201C14.7865 56.7001 15.1445 56.8204 15.5223 56.9404C15.9002 57.0704 16.288 57.2303 16.6857 57.3603C16.8846 57.4303 17.0835 57.48 17.2923 57.54C17.4912 57.6 17.7 57.6502 17.8989 57.7002C18.3066 57.7902 18.7242 57.8103 19.1419 57.8003C18.5154 57.4403 18.5552 57.3 17.5409 56.83C18.048 56.63 18.4458 56.8 18.8435 57.06C18.943 57.12 19.0424 57.1902 19.1319 57.2602C19.2314 57.3302 19.3208 57.4099 19.4203 57.4799C19.6192 57.6299 19.828 57.7601 20.0567 57.8501C19.7087 57.6301 19.8081 57.5503 20.0766 57.5503C20.355 57.5503 20.8025 57.6302 21.1306 57.7602C22.294 58.4402 24.2132 59.32 25.7943 60.23C26.6196 60.39 28.5388 62.1705 28.6084 61.4005C29.0857 61.7105 29.2746 61.9901 29.4238 62.2701C29.4934 62.4101 29.5531 62.5505 29.6326 62.6905C29.7122 62.8406 29.8016 62.9903 29.9409 63.1403C30.5474 63.3603 31.0247 63.7105 31.3926 64.1506C31.7705 64.5906 32.0788 65.0705 32.3671 65.5905C32.6555 66.1005 32.9638 66.6003 33.3019 67.0403C33.64 67.4803 34.0576 67.8704 34.6244 68.1805C34.4255 68.2505 34.515 68.5103 34.684 68.7903C34.8531 69.0703 35.0818 69.3904 35.1812 69.5804C35.3105 69.7804 35.4597 70.0506 35.6188 70.3207C35.6884 70.4607 35.7779 70.6003 35.8475 70.7303C35.9171 70.8703 35.9966 71.0005 36.0663 71.1205C36.1259 71.2405 36.1955 71.3508 36.2651 71.4408C36.3347 71.5308 36.3944 71.6105 36.464 71.6605C36.6032 71.7605 36.7524 71.7705 36.9015 71.6205C36.9811 71.4405 36.9811 71.2406 36.9015 71.0306C36.8419 70.8206 36.6927 70.6005 36.5535 70.3705C36.2452 69.9204 35.8872 69.4607 35.7978 68.8807C35.6983 68.3907 35.7282 68.2203 35.8475 68.2503C35.9668 68.2803 36.1856 68.5103 36.4143 68.8104C36.8816 69.3904 37.3391 70.2405 37.6473 70.1205C37.528 70.0205 37.6075 69.8705 37.6175 69.6605C37.6274 69.4505 37.5976 69.1604 37.2794 68.8304C37.5877 69.2004 37.7467 69.3304 37.8462 69.3104C37.9456 69.2904 37.9655 69.1307 37.9854 68.9407C38.0053 68.5607 37.9456 68.0407 38.3931 68.4007C38.3434 68.2607 38.2937 68.1303 38.244 68.0003C38.1942 67.8803 38.1445 67.7704 38.1047 67.6604C38.0649 67.5504 38.0152 67.4506 37.9854 67.3606C37.9456 67.2706 37.9058 67.1906 37.876 67.1106C37.8064 66.9506 37.7567 66.8207 37.707 66.6907C37.6573 66.5707 37.6175 66.4606 37.5877 66.3606C37.4683 65.9406 37.4783 65.6203 37.3987 64.8503C36.8518 64.3403 36.5336 64.2905 36.2949 64.3405C36.0563 64.3905 35.8873 64.5504 35.6287 64.5304C35.3105 64.3204 35.042 64.1003 34.8133 63.8503C34.5846 63.6002 34.3857 63.3405 34.1968 63.0704C33.8189 62.5404 33.4411 62.0405 32.8942 61.6905C33.6002 61.6005 33.3317 61.0803 32.6853 60.4903C32.5262 60.3403 32.3472 60.1901 32.1583 60.0401C32.0589 59.9601 31.9694 59.8901 31.87 59.8101C31.7705 59.7401 31.6611 59.6604 31.5617 59.5904C31.154 59.3103 30.7463 59.0303 30.4281 58.8203C29.6127 58.2403 29.3442 58.3504 29.0658 58.4404C28.7874 58.5404 28.5189 58.6 27.6538 58.04C27.3455 57.55 27.8825 57.6802 28.3896 57.7802C28.6482 57.8302 28.8868 57.8801 29.0161 57.8501C29.1454 57.8101 29.1553 57.6803 28.9365 57.3803L27.9918 57.06C27.6239 57.08 27.266 57.1404 26.908 57.1904C26.5401 57.2404 26.1821 57.2802 25.7943 57.2402C25.6053 57.1402 25.3667 57.0101 25.1877 56.8901C25.0087 56.7701 24.8695 56.6703 24.8993 56.5903C25.317 56.7003 25.5059 56.6499 25.5158 56.4799C25.5158 56.3999 25.4761 56.2803 25.3866 56.1503C25.2971 56.0203 25.1579 55.8799 24.9888 55.7299C24.5414 55.6899 24.422 55.6899 24.1734 55.7499C24.7104 56.6599 24.2828 56.47 23.5669 56.06C22.841 55.68 21.7869 55.0801 21.0909 55.1801C20.6334 55.1301 20.2755 55.0601 19.9871 54.9701C19.6987 54.9001 19.4799 54.8098 19.301 54.7098C18.9529 54.5098 18.7938 54.2599 18.6447 53.9999C18.4955 53.7299 18.3364 53.4698 17.9983 53.2298C17.8293 53.1098 17.6105 53.0002 17.3321 52.9002C17.1929 52.8502 17.0338 52.8001 16.8548 52.7601C16.6758 52.7201 16.4769 52.6902 16.2482 52.6702C16.646 53.2902 16.0394 53.2699 15.2041 53.0999C14.9953 53.0599 14.7666 53.02 14.5379 52.97C14.4683 52.96 14.4086 52.9503 14.339 52.9403C14.3291 52.7803 14.2992 52.6102 14.2396 52.4402C14.0904 52.0002 13.7424 51.55 13.2651 51.2C12.7877 50.85 12.1812 50.59 11.5348 50.45C11.4752 50.49 11.4254 50.5301 11.4354 50.5501C10.8487 50.7001 10.1825 50.87 9.58586 51.22C9.28754 51.39 9.01904 51.6099 8.79033 51.8699C8.57157 52.1299 8.40253 52.4398 8.33293 52.7698C8.56163 52.5998 8.71081 52.5498 8.87985 52.4798C9.0489 52.4098 9.24775 52.3202 9.59578 52.1302C9.56595 52.5902 9.34719 52.7402 9.03893 52.8802C8.74061 53.0202 8.36275 53.1598 8.14399 53.4798C8.38264 53.2698 8.44232 53.3902 8.41249 53.5902C8.40255 53.6902 8.3727 53.8298 8.33293 53.9598C8.29315 54.0998 8.25337 54.23 8.20365 54.35C8.13404 54.45 8.0545 54.5601 7.99484 54.6801C7.97495 54.7101 7.96502 54.7402 7.94513 54.7802C7.93519 54.8102 7.91529 54.8402 7.90535 54.8602C7.88546 54.9202 7.85561 54.9802 7.82578 55.0302C7.72634 55.2702 7.65675 55.53 7.58714 55.81C7.46781 56.36 7.44793 56.9204 7.43799 57.4204C7.54737 57.6404 7.51754 58.0802 7.53743 58.4302C7.56726 58.7802 7.6468 59.0404 7.98489 58.9404C8.02466 59.2004 7.9153 59.36 7.78603 59.5C7.65676 59.64 7.4877 59.77 7.42803 59.96C7.86556 60.49 7.51754 61.0002 7.15956 61.4102C6.80158 61.7902 6.4436 61.9603 6.81152 62.4703C6.62259 62.3903 6.52316 62.4501 6.44361 62.5201C6.40383 62.5601 6.38393 62.6105 6.36404 62.6505C6.35409 62.6705 6.34415 62.6901 6.33421 62.7101C6.32426 62.7201 6.32429 62.7304 6.32429 62.7404C6.32429 62.7504 6.32428 62.7404 6.31433 62.7604L6.29446 62.8004C6.29446 62.8104 6.29445 62.8102 6.2845 62.8102L6.27455 62.8302C6.25466 62.8602 6.23478 62.9003 6.22484 62.9303C6.2149 62.9503 6.20495 62.9701 6.19501 62.9801C6.18507 63.0001 6.17512 63.0202 6.16518 63.0402C6.1254 63.1202 6.08563 63.2002 6.04586 63.2902C6.08563 63.4402 6.12541 63.6004 6.17513 63.7604C6.21491 63.8904 6.25468 64.0306 6.29446 64.1706C6.33423 64.3106 6.38394 64.4502 6.41378 64.5402C6.45355 64.6402 6.48337 64.7305 6.52314 64.8205C6.54303 64.8605 6.56294 64.9006 6.57288 64.9406C6.58282 64.9706 6.60269 65.0002 6.61263 65.0202C6.64247 65.0702 6.67232 65.1103 6.70216 65.1403C6.73199 65.1803 6.80159 65.1803 6.88114 65.1203Z" fill="#4CA4DB"/>
<path d="M58.3702 55.7899C58.4995 55.9599 58.6188 56.2299 58.6486 56.4599C58.6785 56.6899 58.6288 56.88 58.4597 56.89L58.3106 57.0502C58.2807 56.9702 58.2211 56.81 58.1614 56.64C58.1017 56.47 58.0321 56.28 57.9923 56.12C57.9227 55.8 57.9625 55.5699 58.3702 55.7899Z" fill="#3DA935"/>
<path d="M62.5168 53.9598V53.7899C62.5168 53.9599 62.5864 54.1902 62.6461 54.3202C62.5069 54.4002 62.2284 54.2103 62.1588 53.9002C62.308 53.9002 62.4472 54.1698 62.5168 53.9598Z" fill="#3DA935"/>
<path d="M62.3975 62.2604C62.8947 62.1904 63.3819 61.4703 63.5808 60.7203L64.426 60.6402C64.3266 60.9302 64.426 61.2802 64.5752 61.6402C64.7144 62.0002 64.9133 62.3801 65.0525 62.7301C65.311 62.9401 65.0724 61.9804 65.4801 62.6105C65.4005 62.7305 65.1817 62.7405 65.1618 62.9205C65.5894 63.4606 66.0668 62.9202 66.3949 64.3302L66.1861 64.9103C66.5739 66.0804 67.1208 67.2304 67.608 68.3904C68.0655 69.5605 68.4732 70.7308 68.6024 71.9208C69.0996 72.2208 69.2686 73.4408 69.6962 74.0908L69.4675 74.1606C69.9647 74.4706 69.6565 75.2805 69.8056 75.7905L69.6764 76.3008C69.3184 76.5608 69.209 75.0406 68.7218 75.5806C68.5925 76.6306 69.6167 77.1006 69.3781 78.0206C69.4477 78.8506 69.7161 78.7008 69.9349 79.1808C70.2034 79.2608 70.1437 78.9708 70.4321 78.9708C70.9193 80.7909 69.6664 81.1111 70.0642 82.6911C70.273 82.7111 70.9691 83.9409 71.0884 82.6809C70.979 82.5009 70.8597 82.3211 70.7403 82.1511L70.9392 81.7106C70.979 81.9306 71.0387 82.2509 71.1083 82.4909C71.1779 82.7309 71.2674 82.911 71.3966 82.841C70.9889 83.2111 71.3071 83.9407 71.5458 84.4607C71.7844 84.9807 71.9237 85.2708 71.1381 84.7508C71.2574 83.9607 71.1779 83.7408 70.7403 83.3108C70.8199 84.1708 70.8199 85.0011 70.8298 85.7811C70.8398 86.1711 70.8199 86.5512 70.8298 86.9212C70.8298 87.2913 70.8497 87.6511 70.8795 88.0111L71.337 88.3812C70.9392 88.4512 70.7503 89.171 70.7105 89.851C70.8199 90.131 70.8099 90.5113 71.0088 90.4013C71.1281 90.4613 71.1381 89.8313 71.1779 89.3412C71.2177 88.8512 71.337 88.4909 71.7546 89.061C71.7546 89.261 71.7546 89.4611 71.7447 89.6611C71.7347 89.8611 71.7148 90.0609 71.6949 90.271C71.6552 90.671 71.6054 91.0712 71.5358 91.4512C71.4066 92.2112 71.2177 92.8912 70.9591 93.4112C70.81 92.6812 70.8796 92.1411 70.2829 91.4111C70.1934 91.0911 70.1139 90.7611 70.0542 90.4311C69.9946 90.1011 69.9349 89.7713 69.8752 89.4413C69.7559 88.7713 69.6664 88.101 69.567 87.431C69.5173 87.101 69.4675 86.761 69.4178 86.431C69.3581 86.101 69.2885 85.771 69.209 85.451C69.0499 84.801 68.861 84.1711 68.6124 83.571C68.8808 83.431 68.8908 82.7509 69.199 82.9109C69.3581 82.6409 69.03 82.041 69.3979 81.801C69.209 81.331 69.0598 80.8407 68.9306 80.3307C68.8709 80.0807 68.8112 79.8207 68.7615 79.5607L68.6919 79.171L68.6124 78.7906C68.4035 77.7606 68.2544 76.7506 68.0953 75.8706C67.797 76.1906 67.6379 75.9508 67.4788 75.5908C67.3197 75.2208 67.1904 74.7305 66.9816 74.5205C67.1705 73.9905 66.8424 73.2506 66.6932 72.6806C66.554 72.6506 66.4247 72.3106 66.2557 72.4506C66.4446 72.8506 66.3352 73.0407 66.375 73.4907C66.0966 73.4707 66.0469 73.2406 66.0469 72.9306C66.0469 72.7806 66.0568 72.6006 66.0667 72.4306C66.0667 72.2606 66.0568 72.0808 66.017 71.9208L66.3949 72.1806C66.1065 71.1205 66.6136 69.5906 65.848 68.7806L65.5994 69.7406C65.4602 69.4605 65.3707 69.1506 65.3011 68.8206C65.2215 68.5006 65.1619 68.1704 65.0923 67.8504C64.953 67.2104 64.784 66.6305 64.3465 66.3005C64.426 67.1405 65.2215 68.3203 64.5553 68.5003C64.1973 68.5603 63.9189 67.6604 63.9288 67.1804C63.9388 66.6604 63.8294 66.2205 63.6703 65.8005C63.5012 65.3905 63.2626 65.0306 63.0538 64.6706C62.5963 63.9306 62.2185 63.2304 62.3975 62.2604Z" fill="#3DA935"/>
<path d="M62.1787 65.1506C62.7455 66.6306 63.3819 65.5703 63.7797 67.0603C63.372 66.9903 63.3123 67.8003 63.4416 68.2903C63.6206 68.4903 63.72 68.7403 63.7896 69.0003C63.8294 69.1303 63.8592 69.2504 63.889 69.3704C63.9189 69.4904 63.9388 69.6103 63.9686 69.7103C63.9785 70.0203 63.541 70.1004 63.372 69.5604C63.5012 68.7804 63.1532 68.0406 62.8052 67.3206C62.6262 66.9606 62.4571 66.6005 62.3378 66.2405C62.1986 65.8804 62.129 65.5206 62.1787 65.1506Z" fill="#3DA935"/>
<path d="M64.5951 69.7005C64.784 70.1705 64.9033 71.3707 64.4459 71.5307C64.426 71.6107 64.1576 71.5604 64.3167 71.8104C64.3465 71.3404 64.0382 70.0705 64.5951 69.7005Z" fill="#3DA935"/>
<path d="M65.6392 70.0803C65.9574 69.8803 65.848 70.4706 65.8878 70.6106L65.8181 70.9505C65.669 70.7005 65.5198 70.3604 65.6392 70.0803Z" fill="#3DA935"/>
<path d="M65.7485 74.6006C65.7883 75.3506 65.1121 73.9705 65.2712 74.8306L65.1022 74.3506L65.5994 74.0307L65.7485 74.6006Z" fill="#3DA935"/>
<path d="M65.5298 75.8106C65.6988 75.9806 65.7983 76.1808 65.7684 76.5708L65.5298 76.4209C65.4204 76.3009 65.6093 76.0906 65.5298 75.8106Z" fill="#3DA935"/>
<path d="M66.5341 74.5706C66.7429 74.8906 66.4546 74.9007 66.3949 75.1507C66.206 75.0607 66.4048 74.2306 66.5341 74.5706Z" fill="#3DA935"/>
<path d="M70.6409 77.3506C70.1238 77.1106 70.2431 76.3708 69.9747 75.7407C70.2431 76.3608 70.5514 76.5906 70.6409 77.3506Z" fill="#3DA935"/>
<path d="M55.6755 51.3001C55.6755 50.9601 55.397 50.7101 55.1882 50.5901L55.1186 50.8001L55.6755 51.3001Z" fill="#3DA935"/>
<path d="M57.4156 55.2602C58.0322 55.3202 57.5648 54.9298 57.6543 54.2098C57.525 53.8298 57.2764 53.4903 57.0179 53.1702C56.7494 52.8502 56.471 52.54 56.292 52.18L55.8047 51.8899C55.9439 52.3499 56.1727 52.9699 56.4511 53.5799C56.7295 54.1899 57.0577 54.8101 57.4156 55.2602Z" fill="#3DA935"/>
<path d="M51.5786 44.8295C51.8471 45.2496 52.0758 45.8098 52.3841 46.3398C52.5332 46.5998 52.7122 46.8599 52.9111 47.0899C53.0105 47.1999 53.1298 47.3097 53.2492 47.4097C53.3685 47.5097 53.4977 47.5997 53.637 47.6797C53.4779 47.1797 53.6071 47.0896 53.279 46.3496C53.7364 46.4196 53.8756 46.6998 53.9552 47.0298C54.0248 47.3698 54.0248 47.7599 54.2038 48.0699C54.0447 47.4799 54.6811 48 54.9794 48.42C55.1385 48.88 55.4169 49.4296 55.745 49.9996C56.0533 50.5796 56.4013 51.1997 56.7195 51.7697C56.9582 51.9597 57.2068 52.5101 57.4554 52.9401C57.694 53.3801 57.9227 53.6999 58.1713 53.4299C58.5691 54.1199 58.1515 54.45 58.2708 55.0501C58.6387 55.3601 58.8276 55.7302 58.9271 56.1302C59.0265 56.5302 59.0166 56.97 59.0166 57.41C59.0265 58.29 59.0564 59.1502 59.8717 59.8202C59.4541 59.8702 59.8519 60.71 59.9612 61.06C60.2297 61.8 60.896 63.5504 61.4429 62.9004C61.7213 62.2104 60.538 61.5 60.6971 60.54C60.9158 58.8899 61.5423 61.81 62.1986 61.58C61.9997 61.43 62.5168 61.1 62.0793 60.58C62.8847 61.74 62.5665 59.7699 63.2228 60.2699C63.1234 59.4599 63.0836 59.0802 63.1333 58.7801C63.183 58.4701 63.3322 58.2303 63.5609 57.6903C63.0438 56.8602 62.5963 57.3498 62.1886 57.2298C61.8307 56.8398 61.7511 56.3802 61.6915 55.9202C61.6318 55.4702 61.6119 55.0099 61.3335 54.6599C62.5864 54.8099 61.4329 52.9697 60.9556 52.0397C60.6871 51.4197 60.4186 51.4201 60.1601 51.4201C59.9016 51.4201 59.6331 51.3997 59.3447 50.7496C59.4641 49.8796 60.6175 51.7198 60.6672 50.6398L60.1701 50.1598C59.6132 49.9798 58.9867 49.93 58.4895 49.63C58.3503 49.37 58.1316 48.9797 58.2708 48.8897C58.6984 49.3197 58.9669 48.9699 58.8774 48.3199C58.589 48.1499 58.5194 48.1099 58.3106 48.0699C57.9029 49.6699 57.6244 47.0099 56.64 46.6099C55.6357 45.7798 55.7451 45.3496 55.9141 44.8696C56.0831 44.3996 56.3019 43.8897 55.4567 42.9896C55.228 43.5697 54.9098 43.2995 54.5617 42.8295C54.3927 42.5895 54.1938 42.3094 53.9949 42.0594C53.7961 41.8094 53.5972 41.5893 53.4083 41.4793C53.0602 40.9093 53.1597 40.5493 53.1597 39.9793C52.9707 39.8893 52.6326 39.4896 52.4338 39.5296C51.9863 40.0696 51.7277 40.8396 51.5885 41.7396C51.5189 42.1896 51.4792 42.6796 51.4692 43.1996C51.4593 43.4596 51.4692 43.7197 51.4692 43.9897C51.4792 44.2597 51.4891 44.5295 51.499 44.8095C51.509 44.8195 51.5587 44.8495 51.5786 44.8295Z" fill="#3DA935"/>
<path d="M56.6698 28.0092C56.6002 28.4492 56.5803 29.0693 56.5505 29.2993L56.7593 29.1992C57.0875 29.3892 57.2665 28.3892 57.1471 27.7992C56.8488 27.2992 56.7295 27.5692 56.6698 28.0092Z" fill="#FCEA0D"/>
<path d="M61.3733 27.5191C61.3235 28.0191 61.4827 28.4793 61.6418 28.4693C61.6418 28.2193 61.6716 27.8494 61.7412 27.5894L61.6716 27.8492C61.5224 28.1192 61.5025 27.6291 61.3733 27.5191Z" fill="#FCEA0D"/>
<path d="M56.1229 38.1298C55.7152 38.1698 55.397 38.0695 55.2578 37.8495C54.691 38.1395 54.2435 38.4597 53.8259 38.8197C53.4083 39.1797 53.0105 39.5499 52.5929 39.9399C52.1553 40.2999 51.688 40.6699 51.1411 40.9399C50.5942 41.1999 49.9677 41.3996 49.2716 41.3896C48.9534 41.3896 48.4761 41.4495 48.0784 41.5395C47.6806 41.6295 47.3425 41.7397 47.3226 41.9297C47.3326 42.0997 47.4519 42.1895 47.6608 42.2295C47.7602 42.2495 47.8795 42.2595 48.0187 42.2495C48.1579 42.2395 48.2971 42.2197 48.4562 42.1997C49.0827 42.0997 49.8384 41.8597 50.4152 41.7397C49.8981 42.2597 49.0032 42.4798 48.0485 42.5498C47.0939 42.6198 46.0896 42.5396 45.1947 42.6196C45.6024 42.7996 46.02 42.9799 46.4476 43.1299C45.7018 43.4199 44.8069 43.2896 43.9417 43.0196C43.0766 42.7495 42.2413 42.3497 41.4558 42.1396C41.6447 42.0896 41.8336 42.0395 42.0126 41.9795C41.5453 41.8595 41.0779 41.5799 40.6901 41.3799C40.3023 41.1799 39.9841 41.0595 39.7654 41.2695C40.0637 41.4095 40.2427 41.5396 40.4415 41.6396C40.6404 41.7396 40.8393 41.8196 41.1575 41.8696C41.2271 42.0996 40.7001 41.9996 40.5708 42.0796C40.362 42.0196 40.1333 41.9599 39.8946 41.8799C39.6559 41.8099 39.4173 41.7296 39.1886 41.6396C38.9599 41.5496 38.7411 41.4496 38.5522 41.3296C38.3633 41.2196 38.1942 41.0899 38.0749 40.9399C37.6871 40.9199 36.991 40.5896 36.454 40.3496C35.9171 40.1195 35.5193 39.9894 35.6486 40.4995C35.0719 40.1395 34.4852 39.7094 33.8985 39.2294C33.6002 38.9894 33.3118 38.7294 33.0234 38.4794C32.745 38.2094 32.4566 37.9398 32.1683 37.6698C31.0347 36.5698 29.9508 35.3796 28.8868 34.3196C29.0559 33.8596 28.3001 33.1993 28.2603 32.7893C28.6581 32.8793 28.2007 31.9792 28.3598 31.7092C27.0572 30.3191 26.0329 28.5894 25.1081 26.7993C24.1834 25.0093 23.3481 23.1589 22.3537 21.4589C21.4091 20.5988 21.2201 19.8392 20.7229 18.8592C20.7428 20.4592 21.3096 22.8893 22.125 25.1294C22.8211 25.8194 22.7515 25.2791 22.5427 24.5791C22.3438 23.879 22.0156 23.019 22.1648 23.059C22.2941 22.859 22.483 23.379 22.7415 23.749C23.0398 24.719 23.2288 25.769 22.8807 25.979L23.5171 26.3692C23.6265 26.6092 23.7359 26.8594 23.8453 27.1094C23.9547 27.3594 24.064 27.6092 24.1734 27.8692C24.3822 28.3892 24.611 28.9093 24.8297 29.4493C24.9391 29.7193 25.0584 29.9892 25.1877 30.2692C25.317 30.5392 25.4462 30.8195 25.5755 31.1095C25.7147 31.3895 25.8639 31.6694 26.013 31.9494C26.1622 32.2294 26.3213 32.5195 26.5003 32.7995C26.1324 32.5895 25.9037 32.3994 25.7048 32.1394C25.5158 31.8693 25.3369 31.5292 25.1479 30.9591C24.074 30.4791 24.3922 30.8394 24.9391 31.4894C25.2175 31.8094 25.5656 32.1895 25.8241 32.5695C26.0826 32.9496 26.2616 33.3296 26.202 33.6497C26.2815 33.5096 26.4903 33.7093 26.729 34.0193C26.9776 34.3193 27.266 34.7295 27.4748 35.0096L27.3356 34.3494C27.0969 34.1594 26.8384 33.9595 26.6097 33.7595C26.2119 32.8895 26.4008 32.8097 26.719 32.9397C27.0372 33.0697 27.4648 33.3996 27.5742 33.3796C27.9521 33.8696 28.1907 34.2895 28.3498 34.6795C28.5189 35.0695 28.6183 35.4196 28.7277 35.7996C28.8271 36.1796 28.9663 36.5493 29.205 36.9593C29.3243 37.1693 29.4635 37.3895 29.6425 37.6195C29.8315 37.8395 30.0502 38.0795 30.3286 38.3295C30.5872 38.1895 30.259 37.8595 30.5772 37.8295C30.9054 38.0695 31.0844 38.1196 31.3032 38.2196C31.5219 38.3196 31.7606 38.4796 32.1881 38.9496C32.3572 39.2596 32.5958 39.4798 32.8444 39.6698C33.103 39.8499 33.3913 39.9898 33.6797 40.1298C33.978 40.2598 34.2664 40.3995 34.5647 40.5595C34.7139 40.6395 34.863 40.7298 35.0023 40.8398C35.1514 40.9398 35.3006 41.0597 35.4398 41.1997C35.5691 41.6297 35.1514 41.4898 34.7039 41.2998C34.2664 41.0998 33.7891 40.8295 33.7991 41.0796C33.9582 41.2896 34.1272 41.4897 34.2963 41.6997C34.6642 41.9097 35.0321 42.2696 35.4199 42.5596C35.5193 42.6296 35.6188 42.7095 35.7083 42.7695C35.8077 42.8296 35.9072 42.8897 36.0066 42.9297C36.2055 43.0197 36.4043 43.0798 36.6032 43.0498L36.5237 43.2798C37.1203 43.4198 37.8561 43.7197 38.5522 43.9297C38.9002 44.0397 39.2383 44.12 39.5366 44.17C39.8349 44.21 40.0935 44.22 40.2824 44.17C42.0524 44.89 44.1008 45.1496 46.1493 44.9996C48.2076 44.8496 50.2561 44.28 52.1454 43.44C52.4437 43.45 52.742 43.4597 53.0503 43.4497C53.3287 43.3197 53.5773 43.2096 53.7662 43.0996C53.9552 42.9796 54.1043 42.8798 54.2336 42.7798C54.4723 42.5798 54.5916 42.4095 54.6711 42.2495C54.8203 41.9495 54.8004 41.6895 55.1584 41.2695C55.407 41.1695 55.4567 41.3896 55.6456 41.3896C56.0533 40.9096 55.9241 40.9297 55.7351 41.0097C55.5462 41.0897 55.2876 41.2297 55.407 41.0097C55.8743 40.6097 56.3218 40.0595 56.7295 39.5795C56.9383 39.3295 57.1372 39.0998 57.3261 38.8998C57.525 38.6998 57.7139 38.5396 57.9029 38.4296C57.7537 38.1696 57.6046 37.9095 57.4355 37.6595C57.2068 37.8095 56.9582 37.9194 56.7295 37.9994C56.5505 38.0594 56.3218 38.1098 56.1229 38.1298Z" fill="#FCEA0D"/>
<path d="M49.4307 41.2597C50.4549 41.0097 50.6041 40.6698 50.7533 40.3798C50.8925 40.0498 51.0416 39.7597 51.8769 39.2397C51.7675 39.2597 51.6581 39.2795 51.5487 39.3095C51.4394 39.3295 51.33 39.3598 51.2206 39.3998C51.0118 39.4798 50.793 39.5498 50.5842 39.6498C50.3754 39.7498 50.1467 39.8396 49.9279 39.9496C49.6992 40.0396 49.4804 40.1595 49.2418 40.2495L48.8838 40.3896L48.5159 40.5097C48.2772 40.5897 48.0187 40.6296 47.7701 40.6796C47.2729 40.7396 46.7658 40.7198 46.2984 40.5498C45.9305 40.5698 45.7217 40.6798 45.662 40.7998C45.6024 40.9198 45.6819 41.0496 45.8808 41.0996C46.4575 41.0896 47.263 41.1899 47.8795 40.8798C48.0485 40.8598 48.2375 40.8598 48.4164 40.8598C48.6054 40.8598 48.7844 40.8699 48.9435 40.8999C49.2816 40.9299 49.5103 41.0397 49.4307 41.2597Z" fill="#FCEA0D"/>
<path d="M43.0965 40.5794C43.1661 40.6094 43.2457 40.6395 43.3451 40.6795C43.3352 40.6195 43.2854 40.5694 43.0965 40.5794Z" fill="#FCEA0D"/>
<path d="M44.598 41.5898C44.7273 41.6198 44.8566 41.6397 44.9859 41.6597C45.2345 41.6997 45.4731 41.7097 45.6521 41.6997C45.5228 41.3797 45.0157 41.1895 44.4887 41.0195C44.2202 40.9395 43.9417 40.8595 43.6931 40.7895C43.5639 40.7495 43.4445 40.7195 43.3451 40.6795C43.355 40.7395 43.3252 40.8095 43.3749 40.8295C43.365 40.9496 43.4545 41.0697 43.6136 41.1797C43.7727 41.2897 43.9915 41.3995 44.2301 41.4795C44.3395 41.5195 44.4688 41.5598 44.598 41.5898Z" fill="#FCEA0D"/>
<path d="M43.3849 42.3494L43.8025 42.5696C44.0114 42.5896 44.777 42.9394 44.6577 42.5594C44.3296 42.3293 43.8125 42.3294 43.3849 42.3494Z" fill="#FCEA0D"/>
<path d="M38.9897 39.6796C38.7312 39.6796 38.4328 39.6596 38.8704 39.9496C39.119 40.0496 39.3676 40.1595 39.6261 40.2495C39.6162 40.0394 39.6062 39.8398 39.5963 39.6298C39.3775 39.5498 39.1587 39.4798 38.94 39.3998C39.477 39.6798 39.2483 39.6796 38.9897 39.6796Z" fill="#FCEA0D"/>
<path d="M37.0805 38.2694L36.7325 38.2997C36.9214 38.4797 37.0805 38.5996 37.2396 38.6796C37.3987 38.7496 37.5479 38.7897 37.697 38.7997C37.518 38.6997 37.4186 38.5796 37.3291 38.4696C37.2396 38.3696 37.18 38.2794 37.0805 38.2694Z" fill="#FCEA0D"/>
<path d="M38.3434 40.5595C38.592 40.6495 38.5025 40.4895 38.3334 40.3095C38.1545 40.1395 37.8959 39.9497 37.7766 39.9697C38.0053 40.2397 37.8163 40.4595 38.3434 40.5595Z" fill="#FCEA0D"/>
<path d="M32.924 40.9497C32.7251 40.7997 32.5362 40.6698 32.3472 40.5698C32.1583 40.4698 31.9793 40.4099 31.8003 40.3998C32.0291 40.6199 32.2379 40.7899 32.4367 40.9199C32.6356 41.0499 32.8146 41.1595 33.0035 41.2495C33.1925 41.3395 33.3814 41.4195 33.5803 41.5195C33.7792 41.6095 33.9979 41.6996 34.2465 41.8296C33.9979 41.7096 33.7593 41.5597 33.5405 41.4096C33.3416 41.2496 33.1229 41.0897 32.924 40.9497Z" fill="#FCEA0D"/>
<path d="M55.1683 20.9789C55.1584 20.5289 54.8203 20.1393 54.5916 19.9393L54.5419 20.1991L54.87 20.579C54.9695 20.719 55.0589 20.8489 55.1683 20.9789Z" fill="#FCEA0D"/>
<path d="M55.7351 23.499C55.7848 23.709 55.8246 23.9291 55.8743 24.1391C56.0633 25.0091 56.2323 25.9094 56.4411 26.6494C57.0079 27.0295 56.6997 26.3195 56.9582 25.4394C56.9184 24.8894 56.7295 24.3491 56.5008 23.829C56.3914 23.569 56.2621 23.3193 56.1528 23.0693C56.0334 22.8193 55.934 22.569 55.8445 22.309L55.3373 21.7889C55.407 22.109 55.5064 22.4891 55.5959 22.8891C55.6456 23.0791 55.6954 23.289 55.7351 23.499Z" fill="#FCEA0D"/>
<path d="M56.9383 17.0689C56.7494 16.6789 56.5207 16.1989 56.2522 15.7788C55.9837 15.3588 55.6854 14.9889 55.3771 14.8189C55.0191 14.4988 54.7606 14.2288 54.5717 13.9888C54.3728 13.7487 54.2336 13.5489 54.1541 13.3589C53.985 12.9788 53.985 12.6789 54.0049 12.3788C54.0347 11.7688 54.1143 11.0985 52.7818 9.82848C52.742 10.5785 52.2747 10.1884 51.6681 9.53843C51.0715 8.88841 50.3356 7.99852 49.8086 7.67851C49.1821 6.90849 49.1424 6.45828 48.9236 5.72826C48.6651 5.59825 48.1082 5.05861 47.8894 5.10861C47.5712 5.75863 47.5712 6.7287 47.7701 7.89873C47.969 9.06877 48.3866 10.4388 48.8739 11.8988C48.9435 11.9389 49.0032 11.9784 49.023 11.9584C49.2617 12.2384 49.5003 12.5689 49.739 12.9189C49.9876 13.2689 50.2262 13.6287 50.4947 13.9888C50.7532 14.3488 51.0317 14.6986 51.33 15.0186C51.6184 15.3386 51.9565 15.6289 52.3144 15.8589C52.1553 15.5189 52.0957 15.3287 52.0161 15.0987C51.9266 14.8586 51.8172 14.5786 51.509 14.0786C52.0559 14.2186 52.2946 14.6088 52.4735 15.0488C52.6625 15.4989 52.752 16.019 53.0503 16.439C52.8812 16.049 53.0105 16.0388 53.2392 16.1988C53.4679 16.3588 53.7762 16.7089 53.9949 17.0089C54.1441 17.3189 54.3032 17.6887 54.5021 18.0587C54.7009 18.4387 54.8899 18.8487 55.1186 19.2687C55.5263 20.1187 55.9638 21.0191 56.282 21.8791C56.4013 22.0391 56.5505 22.3292 56.6599 22.6492C56.7195 22.8092 56.7693 22.9789 56.819 23.1589C56.8687 23.329 56.9184 23.509 56.9681 23.679C57.1571 24.339 57.3261 24.879 57.6244 24.619C57.7636 25.169 57.694 25.5089 57.5946 25.8089C57.4952 26.1089 57.356 26.3692 57.3162 26.7792C57.5648 27.3692 57.6045 27.949 57.515 28.519C57.4255 29.079 57.2167 29.6191 56.988 30.1391C56.7593 30.6591 56.5207 31.1592 56.3417 31.6792C56.1627 32.1992 56.0632 32.7395 56.0931 33.3995C55.924 33.2595 55.755 33.4794 55.6058 33.7794C55.4467 34.0694 55.2876 34.4395 55.1783 34.6295C54.9595 35.0695 54.5418 35.7595 54.2336 36.2995C54.154 36.4295 54.0944 36.5696 54.0447 36.6896C53.9949 36.8096 53.9552 36.9194 53.9452 37.0095C53.9253 37.1995 53.9949 37.3296 54.2137 37.3596C54.6314 37.2696 54.9098 36.7892 55.1584 36.2692C55.407 35.7392 55.6257 35.1692 56.0831 34.7691C56.4709 34.4191 56.6201 34.3491 56.6499 34.4791C56.6897 34.6091 56.5903 34.9092 56.4511 35.2692C56.1826 35.9892 55.6556 36.8693 55.924 37.0793C55.9539 36.9193 56.1229 36.8992 56.3118 36.7892C56.4113 36.7392 56.5107 36.6695 56.6102 36.5495C56.6798 36.4695 56.7394 36.3594 56.7991 36.2194C56.7494 36.3594 56.7195 36.4792 56.7096 36.5592C56.6897 36.6792 56.6897 36.7492 56.7295 36.7892C56.7892 36.8692 56.9482 36.8092 57.1173 36.7091C57.4554 36.5191 57.883 36.1994 57.8034 36.7795C58.0023 36.5395 58.1515 36.3195 58.3006 36.1295C58.4398 35.9395 58.5592 35.7695 58.6586 35.6295C58.8575 35.3395 59.0166 35.1294 59.1657 34.9694C59.3149 34.7993 59.4541 34.6694 59.653 34.5294C59.832 34.3794 60.0607 34.2093 60.3689 33.9493C60.5181 33.1693 60.3789 32.8495 60.2098 32.6695C60.0408 32.4895 59.8121 32.4393 59.6828 32.1993C59.6629 31.3992 59.8717 30.7291 60.0507 30.0591C60.2297 29.399 60.4087 28.7392 60.3092 28.0492C60.8363 28.5692 61.065 27.989 61.0749 27.0389C61.0948 26.0889 60.8562 24.8191 60.6672 24.0091C60.4684 22.939 60.17 22.829 59.9115 22.699C59.7723 22.639 59.6331 22.5689 59.5038 22.3889C59.3745 22.2089 59.2353 21.8991 59.0762 21.3791C59.1061 21.0791 59.2055 21.0489 59.3447 21.1389C59.4839 21.2289 59.653 21.4592 59.8121 21.6892C59.9811 21.9192 60.1303 22.139 60.2595 22.199C60.3789 22.259 60.4783 22.169 60.4982 21.759C60.3192 21.439 60.1402 21.119 59.9513 20.819C59.643 20.579 59.3248 20.3789 59.0066 20.1789C58.6785 19.9789 58.3702 19.7589 58.0918 19.4689C57.9128 19.0589 57.6045 18.4588 57.7438 18.3688C58.2807 19.0988 58.5293 18.6889 58.3304 17.7188C57.9725 17.3988 57.8929 17.3186 57.6443 17.2086C57.5449 18.2786 57.2963 17.8589 56.9383 17.0689Z" fill="#FCEA0D"/>
<path d="M33.0732 4.53846C33.2621 4.40846 33.451 4.19843 33.5604 4.01843C33.63 3.56841 33.4013 3.58843 33.1129 3.78844C32.9737 3.89844 32.8245 4.03859 32.6853 4.17859C32.5561 4.31859 32.4566 4.4587 32.387 4.5287L32.6058 4.56874C32.7052 4.72874 32.8942 4.66847 33.0732 4.53846Z" fill="#FCEA0D"/>
<path d="M36.6728 6.92864C36.5933 6.94865 36.5734 7.0188 36.5833 7.08881C36.5933 7.15881 36.633 7.23852 36.7026 7.28852C36.7424 7.23852 36.822 7.18867 36.9214 7.19867L36.822 7.18891C36.7424 7.15891 36.7225 7.11855 36.7126 7.07855C36.7026 7.02855 36.7126 6.97865 36.6728 6.92864Z" fill="#FCEA0D"/>
<path d="M22.2941 17.1291C22.4134 17.1491 22.4929 17.1787 22.5725 17.2087C22.652 17.2387 22.7217 17.2791 22.8012 17.3191C22.8808 17.3491 22.9603 17.3789 23.0398 17.4089C22.9603 17.0289 22.9006 16.6791 22.8708 16.3391C22.841 16.0091 22.8211 15.6889 22.831 15.4089C22.6322 15.3589 22.5029 15.3491 22.4134 15.3991C22.3338 15.4491 22.2841 15.5491 22.2742 15.6691C22.2742 15.7291 22.2642 15.7888 22.2642 15.8488C22.2742 15.9088 22.2742 15.9688 22.2841 16.0188C22.2841 16.1188 22.2941 16.1987 22.2244 16.2087C22.1449 16.2787 22.0952 16.2687 22.0355 16.2287C21.9858 16.1887 21.9361 16.1088 21.8665 16.0588C21.8466 15.8688 21.8864 15.6687 21.9858 15.5187C22.0753 15.3687 22.2443 15.2587 22.4333 15.2287C22.294 15.1987 22.1349 15.1588 22.0057 15.0988C21.9858 14.7688 22.1151 14.4387 22.3139 14.2086C22.5128 13.9686 22.7316 13.8288 22.9901 13.6588C23.0498 13.8588 23.0995 13.9687 23.0796 14.0187C23.0796 14.0887 22.9901 14.0888 22.8509 14.1188C22.9802 14.2388 23.0796 14.3188 23.1592 14.3688C23.2288 14.4188 23.2785 14.4389 23.2984 14.4489C23.3382 14.4589 23.2984 14.4088 23.2586 14.3288C23.2288 14.2888 23.2288 14.2391 23.2188 14.1891C23.2188 14.1691 23.2089 14.1388 23.2089 14.1188C23.2089 14.0988 23.2188 14.0787 23.2288 14.0587C23.2586 13.9887 23.368 13.9991 23.5271 14.1491C23.3282 13.9391 23.537 13.8289 23.6464 13.7589C23.5669 13.6889 23.4973 13.6387 23.4078 13.5787C23.3879 13.6787 23.3879 13.7988 23.3879 13.8888C23.1691 13.8688 23.02 13.7287 22.9504 13.5387C22.9205 13.4487 22.8907 13.3389 22.8907 13.2389C22.8807 13.1489 22.8807 13.0687 22.8609 13.0187C22.9006 12.9887 22.9305 12.9591 22.9702 12.9391C23.01 12.9191 23.0498 12.909 23.0896 12.899C23.1293 12.889 23.1691 12.8888 23.2089 12.8888C23.2486 12.8888 23.2884 12.8988 23.3282 12.9088C23.4078 12.9288 23.4774 12.9589 23.547 13.0089C23.6166 13.0589 23.6862 13.1091 23.7458 13.1691C24.0143 13.3991 24.1933 13.639 24.4518 13.569C24.4817 13.289 24.3822 13.2787 24.422 13.0387C24.6209 12.9187 24.6308 12.6189 24.949 12.7989C24.9789 12.8589 25.0087 12.8988 25.0386 12.9288C25.0684 12.9588 25.1081 12.9786 25.138 12.9786C25.2175 12.9786 25.307 12.9691 25.4065 12.9391C25.4562 12.9191 25.5158 12.9288 25.5755 12.9288C25.6352 12.9288 25.6948 12.9386 25.7446 12.9586C25.8539 13.0086 25.9534 13.0787 26.013 13.2487C25.9633 13.4087 25.8937 13.4687 25.8142 13.4987C25.7744 13.5087 25.7346 13.5089 25.6948 13.5089C25.6551 13.5089 25.6153 13.4987 25.5755 13.4987C25.4065 13.4587 25.2772 13.439 25.1976 13.629L25.2076 13.7687L25.2175 13.9289C25.4264 14.0089 25.3667 14.649 25.8341 14.529L25.6749 14.7087C25.7346 14.7287 25.7943 14.749 25.8639 14.779C25.9335 14.809 25.9932 14.8491 26.0628 14.8991C26.192 14.9791 26.3312 15.0991 26.4704 15.1891C26.6097 15.2891 26.7688 15.3887 26.908 15.4587C26.9875 15.4987 27.0571 15.5188 27.1367 15.5388C27.2262 15.5688 27.3157 15.5891 27.3952 15.5891C27.8725 16.0891 28.4592 16.539 29.1255 16.779C29.2945 16.829 29.4636 16.8989 29.6326 16.9289C29.8016 16.9589 29.9806 16.989 30.1497 17.009C30.3287 17.009 30.4977 17.009 30.6767 17.009C30.8457 16.989 31.0247 16.969 31.1938 16.949C31.9495 16.789 32.6456 16.4091 33.1925 15.8991C33.7493 15.3891 34.167 14.749 34.5051 14.089C34.694 13.989 34.9028 13.8789 35.0917 13.7389C35.1415 13.6389 35.1912 13.5486 35.221 13.4586C35.2509 13.3686 35.2807 13.2789 35.3006 13.2189C35.3403 13.0889 35.3602 12.979 35.3602 12.879C35.3702 12.689 35.3205 12.5586 35.2608 12.4586C35.1315 12.2486 34.9326 12.159 34.863 11.859C34.9525 11.739 35.1514 11.8089 35.2807 11.7589C35.1713 11.1188 34.9824 11.9288 34.8432 11.6788C34.8929 11.0588 34.684 10.3488 35.0818 10.0288L34.2763 9.83889C33.7891 10.2689 33.0632 10.5986 32.5859 10.4986C32.3274 10.7886 32.208 11.0489 32.1782 11.2989C32.1384 11.5489 32.1782 11.7989 32.1981 12.0289C32.218 12.2889 32.2379 12.4986 32.1683 12.7086C32.0987 12.9186 31.9396 13.1088 31.6711 13.1388C31.5517 13.1588 31.4225 13.2187 31.333 13.3087C31.2435 13.4087 31.1838 13.5386 31.2435 13.7287C31.3032 13.9087 31.3926 13.9987 31.4821 14.0187C31.5816 14.0487 31.691 13.9991 31.8003 13.9191C32.0191 13.7591 32.1882 13.469 32.397 13.319C32.4765 13.709 32.2577 14.0387 31.9395 14.2287C31.6114 14.4187 31.2137 14.4787 30.8656 14.5187C30.7562 14.5287 30.6568 14.5588 30.5474 14.5788C30.6071 14.6388 30.6568 14.6889 30.7264 14.7389C30.7861 14.7889 30.8557 14.8388 30.9153 14.8888C31.0148 14.9588 31.1043 14.9988 31.2137 15.0588C31.1441 15.1288 31.0546 15.1887 30.9651 15.2287C30.5971 15.3687 30.1397 15.1788 29.8016 14.8888C29.7221 14.8088 29.6326 14.7389 29.563 14.6589C29.4934 14.5789 29.4238 14.4991 29.3542 14.4191C29.2249 14.2491 29.1056 14.1189 28.9763 14.0089C29.0956 13.9789 29.1951 13.9388 29.3044 13.8888C29.2249 13.8288 29.1652 13.719 29.1155 13.629C29.0857 13.579 29.0658 13.5286 29.0459 13.4786C29.026 13.4286 29.0061 13.379 28.9862 13.339C28.8868 13.149 28.7774 13.0288 28.5487 13.1788C28.6382 13.3088 28.678 13.4287 28.7277 13.5187C28.7774 13.6187 28.847 13.6987 28.9763 13.7487C28.9067 13.9487 28.6879 13.8288 28.5686 13.8888C28.2405 13.6188 27.7433 13.309 27.7234 12.859C27.4947 12.839 27.2262 12.5986 26.9676 12.4586C26.8384 12.3986 26.729 12.359 26.6295 12.379C26.5301 12.409 26.4605 12.4991 26.4108 12.6891C26.192 12.5091 25.9633 12.299 25.7147 12.169C25.4661 12.019 25.1678 11.909 24.8595 11.859C24.2331 11.749 23.5271 11.9187 23.0896 12.3487C23.0299 12.2687 22.9603 12.2286 22.8907 12.2086C22.8211 12.1986 22.7614 12.2189 22.7018 12.2389C22.5725 12.2789 22.4631 12.3687 22.3438 12.3287C22.3139 12.1687 22.2046 12.1287 22.0554 12.1187C21.9162 12.1087 21.7471 12.1187 21.6278 12.0387C21.3693 12.4787 21.1505 12.9188 21.0013 13.3688C20.8522 13.8188 20.7727 14.2787 20.7727 14.7487C20.7727 15.2087 20.8621 15.6788 21.0411 16.0988C21.2201 16.5189 21.5085 16.8889 21.8665 17.1189C22.0455 17.0889 22.1747 17.1091 22.2941 17.1291Z" fill="#FCEA0D"/>
<path d="M30.8458 12.859C30.9154 12.839 30.985 12.789 30.975 12.649C31.0347 12.629 31.1441 12.6488 31.2733 12.6988C31.4026 12.7488 31.5617 12.8289 31.6611 13.0089C31.7805 12.8989 31.8004 12.7691 31.7705 12.669C31.7407 12.569 31.6611 12.469 31.5716 12.379C31.4821 12.289 31.3927 12.209 31.323 12.129C31.2932 12.089 31.2634 12.0489 31.2435 12.0089C31.2336 11.9889 31.2236 11.9688 31.2236 11.9488C31.2236 11.9188 31.2336 11.8789 31.2336 11.8389C31.1838 11.8589 31.1341 11.879 31.0944 11.899L31.0148 11.919C30.975 11.929 30.9452 11.9488 30.9353 11.9688C30.9154 12.0188 30.9353 12.0988 30.9353 12.1988C30.9353 12.2988 30.9054 12.4091 30.8458 12.4391C30.7762 12.4791 30.6767 12.4386 30.5872 12.2486C30.5673 12.2486 30.5673 12.2887 30.5574 12.3287C30.5375 12.4687 30.5474 12.779 30.627 12.839C30.6966 12.849 30.7762 12.879 30.8458 12.859Z" fill="#FCEA0D"/>
<path d="M30.4579 13.5187C30.4977 13.5387 30.5375 13.549 30.5673 13.549C30.5972 13.549 30.6369 13.5487 30.6568 13.5387C30.5773 13.1887 30.448 12.9987 30.3585 12.8487C30.2789 12.7287 30.2292 12.6487 30.1994 12.5587C30.1894 12.6187 30.1596 12.6989 30.1596 12.7189C30.0801 12.9589 30.1198 13.1888 30.2392 13.3488C30.2988 13.4288 30.3784 13.4887 30.4579 13.5187Z" fill="#FCEA0D"/>
<path d="M30.1795 12.4985C30.1795 12.5185 30.1994 12.5387 30.1994 12.5587C30.2193 12.5087 30.2193 12.4785 30.1795 12.4985Z" fill="#FCEA0D"/>
<path d="M30.3187 14.5091C30.2491 14.3891 30.1695 14.3192 30.0801 14.2992C29.9906 14.2792 29.8911 14.2589 29.7917 14.2689C29.8414 14.3489 29.8812 14.4291 29.9409 14.5091C30.0204 14.5391 30.3585 14.9192 30.3187 14.5091Z" fill="#FCEA0D"/>
<path d="M29.2846 11.8487L28.9862 11.629C29.4039 12.129 28.3896 11.5787 28.678 12.0587L28.9862 12.339L29.2846 11.8487Z" fill="#FCEA0D"/>
<path d="M28.3797 11.0787C28.1907 10.9187 28.2206 10.6387 28.0814 10.6187L27.8029 10.6587C27.9123 10.8087 27.9919 10.9088 28.0913 10.9688C28.1808 11.0388 28.2802 11.0687 28.3797 11.0787Z" fill="#FCEA0D"/>
<path d="M28.1709 12.3285C28.141 12.1885 28.0615 12.0284 27.962 12.0584C28.0018 12.2584 27.783 12.4387 28.0615 12.5287C28.1708 12.5987 28.2007 12.4685 28.1709 12.3285Z" fill="#FCEA0D"/>
<path d="M24.8098 14.1089C24.8496 14.0889 24.8993 14.0786 24.949 14.0586C24.9789 14.0486 25.0087 14.0386 25.0386 14.0386C25.0684 14.0386 25.1082 14.0389 25.1479 14.0489C24.8496 13.9989 24.8993 13.7387 24.6806 14.1387C24.6905 14.1687 24.7203 14.1587 24.7303 14.1587C24.7601 14.1587 24.78 14.1389 24.8098 14.1089Z" fill="#FCEA0D"/>
<path d="M38.8903 1.05835L38.7113 0.908447L38.5224 0.978274L38.3334 1.06861L37.9754 1.2483C38.1445 1.3083 38.3135 1.28854 38.4726 1.23854C38.6317 1.18853 38.7809 1.12836 38.8903 1.05835Z" fill="#FCEA0D"/>
<path d="M34.873 2.95831C35.221 2.78831 35.5193 2.50859 35.8475 2.25858C36.0066 2.11858 36.1756 2.00871 36.3546 1.89871C36.5336 1.78871 36.7225 1.69871 36.9214 1.6487C37.0507 1.5087 37.1899 1.35828 37.3391 1.22828C37.2695 1.22828 37.2098 1.23854 37.1302 1.23854C37.0606 1.24854 36.991 1.25832 36.9115 1.26832C36.7623 1.28832 36.6032 1.31865 36.4441 1.35866C36.1259 1.44866 35.7779 1.54827 35.4497 1.70828C35.1116 1.84828 34.8034 2.04858 34.515 2.25858C34.2366 2.47859 33.988 2.70831 33.809 2.95831C33.8885 3.56833 34.157 2.96831 34.873 2.95831Z" fill="#FCEA0D"/>
<path d="M31.4722 10.5891C31.7407 10.4191 31.6612 10.1288 31.5915 9.78877C31.5219 9.44876 31.4523 9.0389 31.7407 8.69889C31.9694 8.40888 32.1086 8.34886 32.1782 8.42886C32.2478 8.49887 32.2578 8.69887 32.2777 8.92888C32.3075 9.38889 32.3373 9.93893 32.6853 9.94893C32.566 9.78892 33.1627 9.72896 32.9737 9.23895C33.103 9.75896 33.3019 9.64872 33.5107 9.49872C33.7195 9.34872 33.9482 9.1491 34.1471 9.39911C34.3758 8.86909 34.515 8.66874 34.7039 8.53873C34.7934 8.47873 34.9028 8.42883 35.0421 8.38882C35.1117 8.36882 35.1912 8.34876 35.2807 8.32876C35.3702 8.30876 35.4796 8.29896 35.5989 8.27896C35.579 8.05895 35.4398 7.91873 35.2608 7.80873C35.0818 7.68873 34.863 7.60888 34.7437 7.46888C34.7139 7.29887 34.7736 7.15869 34.8531 7.03869C34.9426 6.92868 35.0619 6.83866 35.1813 6.76866C35.3105 6.69866 35.4398 6.63895 35.5492 6.56895C35.6586 6.49894 35.748 6.41867 35.7978 6.28866C35.937 6.53867 36.0862 6.64907 36.2154 6.68907C36.3447 6.71907 36.4839 6.68875 36.6032 6.61875C36.8518 6.47875 37.1004 6.18868 37.3192 6.05868C37.4584 5.97867 37.518 5.89891 37.5379 5.7989C37.5578 5.6989 37.528 5.57857 37.5181 5.45856C37.4982 5.33856 37.4882 5.21871 37.528 5.11871C37.5479 5.06871 37.5777 5.01857 37.6374 4.97857C37.6672 4.95857 37.697 4.939 37.7368 4.919C37.7766 4.909 37.8164 4.88896 37.8661 4.87895C38.1346 5.06896 37.9854 5.2886 37.8959 5.4986C37.7965 5.72861 37.7567 5.93873 38.0451 6.11874C38.1047 6.00873 38.1644 5.91893 38.244 5.81892C38.2539 5.69892 38.2738 5.57857 38.2837 5.45856C38.3036 5.33856 38.3235 5.21869 38.3434 5.09869C38.3931 4.85868 38.4727 4.62879 38.6019 4.46879C38.6914 4.45879 38.8008 4.42877 38.8903 4.44877C38.9798 4.45877 39.0494 4.49865 39.0494 4.57865C38.7213 4.75866 38.8903 5.15896 39.1588 5.37897C39.2881 5.20896 39.3278 5.17861 39.4074 5.01861C39.2781 4.7186 39.2284 4.56857 39.2781 4.49857C39.3278 4.42857 39.4571 4.44855 39.6162 4.47855C39.9543 4.56855 40.362 4.76864 40.72 4.55863C40.8293 4.52863 40.9288 4.52885 41.0183 4.52885C41.1078 4.52885 41.1873 4.53887 41.247 4.54887C41.3862 4.57887 41.4658 4.64879 41.5254 4.71879C41.6447 4.8688 41.6348 5.07888 41.605 5.29889C41.5751 5.5189 41.5354 5.72878 41.5652 5.92879C41.5851 6.02879 41.6249 6.10905 41.6945 6.18905C41.7641 6.27906 41.8735 6.33878 42.0226 6.40879C42.132 6.15878 42.2414 6.04889 42.3706 6.02889C42.49 6.01889 42.6292 6.08858 42.7684 6.20858C43.0468 6.44859 43.2755 6.85888 43.554 6.98888C43.6435 7.17889 43.6136 7.34866 43.5639 7.49866C43.5042 7.64867 43.3948 7.79888 43.2855 7.96889C43.4247 8.02889 43.5341 8.29874 43.7429 8.30874C44.3694 8.08874 44.956 7.619 45.324 6.83897C45.6819 6.07895 45.8211 5.00892 45.5626 3.83888C45.5029 3.80888 45.4532 3.78861 45.4333 3.80861C45.0654 3.4186 44.6975 2.88851 44.1705 2.47849C44.1108 2.42849 44.0412 2.37859 43.9716 2.32859C43.902 2.27858 43.8324 2.2387 43.7628 2.1987C43.6236 2.1187 43.4744 2.03848 43.3252 1.97848C43.017 1.86848 42.6988 1.79882 42.3607 1.83883C42.5795 1.99883 42.669 2.12852 42.7783 2.26853C42.8977 2.40853 43.0369 2.55859 43.3352 2.8286C43.1164 2.8886 42.9573 2.8786 42.8181 2.8286C42.6789 2.7786 42.5596 2.67881 42.4502 2.54881C42.3408 2.4188 42.2215 2.28892 42.0922 2.16891C41.963 2.03891 41.8237 1.92887 41.6447 1.87887C41.9033 2.04887 41.8038 2.13891 41.605 2.16891C41.4061 2.20891 41.0879 2.17866 40.8492 2.15866C40.7498 2.10866 40.6305 2.05852 40.5112 2.01852C40.3819 1.97852 40.2526 1.94891 40.1134 1.91891C40.0438 1.90891 39.9742 1.88887 39.8946 1.87887C39.8151 1.86887 39.7455 1.85885 39.6659 1.85885C39.5068 1.84885 39.3577 1.82857 39.1886 1.82857C38.5323 1.81857 37.8561 1.94887 37.2695 2.12887C37.1601 2.22888 36.9712 2.3089 36.7524 2.3989C36.643 2.4489 36.5336 2.48855 36.4242 2.53855C36.3148 2.57855 36.2055 2.63895 36.0961 2.68895C35.6884 2.89895 35.4199 3.15867 35.6983 3.38868C35.4199 3.58868 35.2011 3.6189 34.9724 3.6089C34.7437 3.5989 34.515 3.57874 34.2565 3.69874C34.0775 4.12876 33.8289 4.39871 33.5207 4.63871C33.3616 4.75872 33.2024 4.86856 33.0235 4.97857C32.934 5.03857 32.8445 5.08898 32.755 5.14898L32.4865 5.33893C32.397 5.39893 32.3075 5.46864 32.218 5.53864C32.1285 5.60864 32.0489 5.68863 31.9694 5.76863C31.8103 5.92863 31.6611 6.10868 31.5518 6.30868C31.4424 6.50869 31.3529 6.72862 31.323 6.97863C31.2932 7.21863 31.2932 7.4789 31.3728 7.7389C31.1839 7.6389 31.0546 7.829 30.985 8.08901C30.9054 8.33902 30.8855 8.64875 30.8557 8.80876C30.8159 9.17877 30.7761 9.72882 30.8557 10.0988C30.8955 10.2888 30.9551 10.439 31.0546 10.529C31.1441 10.619 31.2833 10.6491 31.4722 10.5891Z" fill="#FCEA0D"/>
</g>
</svg>
