<svg width="90" height="121" viewBox="0 0 90 121" fill="none" xmlns="http://www.w3.org/2000/svg">
<g id="Balloon">
<g id="Vector">
<path d="M80.9925 11.4679C80.1725 10.5879 79.0625 9.39792 78.2025 8.49792C77.3425 7.59792 76.7625 6.92789 77.1825 6.95789L76.9825 6.41797C77.1825 6.58797 77.4625 6.8179 77.7925 7.0979C78.1125 7.3879 78.4925 7.70788 78.8625 8.07788C79.6225 8.78788 80.4025 9.64794 80.9925 10.3879C81.2825 10.7679 81.5325 11.1079 81.7225 11.3879C81.9025 11.6779 82.0125 11.898 82.0425 12.028C82.1025 12.298 81.8225 12.1579 80.9925 11.4679Z" fill="#E95232"/>
<path d="M75.5525 15.4079L75.8925 15.9779C75.5625 15.4079 74.9625 14.6579 74.5025 14.2179C74.6225 14.0079 75.7025 14.6979 76.4425 15.7879C76.1125 15.6879 75.2725 14.7379 75.5525 15.4079Z" fill="#E95232"/>
<path d="M44.4325 9.04797C44.4725 9.27797 44.6525 9.36791 44.9525 9.35791C45.2525 9.34791 45.6425 9.22798 46.1425 9.05798C47.1125 8.70798 48.4025 8.13796 49.8025 7.65796C49.7125 8.18796 49.6625 8.72791 49.6225 9.23792C49.3825 9.32792 49.1225 9.46793 48.8425 9.62793C48.5725 9.79793 48.2925 9.99791 48.0025 10.2279C47.8625 10.3479 47.7225 10.4779 47.5825 10.5979C47.5125 10.6679 47.4425 10.728 47.3625 10.798C47.2925 10.868 47.2225 10.9379 47.1525 11.0179C47.0125 11.1679 46.8725 11.3179 46.7325 11.4679C46.6025 11.6279 46.4625 11.7979 46.3325 11.9579C45.8025 12.6379 45.3025 13.378 44.8825 14.168C44.6625 14.548 44.4825 14.9579 44.2825 15.3379C44.1125 15.7379 43.9325 16.1179 43.7925 16.4979C43.6825 17.1279 44.0325 16.458 44.3425 16.038C44.4925 15.828 44.6225 15.6779 44.6425 15.7679C44.6525 15.8079 44.6325 15.9079 44.5825 16.0979C44.5525 16.1879 44.5225 16.298 44.4825 16.438C44.4425 16.578 44.4025 16.738 44.3425 16.918C44.0525 17.178 43.8525 16.828 43.5225 17.428C43.2325 18.778 43.4725 19.198 43.5625 19.908C43.5925 20.088 43.6125 20.2779 43.6225 20.5079C43.6325 20.7379 43.6525 21.0079 43.6425 21.3279C43.6425 21.4079 43.6425 21.4879 43.6425 21.5779C43.6425 21.6179 43.6425 21.6679 43.6425 21.7079C43.6425 21.7979 43.6325 21.8879 43.6325 21.9779C43.6225 22.3779 43.6125 22.8479 43.6825 23.3779C43.7125 23.6379 43.7425 23.9179 43.7725 24.2079C43.7825 24.3479 43.8025 24.4979 43.8125 24.6479C43.8125 24.7179 43.8525 24.818 43.8825 24.908C43.9125 24.998 43.9425 25.098 43.9725 25.188C44.1025 25.568 44.2325 25.9679 44.3625 26.3779C44.4325 26.5879 44.4925 26.7879 44.5725 27.0079C44.7525 27.3179 44.9425 27.628 45.1325 27.948C44.9325 28.168 44.7025 28.428 44.4625 28.698C44.2825 28.808 44.1025 28.928 43.9425 29.038L43.5025 29.3479C43.2725 29.5079 43.0425 29.7079 42.9425 29.8279C42.9125 29.9479 42.8825 30.068 42.8625 30.188L42.8325 30.6379C42.8325 30.6879 42.8425 30.7279 42.8525 30.7679L42.8925 31.0179C42.9325 31.1479 42.9825 31.2579 43.0325 31.3779C43.0925 31.4879 43.1725 31.578 43.2425 31.678C43.2625 31.698 43.2225 31.688 43.2125 31.688L43.1525 31.678L43.0425 31.658L42.8225 31.6279C42.6725 31.6079 42.5025 31.6179 42.3525 31.6079C41.6925 31.6279 40.9325 31.7879 39.7225 32.4579C38.9525 31.8479 38.1825 31.278 37.4025 30.688C36.6325 30.138 35.8525 29.558 35.0825 29.058C34.6925 28.808 34.3125 28.518 33.9125 28.288L32.7325 27.558L32.4825 27.408L32.4425 27.3879L32.2825 27.298L31.9525 27.1179C31.7325 26.9979 31.5125 26.8779 31.2925 26.7679C30.4125 26.3079 29.5225 25.898 28.6325 25.528C27.7425 25.148 26.8425 24.838 25.9625 24.568C22.3925 23.488 18.7125 23.268 15.4725 23.938C14.7425 24.438 13.3025 25.058 11.9625 26.048C11.2925 26.548 10.6425 27.148 10.0825 27.778C9.5225 28.418 9.06249 29.1079 8.74249 29.7379L8.4025 29.5879C8.1925 30.4479 7.6125 31.378 7.0525 32.438C6.4825 33.488 5.9525 34.6579 5.7625 35.7179C5.5125 36.3179 5.3025 36.9379 5.1125 37.5779C4.7825 37.9279 4.8325 36.4979 5.0325 35.2079C5.0925 34.8879 5.1325 34.568 5.1725 34.288C5.2225 34.008 5.2525 33.7679 5.2525 33.5879C5.2525 33.4079 5.2225 33.2879 5.1525 33.2579C5.0825 33.2279 4.9625 33.2879 4.7925 33.4779C4.3225 34.4979 4.0925 35.5079 3.9825 36.4779C3.8625 37.4379 3.9025 38.388 3.9625 39.288C4.1125 41.108 4.4025 42.7879 4.4225 44.7579C4.5425 45.6979 4.6925 46.3779 4.8425 46.8879C4.9825 47.4079 5.1325 47.758 5.2625 48.068C5.5425 48.678 5.8225 49.098 6.2825 50.198C6.8225 50.658 6.3825 49.3579 6.8625 49.4679C7.5625 51.4479 8.13251 52.978 8.55251 54.278C8.60251 54.438 8.6525 54.5979 8.7025 54.7579C8.7525 54.9179 8.80249 55.0679 8.85249 55.2179C8.95249 55.5179 9.0325 55.8079 9.1125 56.0879C9.2625 56.6579 9.4425 57.178 9.5925 57.698C9.6725 57.958 9.75249 58.2179 9.8225 58.4879C9.9025 58.7479 10.0025 59.0079 10.0925 59.2679C10.2925 59.7979 10.4825 60.348 10.7625 60.918C10.9025 61.208 11.0425 61.498 11.2025 61.808C11.3625 62.118 11.5425 62.4379 11.7425 62.7579C11.9425 63.0879 12.1625 63.428 12.4025 63.788C12.6425 64.148 12.9225 64.5079 13.2125 64.8879C13.3225 64.8979 13.6525 65.198 14.0725 65.538C14.4925 65.878 14.9825 66.2779 15.3525 66.5179C15.7225 66.7579 16.0025 66.8479 15.9625 66.5879C15.9225 66.3379 15.6025 65.718 14.8225 64.548C14.2025 63.898 13.5525 63.2679 12.9625 62.5979C12.7325 62.0179 12.5025 61.4479 12.3025 60.8579C12.4425 61.0779 12.5825 61.318 12.7525 61.568C12.9225 61.818 13.1025 62.0779 13.2825 62.3379C13.4625 62.5979 13.6425 62.8679 13.8325 63.1179C14.0225 63.3679 14.2125 63.6079 14.3925 63.8379C15.0925 64.7479 15.7125 65.328 15.7325 65.028C15.8125 65.3979 16.0125 65.848 16.3225 66.308C16.6425 66.778 17.0425 67.288 17.5025 67.788C17.9725 68.278 18.4725 68.7979 19.0025 69.2679C19.5325 69.7279 20.0425 70.1879 20.5425 70.5779C21.0325 70.9679 21.4625 71.3079 21.8025 71.5879C22.1525 71.8579 22.3925 72.068 22.4825 72.188C22.5725 72.318 22.5225 72.358 22.2625 72.308C22.1325 72.278 21.9525 72.2279 21.7225 72.1379C21.4825 72.0579 21.1925 71.938 20.8525 71.778C20.2725 71.108 19.7825 70.5579 19.3725 70.0779C18.9625 69.5979 18.5825 69.2279 18.2425 68.8679C17.8925 68.5179 17.5525 68.218 17.1725 67.918C16.8025 67.608 16.4025 67.298 15.9225 66.948C18.4425 70.078 21.0925 72.8379 23.8125 75.2479C24.5125 75.8279 25.1825 76.4379 25.8925 76.9779C26.2425 77.2479 26.5925 77.528 26.9425 77.798C27.3025 78.058 27.6525 78.318 28.0025 78.568C28.1825 78.698 28.3525 78.818 28.5325 78.948C28.7125 79.068 28.8925 79.188 29.0725 79.308C29.4325 79.548 29.7925 79.7879 30.1525 80.0179C30.5225 80.2379 30.8825 80.458 31.2425 80.678C31.6025 80.898 31.9725 81.108 32.3425 81.308L33.3525 81.5079C33.6825 81.5779 34.0225 81.638 34.3625 81.688C34.3225 81.838 34.4725 82.0579 34.7525 82.3379C35.0325 82.6179 35.4525 82.958 35.9825 83.288C36.5125 83.628 37.1225 84.0179 37.8125 84.3579C38.1525 84.5379 38.5025 84.7179 38.8625 84.8879C39.2225 85.0579 39.6025 85.2179 39.9725 85.3779C40.3125 85.4679 40.6625 85.588 41.0125 85.678C41.3525 85.768 41.6825 85.868 41.9625 85.938C42.5125 86.078 42.8525 86.128 42.6925 85.918C42.8725 85.878 42.2625 85.6179 41.3525 85.2579C40.8925 85.0879 40.3725 84.8479 39.8325 84.6179C39.2825 84.3979 38.7325 84.1279 38.2225 83.8779C37.9625 83.7479 37.7225 83.6279 37.4925 83.5179C37.2625 83.3979 37.0625 83.278 36.8725 83.168C36.5025 82.948 36.2325 82.7579 36.1025 82.6279C35.8525 82.3679 36.2225 82.318 37.6125 82.658C40.9225 84.218 44.4625 85.588 47.8025 86.568C49.4625 87.088 51.0725 87.4779 52.5625 87.8579C53.3125 88.0279 54.0225 88.1879 54.7025 88.3579C55.3825 88.4979 56.0225 88.638 56.6225 88.788C54.8625 88.758 53.3525 88.6379 51.8125 88.4979C51.4325 88.4679 51.0425 88.438 50.6425 88.418C50.2525 88.388 49.8525 88.3479 49.4325 88.3279C48.6025 88.2979 47.7325 88.2379 46.7725 88.2379C43.6025 87.7279 40.4325 86.8079 37.3425 85.6079C36.5625 85.3179 35.8125 84.978 35.0425 84.6479C34.2825 84.3179 33.5325 83.9379 32.7825 83.5779C31.3025 82.8079 29.8325 82.0179 28.4125 81.1379C25.5625 79.3879 22.8625 77.4379 20.3425 75.3279C17.8225 73.2279 15.4625 70.9979 13.2625 68.7179C13.2625 68.4079 12.7925 67.5679 12.4325 66.8779C12.0725 66.1879 11.8625 65.6279 12.3225 65.8979C12.1025 65.3479 11.4425 64.4879 10.8925 63.5879C10.7525 63.3679 10.6125 63.148 10.4925 62.938C10.3625 62.728 10.2625 62.508 10.1725 62.308C9.9925 61.908 9.8725 61.558 9.8925 61.298C8.5225 59.348 7.2725 57.1779 6.2125 54.8679C5.1425 52.5679 4.2625 50.138 3.6425 47.688C3.0325 45.228 2.6925 42.7479 2.7025 40.3679C2.7025 39.1779 2.7925 38.018 2.9425 36.8979C3.0925 35.7879 3.3525 34.7179 3.6425 33.7079C3.2225 34.1979 3.0725 34.1379 3.0525 33.7079C3.0525 33.4979 3.1025 33.188 3.1725 32.818C3.2525 32.448 3.3825 32.028 3.5225 31.568C3.8425 30.658 4.2925 29.6279 4.7825 28.7179C4.8925 28.4879 5.0325 28.268 5.1525 28.058C5.2725 27.848 5.3825 27.638 5.5025 27.448C5.7425 27.068 5.9125 26.718 6.0825 26.448C6.9725 25.668 8.0825 24.5679 9.4025 23.5979C10.7125 22.6179 12.2225 21.788 13.6025 21.308C13.8225 20.988 15.5925 20.478 15.0925 20.298C14.5625 20.458 14.1125 20.5979 13.7125 20.7279C13.3125 20.8679 12.9425 20.9579 12.5825 21.0879C11.8625 21.3379 11.1025 21.5679 10.0925 22.1479C10.1425 21.9979 10.2425 21.848 10.4025 21.698C10.5525 21.538 10.7725 21.4079 11.0125 21.2579C11.2625 21.1079 11.5425 20.9579 11.8725 20.8379C12.2025 20.7079 12.5425 20.5679 12.9325 20.4679C14.4525 20.0179 16.3325 19.8279 18.0225 19.7279L17.1625 20.028L16.3325 20.3679C17.7025 20.1379 19.1725 20.1479 20.6225 20.3279C22.0825 20.5079 23.5225 20.868 24.9025 21.318C27.6725 22.208 30.1425 23.4979 32.4525 24.3579C31.3625 23.4679 30.2125 22.6279 28.9925 21.8679C30.6325 22.4279 32.2925 23.2779 33.8625 24.2579C34.2725 24.5079 34.5925 24.7279 34.9525 24.9679C35.3025 25.2079 35.6525 25.4579 36.0125 25.7079C36.7125 26.2179 37.4225 26.748 38.1025 27.288C39.1925 28.128 40.2325 28.9479 41.1025 29.5879C41.5325 29.9079 41.9225 30.1679 42.2325 30.3579L42.3425 30.428L42.3925 30.4579L42.4225 30.4679L42.4325 30.4779L42.4125 30.448C42.3125 30.298 42.2125 30.1579 42.1125 30.0079C41.9225 29.7179 41.7025 29.4279 41.5325 29.1279C41.6125 29.2979 41.7525 29.4479 41.8625 29.6379L41.9525 29.778L42.0025 29.8479C42.0025 29.8579 42.0125 29.8579 42.0125 29.8679L41.9925 29.8479L41.9525 29.818C41.8525 29.728 41.7425 29.638 41.6325 29.548C41.2125 29.188 40.7825 28.8479 40.3625 28.5079C39.5225 27.8379 38.6525 27.1879 37.8825 26.6079C37.2025 26.0879 36.5925 25.6279 36.1925 25.2379C35.7825 24.8479 35.5925 24.548 35.6625 24.308C35.7325 24.178 35.9725 24.2079 36.2825 24.3379C36.5925 24.4679 36.9725 24.6879 37.3825 24.9879C38.0225 25.4479 38.7525 26.088 39.3625 26.688C39.8325 27.148 40.3025 27.5979 40.7525 28.0079L40.7925 28.048L40.6525 27.8379L40.4825 27.5879C40.3825 27.4079 40.2625 27.2179 40.1625 27.0179C39.8825 26.4779 39.6425 25.8579 39.4325 25.2279C39.2425 24.5879 39.0825 23.9479 38.9825 23.3279C38.9025 22.8579 38.8525 22.3979 38.8225 21.9679C38.8125 21.8579 38.8025 21.7479 38.8025 21.6479V21.278C38.8025 20.918 38.8425 20.558 38.8625 20.198C38.9825 18.768 39.2725 17.378 39.7225 16.038C40.6325 13.328 42.1925 10.858 44.4325 9.04797Z" fill="#E95232"/>
<path d="M37.3525 21.3679C37.3425 21.6479 37.3825 21.8879 37.4525 22.1179C37.6225 22.7079 37.9325 23.2679 38.2825 23.8579C38.4625 24.1779 38.6325 24.458 38.8225 24.808C38.9925 25.108 39.1925 25.458 39.4625 25.948C39.5425 26.098 39.6425 26.248 39.7425 26.418C39.8425 26.588 39.9425 26.758 40.0625 26.928C40.1225 27.008 40.1825 27.098 40.2425 27.198C40.2525 27.218 40.2825 27.248 40.2825 27.258L40.2225 27.2179C40.1825 27.1879 40.1425 27.1579 40.1025 27.1179C39.9325 26.9779 39.7425 26.818 39.5325 26.648C39.4025 26.268 38.8325 25.558 38.3125 24.938C37.7825 24.308 37.2825 23.778 36.9025 23.438C36.8125 23.358 36.7425 23.2879 36.6625 23.2379C36.3625 23.2079 35.8825 22.908 35.4525 22.638L35.4125 22.6079L35.3925 22.5979C35.3825 22.5879 35.4025 22.6079 35.3925 22.5979L35.1725 22.4579C35.0225 22.3679 34.8725 22.278 34.7325 22.188C34.4425 22.008 34.1425 21.838 33.8525 21.668C33.5625 21.498 33.2825 21.338 33.0025 21.188C32.7225 21.038 32.4525 20.888 32.1825 20.768C31.4825 20.368 31.2525 20.0479 31.5525 19.9879C31.8525 19.9379 32.7125 20.128 34.1225 20.888C34.5925 21.228 35.0725 21.588 35.5625 21.938L35.6525 22.008L35.7025 22.038L35.7325 22.068H35.7225C35.6925 22.048 35.7225 22.0679 35.7125 22.0779L35.7325 22.0979L35.8025 22.178C35.8525 22.238 35.9125 22.2879 35.9725 22.3479C36.2125 22.5679 36.4925 22.778 36.7425 22.948C37.0325 23.148 37.2925 23.2879 37.4825 23.3679L37.6125 23.428L37.6725 23.4579L37.7025 23.4679L37.7125 23.4779C37.7125 23.4779 37.7225 23.4879 37.7125 23.4679C37.5825 23.2779 37.4625 23.098 37.3725 22.938C37.1225 22.478 37.0225 22.178 37.1025 21.898C37.1425 21.718 37.2225 21.5679 37.3525 21.3679Z" fill="#E95232"/>
<path d="M30.9725 21.168C30.6625 21.038 30.3025 20.8879 29.9125 20.7179C29.5125 20.5579 29.0825 20.378 28.6425 20.188C28.1825 20.018 27.7225 19.8179 27.2425 19.6479C27.0025 19.5579 26.7625 19.4679 26.5325 19.3879C26.2925 19.3079 26.0525 19.2279 25.8225 19.1479C23.9725 18.5079 22.3225 18.0979 22.2625 17.7279C22.0525 17.6779 22.1425 17.5779 22.0725 17.4879C22.0125 17.3979 21.7925 17.3179 20.9725 17.3279C21.6025 17.4179 22.5425 17.5379 23.5825 17.7579C24.6225 17.9579 25.7625 18.298 26.8325 18.668C27.3625 18.878 27.8825 19.068 28.3425 19.298C28.5825 19.408 28.8025 19.5179 29.0225 19.6279C29.2325 19.7479 29.4325 19.8579 29.6125 19.9679C29.9825 20.1879 30.2925 20.4079 30.5225 20.6179C30.7425 20.8279 30.9025 21.008 30.9725 21.168Z" fill="#E95232"/>
<path d="M27.2725 21.1379C27.4225 21.4679 26.9025 21.3379 26.2425 21.0979C25.5825 20.8779 24.7725 20.5779 24.4125 20.5179C23.9325 20.3279 23.4325 20.1879 22.9325 20.0179C23.2925 20.0479 23.6925 20.0779 24.0825 20.1279C24.4725 20.1979 24.8825 20.2579 25.2625 20.3479C25.6425 20.4479 26.0225 20.548 26.3625 20.688C26.7025 20.838 27.0125 20.9779 27.2725 21.1379Z" fill="#E95232"/>
<path d="M5.4325 24.438C4.7225 25.188 4.5225 25.348 4.5425 25.198C4.5725 25.048 4.8225 24.588 5.0925 24.168C5.3725 23.748 5.6425 23.348 5.6225 23.278C5.6125 23.248 5.5325 23.2979 5.3425 23.4679C5.2425 23.5579 5.1225 23.6679 4.9725 23.8279C4.8925 23.9079 4.8125 23.9879 4.7225 24.0879C4.6325 24.1879 4.5425 24.298 4.4425 24.418C4.7325 24.028 5.0725 23.668 5.3925 23.298C5.7225 22.928 6.0825 22.5879 6.4325 22.2379C6.8925 22.2079 7.3525 22.188 7.7925 22.188C7.3725 22.538 6.9525 22.8879 6.5625 23.2679C6.1625 23.6279 5.8025 24.038 5.4325 24.438Z" fill="#E95232"/>
<path d="M1.3825 29.3579C1.2325 29.9479 1.0425 30.508 0.832497 31.188C0.772497 31.358 0.712497 31.5279 0.652497 31.7079C0.592497 31.8879 0.522502 32.078 0.462502 32.288C0.392502 32.488 0.312498 32.698 0.232498 32.918C0.162498 33.138 0.0825027 33.3779 0.00250275 33.6279C0.00250275 33.2279 -0.00750275 32.828 0.0124973 32.428C0.0724972 32.028 0.242503 31.628 0.502503 31.158C0.622503 30.918 0.762499 30.6579 0.912499 30.3579C1.0625 30.0679 1.2225 29.7379 1.3825 29.3579Z" fill="#E95232"/>
<path d="M5.7325 25.8579C4.7425 27.4479 4.6025 26.998 3.8025 27.928C3.8425 27.748 4.0425 27.4079 4.3025 27.0379C4.5725 26.6779 4.9125 26.2879 5.2225 25.9779C5.8625 25.3879 6.3025 25.0979 5.7325 25.8579Z" fill="#E95232"/>
<path d="M6.1925 42.698C5.7725 42.018 5.6325 40.918 5.6325 39.658C5.6325 39.498 5.6325 39.338 5.6425 39.178C5.6525 39.018 5.6625 38.858 5.6725 38.688C5.6825 38.358 5.7225 38.028 5.7525 37.688C5.8125 37.008 5.9125 36.358 6.0025 35.678C5.9125 36.348 5.8825 36.9279 5.8825 37.4579C5.8825 37.7279 5.8925 37.9879 5.8925 38.2479C5.9025 38.5079 5.9225 38.7579 5.9325 39.0179C6.0125 40.0579 6.0925 41.128 6.1925 42.698Z" fill="#E95232"/>
<path d="M89.5125 38.4879C89.4325 38.8879 89.3725 39.3079 89.3425 39.7379C89.3025 40.1579 89.2625 40.5879 89.2425 40.9979C89.2225 41.4079 89.2225 41.808 89.2125 42.168C89.2025 42.528 89.2025 42.868 89.2125 43.1479L89.5625 42.3379C89.5725 41.0479 89.5825 39.7679 89.5125 38.4879Z" fill="#E95232"/>
<path d="M84.6725 15.108C83.8625 14.518 83.9525 14.868 84.3825 15.748C84.4825 15.968 84.6325 16.218 84.7525 16.518C84.8725 16.808 85.0125 17.128 85.1525 17.478C85.2925 17.828 85.4425 18.188 85.5625 18.568C85.6825 18.958 85.7925 19.358 85.8925 19.778C86.6625 21.848 87.4825 23.948 88.0725 26.108C88.6725 28.268 89.1625 30.478 89.2625 32.648L89.4225 33.298L89.5525 33.9579L89.8025 35.278C89.9225 32.668 89.7625 29.008 88.9125 25.278C88.7325 24.338 88.4325 23.418 88.1725 22.488C88.1125 22.258 88.0325 22.028 87.9425 21.798C87.8625 21.568 87.7825 21.348 87.6925 21.118C87.6125 20.898 87.5225 20.668 87.4425 20.448C87.3625 20.2281 87.2825 20.008 87.1725 19.788C86.9825 19.358 86.7825 18.928 86.5925 18.508C86.4925 18.298 86.4025 18.088 86.3025 17.888C86.1925 17.688 86.0825 17.488 85.9825 17.288C85.7625 16.898 85.5525 16.518 85.3425 16.138C85.1425 15.798 84.8925 15.448 84.6725 15.108Z" fill="#E95232"/>
<path d="M74.0125 76.2179C75.8225 74.1879 77.9025 71.688 79.7625 68.928C81.6425 66.188 83.1425 63.1079 83.9625 60.2179C83.6525 60.8379 83.3725 61.2779 83.1225 61.6579C82.8725 62.0479 82.6525 62.3779 82.4025 62.7579C81.9325 63.5179 81.2925 64.3979 80.1725 66.2079C80.3525 65.3879 80.6425 64.6279 81.0125 63.8979C81.1025 63.7179 81.2025 63.5379 81.3125 63.3579C81.4125 63.1779 81.5025 62.988 81.6125 62.808C81.8225 62.448 82.0425 62.0779 82.2725 61.7179C82.5025 61.3579 82.7425 60.9879 82.9825 60.6179C83.2125 60.2379 83.4325 59.8579 83.6625 59.4579C83.8925 59.0679 84.1125 58.6579 84.3225 58.2479C84.4325 58.0379 84.5425 57.8279 84.6325 57.6179C84.7225 57.3979 84.8125 57.1779 84.9025 56.9579C83.5125 59.7679 84.7225 55.8179 85.4625 53.2879C85.6925 52.7079 85.9225 52.0679 86.1625 51.3979C86.3725 50.7179 86.5825 49.9979 86.8025 49.2479C86.9025 48.8679 87.0325 48.4879 87.1225 48.0979C87.2125 47.6979 87.3125 47.2979 87.4025 46.8879C87.4525 46.6879 87.4925 46.4779 87.5425 46.2679C87.5825 46.0579 87.6225 45.8479 87.6625 45.6379C87.7425 45.2179 87.8225 44.7879 87.9025 44.3579C88.4925 40.9079 88.6925 37.148 88.5225 33.678C88.4725 33.308 88.3925 32.8279 88.3325 32.2779C88.2725 31.7279 88.2225 31.1079 88.1225 30.4579C87.9625 29.1479 87.7325 27.6979 87.4325 26.3979C87.2725 25.7479 87.1325 25.1379 86.9625 24.5979C86.7825 24.0579 86.6125 23.5979 86.4625 23.2379C86.3825 23.0579 86.3125 22.908 86.2425 22.788C86.1625 22.6679 86.1025 22.5779 86.0325 22.5279C85.9125 22.4179 85.8125 22.458 85.7525 22.668C85.3725 21.688 85.1525 20.8879 84.9125 20.2279C84.8025 19.8979 84.7125 19.588 84.6425 19.298C84.6025 19.148 84.5725 19.0079 84.5325 18.8679C84.4925 18.7279 84.4525 18.5979 84.4125 18.4679C84.2625 17.9379 84.1425 17.4379 83.9625 16.8779C83.7725 16.3279 83.5125 15.7279 83.1525 15.0079C81.6225 13.0979 80.1525 11.358 78.6525 9.69798C77.1425 8.04799 75.5725 6.47798 73.7925 5.06798C72.0125 3.66798 70.0225 2.41796 67.7225 1.54796C65.4325 0.68796 62.8325 0.187872 60.0525 0.457872C60.2325 0.317872 60.0225 0.197897 59.5625 0.107897C59.1025 0.0378966 58.4025 -0.022079 57.6025 0.00792104C56.8025 0.027921 55.9225 0.117911 55.1025 0.247911C54.2825 0.377911 53.5325 0.547975 52.9925 0.687975C52.7025 0.757975 52.3825 0.847872 52.0425 0.957872C51.7025 1.06787 51.3625 1.15797 50.9825 1.30797C50.2225 1.58797 49.4325 1.92789 48.6525 2.34789C47.0825 3.16789 45.5925 4.26791 44.4425 5.36791C43.2925 6.46791 42.4725 7.5279 42.1125 8.2379C41.7325 8.9379 41.7725 9.24798 42.3625 8.93797C43.6325 7.94798 45.1225 6.14787 47.2325 4.57787C48.2825 3.79787 49.4725 3.07797 50.7325 2.55797C51.0525 2.43797 51.3725 2.31787 51.6925 2.20787C52.0025 2.11787 52.3225 2.02798 52.6325 1.94798C53.2625 1.80798 53.8825 1.70797 54.4825 1.68797C55.0025 1.64797 55.4225 1.65796 55.7525 1.66796C56.0825 1.67796 56.3225 1.69789 56.4925 1.72789C56.8225 1.78789 56.8425 1.86797 56.6525 1.93797C56.2625 2.08797 54.9825 2.30791 53.5125 2.74791C53.1425 2.84791 52.7625 2.98791 52.3825 3.11791C52.0025 3.23791 51.6125 3.41787 51.2325 3.57787C50.8525 3.73787 50.4925 3.93791 50.1425 4.11791C49.7925 4.29791 49.4725 4.50798 49.1725 4.69798C48.5825 5.09798 48.0925 5.46795 47.7925 5.78795C47.4825 6.10795 47.3225 6.33798 47.3925 6.44798C47.5825 6.23798 47.8125 6.11792 48.0625 6.00792C48.1925 5.95792 48.3225 5.89789 48.4625 5.84789C48.6125 5.79789 48.7725 5.74797 48.9425 5.68797C49.1125 5.62797 49.3025 5.55789 49.5025 5.47789C49.7125 5.39789 49.9425 5.30798 50.1925 5.19798C50.4325 5.07798 50.7225 4.96798 51.0225 4.81798C51.3225 4.65798 51.6725 4.50798 52.0525 4.31798C50.4225 5.06798 49.9025 5.58791 49.8725 5.74791C49.8425 5.91791 50.3225 5.81798 50.8825 5.69798C51.1725 5.64798 51.4825 5.58796 51.7525 5.54796C52.0325 5.51796 52.2825 5.50794 52.4525 5.52794C52.7825 5.56794 52.7825 5.73797 52.0725 6.17797C53.8325 5.62796 55.1825 5.46795 56.2025 5.40795C57.2225 5.34795 57.9425 5.41791 58.5425 5.49791C58.8425 5.54791 59.1125 5.61797 59.3725 5.68797C59.6325 5.75798 59.8925 5.85788 60.1625 5.96788C60.7025 6.18788 61.3125 6.47796 62.1225 6.91796C62.6325 6.97796 63.0725 7.01797 63.4425 7.05797C63.8125 7.08797 64.1225 7.11791 64.3725 7.11791C64.8925 7.11791 65.2025 7.0779 65.4325 6.9879C65.9025 6.8079 66.0125 6.48788 66.7025 6.46788C69.0225 7.04788 70.8825 8.23796 72.4525 9.54796C73.2425 10.198 73.9625 10.8979 74.6725 11.5979C75.3825 12.2979 76.0725 12.9979 76.8025 13.7079C75.9925 13.4079 75.8325 13.638 76.0725 14.168C76.3125 14.688 76.9225 15.5479 77.6325 16.6079C77.9925 17.1379 78.3525 17.7179 78.7125 18.3579C78.9025 18.6679 79.0825 18.998 79.2725 19.318C79.4425 19.648 79.6125 19.988 79.7825 20.318C80.1525 20.968 80.4125 21.668 80.7125 22.308C80.8625 22.628 80.9725 22.9479 81.0825 23.2579C81.1925 23.5679 81.3025 23.8579 81.4025 24.1279C81.6325 24.8479 81.7925 25.4279 81.9725 25.8779C82.1425 26.3379 82.2525 26.6879 82.3825 26.9579C82.6325 27.4979 82.8725 27.7179 83.0925 27.9679C83.3125 28.2179 83.5225 28.4779 83.7525 29.0879C83.8125 29.2379 83.8625 29.4179 83.9225 29.6179C83.9725 29.8279 84.0225 30.058 84.0625 30.318C84.1525 30.848 84.2625 31.5079 84.2925 32.3479C84.1625 33.1979 84.0125 33.188 83.8425 32.798C83.6625 32.398 83.5025 31.6079 83.2625 30.8679C83.1525 30.4979 83.0425 30.1379 82.9325 29.8379C82.8225 29.5379 82.7025 29.308 82.6025 29.188C82.5025 29.068 82.4225 29.0579 82.3625 29.2179C82.3325 29.2979 82.3125 29.4179 82.2925 29.5779C82.2825 29.7379 82.2625 29.9579 82.2425 30.2279L82.5825 31.668L82.8525 33.1379C83.5625 34.9979 84.3925 36.5679 84.6525 38.9879C84.6425 39.1679 84.6325 39.358 84.6225 39.548C84.6025 39.738 84.5825 39.9379 84.5625 40.1379C84.5225 40.5379 84.4725 40.938 84.4225 41.298C84.3125 42.008 84.1725 42.538 84.0525 42.548C84.1325 41.148 83.9425 40.6479 83.7025 40.8579C83.4725 41.0579 83.1125 41.9579 82.7425 43.3379C82.7425 44.0079 82.7425 44.4379 82.7625 44.7779C82.7825 45.1179 82.8125 45.3779 82.8525 45.7179C83.0325 45.3979 83.1825 45.128 83.3025 44.928C83.4225 44.718 83.5225 44.5679 83.6025 44.4779C83.7625 44.2879 83.8425 44.2979 83.8625 44.4879C83.8825 44.6779 83.8425 45.0279 83.7625 45.5079C83.6625 45.9779 83.5225 46.5679 83.3625 47.2379C83.1825 47.8979 82.9525 48.6279 82.7325 49.3879C82.6125 49.7679 82.5225 50.1579 82.3925 50.5379C82.2625 50.9179 82.1425 51.298 82.0225 51.678C81.5725 53.198 81.0725 54.6079 80.9425 55.6579C80.8925 55.8379 80.8525 56.018 80.8025 56.188C80.7425 56.358 80.6925 56.518 80.6425 56.688C80.5325 57.008 80.4325 57.3179 80.3325 57.6079C80.1225 58.1879 79.9425 58.718 79.7425 59.188C79.3225 60.108 78.9425 60.8179 78.5925 61.3879C78.4225 61.6779 78.2425 61.9179 78.0625 62.1279C77.8925 62.3379 77.7225 62.528 77.5525 62.698C77.2225 63.038 76.9125 63.298 76.6025 63.558C76.4425 63.688 76.2925 63.818 76.1225 63.948C75.9525 64.078 75.7825 64.2079 75.6025 64.3579C75.2425 64.6579 74.8725 65.0179 74.4425 65.4979C74.0325 65.9879 73.5225 66.5679 72.9425 67.3479C72.6525 67.7279 72.3525 68.1779 72.0025 68.6479C71.6525 69.1179 71.2725 69.6479 70.8625 70.2379C71.6925 69.7779 71.8625 69.9479 71.5925 70.5179C71.4525 70.7979 71.2325 71.1979 70.9025 71.6379C70.5725 72.0779 70.1625 72.5879 69.7025 73.1379C67.8625 75.3179 65.1325 77.918 63.8025 79.308C63.4925 79.568 63.2025 79.7979 62.9225 80.0079C62.6525 80.2279 62.3725 80.388 62.1225 80.558C61.6125 80.878 61.1525 81.1379 60.7125 81.3679C60.4925 81.4779 60.2825 81.588 60.0625 81.698C59.8425 81.788 59.6225 81.8779 59.3925 81.9779C58.9425 82.1579 58.4725 82.348 57.9425 82.568C57.7825 82.718 57.5425 82.9379 57.2525 83.1579C56.9625 83.3779 56.6325 83.6179 56.3225 83.8479C55.7025 84.3179 55.1325 84.7679 55.0425 84.9879C55.6725 85.1779 56.6125 85.1779 57.8325 84.9879C58.4525 84.9079 59.1125 84.7379 59.8325 84.5179C60.1925 84.4079 60.5725 84.2879 60.9725 84.1579C61.3725 84.0279 61.7825 83.8879 62.1925 83.7079C65.5325 82.4079 69.6325 80.088 73.7525 76.678C73.9125 76.448 74.0425 76.2379 74.0125 76.2179Z" fill="#E95232"/>
<path d="M76.2225 119.258C75.9625 118.808 75.6625 118.198 75.5025 117.698C75.3325 117.198 75.2925 116.798 75.5725 116.798L75.7225 116.468C75.8225 116.668 76.0125 117.018 76.2225 117.408C76.4125 117.818 76.6125 118.258 76.7325 118.658C76.9625 119.438 76.9525 119.928 76.2225 119.258Z" fill="#9F9F9F"/>
<path d="M70.0325 121.818L70.0225 122.078C70.0325 121.948 70.0125 121.808 69.9725 121.668C69.9325 121.528 69.8725 121.398 69.8225 121.298C70.0225 121.168 70.4625 121.458 70.5425 121.928C70.3325 121.898 70.1425 121.498 70.0325 121.818Z" fill="#9F9F9F"/>
<path d="M64.4125 108.348C63.7725 108.758 63.8325 110.188 64.3125 111.518L63.1825 112.138C62.8625 111.098 61.2225 110.158 60.0925 109.178C59.4925 108.978 60.8725 110.398 59.5925 109.618C59.5825 109.378 59.8725 109.228 59.7225 108.938C59.1225 108.608 58.7925 108.738 58.3625 108.668C57.9325 108.598 57.3925 108.348 56.4325 107.158C56.3325 106.788 56.2525 106.398 56.1725 106.018C55.3025 105.048 54.4125 104.028 53.5925 102.918C52.7525 101.778 52.0025 100.528 51.4325 99.1976C50.8625 97.8676 50.4525 96.4475 50.2925 94.9775C50.1325 93.5075 50.2325 91.9876 50.6825 90.5576C50.5725 90.2676 50.5925 89.8576 50.6425 89.3776C50.6625 89.1376 50.7325 88.8775 50.8025 88.6075C50.8825 88.3375 50.9425 88.0576 51.0725 87.7776C51.1825 87.4976 51.3025 87.2076 51.4225 86.9276C51.5525 86.6476 51.7125 86.3775 51.8525 86.0975C51.9225 85.9575 51.9825 85.8276 52.0725 85.6876C52.1625 85.5476 52.2425 85.4076 52.3225 85.2676C52.4925 84.9976 52.6625 84.7376 52.8125 84.4976L53.1125 84.7075C53.3125 84.0375 53.9825 83.4775 54.7425 83.0775C55.5025 82.6675 56.3325 82.4276 56.9725 82.1176C57.4125 82.0576 57.8425 82.0276 58.2625 82.0176C58.5725 82.2376 57.7525 82.5276 57.0925 82.9476C56.7625 83.1576 56.4625 83.3775 56.3325 83.5775C56.2025 83.7675 56.2525 83.9075 56.5825 83.9775C57.1725 83.7975 57.6625 83.5976 58.1325 83.3776C58.6025 83.1576 59.0425 82.9376 59.5025 82.7476C60.4025 82.3776 61.4025 82.1076 62.4425 82.5176C63.4625 82.6876 63.9225 82.7776 64.3125 82.7676C64.7025 82.7776 65.0225 82.7076 65.7125 82.9176C65.9625 82.8376 65.8925 82.7076 65.8025 82.5476C65.7125 82.3976 65.5825 82.2375 65.7325 82.0775C66.3925 82.3275 66.9425 82.6576 67.4025 83.0176C67.8625 83.3776 68.2125 83.7676 68.4825 84.1476C69.0325 84.9276 69.2525 85.6575 69.3825 86.3575C69.5125 87.0775 69.5325 87.7576 69.5225 88.5076C69.5025 89.2576 69.4825 90.0775 69.3525 91.1075C69.4225 91.1575 69.4825 91.4075 69.5425 91.7175C69.5925 92.0275 69.6225 92.3976 69.6825 92.6776C69.7425 92.9576 69.8125 93.1376 69.9925 93.0676C70.0825 93.0276 70.1925 92.9175 70.3225 92.7175C70.4525 92.5175 70.6125 92.2176 70.7525 91.7776C70.7525 91.1876 70.6925 90.5976 70.5725 90.0176C70.7125 89.6276 70.8325 89.2176 70.9125 88.7776C71.0225 89.4976 71.0025 90.4976 70.9225 91.2476C70.8525 92.0076 70.7725 92.5575 71.0125 92.4775C70.5625 92.8275 70.2425 93.5276 69.8625 94.3076C69.4925 95.0876 69.0525 95.9576 68.5725 96.6476C68.1025 97.3376 67.6225 97.8376 67.4025 97.9176C67.2925 97.9576 67.2625 97.8976 67.3125 97.6976C67.3625 97.4976 67.4825 97.1676 67.6325 96.6676C68.5425 96.0176 69.0125 95.4576 69.3025 94.9176C69.5825 94.3776 69.6925 93.8375 69.6825 93.1075C69.2225 94.1975 68.5525 95.1376 67.7525 95.9076C66.9525 96.6776 66.0025 97.2776 64.9825 97.6676C64.4725 97.8576 63.9325 97.9876 63.4025 98.0676C62.8625 98.1376 62.3325 98.1475 61.8125 98.1075C60.7725 98.0175 59.8025 97.7176 58.9525 97.3076C58.5325 97.3276 58.0925 97.3176 57.6625 97.2676C57.7925 96.9976 57.5125 96.5276 57.1525 95.9376C56.7825 95.3576 56.3425 94.6376 55.9725 93.9176C55.4825 93.3976 55.1725 92.5175 54.9925 92.8375C54.8825 92.7975 54.9425 93.1476 55.1425 93.6376C55.3425 94.1276 55.6825 94.7476 56.0325 95.2776C56.3825 95.8076 56.7225 96.2475 56.7825 96.4775C56.8425 96.6975 56.5725 96.7675 55.7725 96.3275C54.6525 95.0275 53.9325 93.4076 53.7325 91.7476C53.6325 90.9176 53.6725 90.0776 53.8425 89.3076C54.0125 88.5276 54.3225 87.8176 54.7025 87.2476L56.2825 84.8676L57.6425 86.2075C58.0925 86.6575 58.4825 87.0876 58.8025 87.5076C58.2525 87.2676 57.7825 87.0176 57.3125 86.8076L55.7825 86.1276L55.3325 87.4976C55.1825 87.9476 55.1025 88.4176 55.1325 88.9076C55.1525 89.3976 55.2925 89.8976 55.5625 90.3776C55.8825 91.8076 56.5925 93.0675 57.5425 94.0875C58.4925 95.0975 59.7325 95.8775 61.1225 96.0875C61.8125 96.1875 62.5125 96.1575 63.1725 95.9575C63.8325 95.7775 64.4325 95.4376 64.9425 95.0276C65.9625 94.1876 66.6025 92.9976 66.7825 91.8176C67.0125 91.8076 67.2625 91.5076 67.4725 91.2476C67.6825 90.9876 67.8625 90.7576 68.0325 91.0076C68.2225 90.7876 68.2825 90.2976 68.3125 89.8176C68.3425 89.3376 68.3325 88.8775 68.5825 88.6075C68.3925 88.0475 68.1325 87.4976 67.8025 86.9875C67.4725 86.4976 67.0825 86.0376 66.6425 85.6376C65.7525 84.8376 64.6725 84.3076 63.5625 84.0276C61.3425 83.4776 59.0525 83.8176 57.3125 84.6876C57.6725 84.8076 57.7325 84.9776 57.6325 85.1576C57.5325 85.3476 57.2725 85.5576 56.9625 85.8176C56.6625 86.0776 56.3125 86.3676 56.0425 86.6776C55.9025 86.8276 55.7925 86.9976 55.6925 87.1376C55.6025 87.2876 55.5425 87.4376 55.5025 87.5576C55.2825 87.6676 55.0525 87.8376 54.8725 88.0676C54.7725 88.1776 54.6825 88.3076 54.5925 88.4376C54.5025 88.5676 54.4325 88.7176 54.3625 88.8676C54.2925 89.0176 54.2125 89.1676 54.1525 89.3176C54.1025 89.4776 54.0525 89.6376 54.0025 89.7876C53.8925 90.0976 53.8325 90.4076 53.7625 90.6976C53.8825 90.8676 53.8425 91.5675 54.1625 91.4575C54.1525 91.0375 54.2725 90.7776 54.3925 90.5176C54.4225 90.4576 54.4525 90.3875 54.4925 90.3275C54.5325 90.2675 54.5725 90.1976 54.6225 90.1376C54.7125 90.0076 54.8025 89.8576 54.8925 89.6776C55.0425 89.8276 55.0825 89.9976 55.0525 90.1876C55.0325 90.2876 54.9925 90.3775 54.9525 90.4875C54.9125 90.5975 54.8625 90.7075 54.8025 90.8375C54.7425 90.9575 54.6725 91.0875 54.6025 91.2175C54.5425 91.3575 54.4825 91.4976 54.4225 91.6376C54.2925 91.9276 54.2125 92.2476 54.1725 92.5476C54.0525 92.3276 53.9225 92.0875 53.8125 91.8475C53.6525 92.8975 53.3325 94.0776 53.2725 95.3076C53.2025 96.5276 53.4225 97.7576 54.1325 98.5576C54.1425 98.2476 54.1625 97.9376 54.2025 97.6376C54.2425 97.3376 54.2625 97.0376 54.3225 96.7375C54.7925 97.8375 55.1125 99.1176 55.6425 100.268C56.1625 101.418 56.8725 102.408 57.7925 102.798C57.3925 102.108 56.7325 101.298 56.3025 100.568C56.2025 100.388 56.1025 100.218 56.0325 100.048C55.9725 99.8776 55.9225 99.7275 55.9025 99.5975C55.8625 99.3275 55.9325 99.1276 56.1725 99.0276C56.4325 98.9476 56.7425 99.2876 57.0325 99.7375C57.3225 100.178 57.6225 100.738 57.7625 101.138C58.0725 102.018 58.5925 102.728 59.1725 103.318C59.7525 103.918 60.4225 104.388 61.0725 104.858C62.3625 105.838 63.6325 106.698 64.4125 108.348Z" fill="#9F9F9F"/>
<path d="M61.8125 103.648C60.7525 102.638 60.2725 102.607 59.7725 102.577C59.2925 102.537 58.7925 102.498 57.9925 101.318C58.6425 101.278 58.1825 99.9176 57.8425 99.1876C57.5125 98.9076 57.2725 98.5075 57.1125 98.0975C57.0225 97.8975 56.9625 97.6875 56.9025 97.4875C56.8425 97.2875 56.7825 97.1076 56.7225 96.9276C56.7025 96.6776 56.8525 96.5176 57.0525 96.5376C57.1525 96.5476 57.2625 96.5976 57.3625 96.6976C57.4125 96.7476 57.4625 96.8075 57.5125 96.8876C57.5625 96.9676 57.6125 97.0476 57.6525 97.1576C57.5825 97.7776 57.7825 98.3876 58.0725 98.9476C58.3825 99.4876 58.8025 100.018 59.2925 100.518C60.2125 101.528 61.2825 102.408 61.8125 103.648Z" fill="#9F9F9F"/>
<path d="M55.7825 96.9276C55.6025 96.5176 55.4925 95.7676 55.5425 95.1276C55.5825 94.8076 55.6525 94.5176 55.7525 94.2976C55.8725 94.0876 56.0225 93.9476 56.1925 93.9276C56.2425 93.8076 56.6225 93.9876 56.4625 93.5576C56.4225 93.7276 56.3825 93.9876 56.3525 94.2776C56.3425 94.5776 56.3025 94.9176 56.2925 95.2576C56.2825 95.4276 56.2625 95.5976 56.2425 95.7576C56.2325 95.9176 56.2025 96.0775 56.1625 96.2275C56.0825 96.5375 55.9825 96.7776 55.7825 96.9276Z" fill="#9F9F9F"/>
<path d="M54.1725 96.0875C53.9325 96.2375 53.8525 96.0376 53.8425 95.7676C53.8325 95.6276 53.8325 95.4775 53.8425 95.3375C53.8525 95.1975 53.8625 95.0776 53.8525 95.0076C53.9025 94.7976 53.9525 94.5976 54.0125 94.3976C54.1025 94.6676 54.1925 94.9676 54.2225 95.2576C54.2725 95.5476 54.2725 95.8375 54.1725 96.0875Z" fill="#9F9F9F"/>
<path d="M56.7525 88.9376C57.1425 88.5976 57.1125 88.9276 57.1125 89.1776C57.1125 89.3176 57.1125 89.4676 57.1625 89.5076C57.1825 89.5276 57.2225 89.5176 57.2725 89.4776C57.2925 89.4576 57.3225 89.4276 57.3625 89.3876C57.3925 89.3576 57.4325 89.3176 57.4725 89.2776L57.4025 89.3976L57.3325 89.5576L57.1825 89.8676C56.8925 89.7976 56.6125 89.7575 56.3225 89.7175C56.3725 89.5775 56.4525 89.4476 56.5325 89.3176L56.7525 88.9376Z" fill="#9F9F9F"/>
<path d="M58.2925 88.4076C58.3925 88.1076 58.6225 87.8676 59.1525 87.8076C59.1125 87.9376 59.0725 88.0676 59.0425 88.1976C58.9625 88.3876 58.5925 88.1776 58.2925 88.4076Z" fill="#9F9F9F"/>
<path d="M55.9725 88.0576C56.2225 87.4576 56.4925 87.8076 56.8625 87.6676C56.8625 87.8276 56.5625 88.0176 56.3025 88.1476C56.0525 88.2876 55.8225 88.3376 55.9725 88.0576Z" fill="#9F9F9F"/>
<path d="M61.4225 80.4576C60.9225 80.7976 60.2125 80.9077 59.4025 81.0677C58.5925 81.2277 57.6525 81.4376 56.8425 81.8976C57.6625 81.4476 58.2525 81.1276 58.9225 80.8676C59.5825 80.6276 60.3125 80.4276 61.4225 80.4576Z" fill="#9F9F9F"/>
<path d="M78.0025 131.338C77.8425 131.648 77.7725 131.998 77.7525 132.328C77.7325 132.658 77.7725 132.978 77.8225 133.208C77.9225 133.108 78.0225 133.018 78.1125 132.918C78.0825 132.388 78.0525 131.868 78.0025 131.338Z" fill="#9F9F9F"/>
<path d="M77.8625 120.998C77.3625 120.718 77.3125 120.908 77.3725 121.338C77.4025 121.558 77.4425 121.838 77.4625 122.168C77.4825 122.498 77.4925 122.868 77.4025 123.248C77.4225 123.488 77.4625 123.728 77.5025 123.968C77.5325 124.208 77.5725 124.438 77.6225 124.678C77.7225 125.158 77.7925 125.628 77.8925 126.108C77.9725 126.588 78.0425 127.058 78.0825 127.528C78.1125 127.998 78.1325 128.468 78.0825 128.918C78.1925 129.298 78.3125 129.678 78.4025 130.058C78.6625 129.008 78.9125 127.478 78.8725 125.798C78.8625 125.378 78.8425 124.958 78.7925 124.528C78.7625 124.318 78.7425 124.108 78.7125 123.898C78.6825 123.688 78.6325 123.478 78.5925 123.268C78.5525 123.058 78.5025 122.858 78.4525 122.658C78.4025 122.458 78.3325 122.258 78.2725 122.068C78.1525 121.688 78.0225 121.328 77.8625 120.998Z" fill="#9F9F9F"/>
<path d="M75.7825 146.008C75.7725 145.178 75.9925 144.168 76.1625 143.108C76.3325 142.038 76.4525 140.908 76.1925 139.778C75.8325 140.688 75.5825 140.668 75.1825 142.098C74.7525 141.468 74.9025 140.888 75.1825 140.318C75.4625 139.748 75.8825 139.188 76.0425 138.498C75.5625 139.578 75.4725 137.998 75.6425 136.998C75.9925 136.098 76.3325 134.888 76.6125 133.528C76.8925 132.178 77.1125 130.678 77.2225 129.258C77.1025 128.638 77.2325 127.318 77.1725 126.198C77.1125 125.078 76.8725 124.188 76.4125 124.558C76.3525 124.128 76.3025 123.778 76.3225 123.478C76.3325 123.328 76.3425 123.188 76.3625 123.058C76.3725 122.928 76.4025 122.798 76.4225 122.678C76.4725 122.428 76.5325 122.198 76.5725 121.928C76.6025 121.668 76.6025 121.378 76.5525 121.018C75.9325 120.138 75.5625 119.268 75.2325 118.388C75.0825 117.938 74.9225 117.508 74.7925 117.048C74.6425 116.608 74.5125 116.138 74.3425 115.698C73.7125 113.898 72.7925 112.118 70.8225 111.178C71.1225 111.048 70.8925 110.648 70.5225 110.208C70.3325 109.988 70.1125 109.768 69.8925 109.558C69.6825 109.358 69.4825 109.168 69.3425 109.028C68.7125 108.438 67.6725 107.518 66.8025 106.938C65.9325 106.358 65.2125 106.098 65.1625 106.788C65.4825 108.058 67.9825 108.538 68.7925 110.288C69.1425 111.018 69.1425 111.278 68.9525 111.258C68.7625 111.238 68.3725 110.948 67.9125 110.598C66.9925 109.898 65.8125 108.998 65.4625 109.368C65.9025 109.498 65.5025 110.318 66.6725 110.918C65.4925 110.198 65.5225 110.598 65.6625 111.118C65.8025 111.638 66.0425 112.278 65.3225 112.058C66.2725 113.288 66.6625 113.878 66.8525 114.388C67.0425 114.898 67.0425 115.348 67.0825 116.318C67.7425 116.868 68.1425 116.918 68.4825 116.828C68.8225 116.748 69.0825 116.518 69.4325 116.558C70.2425 117.118 70.6125 117.908 70.8925 118.668C71.1725 119.438 71.3325 120.188 71.7925 120.818C71.3125 120.728 71.0725 120.868 71.0025 121.138C70.9625 121.268 70.9525 121.438 70.9725 121.618C70.9825 121.708 71.0025 121.808 71.0325 121.908C71.0525 122.008 71.0725 122.118 71.1025 122.228C71.1325 122.338 71.1625 122.458 71.2025 122.568C71.2325 122.688 71.2725 122.808 71.3025 122.928C71.3425 123.048 71.3825 123.178 71.4125 123.298L71.5125 123.678C71.5525 123.808 71.5825 123.928 71.6225 124.058C71.6525 124.188 71.6725 124.308 71.7025 124.428C71.7325 124.548 71.7525 124.668 71.7825 124.778C71.8025 124.888 71.8125 125.008 71.8325 125.108C71.8825 125.648 71.9625 125.958 72.1025 126.168C72.2425 126.378 72.4125 126.468 72.5825 126.568C72.9125 126.778 73.2825 127.008 73.1425 128.298C72.7025 128.908 72.5325 128.228 72.2925 127.648C72.1825 127.358 72.0525 127.088 71.9025 126.988C71.7525 126.888 71.5925 126.958 71.3825 127.338C71.4725 127.698 71.5725 128.068 71.6425 128.448C71.7825 128.638 71.9325 128.828 72.0825 129.008C72.2325 129.198 72.3725 129.388 72.5125 129.588C72.8025 129.978 73.0425 130.408 73.1825 130.908C73.1025 131.458 72.9625 132.298 72.7225 132.268C72.7025 131.698 72.5225 131.478 72.2925 131.528C72.0625 131.578 71.7625 131.888 71.4825 132.418C71.6225 132.988 71.6425 133.138 71.8325 133.438C72.9025 132.508 72.8025 133.088 72.5025 134.148C72.2025 135.198 71.6725 136.728 71.9525 137.648C72.0125 138.908 71.9025 139.658 71.6925 140.168C71.4825 140.678 71.1625 140.938 70.8225 141.208C70.4825 141.478 70.1225 141.738 69.8625 142.268C69.7325 142.528 69.6125 142.858 69.5525 143.288C69.4825 143.708 69.4725 144.238 69.5225 144.878C70.3125 144.138 70.4225 144.988 70.5025 146.198C70.5225 146.508 70.5525 146.838 70.5725 147.168C70.6125 147.508 70.6425 147.848 70.6925 148.178C70.7525 148.508 70.8225 148.818 70.8925 149.098C70.9725 149.378 71.0825 149.618 71.1925 149.808C71.2425 150.148 71.2925 150.438 71.3125 150.708C71.3325 150.978 71.3125 151.218 71.3125 151.448C71.3025 151.908 71.2025 152.358 71.2125 152.928C71.5025 153.258 72.1325 154.228 72.4625 154.228C72.7825 153.798 73.0425 153.248 73.2625 152.648C73.5125 152.028 73.7125 151.368 73.9725 150.658C74.0825 150.318 74.2425 149.938 74.3625 149.588C74.4225 149.408 74.5125 149.218 74.5825 149.038C74.6625 148.848 74.7325 148.668 74.8125 148.478C75.1425 147.718 75.5025 146.958 75.9025 146.168C75.8625 146.078 75.8225 146.008 75.7825 146.008Z" fill="#9F9F9F"/>
</g>
</g>
</svg>
