<svg width="22" height="22" viewBox="0 0 22 22" fill="none" xmlns="http://www.w3.org/2000/svg">
<path d="M11.0967 21.4175C16.8501 21.4175 21.5142 16.7534 21.5142 11C21.5142 5.24659 16.8501 0.58252 11.0967 0.58252C5.34328 0.58252 0.679199 5.24659 0.679199 11C0.679199 16.7534 5.34328 21.4175 11.0967 21.4175Z" fill="white"/>
<path d="M14.3292 7.05518C13.9317 7.05518 13.6167 7.37768 13.6167 7.76768C13.6167 8.16518 13.9392 8.48018 14.3292 8.48018C14.7267 8.48018 15.0417 8.15768 15.0417 7.76768C15.0492 7.37768 14.7267 7.05518 14.3292 7.05518Z" fill="#0A6375"/>
<path d="M11.1491 7.97754C9.49161 7.97754 8.1416 9.32754 8.1416 10.985C8.1416 12.6425 9.49161 13.9925 11.1491 13.9925C12.8066 13.9925 14.1566 12.6425 14.1566 10.985C14.1566 9.32754 12.8066 7.97754 11.1491 7.97754ZM11.1491 12.905C10.0841 12.905 9.22165 12.0425 9.22165 10.9775C9.22165 9.91254 10.0841 9.05004 11.1491 9.05004C12.2141 9.05004 13.0767 9.91254 13.0767 10.9775C13.0767 12.0425 12.2141 12.905 11.1491 12.905Z" fill="#0A6375"/>
<path d="M13.5342 17.0901H8.65921C6.63421 17.0901 4.9917 15.4476 4.9917 13.4226V8.54763C4.9917 6.52263 6.63421 4.88013 8.65921 4.88013H13.5342C15.5592 4.88013 17.2017 6.52263 17.2017 8.54763V13.4226C17.2017 15.4401 15.5592 17.0901 13.5342 17.0901ZM8.65921 6.02763C7.27171 6.02763 6.13922 7.16013 6.13922 8.54763V13.4226C6.13922 14.8101 7.27171 15.9426 8.65921 15.9426H13.5342C14.9217 15.9426 16.0542 14.8101 16.0542 13.4226V8.54763C16.0542 7.16013 14.9217 6.02763 13.5342 6.02763H8.65921Z" fill="#0A6375"/>
</svg>
