<svg width="12" height="14" viewBox="0 0 12 14" fill="none" xmlns="http://www.w3.org/2000/svg">
<path d="M4.2675 4.49406C4.9425 3.70656 4.20751 2.67906 3.75751 1.97406C3.50251 1.56906 3.12751 0.991561 2.59501 0.916561C2.09251 0.864061 1.635 1.41906 1.305 1.72656C0.502504 2.45406 0.0600032 3.39906 0.0150032 4.47906C0.0225032 4.59906 0.0225 4.80156 0 4.62156C0.0825 5.26656 0.150007 5.88156 0.382507 6.49656C0.592507 7.07406 0.884996 7.60656 1.215 8.12406C1.9275 9.20406 2.7525 10.2466 3.735 11.1166C4.6875 11.9641 5.7675 12.7291 7.0425 12.9991C8.2425 13.2391 9.405 12.9916 10.35 12.2116C10.6875 11.9341 11.3175 11.5291 11.3475 11.0416C11.3775 10.5541 10.9875 10.1641 10.6575 9.87156C9.94501 9.23406 8.9025 8.17656 7.935 8.94906C7.56 9.25656 7.1625 9.82656 6.6525 9.90906C6.15 9.99156 5.67001 9.63156 5.30251 9.33906C4.49251 8.67906 3.705 7.77906 3.225 6.84156C3.0225 6.42156 2.8425 5.88906 3.1425 5.46906C3.4425 5.07156 3.945 4.87656 4.2675 4.49406Z" fill="#EBEBEB"/>
</svg>
