<svg width="321" height="323" viewBox="0 0 321 323" fill="none" xmlns="http://www.w3.org/2000/svg">
<path d="M71.5268 90.9066C85.7911 62.1503 105.251 34.6719 133.877 21.7325C162.504 8.79304 197.727 10.5892 223.025 29.3907C248.322 48.1922 261.202 84.4994 250.607 114.9C247.617 123.479 242.886 132.004 243.903 141.047C245.019 150.912 252.794 158.579 261.078 163.575C269.37 168.57 278.645 171.841 286.303 177.81C300.996 189.266 307.61 209.667 305.673 228.629C303.736 247.592 294.203 265.079 281.831 279.252C257.212 307.436 220.454 323.834 183.811 322.967C147.169 322.1 113.82 301.637 88.1209 274.686C40.5079 224.751 49.8447 134.622 71.5268 90.9066Z" fill="#D7FFBD"/>
<path d="M25.2887 220.73C25.3512 220.837 18.8082 219.13 18.2458 227.888C17.7281 224.93 17.3175 221.918 17.0408 218.871C23.4678 220.551 24.3961 211.401 24.4943 211.481C24.5478 211.597 18.2816 209.015 16.9426 217.817C16.7998 216.03 16.6926 214.224 16.6301 212.401C20.9237 205.592 16.398 200.15 16.4159 199.963C16.4159 199.766 10.9173 206.968 15.7018 212.589C15.7643 214.457 15.8714 216.316 16.0232 218.156C15.193 216.119 12.9169 210.445 7.90918 214.922C9.89975 224.126 15.1216 219.926 16.1035 219.166C16.3891 222.276 16.7997 225.332 17.3353 228.344C16.3177 226.467 13.5238 221.23 8.88212 226.243C11.7028 234.956 16.5945 230.184 17.5139 229.309C18.0763 232.302 18.7546 235.242 19.558 238.111C18.3618 236.404 15.0948 231.65 10.8548 237.154C14.461 245.304 18.9689 240.023 19.8169 239.04C20.647 241.899 21.5933 244.688 22.6466 247.404C21.2987 245.876 17.5853 241.649 13.7916 247.583C18.1387 255.116 22.218 249.361 22.9946 248.289C24.0836 250.987 25.2798 253.606 26.5919 256.144C25.0923 254.812 20.9773 251.13 17.6835 257.439C22.7358 264.284 26.333 258.118 27.0204 256.966C28.3593 259.477 29.8054 261.907 31.3586 264.24C29.725 263.123 25.2441 260.022 22.4858 266.635C28.1987 272.729 31.2783 266.214 31.8674 264.999C33.4474 267.305 35.1256 269.512 36.9198 271.612C35.1613 270.709 30.3499 268.216 28.1719 275.079C34.5096 280.369 37.0268 273.569 37.4999 272.291C39.4547 274.534 41.5347 276.661 43.7305 278.636C43.9716 278.85 44.3018 278.814 44.4714 278.564C44.641 278.305 44.5874 277.93 44.3464 277.715C42.1684 275.749 40.1065 273.649 38.1605 271.415C44.6589 268.029 40.883 260.656 41.0258 260.656C41.133 260.701 34.3222 263.319 37.5535 270.709C35.795 268.645 34.1436 266.474 32.5904 264.204C39.2494 261.612 36.2413 253.749 36.3841 253.758C36.4912 253.82 29.5912 255.599 32.0638 263.418C30.5374 261.13 29.1181 258.735 27.8059 256.269C34.5631 254.499 32.3316 246.216 32.4655 246.251C32.5637 246.323 25.6368 247.243 27.3596 255.42C26.0742 252.927 24.8959 250.353 23.8248 247.699C30.6088 246.77 29.1538 238.164 29.2788 238.2C29.368 238.289 22.4947 238.343 23.4588 246.779C22.4144 244.107 21.4861 241.363 20.6738 238.548C27.4131 238.477 26.7527 229.612 26.8687 229.675C26.949 229.773 20.2007 228.951 20.3971 237.583C19.6116 234.76 18.9421 231.873 18.3887 228.924C25.0477 229.711 25.1727 220.667 25.2887 220.73Z" fill="url(#paint0_linear_536_12010)"/>
<path d="M104.653 170.429C104.697 170.554 98.6452 166.836 96.5297 175.165C96.5476 172.127 96.6993 169.079 96.9671 166.023C102.912 169.678 105.438 161.082 105.528 161.189C105.563 161.314 99.9307 156.837 97.0654 164.969C97.2439 163.182 97.467 161.394 97.7259 159.616C103.108 154.344 99.6897 147.642 99.7343 147.463C99.77 147.275 93.1467 152.548 96.7886 159.5C96.5119 161.332 96.2887 163.173 96.1102 165.013C95.6639 162.77 94.4678 156.542 88.8085 159.321C89.1031 168.892 94.923 166.452 96.012 166.023C95.7353 169.133 95.5836 172.234 95.5657 175.326C94.9141 173.181 93.1288 167.221 87.7284 170.625C88.9156 179.972 94.5124 176.881 95.5657 176.327C95.5746 179.409 95.7174 182.484 95.9852 185.522C95.1283 183.484 92.7986 177.846 87.7017 181.849C89.7458 190.901 95.0747 187.184 96.0745 186.505C96.369 189.543 96.7886 192.554 97.3331 195.521C96.2887 193.618 93.4413 188.337 88.7014 192.903C91.5846 201.589 96.5744 197.282 97.5117 196.486C98.083 199.453 98.7881 202.375 99.6094 205.244C98.3864 203.483 95.0479 198.604 90.7276 203.698C94.4142 211.937 99.0112 207.076 99.8771 206.173C100.725 209.033 101.698 211.847 102.796 214.6C101.403 213 97.6009 208.568 93.7536 214.135C98.2168 221.856 102.376 216.494 103.153 215.493C104.278 218.228 105.519 220.909 106.875 223.509C105.331 222.079 101.091 218.147 97.7615 224.126C102.975 231.265 106.634 225.448 107.322 224.358C108.821 227.155 110.464 229.871 112.249 232.481C112.445 232.767 112.776 232.838 112.981 232.642C113.186 232.445 113.204 232.061 113.008 231.775C111.24 229.183 109.607 226.485 108.116 223.706C115.025 222.463 112.677 214.117 112.82 214.153C112.918 214.233 105.84 214.627 107.652 222.83C106.313 220.265 105.09 217.638 103.992 214.948C110.928 214.528 109.41 205.941 109.535 205.994C109.625 206.084 102.609 205.637 103.617 214.019C102.546 211.311 101.591 208.55 100.752 205.726C107.634 206.128 106.938 197.389 107.063 197.46C107.143 197.559 100.252 196.281 100.475 204.761C99.6718 201.937 98.9844 199.06 98.4221 196.147C105.179 197.38 105.304 188.56 105.42 188.64C105.492 188.748 98.8059 186.639 98.2347 195.146C97.6991 192.224 97.2885 189.266 97.0028 186.281C103.564 188.337 104.501 179.517 104.599 179.606C104.653 179.722 98.2525 176.8 96.9046 185.254C96.6458 182.26 96.5119 179.24 96.503 176.21C102.823 179.07 104.555 170.33 104.653 170.429Z" fill="url(#paint1_linear_536_12010)"/>
<path d="M297.318 240.139C297.256 240.246 303.799 238.539 304.361 247.297C304.879 244.339 305.29 241.328 305.566 238.28C299.139 239.96 298.211 230.81 298.113 230.89C298.059 231.006 304.326 228.424 305.665 237.226C305.807 235.439 305.914 233.634 305.977 231.811C301.683 225.001 306.209 219.559 306.191 219.372C306.191 219.175 311.69 226.377 306.905 231.998C306.843 233.866 306.736 235.725 306.584 237.565C307.414 235.528 309.69 229.854 314.698 234.331C312.707 243.535 307.486 239.335 306.504 238.575C306.218 241.685 305.807 244.741 305.272 247.753C306.289 245.876 309.083 240.639 313.725 245.653C310.904 254.365 306.013 249.593 305.093 248.718C304.531 251.711 303.853 254.651 303.049 257.52C304.245 255.813 307.512 251.059 311.752 256.564C308.146 264.713 303.638 259.432 302.79 258.449C301.96 261.309 301.014 264.097 299.961 266.813C301.309 265.285 305.022 261.058 308.816 266.983C304.468 274.516 300.389 268.761 299.612 267.689C298.523 270.388 297.327 273.006 296.015 275.544C297.515 274.212 301.63 270.531 304.924 276.839C299.871 283.684 296.274 277.519 295.587 276.366C294.248 278.877 292.802 281.307 291.249 283.64C292.882 282.523 297.363 279.422 300.121 286.035C294.409 292.138 291.329 285.615 290.74 284.399C289.16 286.705 287.482 288.912 285.687 291.012C287.446 290.109 292.257 287.616 294.435 294.479C288.098 299.769 285.58 292.969 285.107 291.691C283.152 293.934 281.073 296.061 278.877 298.036C278.636 298.25 278.305 298.214 278.136 297.964C277.966 297.705 278.029 297.33 278.261 297.115C280.439 295.149 282.501 293.049 284.447 290.815C277.948 287.429 281.724 280.056 281.581 280.056C281.474 280.101 288.285 282.719 285.054 290.11C286.812 288.045 288.464 285.865 290.017 283.604C283.358 281.013 286.366 273.149 286.223 273.158C286.116 273.22 293.016 274.999 290.543 282.818C292.07 280.53 293.489 278.135 294.801 275.669C288.044 273.899 290.276 265.616 290.142 265.652C290.043 265.723 296.97 266.643 295.248 274.82C296.533 272.327 297.711 269.753 298.782 267.099C291.998 266.17 293.453 257.564 293.328 257.6C293.239 257.689 300.112 257.743 299.148 266.179C300.193 263.507 301.121 260.763 301.933 257.949C295.194 257.877 295.855 249.013 295.738 249.075C295.658 249.173 302.406 248.351 302.21 256.983C302.996 254.16 303.665 251.273 304.219 248.324C297.559 249.111 297.435 240.068 297.318 240.139Z" fill="url(#paint2_linear_536_12010)"/>
<path d="M248.348 188.649C248.286 188.757 254.802 186.889 255.498 195.628C255.98 192.662 256.337 189.641 256.57 186.576C250.169 188.417 249.107 179.293 249.009 179.374C248.955 179.49 255.186 176.747 256.65 185.522C256.775 183.726 256.846 181.92 256.882 180.106C252.499 173.404 256.936 167.855 256.918 167.659C256.918 167.462 262.515 174.53 257.81 180.267C257.775 182.135 257.694 183.994 257.569 185.843C258.373 183.788 260.569 178.051 265.63 182.403C263.773 191.652 258.489 187.586 257.498 186.853C257.257 189.963 256.891 193.037 256.4 196.057C257.391 194.154 260.113 188.855 264.826 193.752C262.131 202.536 257.177 197.889 256.239 197.04C255.722 200.052 255.079 203.001 254.32 205.896C255.489 204.162 258.694 199.328 263.005 204.716C259.515 212.955 254.936 207.79 254.07 206.834C253.285 209.712 252.383 212.527 251.357 215.27C252.687 213.715 256.337 209.39 260.211 215.216C255.971 222.857 251.812 217.2 251.026 216.155C249.982 218.88 248.813 221.534 247.545 224.099C249.027 222.732 253.088 218.952 256.471 225.171C251.517 232.141 247.831 226.065 247.134 224.93C245.831 227.477 244.421 229.943 242.903 232.311C244.519 231.149 248.964 227.932 251.803 234.482C246.17 240.729 243.002 234.286 242.403 233.079C240.859 235.43 239.208 237.682 237.449 239.826C239.199 238.879 243.975 236.27 246.242 243.07C239.976 248.521 237.369 241.783 236.878 240.523C234.95 242.82 232.906 244.991 230.737 247.02C230.496 247.243 230.165 247.216 229.996 246.966C229.826 246.716 229.871 246.332 230.112 246.117C232.263 244.098 234.298 241.944 236.209 239.665C229.666 236.448 233.334 228.978 233.192 228.978C233.084 229.031 239.931 231.471 236.807 238.942C238.529 236.833 240.154 234.616 241.672 232.311C234.977 229.889 237.869 221.945 237.735 221.963C237.637 222.026 244.555 223.625 242.189 231.516C243.68 229.183 245.073 226.762 246.349 224.26C239.565 222.66 241.681 214.323 241.547 214.358C241.457 214.439 248.384 215.181 246.777 223.393C248.027 220.864 249.17 218.264 250.196 215.583C243.394 214.823 244.724 206.182 244.599 206.227C244.519 206.316 251.383 206.191 250.544 214.662C251.544 211.964 252.437 209.193 253.204 206.37C246.465 206.468 247.001 197.594 246.885 197.648C246.813 197.746 253.544 196.754 253.463 205.396C254.204 202.554 254.838 199.65 255.347 196.692C248.714 197.612 248.456 188.578 248.348 188.649Z" fill="url(#paint3_linear_536_12010)"/>
<path d="M71.9105 269.932C71.9105 269.932 77.1235 254.83 67.7955 229.872C58.4764 204.913 48.1129 202.089 42.1055 192.135C42.1055 192.135 45.5064 211.41 47.3363 226.69C49.1662 241.971 59.2351 261.496 71.9105 269.932Z" fill="url(#paint4_linear_536_12010)"/>
<path d="M44.5869 197.398C44.5869 197.398 75.1774 251.077 74.7133 293.532H72.6602C72.6691 293.532 75.8648 260.174 44.5869 197.398Z" fill="url(#paint5_linear_536_12010)"/>
<path d="M128.95 251.032C128.95 251.032 138.519 242.275 138.144 218.567C137.769 194.869 129.334 187.389 127.12 176.764C127.12 176.764 123.978 193.109 120.702 205.628C117.435 218.156 120.229 238.119 128.95 251.032Z" fill="url(#paint6_linear_536_12010)"/>
<path d="M127.665 182.037C127.665 182.037 137.975 238.432 123.88 270.361L122.023 269.306C122.032 269.297 135.663 245.679 127.665 182.037Z" fill="url(#paint7_linear_536_12010)"/>
<path d="M245.215 280.959C245.215 280.959 240.002 265.857 249.33 240.899C258.649 215.94 269.013 213.116 275.02 203.162C275.02 203.162 271.619 222.437 269.79 237.717C267.96 252.998 257.891 272.523 245.215 280.959Z" fill="url(#paint8_linear_536_12010)"/>
<path d="M272.53 208.425C272.53 208.425 241.939 262.104 242.404 304.559H244.457C244.457 304.559 241.261 271.201 272.53 208.425Z" fill="url(#paint9_linear_536_12010)"/>
<path d="M79.8549 262.3C79.8549 262.3 87.8619 249.54 83.7915 222.204C79.7211 194.869 70.277 188.533 66.4565 176.836C66.4565 176.836 65.9299 196.62 64.6802 212.008C63.4305 227.396 69.2862 249.745 79.8549 262.3Z" fill="url(#paint10_linear_536_12010)"/>
<path d="M67.8042 182.787C67.8042 182.787 86.728 245.241 77.9088 286.052L75.9271 285.338C75.9271 285.338 85.5944 254.258 67.8042 182.787Z" fill="url(#paint11_linear_536_12010)"/>
<path d="M316.778 292.245C315.546 291.566 314.314 290.994 313.1 290.512C311.877 290.038 310.663 289.645 309.458 289.341C308.851 289.18 308.253 289.055 307.655 288.93C307.057 288.823 306.459 288.716 305.861 288.635C303.227 288.287 300.648 288.269 298.113 288.546C299.987 286.482 301.79 284.274 303.513 281.862C303.906 281.316 304.281 280.753 304.665 280.19C305.039 279.619 305.414 279.047 305.78 278.448C306.512 277.268 307.226 276.035 307.905 274.748C308.583 273.462 309.235 272.103 309.842 270.674C310.44 269.235 311.02 267.734 311.466 266.018C309.86 265.741 308.378 265.714 306.941 265.759C305.504 265.812 304.129 265.964 302.79 266.206C301.46 266.447 300.166 266.76 298.925 267.144C298.3 267.332 297.693 267.546 297.077 267.769C296.479 268.002 295.881 268.234 295.292 268.493C293.31 269.36 291.436 270.397 289.659 271.567C290.391 269.342 291.043 267.046 291.57 264.669C291.73 263.972 291.864 263.257 292.007 262.542C292.132 261.818 292.266 261.103 292.373 260.37C292.596 258.905 292.775 257.412 292.891 255.875C293.007 254.338 293.06 252.757 293.034 251.13C292.998 249.495 292.909 247.824 292.605 246.019C291.034 246.618 289.668 247.359 288.383 248.155C287.098 248.959 285.91 249.826 284.795 250.737C283.679 251.649 282.634 252.614 281.644 253.615C281.144 254.115 280.679 254.624 280.206 255.143C279.751 255.67 279.296 256.188 278.858 256.724C276.93 259.11 275.27 261.648 273.833 264.302C273.619 261.166 273.19 258.02 272.503 254.875C271.878 252.033 271.03 249.191 269.888 246.35C269.316 244.929 268.656 243.508 267.906 242.096C267.138 240.675 266.308 239.263 265.21 237.86C264.121 239.272 263.291 240.684 262.532 242.105C261.782 243.526 261.131 244.947 260.56 246.368C259.426 249.218 258.587 252.069 257.962 254.91C257.435 257.341 257.069 259.772 256.828 262.193C255.686 260.147 254.418 258.172 252.981 256.287C251.303 254.079 249.402 251.997 247.224 250.085C246.135 249.129 244.965 248.217 243.716 247.368C242.448 246.528 241.118 245.724 239.565 245.072C239.208 246.868 239.074 248.53 238.994 250.165C238.922 251.792 238.931 253.373 239.011 254.919C239.163 258.002 239.547 260.942 240.092 263.766C240.707 266.911 241.52 269.932 242.475 272.845C240.216 271.201 237.789 269.798 235.182 268.672C232.834 267.662 230.344 266.885 227.684 266.42C226.354 266.188 224.97 266.036 223.542 265.982C222.105 265.938 220.623 265.973 219.025 266.25C219.49 267.957 220.07 269.449 220.677 270.879C221.293 272.3 221.944 273.649 222.632 274.936C224.006 277.501 225.488 279.842 227.041 282.022C228.371 283.881 229.755 285.624 231.183 287.268C229.201 287.098 227.184 287.098 225.14 287.304C222.748 287.545 220.302 288.072 217.829 288.939C216.588 289.377 215.348 289.904 214.089 290.539C212.83 291.191 211.572 291.924 210.295 292.924C211.304 294.202 212.322 295.239 213.348 296.222C214.375 297.196 215.392 298.081 216.419 298.903C218.472 300.538 220.516 301.941 222.56 303.165C224.595 304.38 226.631 305.426 228.666 306.346H303.843C305.227 305.721 306.655 305.408 308.039 304.64C308.556 304.354 309.065 304.041 309.583 303.737C310.101 303.415 310.618 303.103 311.127 302.763C312.163 302.093 313.198 301.369 314.234 300.574C315.269 299.787 316.313 298.929 317.349 297.991C318.384 297.044 319.429 296.034 320.455 294.783C319.25 293.711 318.009 292.933 316.778 292.245Z" fill="url(#paint12_linear_536_12010)"/>
<path d="M296.497 297.804C295.747 297.393 295.006 297.044 294.265 296.758C293.524 296.472 292.792 296.24 292.06 296.052C291.694 295.954 291.329 295.882 290.971 295.802C290.614 295.739 290.248 295.668 289.891 295.623C288.302 295.409 286.731 295.4 285.205 295.57C286.339 294.319 287.437 292.987 288.472 291.522C288.704 291.191 288.936 290.851 289.168 290.512C289.391 290.163 289.624 289.824 289.847 289.457C290.293 288.742 290.721 288.001 291.132 287.223C291.543 286.446 291.935 285.624 292.301 284.757C292.667 283.881 293.016 282.979 293.283 281.942C292.31 281.772 291.418 281.754 290.543 281.781C289.677 281.817 288.838 281.906 288.035 282.049C287.231 282.192 286.446 282.389 285.696 282.621C285.312 282.737 284.946 282.871 284.58 282.996C284.214 283.139 283.857 283.273 283.5 283.434C282.304 283.962 281.161 284.587 280.09 285.293C280.537 283.944 280.929 282.559 281.251 281.12C281.349 280.7 281.429 280.262 281.518 279.833C281.599 279.395 281.679 278.966 281.742 278.52C281.875 277.635 281.983 276.732 282.054 275.794C282.125 274.865 282.161 273.908 282.143 272.926C282.125 271.934 282.063 270.924 281.884 269.834C280.929 270.191 280.108 270.647 279.331 271.129C278.555 271.612 277.832 272.139 277.162 272.693C276.484 273.247 275.85 273.828 275.261 274.436C274.958 274.74 274.681 275.052 274.395 275.356C274.118 275.669 273.842 275.991 273.583 276.312C272.423 277.751 271.414 279.288 270.539 280.897C270.405 279.002 270.146 277.099 269.736 275.186C269.361 273.471 268.843 271.746 268.156 270.021C267.808 269.163 267.415 268.306 266.96 267.448C266.495 266.59 265.987 265.732 265.335 264.883C264.675 265.732 264.175 266.59 263.71 267.457C263.255 268.315 262.862 269.181 262.523 270.039C261.836 271.764 261.327 273.489 260.952 275.204C260.631 276.679 260.408 278.144 260.265 279.61C259.578 278.377 258.801 277.179 257.935 276.035C256.918 274.704 255.766 273.444 254.454 272.282C253.793 271.701 253.088 271.156 252.329 270.638C251.562 270.129 250.758 269.646 249.821 269.244C249.607 270.325 249.527 271.335 249.473 272.327C249.428 273.31 249.437 274.266 249.482 275.204C249.571 277.072 249.803 278.85 250.142 280.557C250.517 282.46 251.008 284.283 251.588 286.053C250.223 285.061 248.75 284.203 247.179 283.524C245.76 282.916 244.251 282.442 242.635 282.157C241.832 282.014 240.993 281.924 240.127 281.888C239.261 281.862 238.36 281.888 237.396 282.049C237.672 283.086 238.029 283.98 238.395 284.855C238.77 285.713 239.163 286.535 239.574 287.313C240.404 288.868 241.296 290.279 242.243 291.602C243.046 292.728 243.885 293.782 244.751 294.774C243.555 294.667 242.332 294.676 241.091 294.792C239.645 294.935 238.163 295.257 236.673 295.775C235.923 296.043 235.173 296.356 234.414 296.749C233.656 297.142 232.888 297.589 232.12 298.197C232.727 298.974 233.352 299.6 233.968 300.189C234.584 300.779 235.209 301.315 235.825 301.807C237.065 302.799 238.306 303.648 239.538 304.389C240.77 305.122 242.002 305.757 243.233 306.311H288.722C289.561 305.927 290.418 305.748 291.257 305.274C291.569 305.104 291.882 304.908 292.194 304.729C292.507 304.532 292.819 304.345 293.132 304.139C293.756 303.728 294.381 303.29 295.015 302.817C295.64 302.343 296.274 301.825 296.899 301.253C297.523 300.681 298.157 300.064 298.782 299.314C297.988 298.697 297.238 298.224 296.497 297.804Z" fill="url(#paint13_linear_536_12010)"/>
<path d="M109.455 292.245C108.223 291.566 106.991 290.994 105.777 290.512C104.554 290.038 103.34 289.645 102.135 289.341C101.528 289.18 100.93 289.055 100.332 288.93C99.734 288.823 99.1359 288.716 98.5379 288.635C95.9046 288.287 93.325 288.269 90.7899 288.546C92.6644 286.482 94.4675 284.274 96.1903 281.862C96.583 281.316 96.958 280.753 97.3418 280.19C97.7167 279.619 98.0916 279.047 98.4576 278.448C99.1895 277.268 99.9036 276.035 100.582 274.748C101.26 273.462 101.912 272.103 102.519 270.674C103.117 269.235 103.697 267.734 104.144 266.018C102.537 265.741 101.055 265.714 99.618 265.759C98.1809 265.812 96.8062 265.964 95.4673 266.206C94.1373 266.447 92.843 266.76 91.6022 267.144C90.9774 267.332 90.3703 267.546 89.7544 267.769C89.1563 268.002 88.5583 268.234 87.9691 268.493C85.9875 269.36 84.113 270.397 82.3367 271.567C83.0686 269.342 83.7202 267.046 84.2468 264.669C84.4075 263.972 84.5415 263.257 84.6843 262.542C84.8093 261.818 84.9431 261.103 85.0502 260.37C85.2734 258.905 85.452 257.412 85.568 255.875C85.6841 254.338 85.7375 252.757 85.7108 251.13C85.675 249.495 85.5858 247.824 85.2823 246.019C83.7113 246.618 82.3456 247.359 81.0602 248.155C79.7748 248.959 78.5876 249.826 77.4718 250.737C76.356 251.649 75.3116 252.614 74.3207 253.615C73.8209 254.115 73.3567 254.624 72.8836 255.143C72.4284 255.67 71.9731 256.188 71.5357 256.724C69.6077 259.11 67.9473 261.648 66.5102 264.302C66.296 261.166 65.8675 258.02 65.1802 254.875C64.5554 252.033 63.7074 249.191 62.5648 246.35C61.9936 244.929 61.333 243.508 60.5832 242.096C59.8156 240.675 58.9854 239.263 57.8875 237.86C56.7984 239.272 55.9683 240.684 55.2096 242.105C54.4597 243.526 53.808 244.947 53.2368 246.368C52.1031 249.218 51.2641 252.069 50.6393 254.91C50.1126 257.341 49.7466 259.772 49.5056 262.193C48.363 260.147 47.0955 258.172 45.6583 256.287C43.9802 254.079 42.0789 251.997 39.9009 250.085C38.8119 249.129 37.6425 248.217 36.3928 247.368C35.1252 246.528 33.7953 245.724 32.2421 245.072C31.8851 246.868 31.7512 248.53 31.6708 250.165C31.5994 251.792 31.6084 253.373 31.6887 254.919C31.8404 258.002 32.2242 260.942 32.7687 263.766C33.3847 266.911 34.1969 269.932 35.152 272.845C32.8936 271.201 30.4658 269.798 27.8593 268.672C25.5116 267.662 23.0212 266.885 20.3611 266.42C19.0311 266.188 17.6475 266.036 16.2193 265.982C14.7822 265.938 13.3004 265.973 11.7026 266.25C12.1668 267.957 12.747 269.449 13.354 270.879C13.9699 272.3 14.6215 273.649 15.3088 274.936C16.6835 277.501 18.1653 279.842 19.7185 282.022C21.0485 283.881 22.4321 285.624 23.8603 287.268C21.8786 287.098 19.8613 287.098 17.8171 287.304C15.4249 287.545 12.979 288.072 10.5064 288.939C9.26567 289.377 8.02496 289.904 6.76635 290.539C5.50773 291.191 4.24912 291.924 2.97266 292.924C3.98133 294.202 4.99897 295.239 6.0255 296.222C7.05203 297.196 8.06958 298.081 9.09611 298.903C11.1492 300.538 13.1933 301.941 15.2374 303.165C17.2726 304.38 19.3078 305.426 21.343 306.346H96.5205C97.9041 305.721 99.3324 305.408 100.716 304.64C101.234 304.354 101.742 304.041 102.26 303.737C102.778 303.415 103.296 303.103 103.804 302.763C104.84 302.093 105.875 301.369 106.911 300.574C107.946 299.787 108.991 298.929 110.026 297.991C111.062 297.044 112.106 296.034 113.133 294.783C111.919 293.711 110.687 292.933 109.455 292.245Z" fill="url(#paint14_linear_536_12010)"/>
<path d="M89.1654 297.804C88.4156 297.393 87.6747 297.044 86.9338 296.758C86.1929 296.472 85.461 296.24 84.7291 296.052C84.3631 295.954 83.9971 295.882 83.6401 295.802C83.283 295.739 82.9171 295.668 82.56 295.623C80.9711 295.409 79.4001 295.4 77.8737 295.57C79.0073 294.319 80.1052 292.987 81.1407 291.522C81.3727 291.191 81.6048 290.851 81.8369 290.512C82.0601 290.163 82.2922 289.824 82.5153 289.457C82.9617 288.742 83.3901 288.001 83.8007 287.223C84.2113 286.446 84.6041 285.624 84.9701 284.757C85.3361 283.881 85.6842 282.979 85.952 281.942C84.979 281.772 84.0864 281.754 83.2116 281.781C82.3458 281.817 81.5066 281.906 80.7033 282.049C79.8999 282.192 79.1144 282.389 78.3646 282.621C77.9807 282.737 77.6148 282.871 77.2488 282.996C76.8828 283.139 76.5258 283.273 76.1687 283.434C74.9726 283.962 73.83 284.587 72.7588 285.293C73.2051 283.944 73.5979 282.559 73.9193 281.12C74.0175 280.7 74.0979 280.262 74.1871 279.833C74.2674 279.395 74.3478 278.966 74.4103 278.52C74.5442 277.635 74.6513 276.732 74.7227 275.794C74.7941 274.865 74.8298 273.908 74.8119 272.926C74.7941 271.934 74.7315 270.924 74.553 269.834C73.5979 270.191 72.7767 270.647 72.0001 271.129C71.2235 271.612 70.5005 272.139 69.8311 272.693C69.1527 273.247 68.5189 273.828 67.9297 274.436C67.6263 274.74 67.3495 275.052 67.0638 275.356C66.7871 275.669 66.5105 275.991 66.2516 276.312C65.0912 277.751 64.0825 279.288 63.2077 280.897C63.0738 279.002 62.8149 277.099 62.4043 275.186C62.0294 273.471 61.5116 271.746 60.8243 270.021C60.4762 269.163 60.0835 268.306 59.6282 267.448C59.164 266.59 58.6553 265.732 58.0037 264.883C57.3431 265.732 56.8432 266.59 56.379 267.457C55.9238 268.315 55.5311 269.181 55.1919 270.039C54.5045 271.764 53.9957 273.489 53.6208 275.204C53.2995 276.679 53.0763 278.144 52.9335 279.61C52.2461 278.377 51.4696 277.179 50.6037 276.035C49.5861 274.704 48.4346 273.444 47.1224 272.282C46.4619 271.701 45.7567 271.156 44.9979 270.638C44.2303 270.129 43.427 269.646 42.4897 269.244C42.2755 270.325 42.1951 271.335 42.1416 272.327C42.0969 273.31 42.1059 274.266 42.1505 275.204C42.2398 277.072 42.4718 278.85 42.811 280.557C43.1859 282.46 43.6769 284.283 44.2571 286.053C42.8914 285.061 41.4185 284.203 39.8474 283.524C38.4281 282.916 36.9196 282.442 35.304 282.157C34.5006 282.014 33.6616 281.924 32.7957 281.888C31.9209 281.862 31.0283 281.888 30.0642 282.049C30.3409 283.086 30.698 283.98 31.064 284.855C31.4389 285.713 31.8317 286.535 32.2423 287.313C33.0724 288.868 33.9651 290.279 34.9113 291.602C35.7146 292.728 36.5536 293.782 37.4195 294.774C36.2234 294.667 35.0005 294.676 33.7597 294.792C32.3137 294.935 30.8319 295.257 29.3323 295.775C28.5825 296.043 27.8327 296.356 27.0739 296.749C26.3152 297.142 25.5474 297.589 24.7798 298.197C25.3868 298.974 26.0117 299.6 26.6276 300.189C27.2435 300.779 27.8683 301.315 28.4842 301.807C29.725 302.799 30.9658 303.648 32.1976 304.389C33.4295 305.122 34.6613 305.757 35.8931 306.311H81.3817C82.2208 305.927 83.0777 305.748 83.9167 305.274C84.2291 305.104 84.5416 304.908 84.854 304.729C85.1665 304.532 85.4789 304.345 85.7913 304.139C86.4162 303.728 87.041 303.29 87.6748 302.817C88.2996 302.343 88.9334 301.825 89.5582 301.253C90.1831 300.681 90.8168 300.064 91.4417 299.314C90.6651 298.697 89.9152 298.224 89.1654 297.804Z" fill="url(#paint15_linear_536_12010)"/>
<path d="M250.937 212.866H163.2V218.031H232.495V252.417H163.2V257.582H250.937C252.731 257.582 254.186 255.455 254.186 252.837V217.611C254.186 214.993 252.731 212.866 250.937 212.866Z" fill="url(#paint16_linear_536_12010)"/>
<path d="M250.142 218.031H164.833V252.417H250.142V218.031Z" fill="url(#paint17_linear_536_12010)"/>
<mask id="mask0_536_12010" style="mask-type:luminance" maskUnits="userSpaceOnUse" x="164" y="218" width="87" height="35">
<path d="M250.142 218.031H164.833V252.417H250.142V218.031Z" fill="white"/>
</mask>
<g mask="url(#mask0_536_12010)">
<path d="M250.142 218.031H164.833V252.417H250.142V218.031Z" fill="url(#paint18_linear_536_12010)"/>
</g>
<mask id="mask1_536_12010" style="mask-type:luminance" maskUnits="userSpaceOnUse" x="72" y="218" width="93" height="35">
<path d="M164.834 218.031H72.5088V252.417H164.834V218.031Z" fill="white"/>
</mask>
<g mask="url(#mask1_536_12010)">
<path d="M164.834 218.031H72.5088V252.417H164.834V218.031Z" fill="url(#paint19_linear_536_12010)"/>
</g>
<path d="M163.2 212.866H70.0093V218.031H163.2V212.866Z" fill="url(#paint20_linear_536_12010)"/>
<path d="M163.2 252.417H70.0093V257.582H163.2V252.417Z" fill="url(#paint21_linear_536_12010)"/>
<path opacity="0.15" d="M250.143 221.382H72.5088V223.625H250.143V221.382Z" fill="#5D8492"/>
<path opacity="0.15" d="M250.143 226.61H72.5088V228.853H250.143V226.61Z" fill="#5D8492"/>
<path opacity="0.15" d="M250.143 231.837H72.5088V234.08H250.143V231.837Z" fill="#5D8492"/>
<path opacity="0.15" d="M250.143 237.065H72.5088V239.308H250.143V237.065Z" fill="#5D8492"/>
<path opacity="0.15" d="M250.143 242.293H72.5088V244.536H250.143V242.293Z" fill="#5D8492"/>
<path opacity="0.15" d="M250.143 247.52H72.5088V249.763H250.143V247.52Z" fill="#5D8492"/>
<path d="M259.328 257.582H160.371V263.409H238.53V302.2H160.371V308.026H259.328C261.354 308.026 262.997 305.631 262.997 302.674V262.944C262.997 259.986 261.354 257.582 259.328 257.582Z" fill="url(#paint22_linear_536_12010)"/>
<path d="M258.445 263.418H162.219V302.209H258.445V263.418Z" fill="url(#paint23_linear_536_12010)"/>
<mask id="mask2_536_12010" style="mask-type:luminance" maskUnits="userSpaceOnUse" x="162" y="263" width="97" height="40">
<path d="M258.445 263.418H162.219V302.209H258.445V263.418Z" fill="white"/>
</mask>
<g mask="url(#mask2_536_12010)">
<path d="M258.445 263.418H162.219V302.209H258.445V263.418Z" fill="url(#paint24_linear_536_12010)"/>
</g>
<mask id="mask3_536_12010" style="mask-type:luminance" maskUnits="userSpaceOnUse" x="58" y="263" width="105" height="40">
<path d="M162.219 263.418H58.084V302.209H162.219V263.418Z" fill="white"/>
</mask>
<g mask="url(#mask3_536_12010)">
<path d="M162.219 263.418H58.084V302.209H162.219V263.418Z" fill="url(#paint25_linear_536_12010)"/>
</g>
<path d="M160.38 257.582H55.2632V263.409H160.38V257.582Z" fill="url(#paint26_linear_536_12010)"/>
<path d="M160.38 302.2H55.2632V308.026H160.38V302.2Z" fill="url(#paint27_linear_536_12010)"/>
<path opacity="0.15" d="M258.435 267.198H58.084V269.726H258.435V267.198Z" fill="#5D8492"/>
<path opacity="0.15" d="M258.435 273.086H58.084V275.615H258.435V273.086Z" fill="#5D8492"/>
<path opacity="0.15" d="M258.435 278.984H58.084V281.513H258.435V278.984Z" fill="#5D8492"/>
<path opacity="0.15" d="M258.435 284.882H58.084V287.411H258.435V284.882Z" fill="#5D8492"/>
<path opacity="0.15" d="M258.435 290.78H58.084V293.309H258.435V290.78Z" fill="#5D8492"/>
<path opacity="0.15" d="M258.435 296.678H58.084V299.206H258.435V296.678Z" fill="#5D8492"/>
<path d="M142.919 195.95L144.544 194.234L146.901 191.75C148.141 190.437 150.025 189.936 151.756 190.454L162.29 193.636L160.808 210.167L153.56 210.489L152.756 211.338C152.444 204.707 148.623 198.229 142.919 195.95Z" fill="#F7BFA9"/>
<path d="M129.833 209.774L142.92 195.95C148.623 198.229 152.444 204.699 152.756 211.329L142.687 221.963L129.833 209.774Z" fill="#FFCCB3"/>
<path d="M130.244 209.479L142.911 221.498C143.125 221.704 143.464 221.695 143.669 221.481L150.801 213.947C151.007 213.733 150.998 213.393 150.784 213.188L138.117 201.169C137.903 200.963 137.564 200.972 137.358 201.187L130.226 208.72C130.021 208.934 130.03 209.274 130.244 209.479Z" fill="url(#paint28_linear_536_12010)"/>
<path d="M135.645 214.573C135.645 214.573 141.348 208.202 136.171 203.287C130.994 198.372 127.415 204.019 127.415 204.019C127.415 204.019 124.353 201.115 120.068 201.893C115.783 202.67 114.944 205.431 114.944 205.431C114.944 205.431 116.042 212.285 122.746 218.648C129.45 225.01 138.456 227.092 138.456 227.092C138.456 227.092 146.133 220.176 145.544 219.613C144.955 219.05 135.645 214.573 135.645 214.573Z" fill="url(#paint29_linear_536_12010)"/>
<path d="M126.334 204.475L129.396 209.551C129.771 210.176 130.592 210.382 131.217 209.998C131.842 209.622 132.047 208.8 131.664 208.175L128.602 203.099C128.227 202.473 127.406 202.268 126.781 202.652C126.156 203.028 125.96 203.85 126.334 204.475Z" fill="url(#paint30_linear_536_12010)"/>
<path d="M120.068 201.893C120.8 201.759 121.487 201.741 122.139 201.785C124.647 204.252 128.941 209.908 124.281 216.521C124.281 216.521 132.297 223.509 140.331 225.368C139.269 226.368 138.456 227.092 138.456 227.092C138.456 227.092 129.459 225.01 122.746 218.648C116.033 212.285 114.944 205.431 114.944 205.431C114.944 205.431 115.783 202.67 120.068 201.893Z" fill="url(#paint31_linear_536_12010)"/>
<path d="M154.988 192.054L158.077 207.612C158.077 207.612 180.286 210.284 180.973 201.249C181.651 192.206 181.651 192.206 181.651 192.206L154.988 192.054Z" fill="url(#paint32_linear_536_12010)"/>
<path d="M165.646 198.667L176.509 211.213L171.707 216.655L172.421 232.454L154.729 233.258L153.756 211.874L153.604 208.452C153.524 206.638 154.47 204.94 156.041 204.055L165.646 198.667Z" fill="#FFCCB3"/>
<path d="M156.184 203.984L165.646 198.667L176.509 211.213L171.707 216.655L171.743 217.432C167.994 211.472 163.093 206.343 156.184 203.984Z" fill="#F7BFA9"/>
<path d="M154.809 232.767L172.243 231.971C172.537 231.953 172.769 231.703 172.751 231.408L172.278 221.034C172.26 220.739 172.01 220.506 171.716 220.524L154.283 221.319C153.988 221.337 153.756 221.588 153.774 221.882L154.247 232.257C154.265 232.552 154.515 232.776 154.809 232.767Z" fill="url(#paint33_linear_536_12010)"/>
<path d="M162.218 232.409C162.218 232.409 161.594 223.875 154.461 224.197C147.329 224.519 148.909 231.015 148.909 231.015C148.909 231.015 144.696 231.203 142.286 234.831C139.876 238.459 141.277 240.979 141.277 240.979C141.277 240.979 146.963 244.947 156.202 244.527C165.441 244.107 173.18 239.067 173.18 239.067C173.18 239.067 173.528 228.728 172.716 228.763C171.904 228.799 162.218 232.409 162.218 232.409Z" fill="url(#paint34_linear_536_12010)"/>
<path d="M148.507 232.114L154.283 233.428C154.997 233.589 155.711 233.142 155.872 232.427C156.032 231.712 155.586 230.997 154.872 230.837L149.096 229.523C148.382 229.362 147.668 229.809 147.508 230.524C147.338 231.239 147.793 231.954 148.507 232.114Z" fill="url(#paint35_linear_536_12010)"/>
<path d="M142.295 234.84C142.705 234.223 143.17 233.705 143.661 233.276C147.169 233.178 154.22 234.009 155.747 241.962C155.747 241.962 166.333 241.033 173.242 236.529C173.225 237.994 173.18 239.075 173.18 239.075C173.18 239.075 165.441 244.116 156.202 244.536C146.963 244.956 141.277 240.988 141.277 240.988C141.277 240.988 139.885 238.468 142.295 234.84Z" fill="url(#paint36_linear_536_12010)"/>
<path d="M207.787 191.151C207.787 191.151 211.804 197.612 207.047 207.227C202.298 216.834 173.698 220.078 173.698 220.078L160.076 197.702L175.724 192.009L207.787 191.151Z" fill="url(#paint37_linear_536_12010)"/>
<path d="M182.481 148.097L164.771 144.541L158.05 161.242C158.05 161.242 167.28 168.436 172.109 166.988C176.929 165.523 182.481 148.097 182.481 148.097Z" fill="#6CC4BD"/>
<path opacity="0.18" d="M179.616 149.697L184.972 151.556C184.972 151.556 176.929 165.523 172.109 166.979C167.28 168.436 158.05 161.233 158.05 161.233L160.513 155.112C167.387 156.14 174.323 154.773 179.616 149.697Z" fill="black"/>
<path d="M183.427 147.785L178.723 149.304C177.054 149.84 175.769 151.35 175.331 153.271L166.271 193.412C166.271 193.412 187.016 204.752 214.339 193.135L201.468 152.279C200.994 150.769 199.861 149.643 198.495 149.304L190.827 147.445L183.427 147.785Z" fill="#F7701F"/>
<path d="M183.427 147.785L178.723 149.304C177.054 149.84 175.769 151.35 175.331 153.271L166.271 193.412C166.271 193.412 187.016 204.752 214.339 193.135L201.468 152.279C200.994 150.769 199.861 149.643 198.495 149.304L190.827 147.445L183.427 147.785Z" fill="#89E0D5"/>
<path opacity="0.18" d="M188.078 185.834C182.133 185.468 172.413 180.303 169.592 178.739L173.537 161.26C176.885 161.582 182.705 162.02 184.481 161.358C187.025 160.411 192.452 153.62 197.031 152.449C198.683 152.029 200.959 154.451 203.19 157.713L208.636 174.986L201.727 183.752L200.156 181.795C200.156 181.804 195.085 186.272 188.078 185.834Z" fill="black"/>
<path d="M103.43 132.468L131.066 125.185L133.672 182.573L106.268 189.561L103.43 132.468Z" fill="url(#paint38_linear_536_12010)"/>
<path d="M182.526 149.259C182.678 152.53 194.228 152.002 194.076 148.732L193.639 139.126L182.088 139.653L182.526 149.259Z" fill="url(#paint39_linear_536_12010)"/>
<path d="M154.051 86.7245C152.489 90.2632 151.275 93.9717 150.257 97.5997C147.097 108.841 143.428 122.29 148.079 133.594C155.14 150.743 196.692 155.309 216.142 133.996C235.584 112.675 224.613 82.2655 208.055 71.1401C196.433 63.3299 179.544 63.044 167.547 70.175C161.156 73.9639 156.988 80.0403 154.051 86.7245Z" fill="#FFCCB3"/>
<path d="M169.369 116.303L185.873 117.268C185.873 117.268 185.802 128.626 176.572 129.046C167.351 129.457 169.369 116.303 169.369 116.303Z" fill="#012632"/>
<mask id="mask4_536_12010" style="mask-type:luminance" maskUnits="userSpaceOnUse" x="169" y="116" width="17" height="14">
<path d="M169.369 116.303L185.873 117.268C185.873 117.268 185.802 128.626 176.572 129.046C167.351 129.457 169.369 116.303 169.369 116.303Z" fill="white"/>
</mask>
<g mask="url(#mask4_536_12010)">
<path d="M184.731 136.836C187.939 133.318 187.691 127.864 184.178 124.653C180.665 121.441 175.216 121.689 172.008 125.206C168.801 128.723 169.048 134.178 172.562 137.389C176.075 140.6 181.523 140.353 184.731 136.836Z" fill="#F17053"/>
<path d="M170.064 115.597C170.064 115.597 170.1 117.751 170.913 118.993C171.725 120.235 182.901 122.933 186.882 118.555C190.872 114.185 181.972 114.239 181.972 114.239L170.064 115.597Z" fill="white"/>
</g>
<path d="M173.046 109.699C173.233 108.823 173.787 108.117 174.617 107.778C175.876 107.26 176.902 107.537 177.786 108.162C177.777 107.697 177.839 107.224 177.866 106.768C177.902 105.946 177.884 105.142 177.813 104.329C177.813 104.32 177.831 104.311 177.831 104.329C178.054 105.535 178.464 107.17 178.134 108.439C178.786 108.984 179.357 109.699 179.875 110.369C179.892 110.387 179.857 110.414 179.839 110.396C178.786 109.502 177.161 108.341 175.697 108.466C173.483 108.654 173.796 111.191 174.135 112.764C174.162 112.871 174.01 112.97 173.948 112.853C173.385 111.862 172.787 110.897 173.046 109.699Z" fill="#F17053"/>
<path d="M195.496 93.0423C197.754 92.7295 201.423 92.6312 204.36 94.4631C205.083 94.9099 205.94 94.1056 205.547 93.355C204.797 91.9342 203.485 90.3882 201.218 89.6286C198.335 88.6635 196.103 90.2274 194.773 91.6392C194.22 92.2112 194.71 93.1495 195.496 93.0423Z" fill="#813E3A"/>
<path d="M160.174 92.0057C161.897 91.0496 164.816 89.8164 167.753 90.3615C168.476 90.4956 168.913 89.5751 168.36 89.1015C167.306 88.199 165.771 87.359 163.7 87.4573C161.076 87.5824 159.763 89.5394 159.139 91.0942C158.88 91.7376 159.567 92.3364 160.174 92.0057Z" fill="#813E3A"/>
<path d="M204.971 128.636C209.393 128.434 212.871 125.889 212.737 122.951C212.604 120.012 208.91 117.793 204.488 117.995C200.065 118.196 196.588 120.741 196.722 123.679C196.855 126.618 200.548 128.837 204.971 128.636Z" fill="#FF888E"/>
<path d="M163.301 120.019C163.684 117.103 160.706 114.306 156.649 113.771C152.592 113.237 148.992 115.168 148.609 118.085C148.226 121.001 151.204 123.799 155.261 124.333C159.318 124.867 162.918 122.936 163.301 120.019Z" fill="#FF888E"/>
<path d="M188.015 108.689C189.997 105.696 192.88 103.873 196.54 104.087C200.637 104.338 204.029 106.554 205.895 110.146C205.984 110.316 205.797 110.486 205.636 110.361C200.798 106.643 193.094 103.158 188.078 108.725C188.051 108.77 187.989 108.734 188.015 108.689Z" fill="#012632"/>
<path d="M170.788 107.197C169.627 103.792 167.306 101.299 163.709 100.584C159.683 99.7801 155.836 101.067 153.122 104.069C152.988 104.212 153.131 104.427 153.319 104.346C158.942 101.978 167.271 100.558 170.716 107.224C170.725 107.269 170.797 107.242 170.788 107.197Z" fill="#012632"/>
<path d="M221.355 116.088L212.277 114.355L214.777 106.607C214.777 106.607 209.305 104.177 209.117 99.9946C208.93 95.8125 214.062 90.9066 214.062 90.9066C214.062 90.9066 208.448 85.3483 208.225 80.4692C208.225 80.4692 191.532 92.5865 184.141 79.4684C184.141 79.4684 172.662 89.0747 165.191 78.2352C165.191 78.2352 162.352 86.3402 154.024 86.7155C154.024 86.7155 154.765 100.638 146.196 101.022C137.626 101.406 137.894 86.8049 144.098 83.7309C144.098 83.7309 138.314 69.326 153.096 68.6468C153.096 68.6468 147.597 53.1786 162.129 49.7203C176.661 46.262 179.982 52.7496 179.982 52.7496C179.982 52.7496 186.918 41.6063 202.949 45.0645C218.981 48.5317 220.186 59.6483 220.186 59.6483C220.186 59.6483 230.344 56.5652 238.895 64.3843C247.447 72.2034 239.797 84.2045 239.797 84.2045C239.797 84.2045 250.553 91.4249 244.332 103.882C244.332 103.882 252.83 109.976 245.671 121.423C238.512 132.87 221.355 116.088 221.355 116.088Z" fill="#3E2336"/>
<path d="M217.972 115.168C215.866 120.744 215.955 128.679 221.4 130.743C226.845 132.808 235.566 128.215 237.682 122.639C239.797 117.062 237.092 110.861 231.656 108.797C226.202 106.732 220.079 109.592 217.972 115.168Z" fill="url(#paint40_linear_536_12010)"/>
<path d="M221.578 118.305C221.935 116.017 223.908 114.462 226.051 113.881C228.104 113.327 230.335 113.765 231.719 115.463C233.049 117.098 233.102 119.127 232.656 121.11C232.647 121.164 232.558 121.164 232.558 121.102C232.629 117.643 230.514 113.783 226.524 114.721C226.407 114.748 226.291 114.784 226.175 114.81C226.497 114.945 226.8 115.168 227.104 115.516C228.032 116.58 228.202 118.135 227.961 119.484C227.952 119.511 227.907 119.511 227.907 119.475C227.979 118.278 227.559 117.286 226.791 116.383C226.265 115.767 225.622 115.436 224.899 115.338C223.676 115.999 222.703 117.062 222.462 118.501C222.159 120.279 222.355 122.781 223.765 124.05C223.81 124.086 223.748 124.149 223.703 124.113C222.069 122.728 221.248 120.422 221.578 118.305Z" fill="#F17053"/>
<path opacity="0.05" d="M146.785 159.777L148.249 159.062C148.249 159.062 150.704 163.539 147.517 166.068C147.517 166.068 157.175 166.434 157.88 168.454C158.586 170.473 157.077 171.769 155.533 172.252C153.989 172.734 151.998 172.412 151.998 172.412C151.998 172.412 158.22 173.422 157.809 176.791C157.398 180.151 153.694 179.704 150.882 178.605C150.882 178.605 154.435 180.786 153.221 182.117C152.007 183.448 149.641 183.663 149.641 183.663L144.375 180.92C144.375 180.92 146.66 183.913 146.178 185.37C145.696 186.826 143.625 186.237 143.625 186.237L140.831 178.73L143.447 164.129L146.785 159.777Z" fill="black"/>
<path d="M139.581 163.557L147.088 159.116C147.088 159.116 150.284 162.306 145.428 166.372L156.175 167.98C156.845 168.079 157.372 168.615 157.461 169.294C157.568 170.125 156.925 171.313 156.095 171.43L150.016 171.858L155.533 174.861C156.613 175.451 156.979 176.854 156.256 177.908C155.738 178.659 154.765 178.954 153.881 178.721L148.383 177.238L151.873 180.741C152.703 181.581 152.569 182.993 151.525 183.645C150.954 184.003 150.23 183.985 149.632 183.672L143.723 180.598L145.321 184.771C145.669 185.674 145.178 186.71 144.187 186.978C143.563 187.148 142.893 186.898 142.465 186.397L139.929 183.422C136.761 179.695 135.582 174.664 136.779 169.91L137.769 165.97C138.037 164.96 138.68 164.084 139.581 163.557Z" fill="#FDBF9E"/>
<path d="M105.849 133.88C105.849 133.88 110.312 131.548 116.792 130.136C123.273 128.724 131.101 125.972 131.101 125.972L136.127 126.499L136.475 134.13L105.849 133.88Z" fill="url(#paint41_linear_536_12010)"/>
<path d="M114.15 132.084C114.695 132.057 153.087 130.636 166.146 136.087C166.146 136.087 167.967 187.398 171.422 192.143L161.862 194.878C161.862 194.878 109.937 151.618 109.419 151.154C108.902 150.68 105.233 134.023 105.233 134.023C105.233 134.023 110.205 132.263 114.15 132.084Z" fill="url(#paint42_linear_536_12010)"/>
<path d="M106.027 189.614L112.044 190.731L109.446 133.576L103.43 132.468L106.027 189.614Z" fill="url(#paint43_linear_536_12010)"/>
<path d="M112.043 190.731L164.682 196.781L162.084 139.635L109.446 133.576L112.043 190.731Z" fill="#2EA1FF"/>
<path d="M149.472 167.042L154.381 166.479L149.15 164.209C148.311 163.843 147.731 163.012 147.794 162.1C147.883 160.831 149.043 159.956 150.257 160.17L156.434 161.26L151.953 157.132C151.373 156.524 151.614 155.193 152.212 154.612C152.703 154.138 153.444 154.049 154.033 154.389L163.442 159.822C162.174 153.611 166.655 153.111 166.655 153.111L169.378 162.368C169.378 162.368 185.186 163.566 189.515 162.797C193.845 162.029 199.066 158.32 199.066 158.32L205.083 174.075C205.083 174.075 201.539 181.313 192.675 183.082C183.811 184.852 163.683 175.299 163.683 175.299L153.283 177.336C152.641 177.461 151.962 177.238 151.578 176.72C150.971 175.898 151.23 174.781 152.06 174.289L155.908 172.019L149.374 170.741C148.713 170.616 148.133 170.17 147.91 169.535C147.526 168.373 148.302 167.176 149.472 167.042Z" fill="#FFCCB3"/>
<path d="M187.301 161.957L201.36 181.197C201.36 181.197 210.724 171.966 211.179 162.467C211.634 152.968 198.504 149.313 198.504 149.313L187.301 161.957Z" fill="#6CC4BD"/>
<defs>
<linearGradient id="paint0_linear_536_12010" x1="1.34552" y1="204.4" x2="42.7022" y2="268.943" gradientUnits="userSpaceOnUse">
<stop stop-color="#C5CD57"/>
<stop offset="0.3754" stop-color="#C3CC54"/>
<stop offset="0.6104" stop-color="#BEC74C"/>
<stop offset="0.8062" stop-color="#B6BF3D"/>
<stop offset="0.9805" stop-color="#AAB429"/>
<stop offset="1" stop-color="#A8B326"/>
</linearGradient>
<linearGradient id="paint1_linear_536_12010" x1="85.856" y1="147.373" x2="111.825" y2="223.048" gradientUnits="userSpaceOnUse">
<stop stop-color="#C5CD57"/>
<stop offset="0.3754" stop-color="#C3CC54"/>
<stop offset="0.6104" stop-color="#BEC74C"/>
<stop offset="0.8062" stop-color="#B6BF3D"/>
<stop offset="0.9805" stop-color="#AAB429"/>
<stop offset="1" stop-color="#A8B326"/>
</linearGradient>
<linearGradient id="paint2_linear_536_12010" x1="321.265" y1="223.806" x2="279.908" y2="288.349" gradientUnits="userSpaceOnUse">
<stop stop-color="#C5CD57"/>
<stop offset="0.3754" stop-color="#C3CC54"/>
<stop offset="0.6104" stop-color="#BEC74C"/>
<stop offset="0.8062" stop-color="#B6BF3D"/>
<stop offset="0.9805" stop-color="#AAB429"/>
<stop offset="1" stop-color="#A8B326"/>
</linearGradient>
<linearGradient id="paint3_linear_536_12010" x1="271.965" y1="171.721" x2="231.675" y2="237.315" gradientUnits="userSpaceOnUse">
<stop stop-color="#C5CD57"/>
<stop offset="0.3754" stop-color="#C3CC54"/>
<stop offset="0.6104" stop-color="#BEC74C"/>
<stop offset="0.8062" stop-color="#B6BF3D"/>
<stop offset="0.9805" stop-color="#AAB429"/>
<stop offset="1" stop-color="#A8B326"/>
</linearGradient>
<linearGradient id="paint4_linear_536_12010" x1="38.7603" y1="192.489" x2="77.0612" y2="271.695" gradientUnits="userSpaceOnUse">
<stop stop-color="#6A9A4F"/>
<stop offset="1" stop-color="#3D7421"/>
</linearGradient>
<linearGradient id="paint5_linear_536_12010" x1="53.5696" y1="189.663" x2="59.4523" y2="240.257" gradientUnits="userSpaceOnUse">
<stop stop-color="#557E3F"/>
<stop offset="1" stop-color="#2D5517"/>
</linearGradient>
<linearGradient id="paint6_linear_536_12010" x1="129.053" y1="175.764" x2="128.529" y2="254.457" gradientUnits="userSpaceOnUse">
<stop stop-color="#6A9A4F"/>
<stop offset="1" stop-color="#3D7421"/>
</linearGradient>
<linearGradient id="paint7_linear_536_12010" x1="141.867" y1="181.057" x2="127.311" y2="222.032" gradientUnits="userSpaceOnUse">
<stop stop-color="#557E3F"/>
<stop offset="1" stop-color="#2D5517"/>
</linearGradient>
<linearGradient id="paint8_linear_536_12010" x1="278.363" y1="203.516" x2="240.062" y2="282.723" gradientUnits="userSpaceOnUse">
<stop stop-color="#6A9A4F"/>
<stop offset="1" stop-color="#3D7421"/>
</linearGradient>
<linearGradient id="paint9_linear_536_12010" x1="263.554" y1="200.691" x2="257.671" y2="251.285" gradientUnits="userSpaceOnUse">
<stop stop-color="#557E3F"/>
<stop offset="1" stop-color="#2D5517"/>
</linearGradient>
<linearGradient id="paint10_linear_536_12010" x1="65.4913" y1="175.817" x2="82.3366" y2="265.896" gradientUnits="userSpaceOnUse">
<stop stop-color="#6A9A4F"/>
<stop offset="1" stop-color="#3D7421"/>
</linearGradient>
<linearGradient id="paint11_linear_536_12010" x1="81.4442" y1="178.015" x2="73.7155" y2="229.21" gradientUnits="userSpaceOnUse">
<stop stop-color="#557E3F"/>
<stop offset="1" stop-color="#2D5517"/>
</linearGradient>
<linearGradient id="paint12_linear_536_12010" x1="255.719" y1="240.578" x2="268.955" y2="313.149" gradientUnits="userSpaceOnUse">
<stop stop-color="#6A9A4F"/>
<stop offset="1" stop-color="#3D7421"/>
</linearGradient>
<linearGradient id="paint13_linear_536_12010" x1="259.546" y1="266.54" x2="267.556" y2="310.455" gradientUnits="userSpaceOnUse">
<stop offset="7.5e-07" stop-color="#FBB851"/>
<stop offset="0.4034" stop-color="#F2AD42"/>
<stop offset="1" stop-color="#E09824"/>
</linearGradient>
<linearGradient id="paint14_linear_536_12010" x1="48.3922" y1="240.578" x2="61.6281" y2="313.149" gradientUnits="userSpaceOnUse">
<stop stop-color="#6A9A4F"/>
<stop offset="1" stop-color="#3D7421"/>
</linearGradient>
<linearGradient id="paint15_linear_536_12010" x1="52.2195" y1="266.54" x2="60.2289" y2="310.455" gradientUnits="userSpaceOnUse">
<stop offset="7.5e-07" stop-color="#FBB851"/>
<stop offset="0.4034" stop-color="#F2AD42"/>
<stop offset="1" stop-color="#E09824"/>
</linearGradient>
<linearGradient id="paint16_linear_536_12010" x1="203.061" y1="217.937" x2="214.714" y2="257.513" gradientUnits="userSpaceOnUse">
<stop offset="7.5e-07" stop-color="#FBB851"/>
<stop offset="0.4034" stop-color="#F2AD42"/>
<stop offset="1" stop-color="#E09824"/>
</linearGradient>
<linearGradient id="paint17_linear_536_12010" x1="198.625" y1="215.913" x2="216.907" y2="255.671" gradientUnits="userSpaceOnUse">
<stop stop-color="#EAEEFF"/>
<stop offset="0.4224" stop-color="#E4E8F9"/>
<stop offset="1" stop-color="#D2D6E8"/>
</linearGradient>
<linearGradient id="paint18_linear_536_12010" x1="201.102" y1="221.311" x2="219.384" y2="261.068" gradientUnits="userSpaceOnUse">
<stop stop-color="#EAEEFF"/>
<stop offset="0.4224" stop-color="#E4E8F9"/>
<stop offset="1" stop-color="#D2D6E8"/>
</linearGradient>
<linearGradient id="paint19_linear_536_12010" x1="72.5095" y1="235.226" x2="164.832" y2="235.226" gradientUnits="userSpaceOnUse">
<stop stop-color="#EAEEFF"/>
<stop offset="0.4224" stop-color="#E4E8F9"/>
<stop offset="1" stop-color="#D2D6E8"/>
</linearGradient>
<linearGradient id="paint20_linear_536_12010" x1="70.0088" y1="215.447" x2="163.202" y2="215.447" gradientUnits="userSpaceOnUse">
<stop offset="7.5e-07" stop-color="#FBB851"/>
<stop offset="0.4034" stop-color="#F2AD42"/>
<stop offset="1" stop-color="#E09824"/>
</linearGradient>
<linearGradient id="paint21_linear_536_12010" x1="70.0088" y1="255.004" x2="163.202" y2="255.004" gradientUnits="userSpaceOnUse">
<stop offset="7.5e-07" stop-color="#FBB851"/>
<stop offset="0.4034" stop-color="#F2AD42"/>
<stop offset="1" stop-color="#E09824"/>
</linearGradient>
<linearGradient id="paint22_linear_536_12010" x1="196.199" y1="256.571" x2="237.567" y2="331.107" gradientUnits="userSpaceOnUse">
<stop stop-color="#277EE1"/>
<stop offset="1" stop-color="#0059BD"/>
</linearGradient>
<linearGradient id="paint23_linear_536_12010" x1="200.331" y1="261.025" x2="220.951" y2="305.868" gradientUnits="userSpaceOnUse">
<stop stop-color="#EAEEFF"/>
<stop offset="0.4224" stop-color="#E4E8F9"/>
<stop offset="1" stop-color="#D2D6E8"/>
</linearGradient>
<linearGradient id="paint24_linear_536_12010" x1="203.125" y1="267.113" x2="223.745" y2="311.956" gradientUnits="userSpaceOnUse">
<stop stop-color="#EAEEFF"/>
<stop offset="0.4224" stop-color="#E4E8F9"/>
<stop offset="1" stop-color="#D2D6E8"/>
</linearGradient>
<linearGradient id="paint25_linear_536_12010" x1="58.0846" y1="282.808" x2="162.215" y2="282.808" gradientUnits="userSpaceOnUse">
<stop stop-color="#EAEEFF"/>
<stop offset="0.4224" stop-color="#E4E8F9"/>
<stop offset="1" stop-color="#D2D6E8"/>
</linearGradient>
<linearGradient id="paint26_linear_536_12010" x1="55.2642" y1="260.5" x2="160.377" y2="260.5" gradientUnits="userSpaceOnUse">
<stop stop-color="#277EE1"/>
<stop offset="1" stop-color="#0059BD"/>
</linearGradient>
<linearGradient id="paint27_linear_536_12010" x1="55.2642" y1="305.115" x2="160.377" y2="305.115" gradientUnits="userSpaceOnUse">
<stop stop-color="#277EE1"/>
<stop offset="1" stop-color="#0059BD"/>
</linearGradient>
<linearGradient id="paint28_linear_536_12010" x1="130.077" y1="211.331" x2="150.952" y2="211.331" gradientUnits="userSpaceOnUse">
<stop stop-color="#EAEEFF"/>
<stop offset="0.4224" stop-color="#E4E8F9"/>
<stop offset="1" stop-color="#D2D6E8"/>
</linearGradient>
<linearGradient id="paint29_linear_536_12010" x1="114.949" y1="214.184" x2="145.58" y2="214.184" gradientUnits="userSpaceOnUse">
<stop stop-color="#497190"/>
<stop offset="0.5154" stop-color="#34668D"/>
<stop offset="1" stop-color="#1C5A8A"/>
</linearGradient>
<linearGradient id="paint30_linear_536_12010" x1="126.145" y1="206.33" x2="131.864" y2="206.33" gradientUnits="userSpaceOnUse">
<stop stop-color="#EAEEFF"/>
<stop offset="0.4224" stop-color="#E4E8F9"/>
<stop offset="1" stop-color="#D2D6E8"/>
</linearGradient>
<linearGradient id="paint31_linear_536_12010" x1="114.949" y1="214.429" x2="140.332" y2="214.429" gradientUnits="userSpaceOnUse">
<stop stop-color="#EAEEFF"/>
<stop offset="0.4224" stop-color="#E4E8F9"/>
<stop offset="1" stop-color="#D2D6E8"/>
</linearGradient>
<linearGradient id="paint32_linear_536_12010" x1="167.206" y1="184.603" x2="168.148" y2="190.957" gradientUnits="userSpaceOnUse">
<stop stop-color="#497190"/>
<stop offset="0.5154" stop-color="#34668D"/>
<stop offset="1" stop-color="#1C5A8A"/>
</linearGradient>
<linearGradient id="paint33_linear_536_12010" x1="153.782" y1="226.645" x2="172.761" y2="226.645" gradientUnits="userSpaceOnUse">
<stop stop-color="#EAEEFF"/>
<stop offset="0.4224" stop-color="#E4E8F9"/>
<stop offset="1" stop-color="#D2D6E8"/>
</linearGradient>
<linearGradient id="paint34_linear_536_12010" x1="140.882" y1="234.372" x2="173.261" y2="234.372" gradientUnits="userSpaceOnUse">
<stop stop-color="#497190"/>
<stop offset="0.5154" stop-color="#34668D"/>
<stop offset="1" stop-color="#1C5A8A"/>
</linearGradient>
<linearGradient id="paint35_linear_536_12010" x1="147.471" y1="231.474" x2="155.906" y2="231.474" gradientUnits="userSpaceOnUse">
<stop stop-color="#EAEEFF"/>
<stop offset="0.4224" stop-color="#E4E8F9"/>
<stop offset="1" stop-color="#D2D6E8"/>
</linearGradient>
<linearGradient id="paint36_linear_536_12010" x1="140.882" y1="238.91" x2="173.245" y2="238.91" gradientUnits="userSpaceOnUse">
<stop stop-color="#EAEEFF"/>
<stop offset="0.4224" stop-color="#E4E8F9"/>
<stop offset="1" stop-color="#D2D6E8"/>
</linearGradient>
<linearGradient id="paint37_linear_536_12010" x1="160.083" y1="205.615" x2="209.369" y2="205.615" gradientUnits="userSpaceOnUse">
<stop stop-color="#497190"/>
<stop offset="0.5154" stop-color="#34668D"/>
<stop offset="1" stop-color="#1C5A8A"/>
</linearGradient>
<linearGradient id="paint38_linear_536_12010" x1="103.432" y1="157.372" x2="133.669" y2="157.372" gradientUnits="userSpaceOnUse">
<stop stop-color="#277EE1"/>
<stop offset="1" stop-color="#0059BD"/>
</linearGradient>
<linearGradient id="paint39_linear_536_12010" x1="188.088" y1="154.151" x2="188.088" y2="147.209" gradientUnits="userSpaceOnUse">
<stop stop-color="#F0C9A9"/>
<stop offset="1" stop-color="#FCB87D"/>
</linearGradient>
<linearGradient id="paint40_linear_536_12010" x1="228.005" y1="152.162" x2="226.799" y2="69.9638" gradientUnits="userSpaceOnUse">
<stop stop-color="#F0C9A9"/>
<stop offset="1" stop-color="#FCB87D"/>
</linearGradient>
<linearGradient id="paint41_linear_536_12010" x1="114.293" y1="113.811" x2="118.532" y2="124.163" gradientUnits="userSpaceOnUse">
<stop stop-color="#EAEEFF"/>
<stop offset="0.4224" stop-color="#E4E8F9"/>
<stop offset="1" stop-color="#D2D6E8"/>
</linearGradient>
<linearGradient id="paint42_linear_536_12010" x1="105.239" y1="163.391" x2="171.422" y2="163.391" gradientUnits="userSpaceOnUse">
<stop stop-color="#EAEEFF"/>
<stop offset="0.4224" stop-color="#E4E8F9"/>
<stop offset="1" stop-color="#D2D6E8"/>
</linearGradient>
<linearGradient id="paint43_linear_536_12010" x1="103.432" y1="161.597" x2="112.039" y2="161.597" gradientUnits="userSpaceOnUse">
<stop stop-color="#277EE1"/>
<stop offset="1" stop-color="#0059BD"/>
</linearGradient>
</defs>
</svg>
