<svg width="148" height="113" viewBox="0 0 148 113" fill="none" xmlns="http://www.w3.org/2000/svg">
<g clip-path="url(#clip0_536_11416)">
<path d="M65.673 17.64C66.193 16.94 66.8931 16.1799 67.6531 15.4499C68.0531 15.0999 68.4531 14.75 68.8331 14.4C68.9331 14.32 69.0231 14.23 69.1231 14.15C69.2231 14.07 69.323 14 69.423 13.92C69.623 13.77 69.8131 13.63 70.0031 13.49C70.1931 13.35 70.373 13.23 70.543 13.1C70.633 13.04 70.713 12.98 70.793 12.92C70.883 12.87 70.963 12.82 71.043 12.77C71.363 12.58 71.6431 12.4299 71.8631 12.3199C72.3031 12.1099 72.5131 12.0799 72.3731 12.3199C72.6231 12.2599 72.8631 12.2 73.1231 12.16C73.0431 12.21 72.9531 12.2599 72.8631 12.3199C72.7731 12.3799 72.673 12.45 72.5731 12.52C72.3631 12.66 72.1331 12.83 71.8831 13C71.6331 13.18 71.3531 13.3499 71.0831 13.5699C70.8131 13.7799 70.5331 14.01 70.2331 14.24C69.6331 14.68 69.0731 15.22 68.4931 15.72C68.3531 15.85 68.203 15.97 68.063 16.09C67.933 16.22 67.803 16.34 67.673 16.47C67.543 16.59 67.413 16.7199 67.293 16.8299C67.173 16.9499 67.053 17.0799 66.943 17.1899C66.473 17.6499 66.0931 18.1 65.7531 18.43C65.4431 18.78 65.203 19.02 65.053 19.12C64.913 19.22 64.8631 19.1799 64.9531 18.9399C64.9931 18.8199 65.073 18.65 65.183 18.43C65.293 18.23 65.463 17.96 65.673 17.64Z" fill="#4CA4DB" fill-opacity="0.5"/>
<path d="M61.453 12.66C61.073 13.01 60.733 13.39 60.373 13.76C60.643 13.48 60.923 13.16 61.233 12.84C61.553 12.52 61.873 12.18 62.203 11.85C62.543 11.53 62.863 11.2 63.183 10.9C63.503 10.61 63.803 10.34 64.063 10.1C64.123 10.12 64.0531 10.27 63.8831 10.5C63.7931 10.62 63.683 10.75 63.543 10.91C63.403 11.06 63.253 11.24 63.083 11.45C62.383 12.24 61.453 13.32 60.483 14.45C60.543 14.29 60.7131 14.04 60.9031 13.76C61.1031 13.48 61.3131 13.1701 61.5031 12.9301C61.8831 12.4401 62.073 12.15 61.453 12.66Z" fill="#4CA4DB" fill-opacity="0.5"/>
<path d="M121.833 18.8998C122.413 19.0698 122.253 18.1797 121.553 16.5997C120.793 15.0697 119.403 12.8898 117.423 10.7998C118.223 10.9698 119.013 11.1798 119.823 11.3898C119.913 11.4898 120.013 11.5997 120.103 11.7097C120.193 11.8197 120.293 11.9398 120.393 12.0598C120.593 12.2998 120.803 12.5498 121.023 12.8098C121.243 13.0698 121.483 13.3297 121.723 13.6097C121.953 13.8897 122.193 14.1897 122.443 14.4897C122.693 14.7897 122.953 15.0898 123.213 15.4098C123.463 15.7398 123.713 16.0698 123.973 16.4098C124.103 16.5798 124.233 16.7498 124.363 16.9198C124.493 17.0898 124.633 17.2597 124.753 17.4497C125.003 17.8097 125.263 18.1798 125.513 18.5498C125.643 18.7398 125.773 18.9197 125.903 19.1097C126.033 19.2997 126.143 19.4997 126.263 19.6997C126.503 20.0897 126.753 20.4898 126.993 20.8898L127.173 21.1897L127.343 21.4998L127.673 22.1198C127.893 22.5298 128.123 22.9397 128.333 23.3597C128.753 24.2097 129.133 25.0797 129.473 25.9497C129.793 26.8297 130.093 27.7097 130.303 28.5897C130.723 29.9197 130.483 28.2498 130.223 27.1298C130.103 26.5698 129.993 26.1498 130.103 26.2798C130.153 26.3498 130.263 26.5397 130.413 26.9497C130.493 27.1497 130.583 27.3997 130.693 27.7097C130.793 28.0297 130.903 28.3997 131.023 28.8397C131.023 29.2697 130.923 29.3398 130.853 29.5098C130.783 29.6698 130.723 29.9197 130.783 30.6897C131.083 32.2897 131.153 33.3497 131.223 34.2097C131.243 34.6497 131.283 35.0397 131.273 35.4397C131.273 35.6397 131.273 35.8498 131.263 36.0598C131.253 36.2698 131.223 36.4997 131.193 36.7397C131.153 37.2197 131.023 37.7697 130.833 38.4397C130.713 38.7697 130.603 39.1198 130.423 39.5298C130.233 39.9498 129.993 40.4098 129.693 40.8698C129.393 41.3398 129.023 41.8098 128.583 42.2898C128.143 42.7698 127.623 43.2397 127.003 43.6897C125.773 44.5797 124.183 45.4298 122.043 45.8098C121.083 45.8998 120.093 45.8698 119.103 45.6798C118.123 45.4998 117.133 45.1497 116.253 44.6198C114.443 43.7598 112.983 42.2297 112.233 40.3197C111.863 39.3697 111.693 38.3798 111.673 37.4198C111.663 36.4598 111.793 35.5298 112.033 34.6598C112.523 32.9198 113.393 31.3798 114.543 30.0498C115.693 28.7398 117.143 27.6198 118.893 26.9298C119.113 26.8498 119.333 26.7597 119.563 26.6997C119.793 26.6297 120.013 26.5598 120.253 26.5098L120.603 26.4298C120.723 26.4098 120.823 26.3998 120.933 26.3798L121.573 26.2898C122.433 26.1898 123.303 26.1797 124.163 26.2397C125.873 26.3697 127.513 26.8098 129.013 27.4298C130.513 28.0598 131.883 28.8498 133.153 29.7498C134.423 30.6498 135.583 31.6497 136.653 32.7197L137.443 33.5398L138.183 34.3798C138.683 34.9298 139.133 35.5297 139.593 36.1097C139.703 36.2597 139.823 36.3998 139.933 36.5498L140.253 37.0098L140.893 37.9198C141.303 38.5398 141.683 39.1698 142.063 39.7998C143.543 42.3598 144.693 45.0697 145.533 47.8497C147.213 53.3997 147.593 59.1998 146.863 64.6698C146.953 66.6498 146.473 70.5298 145.083 74.5598C144.393 76.5798 143.503 78.6298 142.513 80.5298C141.523 82.4298 140.383 84.1598 139.373 85.6198L138.993 85.5398C137.983 87.3198 136.063 89.3697 133.773 91.1097C131.493 92.8697 128.883 94.3097 126.663 95.4497L125.623 95.8698L124.573 96.2397C123.873 96.4997 123.163 96.6998 122.453 96.9098C122.013 96.9298 122.523 96.6397 123.463 96.2097C123.933 95.9897 124.503 95.6998 125.113 95.4098C125.723 95.1098 126.363 94.7398 126.993 94.4098C127.603 94.0398 128.203 93.6797 128.713 93.3397C129.213 92.9797 129.633 92.6698 129.923 92.4298C130.213 92.1898 130.363 91.9997 130.323 91.9397C130.283 91.8697 130.073 91.9297 129.603 92.0897C129.093 92.3697 128.613 92.6698 128.123 92.9298C127.633 93.1898 127.153 93.4397 126.683 93.6997C126.203 93.9397 125.733 94.1698 125.273 94.3998C124.813 94.6298 124.343 94.8298 123.893 95.0398C123.443 95.2598 122.983 95.4398 122.533 95.6298C122.083 95.8198 121.643 96.0198 121.193 96.1798C120.743 96.3498 120.303 96.5198 119.863 96.6798C119.413 96.8298 118.973 96.9697 118.533 97.1198C118.093 97.2698 117.643 97.3798 117.203 97.5098C116.763 97.6298 116.313 97.7597 115.863 97.8497L114.513 98.1398C114.063 98.2198 113.603 98.2897 113.143 98.3497C112.683 98.4297 112.223 98.4598 111.763 98.4998C111.293 98.5398 110.833 98.5897 110.353 98.5897C109.883 98.5997 109.403 98.5997 108.923 98.5997C108.443 98.5797 107.953 98.5498 107.463 98.5098C106.983 98.5098 106.543 98.4697 106.123 98.4497C105.713 98.4197 105.323 98.4098 104.963 98.3798C104.253 98.3198 103.643 98.2697 103.103 98.2197C102.043 98.0997 101.283 98.0497 100.623 97.9697C100.293 97.9397 99.9731 97.9098 99.6631 97.8798C99.3431 97.8498 99.023 97.7998 98.673 97.7598C98.323 97.7098 97.9331 97.6597 97.4931 97.5797C97.0531 97.4897 96.5531 97.3797 95.9631 97.2397C95.3231 97.2197 95.6631 97.4298 96.1131 97.6498C96.5531 97.8698 97.093 98.1097 96.793 98.2397C94.173 97.5697 92.013 96.7197 90.183 95.8297C89.733 95.5897 89.2931 95.3598 88.8731 95.1398C88.7731 95.0798 88.663 95.0297 88.563 94.9697C88.463 94.9097 88.3631 94.8498 88.2631 94.7898C88.0631 94.6698 87.873 94.5497 87.683 94.4397C86.913 93.9897 86.2331 93.4898 85.5831 93.0298C85.5031 92.9698 85.4231 92.9197 85.3431 92.8597L85.2631 92.7798C85.2131 92.7298 85.1631 92.6797 85.1131 92.6198C85.0131 92.5198 84.903 92.3998 84.803 92.2998C84.643 92.0998 84.4831 91.8997 84.3331 91.7097C84.1431 91.4697 83.9631 91.2297 83.7731 90.9897C83.6731 90.8497 83.5631 90.7097 83.4631 90.5697L83.293 90.3497C83.253 90.2897 83.2631 90.3297 83.2531 90.3497L83.2331 90.4098C83.2031 90.5098 83.1831 90.6298 83.1531 90.7698C83.1131 90.9098 83.0731 91.0597 83.0231 91.2297C82.9931 91.3997 82.9131 91.5898 82.8531 91.7898C82.8231 91.8998 82.7931 91.9997 82.7531 92.1097C82.7131 92.2197 82.6731 92.3397 82.6231 92.4497C82.5831 92.5697 82.5331 92.6997 82.4931 92.8197C82.4031 93.0697 82.303 93.3197 82.203 93.5697C82.1031 93.8397 81.9931 94.1098 81.8931 94.3898C81.7731 94.6698 81.6331 94.9497 81.5031 95.2397C81.3731 95.5297 81.2431 95.8197 81.0931 96.1198C80.9331 96.4098 80.7731 96.7098 80.6131 97.0098C80.3031 97.6298 79.8931 98.2197 79.5031 98.8698C79.5031 99.0397 79.0531 99.7997 78.5031 100.73C78.2031 101.18 77.873 101.66 77.553 102.12C77.223 102.57 76.8831 102.99 76.6231 103.36C76.3731 103.73 76.143 104 76.063 104.17C75.973 104.34 76.0131 104.4 76.2331 104.29C76.3431 104.24 76.493 104.14 76.703 104C76.903 103.85 77.143 103.64 77.443 103.38C77.743 103.11 78.1131 102.8 78.4931 102.38C78.8831 101.96 79.353 101.5 79.813 100.89L80.203 100.28C80.333 100.08 80.4731 99.8798 80.5831 99.6598L81.2831 98.3898C81.5031 97.9598 81.6931 97.5197 81.9031 97.0797C82.0031 96.8597 82.113 96.6498 82.193 96.4198L82.443 95.7397L82.933 94.8798L83.3431 94.0098L83.553 93.5697L83.6531 93.3497L83.683 93.2998C83.693 93.2798 83.703 93.2598 83.703 93.2598L83.7231 93.2397C83.7731 93.1897 83.8131 93.1497 83.8531 93.1198C83.8431 93.1598 83.833 93.2098 83.823 93.2598L83.813 93.2998C83.793 93.3698 83.7631 93.4398 83.7431 93.4998C83.6931 93.6498 83.6431 93.7997 83.5831 93.9497C83.4731 94.2497 83.3631 94.5598 83.2531 94.8698C83.1331 95.1797 82.9831 95.5097 82.8431 95.8297C82.7031 96.1497 82.5631 96.4798 82.4131 96.7998C82.2531 97.1098 82.083 97.4197 81.923 97.7297C81.613 98.3497 81.253 98.9097 80.923 99.4497C79.583 101.57 78.3631 102.95 78.8431 102.73C78.6931 102.84 78.5331 102.98 78.3531 103.12C78.1731 103.26 77.983 103.41 77.793 103.57C77.403 103.89 76.9931 104.28 76.5031 104.65C76.0231 105.03 75.5431 105.47 74.9831 105.87C74.7131 106.08 74.4331 106.29 74.1431 106.51C73.8531 106.73 73.5531 106.92 73.2431 107.13C72.9331 107.33 72.633 107.56 72.313 107.76C71.993 107.96 71.663 108.15 71.333 108.35L70.8431 108.65L70.333 108.92C69.993 109.1 69.653 109.28 69.313 109.46C68.973 109.63 68.6231 109.77 68.2831 109.93C67.9431 110.08 67.6131 110.25 67.2731 110.37C66.9331 110.5 66.6031 110.63 66.2731 110.75C66.1131 110.81 65.9431 110.87 65.7831 110.94C65.6231 110.99 65.463 111.04 65.303 111.1C62.763 111.94 60.6831 112.28 60.0231 112.3C59.6931 112.3 59.713 112.23 60.183 112.06C60.413 111.98 60.7631 111.85 61.2231 111.68C61.4531 111.6 61.7131 111.51 62.0131 111.41C62.3031 111.31 62.6331 111.17 62.9831 111.04C63.8931 110.91 64.7131 110.69 65.4731 110.52C65.8531 110.43 66.203 110.31 66.553 110.21C66.893 110.1 67.233 110.01 67.543 109.89C68.163 109.65 68.7431 109.44 69.2731 109.2C69.8031 108.95 70.2931 108.7 70.7631 108.46C71.2131 108.19 71.643 107.92 72.073 107.65C72.283 107.52 72.483 107.37 72.683 107.22C72.883 107.07 73.0731 106.91 73.2731 106.76C73.4731 106.6 73.6731 106.45 73.8631 106.28C74.0531 106.1 74.243 105.92 74.443 105.74C74.633 105.55 74.833 105.36 75.043 105.17C75.243 104.97 75.4331 104.75 75.6431 104.52C74.0531 105.89 72.3431 107.06 70.5331 108.01C68.7031 108.94 66.843 109.62 64.953 110.13C64.483 110.25 64.013 110.38 63.543 110.48C63.073 110.57 62.6031 110.66 62.1331 110.75C61.1931 110.89 60.253 111.03 59.313 111.09C57.443 111.23 55.603 111.25 53.803 111.1C50.203 110.83 46.773 110.08 43.543 109.02C41.933 108.48 40.3631 107.88 38.8531 107.19C38.0931 106.87 37.3531 106.48 36.6131 106.12C36.2531 105.93 35.8931 105.73 35.5231 105.54L34.9831 105.25L34.453 104.94C33.853 104.71 33.2431 104.47 32.6531 104.21L31.7631 103.82L30.8831 103.4C30.9331 103.08 29.663 101.98 27.933 100.33C27.493 99.9197 27.043 99.4598 26.553 98.9998C26.073 98.5198 25.573 98.0198 25.063 97.4998C24.563 96.9598 24.0331 96.4297 23.5331 95.8597C23.2831 95.5797 23.0231 95.2898 22.7731 95.0098L22.0331 94.1298C21.5631 93.6598 21.1031 93.1197 20.6531 92.6097C20.2031 92.0997 19.813 91.5898 19.453 91.1698C18.773 90.3298 18.3531 89.8297 18.4731 90.2397C18.2331 90.0397 18.8931 91.1198 20.0331 92.6298C21.1731 94.1398 22.8231 96.0498 24.3831 97.6298C25.9331 99.2098 27.3531 100.5 27.7831 101.01C28.0031 101.27 27.963 101.34 27.573 101.15C27.183 100.97 26.453 100.5 25.303 99.6598C22.593 97.1598 20.123 94.3397 18.043 91.3297C15.953 88.3197 14.233 85.1397 12.923 81.9797C12.263 80.3997 11.7231 78.8098 11.2631 77.2698C10.8231 75.7198 10.443 74.2097 10.193 72.7397C9.65304 69.8097 9.47312 67.1098 9.53312 64.7998C9.63312 65.6298 9.68302 66.4397 9.80302 67.2197C9.85302 67.6097 9.91306 67.9898 9.96306 68.3698C10.0331 68.7497 10.0931 69.1197 10.1631 69.4897C10.1931 69.6797 10.2331 69.8598 10.2631 70.0398C10.3031 70.2198 10.3431 70.3997 10.3831 70.5797C10.4631 70.9397 10.5431 71.2998 10.6231 71.6598C10.8031 72.3698 10.983 73.0798 11.193 73.7698C11.413 74.4698 11.6231 75.1697 11.8931 75.8597C12.0231 76.2097 12.153 76.5598 12.293 76.9098C12.443 77.2598 12.5931 77.6097 12.7431 77.9597C12.8931 78.3197 13.0631 78.6698 13.2431 79.0198C13.4231 79.3698 13.5931 79.7397 13.7831 80.0997C14.1831 80.8097 14.583 81.5498 15.063 82.2898C15.743 83.5998 16.503 84.8698 17.293 86.1298L17.9031 87.0598L18.2131 87.5298L18.5331 87.9897L19.173 88.8998L19.8431 89.7898C21.6431 92.1798 23.6731 94.3997 25.8731 96.4697C28.0731 98.5297 30.4731 100.39 33.0131 102.03C33.6631 102.42 34.293 102.84 34.953 103.2L35.943 103.76L36.953 104.28C37.283 104.46 37.6231 104.62 37.9731 104.78L39.0031 105.26L40.043 105.71L40.563 105.93L42.1531 106.53L43.2231 106.89L43.7631 107.07L45.3831 107.55C46.1131 107.73 46.843 107.94 47.573 108.08C47.943 108.16 48.303 108.24 48.673 108.31L49.7831 108.5C50.1531 108.57 50.5231 108.61 50.8931 108.66C51.2631 108.7 51.6331 108.76 52.0031 108.79C52.7531 108.85 53.4931 108.92 54.2331 108.93C55.7231 109 57.213 108.93 58.673 108.79L59.7731 108.66C60.1431 108.62 60.5031 108.54 60.8631 108.48C61.5931 108.37 62.3031 108.19 63.0131 108.02C64.4231 107.64 65.8131 107.2 67.1231 106.59C69.7731 105.45 72.113 103.77 74.073 101.81C74.183 101.78 74.353 101.7 74.553 101.56C74.753 101.42 74.9831 101.24 75.2331 101.04C75.7531 100.65 76.283 100.09 76.793 99.6097C77.743 98.6097 78.4731 97.8098 78.1131 98.6698C78.3131 98.4798 78.5031 98.2098 78.7131 97.9098C78.9231 97.5998 79.1731 97.2698 79.3931 96.8898C79.6131 96.4998 79.843 96.0898 80.073 95.6698C80.283 95.2398 80.483 94.7797 80.693 94.3397C80.803 94.1197 80.8831 93.8898 80.9731 93.6698C81.0631 93.4498 81.1431 93.2298 81.2231 93.0098C81.2631 92.8998 81.3031 92.7997 81.3531 92.6897L81.4131 92.5298L81.453 92.4098C81.5031 92.2498 81.5631 92.0897 81.6131 91.9397C81.8431 91.3597 81.9831 90.9198 82.1531 90.7798C82.2231 90.3598 82.2331 89.9197 82.2531 89.4697C82.2931 89.0197 82.2531 88.5597 82.2431 88.0797L82.2331 87.7698L82.8631 88.3397C83.1331 88.5997 83.4431 88.8497 83.7431 89.0997L84.203 89.4797L84.693 89.8397L85.183 90.2097C85.343 90.3297 85.5431 90.4497 85.7131 90.5697L86.2631 90.9397C86.3631 90.9997 86.433 91.0598 86.553 91.1298L86.9031 91.3397L87.6131 91.7698C87.8531 91.9098 88.0831 92.0598 88.3331 92.1798C88.8231 92.4398 89.303 92.7097 89.793 92.9597C90.293 93.1997 90.793 93.4398 91.293 93.6798C95.343 95.4998 99.7131 96.6198 104.093 97.0398C112.863 97.9298 121.623 95.8498 128.093 91.8898C127.553 92.0798 127.253 92.0998 127.183 92.0498C127.113 91.9898 127.253 91.8297 127.553 91.5897C127.843 91.3397 128.293 90.9997 128.853 90.5997C129.133 90.3997 129.423 90.1598 129.733 89.9198C130.043 89.6798 130.393 89.4298 130.723 89.1398C132.103 88.0598 133.553 86.6397 134.783 85.2397C134.933 85.0597 135.083 84.8897 135.233 84.7197C135.383 84.5497 135.523 84.3797 135.653 84.1997C135.913 83.8497 136.173 83.5097 136.403 83.1997C136.863 82.5497 137.223 81.9597 137.503 81.4797C137.833 81.0797 138.173 80.6298 138.533 80.1498C138.863 79.6498 139.213 79.1098 139.563 78.5398C140.223 77.3798 140.883 76.0897 141.413 74.6997C141.983 73.3297 142.413 71.8697 142.813 70.4597C143.163 69.0297 143.463 67.6297 143.643 66.3297C143.603 65.7397 143.853 62.5098 143.483 63.2698C143.463 63.7498 143.413 64.1897 143.383 64.5997C143.363 64.8097 143.343 64.9997 143.323 65.1997C143.293 65.3897 143.263 65.5798 143.233 65.7598C143.173 66.1198 143.113 66.4598 143.063 66.7998C143.003 67.1298 142.913 67.4498 142.843 67.7698C142.763 68.0898 142.693 68.4097 142.603 68.7397C142.503 69.0697 142.403 69.3998 142.303 69.7598C142.253 69.9398 142.193 70.1198 142.143 70.3098C142.083 70.4998 142.013 70.6898 141.943 70.8898C141.803 71.2898 141.683 71.7198 141.513 72.1798C141.493 71.9598 141.503 71.6697 141.553 71.3197C141.603 70.9697 141.693 70.5597 141.803 70.0997C141.903 69.6397 142.023 69.1197 142.173 68.5697C142.303 68.0097 142.443 67.4098 142.583 66.7698C143.133 64.2198 143.563 61.0698 143.453 58.1498L143.693 59.6698C143.773 60.1798 143.813 60.6897 143.883 61.2097C143.963 58.7597 143.893 56.1797 143.583 53.5697C143.273 50.9597 142.723 48.3198 141.853 45.7998C140.993 43.2798 139.833 40.8698 138.413 38.7498C138.233 38.4898 138.053 38.2197 137.883 37.9597C137.693 37.7097 137.503 37.4597 137.313 37.2097C137.123 36.9697 136.933 36.7197 136.743 36.4797C136.543 36.2497 136.333 36.0198 136.133 35.7998C135.343 34.8898 134.463 34.0898 133.573 33.3998C134.433 34.3498 135.223 35.3498 135.933 36.3998C136.653 37.4398 137.303 38.5198 137.883 39.6198C137.483 39.0698 137.093 38.4997 136.653 37.9597C136.433 37.6897 136.223 37.4098 136.003 37.1298C135.773 36.8598 135.543 36.5997 135.313 36.3297C134.393 35.2497 133.373 34.2198 132.273 33.2798C131.173 32.3398 129.983 31.4898 128.703 30.7998C127.433 30.1098 126.063 29.5997 124.663 29.3497C123.273 29.0997 121.843 29.1297 120.523 29.4497C119.213 29.7997 118.063 30.5398 117.163 31.4198C115.353 33.1998 114.523 35.6197 114.803 37.4697C114.813 35.7997 115.583 33.8298 116.923 32.2998C117.593 31.5398 118.393 30.8798 119.263 30.4198C119.693 30.1898 120.143 29.9998 120.603 29.8798C120.713 29.8398 120.833 29.8198 120.943 29.7898C121.063 29.7698 121.163 29.7297 121.283 29.7197C121.523 29.6897 121.753 29.6598 121.983 29.6298C123.833 29.4698 125.473 29.8897 126.533 30.3497C127.603 30.8197 128.133 31.2897 127.983 31.4797C127.833 31.5597 127.293 31.3798 126.503 31.1598C125.703 30.9498 124.653 30.6898 123.503 30.6398C123.363 30.6298 123.213 30.6198 123.073 30.6198C122.933 30.6198 122.783 30.6298 122.633 30.6398C122.483 30.6398 122.343 30.6498 122.193 30.6498L121.753 30.7097C121.613 30.7297 121.453 30.7398 121.323 30.7698C121.193 30.7998 121.063 30.8197 120.933 30.8597C120.673 30.9297 120.413 31.0097 120.163 31.1097C119.163 31.5197 118.283 32.1698 117.683 32.7698C117.013 33.4098 116.483 34.1797 116.093 34.9897C115.723 35.8097 115.503 36.6698 115.513 37.4998C115.523 37.9098 115.573 38.3097 115.683 38.6897C115.793 39.0597 115.963 39.4197 116.173 39.7397C116.613 40.3797 117.223 40.8997 117.923 41.1997C119.333 41.8197 121.083 41.6397 122.563 40.9697C124.053 40.3097 125.313 39.1798 126.013 37.8898C126.103 37.7298 126.173 37.5698 126.253 37.3898L126.463 36.8397C126.543 36.6597 126.583 36.4598 126.643 36.2798L126.723 35.9998L126.783 35.7097C126.823 35.5197 126.873 35.3298 126.893 35.1298L126.973 34.5398C126.993 34.1398 127.033 33.7497 127.023 33.3397C127.033 32.9397 126.993 32.5298 126.973 32.1298C126.923 31.7198 126.883 31.3198 126.803 30.9098C126.663 30.0998 126.473 29.2797 126.233 28.4697C125.993 27.6597 125.713 26.8498 125.393 26.0498C125.243 25.6498 125.063 25.2497 124.893 24.8497C124.703 24.4497 124.513 24.0498 124.333 23.6598L124.053 23.0598C123.963 22.8598 123.843 22.6697 123.743 22.4697C123.533 22.0697 123.333 21.6798 123.123 21.2798C123.023 21.0798 122.913 20.8797 122.793 20.6897L122.113 19.5098C122.073 19.2998 121.963 19.0898 121.833 18.8998Z" fill="#4CA4DB" fill-opacity="0.5"/>
<path d="M124.293 37.99C123.493 38.87 122.553 39.4 121.793 39.71C121.023 40.02 120.393 40.14 119.913 40.19C119.423 40.24 119.063 40.24 118.753 40.21C118.443 40.18 118.183 40.14 117.923 40.07C117.663 40 117.413 39.88 117.133 39.69C116.853 39.5 116.573 39.2301 116.333 38.7901C116.213 38.5701 116.113 38.31 116.043 37.98C115.973 37.66 115.943 37.28 115.973 36.84C116.023 35.97 116.363 34.8301 117.183 33.6501C117.093 34.0301 117.243 34.0101 117.543 33.7801C117.843 33.5501 118.333 33.1101 118.973 32.6801C119.293 32.4701 119.653 32.26 120.023 32.09C120.403 31.92 120.803 31.79 121.193 31.71C121.293 31.68 121.393 31.6801 121.483 31.6601C121.573 31.6401 121.703 31.6401 121.813 31.6301L122.163 31.6L122.343 31.58H122.523C122.643 31.58 122.753 31.58 122.873 31.58C122.993 31.58 123.103 31.57 123.223 31.59C123.453 31.62 123.673 31.6201 123.893 31.6501C125.613 31.6801 127.603 32.4701 129.323 33.6501C130.193 34.2301 131.003 34.91 131.733 35.61C132.463 36.31 133.133 37 133.713 37.7C134.493 38.66 134.633 39.2201 134.273 39.0201C134.183 38.9701 134.063 38.88 133.893 38.74C133.723 38.61 133.523 38.43 133.283 38.2C132.813 37.73 132.183 37.1 131.353 36.32C130.413 35.27 129.313 34.3001 128.103 33.5301L127.643 33.2601L127.413 33.12L127.173 33.0001L126.703 32.7601L125.983 32.46C125.903 32.43 125.823 32.4101 125.743 32.3801L125.253 32.22L124.763 32.1L124.513 32.0401L124.263 32.0001C122.983 31.7901 121.543 31.89 120.673 32.34C119.673 32.8 118.723 33.7401 118.133 34.8001C117.523 35.8601 117.323 37.0501 117.503 37.8001C117.583 38.1901 117.743 38.47 117.953 38.74C118.073 38.87 118.203 39.01 118.343 39.11C118.483 39.21 118.633 39.3 118.793 39.37C118.963 39.44 119.143 39.5001 119.343 39.5501C119.543 39.5901 119.763 39.6201 119.993 39.6301C120.453 39.6401 120.973 39.58 121.483 39.44C121.993 39.31 122.503 39.1 122.973 38.85C123.473 38.61 123.903 38.31 124.293 37.99Z" fill="#4CA4DB" fill-opacity="0.5"/>
<path d="M135.333 38.29C135.663 38.72 136.073 39.2 136.443 39.79C136.633 40.08 136.843 40.3699 137.043 40.6899C137.233 41.0099 137.423 41.3401 137.623 41.6801C138.383 43.0401 139.103 44.57 139.603 46.04C139.883 46.76 140.063 47.49 140.253 48.14C140.423 48.8 140.533 49.4101 140.633 49.9301C140.773 50.9801 140.803 51.67 140.643 51.78C140.683 52.1 140.563 52.01 140.503 52.13C140.473 52.19 140.463 52.31 140.503 52.55C140.523 52.67 140.543 52.82 140.593 53.02C140.613 53.12 140.643 53.23 140.673 53.35C140.693 53.47 140.723 53.6 140.753 53.75C140.723 53.28 140.603 52.7101 140.503 52.0601C140.453 51.7301 140.373 51.39 140.293 51.03C140.213 50.67 140.143 50.29 140.033 49.91C139.653 48.37 139.083 46.69 138.453 45.1C137.833 43.5 137.073 42.04 136.493 40.85C136.173 40.27 135.923 39.7401 135.723 39.3101C135.503 38.8701 135.373 38.53 135.333 38.29Z" fill="#4CA4DB" fill-opacity="0.5"/>
<path d="M139.553 42.4599C139.563 41.9499 140.073 42.77 140.563 43.92C141.063 45.06 141.523 46.4999 141.723 47.1099L141.903 47.77L142.053 48.43C142.143 48.87 142.263 49.31 142.333 49.76C142.143 49.15 141.903 48.5199 141.683 47.8599C141.563 47.5399 141.433 47.21 141.313 46.89C141.193 46.57 141.083 46.24 140.943 45.92C140.673 45.29 140.453 44.6499 140.193 44.0799C139.943 43.4999 139.743 42.9399 139.553 42.4599Z" fill="#4CA4DB" fill-opacity="0.5"/>
<path d="M137.073 79.03C135.283 81.62 136.043 80.14 136.703 78.83C137.003 78.15 137.293 77.52 137.273 77.45C137.263 77.41 137.173 77.52 136.963 77.83C136.753 78.14 136.463 78.67 135.943 79.42C136.703 78.24 137.343 76.98 137.943 75.71C138.393 75.35 138.863 74.99 139.313 74.61C138.663 76.13 137.923 77.61 137.073 79.03Z" fill="#4CA4DB" fill-opacity="0.5"/>
<path d="M130.483 85.8101C130.333 85.9701 130.193 86.14 130.033 86.29C129.873 86.44 129.703 86.59 129.533 86.75C129.363 86.9 129.183 87.06 128.993 87.22C128.813 87.38 128.603 87.5301 128.393 87.6801C127.963 87.9901 127.503 88.33 126.953 88.65C126.683 88.81 126.393 88.99 126.093 89.16C125.783 89.32 125.453 89.48 125.103 89.66C125.553 89.29 126.003 88.9501 126.423 88.55C126.653 88.37 126.903 88.2101 127.183 88.05C127.463 87.89 127.763 87.7 128.103 87.51C128.273 87.41 128.453 87.31 128.643 87.2C128.833 87.09 129.013 86.9499 129.213 86.8199C129.593 86.5199 130.043 86.2201 130.483 85.8101Z" fill="#4CA4DB" fill-opacity="0.5"/>
<path d="M137.233 80.8101C137.043 81.1601 136.853 81.4301 136.693 81.6701C136.523 81.9101 136.383 82.1101 136.253 82.2801C135.993 82.62 135.773 82.82 135.563 83C135.153 83.34 134.823 83.57 134.093 84.23C134.173 84.1 134.313 83.92 134.493 83.7C134.673 83.48 134.883 83.21 135.123 82.94C135.613 82.4 136.123 81.74 136.583 81.21C137.473 80.12 138.063 79.4601 137.233 80.8101Z" fill="#4CA4DB" fill-opacity="0.5"/>
<path d="M111.303 100.32C112.913 99.8899 115.363 99.53 118.153 98.85C120.943 98.19 124.063 97.13 126.883 95.6C126.533 95.79 126.193 95.97 125.863 96.15C125.523 96.31 125.203 96.47 124.883 96.62C124.563 96.77 124.263 96.9301 123.963 97.0601C123.663 97.1901 123.363 97.32 123.073 97.45C122.783 97.57 122.493 97.6999 122.213 97.8199C121.923 97.9299 121.643 98.04 121.363 98.14C121.083 98.25 120.803 98.35 120.523 98.46C120.243 98.55 119.953 98.64 119.673 98.74C119.103 98.92 118.523 99.11 117.913 99.26C117.303 99.42 116.673 99.59 115.993 99.71C115.653 99.78 115.303 99.84 114.943 99.91C114.583 99.97 114.203 100.02 113.823 100.07C113.433 100.12 113.033 100.18 112.613 100.22C112.193 100.25 111.753 100.28 111.303 100.32Z" fill="#4CA4DB" fill-opacity="0.5"/>
<path d="M63.123 35.0697C62.853 34.8997 62.583 34.7198 62.303 34.5498C62.013 34.3898 61.723 34.2297 61.423 34.0797C60.833 33.7697 60.213 33.5098 59.623 33.2598C59.033 33.0098 58.4331 32.8198 57.9031 32.6398C57.3631 32.4698 56.853 32.3397 56.433 32.2197L57.593 32.8898C59.463 33.4998 61.313 34.2297 63.123 35.0697Z" fill="#4CA4DB" fill-opacity="0.5"/>
<path d="M62.873 24.0601C62.913 23.4401 62.8731 23.21 62.7531 23.3C62.6931 23.34 62.6131 23.46 62.5131 23.65C62.4631 23.74 62.403 23.85 62.343 23.98C62.293 24.11 62.233 24.25 62.173 24.4C62.113 24.55 62.053 24.72 61.983 24.9C61.923 25.08 61.873 25.27 61.813 25.47C61.673 25.87 61.593 26.32 61.483 26.79C61.313 27.74 61.203 28.79 61.203 29.89L61.2831 30.39C61.3131 30.55 61.323 30.74 61.373 30.87C61.443 31.16 61.5331 31.45 61.6431 31.74C61.8731 32.31 62.193 32.87 62.583 33.39C63.363 34.43 64.433 35.32 65.603 35.92C66.763 36.53 68.0331 36.84 69.1331 36.8C70.2431 36.76 71.1331 36.43 71.8831 35.84L71.733 40.8299C71.403 40.5499 71.073 40.27 70.743 39.99C70.463 39.79 70.1731 39.61 69.8831 39.43C69.5931 39.25 69.3031 39.06 69.0131 38.88L68.123 38.36L67.683 38.1L67.233 37.86C68.493 38.79 69.903 39.91 71.363 41.26L71.543 35.4C71.103 35.7 70.643 35.91 70.083 36C69.803 36.05 69.503 36.07 69.183 36.05C68.863 36.04 68.5131 36 68.1631 35.91C66.7331 35.59 65.153 34.63 64.053 33.38C63.913 33.23 63.7931 33.06 63.6531 32.9C63.5431 32.73 63.413 32.57 63.313 32.4C63.093 32.07 62.9131 31.72 62.7731 31.38C62.6931 31.21 62.643 31.04 62.583 30.87C62.553 30.79 62.5331 30.7 62.5131 30.62L62.473 30.49L62.443 30.33C62.403 30.12 62.363 29.91 62.323 29.71C62.283 29.5 62.2831 29.2899 62.2531 29.08L62.213 28.77V28.4499C62.213 28.2399 62.193 28.0299 62.203 27.8199C62.243 27.3899 62.243 26.97 62.313 26.55C62.413 25.69 62.643 24.8601 62.873 24.0601Z" fill="#4CA4DB" fill-opacity="0.5"/>
<path d="M6.35306 46.48C7.10306 44.75 8.26312 42.95 9.78312 41.26C11.3031 39.57 13.1631 37.98 15.2231 36.58C17.2831 35.18 19.523 33.9601 21.793 32.9301C22.073 32.8001 22.3631 32.68 22.6431 32.55C22.9231 32.43 23.2231 32.3099 23.5131 32.1899C23.8031 32.0699 24.0831 31.95 24.3731 31.84C24.6631 31.73 24.9531 31.62 25.2331 31.51C26.3831 31.07 27.5231 30.67 28.6331 30.29C28.1031 30.4 27.633 30.4899 27.213 30.5699C26.793 30.6599 26.413 30.7499 26.053 30.8199C25.693 30.8899 25.3631 30.9701 25.0331 31.0601C24.7031 31.1401 24.3731 31.22 24.0331 31.3C22.6731 31.7 20.9931 32.11 17.9731 33.64C18.9731 32.82 20.093 32.16 21.303 31.62C21.603 31.48 21.9131 31.36 22.2231 31.24C22.5431 31.12 22.863 31.02 23.183 30.91C23.823 30.68 24.493 30.52 25.173 30.34C25.503 30.25 25.853 30.18 26.193 30.11C26.543 30.04 26.8831 29.96 27.2331 29.9C27.9331 29.78 28.6431 29.64 29.3731 29.55C30.8131 29.32 32.303 29.17 33.833 28.98C31.323 29.19 31.6831 29 33.2231 28.64C33.6031 28.54 34.073 28.48 34.573 28.39C35.083 28.3 35.643 28.24 36.213 28.17C37.363 28.04 38.603 27.97 39.693 27.96C41.753 28.04 44.1231 28.23 46.6531 28.62C49.1931 29.01 51.8931 29.62 54.6131 30.47C57.3431 31.31 60.073 32.43 62.693 33.76C65.293 35.11 67.7831 36.65 69.9931 38.37C70.3031 38.58 70.653 38.83 71.053 39.12C71.433 39.42 71.863 39.77 72.313 40.14L72.423 36.54C71.973 36.91 71.433 37.21 70.813 37.4C70.503 37.51 70.163 37.56 69.823 37.6C69.473 37.62 69.1131 37.64 68.7431 37.61C67.2531 37.51 65.7031 36.84 64.5331 36.05C63.3431 35.25 62.5231 34.3601 62.0231 33.8101C61.7631 33.5401 61.5931 33.35 61.4731 33.29C61.3531 33.23 61.293 33.3 61.323 33.54C60.913 32.9 60.633 32.28 60.463 31.71C60.413 31.57 60.3731 31.43 60.3431 31.29C60.3131 31.15 60.2731 31.03 60.2631 30.88C60.2231 30.6 60.1931 30.3299 60.1631 30.0699C60.1531 30.0099 60.1531 29.94 60.1431 29.88C60.1431 29.82 60.1431 29.7499 60.1431 29.6899C60.1431 29.5699 60.1431 29.45 60.1431 29.33C60.1431 29.21 60.1431 29.1 60.1431 28.98C60.1431 28.92 60.1431 28.8701 60.1431 28.8101C60.1531 28.7501 60.1531 28.7 60.1631 28.64C60.2231 28.2 60.2331 27.8 60.3431 27.41C60.3831 27.22 60.4331 27.03 60.4731 26.84C60.5131 26.65 60.5831 26.47 60.6331 26.28C60.6931 26.1 60.743 25.91 60.803 25.72C60.873 25.53 60.9431 25.34 61.0231 25.15C61.3031 24.37 61.693 23.52 62.213 22.47C62.803 20.82 63.6831 19.27 64.7231 17.88C65.7731 16.48 66.973 15.26 68.323 14.17C70.953 11.95 73.9631 10.34 77.1031 9.13C78.6631 8.5 80.293 8.04998 81.933 7.60999C83.593 7.23999 85.2731 6.88005 87.0031 6.68005C88.7231 6.43005 90.503 6.33 92.313 6.25C93.223 6.25 94.143 6.2 95.083 6.25C95.323 6.25 95.553 6.26001 95.793 6.26001H96.1531L96.5131 6.29004C96.9931 6.32004 97.4731 6.35 97.9631 6.38C97.8331 6.43001 97.843 6.49995 97.953 6.56995C98.073 6.62995 98.2931 6.71996 98.5931 6.82996C99.1931 7.03996 100.123 7.23996 101.153 7.57996C103.223 8.19996 105.703 9.15001 107.013 9.88C107.193 9.97001 107.383 10.06 107.583 10.16C107.783 10.26 107.973 10.38 108.183 10.49C108.593 10.72 109.033 10.96 109.483 11.22C109.923 11.5 110.383 11.79 110.853 12.08C111.093 12.22 111.323 12.39 111.553 12.55C111.783 12.71 112.023 12.88 112.253 13.05C114.133 14.4 115.963 16.02 117.463 17.53C118.183 18.31 118.883 19.01 119.423 19.67C119.713 19.99 119.973 20.29 120.213 20.55C120.443 20.82 120.643 21.07 120.823 21.27C121.553 22.07 121.923 22.25 121.643 21.38C121.523 21.12 121.373 20.8499 121.223 20.5699C121.063 20.2899 120.903 19.99 120.693 19.7C120.493 19.41 120.273 19.1101 120.043 18.8101C119.813 18.5001 119.583 18.19 119.303 17.89C118.763 17.28 118.203 16.63 117.543 16.02C117.213 15.71 116.903 15.39 116.553 15.09C116.203 14.79 115.843 14.4899 115.483 14.1899C115.133 13.8799 114.743 13.6001 114.363 13.3101C114.173 13.1701 113.983 13.02 113.793 12.87C113.603 12.72 113.413 12.5699 113.213 12.4399C112.813 12.1699 112.413 11.89 112.013 11.62L111.713 11.41L111.403 11.22L110.793 10.84C109.993 10.3 109.153 9.85999 108.353 9.37C108.153 9.24 107.953 9.14003 107.743 9.03003C107.543 8.92003 107.343 8.80995 107.143 8.69995C106.743 8.47995 106.363 8.23004 105.973 8.04004C105.303 7.68004 104.753 7.39003 104.323 7.16003C103.883 6.95003 103.563 6.78003 103.343 6.66003C102.913 6.41003 102.903 6.34001 103.223 6.39001C103.853 6.49001 105.793 7.04998 107.963 8.09998C108.523 8.33998 109.063 8.63994 109.633 8.93994C109.913 9.08994 110.203 9.24002 110.483 9.39001C110.763 9.56001 111.033 9.72001 111.313 9.89001C111.863 10.22 112.413 10.54 112.913 10.89C113.173 11.06 113.423 11.23 113.663 11.39C113.903 11.55 114.153 11.71 114.373 11.88C114.823 12.21 115.243 12.52 115.623 12.79C115.723 12.86 115.813 12.92 115.903 12.99C115.993 13.06 116.073 13.1199 116.153 13.1899C116.313 13.3199 116.473 13.43 116.613 13.53C117.183 13.94 117.563 14.15 117.663 14.08C117.293 13.81 117.003 13.5199 116.713 13.1899C116.563 13.0199 116.413 12.85 116.253 12.65C116.083 12.46 115.903 12.27 115.693 12.05C115.273 11.63 114.783 11.09 114.033 10.54C113.663 10.26 113.263 9.95 112.783 9.63C112.293 9.33 111.743 9.01004 111.123 8.67004C111.773 9.05004 112.333 9.36 112.803 9.63C113.263 9.91 113.633 10.1499 113.943 10.3199C114.553 10.6799 114.873 10.83 114.983 10.84C115.093 10.85 115.023 10.69 114.813 10.46C114.603 10.23 114.273 9.91005 113.903 9.55005C113.713 9.37005 113.523 9.19001 113.333 9.01001C113.133 8.84001 112.933 8.67001 112.743 8.51001C112.363 8.18001 112.033 7.89004 111.833 7.67004C111.443 7.25004 111.593 7.16001 113.033 7.89001C110.073 5.84001 107.683 4.7 105.833 3.87C105.363 3.67 104.923 3.49997 104.523 3.33997C104.113 3.17997 103.743 3.01001 103.383 2.89001C102.663 2.64001 102.043 2.41995 101.473 2.19995C100.893 2.00995 100.373 1.84003 99.8531 1.66003C99.5931 1.57003 99.333 1.48 99.073 1.38C98.803 1.3 98.5331 1.22 98.2631 1.13C97.9831 1.04 97.6931 0.949985 97.3831 0.859985C97.0731 0.759985 96.7531 0.659946 96.4031 0.569946C96.0531 0.479946 95.6731 0.390039 95.2731 0.290039C94.8631 0.190039 94.433 0.07 93.953 0C93.383 0 92.8631 0.0100098 92.3831 0.0100098C92.2631 0.0100098 92.1431 0.0100195 92.0331 0.0200195C91.9231 0.0300195 91.803 0.0400488 91.693 0.0500488C91.473 0.0700488 91.263 0.0899854 91.063 0.109985C90.263 0.189985 89.6131 0.249995 89.0931 0.369995C88.0431 0.599995 87.453 0.77999 87.073 0.98999C86.313 1.40999 86.3531 1.74003 85.1631 2.16003C84.6031 2.31003 84.0531 2.44997 83.5031 2.58997C83.2331 2.65997 82.953 2.72005 82.693 2.80005C82.423 2.88005 82.1631 2.96004 81.9031 3.04004C81.6431 3.12004 81.3831 3.19002 81.1231 3.27002C80.8631 3.34002 80.6031 3.41001 80.3531 3.51001C79.8431 3.68001 79.3431 3.85001 78.8431 4.01001L78.4731 4.13L78.1031 4.27002C77.8631 4.36002 77.6131 4.45004 77.3731 4.54004C77.1331 4.63004 76.8931 4.72006 76.6531 4.81006L76.293 4.93994L75.943 5.08997C75.013 5.48997 74.073 5.85995 73.183 6.31995C71.373 7.15995 69.693 8.20006 68.053 9.31006C66.463 10.4901 64.933 11.75 63.573 13.29C64.383 11.92 64.163 11.78 63.213 12.49C62.283 13.22 60.643 14.83 59.083 17.22C58.293 18.4 57.563 19.8 56.943 21.34C56.333 22.88 55.8731 24.5701 55.6631 26.3101C55.4431 28.0501 55.5331 29.84 55.8631 31.47C55.9031 31.68 55.9331 31.87 55.9831 32.09C56.0431 32.3 56.0931 32.51 56.1531 32.72C56.2831 33.13 56.413 33.53 56.583 33.9C56.733 34.28 56.913 34.63 57.083 34.98C57.273 35.31 57.4431 35.6399 57.6431 35.9399C58.1231 36.7199 58.6331 37.36 59.1231 37.89C59.6131 38.43 60.0931 38.86 60.5331 39.22C61.4231 39.94 62.183 40.37 62.803 40.66C64.043 41.24 64.7231 41.29 65.3731 41.37C65.7031 41.4 66.033 41.42 66.453 41.45C66.663 41.47 66.8931 41.49 67.1631 41.5C67.4231 41.53 67.733 41.53 68.073 41.55C68.763 41.57 69.653 41.58 70.803 41.37C71.373 41.26 72.023 41.0999 72.703 40.8199C73.393 40.5399 74.1231 40.15 74.8531 39.6L76.333 38.47L74.933 37.25C74.873 37.2 74.7931 37.1301 74.7131 37.0601C73.2231 35.4701 73.923 35.82 75.333 36.79L77.2831 38.13L75.2331 40.0699C74.5031 40.7699 73.3631 41.48 72.1531 41.91C71.5531 42.14 70.9331 42.28 70.3731 42.39C70.0931 42.43 69.813 42.47 69.563 42.5C69.303 42.52 69.0631 42.5401 68.8531 42.5601C67.9831 42.6001 67.463 42.6 67.583 42.72C67.613 42.75 67.683 42.79 67.803 42.83C67.923 42.88 68.093 42.92 68.313 42.97C68.533 43.02 68.8131 43.07 69.1631 43.1C69.5031 43.14 69.9131 43.15 70.3931 43.15C71.3731 43.02 72.3431 42.75 73.2631 42.35C74.1831 41.95 75.043 41.41 75.793 40.78L78.7831 38.29L74.6031 35.08C71.1931 33.08 68.243 31.99 64.053 30.29C63.453 30 62.783 29.65 62.083 29.35C61.743 29.19 61.393 29.04 61.063 28.89C60.723 28.75 60.393 28.6 60.083 28.47C59.463 28.19 58.9131 27.98 58.5131 27.79C58.1131 27.61 57.8731 27.47 57.8731 27.41C58.5031 27.61 59.0331 27.77 59.4731 27.89C59.9031 28.02 60.2431 28.11 60.4931 28.17C60.9931 28.28 61.1531 28.23 60.9831 28.04C60.6531 27.69 59.083 26.73 56.433 25.72C55.783 25.59 55.263 25.48 54.813 25.39C54.363 25.31 54.003 25.25 53.683 25.21C53.043 25.11 52.553 25.07 51.923 25.05C54.493 26.08 55.0231 26.51 54.3531 26.41C53.6731 26.34 51.7531 25.77 49.2231 25.28C46.7031 24.78 43.563 24.39 40.573 24.34C37.583 24.27 34.773 24.59 32.923 25.05C27.483 26.08 24.2131 27.25 21.8631 27.97C20.6931 28.33 19.753 28.63 18.933 28.87C18.103 29.11 17.403 29.31 16.703 29.51C15.293 29.93 13.873 30.35 11.693 31.62C10.613 32.26 9.34311 33.11 7.90311 34.39C7.18311 35.03 6.41308 35.77 5.62308 36.66C4.83308 37.55 4.02307 38.58 3.23307 39.8C3.88307 39.17 4.26309 38.93 4.38309 38.96C4.50309 38.99 4.39305 39.2999 4.09305 39.8199C3.95305 40.0799 3.77301 40.41 3.55301 40.77C3.35301 41.15 3.10306 41.56 2.85306 42.04C2.35306 42.98 1.80303 44.12 1.32303 45.42C0.843033 46.71 0.443048 48.16 0.213048 49.66C-0.0369524 51.18 -0.0669182 52.78 0.123082 54.27C0.503082 57.27 1.65302 59.83 2.68302 61.33C3.43302 62.69 4.19312 63.75 4.91312 64.66C5.63312 65.57 6.3131 66.32 7.0131 66.99C7.3531 67.34 7.71302 67.64 8.06302 67.95L8.61307 68.4L8.8931 68.62C8.9931 68.69 9.08302 68.76 9.18302 68.83C9.96302 69.41 10.8431 69.94 11.9131 70.42C12.3631 70.54 13.0231 70.69 13.7731 70.79C13.9631 70.81 14.1531 70.84 14.3531 70.86C14.5531 70.89 14.753 70.89 14.963 70.9C15.173 70.91 15.373 70.9301 15.583 70.9301C15.793 70.9201 15.993 70.92 16.203 70.91C16.613 70.91 17.0031 70.84 17.3831 70.8C17.7531 70.76 18.0931 70.66 18.4031 70.6C18.5531 70.57 18.693 70.53 18.823 70.48C18.953 70.44 19.063 70.4 19.173 70.36C19.383 70.28 19.5331 70.21 19.6131 70.16C18.6031 69.93 16.9431 69.84 14.9931 69.15C14.0231 68.81 12.983 68.33 11.963 67.67C10.933 67.01 9.91306 66.17 8.97306 65.14C8.03306 64.1 7.15301 62.9 6.42301 61.53C6.05301 60.85 5.73303 60.12 5.44303 59.37C5.17303 58.61 4.9331 57.83 4.7631 57.03C4.6031 56.22 4.47303 55.41 4.44303 54.58C4.41303 53.76 4.44302 52.93 4.56302 52.12C4.59302 51.92 4.63312 51.72 4.66312 51.52C4.70312 51.32 4.76301 51.1301 4.80301 50.9301C4.84301 50.7401 4.91306 50.5201 4.97306 50.3101L5.06302 49.99L5.17301 49.67C5.46301 48.83 5.80306 48 6.22306 47.2C6.29306 46.81 6.39306 46.48 6.35306 46.48Z" fill="#4CA4DB" fill-opacity="0.5"/>
</g>
<defs>
<clipPath id="clip0_536_11416">
<rect width="147.217" height="112.3" fill="white"/>
</clipPath>
</defs>
</svg>
