<svg width="22" height="21" viewBox="0 0 22 21" fill="none" xmlns="http://www.w3.org/2000/svg">
<path d="M14.71 20.3H6.55994C2.93994 20.3 0 17.36 0 13.74V6.56C0 2.94 2.93994 0 6.55994 0H14.71C18.33 0 21.2699 2.94 21.2699 6.56V13.74C21.2699 17.35 18.32 20.3 14.71 20.3ZM6.55994 1.45999C3.74994 1.45999 1.45996 3.75 1.45996 6.56V13.74C1.45996 16.55 3.74994 18.84 6.55994 18.84H14.71C17.52 18.84 19.8099 16.55 19.8099 13.74V6.56C19.8099 3.75 17.52 1.45999 14.71 1.45999H6.55994Z" fill="white"/>
<path d="M10.6301 15.9901C7.41013 15.9901 4.79004 13.3701 4.79004 10.1501C4.79004 6.93005 7.41013 4.31006 10.6301 4.31006C13.8501 4.31006 16.4701 6.93005 16.4701 10.1501C16.4701 13.3701 13.8501 15.9901 10.6301 15.9901ZM10.6301 5.77005C8.21013 5.77005 6.25012 7.74005 6.25012 10.1501C6.25012 12.5701 8.22013 14.5301 10.6301 14.5301C13.0501 14.5301 15.0101 12.5701 15.0101 10.1501C15.0101 7.73005 13.0501 5.77005 10.6301 5.77005Z" fill="white"/>
<path d="M17.59 4.49002C17.59 5.16002 17.05 5.70001 16.38 5.70001C15.71 5.70001 15.1699 5.16002 15.1699 4.49002C15.1699 3.82002 15.71 3.28003 16.38 3.28003C17.05 3.28003 17.59 3.82002 17.59 4.49002Z" fill="white"/>
</svg>
