<svg width="214" height="216" viewBox="0 0 214 216" fill="none" xmlns="http://www.w3.org/2000/svg">
<path d="M213.553 107.872C213.544 108.864 213.91 108.507 213.982 108.659C213.857 106.988 213.455 107.917 213.553 107.872Z" fill="#20729E"/>
<path d="M211.355 91.6462L211.551 91.9054L210.765 89.609L211.355 91.6462Z" fill="#20729E"/>
<path d="M207.879 76.8141C207.656 78.3777 209.568 82.077 209.881 84.8021L209.836 85.2668L210.613 86.3478C210.184 84.7485 209.711 82.9079 209.157 81.2192C208.612 79.5394 208.13 77.9578 207.879 76.8141Z" fill="#20729E"/>
<path d="M206.414 68.6566C206.37 69.2195 205.565 67.0841 207.049 70.4704C207.004 70.2917 207.004 70.2291 206.977 70.1218C206.852 69.8181 206.682 69.3893 206.414 68.6566Z" fill="#20729E"/>
<path d="M206.977 70.1308C206.781 69.0586 207.585 71.6319 206.977 70.1308V70.1308Z" fill="#20729E"/>
<path d="M203.921 63.2688L205.003 65.1274C204.949 64.6628 204.198 62.9025 204.583 63.5101C203.564 61.5533 203.627 62.0358 203.921 63.2688Z" fill="#20729E"/>
<path d="M202.635 61.6425C202.831 61.9552 203.028 62.268 203.198 62.5986C203.18 62.3931 203.09 62.1161 202.635 61.6425Z" fill="#20729E"/>
<path d="M204.35 64.6448L203.207 62.5897C203.242 62.9114 203.064 63.0276 203.716 63.5368C203.466 63.4475 203.814 63.796 204.35 64.6448Z" fill="#20729E"/>
<path d="M204.806 65.8956C205.19 67.0392 205.655 68.5046 204.645 66.6194C205.467 68.4778 205.887 69.2462 205.94 69.0586C205.976 68.8888 205.69 67.7362 204.806 65.8956Z" fill="#20729E"/>
<path d="M207.004 76.2782C207.111 76.7964 207.227 77.3057 207.299 77.8329L207.879 79.0837C207.737 78.771 207.567 78.0294 207.415 77.3861C207.254 76.7428 207.075 76.2067 207.004 76.2782Z" fill="#20729E"/>
<path d="M197.846 51.4031C197.658 51.3674 197.927 52.1984 197.864 52.4218C198.204 52.8328 198.498 53.2616 198.811 53.6905C198.507 52.931 197.73 51.5997 197.846 51.4031Z" fill="#20729E"/>
<path d="M197.864 52.4218L196.398 50.5632C197.506 52.3502 197.801 52.6094 197.864 52.4218Z" fill="#20729E"/>
<path d="M201.831 61.6157C202.59 62.67 203.207 63.796 203.904 64.895C203.117 63.5637 202.358 62.2322 201.491 60.9635L201.831 61.6157Z" fill="#20729E"/>
<path d="M192.753 43.9157C193.111 44.2105 193.441 44.5233 193.79 44.8181L192.905 43.9781L191.976 43.183L192.753 43.9157Z" fill="#20729E"/>
<path d="M188.965 39.2517C189.814 39.8414 188.411 37.938 189.215 38.626C188.098 37.4198 187.035 36.4906 186.035 35.7043C187.017 36.6157 187.92 37.7327 188.965 39.2517Z" fill="#20729E"/>
<path d="M184.373 34.3819C184.873 34.8197 185.436 35.2397 186.035 35.7043C185.508 35.2397 184.962 34.7929 184.373 34.3819Z" fill="#20729E"/>
<path d="M194.21 47.1947C194.174 46.9982 194.147 46.5872 193.45 45.4525L193.682 46.4352C193.843 46.6675 194.022 46.9267 194.21 47.1947Z" fill="#20729E"/>
<path d="M193.692 46.471L193.682 46.4352C193.111 45.6132 192.709 45.0415 192.539 44.7913C192.682 45.0057 193.031 45.506 193.692 46.471Z" fill="#20729E"/>
<path d="M194.344 47.3913C194.29 47.3198 194.254 47.2662 194.209 47.2037C194.236 47.293 194.254 47.3377 194.344 47.3913Z" fill="#20729E"/>
<path d="M199.258 56.0403C198.382 54.9502 196.765 52.5914 197.864 55.1557C198.579 55.8705 197.944 54.3962 199.258 56.0403Z" fill="#20729E"/>
<path d="M194.621 48.5976C195.076 49.2945 195.478 50.0182 195.907 50.733C195.97 50.6347 195.845 50.179 196.3 50.6972C195.737 49.9913 195.201 49.2677 194.621 48.5976Z" fill="#20729E"/>
<path d="M193.816 47.6683L194.621 48.5976L194.111 47.8202L193.816 47.6683Z" fill="#20729E"/>
<path d="M187.009 37.7951C186.589 37.4377 186.187 37.0445 185.776 36.6067C185.356 36.1868 184.909 35.74 184.436 35.2665C185.392 36.3387 186.321 37.4825 187.232 38.5458C187.455 38.6262 188.027 38.9478 187.009 37.7951Z" fill="#20729E"/>
<path d="M190.341 41.95C190.288 41.8964 190.225 41.8248 190.171 41.7711C190.243 41.9141 190.305 42.0126 190.341 41.95Z" fill="#20729E"/>
<path d="M174.893 26.2512C174.929 26.3138 174.965 26.3763 175.009 26.4388C175.036 26.4299 175.063 26.4209 175.09 26.4209L174.893 26.2512Z" fill="#20729E"/>
<path d="M187.339 38.7781C187.982 39.6359 188.473 40.0647 188.965 40.4489C188.411 39.8681 187.831 39.2427 187.232 38.5458C187.143 38.519 187.098 38.528 187.339 38.7781Z" fill="#20729E"/>
<path d="M181.675 31.8803C182.032 32.3181 182.434 32.8095 182.845 33.3456C182.568 32.8541 181.889 31.9429 181.675 31.8803Z" fill="#20729E"/>
<path d="M190.037 41.4228C190.073 41.4585 190.109 41.4942 190.153 41.5388C189.993 41.2082 189.984 41.2709 190.037 41.4228Z" fill="#20729E"/>
<path d="M190.037 41.4228C189.653 41.0207 189.314 40.7347 188.974 40.4488C189.403 40.9402 189.805 41.3959 190.18 41.7711C190.118 41.655 190.064 41.5211 190.037 41.4228Z" fill="#20729E"/>
<path d="M170.283 25.7151C170.462 25.6347 171.15 25.9565 171.999 26.5194C172.418 26.8053 172.892 27.1448 173.339 27.5379C173.785 27.94 174.223 28.3867 174.607 28.8513C176.555 30.1916 176.18 28.3153 175.009 26.4479C174.849 26.5283 174.786 26.5907 172.713 25.2416C173.312 25.8759 176.591 29.0837 174.822 27.9757C173.553 26.975 173.044 26.5551 172.731 26.2156C172.419 25.876 172.302 25.6258 171.74 25.0629C172.133 25.6526 171.221 25.1344 170.238 24.6072C169.274 24.0532 168.157 23.5708 168.264 24.0265C169.086 24.4911 169.854 25.0272 170.641 25.5454C170.623 25.6616 169.729 25.1612 170.283 25.7151Z" fill="#20729E"/>
<path d="M178.539 29.5661L179.307 30.2362C178.521 29.3784 177.984 28.7351 177.011 27.5289C175.617 26.546 175.268 26.4209 175.099 26.4299C176.341 27.5467 177.618 28.6189 178.824 29.7715L178.539 29.5661Z" fill="#20729E"/>
<path d="M182.577 33.3992C181.773 33.0686 179.87 31.5496 180.665 32.863C182.791 34.918 182.344 34.1138 183.702 35.2665C180.325 31.8622 184.81 36.1155 182.568 33.4529C183.265 34.0872 183.873 34.6946 184.436 35.2665C183.873 34.6053 183.336 33.962 182.845 33.3366C182.872 33.3723 182.881 33.3992 182.907 33.435L182.925 33.4529H182.916C183.023 33.6405 183.05 33.7029 182.907 33.5152C182.89 33.5063 182.854 33.4618 182.836 33.4439C182.773 33.4707 182.675 33.4349 182.577 33.3992C181.674 32.3359 182.496 33.1669 182.836 33.4529C182.863 33.4529 182.898 33.4618 182.916 33.4529L182.907 33.435C181.755 32.3092 180.495 31.2905 179.298 30.2272C179.995 30.9867 180.96 31.8177 182.577 33.3992Z" fill="#20729E"/>
<path d="M195.854 53.3955C195.8 53.2526 195.827 53.2437 195.845 53.2169C195.639 52.9935 195.55 52.9131 195.854 53.3955Z" fill="#20729E"/>
<path d="M194.996 51.6355C195.228 51.8946 195.514 52.0555 196.086 53.0204C196.515 53.905 195.925 53.1098 195.845 53.2259C196.3 53.7352 197.328 55.0933 196.372 53.1902L196.148 52.931C195.228 51.2512 194.299 48.9014 194.522 49.1605C194.531 49.8217 194.594 50.3756 194.996 51.6355Z" fill="#20729E"/>
<path d="M189.126 42.1911C188.277 41.1725 187.339 40.2256 186.428 39.2606L187.5 41.0029L187.589 40.7974C188.965 42.5844 188.813 42.0749 189.126 42.1911Z" fill="#20729E"/>
<path d="M174.67 25.8045L175.331 25.8402C174.634 25.465 173.875 25.1611 173.16 24.8215L174.67 25.8045Z" fill="#20729E"/>
<path d="M170.533 22.6057L170.9 22.4449C170.489 22.2216 170.069 22.0161 169.649 21.8106L170.533 22.6057Z" fill="#20729E"/>
<path d="M17.6636 161.125L18.3158 162.054C18.0209 161.616 17.8244 161.33 17.6636 161.125Z" fill="#20729E"/>
<path d="M13.777 153.905L13.5269 153.807C13.786 154.102 13.92 154.209 13.777 153.905Z" fill="#20729E"/>
<path d="M49.8102 17.3788C48.193 18.0222 46.2721 18.6475 46.6741 18.862L47.3353 18.8977C48.3092 18.1919 49.1043 17.7273 49.8102 17.3788Z" fill="#20729E"/>
<path d="M3.30615 87.9918C3.36869 87.8399 3.44015 87.688 3.51163 87.5271C3.47589 87.0983 3.44016 86.6963 3.40442 86.3389C3.36868 86.8393 3.30615 87.4021 3.30615 87.9918Z" fill="#20729E"/>
<path d="M4.67289 89.4572L4.03857 91.5657C4.20833 91.1011 4.41379 90.4222 4.67289 89.4572Z" fill="#20729E"/>
<path d="M48.2822 193.264C48.7111 193.407 49.1399 193.558 49.5866 193.675C47.8891 192.531 48.5324 193.192 48.2822 193.264Z" fill="#20729E"/>
<path d="M121.545 2.51989C120.098 2.18036 118.927 1.9659 117.9 1.82294C119.66 2.26075 121.036 2.77901 121.545 2.51989Z" fill="#20729E"/>
<path d="M12.4551 160.321C12.875 160.91 13.0983 161.143 13.1608 161.08C12.732 160.463 12.4551 160.133 12.4551 160.321Z" fill="#20729E"/>
<path d="M113.621 1.45665C113.88 1.51026 114.13 1.55487 114.398 1.60848C115.488 1.64422 116.587 1.62633 117.9 1.81396C116.605 1.48337 115.095 1.31369 113.621 1.45665Z" fill="#20729E"/>
<path d="M191.601 166.209C191.681 166.119 191.771 166.012 191.842 165.923C191.807 165.869 191.717 166.003 191.601 166.209Z" fill="#20729E"/>
<path d="M212.123 122.892C212.088 123.374 211.989 124.161 211.9 124.893C211.971 124.545 212.043 123.937 212.123 122.892Z" fill="#20729E"/>
<path d="M152.638 11.5888C152.825 11.6156 153.647 12.0445 152.638 11.5888V11.5888Z" fill="#20729E"/>
<path d="M156.72 15.3862C156.488 15.3147 156.309 15.2881 156.238 15.3506C156.363 15.3059 156.533 15.3236 156.72 15.3862Z" fill="#20729E"/>
<path d="M102.666 3.6904C102.631 3.6904 102.613 3.6904 102.577 3.6904C102.899 3.75294 102.845 3.74401 102.666 3.6904Z" fill="#20729E"/>
<path d="M154.058 12.4912C153.709 12.2589 153.298 12 152.843 11.7408C153.03 11.8749 153.397 12.107 154.058 12.4912Z" fill="#20729E"/>
<path d="M153.933 12.2234C154.264 12.411 154.532 12.5627 154.782 12.6967C154.934 12.7057 154.844 12.6165 153.933 12.2234Z" fill="#20729E"/>
<path d="M151.217 10.9723C151.798 11.2314 152.334 11.4907 152.834 11.7498C152.646 11.6336 152.575 11.5798 152.629 11.5888C152.343 11.4548 151.923 11.2761 151.217 10.9723Z" fill="#20729E"/>
<path d="M119.928 211.679C120 211.679 120.08 211.688 120.161 211.688C121.215 211.393 120.741 211.473 119.928 211.679Z" fill="#20729E"/>
<path d="M30.5652 38.3937C30.592 38.349 30.6099 38.3313 30.6367 38.2955C30.6009 38.3313 30.5473 38.3669 30.5205 38.4026L30.5652 38.3937Z" fill="#20729E"/>
<path d="M28.2334 41.4407C28.9392 39.9039 29.5647 39.2068 30.5117 38.3937C29.9489 38.4473 29.3681 38.4922 28.8142 38.5636L28.2334 41.4407Z" fill="#20729E"/>
<path d="M29.3233 176.904L27.8312 174.652C30.3686 176.725 31.7534 178.575 30.4758 176.377C30.1899 176.511 29.6181 176.091 28.9033 175.394C28.1885 174.697 27.3041 173.75 26.5179 172.722C25.7048 171.712 24.8917 170.703 24.2127 169.979C23.5605 169.22 23.0334 168.746 22.7296 168.853L21.9166 167.263C22.2025 167.683 22.3097 167.71 22.5866 168.121C21.0678 165.011 20.3977 166.53 18.1283 162.697C17.3957 161.33 17.0383 160.285 17.6816 161.133L15.7071 158.292C15.2425 157.408 15.5373 157.524 16.0109 158.399C15.1263 156.889 14.3401 155.326 13.5002 153.78L13.5539 153.798C13.0357 153.217 12.0975 151.779 11.624 151.073C11.2309 149.777 12.0172 151.636 12.0172 151.26C11.5347 150.411 11.0165 149.572 10.5608 148.705C10.4894 148.089 10.7395 148.321 11.1058 148.928C11.4989 149.527 12.0171 150.51 12.4102 151.439C12.4013 149.947 12.0886 149.447 11.5526 148.589C11.0701 147.722 10.3464 146.498 9.64055 143.648C9.989 144.488 10.4 145.31 10.7753 146.141C10.7842 145.193 10.4893 144.264 10.2034 143.165C9.91753 142.066 9.54222 140.815 9.25632 139.305C9.27419 140.047 10.2123 145.497 8.9168 142.62C8.72025 141.745 8.37184 140.628 7.62134 139.082C8.03233 138.939 7.47843 137.375 6.87982 135.383L7.46942 135.374C7.0763 134.329 6.85301 133.846 6.64751 133.489C6.43308 133.131 6.23652 132.881 5.96848 132.265C5.45921 129.807 5.77189 129.218 6.04886 128.566C5.44131 124.616 5.8344 131.425 4.89627 126.779C4.80693 125.948 4.69078 125.188 4.5657 124.446C4.46742 123.705 4.3602 122.981 4.22619 122.24C3.96709 120.756 3.58298 119.211 3.29707 117.218C3.31494 114.868 3.67225 117.602 3.77946 116.745L3.16303 114.707C3.13623 114.198 3.2881 114.359 3.36851 114.439C3.10047 112.706 2.77879 114.332 2.54649 111.571C2.23379 111.205 2.38575 109.775 2.62698 108.024C2.91289 106.273 3.10947 104.209 2.87718 102.484C3.10054 101.653 3.19871 102.913 3.43994 102.663C3.38634 100.313 3.35954 99.3125 3.33274 98.41C3.30593 97.5076 3.30594 96.7123 3.22553 94.7556C3.48463 93.6834 3.73486 92.6111 4.07437 91.5657C3.22559 93.8709 3.26127 90.7616 3.34168 87.9917C2.9843 88.8048 2.68058 89.5019 2.50189 89.9755C2.65377 88.5191 2.79672 87.0626 3.05582 85.6151C3.27025 85.1147 3.35963 85.5973 3.43111 86.3389C3.44898 86.0351 3.46678 85.749 3.47572 85.5257C4.02966 84.0514 4.17259 84.9182 4.23513 86.0708C4.00283 86.5622 3.77062 87.0446 3.53832 87.5271C3.69021 88.6529 3.89564 89.7072 4.26196 89.5464C4.24409 89.2605 4.28875 88.7156 4.36023 88.1259C4.4049 88.4207 4.45856 88.6083 4.53004 88.4921C4.61938 88.3581 4.54784 87.8935 4.57465 87.1787L5.41455 86.3568L5.21801 86.0708C5.76302 84.2749 6.29905 82.4789 6.96914 80.7277C7.07636 79.718 7.17461 78.7262 7.28183 77.7254C7.42478 76.7247 7.5767 75.7062 7.76433 74.6161C7.86261 74.0711 7.9698 73.5082 8.07701 72.9185C8.2021 72.3288 8.37187 71.7391 8.54163 71.1047C8.90794 69.8538 9.27426 68.4511 9.89074 66.95C9.65845 68.5941 10.4535 67.5666 10.9271 67.8614C10.2927 68.5405 9.92643 69.7377 9.50651 71.1137C9.30102 71.8017 9.08662 72.5432 8.86325 73.3027C8.65776 74.0711 8.4254 74.8575 8.13056 75.6348C8.73811 74.0176 8.87214 74.4643 8.81854 74.911C9.23846 72.9811 9.85496 71.1135 10.4 69.2104C10.7663 69.5052 11.1594 68.174 11.9903 66.8517C11.3381 67.2001 11.6598 66.1369 12.2316 64.6984C12.3835 64.341 12.5354 63.9568 12.7051 63.5636C12.8928 63.1794 13.0714 62.7952 13.2591 62.411C13.6254 61.6515 13.9559 60.9188 14.1703 60.3559C14.5009 60.3648 14.5099 61.0172 13.1161 63.5905C15.2068 61.044 14.0274 59.3553 16.1538 56.8714C15.8054 57.4968 15.5731 57.8095 15.5641 58.1311C15.8679 57.3359 16.5738 56.076 17.1724 55.1378C17.7799 54.1996 18.3339 53.6279 18.1731 54.0925L17.7888 54.7C18.45 53.7172 19.2719 52.4573 20.1297 51.1171C21.0231 49.8036 21.9613 48.4098 22.8368 47.1232C24.6327 44.5856 26.089 42.3967 26.0443 41.8963C26.1515 41.9231 26.3392 42.9507 26.2856 43.2813C27.4381 40.5919 28.6532 37.8488 30.0738 35.1951C30.0291 36.1869 33.1205 35.1951 30.6724 38.2955C31.0923 37.9202 31.5659 37.5003 32.1198 36.9374C32.6738 36.3745 33.2812 35.6597 34.0764 34.7662C33.451 35.2219 32.0215 35.4363 32.7452 34.65C35.3719 33.1757 34.4516 33.4974 37.5162 31.5585C36.5513 32.2108 36.8372 30.6115 38.2578 29.4232C38.1417 29.7269 39.0351 30.0931 38.5973 30.6024L39.9911 28.7262C40.4557 28.1007 40.9739 27.5199 41.4653 26.9124C40.679 27.7612 41.8405 27.6986 42.8144 27.2965C42.5642 27.368 43.3416 26.7605 44.2886 26.0368C45.2535 25.3398 46.424 24.5624 46.8796 24.1693L45.1731 25.0985C47.3174 23.6868 48.1125 22.6145 49.006 21.6495C49.4437 21.1581 49.8726 20.6578 50.4712 20.1038C51.0788 19.5677 51.8204 18.9333 52.955 18.3258C52.5173 18.8172 52.2849 20.1842 54.599 19.0048C55.3405 17.9594 57.9852 14.1979 62.0683 11.9195L62.9974 11.8211C64.0249 11.2314 65.0524 10.6239 66.1245 10.1146C64.3555 11.5978 59.513 15.6542 56.9041 17.8343C58.7089 17.1463 57.5384 17.8969 60.0758 16.5567C61.0944 16.3422 58.8787 17.6379 58.1371 18.04C60.1384 17.084 62.113 16.101 64.1679 15.288C63.9088 15.0735 65.0077 14.4124 66.1156 13.7601C67.2502 13.1525 68.4029 12.5717 68.1884 12.3841C65.9905 13.4206 63.8998 14.6713 61.7823 15.8329C61.5143 15.6274 62.2827 14.8056 63.6854 13.8048C64.3912 13.3134 65.231 12.7237 66.2138 12.2412C67.1966 11.7498 68.2778 11.2673 69.4035 10.8563C70.6186 10.6329 68.9388 12.1875 69.1086 12.3394C69.3588 12.1428 70.3595 11.5888 71.3869 11.2046C72.4144 10.8025 73.433 10.4453 73.6653 10.4453L71.8694 11.3922C73.156 11.0795 74.103 10.5434 75.1394 10.0341C76.1758 9.53373 77.3285 9.12275 78.9277 8.95299C79.9909 8.65813 82.2692 8.88151 82.3764 8.50624C80.4912 8.23819 79.5888 6.27261 80.661 5.49527C80.8575 5.4774 82.3317 5.31644 83.9221 5.13774C84.7083 5.03945 85.5392 4.99485 86.245 4.98591C86.9509 4.96804 87.5405 4.96805 87.8711 4.99486C89.7563 5.20036 85.4052 6.73709 87.0223 6.91579C87.0581 6.74602 88.0052 6.37074 88.4072 6.22778C89.5687 6.16523 88.023 6.80862 90.471 6.29933C90.7927 5.63814 95.5369 5.70963 91.57 5.63815C92.7761 5.3969 93.4283 5.34341 94.1342 5.30767C94.84 5.27193 95.5994 5.21813 97.0379 5.11091C96.5644 4.95008 97.172 4.56606 98.2262 4.18185C99.2805 3.80658 100.764 3.35982 102.014 3.27047C101.872 3.4313 102.443 3.61892 102.711 3.69933C103.98 3.68146 105.106 3.68145 106.151 3.69039C107.196 3.73506 108.161 3.8065 109.108 3.86904C110.064 3.93159 111.003 3.9941 112.003 4.05664C112.995 4.16386 114.049 4.26222 115.229 4.35157C115.658 4.52133 117.9 4.89664 116.908 5.06641C117.587 5.0396 118.231 4.91453 119.678 5.08429C122.394 5.95992 116.462 4.7536 118.508 5.65604C118.722 5.35225 122.296 5.58447 124.36 5.78997C124.092 5.47725 122.921 5.19152 121.536 5.09324C120.16 4.98602 118.588 4.95906 117.552 4.93225C117.587 4.55698 118.525 4.28904 120.089 4.14608C120.866 4.08353 121.813 4.0209 122.868 4.05664C123.922 4.11025 125.092 4.19965 126.334 4.33368C128.318 4.57492 128.702 4.85187 128.693 4.96803C128.684 5.10205 128.273 5.15564 128.621 5.17351C130.435 5.62026 131.74 5.86165 132.785 5.98674C133.812 6.16543 134.581 6.22784 135.313 6.29038C136.046 6.35293 136.734 6.41556 137.61 6.6032C138.485 6.79083 139.513 7.18384 140.951 7.80929C143.131 9.05125 140.737 8.74755 141.148 9.24791C139.593 8.81903 138.458 8.33655 137.431 7.91661C136.394 7.52347 135.483 7.13932 134.429 6.8534L136.957 7.80929C135.921 7.6842 133.83 7.21071 132.74 6.76396C133.205 7.00521 134.188 7.34483 135.483 7.75584C136.135 7.95241 136.859 8.17577 137.636 8.40808C138.405 8.67613 139.227 8.95306 140.067 9.24791C140.915 9.54277 141.791 9.82869 142.658 10.1504C143.515 10.4988 144.373 10.8472 145.213 11.1957C146.901 11.8569 148.447 12.6343 149.698 13.3134C150.69 13.5814 152.351 14.1531 151.681 13.6349L150.002 12.9469C148.644 11.9015 153.343 13.8672 151.324 12.7593C152.512 13.1167 153.718 13.5992 155.05 14.1353C155.711 14.4123 156.39 14.7161 157.096 15.0556C157.784 15.4309 158.49 15.8597 159.204 16.3333L159.49 17.1286C159.508 16.9589 157.703 15.7167 156.774 15.3861C157.462 15.6274 158.516 16.4584 159.606 17.2268C160.151 17.6199 160.714 17.9862 161.232 18.281C161.742 18.5938 162.233 18.8173 162.662 18.8798C162.045 18.3437 161.447 17.7808 160.803 17.2804C161.947 17.7629 163.198 18.3705 164.52 19.0138C165.852 19.6482 167.165 20.4523 168.362 21.4262C167.522 20.1753 167.755 21.0599 166.316 19.2819C167.487 20.9527 159.669 15.0021 161.813 17.3341C161.036 16.4495 160.223 15.9045 159.338 15.3148C158.445 14.734 157.489 14.0995 156.31 13.1613C156.31 13.3668 157.078 13.9478 154.808 12.679C154.683 12.6701 154.406 12.6074 154.228 12.5628C154.156 12.5181 154.138 12.5091 154.076 12.4733C154.121 12.5001 154.147 12.527 154.192 12.5538C154.076 12.527 154.067 12.527 154.237 12.5806C154.755 12.9291 155.157 13.2418 155.291 13.4294C154.621 13.3311 153.388 12.7771 152.128 12.2678C150.859 11.7764 149.591 11.2583 148.912 11.0707C147.554 10.3648 149.573 11.1422 148.894 10.6239C148.224 10.4274 147.554 10.2575 146.866 10.1146C146.83 9.66783 143.319 7.9971 146.776 9.11397L143.748 7.89872C142.023 7.03203 139.521 6.10289 137.922 5.76336C136.457 5.25407 134.054 5.12886 135.43 5.1914C134.599 5.00377 133.768 4.79836 132.928 4.61966L130.408 4.16397L130.382 4.05664C127.933 3.40439 125.334 3.18108 122.68 2.779C120.009 2.52882 117.275 2.1088 114.416 1.58164C113.567 1.5727 112.7 1.55499 111.691 1.51925C110.681 1.51925 109.537 1.49233 108.117 1.40298L107.563 1.04567C106.464 1.03673 104.829 1.01882 103.337 1.00095C101.845 0.983081 100.513 0.974137 100.058 1.21538C99.4592 1.02775 98.4853 0.974137 97.3149 0.992007C96.7252 1.00094 96.0909 1.03655 95.4208 1.08123C94.7507 1.14377 94.0627 1.25103 93.3569 1.34037C91.9452 1.55481 90.4889 1.74245 89.1577 2.0105C87.8265 2.27855 86.6113 2.51082 85.6464 2.64485L85.5928 3.11843C84.2795 3.30606 83.0376 3.69028 81.7063 4.02981C81.0452 4.21744 80.3661 4.4052 79.6514 4.60177C78.9455 4.82515 78.2129 5.08412 77.4356 5.35217L77.7394 5.68287C76.4349 6.23684 74.6659 6.60311 72.7361 7.18388C71.7622 7.46087 70.7437 7.74675 69.6983 8.0416C68.6619 8.38113 67.6255 8.7743 66.5891 9.18531C66.8125 8.93513 67.8846 8.55098 68.6619 8.34547C67.3396 8.62246 66.0352 9.06016 64.7487 9.57839C63.48 10.1324 62.2559 10.8026 61.0408 11.4548C59.8168 12.0803 58.6731 12.8308 57.5116 13.4652C56.3591 14.0996 55.2066 14.6447 54.0897 15.1182C53.1159 15.842 52.3386 16.235 51.5524 16.5745C51.6507 16.5209 51.731 16.4584 51.8025 16.4048C51.6952 16.4674 51.5344 16.5567 51.3736 16.6461C50.8733 16.8427 50.364 17.0661 49.8369 17.3431C50.3194 17.1554 50.7571 16.9498 51.1503 16.78C50.3461 17.2536 49.2026 18.0847 48.0947 18.9067L47.362 18.862C47.2727 18.9245 47.1923 18.9781 47.103 19.0406C45.87 19.6392 46.2989 19.8 47.0851 19.675C46.5312 20.0949 46.0755 20.5596 45.7271 20.917C45.0838 20.9528 44.378 21.5245 43.6275 22.1142C42.877 22.7039 42.0997 23.3294 41.2866 23.517C41.0275 23.9459 39.7052 25.0717 38.4454 26.2154C37.2303 27.4216 36.0688 28.6458 36.0509 29.1729C35.9526 29.1283 35.6131 29.3605 36.1671 28.8691C34.9341 29.7804 33.7816 30.7902 32.9417 31.8892L32.093 31.9427L31.1369 33.3634L30.2435 34.8286C28.6085 36.0617 27.8759 36.5443 28.9659 34.7931C27.4917 36.7677 26.902 37.5628 26.3659 38.2776C25.8299 39.0014 25.3295 39.6358 24.2485 41.4228L24.0966 41.0386C23.1853 42.218 22.1042 44.3623 21.3269 44.8805C20.6925 45.4434 19.7991 46.5692 18.7002 48.0256C18.1373 48.7493 17.5744 49.5803 16.9936 50.4917C16.404 51.3941 15.7786 52.359 15.1353 53.3598C12.6962 57.4341 10.1767 62.2055 8.22 66.0118C9.04197 65.4668 8.50591 66.3157 7.89837 67.3968C7.30869 68.4958 6.60277 69.818 6.91548 70.1218C6.5045 70.497 5.93269 71.5514 6.24539 70.1933C5.5217 72.2573 4.98562 73.8031 4.44955 75.1791C3.91348 76.5551 3.58296 77.8149 3.50255 79.3606C3.1273 79.7716 3.41318 78.36 3.14515 78.7531C3.10047 79.1105 2.9754 80.147 2.70736 80.549C2.44826 80.9422 2.68051 79.8789 2.76986 79.182C2.47502 80.2631 2.28748 81.1118 2.1892 81.782C2.11772 82.461 2.12666 82.9614 2.1892 83.3456C2.30535 84.1051 2.61802 84.3733 2.93073 84.6145C2.5108 85.6688 2.25166 86.4729 2.10871 87.2234C2.0015 87.9829 2.01042 88.6799 2.09977 89.5198C1.73345 90.2435 1.25993 91.4854 1.66199 88.7602C1.58158 89.1355 1.42076 89.9129 1.2242 90.8511C1.12592 91.3246 1.02767 91.8428 0.920461 92.37C0.848985 92.9061 0.768565 93.4599 0.688155 94.0049C0.40225 96.1851 0.205744 98.1955 0.518451 98.3027C0.339761 98.7763 0.312901 100.456 0.348639 100.867C0.187818 102.592 0.107372 103.539 0.0895032 104.468C0.0537652 105.406 0.0359354 106.335 0.0180664 108.033L0.134219 107.086C0.759635 108.435 0.286076 109.909 0.437962 112.652L0.366525 112.581C0.259311 114.153 0.312901 115.109 0.348639 115.762C0.384377 116.405 0.438015 116.744 0.491622 117.075C0.545229 117.406 0.589914 117.736 0.616718 118.371C0.625652 118.692 0.634513 119.086 0.652382 119.595C0.679185 120.104 0.706067 120.729 0.732871 121.507L1.11699 121.123C1.60839 121.355 1.64412 122.722 1.66199 124.491C1.7424 126.242 1.84963 128.396 2.34996 130.129L2.3589 128.807C2.66268 129.745 2.68059 131.139 2.62698 132.568C2.59124 133.989 2.45719 135.463 2.69842 136.428C2.74309 136.866 2.37682 135.803 2.18026 135.222C3.05584 140.404 2.90396 135.731 4.08331 139.43C4.0029 140.208 3.05577 138.769 3.7884 141.298C3.88668 141.959 4.71765 143.692 5.62897 145.685C6.12036 146.668 6.63855 147.713 7.06741 148.741C7.28184 149.25 7.48736 149.759 7.65712 150.251C7.84474 150.733 8.00558 151.189 8.12173 151.627C8.01451 150.814 7.90721 150.018 8.8096 151.582C9.96215 154.066 11.213 158.721 13.1071 160.544C13.2233 160.883 13.2411 161.026 13.1965 161.062C13.8219 161.92 14.6885 163.403 15.6535 164.69C16.6095 165.985 17.5297 167.174 18.039 167.602C17.9765 168.228 18.5036 169.157 19.2362 170.247C19.9867 171.337 20.9516 172.579 21.988 173.687C23.0065 174.813 23.9537 175.903 24.6416 176.716C25.3296 177.529 25.6959 178.128 25.4279 178.342C26.1516 179.146 26.8484 179.977 27.5989 180.755L29.8594 183.078L29.6449 183.051C31.0209 184.606 32.1376 185.481 32.9685 186.151C33.8263 186.804 34.4428 187.206 35.1039 187.554C35.7651 188.251 35.1486 187.885 35.0414 187.885C37.2393 189.967 38.4455 191.128 39.7231 192.004C40.9918 192.888 42.1711 193.693 44.4494 194.845L44.6192 195.506C45.8164 196.15 51.4809 201.055 57.0382 203.324C56.9667 203.342 56.8148 203.36 56.3681 203.199C59.4505 204.531 62.9259 206.523 66.1066 207.971C69.2605 209.463 72.0928 210.392 73.4955 210.026C74.9161 210.401 76.3813 210.615 77.8197 210.901C72.3965 209.23 78.8205 210.463 76.6583 209.57C77.7394 209.829 79.0795 210.338 79.83 210.696C80.5894 211.017 80.7324 211.25 79.4012 210.937L79.0081 210.74C77.8019 211.375 85.7804 212.688 85.5302 213.153C91.0339 214.243 96.5376 214.913 101.979 215.288C103.346 215.351 104.704 215.414 106.053 215.476C107.402 215.494 108.751 215.467 110.1 215.467C110.77 215.458 111.44 215.467 112.11 215.431C112.78 215.387 113.442 215.351 114.112 215.306C115.434 215.208 116.765 215.172 118.07 214.994C117.641 214.824 117.221 214.672 116.801 214.475C118.016 214.377 119.222 214.207 120.437 214.073C121.411 214.1 121.787 214.413 119.187 214.716C120.607 214.922 123.502 213.85 123.547 213.653C128.639 213.01 121.697 214.761 123.243 214.493L125.342 214.064L124.851 214.073C125.682 213.787 126.12 213.573 126.736 213.358C127.049 213.251 127.397 213.153 127.871 213.037C128.335 212.903 128.916 212.76 129.685 212.59C131.65 212.268 130.775 212.751 131.543 212.599C131.552 212.644 131.811 212.608 132.722 212.349C134.223 211.982 135.707 211.554 137.199 211.151L135.278 211.16C137.181 210.374 139.45 209.981 137.243 210.026C138.86 209.999 142.988 208.757 146.83 207.158C148.76 206.398 150.583 205.478 152.084 204.816C153.558 204.111 154.657 203.53 155.121 203.378C155.72 202.967 156.318 202.583 156.935 202.208C157.542 201.814 158.15 201.412 158.793 201.019C160.071 200.233 161.465 199.491 162.93 198.535C162.144 198.911 161.402 198.696 163.957 197.141C163.806 197.928 165.074 197.347 166.611 196.355C168.139 195.354 170.051 194.13 171.248 193.684C170.212 194.13 171.891 192.772 173.41 191.495C174.938 190.208 176.216 188.885 174.679 189.708C176.644 188.135 175.081 189.949 176.716 188.912C180.915 184.624 186.535 179.96 190.975 173.946C190.922 173.759 189.966 174.59 190.761 173.196C191.797 172.347 192.727 171.409 193.709 170.497C194.102 169.872 194.111 169.47 194.272 168.987C194.442 168.505 194.746 167.942 195.684 166.959C195.371 167.209 194.898 167.567 195.389 166.718C199.678 160.848 202.992 154.111 205.61 147.15C208.246 140.172 210.211 132.97 212.097 125.769C211.444 127.699 211.65 126.376 211.909 124.866C211.668 125.831 211.534 124.786 211.283 124.947C211.739 122.936 212.231 120.926 212.624 118.889C212.373 118.299 212.49 116.646 212.606 115.056C212.731 113.465 212.704 111.929 212.445 111.598L212.499 113.555C212.195 112.241 211.82 113.144 211.373 114.287C210.89 115.44 210.363 116.843 209.952 116.619C210.086 117.343 210.051 118.174 209.926 119.077C209.783 119.979 209.506 120.944 209.264 121.971C208.809 124.035 208.183 126.269 208.299 128.664C207.951 129.638 208.183 127.752 207.888 128.253C208.076 129.486 207.79 130.889 207.049 133.426L207.031 133.113C206.673 134.936 206.155 136.437 205.753 137.858C205.351 139.27 204.86 140.538 204.368 141.825C203.877 143.112 203.376 144.434 202.706 145.864C202.063 147.311 201.393 148.928 200.446 150.778L201.089 150.394C200.303 152.002 200.026 152.288 199.588 153.003C199.32 155.147 201.688 148.446 201.563 150.438C201.116 150.894 200.571 151.841 199.981 153.02C199.365 154.191 198.65 155.567 197.935 156.916C197.265 158.292 196.443 159.552 195.791 160.588C195.121 161.607 194.549 162.358 194.111 162.563C192.628 164.868 194.96 162.143 193.477 164.448L192.861 164.913L192.771 165.681C191.762 167.174 190.904 167.683 190.698 167.629C190.975 167.29 191.36 166.584 191.619 166.2C190.815 167.057 189.894 168.407 189.099 169.613C188.304 170.819 187.544 171.829 187.276 172.124C187.857 171.462 188.456 170.819 189.019 170.149C187.92 171.659 186.74 173.249 185.454 174.804C184.123 176.323 182.827 177.931 181.371 179.397C180.665 180.147 179.959 180.898 179.262 181.639C178.539 182.354 177.815 183.06 177.109 183.766C175.733 185.204 174.286 186.482 173.008 187.778L173.553 187.572C173.062 188.064 172.633 188.475 172.258 188.823C171.864 189.154 171.525 189.43 171.221 189.672C170.614 190.145 170.14 190.476 169.658 190.807C169.175 191.137 168.675 191.486 167.978 191.959C167.281 192.424 166.405 193.04 165.19 193.961L165.342 193.791C164.485 194.684 163.144 195.623 161.733 196.507C162.903 195.48 159.061 197.677 160.616 196.373C158.177 198.115 157.534 198.491 157.176 198.857C156.801 199.188 156.72 199.5 155.121 200.742L154.147 200.867C153.611 201.305 153.334 201.582 152.861 201.922C152.378 202.261 151.717 202.708 150.332 203.36C152.494 202.074 148.349 203.7 150.734 202.208C149.207 202.699 147.929 203.226 146.812 203.753C145.686 204.245 144.712 204.7 143.837 205.12C142.104 205.987 140.692 206.55 139.146 206.514C137.904 207.417 139.253 207.095 140.728 206.639C142.211 206.21 143.765 205.478 143.033 205.889C143.73 205.773 143.229 206.157 142.309 206.648C141.38 207.104 140.013 207.631 139.048 207.917C138.074 208.239 137.154 208.248 135.867 208.292C135.224 208.328 134.491 208.382 133.607 208.525C133.169 208.596 132.696 208.686 132.168 208.802C131.641 208.891 131.069 209.007 130.453 209.15C130.953 209.043 130.962 208.962 131.463 208.855C130.507 208.953 129.613 209.239 128.657 209.525C128.184 209.668 127.692 209.802 127.174 209.919C126.647 210.008 126.093 210.07 125.503 210.079C124.306 210.857 122.501 210.58 122.242 211.348L126.852 210.356C125.557 210.678 124.333 211.16 122.868 211.598C121.402 212.036 119.678 212.313 117.471 212.402C117.802 212.215 119.079 211.866 119.955 211.652C118.65 211.589 117.516 212.143 116.158 212.018C116.319 211.67 117.73 211.473 119.446 211.223C120.303 211.107 121.242 210.991 122.135 210.83C123.02 210.633 123.859 210.419 124.538 210.16C123.833 210.124 122.546 210.517 121.563 210.714C120.589 210.91 119.946 211 120.607 210.526C119.66 211.134 118.4 211.268 116.971 211.393C115.532 211.455 113.933 211.473 112.227 211.982L112.432 211.545C111.896 211.67 110.77 211.893 109.761 211.911L111.556 211.312C108.778 211.839 106.178 211.089 103.515 211.223C106.312 211.294 106.625 211.411 106.535 211.58C106.446 211.75 105.946 211.974 107.143 212.099C100.183 212.536 103.167 211.044 95.4833 210.642C96.5197 210.696 99.3698 211.205 97.7259 211.285C96.9932 211.178 96.1445 211.08 95.3761 210.901C94.6077 210.723 93.9108 210.535 93.482 210.374C88.3982 209.82 94.2057 210.901 92.0078 210.892C90.3459 210.186 89.4882 210.714 87.2278 210.49L87.2904 210.061C86.5757 209.901 86.0127 209.784 85.566 209.713C85.1193 209.623 84.7976 209.561 84.5385 209.543C84.0382 209.498 83.8416 209.561 83.663 209.633C83.3056 209.776 83.0197 209.918 80.4734 209.168L82.7963 209.087C81.894 208.927 80.9826 208.793 80.0891 208.596C80.3125 208.489 80.5359 208.391 80.7592 208.265C79.2761 208.051 78.3201 207.837 77.382 207.577C76.4438 207.318 75.5326 207.015 74.1745 206.461C74.7284 206.97 73.567 207.086 71.0921 206.255C69.5107 205.406 72.1553 206.246 68.6976 204.96C69.5822 204.995 70.5114 205.076 71.8963 205.933C72.1018 205.853 72.7629 205.942 72.9684 205.862C71.2529 205.031 68.5279 204.138 67.286 203.664C67.7506 203.87 68.3135 204.111 68.5815 204.281C67.7238 204.048 66.8571 203.825 65.9994 203.575L63.4531 202.753C62.7562 202.261 63.4174 202.413 64.0696 202.574C63.0779 202.154 62.2916 202.083 60.8531 201.386C61.3713 201.252 61.4339 200.921 63.5335 201.68C61.9342 201.135 60.3974 200.456 58.8339 199.804C58.5927 199.527 56.7344 198.24 57.3777 198.428C56.2251 197.642 54.6526 196.945 52.9908 196.159C51.3826 195.292 49.6136 194.425 48.1751 193.237C47.9785 193.183 47.6301 193.013 46.9511 192.593C46.2542 192.075 45.5841 191.548 44.9229 191.021C44.2796 190.467 43.6453 189.913 42.9841 189.35C42.3229 188.787 41.6261 188.251 40.9024 187.679C40.1876 187.09 39.4103 186.509 38.5526 185.919C38.1059 185.24 37.6324 184.606 37.2214 183.9C34.7823 181.764 38.9905 186.679 34.9163 183.123C32.0037 180.612 34.2462 181.755 33.4332 180.683C32.6648 180.111 31.5927 179.334 30.458 178.333C29.3323 177.324 28.2064 176.019 27.2415 174.536C28.0456 175.358 28.5728 176.108 29.3233 176.904ZM8.89903 142.701C9.06878 143.058 9.33681 143.576 9.56017 144.085C9.81034 144.586 10.0069 145.077 9.99795 145.381C9.20278 144.729 9.176 144.005 8.89903 142.701ZM5.45021 82.336C5.43234 82.9347 5.18217 83.8013 4.78012 84.7574C4.91414 84.0247 5.10176 83.2027 5.45021 82.336ZM141.264 7.32698C141.228 7.32698 141.201 7.31804 141.174 7.31804C139.522 6.57644 140.102 6.84449 141.264 7.32698ZM144.713 8.78328C145.088 8.86369 145.079 8.80105 144.954 8.6849C144.668 8.69383 143.891 8.38111 143.006 8.01477C143.22 8.20241 143.64 8.46162 144.713 8.78328ZM131.874 212.393L131.141 212.447C132.713 211.956 132.293 212.17 131.874 212.393Z" fill="#20729E"/>
<path d="M4.51204 89.2696C4.40483 89.4751 4.31542 89.5196 4.22607 89.5554C4.24394 89.8681 4.32441 89.895 4.51204 89.2696Z" fill="#20729E"/>
<path d="M48.041 193.183L48.1393 193.255C48.2108 193.273 48.2554 193.273 48.2822 193.264L48.041 193.183Z" fill="#20729E"/>
<path d="M88.4159 6.86237C87.6744 6.93385 87.2545 6.92473 86.9596 6.89792C86.9417 7.01408 87.2991 7.04107 88.4159 6.86237Z" fill="#20729E"/>
<path d="M162.823 16.9321C162.135 16.5121 161.411 16.1637 160.696 15.7973C161.715 16.3602 162.036 16.6371 162.492 17.0213C162.492 16.9052 162.179 16.539 162.823 16.9321Z" fill="#20729E"/>
<path d="M177.627 31.5407C177.913 31.7373 178.154 32.0411 178.44 32.2377L178.512 32.0233C177.439 31.0225 176.591 30.4328 177.627 31.5407Z" fill="#20729E"/>
<path d="M163.922 19.3445C163.904 19.55 164.225 19.8269 164.726 20.1575C165.235 20.4792 165.914 20.8813 166.611 21.3459C166.53 21.2923 166.45 21.2298 166.37 21.1762C166.718 21.1137 166.504 20.8546 166.003 20.5061C165.512 20.1487 164.708 19.7555 163.922 19.3445Z" fill="#20729E"/>
<path d="M166.933 21.5514C167.361 21.8373 167.79 22.1322 168.192 22.436C168.46 22.3824 167.701 22.0428 166.933 21.5514Z" fill="#20729E"/>
<path d="M149.198 10.3558C149.885 10.7669 149.841 10.1413 150.189 10.463C150.69 10.4362 149.421 10.0162 148.536 9.80178C148.099 9.68562 147.741 9.65002 147.768 9.7215C147.786 9.77511 148.179 9.96271 149.198 10.3558Z" fill="#20729E"/>
<path d="M164.395 21.0689L164.145 20.3719L163.171 20.1754L164.395 21.0689Z" fill="#20729E"/>
<path d="M153.29 14.2693L155.586 15.5829C155.586 15.5025 155.907 15.6097 156.292 15.7705C154.844 15.0111 153.29 14.1174 153.29 14.2693Z" fill="#20729E"/>
<path d="M156.283 15.7705C157.024 16.1726 157.721 16.5835 158.168 16.7532C157.766 16.5299 156.908 16.0296 156.283 15.7705Z" fill="#20729E"/>
<path d="M161.295 19.2372L160.687 18.7457L159.097 17.7898C159.83 18.2723 160.589 18.71 161.295 19.2372Z" fill="#20729E"/>
<path d="M126.513 5.07537L123.654 4.69101C123.341 4.78929 124.101 5.02161 125.164 5.1467C125.852 5.17351 126.915 5.29874 126.513 5.07537Z" fill="#20729E"/>
<path d="M134.661 8.28289C133.947 7.9791 133.92 7.87188 133.545 7.61276L133.321 8.12212L134.661 8.28289Z" fill="#20729E"/>
<path d="M126.557 6.46004C126.245 6.55832 122.421 6.1742 125.968 6.76391C126.28 6.65669 129.095 7.08549 126.557 6.46004Z" fill="#20729E"/>
<path d="M83.8062 6.21015L84.5209 6.04022L84.2261 5.17355L83.8062 6.21015Z" fill="#20729E"/>
<path d="M50.1052 22.6951C53.0267 21.0868 50.4625 21.7837 53.1607 20.4077C53.7057 19.8001 50.9539 21.5246 51.5347 20.9439C49.9532 22.2305 48.9973 22.6951 50.1052 22.6951Z" fill="#20729E"/>
<path d="M51.5347 20.9528C51.7848 20.7473 52.0529 20.524 52.3299 20.2738C51.8653 20.6401 51.6598 20.8278 51.5347 20.9528Z" fill="#20729E"/>
<path d="M213.392 114.806C213.526 114.064 213.58 113.322 213.669 112.581L213.33 114.01C213.365 114.279 213.374 114.546 213.392 114.806Z" fill="#20729E"/>
<path d="M212.865 110.508L213.454 109.99L212.963 108.65C212.981 109.159 212.999 110.133 212.865 110.508Z" fill="#20729E"/>
<path d="M8.22909 136.687L8.05034 136.571C7.99673 136.929 8.1218 137.411 8.37197 138.376L8.22909 136.687Z" fill="#20729E"/>
<path d="M19.558 163.126L19.2988 162.706L19.3614 163.769L19.558 163.126Z" fill="#20729E"/>
<path d="M35.2561 181.487C34.5413 180.808 33.6657 180.049 32.9956 179.316C34.5234 180.826 34.997 182.131 35.2561 181.487Z" fill="#20729E"/>
<path d="M106.285 197.088C151.677 197.088 188.474 160.289 188.474 114.895C188.474 69.5012 151.677 32.7022 106.285 32.7022C60.8937 32.7022 24.0967 69.5012 24.0967 114.895C24.0967 160.289 60.8937 197.088 106.285 197.088Z" fill="#005E90"/>
<path d="M179.432 152.413C165.798 178.941 138.163 197.088 106.285 197.088C74.3532 197.088 46.6919 178.878 33.0757 152.288C37.9986 148.16 45.1909 144.443 50.5962 142.013C56.9129 139.163 65.7938 135.892 75.6039 134.355C85.4051 132.828 96.1712 132.202 106.303 132.202C126.575 132.202 148.679 135.946 162.01 142.004C167.898 144.702 174.777 148.348 179.432 152.413Z" fill="#1C75BC"/>
<path d="M131.516 89.8682C131.516 83.6584 134.241 76.1084 137.592 76.1084C140.951 76.1084 144.391 77.3055 144.391 83.5064C144.391 86.4907 143.327 93.192 142.3 96.1227C141.192 99.2857 139.334 101.1 137.592 101.1C134.241 101.108 131.516 96.078 131.516 89.8682Z" fill="#ECA182"/>
<path d="M106.294 37.9559C81.4382 37.9559 74.6479 59.382 74.6479 85.8117C74.6479 103.342 80.1248 115.833 90.3548 123.035C97.5471 128.101 100.513 129.557 106.294 129.557C112.084 129.557 115.041 128.11 122.233 123.035C132.454 115.833 137.94 103.342 137.94 85.8117C137.94 59.382 131.15 37.9559 106.294 37.9559Z" fill="#FBCBAB"/>
<path d="M126.96 134.284V114.305H85.6554V134.284C79.3834 135.347 75.0234 137.492 75.0234 141.995C75.0234 150.778 86.9241 159.909 106.312 159.909C126.397 159.909 137.601 150.778 137.601 141.995C137.601 137.492 133.232 135.347 126.96 134.284Z" fill="#FBCBAB"/>
<path d="M81.1076 89.8682C81.1076 83.6584 78.3825 76.1084 75.0321 76.1084C71.6727 76.1084 68.2329 77.3055 68.2329 83.5064C68.2329 86.4907 69.2962 93.192 70.3237 96.1227C71.4315 99.2857 73.2898 101.1 75.0321 101.1C78.3825 101.108 81.1076 96.078 81.1076 89.8682Z" fill="#FBCBAB"/>
<path d="M129.327 133.712C126.674 138.912 123.028 142.879 116.783 144.64C113.281 145.631 109.493 144.783 105.91 145.051C102.282 145.328 97.7973 145.417 94.3843 143.701C91.3108 142.165 88.9342 140.27 86.781 137.581C85.6106 136.133 84.7797 134.731 84.0024 133.292C83.9398 133.301 83.8863 133.301 83.8237 133.31V133.319C84.0382 133.783 84.2615 134.23 84.4938 134.668C86.2807 138.01 87.2188 140.726 89.4524 143.675C91.4895 146.364 93.7321 148.258 96.6358 149.795C99.8701 151.511 103.471 151.841 107.384 151.922C110.788 151.993 114.514 151.725 117.819 150.733C124.565 148.732 128.755 141.092 131.561 134.025C130.819 133.909 130.069 133.81 129.327 133.712Z" fill="#DB9172"/>
<path d="M106.294 37.9559C105.865 37.9559 105.454 37.9738 105.034 37.9917C127.031 38.7154 133.089 59.8377 133.089 85.8206C133.089 103.351 128.032 115.842 118.588 123.044C112.45 127.734 109.644 129.316 105.034 129.53C105.445 129.548 105.856 129.557 106.294 129.557C112.084 129.557 115.041 128.11 122.233 123.035C132.454 115.833 137.94 103.342 137.94 85.8117C137.94 59.382 131.15 37.9559 106.294 37.9559Z" fill="#ECA182"/>
<path d="M140.924 39.2696C137.931 35.6866 131.418 34.6142 129.131 33.4884C127.576 32.72 126.459 31.7104 125.378 30.4059C123.243 27.8326 121.117 27.1536 116.596 26.1976C111.941 25.2147 107.214 20.2201 96.1357 20.2291C86.2988 20.238 85.3876 28.0562 80.4825 29.6555C63.0155 35.365 67.6078 41.7981 67.3666 52.1358C67.2236 58.1491 70.1184 63.7958 71.1638 69.6572C71.9411 73.9817 70.8689 77.5647 72.6915 82.7202C74.2461 87.1252 75.8812 102.833 75.9526 105.084C76.1939 113.054 75.6221 122.338 79.5891 129.343C81.5189 132.756 83.9848 135.517 86.3971 138.528C88.595 141.28 91.0162 143.201 94.1522 144.774C97.6367 146.525 102.202 146.436 105.91 146.159C109.573 145.882 113.433 146.748 117.007 145.739C125.477 143.353 130.507 136.956 133.491 128.986C135.296 124.161 136.698 119.952 136.895 110.588C137.252 93.5494 140.79 82.6666 140.406 73.3385C139.959 62.8042 148.831 48.7406 140.924 39.2696ZM129.613 105.504C126.978 107.685 124.253 107.265 121.358 109.159C117.802 111.5 113.692 114.716 109.448 115.11C105.946 115.431 102.497 115.083 99.3164 113.385C96.0553 111.643 93.4107 109.561 90.373 107.497C87.8266 105.764 84.771 105.996 82.2247 104.459C79.0797 102.565 77.4537 98.4279 77.0784 94.9879C76.9712 93.9783 76.8372 87.018 76.8819 86.2942C77.2125 80.8796 77.5698 75.1343 77.8378 69.6751C78.088 64.5911 78.4364 57.202 82.6535 53.7621C86.5311 50.5991 92.0973 52.806 96.502 53.5029C103.158 54.5572 108.206 53.1365 114.55 51.6891C119.33 50.599 125.11 50.6259 129.211 53.9854C134.188 58.0598 133.303 64.8771 133.643 70.6401C133.964 76.1083 135.09 79.4411 135.456 86.0887C135.733 91.1906 135.912 94.577 135.135 97.0788C134.125 100.358 132.356 103.226 129.613 105.504Z" fill="#231F20"/>
<path d="M131.481 108.212C130.417 107.229 126.111 107.041 123.261 105.317C120.947 103.923 119.589 102.073 117.257 100.823C112.843 98.4548 110.574 100.179 106.294 100.179C102.015 100.179 99.7453 98.4548 95.3317 100.823C92.9998 102.073 91.6327 103.923 89.3276 105.317C86.4686 107.041 82.1711 107.22 81.1079 108.212C77.3376 111.705 88.9078 110.374 90.5249 110.124C96.0643 109.257 100.898 107.202 106.294 107.202C111.691 107.202 116.533 109.257 122.064 110.124C123.681 110.374 135.251 111.714 131.481 108.212Z" fill="#2D292A"/>
<path d="M125.378 30.4059C123.243 27.8237 121.126 27.1536 116.596 26.1976C111.941 25.2058 107.214 20.2201 96.1357 20.2201C86.2988 20.2291 85.3875 28.0383 80.4825 29.6466C63.0244 35.356 67.6078 41.7891 67.3666 52.1269C67.2236 58.1401 70.1184 63.7782 71.1637 69.6485C71.9321 73.9819 70.8689 77.5647 72.6915 82.7113C74.2461 87.1162 75.8812 102.824 75.9526 105.076C76.1849 113.037 75.6221 122.329 79.589 129.334C81.5189 132.747 83.9848 135.508 86.3882 138.519C86.4507 138.591 86.5132 138.671 86.5579 138.734C86.5668 138.742 86.5668 138.742 86.5758 138.742C88.6307 141.066 89.408 137.688 86.4775 130.379C84.5208 125.492 82.7965 122.32 81.233 119.8C73.174 106.782 77.6681 91.7089 74.6303 80.1292C70.6902 65.0737 78.2041 56.8266 76.864 46.4263C74.6303 29.1728 99.3879 39.332 102.694 30.7277C105.017 24.6787 123.976 37.3305 126.093 31.5317C126.12 31.4602 126.147 31.3798 126.182 31.3173C125.923 31.0314 125.646 30.7276 125.378 30.4059Z" fill="#2D292A"/>
<path d="M135.474 86.0888C135.483 86.1781 135.483 86.2765 135.492 86.3658C135.492 86.3122 135.483 86.2495 135.474 86.187C134.733 81.2638 133.598 79.2536 133.107 73.4191C132.714 68.5942 132.044 62.7417 128.157 59.4536C124.36 56.2281 120.849 56.4337 116.069 57.354C109.725 58.5692 106.303 58.8104 101.353 57.7918C97.0024 56.8983 90.4176 54.6199 85.8788 56.2371C81.0721 57.9526 79.0797 66.3336 78.633 73.1331C78.3292 77.7078 77.2124 81.8269 76.8818 86.3658V86.2943C77.2124 80.8708 77.5697 75.1344 77.8378 69.6662C78.079 64.5733 78.4364 57.1931 82.6535 53.7532C86.5311 50.5902 92.0973 52.7971 96.502 53.494C103.149 54.5394 108.206 53.1187 114.559 51.6802C119.339 50.5812 125.119 50.617 129.22 53.9766C134.197 58.0509 133.312 64.8592 133.652 70.6223C133.982 76.1084 135.108 79.4412 135.474 86.0888Z" fill="#DB9172"/>
<path opacity="0.5" d="M135.51 86.7499C135.501 86.7052 135.501 86.6517 135.492 86.5981C135.501 86.6428 135.501 86.6963 135.51 86.7499Z" fill="#29235C"/>
<path d="M114.13 108.337C111.548 107.711 108.984 107.202 106.294 107.202C101.836 107.202 97.7529 108.605 93.3481 109.579C94.3935 110.32 95.421 111.035 96.4931 111.723C95.7426 109.775 101.961 108.927 106.553 108.927C111.726 108.927 118.249 110.579 116.524 112.349C117.865 111.535 119.16 110.651 120.384 109.82C118.231 109.391 116.176 108.828 114.13 108.337Z" fill="#ECA182"/>
</svg>
