<svg width="81" height="98" viewBox="0 0 81 98" fill="none" xmlns="http://www.w3.org/2000/svg">
<g opacity="0.5">
<path d="M74.7857 40.77C74.6957 40.5 74.3157 40.6601 73.7757 41.0801C73.2357 41.5001 72.5558 42.19 71.8158 42.96L71.6458 41.9299C71.9258 41.6399 72.2057 41.24 72.5157 40.78C72.6657 40.55 72.8257 40.3 72.9757 40.04C73.0557 39.91 73.1357 39.7801 73.2157 39.6401C73.2957 39.5001 73.3657 39.36 73.4457 39.22C74.0557 38.09 74.6357 36.84 75.1057 35.74C75.2157 35.29 74.9558 35.7801 74.7458 36.0901C74.5358 36.4101 74.4057 36.56 74.8157 35.46C75.0157 35.26 75.1057 35.5001 75.3557 35.0701C75.6657 34.0701 75.5557 33.77 75.6057 33.21C75.6157 32.93 75.6757 32.59 75.7857 32.05C75.8957 31.51 76.0757 30.79 76.2557 29.74C76.2957 29.63 76.3457 29.5101 76.3857 29.4001L76.5057 29.0601C76.5857 28.8301 76.6458 28.6001 76.7158 28.3601C76.7858 26.5101 76.4358 24.64 75.6758 23.01C75.2957 22.2 74.8158 21.4601 74.2357 20.8101C74.0857 20.6501 73.9358 20.5001 73.7858 20.3501L73.5457 20.1301C73.4657 20.0601 73.3857 19.9799 73.2957 19.9199C73.1257 19.7899 72.9658 19.65 72.7858 19.53C72.6958 19.47 72.6157 19.4101 72.5257 19.3501L72.2557 19.1799C70.7857 18.2999 69.0557 17.87 67.2657 17.76C65.4757 17.64 63.6257 17.8101 61.8257 18.0901C61.2257 18.3901 60.0057 18.74 58.6957 19.22C58.0357 19.46 57.3557 19.72 56.7157 20C56.0857 20.28 55.4557 20.5901 54.9357 20.8701L54.8057 20.7C54.6657 20.81 54.5057 20.91 54.3357 21.01C54.1657 21.11 53.9858 21.21 53.7858 21.3C53.3958 21.49 52.9657 21.6701 52.5157 21.8401C52.0757 22.0201 51.6157 22.2101 51.1758 22.3901C50.7358 22.5701 50.3158 22.77 49.9557 22.97C49.4857 23.15 48.9957 23.31 48.5257 23.5C48.3557 23.5 48.5057 23.3501 48.8057 23.1501C49.1057 22.9501 49.5557 22.6899 49.9757 22.4299C50.3957 22.1699 50.8057 21.93 51.0157 21.76C51.2257 21.59 51.2357 21.49 50.8657 21.53C49.3357 22.12 48.1757 22.8901 47.0857 23.6301C45.9957 24.3801 44.9757 25.11 43.6957 25.7C43.5457 25.79 43.4158 25.8699 43.2858 25.9399C43.1658 26.0199 43.0457 26.0899 42.9357 26.1599C42.7257 26.2999 42.5457 26.42 42.3857 26.53C42.0757 26.75 41.8657 26.9201 41.6857 27.0801C41.3357 27.4001 41.1057 27.67 40.4457 28.2C40.2157 28.62 41.0057 28.0501 41.0057 28.3501C40.3957 28.7901 39.8657 29.19 39.3757 29.53C39.1257 29.7 38.8958 29.86 38.6758 30.01C38.4558 30.16 38.2457 30.2999 38.0457 30.4299C37.6457 30.6899 37.2657 30.9101 36.9157 31.1301C36.5657 31.3401 36.2357 31.54 35.9057 31.73C34.5957 32.5 33.3357 33.2301 31.4157 35.1101C31.4057 35.2401 30.6958 36.1199 30.3958 36.6599C30.2458 36.9299 30.1857 37.11 30.3557 37.05C30.4357 37.02 30.5758 36.94 30.7858 36.78C30.8958 36.7 31.0157 36.6 31.1557 36.48C31.2957 36.36 31.4657 36.2201 31.6557 36.0701L32.2657 35.3401L32.5658 34.98L32.8757 34.6201L33.9857 33.9299C32.8957 34.8999 30.9557 36.74 31.3457 36.7C31.1057 36.8 30.8257 36.99 30.5257 37.25C30.2257 37.51 29.8857 37.8199 29.5658 38.1699C29.2358 38.5199 28.9057 38.91 28.5857 39.29C28.2657 39.67 27.9757 40.0599 27.7057 40.4099C27.1657 41.0999 26.7657 41.6701 26.5957 41.8101C26.4257 41.9501 26.4858 41.68 26.9258 40.71C27.8358 39.85 28.3957 39.28 28.8557 38.76C29.3157 38.24 29.6457 37.7501 30.1057 37.0701C26.0857 41.0101 22.7257 44.7401 20.1057 48.6001L19.6458 49.9299C19.3058 49.8199 17.8757 51.61 16.6857 53.51C16.4857 53.95 16.2257 54.44 16.0557 54.79C15.8857 55.14 15.8157 55.37 15.9557 55.28C15.9557 55.34 16.0157 55.2701 16.1157 55.1201C16.2257 54.9701 16.3757 54.7299 16.5557 54.4399C16.7357 54.1499 16.9357 53.81 17.1557 53.46C17.3757 53.11 17.6057 52.7599 17.8257 52.4299C18.2557 51.7699 18.6657 51.2201 18.8657 51.0701C19.0557 50.9201 19.0358 51.1501 18.6458 52.0801C17.2458 54.2401 15.8857 56.5201 14.6957 58.6401C13.5057 60.7601 12.4757 62.7099 11.6357 64.1799C11.8457 63.6099 12.0457 63.0801 12.2357 62.5601C12.4257 62.0501 12.6357 61.5601 12.8257 61.0601C12.9157 60.8101 13.0057 60.56 13.1057 60.3C13.2057 60.05 13.2957 59.79 13.3857 59.52C13.5657 58.98 13.7358 58.41 13.9258 57.78C14.1458 57.28 14.3557 56.76 14.5957 56.26C14.8357 55.76 15.0758 55.26 15.3158 54.75C15.5658 54.25 15.8357 53.75 16.0957 53.26L16.2957 52.8901L16.5057 52.52C16.6457 52.27 16.7858 52.03 16.9258 51.78C18.0558 49.82 19.2957 47.89 20.6057 46.03C23.2457 42.31 26.1357 38.8301 28.9757 35.6101C29.1757 35.5801 29.6857 35.1801 30.1257 34.8801C30.5657 34.5801 30.9057 34.3699 30.7457 34.6899C31.4257 34.2599 32.9157 32.65 33.5857 32.53C34.1857 31.96 34.7857 31.3801 35.4357 30.8301C35.7557 30.5501 36.0757 30.27 36.4057 29.99C36.7457 29.72 37.0757 29.4399 37.4157 29.1699C37.5857 29.0299 37.7558 28.9 37.9258 28.76L38.4457 28.3601C38.7957 28.1001 39.1457 27.8301 39.4957 27.5701L40.5757 26.8101L41.1157 26.4299C41.2957 26.3099 41.4757 26.1901 41.6657 26.0701C44.5757 24.1301 47.5757 22.4699 50.2357 21.1599C49.3557 21.2499 50.1157 20.7701 51.2757 20.1301C51.5657 19.9701 51.8857 19.8101 52.2057 19.6501C52.5257 19.4901 52.8558 19.3299 53.1758 19.1699C53.8058 18.8599 54.3857 18.5801 54.7457 18.3601C55.5157 18.1701 56.5257 17.81 57.5857 17.45C58.6457 17.09 59.7657 16.74 60.7257 16.51C60.9057 16.35 62.1157 16.06 61.7957 15.96C61.0757 16.14 60.5757 16.2401 60.0757 16.3401C59.5757 16.4301 59.0657 16.53 58.3257 16.72C58.5557 16.42 59.3457 16.17 60.3657 15.99C61.3857 15.81 62.6257 15.7001 63.7557 15.5801C63.3757 15.7101 62.9957 15.84 62.6157 15.99C64.4657 15.7 66.5657 15.77 68.4957 16.2C69.4557 16.41 70.3857 16.71 71.2357 17.05C72.0857 17.4 72.8657 17.7899 73.5957 18.1899L73.4757 18.0601L73.3457 17.9399L73.0757 17.7C72.8957 17.54 72.7057 17.4 72.5157 17.25C72.3157 17.11 72.1257 16.9701 71.9157 16.8401C71.7057 16.7201 71.5058 16.58 71.2858 16.47C72.3058 16.79 73.3057 17.3501 74.1957 18.0601C75.0857 18.7801 75.8358 19.6701 76.4258 20.6201C77.0157 21.5601 77.4258 22.56 77.7458 23.5C78.0658 24.44 78.2957 25.3201 78.5157 26.0901C78.4657 25.3801 78.3257 24.55 78.0957 23.74C78.0357 23.54 77.9757 23.3301 77.9057 23.1301C77.8357 22.9301 77.7557 22.73 77.6857 22.54C77.6057 22.35 77.5157 22.16 77.4357 21.97C77.3557 21.78 77.2558 21.6099 77.1758 21.4399C77.1357 21.3499 77.0957 21.2699 77.0457 21.1899C76.9957 21.1099 76.9557 21.03 76.9057 20.95C76.8157 20.79 76.7357 20.64 76.6458 20.5C76.4658 20.22 76.3257 19.97 76.1857 19.76C76.0557 19.55 75.9657 19.37 75.9157 19.25C75.8657 19.12 75.8658 19.03 75.9258 18.99C75.9658 18.98 76.0458 19.0101 76.1458 19.0801C76.2458 19.1501 76.3558 19.2601 76.4958 19.3901C76.5658 19.4601 76.6357 19.5301 76.7057 19.6201C76.7757 19.7001 76.8457 19.8001 76.9258 19.8901C76.9958 19.9901 77.0757 20.09 77.1557 20.2C77.2357 20.31 77.3057 20.43 77.3757 20.54C77.4457 20.66 77.5257 20.7801 77.5957 20.9001C77.6657 21.0301 77.7257 21.16 77.7957 21.29C77.9357 21.55 78.0458 21.8201 78.1458 22.0801C78.3558 22.6101 78.4958 23.11 78.5858 23.52C78.7658 24.39 78.8857 25.2401 78.9557 26.0601C79.0257 26.8801 79.0458 27.69 79.0258 28.48C79.0158 29.27 78.9457 30.04 78.8457 30.79C78.7557 31.54 78.6157 32.27 78.4457 32.99C78.2857 33.71 78.0757 34.4101 77.8457 35.0901C77.6157 35.7701 77.3457 36.4401 77.0457 37.0901C76.4157 38.4001 75.6857 39.62 74.7857 40.77Z" fill="#7E63A7"/>
<path d="M79.3858 32.5901C79.7358 31.1501 79.7858 30.2 79.7758 29.55C79.7758 29.38 79.7658 29.2401 79.7558 29.1001C79.7458 28.9701 79.7258 28.85 79.7058 28.74C79.6658 28.52 79.6358 28.3399 79.5758 28.1599C79.5258 27.9799 79.4758 27.8001 79.4358 27.6001C79.3858 27.3901 79.3358 27.1601 79.2858 26.8501C79.1658 26.2501 79.0758 25.39 78.7558 24.01C78.9858 24.32 79.0258 23.7799 78.8658 22.9299C78.8158 22.7199 78.7558 22.49 78.6958 22.24C78.6258 22 78.5358 21.75 78.4458 21.5C78.3558 21.25 78.2258 21 78.1158 20.76C77.9958 20.52 77.8658 20.2901 77.7358 20.0701C77.4358 19.6801 77.1258 19.2801 76.7858 18.8901C76.6258 18.6901 76.4358 18.5001 76.2558 18.3101C76.0858 18.1101 75.8858 17.94 75.7058 17.76C74.9558 17.05 74.1358 16.44 73.3858 16.04C73.3258 16 73.2658 15.9599 73.2158 15.9299C73.1658 15.8999 73.1158 15.8701 73.0758 15.8301C72.9958 15.7701 72.9258 15.7199 72.8858 15.6699C72.8058 15.5799 72.8058 15.52 72.9158 15.52C73.0158 15.52 73.2258 15.5499 73.5258 15.6799C73.6758 15.7399 73.8558 15.8299 74.0558 15.9299C74.2558 16.0499 74.4758 16.1801 74.7258 16.3501C75.2758 16.8401 75.8158 17.3699 76.3258 17.9299C76.8258 18.5099 77.3158 19.12 77.7358 19.78C78.5858 21.09 79.2358 22.5601 79.6458 24.0601L79.7258 24.3401L79.7858 24.6201C79.8258 24.8101 79.8758 24.9999 79.9058 25.1899C79.9758 25.5699 80.0458 25.9501 80.0758 26.3301C80.1258 26.7101 80.1458 27.09 80.1658 27.46C80.1758 27.65 80.1758 27.83 80.1758 28.02V28.3L80.1658 28.5801C80.1558 28.7601 80.1458 28.9501 80.1358 29.1301C80.1158 29.3101 80.0958 29.4899 80.0758 29.6699C80.0558 29.8499 80.0358 30.03 80.0058 30.2C79.9758 30.37 79.9458 30.54 79.9158 30.71C79.7958 31.36 79.6158 32.0001 79.3858 32.5901Z" fill="#7E63A7"/>
<path d="M72.5552 16.1799C72.3452 16.0699 72.0852 15.9801 71.8152 15.8601C71.6752 15.8001 71.5252 15.7499 71.3752 15.6899C71.2252 15.6299 71.0652 15.57 70.9052 15.52C70.2652 15.29 69.5652 15.11 68.9152 14.95C67.6152 14.64 66.4952 14.5 66.4352 14.28C66.1552 14.25 66.6352 14.0301 65.5752 14.1201C66.4052 14.1601 68.0652 14.2301 69.5652 14.6401C70.3152 14.8401 71.0252 15.1102 71.5552 15.4002C71.8252 15.5402 72.0452 15.6901 72.2152 15.8201C72.3852 15.9601 72.5052 16.0799 72.5552 16.1799Z" fill="#7E63A7"/>
<path d="M70.0452 16.09C70.1052 16.19 70.0451 16.2199 69.9151 16.1999C69.7851 16.1899 69.5752 16.13 69.3452 16.08C69.2252 16.05 69.1052 16.0199 68.9852 15.9899C68.8652 15.9599 68.7452 15.9298 68.6252 15.9098C68.3952 15.8498 68.1852 15.82 68.0652 15.81C67.7252 15.72 67.3752 15.66 67.0352 15.59C67.5352 15.58 68.0951 15.5998 68.6351 15.6898C68.7651 15.7098 68.9051 15.7299 69.0251 15.7599C69.1551 15.7899 69.2752 15.82 69.3952 15.86C69.6452 15.91 69.8652 16 70.0452 16.09Z" fill="#7E63A7"/>
<path d="M54.9751 17.1599C53.7651 17.5999 54.3451 17.2499 54.8751 16.9299C55.1451 16.7699 55.4051 16.6201 55.4151 16.5801C55.4251 16.5401 55.1751 16.6001 54.4551 16.8901C54.9951 16.6501 55.5551 16.4099 56.1151 16.1899C56.3751 16.2699 56.6351 16.3399 56.8951 16.4199C56.2451 16.6599 55.6051 16.8999 54.9751 17.1599Z" fill="#7E63A7"/>
<path d="M51.2153 18.3501C50.9053 18.5501 50.5853 18.75 50.1953 18.95C49.8053 19.16 49.3354 19.3601 48.7354 19.6201C48.9154 19.4601 49.1053 19.3001 49.2953 19.1401C49.4953 19.0001 49.7454 18.9101 50.0654 18.8101C50.3754 18.7001 50.7553 18.5601 51.2153 18.3501Z" fill="#7E63A7"/>
<path d="M54.7056 17.9899C53.6256 18.5699 53.6955 18.2699 52.9355 18.4999C53.3055 18.1799 55.8356 17.4699 54.7056 17.9899Z" fill="#7E63A7"/>
<path d="M45.3857 26.02C45.5657 25.79 45.8357 25.5701 46.1657 25.3301C46.4957 25.1001 46.8758 24.8601 47.2858 24.6101C47.7058 24.3801 48.1557 24.1201 48.6257 23.8701C48.8557 23.7401 49.0957 23.61 49.3257 23.48C49.5657 23.35 49.7957 23.2201 50.0257 23.0801C49.5657 23.3601 49.1758 23.5901 48.8158 23.8301C48.4658 24.0701 48.1357 24.29 47.8057 24.51C47.4657 24.73 47.1257 24.95 46.7457 25.2C46.3557 25.46 45.9057 25.71 45.3857 26.02Z" fill="#7E63A7"/>
<path d="M43.9258 72.3501C42.9158 72.7101 41.8258 73.35 41.1758 73.75C41.3658 73.72 41.5558 73.6901 41.7458 73.6501L42.8458 73.02L43.9258 72.3501Z" fill="#7E63A7"/>
<path d="M45.0654 67.4199C44.8954 67.5999 44.7254 67.78 44.5554 67.95C44.3254 68.19 44.0954 68.4299 43.8554 68.6699C43.6154 68.9099 43.3654 69.1401 43.0854 69.3801C42.9454 69.5001 42.8054 69.62 42.6554 69.74C42.5054 69.86 42.3454 69.9801 42.1654 70.1001C41.9454 70.2101 41.7054 70.34 41.4554 70.45C41.2054 70.57 40.9554 70.68 40.7254 70.78C40.2754 70.98 39.9154 71.09 39.8654 71.04C40.2954 70.82 40.5654 70.63 40.7054 70.51C40.8454 70.38 40.8554 70.31 40.7654 70.28C40.6654 70.25 40.4554 70.2801 40.1554 70.3501C39.8554 70.4201 39.4554 70.5199 38.9754 70.6799C38.1754 71.1599 37.9754 71.2801 37.6054 71.5701C38.6054 71.4501 38.8654 71.4701 38.6654 71.6201C38.5654 71.6901 38.3354 71.7999 38.0354 71.9199C37.7254 72.0499 37.3354 72.1701 36.8954 72.3201C36.6754 72.4001 36.4354 72.47 36.1954 72.54C35.9554 72.61 35.6954 72.69 35.4354 72.76C35.1754 72.83 34.9154 72.9 34.6454 72.97C34.3854 73.04 34.1154 73.1199 33.8554 73.1799C33.3354 73.2999 32.8254 73.4501 32.3654 73.5601C31.9054 73.6801 31.4954 73.8099 31.1654 73.9199C30.9154 73.9799 30.6854 74.0301 30.4554 74.0901C30.2354 74.1501 30.0154 74.17 29.8054 74.21C29.3954 74.27 29.0154 74.3401 28.6754 74.3601C28.3354 74.3901 28.0254 74.3999 27.7454 74.4099C27.4654 74.4099 27.2154 74.3901 26.9954 74.3701C26.7754 74.3501 26.5654 74.33 26.3854 74.3C26.2054 74.26 26.0354 74.2199 25.8854 74.1699C25.5854 74.0799 25.3354 73.9801 25.0854 73.8801C24.5954 73.6501 24.1254 73.4201 23.3254 73.1401C23.1254 73.0701 22.9054 72.9899 22.6554 72.9199C22.4154 72.8299 22.1354 72.7599 21.8354 72.6599C21.2254 72.4699 20.4954 72.2401 19.6154 71.9001C20.0654 72.3201 20.0054 72.4401 19.5854 72.3601C19.1754 72.2801 18.4354 71.99 17.5954 71.53C16.7554 71.08 15.8354 70.4501 15.0354 69.8101C14.2354 69.1701 13.5554 68.5101 13.0754 68.0801C12.3854 67.2501 12.0254 66.59 11.7654 65.99C11.5254 65.38 11.3754 64.8301 11.2154 64.1101C11.1454 63.9901 11.0454 63.8001 10.9454 63.5901C10.8554 63.3701 10.7454 63.1301 10.6554 62.9001C10.4654 62.4301 10.3354 61.9801 10.2254 61.8801C10.1154 62.0501 10.0254 62.2801 9.94543 62.5801C9.91543 62.7301 9.88544 62.8901 9.85544 63.0701C9.82544 63.2501 9.81545 63.4401 9.81545 63.6401C9.79545 64.4601 9.92545 65.51 10.3154 66.7C10.7054 67.89 11.3654 69.21 12.3254 70.51C13.2854 71.81 14.5354 73.11 16.0654 74.26C16.2554 74.34 16.4254 74.4101 16.4254 74.3801C18.1254 75.3101 20.2754 76.26 22.6054 76.75C24.9654 77.25 27.3754 77.24 29.4154 76.8C29.1754 76.81 28.9654 76.81 28.7754 76.8C28.5854 76.79 28.4154 76.79 28.2554 76.78C27.9354 76.77 27.6554 76.75 27.3454 76.71C27.0354 76.68 26.6854 76.6501 26.2354 76.6101C26.0054 76.5801 25.7554 76.55 25.4654 76.52C25.1754 76.48 24.8554 76.4601 24.4754 76.4001C24.7654 76.3601 25.0454 76.3301 25.3354 76.3101C25.6154 76.2901 25.9054 76.29 26.1854 76.3C26.4654 76.3 26.7554 76.3001 27.0454 76.3201C27.3354 76.3301 27.6254 76.3701 27.9254 76.3701C28.5154 76.3901 29.1354 76.4399 29.7554 76.4299C30.0654 76.4199 30.3854 76.4301 30.7054 76.4001C31.0254 76.3701 31.3454 76.33 31.6754 76.29C30.5954 76.38 30.7554 76.2601 31.3954 76.0801C31.5554 76.0401 31.7454 75.9899 31.9554 75.9299C32.1654 75.8699 32.3954 75.81 32.6254 75.75C32.8554 75.69 33.1054 75.6301 33.3454 75.5701C33.5854 75.5001 33.8154 75.4401 34.0354 75.3801C35.7154 75.0601 37.8454 74.42 40.0154 73.52C42.1154 72.64 44.2754 71.5399 46.1954 70.4199C45.8054 69.4399 45.4154 68.4399 45.0654 67.4199Z" fill="#7E63A7"/>
<path d="M65.8454 55.4499C66.1254 55.1699 66.4154 54.8901 66.6954 54.6001C66.9554 54.3301 67.2054 54.05 67.4554 53.76C67.7054 53.47 67.9454 53.1701 68.1854 52.8601C68.6754 52.2501 69.1154 51.5701 69.5454 50.8501C69.5554 50.9801 69.6754 50.92 69.8854 50.73C70.0854 50.54 70.3754 50.2401 70.6554 49.8601C70.9454 49.4901 71.2554 49.0699 71.5454 48.6799C71.6854 48.4799 71.8254 48.3001 71.9554 48.1301C72.0754 47.9601 72.1854 47.7999 72.2854 47.6699C72.4854 47.3799 72.7154 47.0399 72.9754 46.6699C73.2254 46.2999 73.5054 45.9 73.7654 45.47C74.0354 45.05 74.3054 44.6099 74.5654 44.1799C74.6954 43.9599 74.8254 43.75 74.9454 43.54C75.0654 43.33 75.1754 43.1199 75.2854 42.9099C75.7154 42.0999 76.0654 41.3999 76.2154 40.9499C76.3654 40.4999 76.3254 40.32 76.0054 40.56C75.6854 40.93 75.3454 41.43 75.0054 42.01C74.6654 42.59 74.3254 43.2699 73.9254 43.9399C73.7254 44.2799 73.5254 44.63 73.3254 44.98C73.2254 45.15 73.1154 45.33 73.0154 45.5C72.9054 45.67 72.7954 45.84 72.6854 46C72.2354 46.66 71.7654 47.3001 71.2554 47.8301C70.3754 48.7401 70.1154 48.9199 70.2054 48.6699C70.2554 48.5499 70.3954 48.32 70.5854 48.02C70.7754 47.72 71.0354 47.3599 71.2954 46.9399C72.3654 45.3199 73.6754 43.0999 73.4554 42.9199C73.3054 43.2499 73.0754 43.44 72.7454 43.78C72.5854 43.95 72.3954 44.1599 72.1854 44.4599C72.0754 44.6099 71.9754 44.7699 71.8554 44.9599C71.8054 45.0399 71.7554 45.1199 71.7054 45.1999C71.7554 45.1099 71.8054 45.0199 71.8554 44.9499C71.9554 44.7699 72.0254 44.61 72.0854 44.49C72.1954 44.24 72.2354 44.11 72.2254 44.05C72.1954 43.94 71.9654 44.1599 71.6854 44.4399C71.1254 44.9899 70.3754 45.7399 70.8954 44.6599C70.0754 45.6999 69.4954 46.47 68.9954 47.02C68.5154 47.58 68.1654 47.96 67.8454 48.27C67.1954 48.87 66.7154 49.19 65.6054 49.99C65.0654 50.69 64.7454 51.16 64.5654 51.51C65.0654 52.8 65.4954 54.1199 65.8454 55.4499Z" fill="#7E63A7"/>
<path d="M54.3547 93.4199C54.7847 93.8699 55.3747 94.48 55.8247 94.94C56.2847 95.42 56.6347 95.77 56.3947 95.77L56.5247 96.0701C56.2847 95.9001 55.8747 95.58 55.4547 95.2C55.0447 94.82 54.6247 94.38 54.3247 94C54.0247 93.62 53.8147 93.2999 53.7947 93.1599C53.7647 93.0299 53.9147 93.0799 54.3547 93.4199Z" fill="#7E63A7"/>
<path d="M57.4448 91.0701C57.3848 90.9701 57.3348 90.88 57.2748 90.78C57.4348 91.08 57.7448 91.4499 57.9648 91.6599C57.8948 91.7799 57.3448 91.4699 56.9648 90.9099C57.1448 90.9499 57.5748 91.4101 57.4448 91.0701Z" fill="#7E63A7"/>
<path d="M69.0746 86.3201C68.7046 85.9701 67.9246 87.13 67.1246 88.48C66.9546 88.23 66.7746 87.99 66.5946 87.75C66.8946 87.25 67.1146 86.44 67.2446 85.5C67.3146 85.02 67.3746 84.52 67.4346 84.03C67.4646 83.78 67.4946 83.5401 67.5246 83.3C67.5546 83.06 67.5746 82.8201 67.6046 82.6001C67.5446 81.8901 67.1646 84.25 67.2346 82.45C67.3646 82.26 67.5146 82.4301 67.6246 82.0601C67.6246 81.2501 67.4846 81.0401 67.3746 80.6001C67.3246 80.3801 67.2946 80.0999 67.3046 79.6599C67.3146 79.2199 67.3846 78.62 67.4746 77.75L67.9046 76.6101C68.1146 73.6001 68.0446 70.51 67.8846 67.48C67.7246 64.45 67.4846 61.4601 67.3546 58.6001C66.8946 57.6201 66.6746 54.69 66.1446 52.98L66.3446 52.9099C66.2146 52.6699 66.1346 52.3801 66.0746 52.0601C66.0046 51.7401 65.9646 51.39 65.9246 51.04C65.8546 50.32 65.8246 49.57 65.6646 48.95L65.6246 47.8C65.7446 47.55 65.9546 48.34 66.1646 49.05C66.2146 49.23 66.2746 49.4 66.3246 49.55C66.3746 49.7 66.4246 49.8299 66.4646 49.9199C66.5546 50.0999 66.6446 50.1301 66.7246 49.8501C66.7046 49.5401 66.6646 49.25 66.6146 48.97C66.5646 48.69 66.5046 48.4199 66.4346 48.1599C66.3646 47.8999 66.2946 47.6499 66.2146 47.4099C66.1746 47.2899 66.1346 47.17 66.0946 47.05C66.0546 46.94 66.0146 46.82 65.9746 46.71C65.6446 45.81 65.2946 44.99 65.1146 44.01C64.8046 43.1 64.5646 42.76 64.3546 42.5C64.1446 42.25 63.9546 42.0899 63.6046 41.6699C63.4346 41.6199 63.4446 41.7201 63.4646 41.8401C63.4746 41.9601 63.4946 42.1001 63.3646 42.1201C62.8246 41.3601 62.3946 40.9 62.0446 40.53C61.6846 40.18 61.3846 39.8999 61.0346 39.6799C60.8646 39.5599 60.6746 39.4701 60.4646 39.3901C60.2546 39.3201 60.0246 39.25 59.7646 39.23C59.2446 39.18 58.5946 39.2699 57.8146 39.6899C57.7846 39.7799 57.2146 40.2801 56.9846 40.6401C56.8646 40.8201 56.8246 40.95 56.9546 40.96C57.0846 40.97 57.3846 40.8301 57.9446 40.6001C58.2446 40.3601 58.5446 40.13 58.8546 39.96C58.9146 39.96 58.9846 39.96 59.0446 39.96L59.2246 39.98L59.4046 40L59.5746 40.04C59.5346 40.05 59.4846 40.0501 59.4346 40.0601C59.3846 40.0701 59.3346 40.0901 59.2846 40.1001C59.1846 40.1301 59.0646 40.15 58.9546 40.2L58.7846 40.26C58.7246 40.28 58.6646 40.3101 58.6146 40.3301C58.5046 40.3801 58.3946 40.43 58.2846 40.49C57.8746 40.72 57.5846 40.97 57.7346 41.02C57.3846 41 56.8846 41.28 56.3846 41.7C55.8846 42.12 55.3746 42.6899 54.9446 43.1899C54.0746 44.1999 53.5646 44.8 54.2746 43.3C55.0246 42.72 55.4646 42.37 55.8246 42.03C56.1746 41.69 56.4346 41.3699 56.7746 40.9199C55.9946 41.4599 55.2346 42.09 54.4946 42.74C53.7346 43.4 52.9846 44.0499 52.2646 44.6799C50.8046 45.9399 49.4246 47.1401 48.1446 48.3501L47.6346 49.3201C47.3446 49.1201 45.9346 50.14 44.6446 51.23C44.1646 51.78 43.4746 52.4101 43.7546 52.3801C43.6646 52.7601 48.3046 48.24 46.5346 50.76C43.5846 53.36 40.3546 55.9901 38.1846 57.3601C39.4646 56.0301 40.4846 55.19 41.5746 53.52C43.8046 51.09 46.2746 48.7101 48.7246 46.3401C49.9446 45.1601 51.1646 43.97 52.3346 42.79C53.5146 41.61 54.6146 40.3901 55.8646 39.3401C56.0346 39.3701 56.4846 39.16 56.8546 39.04C57.2346 38.91 57.5346 38.8801 57.3646 39.0901C57.6546 39.0401 58.1346 38.7999 58.6246 38.6799C58.7446 38.6499 58.8646 38.6301 58.9846 38.6101C59.0446 38.6001 59.1046 38.5901 59.1546 38.5901C59.2146 38.5901 59.2646 38.5901 59.3146 38.5901C59.4146 38.5901 59.5146 38.6001 59.5946 38.6101C59.6746 38.6301 59.7446 38.66 59.7946 38.7C59.9246 38.68 60.0646 38.6599 60.2046 38.6599C60.3446 38.6599 60.4846 38.6399 60.6246 38.6599C60.9046 38.6699 61.1846 38.72 61.4646 38.78C62.0146 38.93 62.5546 39.18 63.0346 39.54C64.0046 40.26 64.7546 41.32 65.3146 42.46C65.8846 43.6 66.2746 44.81 66.5646 46C66.6346 46.3 66.7046 46.5901 66.7646 46.8901C66.8246 47.1901 66.8846 47.48 66.9346 47.77C67.0446 48.35 67.1546 48.92 67.2646 49.46C67.3546 49.13 67.4546 49.1201 67.5646 49.3201C67.6746 49.5201 67.7846 49.9201 67.9046 50.4001C68.0146 50.8801 68.1446 51.44 68.2546 51.95C68.3646 52.46 68.4746 52.93 68.5846 53.23C68.5646 53.53 68.5846 53.88 68.6046 54.25C68.6246 54.63 68.6746 55.03 68.7246 55.45C68.7746 55.86 68.8446 56.29 68.9046 56.7C68.9546 57.11 69.0046 57.5101 69.0546 57.8801C69.1746 58.0301 69.3246 58.94 69.4646 58.7C69.3646 58.16 69.3346 57.7801 69.3246 57.4001C69.3146 57.0201 69.3246 56.6301 69.2746 56.0701C69.5346 56.2701 69.6046 56.8801 69.6146 57.6401C69.6246 58.0201 69.6246 58.4401 69.6346 58.8701C69.6346 59.3001 69.6346 59.7399 69.6746 60.1599L69.3546 59.3101C69.4146 60.0101 69.4246 60.74 69.4246 61.48C69.3946 62.22 69.3746 62.98 69.3446 63.73C69.3146 64.48 69.2846 65.2099 69.3046 65.9199C69.3146 66.2699 69.3246 66.62 69.3546 66.95C69.3846 67.28 69.4246 67.6099 69.4846 67.9199L69.6846 66.8501L69.7846 66.3101L69.8746 65.77C70.0246 67.33 69.9446 69.07 69.8646 70.71C69.7846 72.35 69.7146 73.8801 69.9146 75.05C69.9446 74.7901 69.9746 74.51 69.9946 74.22C70.0046 74.07 70.0146 73.92 70.0246 73.77C70.0346 73.62 70.0346 73.4601 70.0446 73.3101C70.0646 72.6901 70.0746 72.07 70.0946 71.51C70.1246 70.39 70.1846 69.5401 70.4746 69.5701C70.6346 69.6301 70.7046 70.27 70.7146 71.04C70.7246 71.81 70.6546 72.71 70.5746 73.28C70.1746 75.76 70.2046 77.9701 70.1146 80.1001C70.0846 81.1701 70.0046 82.21 69.8646 83.24C69.8046 83.76 69.6846 84.27 69.5646 84.79C69.4146 85.29 69.2746 85.8001 69.0746 86.3201Z" fill="#7E63A7"/>
<path d="M70.9643 79.7099C71.0643 78.6799 71.0443 78.03 71.0043 77.57C70.9643 77.11 70.8743 76.85 70.7943 76.6C70.7143 76.35 70.6343 76.0998 70.5943 75.6598C70.5543 75.2298 70.5543 74.61 70.6143 73.63C70.7643 73.88 70.9143 73.5298 71.0443 72.9498C71.1043 72.6598 71.1643 72.3098 71.2043 71.9498C71.2443 71.5898 71.2843 71.22 71.2843 70.89C71.1943 70.25 71.1843 69.55 71.2043 68.86C71.2043 68.18 71.2243 67.5098 71.2043 66.9498C71.2543 66.1798 71.6343 66.2699 71.6743 67.7899C71.3943 69.6599 71.4543 71.76 71.4743 73.84C71.4743 75.91 71.4343 77.9799 70.9643 79.7099Z" fill="#7E63A7"/>
<path d="M70.6745 66.51C70.6345 65.86 70.6245 64.7701 70.6745 63.8401C70.7045 62.9001 70.8045 62.11 71.0145 62.05C71.0345 61.85 71.2645 62.1699 71.1445 61.4399C71.1345 61.7299 71.1345 62.1601 71.1345 62.6501C71.1345 63.1401 71.1445 63.69 71.1145 64.22C71.0545 65.28 70.9445 66.25 70.6745 66.51Z" fill="#7E63A7"/>
<path d="M69.8342 64.8301C69.5342 65.1001 69.7242 63.7301 69.6842 63.3701L69.7642 62.5901C69.8242 62.9501 69.8842 63.36 69.9042 63.76C69.9242 64.15 69.9042 64.5301 69.8342 64.8301Z" fill="#7E63A7"/>
<path d="M69.6745 53.58C69.5845 52.63 69.7645 53.1 69.9245 53.54C70.0045 53.76 70.0844 53.9599 70.1144 53.9699C70.1544 53.9799 70.1544 53.7999 70.0744 53.2299L70.1944 53.87L70.3044 54.5199L69.8945 55.06C69.8245 54.57 69.7645 54.07 69.6745 53.58Z" fill="#7E63A7"/>
<path d="M69.6243 50.6301C69.4143 50.1101 69.2943 49.5701 69.1943 48.6101C69.2843 48.7701 69.3843 48.9301 69.4743 49.0901C69.6043 49.4401 69.4843 49.8901 69.6243 50.6301Z" fill="#7E63A7"/>
<path d="M68.9549 53.26C68.7049 52.38 68.9649 52.4701 68.9749 51.8801C69.1649 52.2001 69.1449 54.17 68.9549 53.26Z" fill="#7E63A7"/>
<path d="M64.335 45.26C64.635 45.55 64.845 46.1 65.015 46.75C65.055 46.91 65.095 47.09 65.135 47.26C65.175 47.45 65.215 47.6401 65.255 47.8301C65.335 48.2201 65.425 48.62 65.535 49.01C65.425 48.62 65.315 48.29 65.225 47.99C65.175 47.84 65.125 47.69 65.075 47.55C65.055 47.48 65.025 47.4101 65.005 47.3401L64.935 47.1401C64.745 46.6001 64.565 46.05 64.335 45.26Z" fill="#7E63A7"/>
<path d="M47.0749 81.52C46.9649 81.14 46.7849 80.7501 46.5949 80.4001C46.4049 80.0501 46.2049 79.74 46.0449 79.52L46.0949 79.95C46.4249 80.48 46.7349 81.01 47.0749 81.52Z" fill="#7E63A7"/>
<path d="M52.3948 91.72C52.8448 91.97 52.7948 91.8001 52.5548 91.3701C52.4348 91.1601 52.2748 90.87 52.1148 90.55C52.0348 90.39 51.9548 90.21 51.8748 90.03C51.8348 89.94 51.7948 89.84 51.7648 89.75C51.7348 89.66 51.6948 89.56 51.6648 89.47C51.1948 88.54 50.5948 87.65 50.0348 86.74C49.7448 86.29 49.4548 85.8401 49.1848 85.3801C48.9148 84.9201 48.6648 84.46 48.4248 84C48.1548 83.66 47.8848 83.33 47.6348 82.98C48.1148 84.13 48.8348 85.7 49.6648 87.27C49.7648 87.47 49.8748 87.6701 49.9748 87.8601C50.0848 88.0601 50.1948 88.25 50.3048 88.45C50.5248 88.84 50.7448 89.2201 50.9648 89.6001C51.0748 89.7901 51.1848 89.9699 51.2948 90.1599C51.4148 90.3499 51.5348 90.54 51.6548 90.72C51.8948 91.06 52.1448 91.4 52.3948 91.72Z" fill="#7E63A7"/>
<path d="M39.6043 62.8201C39.8043 63.4501 39.9943 64.1501 40.1943 64.8801C40.4043 65.6101 40.6343 66.3801 40.8743 67.1501C41.1243 67.9201 41.4043 68.6799 41.7143 69.4099C42.0243 70.1399 42.3843 70.84 42.7643 71.46C42.5743 70.81 42.5143 70.47 42.4143 70.04C42.3143 69.61 42.1943 69.0901 41.8943 68.0901C42.4343 68.7301 42.6743 69.4901 42.8843 70.3101C42.9843 70.7201 43.0743 71.1501 43.1843 71.5801C43.2943 72.0101 43.4243 72.4501 43.5943 72.8901C43.3743 72.1501 43.5043 72.2301 43.7643 72.6401C44.0243 73.0501 44.3843 73.8001 44.6543 74.3901C44.8543 74.9801 45.1043 75.6401 45.3843 76.3601C45.6843 77.0701 46.0043 77.8301 46.3543 78.6201C46.7143 79.4001 47.0843 80.2 47.4743 81C47.8743 81.79 48.2543 82.5801 48.6443 83.3301C49.0743 83.9301 49.7443 85.33 50.3743 86.45C50.9843 87.58 51.5543 88.43 51.6343 87.99C52.6843 89.74 52.4343 90.2501 53.2343 91.6501C54.0643 92.5401 54.7943 93.41 55.5943 94.27C56.3943 95.12 57.2543 95.9701 58.4243 96.6301C59.0043 96.9501 59.6643 97.2201 60.3743 97.3701C61.0843 97.5201 61.8443 97.5499 62.5943 97.4399C63.3443 97.3299 64.1143 97.0799 64.8043 96.6699C65.4943 96.2599 66.0943 95.7101 66.5643 95.0901C66.5443 95.3501 67.1043 94.92 67.6543 94.24C67.9243 93.9 68.1843 93.5101 68.4043 93.1501C68.6243 92.7801 68.7943 92.4399 68.9243 92.1899C69.1943 91.6499 69.4943 90.9201 69.7443 90.1401C69.9943 89.3601 70.1943 88.5401 70.3143 87.8201C70.4343 87.1001 70.4843 86.4801 70.4443 86.1201C70.4043 85.7701 70.3043 85.6501 70.1043 85.8901C69.9443 86.2201 69.8343 86.6799 69.7343 87.1899C69.6343 87.6999 69.5343 88.2801 69.4043 88.8901C69.2743 89.4901 69.1143 90.13 68.8843 90.73C68.6543 91.34 68.3543 91.9201 67.9743 92.4001C67.6543 92.8201 67.4143 93.0499 67.2743 93.1599C67.1343 93.2699 67.0943 93.2501 67.1243 93.1401C67.1843 92.9301 67.5143 92.3501 67.8243 91.6401C67.9843 91.2901 68.1243 90.9 68.2543 90.52C68.3843 90.14 68.4943 89.7599 68.5643 89.4199C68.7143 88.7499 68.7543 88.2399 68.6143 88.1899C68.5943 88.4699 68.4443 88.65 68.2543 88.97C68.0643 89.28 67.8543 89.73 67.6243 90.54C67.8843 89.68 67.9043 89.32 67.8543 89.25C67.7943 89.17 67.6443 89.3701 67.4743 89.6101C67.3043 89.8501 67.0943 90.13 66.9543 90.24C66.8143 90.35 66.7443 90.2901 66.8143 89.8601C66.3943 90.7301 66.0243 91.3 65.7043 91.71C65.3843 92.12 65.1343 92.37 64.9043 92.55C64.6643 92.73 64.4543 92.85 64.1943 92.95C63.9343 93.0499 63.6243 93.1299 63.2343 93.1699C62.9043 93.4299 62.6643 93.57 62.4943 93.71C62.3243 93.84 62.2243 93.9501 62.1743 94.0601C62.1143 94.1701 62.0843 94.2601 62.0443 94.3601C62.0043 94.4601 61.9443 94.5601 61.8143 94.6401C61.5443 94.7201 61.2743 94.74 61.0143 94.74C60.7543 94.73 60.4943 94.7001 60.2443 94.6301C59.7543 94.5001 59.3043 94.27 58.9143 93.99C58.1143 93.43 57.4743 92.71 56.7243 92.02C57.1543 92.15 57.2443 92.01 57.1343 91.74C57.0243 91.47 56.7143 91.04 56.3343 90.49C55.9543 89.95 55.5043 89.2901 55.0843 88.6201C54.9843 88.4501 54.8743 88.2801 54.7743 88.1201C54.6743 87.9501 54.5743 87.7801 54.4743 87.6101C54.2843 87.2801 54.0943 86.9599 53.9343 86.6899C53.5343 85.9699 53.2743 85.5601 53.0543 85.3201C52.8443 85.0801 52.6843 84.9999 52.5243 84.9099C52.2143 84.7299 51.8643 84.54 51.1043 82.96C50.9043 82.08 51.4343 82.81 51.9443 83.47C52.1943 83.8 52.4443 84.11 52.5943 84.2C52.7443 84.29 52.7743 84.1501 52.6143 83.5901L51.7143 82.24C51.5143 82.05 51.3243 81.88 51.1243 81.71C50.9343 81.54 50.7443 81.3599 50.5443 81.1899C50.1643 80.8299 49.7743 80.4499 49.3943 79.9399C49.0743 79.2699 48.6043 78.2699 48.7143 78.1899C49.4543 79.4399 49.5843 78.8899 49.1243 77.4399C48.7043 76.8599 48.6043 76.71 48.3443 76.46C48.4943 78.02 48.1643 77.31 47.6343 76C47.1043 74.69 46.4043 72.7601 45.7643 71.8901C44.2843 69.1801 44.3043 68.31 44.3643 67.46C44.4243 66.61 44.5143 65.77 43.4243 62.98C43.2843 63.98 42.8943 63.0699 42.4243 61.6799C42.2043 60.9799 41.9643 60.1599 41.7243 59.4099C41.5043 58.6499 41.2843 57.95 41.0743 57.5C40.9743 57.1 40.9043 56.7499 40.8643 56.4399C40.8243 56.1299 40.7943 55.8601 40.7843 55.6101C40.7643 55.1001 40.7743 54.64 40.7843 54.04C40.5943 53.61 40.2743 52.37 40.0643 52.21C39.8343 52.5 39.6543 52.9601 39.5043 53.5801C39.3543 54.2001 39.2443 54.9801 39.1943 55.8801C39.1643 56.3301 39.1443 56.8101 39.1443 57.3301C39.1343 57.8401 39.1543 58.3799 39.1643 58.9399C39.1943 60.0699 39.2943 61.2901 39.4143 62.5901C39.5243 62.7201 39.5843 62.8301 39.6043 62.8201Z" fill="#7E63A7"/>
<path d="M36.4944 5.31006C36.2944 5.14006 36.0644 4.86011 35.9144 4.61011C35.7644 4.37011 35.7044 4.15012 35.8644 4.12012L35.9144 3.91992C35.9944 4.00992 36.1244 4.1701 36.2844 4.3501C36.4344 4.5301 36.5844 4.72991 36.7044 4.90991C36.9144 5.25991 36.9844 5.51006 36.4944 5.31006Z" fill="#7E63A7"/>
<path d="M33.4951 7.76005L33.5551 7.92997C33.4951 7.75997 33.3551 7.55998 33.2451 7.43998C33.3351 7.33998 33.6551 7.47006 33.8251 7.77006C33.7051 7.78006 33.4851 7.54005 33.4951 7.76005Z" fill="#7E63A7"/>
<path d="M27.6242 1.60016C27.5842 1.82016 27.7542 2.04009 27.9942 2.28009C28.2342 2.51009 28.5442 2.76004 28.8442 2.98004C28.7442 3.20004 28.6642 3.43998 28.5842 3.66998C28.3942 3.48998 28.0542 3.4601 27.7242 3.5401C27.3842 3.6101 27.0542 3.77999 26.7742 3.92999C26.6942 4.04999 26.8542 4.03011 26.9642 4.05011C27.0742 4.06011 27.1342 4.1001 26.9142 4.2901C26.8042 4.2301 26.7742 4.05012 26.6242 4.06012C26.5242 4.17012 26.4842 4.28019 26.4742 4.38019C26.4542 4.48019 26.4642 4.56999 26.4442 4.67999C26.4342 4.77999 26.3942 4.88006 26.3042 5.00006C26.2842 5.03006 26.2542 5.06015 26.2242 5.09015C26.1942 5.12015 26.1642 5.16001 26.1242 5.20001C26.0442 5.27001 25.9542 5.36002 25.8342 5.46002C25.6642 5.49002 25.4842 5.52013 25.3042 5.57013C24.9542 6.02013 24.6742 6.57021 24.4442 7.15021C24.2242 7.73021 24.0542 8.34002 23.9142 8.96002C23.7842 9.58002 23.6742 10.2001 23.5742 10.8201C23.5242 11.1301 23.4742 11.43 23.4242 11.73C23.3742 12.05 23.3242 12.37 23.2542 12.69C23.3342 12.81 23.3742 12.98 23.4042 13.18C23.4242 13.38 23.4542 13.6102 23.4642 13.8602C23.4842 14.3402 23.4842 14.8701 23.6042 15.2701L23.3942 15.2901C23.5742 15.5201 23.5542 15.8202 23.4942 16.1402C23.4342 16.4602 23.3542 16.8001 23.3842 17.0801L23.2042 17.6002C22.8742 17.8102 22.9842 16.1402 22.4942 16.6202C22.3742 17.1802 22.5042 17.6501 22.6442 18.0801C22.7942 18.5201 22.9242 18.93 22.7842 19.42C22.8042 20.35 23.0342 20.2101 23.2142 20.7601C23.4442 20.8801 23.3942 20.5501 23.6442 20.5801C23.6642 20.7001 23.6842 20.82 23.6942 20.93C23.7142 21.04 23.7242 21.1501 23.7342 21.2501C23.7542 21.4501 23.7442 21.6301 23.7342 21.8001C23.7042 22.1301 23.6142 22.41 23.5542 22.68C23.4842 22.95 23.4142 23.2201 23.3842 23.5301C23.3742 23.6901 23.3742 23.8501 23.3842 24.0301C23.3942 24.2101 23.4442 24.4102 23.5142 24.6302C23.6042 24.6402 23.8442 24.9802 24.0542 25.1302C24.2642 25.2902 24.4342 25.2602 24.3942 24.5902L24.0342 24.0201L24.1742 23.5501C24.2042 23.6701 24.2342 23.81 24.2642 23.96C24.3042 24.11 24.3442 24.2602 24.3942 24.3802C24.4842 24.6402 24.5842 24.8201 24.6942 24.7401C24.5442 24.9401 24.5542 25.2401 24.6542 25.5501C24.7542 25.8601 24.9342 26.18 25.0842 26.44C25.2242 26.7 25.3442 26.9101 25.3342 26.9901C25.3242 27.0701 25.1642 27.0301 24.7842 26.7901C24.7642 26.3601 24.7242 26.0902 24.6342 25.8702C24.5442 25.6502 24.4042 25.4901 24.1842 25.2601C24.5942 27.1101 24.8442 28.8201 25.4342 30.2901L25.9442 30.5801C25.6442 30.7401 25.7142 31.5501 25.9742 32.2801C26.1842 32.5401 26.3342 32.9401 26.4442 32.7701C26.5742 32.7901 26.3042 32.1502 26.1542 31.6302C26.0042 31.1102 25.9842 30.7 26.5242 31.2C26.6742 31.61 26.8242 32.02 26.9542 32.44C26.9842 32.54 27.0242 32.6501 27.0542 32.7501C27.0942 32.8501 27.1242 32.9501 27.1542 33.0601C27.2242 33.2601 27.2842 33.47 27.3442 33.67C27.4042 33.87 27.4542 34.0701 27.5142 34.2601C27.5742 34.4501 27.6242 34.6401 27.6742 34.8201C27.7642 35.1801 27.8342 35.5201 27.8642 35.8401C27.6242 35.5001 27.4442 35.1902 27.2242 34.9002C27.1142 34.7502 26.9842 34.61 26.8442 34.47C26.7042 34.33 26.5342 34.1801 26.3342 34.0401C26.2242 33.8901 26.1142 33.7301 26.0042 33.5701L25.8442 33.3301L25.6942 33.0801C25.4942 32.7501 25.3042 32.4101 25.1242 32.0701C24.9442 31.7201 24.7842 31.3701 24.6242 31.0101L24.3842 30.47L24.1642 29.92C23.5542 28.47 23.0642 27.0002 22.4142 25.6402C22.6242 25.4702 22.5242 24.6902 22.8142 24.8602C22.8642 24.7102 22.7942 24.46 22.7642 24.22C22.7342 23.98 22.7242 23.7302 22.8742 23.6002C22.7742 23.3302 22.6842 23.0601 22.6042 22.7801C22.5242 22.5001 22.4642 22.21 22.3942 21.92C22.3342 21.63 22.2742 21.3301 22.2242 21.0301C22.1842 20.7301 22.1442 20.4302 22.1142 20.1302C21.9842 18.9402 21.9742 17.7601 21.9542 16.7501C21.6642 17.0401 21.5442 16.7401 21.4742 16.2801C21.4242 15.8301 21.4142 15.23 21.2842 14.94C21.4142 14.67 21.4742 14.31 21.4942 13.92C21.5142 13.54 21.4942 13.1301 21.5242 12.7901C21.4242 12.7101 21.4242 12.2802 21.2442 12.3702C21.2842 12.8802 21.1242 13.0601 21.0442 13.5801C20.8242 13.4601 20.8342 13.1801 20.9342 12.8301C21.0242 12.4801 21.1842 12.07 21.2342 11.68L21.4442 12.1102C21.4942 11.4702 21.7842 10.7802 22.0442 10.1402C22.3142 9.5002 22.5542 8.8901 22.5242 8.2901C22.2842 8.5501 22.0642 8.83018 21.8342 9.12018C21.9242 8.39018 22.2642 7.63001 22.6142 6.95001C22.9642 6.26001 23.3142 5.66012 23.3842 5.06012C23.0442 5.43012 22.7642 6.04008 22.5442 6.52008C22.3142 7.00008 22.1242 7.36005 21.8542 7.24005C21.7142 7.16005 21.7542 6.84004 21.8942 6.48004C22.0342 6.13004 22.2542 5.74008 22.4542 5.52008C22.8742 5.05008 23.2142 4.58018 23.5442 4.12018C23.8742 3.66018 24.1942 3.21011 24.5842 2.80011C24.9642 2.39011 25.4242 2.0301 25.9442 1.7901C26.4342 1.5601 27.0342 1.47016 27.6242 1.60016Z" fill="#7E63A7"/>
<path d="M23.8145 2.34009C23.5945 2.54009 23.4345 2.72013 23.3245 2.88013C23.2045 3.04013 23.1345 3.18005 23.0845 3.30005C22.9845 3.54005 22.9845 3.71013 22.9845 3.88013C22.9845 4.04013 22.9845 4.19992 22.9145 4.41992C22.8445 4.63992 22.7045 4.91008 22.4445 5.33008C22.3645 5.14008 22.1545 5.22995 21.9145 5.44995C21.6845 5.66995 21.4345 6.01007 21.2945 6.32007C21.2045 6.99007 20.8345 7.66996 20.6945 8.20996C20.5345 8.55996 20.1645 8.41992 20.3845 7.66992C20.9745 6.85992 21.2745 5.85008 21.7345 4.83008C21.9645 4.32008 22.2345 3.82013 22.5845 3.38013C22.9145 2.94013 23.3345 2.56009 23.8145 2.34009Z" fill="#7E63A7"/>
<path d="M21.1244 8.56006C21.0644 8.87006 20.9044 9.37005 20.7244 9.80005C20.5444 10.23 20.3444 10.5901 20.1344 10.5801C20.0844 10.6701 19.9044 10.4801 19.9244 10.8501C20.0244 10.5701 20.1544 10.01 20.3544 9.52002C20.5544 9.03002 20.8244 8.60006 21.1244 8.56006Z" fill="#7E63A7"/>
<path d="M21.6744 9.54001C22.0044 9.49001 21.6444 10.05 21.6144 10.23C21.5444 10.34 21.4844 10.45 21.4244 10.56C21.4044 10.21 21.4444 9.77001 21.6744 9.54001Z" fill="#7E63A7"/>
<path d="M20.2249 14.6799C20.1549 15.1299 20.0649 14.8899 19.9749 14.6799C19.8949 14.4699 19.8149 14.2701 19.7749 14.8101C19.7649 14.6001 19.7649 14.3999 19.7549 14.1899L20.2449 13.98L20.2249 14.6799Z" fill="#7E63A7"/>
<path d="M19.7947 16.05C19.8447 16.18 19.8847 16.31 19.8947 16.46C19.9147 16.61 19.9047 16.79 19.8647 17.02L19.6747 16.78C19.6047 16.61 19.7947 16.4 19.7947 16.05Z" fill="#7E63A7"/>
<path d="M20.8842 14.8902C20.9942 15.3202 20.7542 15.2501 20.6542 15.5201C20.5042 15.3501 20.8442 14.4502 20.8842 14.8902Z" fill="#7E63A7"/>
<path d="M23.9252 18.8601C23.7152 18.6901 23.6552 18.4201 23.6252 18.0901C23.6152 18.0101 23.6151 17.9301 23.6051 17.8401C23.6051 17.7501 23.5952 17.6701 23.5952 17.5801C23.5852 17.4001 23.5752 17.22 23.5352 17.04C23.6052 17.4 23.6951 17.6499 23.7751 17.9099C23.8551 18.1799 23.9152 18.4501 23.9252 18.8601Z" fill="#7E63A7"/>
<path d="M40.8047 9.90015C40.9347 10.2601 41.2847 10.5201 41.5247 10.6401L41.5147 10.4099L40.8047 9.90015Z" fill="#7E63A7"/>
<path d="M37.6146 5.78003C37.0146 5.78003 37.6246 6.14992 37.8346 6.91992C38.3846 7.70992 39.3046 8.23999 39.9046 8.98999L40.4646 9.28003C39.8546 8.30003 38.6746 6.67003 37.6146 5.78003Z" fill="#7E63A7"/>
<path d="M46.7545 16.95C46.0045 16.01 45.2445 14.46 43.9645 13.78C44.2745 14.32 44.1745 14.42 44.6945 15.22C43.7845 15.03 43.8445 14.0101 43.2945 13.3501C43.6345 13.9801 42.8545 13.42 42.4445 12.98C41.8545 12 40.6645 10.64 39.6545 9.45996C39.0645 9.08996 37.9145 7.19006 37.6745 7.81006C37.0245 7.12006 37.2845 6.73012 36.9245 6.12012C36.4545 5.84012 36.1145 5.46004 35.8345 5.04004C35.5545 4.62004 35.3145 4.14993 35.0445 3.67993C34.7845 3.20993 34.4645 2.74007 34.0445 2.32007C33.6145 1.91007 33.0745 1.56014 32.3545 1.39014C32.4345 1.34014 32.4145 1.24991 32.3445 1.15991C32.2645 1.06991 32.1145 0.960098 31.9345 0.850098C31.7645 0.740098 31.5445 0.650059 31.3445 0.560059C31.1445 0.470059 30.9445 0.410098 30.8045 0.350098C30.5045 0.240098 30.0645 0.130059 29.5945 0.0600586C29.3545 0.0300586 29.1145 0 28.8645 0C28.6245 0 28.3845 0.0100293 28.1645 0.0300293C27.9445 0.0600293 27.7445 0.100146 27.5745 0.150146C27.4045 0.200146 27.2645 0.260068 27.1645 0.320068C26.9645 0.450068 26.9345 0.579951 27.1245 0.699951C27.2445 0.729951 27.3645 0.75 27.4945 0.75C27.5645 0.75 27.6245 0.75 27.6945 0.75C27.7645 0.75 27.8345 0.74999 27.9045 0.73999C28.1945 0.70999 28.5245 0.689912 28.8745 0.659912C29.5645 0.639912 30.3445 0.749912 30.8545 1.15991C31.2745 1.51991 31.3345 1.65993 31.2145 1.67993C31.1545 1.68993 31.0445 1.67014 30.9045 1.64014C30.8345 1.62014 30.7545 1.60008 30.6745 1.58008C30.5945 1.56008 30.4945 1.54002 30.4045 1.52002C30.3145 1.50002 30.2145 1.46995 30.1145 1.44995C30.0145 1.42995 29.9045 1.42015 29.8045 1.40015C29.7045 1.39015 29.5945 1.37011 29.5045 1.36011C29.4045 1.35011 29.3045 1.36011 29.2145 1.36011C29.0345 1.37011 28.8745 1.37992 28.7645 1.41992C28.6545 1.45992 28.5845 1.52009 28.5845 1.59009C28.7245 1.54009 28.8345 1.64 28.9945 1.75C29.0745 1.81 29.1745 1.86015 29.3045 1.90015C29.4345 1.93015 29.5845 1.96997 29.7945 1.96997C29.5745 1.95997 29.4245 1.95998 29.3145 1.97998C29.2145 1.99998 29.1545 2.04007 29.1345 2.07007C29.0945 2.15007 29.1945 2.24009 29.3145 2.34009C29.5445 2.57009 29.8145 2.80991 29.4145 2.90991C29.5145 2.94991 29.6045 2.99003 29.6845 3.03003C29.7645 3.08003 29.8345 3.11991 29.9045 3.15991C29.9745 3.19991 30.0345 3.23002 30.0945 3.27002C30.1445 3.31002 30.2045 3.35013 30.2445 3.38013C30.3345 3.45013 30.4145 3.51008 30.4745 3.58008C30.5345 3.65008 30.5845 3.71002 30.6345 3.77002C30.7245 3.89002 30.7745 4.00992 30.8245 4.16992C30.8745 4.32992 30.9245 4.51003 30.9745 4.78003C31.0745 4.83003 31.1645 4.87014 31.2545 4.89014C31.3345 4.92014 31.4045 4.93994 31.4745 4.93994C31.6045 4.94994 31.7145 4.93013 31.8045 4.88013C31.9845 4.79013 32.1145 4.64013 32.3145 4.63013C32.8345 4.86013 33.1445 5.28996 33.4045 5.70996C33.6645 6.12996 33.8845 6.56013 34.2645 6.88013C33.6745 6.91013 33.8145 7.3201 34.1945 7.8501C34.5845 8.3901 35.2145 9.05 35.6145 9.5C36.5745 10.71 36.5645 9.37993 37.5545 10.6799C37.7345 11.5799 36.0545 9.78015 36.3745 10.9001L36.9945 11.3601C37.5745 11.5001 38.1645 11.51 38.7245 11.79C38.9445 12.05 39.2745 12.44 39.1745 12.54C38.6345 12.12 38.5045 12.4899 38.7945 13.1599C39.1145 13.3199 39.1945 13.3601 39.4045 13.4001C39.2945 11.7101 40.3645 14.4901 41.4145 14.8901C43.8045 16.6101 41.4345 16.7599 43.4745 18.6899C43.6245 17.4899 44.9545 19.8701 45.7545 20.4001C46.2045 21.0301 46.1845 21.4 46.2945 21.99C46.4945 22.1 46.8945 22.55 47.0745 22.52C47.7245 21.49 47.5145 19.41 46.8345 16.98C46.8245 16.96 46.7745 16.93 46.7545 16.95Z" fill="#7E63A7"/>
<path d="M65.3446 26.4001C65.3146 26.4801 65.2346 26.55 65.1346 26.55C65.0346 26.56 64.9346 26.5201 64.8546 26.4001L64.7246 26.29C64.7546 26.27 64.7946 26.2499 64.8546 26.2099C64.9046 26.1799 64.9646 26.1401 65.0246 26.1301C65.1546 26.1001 65.2846 26.1401 65.3446 26.4001Z" fill="#4CA4DB"/>
<path d="M67.9648 29.26H68.0648C67.9648 29.26 67.8648 29.3201 67.8148 29.3701C67.7148 29.2701 67.7148 29.07 67.8648 29.02C67.9148 29.11 67.8148 29.22 67.9648 29.26Z" fill="#4CA4DB"/>
<path d="M63.6549 28.8201C63.8049 29.2101 64.2549 29.6701 64.6849 29.8901L64.9249 30.55C64.7449 30.45 64.5949 30.5001 64.4349 30.5901C64.2749 30.6701 64.1249 30.8001 63.9749 30.8701C63.9149 31.0601 64.3649 30.95 64.1149 31.23C64.0349 31.15 63.9949 30.98 63.9049 30.95C63.8049 31.1 63.8449 31.2799 63.8149 31.4399C63.7949 31.5999 63.7049 31.74 63.3549 31.79C63.2449 31.71 63.1349 31.63 63.0349 31.55C62.7649 31.63 62.4949 31.7501 62.2249 31.8801C61.9549 31.9901 61.6749 32.12 61.3949 32.22C61.1149 32.31 60.8249 32.3999 60.5349 32.4299C60.2449 32.4599 59.9549 32.4601 59.6849 32.3801C59.5949 32.5601 59.3949 32.6199 59.1849 32.6599C59.0749 32.6799 58.9649 32.7 58.8549 32.72C58.7449 32.74 58.6449 32.7701 58.5549 32.8201V32.6101C58.3349 32.9501 58.0149 32.5 57.7749 32.51L57.5849 32.29C57.5449 31.94 58.2149 32.1999 58.0749 31.6699C57.8749 31.4999 57.6749 31.5899 57.4849 31.6799C57.2949 31.7699 57.1049 31.8301 56.9449 31.6201C56.5949 31.4601 56.5949 31.71 56.3349 31.77C56.2249 31.96 56.3649 31.99 56.2849 32.22C55.8449 32.18 55.6749 31.8901 55.5449 31.5901C55.4149 31.2901 55.3149 30.9899 54.9549 30.9199C54.9149 30.9999 54.7149 31.08 54.5749 31.21C54.4349 31.33 54.3649 31.49 54.5849 31.71C54.6949 31.68 54.8049 31.6401 54.9149 31.6001L55.0149 31.8801C54.9149 31.8501 54.7649 31.8 54.6449 31.79C54.5249 31.77 54.4249 31.7899 54.4049 31.9099C54.4149 31.4899 54.0149 31.54 53.7149 31.55C53.4249 31.56 53.2549 31.5699 53.7749 31.1599C53.8349 31.2399 53.8849 31.3101 53.9349 31.3501C53.9849 31.3901 54.0349 31.4099 54.0849 31.4199C54.1849 31.4299 54.3049 31.38 54.4649 31.28C54.2849 31.19 54.1149 31.09 53.9649 30.97C53.8149 30.85 53.6649 30.7301 53.5349 30.6201C53.3949 30.5101 53.2649 30.38 53.1349 30.27C53.0049 30.16 52.8749 30.06 52.7349 29.98C52.6249 30.05 52.5049 30.1099 52.3849 30.1799C52.5549 29.8799 52.4249 29.52 52.2249 29.28C52.0749 29.26 51.9649 29.14 51.8949 29.3C51.8149 29.36 52.0049 29.57 52.1449 29.75C52.2849 29.94 52.3449 30.14 51.9349 30.24C51.8649 30.17 51.7949 30.1 51.7349 30.03C51.6749 29.96 51.6149 29.88 51.5549 29.8C51.4449 29.64 51.3349 29.4801 51.2549 29.3101C51.0949 28.9601 51.0049 28.61 51.0049 28.28C51.1549 28.36 51.2549 28.45 51.3949 28.51C51.5349 28.57 51.6949 28.6 51.9749 28.52C52.5549 28.68 53.0249 28.98 53.5349 29.23C53.6649 29.29 53.7849 29.3499 53.9149 29.4099C54.0449 29.4599 54.1749 29.5 54.3149 29.54C54.4449 29.57 54.5849 29.6001 54.7249 29.6201C54.8649 29.6301 55.0049 29.6201 55.1549 29.6101C55.1049 29.8501 55.3249 30.04 55.1649 30.24C55.1949 30.44 55.5249 30.3399 55.4849 30.6899C55.7149 30.6699 55.9349 30.69 56.1649 30.71C56.2749 30.72 56.3849 30.74 56.4949 30.77L56.6549 30.8101L56.8149 30.8401C57.0349 30.8901 57.2449 30.95 57.4549 31C57.6649 31.04 57.8649 31.0901 58.0549 31.1201C57.9849 30.8001 58.1049 30.7199 58.2749 30.6799C58.4449 30.6299 58.6549 30.64 58.7549 30.52C58.9349 30.81 59.2749 30.6699 59.5149 30.6699C59.5349 30.5599 59.6849 30.5201 59.6449 30.3501C59.4749 30.4301 59.4049 30.29 59.2249 30.23C59.2649 30 59.3549 30.0101 59.4749 30.0701C59.5349 30.1001 59.6049 30.1499 59.6649 30.1899C59.7349 30.2299 59.8049 30.25 59.8649 30.25L59.7349 30.51C59.9549 30.5 60.2149 30.68 60.4849 30.79C60.7449 30.89 61.0049 30.94 61.1749 30.7C61.0349 30.58 60.8949 30.4501 60.7649 30.3201C60.8849 30.2501 61.0149 30.24 61.1449 30.23C61.2749 30.22 61.4149 30.23 61.5549 30.23C61.8249 30.24 62.0749 30.1701 62.1649 29.8701C62.0749 29.8601 61.9849 29.8701 61.8849 29.9001C61.8349 29.9101 61.7949 29.9299 61.7449 29.9399C61.6949 29.9499 61.6549 29.96 61.6149 29.97C61.4449 30 61.2949 29.9599 61.2449 29.6799C61.2249 29.5299 61.2949 29.4301 61.4049 29.3901C61.5149 29.3501 61.6449 29.3601 61.7449 29.3901C61.9549 29.4801 62.1449 29.4601 62.2949 29.3901C62.4449 29.3101 62.5749 29.1801 62.6949 29.0601C62.7549 29.0001 62.8149 28.9501 62.8749 28.9001C62.9349 28.8501 62.9949 28.81 63.0749 28.78C63.2349 28.68 63.4149 28.7001 63.6549 28.8201Z" fill="#4CA4DB"/>
<path d="M62.3553 28.2699C61.8553 28.4899 62.3653 29.1699 61.7953 29.2599C61.7753 28.9399 61.4553 28.7699 61.2753 28.7699C61.2153 28.8799 61.1153 28.9098 61.0253 28.9198C60.9353 28.9298 60.8353 28.9198 60.7653 28.9298C60.6453 28.8798 60.6053 28.4998 60.7953 28.4598C60.9453 28.5898 61.0853 28.62 61.2153 28.59C61.2853 28.58 61.3453 28.5499 61.4053 28.5199C61.4653 28.4899 61.5253 28.44 61.5853 28.4C61.7053 28.31 61.8153 28.2298 61.9353 28.1998C62.0653 28.1698 62.1953 28.1699 62.3553 28.2699Z" fill="#4CA4DB"/>
<path d="M60.7851 29.46C60.6951 29.5 60.5351 29.4799 60.3851 29.4099C60.2451 29.3399 60.1151 29.19 60.0951 28.99C60.0651 28.96 60.0951 28.7501 59.9951 28.8301C60.1651 28.9601 60.6251 28.93 60.7851 29.46Z" fill="#4CA4DB"/>
<path d="M60.6344 30.2699C60.7144 30.5699 60.4644 30.3701 60.4144 30.3801L60.2744 30.2599C60.3844 30.1799 60.5144 30.1099 60.6344 30.2699Z" fill="#4CA4DB"/>
<path d="M58.8944 29.4299C58.6344 29.2899 59.1844 29.05 58.8744 28.98C58.9344 28.97 58.9944 28.9599 59.0544 28.9399L59.1144 29.4199C59.0344 29.4299 58.9644 29.4299 58.8944 29.4299Z" fill="#4CA4DB"/>
<path d="M58.5048 28.98C58.4248 29.08 58.3348 29.12 58.2148 29L58.3048 28.8301C58.3648 28.7701 58.4048 28.98 58.5048 28.98Z" fill="#4CA4DB"/>
<path d="M58.8045 30.09C58.6545 30.19 58.6945 29.95 58.6045 29.85C58.6645 29.71 58.9445 30.05 58.8045 30.09Z" fill="#4CA4DB"/>
<path d="M56.915 32.8001C57.145 32.4601 57.435 32.7202 57.765 32.6402C57.605 32.6802 57.475 32.7501 57.345 32.7901C57.225 32.8401 57.095 32.8601 56.915 32.8001Z" fill="#4CA4DB"/>
<path d="M66.2949 24.8C66.4649 24.79 66.4449 24.63 66.3949 24.51L66.2549 24.48L66.2949 24.8Z" fill="#4CA4DB"/>
<path d="M65.1953 25.8C65.4353 26.2 65.4253 25.92 65.8053 25.99C65.9353 25.91 65.9853 25.7601 66.0253 25.6001C66.0553 25.4401 66.0753 25.2699 66.1753 25.1699C66.1453 25.0699 66.1153 24.9801 66.0753 24.8901C65.9153 24.9701 65.7153 25.09 65.5553 25.25C65.3853 25.4 65.2553 25.59 65.1953 25.8Z" fill="#4CA4DB"/>
<path d="M67.2654 22.41C67.2454 22.49 67.1954 22.5703 67.1454 22.6503C67.0954 22.7303 67.0354 22.8203 66.9854 22.9003C66.9354 22.9903 66.9053 23.0801 66.9053 23.2001C66.9053 23.2601 66.9153 23.3102 66.9353 23.3802C66.9553 23.4402 66.9853 23.5102 67.0253 23.5802C67.1953 23.4702 67.3153 23.5202 67.5053 23.3002C67.7353 23.5202 67.6754 23.62 67.5354 23.68C67.3954 23.74 67.1954 23.7702 67.1454 23.8902C67.3554 23.7702 67.4553 24.1302 67.4053 24.3102C67.2453 24.4202 67.1154 24.6002 66.9854 24.8002C66.8454 24.9902 66.7253 25.22 66.5853 25.41C66.6053 25.56 66.4453 25.7102 66.3353 25.8602C66.2253 26.0102 66.1653 26.1502 66.4153 26.3102C66.3353 26.4402 66.2054 26.4303 66.0654 26.4003C65.9254 26.3703 65.7853 26.3202 65.6553 26.3402C65.6653 26.5702 65.5554 26.6901 65.3954 26.7301C65.2354 26.7801 65.0253 26.7501 64.8253 26.7301C64.7253 26.7201 64.6254 26.7101 64.5354 26.7001C64.4454 26.7001 64.3554 26.7001 64.2854 26.7201C64.1354 26.7601 64.0453 26.8802 64.0253 27.1402C63.8653 26.8302 63.6254 27.0402 63.5154 27.0802C63.4054 27.1502 63.1953 27.2302 63.0853 27.3802C63.0253 27.4502 62.9854 27.5402 62.9854 27.6402C62.9854 27.7402 63.0254 27.8501 63.1254 27.9801C63.3054 28.1301 63.4054 28.0002 63.5154 27.8602C63.5654 27.7902 63.6253 27.7201 63.6953 27.6901C63.7653 27.6501 63.8453 27.6401 63.9653 27.6901C64.3753 27.8501 64.2954 27.9702 64.1454 28.1302C64.1054 28.1702 64.0653 28.2101 64.0253 28.2501C63.9853 28.2901 63.9453 28.3302 63.9153 28.3802C63.8553 28.4702 63.8353 28.5801 63.9053 28.7101C63.9253 28.5801 64.2154 29.0101 64.3454 28.7201C64.1754 28.9701 64.3053 29.0801 64.4753 29.1901C64.6453 29.3001 64.8554 29.3802 64.8154 29.6202C65.1954 29.5902 65.3753 29.5802 65.5453 29.6302C65.7153 29.6802 65.8853 29.8001 66.2553 29.9901C66.5453 29.6301 66.1354 29.2901 66.0654 28.9901C66.1554 28.7501 66.3553 28.69 66.5753 28.66C66.7953 28.62 67.0253 28.6 67.1153 28.41C67.5053 29.29 68.1054 28.4602 68.3954 28.0802C68.6254 27.8702 68.5053 27.6901 68.3853 27.5201C68.2653 27.3501 68.1553 27.1801 68.3853 26.9601C68.6553 26.9701 68.6753 27.1803 68.6853 27.4003C68.7053 27.6103 68.7353 27.8202 69.0553 27.8002L69.1053 27.4401C68.9553 27.0701 68.6754 26.6802 68.5954 26.3502C68.6654 26.2402 68.7653 26.0803 68.8853 26.1503C68.8653 26.4403 69.1854 26.5801 69.5154 26.4501C69.4654 26.2601 69.4553 26.2102 69.3653 26.0902C68.8153 26.0502 68.8754 25.9201 69.0354 25.7301C69.1154 25.6301 69.2254 25.5202 69.2854 25.3902C69.3454 25.2602 69.3654 25.1201 69.2854 24.9701C69.1754 24.3301 69.4753 24.3302 69.8353 24.3402C70.0153 24.3502 70.2053 24.3501 70.3653 24.2801C70.5253 24.2101 70.6253 24.0601 70.6153 23.7701C70.1553 23.7801 70.1153 23.5702 70.1653 23.3202C70.2153 23.0702 70.3154 22.7401 70.2054 22.5401C70.2554 22.4101 70.3354 22.3301 70.4554 22.2601C70.5654 22.2001 70.7053 22.1502 70.8553 22.0702C70.7853 21.9702 70.7854 21.74 70.6254 21.67C70.0454 21.65 69.4654 21.7502 68.8954 21.8802C68.6154 21.9502 68.3253 22.0202 68.0453 22.0902C67.9053 22.1302 67.7654 22.1701 67.6254 22.2001C67.4854 22.2401 67.3553 22.2802 67.2153 22.3102C67.2253 22.3802 67.2454 22.4 67.2654 22.41Z" fill="#4CA4DB"/>
<path d="M5.30518 60.1001C5.11518 60.0601 4.96519 59.7801 5.17519 59.6001L5.25518 59.45C5.29518 59.5 5.41519 59.61 5.48519 59.73C5.55519 59.85 5.56518 59.9901 5.30518 60.1001Z" fill="#E95232"/>
<path d="M3.03548 63.24L3.08546 63.3501C3.03546 63.2401 2.93547 63.1301 2.85547 63.0701C2.93547 62.9601 3.16548 62.9501 3.28548 63.1101C3.19548 63.1801 3.02548 63.07 3.03548 63.24Z" fill="#E95232"/>
<path d="M2.765 58.2301C2.555 58.2501 2.315 58.3501 2.095 58.5101C1.865 58.6701 1.675 58.8902 1.545 59.1302C1.315 59.1602 1.07499 59.19 0.834993 59.21C0.944993 59.01 0.924991 58.7901 0.864991 58.5501C0.804991 58.3101 0.714999 58.0601 0.684999 57.8301C0.604999 57.7501 0.554991 57.86 0.504991 57.94C0.454991 58.02 0.394994 58.0702 0.304994 57.8402C0.404994 57.7802 0.574996 57.8 0.634996 57.69C0.524996 57.49 0.344993 57.4502 0.194993 57.3402C0.124993 57.2802 0.0549951 57.2102 0.0249951 57.0902C-0.00500488 56.9702 -0.0149951 56.8001 0.0350049 56.5601C0.155005 56.4601 0.275005 56.3701 0.395005 56.2801C0.475006 55.5001 0.544999 54.6802 0.794999 53.8802C1.045 53.0902 1.485 52.3202 2.175 51.8502C2.145 51.6202 2.315 51.3702 2.535 51.1302C2.645 51.0102 2.765 50.8901 2.885 50.7801C2.945 50.7201 3.00499 50.6602 3.05499 50.6002C3.11499 50.5402 3.165 50.48 3.205 50.42L3.325 50.5902C3.365 50.3602 3.565 50.27 3.785 50.22C4.015 50.18 4.255 50.1702 4.425 50.0902C4.555 50.1102 4.68499 50.13 4.80499 50.16C4.86499 50.23 4.835 50.3002 4.775 50.3602C4.715 50.4202 4.62501 50.4901 4.53501 50.5501C4.36501 50.6801 4.245 50.8401 4.465 51.0101C4.815 51.0101 5.00499 50.8202 5.22499 50.6402C5.33499 50.5502 5.445 50.47 5.565 50.43C5.685 50.39 5.82499 50.39 5.97499 50.45C6.24499 50.46 6.355 50.4102 6.435 50.3402C6.525 50.2702 6.58499 50.1802 6.75499 50.1202C6.83499 49.9102 6.63499 49.92 6.66499 49.67C7.31499 49.59 7.64501 49.88 7.89501 50.16C8.02501 50.3 8.145 50.4501 8.285 50.5701C8.425 50.6901 8.595 50.7801 8.845 50.8301C8.885 50.7501 9.135 50.6601 9.295 50.5501C9.455 50.4401 9.54499 50.2701 9.19499 50.0301C9.04499 50.0601 8.905 50.0902 8.765 50.1302C8.705 50.0302 8.635 49.9302 8.565 49.8402C8.715 49.8702 8.925 49.93 9.095 49.95C9.265 49.97 9.405 49.9602 9.405 49.8402C9.445 50.0602 9.585 50.1701 9.785 50.2301C9.975 50.2901 10.215 50.3101 10.405 50.3301C10.605 50.3501 10.755 50.38 10.785 50.43C10.805 50.49 10.695 50.5701 10.375 50.7401C10.195 50.5401 10.055 50.43 9.91499 50.41C9.77499 50.38 9.625 50.4101 9.425 50.5101C9.935 50.7401 10.355 51.0602 10.715 51.3902C11.075 51.7202 11.385 52.0602 11.705 52.3702C11.845 52.3402 11.995 52.3201 12.145 52.3001C12.025 52.4301 12.005 52.6101 12.035 52.8001C12.055 53.0001 12.135 53.2002 12.215 53.3902C12.385 53.4802 12.485 53.6901 12.595 53.5501C12.705 53.5301 12.515 53.1902 12.385 52.9002C12.255 52.6202 12.185 52.35 12.685 52.45C12.985 52.91 13.205 53.44 13.285 53.96C13.375 54.47 13.315 54.9601 13.155 55.3201C13.105 55.2201 13.065 55.1201 13.025 55.0301C12.985 54.9401 12.935 54.8501 12.885 54.7701C12.835 54.6901 12.755 54.6101 12.665 54.5501C12.575 54.4801 12.455 54.4302 12.295 54.3802C11.745 53.8502 11.265 53.3202 10.685 52.8902C10.115 52.4702 9.44499 52.16 8.75499 52.22C8.79499 51.97 8.485 51.7801 8.655 51.5801C8.575 51.3801 8.18499 51.4702 8.16499 51.1202C7.57499 51.1702 6.995 51.17 6.405 51.21C5.825 51.25 5.23499 51.3401 4.75499 51.5301C5.00499 51.7601 4.905 51.9101 4.735 52.0401C4.655 52.1101 4.56499 52.1801 4.47499 52.2501C4.39499 52.3301 4.335 52.4101 4.315 52.4901C4.145 52.4501 3.985 52.5102 3.845 52.6202C3.705 52.7202 3.595 52.8701 3.495 52.9801C3.545 53.0801 3.445 53.2401 3.605 53.3201C3.695 53.1101 3.855 53.1501 4.045 53.0601C4.155 53.2601 4.085 53.3302 3.935 53.3802C3.865 53.4102 3.77499 53.43 3.69499 53.46C3.61499 53.49 3.53499 53.5302 3.47499 53.5902C3.44499 53.5002 3.42501 53.4001 3.39501 53.3001C3.20501 53.5001 2.865 53.6301 2.575 53.8201C2.285 54.0101 2.055 54.2802 2.155 54.6102C2.345 54.5302 2.545 54.4602 2.735 54.4002C2.675 54.7202 2.45499 54.9801 2.30499 55.2801C2.14499 55.5701 2.065 55.8902 2.295 56.1502C2.345 56.0602 2.385 55.9501 2.405 55.8301C2.435 55.7201 2.455 55.6001 2.485 55.5001C2.555 55.3001 2.67499 55.1701 2.94499 55.2701C3.22499 55.4001 3.08499 55.77 2.91499 55.94C2.72499 56.12 2.65499 56.3301 2.66499 56.5301C2.66499 56.6301 2.685 56.7301 2.705 56.8301C2.725 56.9301 2.765 57.0202 2.795 57.1102C2.865 57.2902 2.93499 57.4602 2.94499 57.6302C2.94499 57.7202 2.945 57.8002 2.905 57.9002C2.905 58.0102 2.845 58.1101 2.765 58.2301Z" fill="#E95232"/>
<path d="M3.65499 57.06C3.64499 56.77 3.45499 56.67 3.26499 56.57C3.16499 56.52 3.07498 56.4701 3.02498 56.3901C2.96498 56.3101 2.94498 56.2 3.00498 56.04C3.15498 56.11 3.30499 56.08 3.42499 56.02C3.55499 55.96 3.65498 55.86 3.69498 55.77C3.63498 55.65 3.66499 55.5499 3.70499 55.4499C3.75499 55.3599 3.81498 55.2799 3.85498 55.1999C3.96498 55.1199 4.29498 55.31 4.21498 55.5C3.82498 55.61 3.80499 55.95 3.84499 56.25C3.88499 56.56 3.95499 56.82 3.65499 57.06Z" fill="#E95232"/>
<path d="M3.41504 54.9002C3.42504 54.8402 3.46505 54.78 3.51505 54.72C3.56505 54.66 3.63504 54.6001 3.71504 54.5601C3.87504 54.4801 4.06505 54.4701 4.23505 54.5801C4.27505 54.5801 4.42505 54.7401 4.42505 54.6101C4.32505 54.6301 4.19505 54.7401 4.03505 54.8201C3.88505 54.9201 3.68504 54.9902 3.41504 54.9002Z" fill="#E95232"/>
<path d="M2.87461 54.27C2.57461 54.16 2.92461 54.04 2.95461 53.98C3.01461 53.96 3.08461 53.9399 3.15461 53.9299C3.13461 54.0799 3.08461 54.25 2.87461 54.27Z" fill="#E95232"/>
<path d="M4.85504 53.4199C5.00504 53.3899 4.99504 53.5101 4.99504 53.6301C4.99504 53.7401 4.99504 53.84 5.13504 53.77L5.01505 53.9099C4.90505 53.7999 4.78504 53.6801 4.66504 53.5701C4.73504 53.5101 4.79504 53.4699 4.85504 53.4199Z" fill="#E95232"/>
<path d="M5.43457 53.5701C5.44457 53.4401 5.50457 53.3699 5.66457 53.4099C5.66457 53.4699 5.66457 53.5401 5.66457 53.6001C5.65457 53.6901 5.51457 53.5201 5.43457 53.5701Z" fill="#E95232"/>
<path d="M4.5446 52.8301C4.6246 52.6501 4.7346 52.8702 4.8746 52.9002C4.8846 52.9802 4.78459 52.99 4.68459 52.96C4.57459 52.94 4.4846 52.9001 4.5446 52.8301Z" fill="#E95232"/>
<path d="M5.52499 49.3601C5.43499 49.5701 5.255 49.65 5.045 49.71C4.835 49.78 4.585 49.82 4.375 49.97C4.585 49.82 4.725 49.7001 4.895 49.5801C4.975 49.5201 5.06499 49.4799 5.16499 49.4399C5.26499 49.4099 5.38499 49.3701 5.52499 49.3601Z" fill="#E95232"/>
<path d="M7.54492 60.8501C7.63492 61.0301 7.83491 60.9899 7.97491 60.9299L7.95493 60.78L7.54492 60.8501Z" fill="#E95232"/>
<path d="M5.89506 59.8401C5.72506 60.0001 5.70505 60.0601 5.74505 60.1401C5.78505 60.2201 5.87506 60.3 5.90506 60.51C6.17506 60.76 6.68506 60.6 7.01506 60.76L7.32506 60.6201C7.14506 60.4601 6.89506 60.2701 6.64506 60.1201C6.40506 59.9701 6.13506 59.8601 5.89506 59.8401Z" fill="#E95232"/>
<path d="M11.5954 62.2601C11.0254 61.9801 10.3854 61.3202 9.59543 61.6302C9.82543 61.8202 9.78542 61.9501 10.1654 62.2101C9.61542 62.6301 9.55543 61.8701 9.17543 61.7401C9.42543 61.9701 8.94543 62.0601 8.67543 62.0101C8.25543 61.6801 7.49543 61.4701 6.90543 61.2401C6.73543 61.2901 6.48543 61.1401 6.26543 61.0501C6.04543 60.9601 5.86543 60.9301 5.78543 61.2201C5.42543 61.0901 5.60543 60.67 5.45543 60.43C5.33543 60.45 5.22543 60.4402 5.14543 60.4002C5.06543 60.3602 5.00543 60.3001 4.95543 60.2201C4.90543 60.1401 4.88542 60.04 4.85542 59.94C4.83542 59.84 4.82542 59.7302 4.82542 59.6302C4.80542 59.2102 4.85542 58.8402 4.36542 58.8702C4.51542 58.7902 4.55543 58.7002 4.54543 58.6202C4.53543 58.5402 4.49543 58.47 4.48543 58.42C4.44543 58.32 4.39542 58.1401 4.27542 58.0201C4.16542 57.9001 3.99542 57.8 3.68542 57.94C3.48542 58.08 3.59542 58.2202 3.71542 58.3502C3.77542 58.4202 3.83542 58.4701 3.86542 58.5501C3.89542 58.6201 3.89542 58.7102 3.83542 58.8202C3.74542 59.0102 3.66543 59.1002 3.59543 59.1102C3.52543 59.1202 3.44543 59.0501 3.37543 58.9601C3.22543 58.7801 3.08542 58.5002 2.80542 58.5802C2.87542 58.6102 2.78542 58.6701 2.71542 58.7701C2.65542 58.8601 2.60542 58.9802 2.75542 59.0802C2.50542 58.8302 2.38543 58.9402 2.26543 59.1202C2.14543 59.2902 2.05542 59.53 1.80542 59.42C1.81542 59.66 1.83543 59.8501 1.84543 59.9901C1.85543 60.1401 1.85542 60.2502 1.83542 60.3502C1.81542 60.4502 1.78543 60.56 1.73543 60.69C1.69543 60.82 1.62543 60.9701 1.56543 61.2001C1.81543 61.4201 2.00543 61.3902 2.17543 61.3202C2.34543 61.2402 2.49543 61.1102 2.65543 61.0802C2.80543 61.1402 2.90542 61.2302 2.99542 61.3302C3.07542 61.4402 3.13542 61.56 3.19542 61.69C3.25542 61.82 3.30542 61.9401 3.38542 62.0501C3.45542 62.1601 3.55543 62.2401 3.67543 62.2901C3.46543 62.4201 3.37543 62.55 3.37543 62.68C3.37543 62.81 3.46543 62.9502 3.59543 63.0702C3.72543 63.2002 3.90542 63.3002 4.08542 63.4002C4.26542 63.4902 4.44542 63.5702 4.57542 63.6302C4.91542 63.8302 5.05543 63.6701 5.20543 63.5201C5.35543 63.3701 5.49542 63.23 5.82542 63.42C5.91542 63.69 5.67542 63.7502 5.44542 63.8102C5.21542 63.8702 4.99542 63.9401 5.13542 64.2601C5.27542 64.2601 5.41543 64.2501 5.54543 64.2401C5.89543 64.0101 6.23542 63.6501 6.57542 63.5201C6.72542 63.5701 6.94543 63.6501 6.89543 63.7801C6.55543 63.8101 6.51542 64.1601 6.74542 64.4601C6.93542 64.3801 6.98543 64.3601 7.09543 64.2501C6.86543 63.1101 7.72542 64.4301 8.32542 64.0501C9.05542 63.9001 9.09542 64.2302 9.10542 64.6002C9.11542 64.9702 9.10542 65.37 9.69542 65.42C9.72542 64.96 9.94542 64.9401 10.2154 65.0301C10.4854 65.1201 10.7954 65.3301 11.0454 65.2901C11.3054 65.4901 11.2554 65.7502 11.2554 66.0902C11.3754 66.0602 11.5854 66.1802 11.7154 66.0802C12.0254 65.6002 12.2054 65.0202 12.1954 64.3502C12.1854 63.6902 11.9954 62.9701 11.6554 62.2601C11.6354 62.2301 11.6054 62.2401 11.5954 62.2601Z" fill="#E95232"/>
<path d="M24.2245 78.1C24.2345 78.2 24.1945 78.32 24.0945 78.38C24.0045 78.45 23.8945 78.46 23.7745 78.39L23.6045 78.35C23.6445 78.29 23.7245 78.1399 23.8145 78.0299C23.9145 77.9299 24.0545 77.88 24.2245 78.1Z" fill="#E95232"/>
<path d="M27.9048 79.3101L28.0048 79.21C27.9048 79.31 27.8248 79.4601 27.7848 79.5701C27.6548 79.5301 27.5848 79.2801 27.7148 79.0801C27.8048 79.1701 27.7348 79.3901 27.9048 79.3101Z" fill="#E95232"/>
<path d="M22.825 81.1101C22.865 81.3201 22.985 81.55 23.165 81.75C23.255 81.85 23.375 81.94 23.495 82.02C23.555 82.06 23.625 82.1001 23.695 82.1301C23.765 82.1601 23.835 82.18 23.905 82.2C23.965 82.43 24.015 82.6699 24.055 82.9099C23.935 82.8699 23.805 82.8701 23.675 82.8901C23.545 82.9101 23.415 82.96 23.265 82.99C23.125 83.03 22.975 83.0801 22.825 83.1301C22.675 83.1701 22.525 83.21 22.385 83.22C22.285 83.3 22.415 83.3501 22.515 83.4001C22.615 83.4401 22.675 83.5001 22.385 83.6101C22.305 83.5101 22.345 83.34 22.215 83.28C21.965 83.39 21.895 83.56 21.745 83.7C21.665 83.77 21.565 83.8201 21.415 83.8401C21.335 83.8501 21.245 83.8501 21.135 83.8301C21.025 83.8101 20.895 83.79 20.745 83.73C20.635 83.59 20.535 83.45 20.445 83.3C19.495 83.02 18.595 82.61 17.835 82.05C17.085 81.49 16.495 80.78 16.225 79.98C15.995 79.94 15.805 79.7099 15.635 79.4399C15.455 79.1699 15.305 78.8601 15.105 78.6501L15.295 78.5701C15.075 78.4901 15.025 78.2901 15.025 78.0601C15.015 77.8401 15.055 77.5999 14.995 77.4199L15.115 77.05C15.275 76.96 15.355 77.1801 15.465 77.3601C15.575 77.5501 15.705 77.7 15.915 77.5C15.975 77.15 15.805 76.9099 15.645 76.6699C15.565 76.5499 15.495 76.42 15.465 76.29C15.435 76.16 15.445 76.0301 15.525 75.8901C15.545 75.6301 15.505 75.5199 15.435 75.4299C15.365 75.3399 15.275 75.2801 15.215 75.1201C15.005 75.0401 15.015 75.23 14.775 75.21C14.685 74.61 14.935 74.3 15.185 74.03C15.435 73.75 15.695 73.51 15.675 73.02C15.505 72.98 15.105 72.1701 14.815 72.8801L15.015 73.24L14.775 73.47C14.775 73.19 14.825 72.7 14.585 72.75C15.385 72.44 13.965 70.91 15.105 71.71C14.885 72.13 14.915 72.2701 15.215 72.5801C15.355 71.5701 15.745 70.75 15.775 69.97L15.435 69.73C15.775 69.73 16.025 69.35 16.105 68.98C16.025 68.82 16.055 68.6199 15.885 68.6699C15.775 68.6399 15.755 68.97 15.675 69.23C15.585 69.49 15.455 69.6701 15.155 69.3401C15.315 68.5101 15.565 67.6801 15.965 67.0701C16.035 67.2601 16.055 67.4201 16.125 67.5901C16.185 67.7601 16.295 67.9201 16.545 68.1201C16.825 68.8401 16.835 69.6399 16.835 70.4199C16.835 71.1999 16.815 71.99 17.055 72.73C16.815 72.77 16.695 73.15 16.455 73.02C16.275 73.15 16.445 73.5401 16.105 73.6301C16.265 74.2201 16.285 74.85 16.315 75.47C16.315 75.63 16.335 75.7799 16.335 75.9399C16.335 76.0199 16.345 76.0899 16.345 76.1699C16.355 76.2499 16.355 76.3301 16.365 76.4001C16.395 76.7101 16.435 77 16.495 77.27C16.755 77.05 16.885 77.1801 17.005 77.3901C17.115 77.6001 17.235 77.88 17.395 77.96C17.235 78.31 17.545 78.7 17.715 78.99C17.825 78.97 17.965 79.13 18.085 79C17.895 78.83 17.975 78.6799 17.915 78.4299C18.135 78.3799 18.195 78.4899 18.215 78.6599C18.225 78.7499 18.225 78.85 18.245 78.95C18.255 79.05 18.285 79.15 18.325 79.23C18.225 79.22 18.115 79.2099 18.015 79.1899C18.175 79.4599 18.205 79.86 18.325 80.23C18.435 80.59 18.635 80.92 19.015 80.96C18.985 80.74 18.965 80.52 18.965 80.3C19.275 80.48 19.485 80.8101 19.755 81.0701C20.015 81.3301 20.345 81.5101 20.675 81.3501C20.505 81.1901 20.225 81.1 20.035 80.96C19.935 80.89 19.865 80.81 19.835 80.73C19.805 80.64 19.835 80.5499 19.925 80.4299C20.135 80.2099 20.475 80.4699 20.605 80.6699C20.735 80.8999 20.935 81.0201 21.145 81.0601C21.355 81.1001 21.555 81.06 21.745 81C21.935 80.95 22.095 80.8801 22.265 80.8801C22.405 80.9101 22.565 80.9401 22.825 81.1101Z" fill="#E95232"/>
<path d="M21.715 80.2099C21.655 80.1999 21.605 80.2099 21.555 80.2299C21.505 80.2399 21.465 80.27 21.425 80.3C21.345 80.37 21.285 80.45 21.225 80.53C21.155 80.61 21.095 80.6999 21.005 80.7299C20.965 80.7499 20.905 80.76 20.845 80.75C20.785 80.74 20.725 80.7099 20.645 80.6699C20.755 80.5499 20.765 80.39 20.735 80.25C20.725 80.18 20.695 80.12 20.665 80.06C20.635 80 20.595 79.9599 20.565 79.9199C20.295 79.9599 20.165 79.69 20.035 79.56C19.985 79.42 20.275 79.17 20.445 79.32C20.445 79.74 20.785 79.8701 21.065 79.9001C21.205 79.9101 21.335 79.9199 21.445 79.9399C21.495 79.9599 21.545 79.98 21.595 80.02C21.635 80.07 21.675 80.1299 21.715 80.2099Z" fill="#E95232"/>
<path d="M19.6149 79.8801C19.5649 79.8401 19.5049 79.78 19.4549 79.7C19.4049 79.62 19.3649 79.5299 19.3449 79.4299C19.3049 79.2299 19.3349 79.0301 19.5049 78.9001C19.5149 78.8501 19.7149 78.78 19.5749 78.72C19.5749 78.78 19.6049 78.8599 19.6249 78.9399C19.6549 79.0199 19.6849 79.12 19.7049 79.22C19.7649 79.43 19.7749 79.6501 19.6149 79.8801Z" fill="#E95232"/>
<path d="M18.8149 80.1599C18.6249 80.4099 18.5949 80.02 18.5449 79.96C18.5449 79.89 18.5449 79.82 18.5449 79.74C18.6949 79.82 18.8549 79.9499 18.8149 80.1599Z" fill="#E95232"/>
<path d="M18.3746 77.6899C18.3646 77.4899 18.4946 77.5501 18.6046 77.6001C18.7246 77.6401 18.8246 77.68 18.7646 77.48C18.8046 77.55 18.8546 77.6199 18.8946 77.6799C18.7546 77.7699 18.6246 77.86 18.4946 77.96C18.4546 77.87 18.4146 77.7799 18.3746 77.6899Z" fill="#E95232"/>
<path d="M18.5949 77.03C18.4649 76.97 18.3949 76.8799 18.4449 76.6799L18.6449 76.73C18.7249 76.77 18.5449 76.9 18.5949 77.03Z" fill="#E95232"/>
<path d="M17.7344 77.8501C17.5644 77.7001 17.7943 77.65 17.8543 77.5C17.9343 77.51 17.9244 77.64 17.8944 77.74C17.8544 77.85 17.7844 77.9401 17.7344 77.8501Z" fill="#E95232"/>
<path d="M14.3848 76.27C14.7848 76.45 14.6348 77.02 14.8648 77.46C14.7548 77.24 14.6348 77.0799 14.5448 76.9099C14.4948 76.8199 14.4548 76.7301 14.4348 76.6301C14.4048 76.5201 14.3748 76.39 14.3848 76.27Z" fill="#E95232"/>
<path d="M23.9851 75.9399C24.0851 75.7799 23.9451 75.6501 23.8151 75.5901L23.7051 75.6899C23.8051 75.7799 23.8851 75.8599 23.9851 75.9399Z" fill="#E95232"/>
<path d="M23.8044 77.6201C24.0144 77.7301 24.0744 77.7199 24.1344 77.6599C24.1944 77.5999 24.2345 77.4901 24.4245 77.3801C24.4645 77.3001 24.4544 77.2101 24.4444 77.1201C24.4344 77.0801 24.4244 77.03 24.4144 76.99C24.3944 76.95 24.3745 76.9001 24.3545 76.8601C24.3145 76.7801 24.2844 76.6901 24.2444 76.6201C24.2044 76.5401 24.1845 76.4701 24.1845 76.3901L23.9045 76.22C23.8945 76.27 23.8845 76.3301 23.8745 76.3901C23.8645 76.4401 23.8444 76.49 23.8344 76.55C23.8144 76.66 23.7844 76.7801 23.7744 76.9001C23.7744 76.9601 23.7544 77.0201 23.7544 77.0801C23.7444 77.1401 23.7544 77.2 23.7544 77.26C23.7444 77.38 23.7744 77.5001 23.8044 77.6201Z" fill="#E95232"/>
<path d="M22.2147 72.66C22.2947 72.77 22.3547 72.9001 22.4147 73.0501C22.4747 73.1901 22.5347 73.34 22.6047 73.48C22.7447 73.76 22.9447 74.0002 23.3147 74.1202C23.3047 73.9802 23.3247 73.9001 23.3347 73.8001C23.3447 73.7001 23.3547 73.5802 23.2847 73.3702C23.6247 73.3602 23.6847 73.52 23.6847 73.71C23.6747 73.9 23.6047 74.1301 23.6847 74.2901C23.6747 73.9701 24.0747 74.21 24.2147 74.44C24.2647 74.95 24.5347 75.6301 24.6447 76.2501C24.7147 76.3101 24.7347 76.4001 24.7547 76.5101C24.7747 76.6201 24.7647 76.7402 24.7747 76.8502C24.7747 76.9102 24.7847 76.9601 24.7947 77.0101C24.8047 77.0601 24.8147 77.1002 24.8447 77.1402C24.8947 77.2102 24.9747 77.25 25.1247 77.23C25.1347 77.43 25.0147 77.5302 24.8847 77.6002C24.7547 77.6702 24.5947 77.7302 24.5047 77.8402C24.6347 78.0702 24.5747 78.26 24.4547 78.41C24.3147 78.55 24.1147 78.66 23.9047 78.73C23.7047 78.81 23.4947 78.86 23.3747 78.95C23.3047 78.99 23.2647 79.0402 23.2447 79.1202C23.2247 79.2002 23.2147 79.28 23.2347 79.41C23.1247 79.27 23.0247 79.2801 22.9447 79.3001C22.8647 79.3201 22.8047 79.3902 22.7647 79.4002C22.7447 79.4102 22.7147 79.43 22.6947 79.44C22.6847 79.45 22.6647 79.46 22.6547 79.47C22.6447 79.48 22.6247 79.4801 22.6147 79.4901C22.5847 79.5101 22.5647 79.5301 22.5347 79.5501C22.5147 79.5801 22.4847 79.5902 22.4647 79.6202C22.3947 79.7402 22.3247 79.89 22.4747 80.2C22.5147 80.25 22.5447 80.2801 22.5847 80.2901C22.6147 80.3001 22.6447 80.3001 22.6747 80.2901C22.7047 80.2801 22.7347 80.26 22.7647 80.23C22.7947 80.21 22.8247 80.1802 22.8447 80.1402C22.8947 80.0702 22.9447 80.01 23.0047 79.97C23.0647 79.92 23.1447 79.91 23.2747 79.96C23.4847 80.01 23.5847 80.0602 23.6047 80.1302C23.6247 80.2002 23.5747 80.3002 23.4847 80.3802C23.4447 80.4202 23.3947 80.4701 23.3547 80.5201C23.3147 80.5701 23.2647 80.61 23.2247 80.66C23.1547 80.76 23.1147 80.8801 23.1747 81.0101C23.1947 80.9401 23.2747 81.0101 23.3747 81.0601C23.4247 81.0801 23.4847 81.1002 23.5447 81.1002C23.6047 81.0902 23.6647 81.06 23.7047 80.97C23.6547 81.05 23.6147 81.11 23.5947 81.16C23.5747 81.21 23.5747 81.2601 23.5847 81.2901C23.6147 81.3601 23.6947 81.41 23.7947 81.46C23.8947 81.51 24.0147 81.5402 24.0947 81.5902C24.1747 81.6402 24.2247 81.7202 24.1747 81.8602C24.3047 81.8202 24.4247 81.7901 24.5247 81.7601C24.5747 81.7401 24.6247 81.73 24.6747 81.72C24.7147 81.7 24.7547 81.69 24.7947 81.68C24.9447 81.63 25.0647 81.6002 25.1847 81.5902C25.4147 81.5602 25.6147 81.6102 26.1147 81.6202C26.3047 81.2902 26.2447 81.09 26.1347 80.94C26.0247 80.79 25.8647 80.6701 25.7947 80.5201C25.8247 80.3401 25.8947 80.2001 25.9847 80.0801C26.0747 79.9601 26.1847 79.8501 26.2947 79.7501C26.4147 79.6501 26.5147 79.54 26.6047 79.42C26.6447 79.36 26.6847 79.3 26.7147 79.23C26.7447 79.16 26.7547 79.0901 26.7647 79.0201C26.9447 79.2001 27.0947 79.25 27.2247 79.2C27.3547 79.15 27.4647 79.0001 27.5447 78.8101C27.7047 78.4101 27.7547 77.83 27.7647 77.45C27.7947 77.21 27.7547 77.06 27.6847 76.97C27.6147 76.88 27.5147 76.8301 27.4147 76.7901C27.2147 76.7001 27.0347 76.6202 27.0347 76.1502C27.2347 75.8902 27.3947 76.1102 27.5647 76.3402C27.6447 76.4502 27.7347 76.5702 27.8147 76.6102C27.8947 76.6502 28.0047 76.62 28.1047 76.44C28.0347 76.27 27.9547 76.11 27.8747 75.96C27.6847 75.83 27.4547 75.7302 27.2547 75.6302C27.0547 75.5302 26.8547 75.4301 26.6947 75.3101C26.6747 75.2201 26.6447 75.1101 26.6347 75.0101C26.6247 74.9201 26.6347 74.8401 26.7047 74.8201C26.9447 75.1401 27.2547 74.9601 27.3347 74.5101C27.1447 74.3601 27.0947 74.3301 26.9347 74.2901C26.7647 74.5501 26.6447 74.6302 26.5747 74.6002C26.5047 74.5702 26.4647 74.4401 26.4247 74.2701C26.3547 73.9201 26.2347 73.4101 25.8647 73.2901C25.5247 73.0401 25.3947 72.85 25.3747 72.68C25.3547 72.51 25.4447 72.35 25.5447 72.18C25.7447 71.85 25.9847 71.48 25.4047 70.96C25.1647 71.38 24.9447 71.23 24.7147 70.96C24.4847 70.69 24.2447 70.3 23.9747 70.21C23.7647 69.88 23.8747 69.6301 23.9347 69.2501C23.7947 69.2201 23.5847 69.0001 23.4247 69.0601C23.0247 69.4801 22.7447 70.03 22.5347 70.66C22.3347 71.28 22.2047 71.98 22.0947 72.68C22.1647 72.67 22.1947 72.68 22.2147 72.66Z" fill="#E95232"/>
</g>
</svg>
