<svg width="18" height="16" viewBox="0 0 18 16" fill="none" xmlns="http://www.w3.org/2000/svg">
<path d="M16.61 2.86005C16.22 2.97005 15.92 2.95004 15.92 2.95004L15.9301 2.88004C16.2901 2.59004 17.2001 1.70004 17.3201 1.29004C17.3701 1.11004 17.3101 1.05004 17.3101 1.04004L16.15 1.53003L15.1801 1.97003C14.5101 1.26003 13.4901 0.800049 12.3501 0.800049C10.3201 0.800049 8.68005 2.23004 8.68005 4.01004C8.68005 4.33004 8.73008 4.92003 8.83008 5.22003C8.83008 5.31003 8.83008 5.13003 8.83008 5.22003C7.53008 5.18003 5.84999 4.65005 4.35999 3.89005C1.41999 2.40005 1.23999 1.37006 1.23999 1.37006C0.77999 1.86006 0.54001 3.48003 1.01001 4.75003C1.31001 5.56003 2.34009 6.29004 2.34009 6.29004C2.34009 6.29004 1.88002 6.30005 1.40002 6.14005C0.920024 5.98005 0.73999 5.82004 0.73999 5.82004C0.44999 6.52004 1.03002 7.77003 2.02002 8.66003C2.60002 9.18003 3.66003 9.51004 3.66003 9.51004L2.01001 9.56003C1.92001 11.17 5.38 12.1201 5.38 12.1201C4.36 12.9001 3.19005 13.38 1.93005 13.38C1.28005 13.38 0.640039 13.28 0.0400391 13.1C1.71004 14.47 3.85005 15.42 6.18005 15.3C12.3601 14.97 15.85 9.66003 16.02 4.44003L16.03 4.45004C16.03 4.45004 16.3201 4.31003 16.9401 3.69003C17.5601 3.07003 17.9401 2.35004 17.9401 2.35004C17.9401 2.35004 17 2.76005 16.61 2.86005Z" fill="white"/>
</svg>
