<svg width="1236" height="367" viewBox="0 0 1236 367" fill="none" xmlns="http://www.w3.org/2000/svg">
<path d="M960.633 16.5285L972.696 16.1072C958.191 17.5312 947.667 18.0451 958.997 17.7755C959.811 17.152 971.512 16.3684 983.212 15.6775C994.904 14.9782 1006.61 14.4052 1007.42 13.807L1015.37 13.7058C1013.09 13.7901 1012.73 13.8659 1010.49 13.9502C1018.22 13.8912 1021.08 13.588 1024.5 13.2172C1027.92 12.8465 1031.89 12.3998 1041.85 12.2566C1048.79 12.2145 1053.63 12.324 1048.9 12.5263C1054.05 12.3578 1059.2 12.2398 1064.35 12.1471C1068.85 12.1977 1067.75 12.3746 1063.27 12.3494C1071.13 12.3325 1078.99 12.4166 1086.83 12.6357L1086.66 12.661C1088.34 12.6357 1091.08 12.6273 1093.88 12.6273C1096.67 12.6694 1099.5 12.6948 1101.37 12.7538C1107.33 13.293 1098.37 12.6863 1099.89 12.9307C1104.23 13.0908 1108.58 13.2846 1112.92 13.5458C1118.19 14.2788 1107.4 13.6132 1098.42 13.116C1104.46 14.0176 1107.16 14.1271 1111.61 14.3546C1113.84 14.4473 1116.51 14.6242 1120.25 14.9528C1122.11 15.1297 1124.24 15.3826 1126.73 15.6775C1129.2 16.023 1132.02 16.4021 1135.25 16.9667C1131.19 16.4274 1127.12 15.9639 1123.05 15.5847C1126.95 16.3346 1131.28 16.9498 1136.31 17.7839C1141.35 18.5844 1147.12 19.6291 1153.8 21.3059C1152.24 20.8087 1145.51 19.191 1140.85 18.1799C1136.19 17.1688 1133.65 16.5284 1140.65 17.4552C1144.55 18.2135 1149.71 19.1067 1157.17 20.6233C1157.12 21.0867 1164.43 22.5192 1173.18 25.5525L1172.42 25.8475C1174.76 26.6732 1176.51 27.2208 1177.83 27.7095C1179.15 28.1982 1180.11 28.5351 1180.96 28.8216C1181.82 29.0912 1182.52 29.3777 1183.36 29.6979C1184.2 30.0349 1185.2 30.3973 1186.54 30.9955C1187.75 31.6527 1188.86 32.2511 1189.85 32.7903C1190.84 33.338 1191.67 33.9108 1192.44 34.3911C1193.99 35.3348 1195.09 36.2195 1195.98 36.9189C1197.8 38.2923 1198.58 39.2782 1199.5 40.1797C1200.38 40.8369 1201.03 41.4603 1201.58 41.9575C1202.14 42.4546 1202.58 42.8421 1202.92 43.1454C1203.61 43.7268 1203.83 44.0135 1203.86 43.9798C1203.88 43.9713 1203.68 43.668 1203.34 43.2972C1202.98 42.9265 1202.5 42.4293 1202.05 41.9575C1201.15 40.9969 1200.29 40.1291 1200.65 40.3398C1200.85 40.4325 1201.32 40.8285 1202.24 41.6121C1202.7 42.0081 1203.28 42.4968 1203.97 43.1287C1204.62 43.7944 1205.38 44.5947 1206.29 45.53C1208.62 48.3358 1210.66 51.0573 1212.17 53.9811C1213.03 55.3882 1213.61 56.9048 1214.3 58.3793L1214.54 58.9355L1214.74 59.5084L1215.14 60.6626C1215.4 61.4378 1215.72 62.1961 1215.92 62.9966C1216.12 63.797 1216.33 64.606 1216.53 65.4233C1216.63 65.8362 1216.76 66.2406 1216.83 66.6619C1216.89 67.0832 1216.97 67.5045 1217.03 67.9342C1217.17 68.7852 1217.32 69.6529 1217.47 70.5376C1217.58 71.456 1217.7 72.3914 1217.82 73.3519C1218.32 77.1604 1218.86 81.2553 1219.46 85.8221C1220.54 96.5397 1218.92 83.9936 1219.22 87.8442L1220.76 97.2728C1221.02 99.5899 1220.81 98.8568 1220.7 98.4861C1221.81 106.448 1221.3 99.0757 1222.94 111.613C1223.92 114.933 1225.16 137.472 1227.31 152.95C1227.53 156.801 1226.81 151.13 1226.73 152.327C1227.99 162.968 1228.45 167.544 1228.88 171.639C1229.32 175.733 1229.74 179.34 1230.62 188.103C1230.84 193.099 1231 198.096 1231.12 203.092C1230.93 192.071 1232.25 206.092 1232.89 218.435C1233 214.517 1233.03 211.172 1233.04 208.923C1233.38 215.486 1233.62 222.058 1233.74 228.639C1233.66 231.024 1233.48 229.035 1233.24 225.808C1233.29 227.148 1233.34 228.428 1233.38 229.423C1233.17 236.475 1232.89 232.81 1232.59 227.771C1232.67 225.37 1232.76 222.985 1232.84 220.677C1232.43 215.815 1231.92 211.282 1231.64 212.31C1231.74 213.582 1231.87 216.042 1231.96 218.756C1231.84 217.483 1231.74 216.674 1231.71 217.264C1231.66 217.93 1231.85 219.977 1232.02 223.196C1231.83 224.687 1231.68 226.179 1231.47 227.67L1231.71 228.748C1231.61 237.317 1231.32 245.878 1230.7 254.405C1230.43 263.581 1230.05 272.175 1228.82 282.041C1228.19 286.971 1227.39 292.228 1226.09 297.975C1224.8 303.721 1223.07 309.982 1220.33 316.739C1220.94 315.037 1221.19 314.06 1221.27 313.562C1221.35 313.065 1221.26 313.057 1221.1 313.234C1220.76 313.604 1220.13 314.759 1219.95 314.481C1221.62 310.917 1223.41 305.575 1224.91 299.239C1226.43 292.911 1227.7 285.606 1228.78 278.149C1227.55 285.917 1227.55 284.156 1227.78 282.176C1227.5 284.392 1227.1 286.591 1226.75 288.799C1226.33 290.99 1225.96 293.197 1225.48 295.371C1224.57 299.744 1223.46 304.067 1222.14 308.322C1221.92 307.605 1220.19 313.664 1217.1 319.848C1218.51 317.624 1216.82 322.308 1213.32 328.308C1211.52 331.265 1209.3 334.56 1206.84 337.382C1206.25 338.115 1205.59 338.755 1204.99 339.43C1204.68 339.758 1204.38 340.087 1204.08 340.407C1203.77 340.71 1203.46 341.005 1203.15 341.3C1202.55 341.881 1201.95 342.438 1201.4 342.968C1200.82 343.465 1200.27 343.929 1199.77 344.359C1199.42 344.451 1199.71 344.047 1201.32 342.598C1202.83 341.03 1205.74 338.477 1209.64 333.253C1205.13 338.831 1201.88 342.058 1198.4 345.049C1197.51 345.749 1196.62 346.482 1195.67 347.181C1194.69 347.822 1193.69 348.529 1192.57 349.178C1190.31 350.417 1187.7 351.714 1184.32 352.633C1185.07 352.38 1185.73 352.161 1186.32 351.967C1186.9 351.731 1187.4 351.52 1187.85 351.327C1188.74 350.931 1189.42 350.661 1189.95 350.316C1189.13 350.745 1188.13 351.15 1187.05 351.63C1186.51 351.883 1185.92 352.085 1185.32 352.287C1184.72 352.49 1184.1 352.709 1183.47 352.919C1182.21 353.341 1180.87 353.619 1179.58 353.964C1178.27 354.25 1176.97 354.444 1175.77 354.663C1170.86 355.287 1167.39 355.599 1169.5 355.211L1172.66 354.798C1170.03 355.127 1167.06 355.506 1163.86 355.91C1162.26 356.104 1160.61 356.34 1158.92 356.525C1157.22 356.686 1155.48 356.846 1153.71 357.006C1150.19 357.343 1146.55 357.68 1142.93 358.025C1139.31 358.261 1135.71 358.505 1132.24 358.733C1130.51 358.851 1128.82 358.969 1127.17 359.087C1125.53 359.213 1123.92 359.247 1122.39 359.331C1119.33 359.491 1116.52 359.634 1114.11 359.752C1111.69 359.904 1109.65 360.039 1108.12 360.132C1106.59 360.224 1105.56 360.317 1105.18 360.41C1104.96 360.317 1107.94 359.517 1109.22 359.34L1090.3 360.814L1071.34 361.994C1073.01 361.699 1070.64 361.168 1070.07 360.671C1069.48 360.182 1070.69 359.761 1079.49 359.584C1076.96 359.55 1074.14 359.508 1070.61 359.466C1067.08 359.416 1062.85 359.399 1057.52 359.441C1060.96 359.567 1066.11 360.427 1061.39 360.427C1048.46 359.601 1052.41 359.955 1036.46 359.104C1041.63 359.323 1035.87 360.191 1027.7 360.005C1028.98 359.887 1027.03 359.045 1030.02 359.003L1009.66 359.542C1014.74 359.474 1010.57 358.758 1006.02 358.404C1008.13 358.632 988.425 358.05 982.998 358.059L991.624 358.43C980.137 358.135 974.455 358.421 968.798 358.666C965.97 358.792 963.149 358.927 959.606 359.003C956.062 359.095 951.811 359.146 946.104 359.079C948.867 358.91 952.937 357.941 941.335 357.722C936.015 358.135 917.786 359.904 897.633 360.368L893.76 360.123L878.294 360.57C883.104 360.165 892.272 359.525 902.081 358.893C911.891 358.32 922.35 357.823 929.742 357.52C921.141 357.292 927.349 357.191 914.456 357.208C909.909 356.947 921.478 356.82 925.277 356.812C915.278 356.77 905.272 356.627 895.273 356.702C896.613 357.258 872.333 357.461 873.484 357.924L906.061 357.09C906.719 357.36 902.016 357.772 894.484 358.168C890.718 358.362 886.253 358.531 881.394 358.666C876.534 358.767 871.297 358.876 865.985 358.986C860.574 358.859 870.014 357.907 869.57 357.722C866.815 357.966 849.408 358.472 847.451 358.371L856.463 357.899C850.543 357.907 845.725 358.177 840.602 358.43C835.48 358.725 830.061 358.994 822.949 358.935C818.04 359.045 808.28 358.649 807.441 359.003C815.466 359.407 817.086 361.353 811.774 361.994C810.056 361.969 786.005 362.246 780.406 362.112C772.315 361.884 792.484 360.494 785.602 360.3C785.314 360.46 780.858 360.806 779 360.932C773.844 360.974 781.113 360.393 769.93 360.823C768.08 361.454 747.171 361.488 764.66 361.471C753.724 361.968 753.025 361.733 740.173 362.129C744.276 362.39 728.67 363.704 717.701 364.168C718.343 364.007 715.876 363.873 714.684 363.814C703.46 364.024 694.843 364.176 686.407 364.21C682.189 364.243 678.02 364.277 673.596 364.311C669.172 364.328 664.494 364.345 659.264 364.362C657.332 364.269 647.243 364.066 651.535 363.831C648.526 363.923 645.763 364.109 639.309 364.1C633.068 363.788 636.661 363.831 640.632 363.805C644.604 363.788 648.937 363.755 644.184 363.443C643.37 363.805 627.493 363.788 618.3 363.772C621.112 364.395 639.539 364.252 648.74 364.016C648.764 364.37 644.768 364.715 638.026 365.01C631.283 365.221 621.803 365.406 610.851 365.246C593.452 364.884 603.327 364.538 600.301 364.555C592.136 364.252 586.323 364.033 581.752 363.923C577.188 363.822 573.874 363.805 570.742 363.763C564.468 363.696 558.893 363.62 545.367 362.592C534.645 361.522 544.931 361.674 542.563 361.21C549.643 361.522 555.061 361.909 559.921 362.272C564.772 362.617 569.064 362.954 573.858 363.199L562.067 362.364C566.573 362.44 576.02 362.853 581.159 363.199C578.915 363.005 574.343 362.735 568.365 362.373C562.388 362.027 554.996 361.606 547.102 361.151C531.315 360.233 513.505 359.163 500.933 358.253C496.452 358.152 488.731 357.865 492.374 358.253L500.333 358.64C507.626 359.416 485.327 358.295 495.391 359.036C490.047 358.859 484.373 358.666 478.165 358.463C471.957 358.261 465.207 357.975 457.691 357.494L454.887 356.837C455.2 357.006 464.697 357.638 468.931 357.688C465.79 357.646 460.043 357.183 454.205 356.77C448.367 356.408 442.455 356.121 439.01 356.323L449.535 357.098C444.165 357.031 438.163 356.955 431.84 356.879C425.517 356.787 418.865 356.719 412.205 356.424C418.256 357.115 415.28 356.458 424.736 357.334C420.641 356.846 429.168 357.073 437.061 357.419C444.963 357.73 452.24 358.017 445.662 357.368C455.348 358.396 462.46 358.438 475.123 359.635C474.736 359.458 470.642 359.062 481.816 359.752C482.326 359.736 483.518 359.736 484.274 359.744C484.612 359.769 484.735 359.778 485.031 359.803C484.809 359.786 484.644 359.769 484.414 359.744C484.899 359.744 484.941 359.744 484.184 359.727C481.528 359.5 479.374 359.289 478.502 359.146C484.077 359.078 501.854 360.081 507.881 360.241C514.508 360.713 505.094 360.275 508.703 360.662L517.707 360.882C518.578 361.311 535.303 362.533 519.656 361.842L533.724 362.685C541.996 363.384 553.392 364.117 560.431 364.345C567.066 364.774 577.229 364.808 571.432 364.799C578.8 365.103 586.175 365.356 593.543 365.583L593.74 365.684C615.562 366.611 638.684 366.325 663.639 366.83C667.314 366.763 671.047 366.687 675.405 366.611C679.755 366.518 684.729 366.443 690.872 366.4L693.272 366.687C702.695 366.384 721.599 366.409 725.636 365.929C735.832 366.552 771.386 364.808 787.962 364.353L788.579 363.906C794.285 363.721 799.868 363.51 805.797 363.258C811.717 363.013 817.99 362.761 825.062 362.474L824.182 362.12C827.232 361.952 830.719 361.825 834.526 361.724C838.341 361.615 842.485 361.539 846.851 361.522C855.583 361.463 865.204 361.395 874.857 361.227C873.541 361.362 868.649 361.438 865.187 361.412C868.073 361.463 870.992 361.471 873.944 361.471C876.896 361.488 879.864 361.48 882.849 361.446C888.819 361.387 894.829 361.252 900.782 361.109C912.68 360.89 924.307 360.696 934.766 361.042C939.979 360.949 943.753 361.033 947.412 361.16C946.927 361.16 946.491 361.168 946.121 361.168C946.655 361.177 947.445 361.185 948.259 361.193C950.561 361.278 952.929 361.362 955.494 361.454C953.315 361.345 951.227 361.252 949.401 361.202C953.422 361.21 959.523 361.219 965.501 361.235L968.042 361.674C968.527 361.674 968.922 361.682 969.423 361.682C975.286 361.918 974.143 361.564 971.018 361.21C974.028 361.185 976.79 361.151 978.928 361.084C983.681 361.792 994.617 361.143 1001.1 361.952C1005.14 361.674 1031.17 362.297 1034.36 361.623C1034.57 361.716 1036.33 361.792 1033.1 361.741C1039.77 361.935 1046.43 362.146 1052.4 362.036L1055.22 362.584L1069.79 362.061C1078.64 362.423 1082.31 362.584 1073.52 362.971C1084.13 362.668 1088.43 362.651 1092.34 362.55C1096.25 362.44 1099.77 362.331 1108.78 361.901L1107.91 362.247C1111.13 362.171 1115.32 361.876 1119.19 361.674C1123.05 361.454 1126.6 361.328 1128.55 361.311C1130.36 361.278 1132.83 361.193 1135.84 361.058C1137.34 360.983 1138.99 360.907 1140.75 360.823C1141.63 360.772 1142.54 360.721 1143.48 360.671C1144.41 360.587 1145.38 360.511 1146.37 360.427C1150.33 360.073 1154.72 359.685 1159.41 359.272C1164.08 358.674 1169.05 358.042 1174.19 357.393C1179.36 356.719 1184.77 355.405 1189.86 353.172C1190.51 352.919 1191.13 352.616 1191.75 352.296L1193.62 351.352C1194.86 350.695 1196.04 349.936 1197.24 349.22C1198.39 348.403 1199.56 347.645 1200.66 346.777L1202.3 345.454L1203.11 344.797L1203.88 344.081C1208.02 340.34 1211.54 336.025 1214.47 331.577C1217.4 327.128 1219.74 322.544 1221.67 318.154C1220.73 319.772 1220.73 319.562 1221.23 318.315C1221.47 317.691 1221.86 316.806 1222.31 315.761C1222.74 314.7 1223.23 313.478 1223.74 312.181C1225.78 306.999 1227.62 300.553 1227.44 299.727C1228.22 297.638 1229.51 292.456 1228.31 298.548C1230.47 289.01 1231.66 281.772 1232.54 275.259C1233.4 268.746 1233.9 262.949 1234.01 256.225C1234.38 254.017 1234.08 260.404 1234.34 258.432C1234.4 256.865 1234.53 252.248 1234.74 250.226C1234.96 248.254 1234.84 253.082 1234.71 256.166C1235.3 246.224 1235.12 240.747 1234.95 237.579C1234.72 234.411 1234.39 233.551 1234.07 232.827C1234.41 222.783 1234.21 217.77 1233.55 210.54C1233.63 207.044 1233.65 201.205 1234.16 213.506C1234.1 210.043 1233.76 199.469 1233.13 189.695C1232.52 179.921 1231.69 170.939 1231.4 170.611C1231.36 168.437 1230.59 160.972 1230.35 159.169C1228.89 143.724 1228.78 142.359 1227.04 127.226L1227.43 131.431C1226.13 125.533 1225.86 118.868 1224.34 106.693L1224.44 107.03C1223 93.0261 1222.58 90.0265 1222.19 87.0607C1221.99 85.5777 1221.79 84.1115 1221.49 81.2805C1221.34 79.865 1221.16 78.1124 1220.93 75.8543C1220.82 74.7253 1220.7 73.4614 1220.57 72.0543C1220.5 71.3465 1220.45 70.6136 1220.35 69.8216C1220.24 69.0211 1220.13 68.187 1220.01 67.3107L1219.85 68.8946C1219.7 68.5829 1219.53 67.9679 1219.36 67.0916C1219.22 66.2153 1218.92 65.103 1218.6 63.7886C1218.43 63.1314 1218.29 62.4154 1218.08 61.6739C1217.84 60.9408 1217.59 60.1572 1217.33 59.3399C1217.2 58.9271 1217.07 58.5142 1216.93 58.0845C1216.78 57.6632 1216.59 57.2504 1216.42 56.8206C1216.06 55.9612 1215.69 55.0679 1215.31 54.158C1213.58 50.5854 1211.2 46.8613 1208.33 43.5247C1205.46 40.1713 1202.03 37.3401 1198.76 35.0231C1199.54 35.5876 1200.25 36.2616 1201 36.8767C1201.73 37.517 1202.5 38.0984 1203.18 38.7978C1199.77 36.0341 1194.93 32.2847 1189.65 29.1419C1184.4 25.9822 1178.83 23.3197 1174.7 21.8368C1173.82 21.4745 1174.54 21.7019 1175.8 22.1316C1177.06 22.5697 1178.87 23.1596 1180.1 23.6736C1178.78 23.0753 1177.59 22.6456 1176.55 22.2328C1175.5 21.8283 1174.59 21.4745 1173.8 21.188C1172.2 20.6487 1171.09 20.2864 1170.31 20.0504C1168.76 19.5702 1168.55 19.6124 1168.52 19.7135C1168.49 19.8146 1168.62 19.983 1167.74 19.8398C1167.3 19.7724 1166.61 19.6206 1165.51 19.351C1164.97 19.2078 1164.32 19.0394 1163.55 18.8456C1162.77 18.6602 1161.89 18.4411 1160.85 18.1884C1159.36 17.666 1160.38 17.7418 1160.39 17.5817C1160.39 17.5059 1160.14 17.371 1159.2 17.0761C1158.25 16.7644 1156.6 16.3685 1153.81 15.7281C1151.05 15.0035 1142.87 13.5373 1133.42 12.4841C1123.98 11.3803 1113.3 10.5799 1105.58 9.81319C1107.28 10.0238 1108.97 10.2597 1109.25 10.3945C1109.54 10.5209 1108.42 10.5124 1104.51 10.3524C1098.52 9.99004 1090.42 9.40866 1082.45 9.08005C1074.48 8.74302 1066.65 8.62517 1061.23 8.98748C1059.71 8.9285 1059.13 8.86936 1059.07 8.8188C1054.48 8.91991 1047.03 9.07167 1040.05 9.33287C1033.06 9.58564 1026.53 9.9227 1023.77 10.2092C1019.51 9.63623 1005.28 10.3861 992.15 11.2793C979.019 12.1556 966.981 13.116 967.047 12.4672L938.926 14.3546L939.65 14.1777C921.675 15.2899 915.344 16.0145 909.046 16.7307C904.885 16.9077 907.911 16.5959 908.248 16.5032C895.109 17.2194 887.898 17.5817 881.213 18.0115C874.536 18.4749 868.378 18.9046 857.384 19.6713L855.082 19.3344C852.097 19.5619 842.617 19.6966 830.628 19.6713C818.64 19.6797 804.169 19.7639 791.268 20.1852C791.522 20.1346 792.057 20.0421 794.104 19.9579C765.079 20.8089 724.559 20 713.952 21.8452L694.802 22.7466C719.593 22.14 691.126 23.5135 701.33 23.4629C691.587 23.8336 676.12 23.7579 688.092 23.3197L689.967 23.3366C694.341 22.3761 659.166 24.0612 659.815 23.5388C611.056 25.3925 563.539 27.5832 517.921 30.4563L523.216 30.7427L507.306 31.7286C503.12 31.8635 501.673 31.6191 513.02 30.8945C510.027 30.9198 505.275 31.3073 501.229 31.7118C497.184 32.1162 493.854 32.5291 493.689 32.605C471.456 33.8351 502.323 31.3158 495.506 31.7539L486.256 32.4194L488.345 32.3521C480.862 33.0936 480.213 33.4305 466.572 34.3489C457.938 34.8292 462.123 34.2817 458.719 34.4923C458.727 34.467 458.448 34.4753 457.65 34.5259C456.853 34.5848 455.545 34.686 453.506 34.8377L433.476 36.1522L441.518 36.0931C432.654 36.9357 422.68 37.3485 431.955 37.2642C428.551 37.2727 422.179 37.6182 414.4 38.0227C406.622 38.4271 397.437 38.9664 388.425 39.5225C370.385 40.5336 353.003 41.5784 348.826 41.6289C336.394 42.6063 324.11 43.2382 308.882 43.8786C312.672 43.8027 314.958 44.2409 301.827 44.7802C306.579 43.4573 277.76 45.3531 267.112 44.9908C276.617 45.1425 229.773 46.6422 244.689 46.7938C233.72 47.1477 244.007 46.4063 235.677 46.4653C209.604 47.9567 178.169 48.378 145.921 50.0631C145.428 50.2401 150.838 50.181 143.931 50.7623L126.87 50.9142C120.505 51.386 121.056 52.0937 109.389 52.3465C111.041 52.3465 113.5 52.3549 109.241 52.7172C105.294 52.9784 101.331 53.2395 97.3593 53.4923C93.3879 53.7788 89.4164 54.1832 85.4286 54.5371L82.4356 54.8152L79.4426 55.1859C77.4528 55.4387 75.4547 55.6915 73.4567 55.9443C69.4606 56.4077 65.4234 57.2755 61.4684 58.3287C57.5463 59.5504 53.6488 60.9828 49.9898 62.9713C46.3391 64.9682 42.8857 67.3865 39.794 70.2428C33.6107 75.9976 29.1706 83.4965 26.3339 91.4336C23.4889 99.4044 22.1404 107.788 21.4086 116.13C20.7097 124.488 20.7015 132.855 20.7344 141.163C20.792 149.453 20.6768 157.736 20.6028 166.01C20.5124 174.284 20.3891 182.533 20.2246 190.757C20.5042 181.842 20.5288 187.782 20.5453 194.591C20.6111 190.167 20.8988 194.691 21.0962 193.824L20.5535 221.367C21.0962 226.389 20.5864 250.9 21.1044 253.773L21.014 245.052C21.6224 256.655 22.3707 228.816 23.16 230.518C22.4611 217.525 24.1878 196.267 23.1929 174.958C23.3491 170.257 23.4478 178.969 23.6287 176.458C23.2916 171.057 23.2258 164.536 23.3738 152.445L23.456 153.81C23.4725 145.308 23.2916 138.011 23.3902 131.313C23.4642 124.606 23.7931 118.455 24.5332 112.254C25.339 106.069 26.4819 99.7667 28.8582 93.1103C30.0586 89.7906 31.5469 86.3781 33.5614 82.9741C35.6006 79.5953 38.1495 76.2166 41.4385 73.1075C40.7232 73.6468 39.9749 74.1609 39.2678 74.7338C42.0058 71.9196 43.8806 70.4619 45.3853 69.4003C46.15 68.8863 46.8078 68.448 47.4655 68.0099C48.1316 67.5886 48.8387 67.2347 49.6198 66.7798C51.4616 65.499 51.215 65.5582 49.8994 66.2996C49.2498 66.6788 48.3043 67.1842 47.2764 67.8667C46.7749 68.2206 46.2404 68.5998 45.6895 68.9958C45.1386 69.3919 44.5548 69.7794 44.0368 70.2428C39.6378 73.7311 36.135 78.3736 38.5442 74.9612C40.4436 73.1496 43.8888 69.7878 48.8716 66.8388C53.8133 63.8476 60.2103 61.3368 66.7883 59.9466C68.441 59.6517 70.0937 59.3483 71.7135 59.0534C73.3745 58.8427 75.0025 58.6405 76.5976 58.4383C79.7797 58.0507 82.7809 57.6295 85.5108 57.4441C90.9458 56.9976 95.131 56.6858 96.9318 56.7869C109.183 55.8685 93.3056 56.6015 105.557 55.6831L108.821 55.6915L111.897 55.1439C119.946 54.7058 124.025 54.773 124.337 54.9584C122.38 55.051 118.795 55.3545 116.699 55.4977C127.141 55.0933 146.127 53.7788 149.72 53.6945L137.904 54.1327C171.419 52.1779 212.424 51.0321 244.837 49.2037L242.37 49.1194C267.12 47.7628 262.219 48.538 289.403 47.2067L288.416 47.291C293.851 46.8782 301.111 46.4483 308.553 46.1282C301.695 46.6674 321.487 45.9597 312.491 46.6169C325.91 45.8165 329.224 45.5637 331.403 45.3446C333.582 45.1171 334.61 44.915 343.457 44.1229L347.56 44.2239C353.587 43.6426 354.089 43.4741 367.656 42.64C356.539 43.5247 376.347 42.6315 363.89 43.6763C392.413 42.8253 406.137 40.5082 419.26 40.7189C425.772 39.8342 419.605 40.1712 412.723 40.542C405.841 40.9296 398.243 41.4435 401.902 41.1317C395.752 41.216 412.657 39.8511 421.595 39.3456C430.681 38.7389 437.127 39.4129 459.994 37.8036C457.724 37.989 457.568 38.0058 455.299 38.1912C463.866 37.812 472.039 36.7167 482.556 36.3375C488.402 35.4191 496.189 35.4613 497.842 34.6777L476.883 36.2532C488.756 35.2505 499.856 33.7338 519.475 32.8407C517.954 33.0682 512.14 33.6075 508.136 33.9783C513.875 33.7845 519.162 33.1442 525.107 32.9672C524.285 33.3548 517.912 33.776 510.159 34.3068C502.405 34.8376 493.27 35.4444 486.922 36.1184C493.089 35.9921 510.989 34.0372 504.633 35.1831C513.777 33.6327 527.171 33.8604 542.613 32.1837L541.618 32.6385C544.068 32.4278 549.133 31.9477 553.647 31.6949L545.507 32.6891C558.022 31.5179 569.697 31.6443 581.719 30.7764C556.533 32.1498 576.037 30.5912 565.372 30.9029C596.412 28.687 583.289 30.9198 618.07 29.0156C613.359 29.302 600.375 29.6474 607.734 29.0997C614.362 28.8385 623.11 28.5941 627.189 28.6362C650.236 27.5409 623.628 28.3836 633.438 27.7095C641.307 27.8359 644.752 27.0355 654.857 26.4794L654.948 26.8838C681.235 26.1676 661.887 25.7799 685.56 25.2744L675.578 26.176L687.911 25.6284L685.379 26.1591C698.79 25.4345 702.975 25.3587 716.131 25.1734C713.064 24.9711 717.833 24.3898 729.476 24.1033C737.427 24.1791 725.036 24.5836 741.546 24.1792C737.822 24.5162 733.752 24.9121 726.557 24.693C725.825 24.8447 722.89 25.0386 722.133 25.1902C730.693 25.2492 743.627 24.7857 749.604 24.6509C747.302 24.6761 744.556 24.7183 743.142 24.693L767.061 23.6904C770.835 23.7747 767.842 23.9516 764.882 24.1201C769.725 23.9853 773.08 23.7493 780.208 23.6061C778.367 23.9684 778.819 24.2885 768.73 24.6087L791.531 23.8926C793.052 24.0106 803.239 24.1285 800.279 24.2886C806.602 24.3055 814.356 24.0358 822.62 23.783C830.883 23.5218 839.665 23.3196 848.085 23.227C848.956 23.1427 850.708 23.0332 854.276 22.8647C870.055 22.3929 884.041 22.022 902.673 20.4127L913.289 20.3285C927.883 19.2416 898.924 20.5306 923.221 18.7107C940.414 17.3794 929.676 18.7865 935.719 18.5506C944.254 17.6912 959.096 16.0819 974.932 15.6185C969.629 16.0145 965.517 16.1746 960.633 16.5285ZM1140.3 17.3795C1138.58 17.1605 1135.99 16.8403 1133.53 16.5285C1131.05 16.2589 1128.71 15.9556 1127.46 15.6775C1129.45 15.7028 1131.2 15.8629 1133.19 16.1325C1135.17 16.4443 1137.38 16.8571 1140.3 17.3795ZM1232.02 245.592C1232 244.26 1232.04 242.575 1232.09 240.629C1232.16 238.691 1232.25 236.5 1232.34 234.183C1232.34 237.554 1232.26 241.37 1232.02 245.592ZM544.561 363.03C544.709 363.03 544.816 363.03 544.94 363.03C552.71 363.628 549.955 363.409 544.561 363.03ZM528.404 361.909C526.776 361.867 526.883 361.935 527.566 362.028C528.7 361.994 532.335 362.196 536.462 362.466C535.319 362.297 533.239 362.103 528.404 361.909ZM456.894 34.7365L460.043 34.6186C452.955 35.2337 454.937 34.9893 456.894 34.7365Z" fill="#297786"/>
<path d="M0.096257 257.511C0.096257 257.511 0.096257 171.096 0.096257 139.801C0.096257 108.514 -4.49204 56.3661 49.6878 48.1717C103.868 39.9773 254.484 39.9773 432.655 27.311C610.826 14.6446 694.394 13.1539 822.052 11.6633C949.711 10.1726 1196.76 -31.5487 1206.85 60.8296C1216.96 153.208 1248.18 333.493 1162.77 346.159C1077.36 358.825 981.845 344.668 790.822 351.372C599.799 358.076 595.203 355.094 460.201 347.65C325.2 340.205 203.972 346.159 113.052 340.196C22.1333 334.242 0.096257 329.029 0.096257 257.511Z" fill="#005E90"/>
<path d="M1132.31 344.552C1131.98 344.313 1131.86 343.801 1132.41 343.771L1132.68 343.652C1132.79 343.886 1133.48 344.845 1132.31 344.552Z" fill="#3DA935"/>
<path d="M1125.52 347.165L1125.46 347.47C1125.52 347.165 1125.46 346.785 1125.35 346.556C1125.71 346.404 1126.28 346.696 1126.3 347.242C1125.98 347.242 1125.78 346.785 1125.52 347.165Z" fill="#3DA935"/>
<path d="M1127.14 337.59C1126.42 337.751 1125.63 338.686 1125.24 339.613L1124.02 339.834C1124.37 339.112 1123.67 338.244 1123.35 337.479C1123.01 337.275 1123.26 338.355 1122.72 337.692C1122.85 337.539 1123.16 337.479 1123.2 337.275C1122.63 336.714 1121.89 337.445 1121.54 335.855L1121.9 335.133C1120.88 332.574 1118.93 330.287 1118.53 327.617C1117.79 327.422 1117.49 326.087 1116.83 325.475L1117.16 325.322C1116.42 325.126 1116.84 324.089 1116.56 323.579L1116.69 322.958C1117.17 322.542 1117.49 324.234 1118.15 323.46C1118.21 322.227 1116.69 322.032 1116.94 320.901C1116.75 319.983 1116.39 320.238 1116.01 319.779C1115.61 319.779 1115.74 320.093 1115.33 320.195C1114.36 318.359 1116.11 317.517 1115.28 315.885C1114.98 315.936 1113.74 314.873 1113.82 316.31L1114.4 316.769L1114.18 317.339C1113.98 316.88 1113.68 316.012 1113.33 316.267C1114.36 315.128 1110.88 313.572 1113.31 314.057C1113.31 314.984 1113.46 315.188 1114.18 315.485C1113.59 313.64 1113.49 311.847 1112.93 310.359L1112.19 310.163C1112.74 309.9 1112.83 309.024 1112.7 308.259C1112.47 308.004 1112.36 307.596 1112.12 307.8C1111.72 307.8 1112.92 310.461 1111.44 309.602C1111.03 307.859 1110.86 305.912 1111.25 304.518C1111.69 305.232 1111.75 305.844 1112.82 306.354C1114.64 308.803 1115.22 312.034 1117.17 314.32C1116.82 314.584 1116.95 315.349 1116.47 315.307C1116.3 315.664 1116.85 316.225 1116.38 316.641C1117.74 318.478 1118.37 321.037 1119.04 322.933C1119.83 321.997 1120.12 323.791 1120.73 324.149C1120.5 324.82 1121.01 325.585 1121.27 326.197C1121.47 326.197 1121.68 326.554 1121.92 326.342C1121.62 325.934 1121.77 325.679 1121.68 325.16C1122.49 325.05 1122.05 326.18 1122.28 326.903L1121.74 326.699C1122.17 327.872 1121.47 329.785 1122.58 330.542L1122.93 329.36C1123.76 330.533 1123.42 332.54 1124.66 333.143C1124.58 332.166 1123.47 330.95 1124.43 330.576C1124.96 330.414 1125.32 331.443 1125.3 332.004C1125.16 334.47 1127.84 335.218 1127.14 337.59Z" fill="#3DA935"/>
<path d="M1128.16 334.107C1127.33 332.34 1126.19 333.804 1125.59 332.027C1126.27 332.018 1126.4 331.001 1126.2 330.403C1125.62 329.974 1125.57 329.225 1125.35 328.742C1125.33 328.368 1126.06 328.144 1126.36 328.787C1125.87 330.84 1128.63 332.161 1128.16 334.107Z" fill="#3DA935"/>
<path d="M1124.73 329.335C1124.37 328.766 1124.12 327.221 1124.97 326.87C1125 326.756 1125.5 326.746 1125.19 326.471C1125.17 327.097 1125.78 328.7 1124.73 329.335Z" fill="#3DA935"/>
<path d="M1122.49 329.263C1122.49 329.55 1122.49 328.892 1122.49 328.752V328.38C1122.49 328.605 1122.49 328.93 1122.49 329.263Z" fill="#3DA935"/>
<path d="M1122.49 323.994C1122.39 323.182 1123.44 324.507 1123.16 323.608L1123.44 324.081L1122.75 324.562L1122.49 323.994Z" fill="#3DA935"/>
<path d="M1122.49 322.653C1122.49 322.474 1122.49 322.236 1122.49 321.699V321.818C1122.49 321.927 1122.49 322.295 1122.49 322.653Z" fill="#3DA935"/>
<path d="M1121.53 324.472C1121.53 324.106 1121.53 323.984 1121.53 323.608C1121.53 323.669 1121.53 324.9 1121.53 324.472Z" fill="#3DA935"/>
<path d="M1114.85 322.653C1115.5 322.71 1115.42 323.238 1115.8 323.608C1115.42 323.238 1115.03 323.151 1114.85 322.653Z" fill="#3DA935"/>
<path d="M1134.92 350.334C1134.79 350.783 1135.26 351.12 1135.62 351.288L1135.85 351.007L1134.92 350.334Z" fill="#3DA935"/>
<path d="M1133.52 345.564C1132.7 345.524 1133.25 345.952 1132.98 346.767C1133.16 347.622 1134.04 348.239 1134.32 349.047L1134.89 349.379C1134.75 348.326 1134.31 346.561 1133.52 345.564Z" fill="#3DA935"/>
<path d="M1138.56 358.514C1138.11 357.468 1138.1 355.757 1136.73 354.968C1136.79 355.566 1136.57 355.674 1136.77 356.571C1135.57 356.33 1136.39 355.218 1136.07 354.47C1136.11 355.176 1135.38 354.529 1135.11 354.03C1134.96 352.926 1134.24 351.381 1133.67 350.028C1133.09 349.58 1132.88 347.429 1132.06 348.085C1131.66 347.288 1132.32 346.881 1132.28 346.175C1130.47 344.788 1132.99 342.057 1130.89 340.62C1131.49 340.512 1131.02 339.566 1130.91 339.167C1130.61 338.32 1129.89 336.319 1129.03 337.183C1128.56 338.038 1130.14 338.727 1129.8 339.881C1129.28 341.841 1128.75 338.486 1127.8 338.852C1128.06 339.001 1127.28 339.458 1127.84 340.006C1126.86 338.76 1127.04 341.019 1126.19 340.521C1126.27 342.372 1126.21 342.223 1125.35 343.535C1125.92 344.431 1126.64 343.825 1127.19 343.917C1128.06 344.764 1127.31 346.017 1127.91 346.814C1126.19 346.731 1127.39 348.774 1127.84 349.82C1128.31 351.224 1129.29 349.754 1129.74 351.257C1129.33 352.262 1128.24 350.169 1127.88 351.423L1128.43 351.971C1129.16 352.162 1130.01 352.204 1130.61 352.552C1130.74 352.851 1130.93 353.3 1130.72 353.408C1130.25 352.909 1129.78 353.316 1129.71 354.072C1130.05 354.271 1130.14 354.321 1130.41 354.362C1131.49 352.494 1131 355.608 1132.25 356.098C1134.52 358.082 1130.94 358.165 1132.57 360.357C1133.63 359.045 1133.92 361.703 1134.75 362.292C1134.99 362.99 1134.7 363.396 1134.47 364.052C1134.69 364.177 1134.97 364.675 1135.27 364.65C1136.93 363.521 1138.02 361.229 1138.71 358.556C1138.65 358.531 1138.6 358.497 1138.56 358.514Z" fill="#3DA935"/>
<path d="M1140.61 313.456C1140.69 314.093 1140.42 315.131 1139.96 314.915L1139.67 315.017C1139.72 314.473 1139.91 312.265 1140.61 313.456Z" fill="#3DA935"/>
<path d="M1147.09 314.425L1147.3 314.196C1147.09 314.426 1146.96 314.776 1146.95 315.017C1146.56 315.005 1146.19 314.522 1146.42 314.063C1146.7 314.184 1146.66 314.655 1147.09 314.425Z" fill="#3DA935"/>
<path d="M1141.2 322.791C1141.93 322.945 1143.04 322.399 1143.78 321.699L1145 322.015C1144.69 322.271 1144.61 322.68 1144.61 323.124C1144.61 323.568 1144.7 324.055 1144.71 324.473C1144.96 324.797 1145.12 323.696 1145.38 324.533C1145.19 324.627 1144.89 324.55 1144.76 324.72C1145.08 325.472 1146.05 325.088 1145.78 326.692L1145.17 327.23C1145.21 328.621 1145.48 330.03 1145.69 331.421C1145.92 332.812 1146.07 334.178 1145.84 335.509C1146.49 335.936 1146.38 337.302 1146.82 338.087L1146.46 338.138C1147.11 338.557 1146.39 339.41 1146.53 339.982L1146.23 340.537C1145.64 340.793 1145.8 339.069 1144.95 339.615C1144.54 340.784 1145.97 341.425 1145.43 342.449C1145.36 343.396 1145.76 343.251 1146.03 343.797C1146.41 343.9 1146.36 343.567 1146.8 343.584C1147.29 345.616 1145.36 345.974 1145.77 347.792C1146.09 347.818 1147.07 349.158 1147.32 347.741C1147.16 347.545 1147 347.348 1146.85 347.152L1147.21 346.657C1147.25 346.905 1147.28 347.263 1147.37 347.528C1147.45 347.801 1147.59 347.988 1147.79 347.903C1146.51 348.765 1149.6 351.095 1147.3 350.054C1147.51 349.149 1147.41 348.919 1146.77 348.45C1146.85 349.423 1146.81 350.353 1146.78 351.241C1146.76 352.128 1146.77 352.973 1146.9 353.767L1147.59 354.117C1147 354.262 1146.73 355.107 1146.72 355.901C1146.92 356.2 1146.95 356.627 1147.23 356.464C1147.43 356.499 1147.33 355.807 1147.38 355.235C1147.43 354.672 1147.59 354.245 1148.25 354.817C1148.26 355.713 1148.27 356.644 1148.16 357.523C1148.05 358.402 1147.85 359.221 1147.53 359.879C1147.22 359.085 1147.26 358.462 1146.27 357.762C1145.93 357.062 1145.63 356.328 1145.44 355.577C1145.23 354.826 1145.07 354.049 1144.91 353.289C1144.82 352.905 1144.74 352.521 1144.64 352.145C1144.55 351.761 1144.46 351.386 1144.36 351.01C1144.15 350.268 1143.9 349.534 1143.54 348.842C1143.94 348.671 1143.99 347.877 1144.45 348.048C1144.71 347.741 1144.3 347.033 1144.87 346.751C1144.44 345.667 1144.2 344.455 1144.1 343.251C1144.01 342.048 1144 340.87 1143.94 339.846C1143.42 340.178 1143.21 339.888 1143.08 339.436C1142.96 338.992 1142.9 338.395 1142.65 338.121C1143.09 337.549 1142.82 336.636 1142.75 335.953C1142.56 335.894 1142.46 335.467 1142.17 335.586C1142.34 336.081 1142.11 336.286 1142.04 336.815C1141.23 336.653 1141.98 335.697 1142 334.921L1142.45 335.305C1142.43 334.007 1143.73 332.428 1142.91 331.31L1142.19 332.317C1142.09 331.959 1142.07 331.583 1142.09 331.19C1142.12 330.806 1142.19 330.414 1142.23 330.03C1142.32 329.27 1142.34 328.561 1141.85 328.032C1141.58 328.997 1142.2 330.593 1141.16 330.584C1140.61 330.542 1140.62 329.415 1140.85 328.877C1141.1 328.297 1141.14 327.751 1141.1 327.23C1141.06 326.709 1140.93 326.206 1140.81 325.711C1140.59 324.72 1140.41 323.764 1141.2 322.791Z" fill="#3DA935"/>
<path d="M1140.06 325.517C1140.1 327.606 1141.69 326.566 1141.57 328.553C1140.95 328.311 1140.46 329.286 1140.42 329.964C1140.79 330.605 1140.54 331.376 1140.59 331.951C1140.47 332.341 1139.73 332.313 1139.68 331.552C1140.28 330.595 1140.09 329.546 1139.88 328.497C1139.78 327.977 1139.68 327.448 1139.67 326.947C1139.67 326.445 1139.77 325.962 1140.06 325.517Z" fill="#3DA935"/>
<path d="M1141.54 332.198C1141.7 332.677 1141.28 333.813 1140.16 333.875C1140.07 333.95 1139.49 333.84 1139.72 334.107C1140.03 333.676 1140.06 332.41 1141.54 332.198Z" fill="#3DA935"/>
<path d="M1142.53 332.232C1142.53 331.987 1142.53 333.139 1142.53 333.447V334.107C1142.53 333.508 1142.53 332.74 1142.53 332.232Z" fill="#3DA935"/>
<path d="M1141.58 337.662C1141.41 338.558 1140.76 336.792 1140.75 337.85L1140.62 337.252L1141.51 336.971L1141.58 337.662Z" fill="#3DA935"/>
<path d="M1140.62 338.88C1140.62 339.121 1140.62 339.37 1140.62 339.834V339.619C1140.62 339.456 1140.62 339.232 1140.62 338.88Z" fill="#3DA935"/>
<path d="M1142.41 338.058C1142.84 338.57 1142.01 338.528 1141.71 338.88C1141.22 338.709 1142.22 337.536 1142.41 338.058Z" fill="#3DA935"/>
<path d="M1148.26 341.743C1147.22 341.424 1147.7 340.58 1147.3 339.834C1147.7 340.58 1148.29 340.864 1148.26 341.743Z" fill="#3DA935"/>
<path d="M1140.28 307.381C1140.88 307.081 1140.57 306.681 1140.23 306.427L1139.67 306.566L1140.28 307.381Z" fill="#3DA935"/>
<path d="M1139.73 312.955C1140.32 313.433 1140.07 312.703 1140.57 312.017C1140.67 311.531 1140.6 311.019 1140.54 310.507C1140.48 309.994 1140.41 309.473 1140.47 308.987L1140.19 308.336C1140.04 308.9 1139.87 309.699 1139.76 310.533C1139.66 311.357 1139.63 312.234 1139.73 312.955Z" fill="#3DA935"/>
<path d="M1141.3 298.349C1141.13 299.521 1140.14 301.056 1140.99 302.501C1141.25 301.931 1141.51 301.956 1141.85 301.056C1142.33 301.494 1142.22 301.841 1141.99 302.187C1141.76 302.534 1141.39 302.88 1141.34 303.301C1141.68 302.649 1142 303.615 1142 304.209C1141.77 304.738 1141.61 305.447 1141.49 306.207C1141.39 306.974 1141.32 307.792 1141.25 308.543C1141.41 308.889 1141.26 309.574 1141.21 310.152C1141.17 310.73 1141.24 311.192 1141.79 311.093C1141.79 312.018 1140.96 312.067 1140.65 312.727C1140.93 313.264 1140.89 313.743 1140.71 314.205C1140.53 314.667 1140.22 315.105 1139.92 315.559C1139.3 316.458 1138.72 317.399 1139.42 318.538C1138.78 318.373 1138.83 319.471 1138.76 319.9C1138.69 320.833 1138.53 323.053 1139.76 322.591C1140.59 321.98 1139.33 320.659 1140.17 319.719C1141.54 318.109 1140.6 321.477 1141.69 321.543C1141.5 321.295 1142.46 321.196 1142.15 320.453C1142.58 322.021 1143.38 319.859 1144.01 320.676C1144.74 318.943 1144.72 319.108 1146.16 318.291C1146.01 317.234 1145.04 317.473 1144.54 317.143C1144.08 315.988 1145.37 315.187 1145.18 314.205C1146.79 315.063 1146.63 312.703 1146.7 311.572C1146.82 310.845 1146.46 310.689 1146.12 310.515C1145.77 310.342 1145.43 310.161 1145.61 309.393C1146.51 308.716 1146.48 311.077 1147.47 310.152L1147.22 309.409C1146.63 308.889 1145.84 308.427 1145.45 307.825C1145.49 307.494 1145.53 307.007 1145.78 307.024C1145.98 307.701 1146.63 307.577 1147.07 306.958C1146.85 306.62 1146.8 306.529 1146.57 306.347C1144.56 307.42 1146.69 304.96 1145.78 303.896C1145.25 302.435 1145.86 302.162 1146.54 301.915C1147.21 301.667 1147.98 301.444 1147.84 300.074C1146.99 300.338 1146.86 299.876 1146.9 299.216C1146.93 298.555 1147.17 297.722 1146.97 297.235C1147.17 296.517 1147.66 296.335 1148.26 295.931C1148.13 295.7 1148.17 295.122 1147.89 294.973C1145.74 294.949 1143.41 296.253 1141.21 298.225C1141.23 298.283 1141.26 298.341 1141.3 298.349Z" fill="#3DA935"/>
<path d="M1171.16 315.683C1171.09 316.046 1170.84 316.45 1170.56 316.692C1170.29 316.948 1169.96 317.028 1169.69 316.759L1169.26 316.652C1169.54 316.127 1170.73 313.933 1171.16 315.683Z" fill="#3DA935"/>
<path d="M1176.89 319.398V319.301C1176.89 319.398 1176.89 319.619 1176.89 319.79C1176.89 319.631 1176.89 319.117 1176.89 318.835C1176.89 319.056 1176.89 319.41 1176.89 319.398Z" fill="#3DA935"/>
<path d="M1169.35 323.608C1169.97 324.002 1171.17 323.994 1172.05 323.742L1173.07 324.455C1172.71 324.539 1172.51 324.816 1172.37 325.16C1172.24 325.504 1172.18 325.915 1172.05 326.242C1172.19 326.586 1172.67 325.798 1172.66 326.536C1172.47 326.536 1172.2 326.368 1172.05 326.461C1172.11 327.157 1173.12 327.224 1172.39 328.357L1171.68 328.558C1171.32 329.649 1171.16 330.841 1170.96 331.99C1170.8 333.156 1170.57 334.264 1169.99 335.229C1170.49 335.766 1170.04 336.798 1170.25 337.536L1169.9 337.469C1170.41 337.989 1169.5 338.442 1169.49 338.938L1169.07 339.29C1168.45 339.332 1169.03 338.014 1168.07 338.199C1167.39 339.021 1168.6 339.919 1167.82 340.582C1167.52 341.32 1167.93 341.304 1168.06 341.815C1168.41 342 1168.44 341.723 1168.85 341.841C1168.85 343.569 1166.91 343.376 1166.87 344.937C1167.17 345.037 1167.82 346.33 1168.37 345.256C1168.26 345.063 1168.16 344.87 1168.06 344.677L1168.52 344.366C1168.5 344.576 1168.45 344.861 1168.46 345.096C1168.49 345.331 1168.57 345.507 1168.78 345.491C1168.07 345.684 1168.33 346.43 1168.52 346.942C1168.71 347.454 1168.83 347.756 1167.83 347.093C1168.24 346.422 1168.19 346.212 1167.68 345.692C1167.53 346.489 1167.29 347.227 1167.07 347.932C1166.95 348.285 1166.87 348.637 1166.8 348.981C1166.72 349.325 1166.67 349.661 1166.66 349.996L1167.25 350.416C1166.65 350.416 1166.22 351.053 1166.03 351.7C1166.16 351.976 1166.11 352.337 1166.41 352.253C1166.6 352.32 1166.63 351.733 1166.8 351.288C1166.97 350.835 1167.21 350.525 1167.73 351.104C1167.68 351.288 1167.64 351.473 1167.59 351.649C1167.55 351.834 1167.51 352.018 1167.46 352.203C1167.36 352.572 1167.24 352.933 1167.1 353.277C1166.83 353.974 1166.47 354.611 1166.03 355.106C1165.88 354.401 1166.05 353.906 1165.23 353.16C1165.13 352.841 1165.05 352.522 1164.98 352.195C1164.91 351.867 1164.86 351.54 1164.86 351.213C1164.81 350.55 1164.81 349.887 1164.81 349.224C1164.81 348.889 1164.81 348.562 1164.8 348.226C1164.8 347.899 1164.8 347.563 1164.78 347.236C1164.75 346.581 1164.67 345.927 1164.48 345.272C1164.91 345.222 1165.13 344.584 1165.54 344.836C1165.85 344.643 1165.64 343.98 1166.25 343.888C1166.17 343.401 1166.15 342.89 1166.17 342.386C1166.17 342.134 1166.2 341.874 1166.22 341.622C1166.24 341.497 1166.26 341.371 1166.27 341.245L1166.35 340.867C1166.56 339.877 1166.85 338.921 1167.05 338.082C1166.48 338.199 1166.34 337.906 1166.34 337.511C1166.34 337.117 1166.44 336.622 1166.28 336.328C1166.85 335.992 1166.83 335.187 1166.95 334.616C1166.79 334.507 1166.8 334.138 1166.5 334.138C1166.52 334.591 1166.26 334.683 1166.05 335.086C1165.69 334.902 1165.75 334.667 1165.93 334.407C1166.03 334.272 1166.14 334.138 1166.25 333.996C1166.37 333.853 1166.47 333.702 1166.52 333.551L1166.85 333.996C1167.19 332.947 1168.84 332.116 1168.39 330.95L1167.43 331.512C1167.43 331.193 1167.52 330.883 1167.66 330.581C1167.8 330.278 1167.97 329.993 1168.12 329.708C1168.43 329.137 1168.65 328.583 1168.36 327.988C1167.82 328.667 1167.94 330.144 1166.97 329.792C1166.46 329.574 1166.81 328.667 1167.18 328.315C1167.58 327.938 1167.78 327.518 1167.89 327.081C1168.02 326.654 1168.05 326.209 1168.1 325.773C1168.19 324.917 1168.32 324.078 1169.35 323.608Z" fill="#3DA935"/>
<path d="M1166.71 325.517C1166.08 326.993 1167.89 326.755 1167.18 328.104C1166.67 327.747 1165.92 328.287 1165.68 328.747C1165.83 329.302 1165.36 329.771 1165.24 330.191C1165.03 330.437 1164.34 330.207 1164.51 329.652C1165.36 329.144 1165.49 328.35 1165.62 327.548C1165.68 327.152 1165.74 326.747 1165.88 326.39C1166.05 326.041 1166.3 325.731 1166.71 325.517Z" fill="#3DA935"/>
<path d="M1165.44 331.248C1165.4 331.565 1165.05 332.209 1164.67 332.106C1164.63 332.142 1164.46 331.999 1164.49 332.198C1164.67 331.963 1164.92 331.181 1165.44 331.248Z" fill="#3DA935"/>
<path d="M1166.96 332.198C1167.83 332.276 1166.97 332.724 1166.9 332.89L1166.41 333.153C1166.35 332.783 1166.4 332.354 1166.96 332.198Z" fill="#3DA935"/>
<path d="M1164.35 335.802C1163.95 336.644 1163.85 334.661 1163.53 335.709L1163.58 335.062L1164.48 335.093L1164.35 335.802Z" fill="#3DA935"/>
<path d="M1163.34 336.971C1163.61 337.263 1163.63 337.526 1163.15 337.925L1162.61 337.604C1162.4 337.409 1163.2 337.312 1163.34 336.971Z" fill="#3DA935"/>
<path d="M1165.41 336.221C1165.58 336.912 1164.92 336.648 1164.54 336.971C1164.2 336.633 1165.44 335.575 1165.41 336.221Z" fill="#3DA935"/>
<path d="M1169.26 340.789C1169.26 340.274 1169.26 339.632 1169.26 338.88C1169.26 339.632 1169.26 340.017 1169.26 340.789Z" fill="#3DA935"/>
<path d="M1173.07 311.199C1173.99 311.048 1174.1 310.576 1174 310.245H1173.26L1173.07 311.199Z" fill="#3DA935"/>
<path d="M1170.21 314.699C1170.87 315.44 1170.83 314.69 1171.87 314.435C1172.22 314.1 1172.35 313.641 1172.49 313.183C1172.63 312.733 1172.77 312.266 1173.07 311.905L1172.96 311.199C1172.47 311.561 1171.86 312.099 1171.31 312.716C1170.8 313.342 1170.37 314.047 1170.21 314.699Z" fill="#3DA935"/>
<path d="M1177.04 304.001C1176.73 304.42 1176.24 304.814 1175.82 305.298C1175.61 305.536 1175.43 305.807 1175.3 306.102C1175.23 306.25 1175.18 306.406 1175.15 306.57C1175.13 306.742 1175.12 306.923 1175.13 307.111C1175.56 306.775 1175.76 306.923 1176.38 306.373C1176.59 306.931 1176.37 307.152 1176.05 307.316C1175.73 307.489 1175.31 307.595 1175.1 307.899C1175.62 307.546 1175.51 308.449 1175.27 308.908C1174.89 309.22 1174.49 309.704 1174.11 310.246C1173.75 310.804 1173.39 311.428 1173.05 311.994C1173.05 312.338 1172.68 312.814 1172.43 313.249C1172.19 313.692 1172.09 314.095 1172.58 314.234C1172.26 314.964 1171.55 314.661 1171.06 315.071C1171.09 315.604 1170.9 315.974 1170.58 316.269C1170.28 316.565 1169.88 316.803 1169.47 317.041C1168.65 317.525 1167.83 318.066 1168.04 319.248C1167.55 318.871 1167.23 319.79 1167.04 320.11C1166.67 320.848 1165.81 322.596 1167.01 322.653C1167.91 322.456 1167.27 320.938 1168.29 320.479C1169.97 319.683 1168.08 322.054 1168.98 322.489C1168.9 322.227 1169.75 322.489 1169.72 321.784C1169.59 323.187 1170.95 321.759 1171.22 322.637C1171.8 322.087 1172.07 321.849 1172.39 321.726C1172.7 321.611 1173.05 321.611 1173.79 321.57C1174 320.701 1173.11 320.512 1172.8 320.06C1172.8 319.519 1173.13 319.215 1173.49 318.952C1173.84 318.682 1174.21 318.444 1174.3 318.025C1175.35 319.33 1176.01 317.459 1176.45 316.622C1176.78 316.113 1176.55 315.843 1176.33 315.564C1176.1 315.285 1175.89 315.005 1176.3 314.488C1177.28 314.357 1176.42 316.138 1177.55 315.859L1177.61 315.186C1177.31 314.538 1176.83 313.84 1176.72 313.208C1176.87 312.97 1177.07 312.609 1177.28 312.741C1177.2 313.34 1177.77 313.537 1178.35 313.258C1178.3 312.905 1178.28 312.814 1178.16 312.576C1176.15 312.503 1178.76 311.575 1178.43 310.353C1178.54 308.99 1179.14 309.064 1179.77 309.187C1180.4 309.319 1181.09 309.508 1181.49 308.408C1180.72 308.203 1180.81 307.792 1181.09 307.308C1181.37 306.824 1181.89 306.315 1181.92 305.848C1182.36 305.404 1182.81 305.511 1183.43 305.495C1183.42 305.257 1183.68 304.838 1183.52 304.592C1182.7 304.042 1181.71 303.73 1180.61 303.616C1180.06 303.558 1179.48 303.55 1178.88 303.583C1178.57 303.599 1178.26 303.632 1177.95 303.665C1177.64 303.706 1177.32 303.755 1177.02 303.821C1177.01 303.919 1177.01 303.977 1177.04 304.001Z" fill="#3DA935"/>
<path d="M1199.8 318.238C1199.75 318.604 1199.37 319.041 1199.08 318.729L1198.84 318.659C1199 318.418 1199.49 317.327 1199.8 318.238Z" fill="#3DA935"/>
<path d="M1205.53 322.253V322.163C1205.53 322.253 1205.53 322.473 1205.53 322.653C1205.53 322.486 1205.53 321.97 1205.53 321.699C1205.53 321.905 1205.53 322.253 1205.53 322.253Z" fill="#3DA935"/>
<path d="M1198.1 325.517C1198.7 325.949 1199.85 326.09 1200.73 325.957L1201.71 326.714C1200.99 326.789 1200.9 327.662 1200.63 328.227C1200.74 328.56 1201.26 327.903 1201.2 328.576C1201.01 328.551 1200.77 328.36 1200.6 328.418C1200.63 329.058 1201.61 329.266 1200.8 330.206L1200.09 330.28C1199.12 332.126 1198.95 334.504 1197.49 335.967C1197.86 336.574 1197.2 337.372 1197.25 338.103L1196.92 337.945C1197.3 338.552 1196.34 338.719 1196.2 339.143L1195.7 339.325C1195.11 339.167 1195.99 338.195 1195.03 338.078C1194.18 338.577 1195.1 339.733 1194.19 340.057C1193.72 340.597 1194.13 340.73 1194.1 341.204C1194.38 341.479 1194.48 341.254 1194.84 341.495C1194.31 342.991 1192.56 342.135 1192.06 343.44C1192.3 343.632 1192.46 344.97 1193.34 344.28L1193.24 343.665L1193.76 343.565C1193.59 343.906 1193.23 344.505 1193.64 344.629C1192.2 344.413 1193.56 347.547 1192.21 345.618C1192.81 345.211 1192.84 345.012 1192.55 344.38C1191.74 345.602 1190.64 346.466 1190.06 347.522L1190.43 348.129C1189.88 347.863 1189.25 348.187 1188.84 348.62C1188.84 348.902 1188.64 349.16 1188.94 349.235C1189.22 349.509 1190.14 347.497 1190.59 348.919C1189.73 349.975 1188.57 350.956 1187.39 351.288C1187.57 350.665 1187.92 350.349 1187.52 349.384C1187.86 347.023 1189.58 345.195 1189.74 342.809C1190.15 342.942 1190.56 342.509 1190.86 342.867C1191.22 342.834 1191.19 342.185 1191.8 342.343C1192.07 340.572 1193.31 339.001 1194.09 337.696C1192.95 337.555 1193.91 336.549 1193.73 335.967C1194.33 335.842 1194.47 335.135 1194.7 334.686C1194.57 334.553 1194.65 334.238 1194.35 334.163C1194.29 334.554 1194.02 334.562 1193.74 334.853C1193.12 334.337 1194.16 334.146 1194.47 333.656L1194.71 334.13C1195.18 333.307 1196.91 332.957 1196.64 331.843L1195.63 332.118C1195.83 331.02 1197.37 330.372 1196.92 329.233C1196.34 329.723 1196.29 331.037 1195.4 330.53C1194.93 330.231 1195.36 329.524 1195.74 329.291C1197.42 328.277 1196.08 326.074 1198.1 325.517Z" fill="#3DA935"/>
<path d="M1195.53 326.471C1194.89 327.661 1196.55 327.732 1195.77 328.787C1195.34 328.398 1194.59 328.731 1194.33 329.088C1194.41 329.595 1193.95 329.928 1193.77 330.246C1193.54 330.412 1192.94 330.079 1193.17 329.643C1194.82 329.104 1193.98 326.987 1195.53 326.471Z" fill="#3DA935"/>
<path d="M1194.07 331.302C1193.93 331.712 1193.17 332.435 1192.52 332.122C1192.44 332.154 1192.16 331.889 1192.16 332.154C1192.55 331.937 1193.16 331.004 1194.07 331.302Z" fill="#3DA935"/>
<path d="M1195.67 332.198C1196.42 332.475 1195.59 332.789 1195.51 332.965L1195.03 333.153C1195.04 332.726 1195.16 332.249 1195.67 332.198Z" fill="#3DA935"/>
<path d="M1191.94 334.95C1191.45 335.488 1191.65 333.872 1191.21 334.607L1191.35 334.107L1192.16 334.411L1191.94 334.95Z" fill="#3DA935"/>
<path d="M1191.13 335.062C1191.29 335.429 1191.23 335.723 1190.63 336.016L1190.26 335.564C1190.17 335.319 1190.91 335.392 1191.13 335.062Z" fill="#3DA935"/>
<path d="M1193.11 335.441C1193.15 336.454 1192.59 335.763 1192.2 336.016C1191.95 335.395 1193.24 334.567 1193.11 335.441Z" fill="#3DA935"/>
<path d="M1195.98 340.789C1195.98 340.053 1195.98 339.637 1195.98 338.88C1195.98 339.637 1195.98 340.128 1195.98 340.789Z" fill="#3DA935"/>
<path d="M1201.71 314.063C1201.71 313.911 1201.71 313.434 1201.71 313.108V314.063Z" fill="#3DA935"/>
<path d="M1198.84 317.539C1199.42 318.314 1199.32 317.56 1200.11 317.335C1200.6 316.673 1200.38 315.511 1200.75 314.777L1200.57 314.063C1199.9 314.797 1198.96 316.234 1198.84 317.539Z" fill="#3DA935"/>
<path d="M1204.46 308.202C1204.06 309.007 1202.9 309.813 1203.33 311.17C1203.7 310.847 1203.92 310.958 1204.41 310.398C1205.11 311.382 1203.75 311.297 1203.47 311.873C1203.92 311.517 1204 312.348 1203.86 312.781C1203.21 313.4 1202.65 314.638 1202.13 315.681C1202.25 316.308 1200.9 317.453 1201.95 317.741C1201.69 318.403 1200.93 318.106 1200.47 318.462C1200.82 320.421 1197.13 319.853 1197.65 322.04C1197.14 321.65 1196.83 322.43 1196.63 322.693C1196.25 323.304 1195.4 324.754 1196.6 324.983C1197.54 324.932 1196.87 323.465 1197.92 323.185C1199.65 322.659 1197.71 324.593 1198.64 325.11C1198.56 324.856 1199.43 325.203 1199.41 324.55C1199.26 325.839 1200.68 324.66 1200.95 325.517C1202.18 324.601 1202.12 324.72 1203.64 324.737C1203.85 323.906 1202.92 323.668 1202.58 323.219C1202.54 322.193 1203.94 322.159 1204.07 321.353C1205.24 322.642 1205.8 320.828 1206.2 320.022C1206.84 319.039 1205.11 318.988 1205.83 317.979C1206.81 317.809 1206.15 319.573 1207.28 319.259L1207.26 318.606C1206.87 317.987 1206.28 317.343 1206.09 316.749C1206.2 316.52 1206.38 316.172 1206.6 316.283C1206.6 316.851 1207.22 317.012 1207.79 316.707C1207.67 316.367 1207.65 316.283 1207.48 316.054C1205.41 316.13 1207.91 315.045 1207.36 313.917C1207.1 311.356 1209.73 313.917 1210.06 311.712C1208.4 311.551 1210.02 310.11 1209.83 309.236C1210.15 308.744 1210.63 308.761 1211.25 308.634C1211.19 308.414 1211.32 307.981 1211.09 307.778C1209.12 307.091 1206.76 307.362 1204.42 308.092C1204.41 308.126 1204.42 308.185 1204.46 308.202Z" fill="#3DA935"/>
<path d="M1110.47 345.516C1110.11 345.107 1109.86 344.134 1110.34 343.949L1110.54 343.652C1110.73 344.093 1111.58 345.864 1110.47 345.516Z" fill="#3DA935"/>
<path d="M1104.59 349.066L1104.56 349.379C1104.59 349.066 1104.48 348.714 1104.35 348.518C1104.65 348.296 1105.2 348.478 1105.3 348.987C1105.02 349.053 1104.76 348.648 1104.59 349.066Z" fill="#3DA935"/>
<path d="M1104.34 338.972C1103.7 339.284 1103.15 340.329 1102.95 341.258L1101.87 341.743C1101.97 341.373 1101.82 341.036 1101.6 340.715C1101.37 340.395 1101.06 340.09 1100.84 339.786C1100.49 339.695 1100.92 340.592 1100.3 340.131C1100.39 339.959 1100.66 339.835 1100.66 339.638C1100.04 339.276 1099.5 340.115 1098.9 338.783L1099.08 338.043C1098.36 337.039 1097.44 336.159 1096.59 335.263C1095.72 334.375 1094.92 333.454 1094.44 332.336C1093.73 332.393 1093.14 331.316 1092.42 330.995L1092.68 330.757C1091.97 330.823 1092.1 329.778 1091.72 329.433L1091.68 328.849C1092 328.323 1092.72 329.696 1093.1 328.808C1092.84 327.706 1091.43 328.043 1091.36 326.974C1090.95 326.234 1090.71 326.571 1090.25 326.316C1089.9 326.456 1090.1 326.678 1089.76 326.917C1088.4 325.675 1089.71 324.318 1088.52 323.191C1088.27 323.348 1086.86 322.895 1087.36 324.096C1087.58 324.154 1087.79 324.211 1088 324.277L1087.97 324.852C1087.68 324.524 1087.16 323.882 1086.93 324.236C1087.49 322.871 1084.01 322.846 1086.27 322.344C1086.54 323.142 1086.73 323.257 1087.44 323.249C1086.92 322.566 1086.5 321.843 1086.1 321.16C1085.69 320.478 1085.28 319.853 1084.81 319.318L1084.1 319.441C1084.49 318.997 1084.29 318.216 1083.94 317.599C1083.65 317.484 1083.42 317.18 1083.28 317.451C1082.95 317.608 1084.82 319.409 1083.27 319.261C1082.37 317.945 1081.57 316.374 1081.44 315.017C1082.05 315.445 1082.31 315.938 1083.4 315.93C1083.99 316.267 1084.55 316.67 1085.07 317.123C1085.58 317.575 1086.07 318.068 1086.56 318.553C1086.8 318.792 1087.05 319.039 1087.3 319.269C1087.55 319.507 1087.8 319.738 1088.05 319.96C1088.57 320.404 1089.11 320.807 1089.71 321.127C1089.49 321.481 1089.83 322.106 1089.39 322.237C1089.35 322.616 1089.99 322.904 1089.7 323.438C1090.55 323.997 1091.32 324.778 1091.97 325.617C1092.63 326.456 1093.21 327.328 1093.76 328.051C1093.99 327.517 1094.29 327.615 1094.6 327.87C1094.92 328.125 1095.25 328.537 1095.57 328.594C1095.53 329.268 1096.18 329.786 1096.57 330.255C1096.75 330.189 1097.03 330.444 1097.19 330.189C1096.82 329.918 1096.9 329.638 1096.69 329.211C1097.38 328.865 1097.28 330.008 1097.66 330.584L1097.12 330.568C1097.79 331.505 1097.59 333.405 1098.76 333.767L1098.81 332.607C1099.33 333.01 1099.61 333.701 1099.92 334.309C1100.23 334.918 1100.57 335.444 1101.2 335.551C1100.92 334.688 1099.65 333.882 1100.44 333.29C1100.88 333.002 1101.44 333.832 1101.54 334.359C1101.64 334.926 1101.87 335.354 1102.17 335.699C1102.46 336.061 1102.81 336.349 1103.15 336.637C1103.82 337.22 1104.44 337.812 1104.34 338.972Z" fill="#3DA935"/>
<path d="M1104.35 336.016C1103.21 334.55 1102.51 336.183 1101.55 334.69C1102.17 334.523 1102.04 333.54 1101.72 333.039C1101.09 332.785 1100.88 332.091 1100.55 331.713C1100.43 331.371 1101.03 330.976 1101.47 331.494C1101.5 332.512 1102.21 333.153 1102.92 333.795C1103.28 334.111 1103.63 334.427 1103.91 334.778C1104.18 335.129 1104.35 335.533 1104.35 336.016Z" fill="#3DA935"/>
<path d="M1100.26 332.198C1099.81 331.752 1099.23 330.335 1099.84 329.781C1099.83 329.665 1100.26 329.529 1099.93 329.335C1100.06 329.946 1100.98 331.325 1100.26 332.198Z" fill="#3DA935"/>
<path d="M1099.56 332.064C1098.88 332.491 1098.84 331.774 1098.65 331.654L1098.62 331.244C1099.16 331.406 1099.69 331.671 1099.56 332.064Z" fill="#3DA935"/>
<path d="M1097.72 327.951C1097.39 327.271 1098.74 328.136 1098.23 327.426L1098.62 327.766L1098.12 328.38L1097.72 327.951Z" fill="#3DA935"/>
<path d="M1097.67 326.471C1097.22 326.386 1096.92 326.177 1096.71 325.566L1097.3 325.517C1097.61 325.578 1097.35 326.116 1097.67 326.471Z" fill="#3DA935"/>
<path d="M1096.71 328.326C1096.71 328.101 1096.71 327.813 1096.71 327.428C1096.71 327.364 1096.71 328.657 1096.71 328.326Z" fill="#3DA935"/>
<path d="M1090.03 328.403C1090.98 328.241 1091.17 328.981 1091.94 329.335C1091.17 328.981 1090.58 329.004 1090.03 328.403Z" fill="#3DA935"/>
<path d="M1113.9 350.334C1113.85 350.334 1114.34 350.334 1114.7 350.334H1114.85H1113.9Z" fill="#3DA935"/>
<path d="M1112.34 345.561C1111.68 345.684 1112.17 346.024 1112.06 346.942C1112.18 347.379 1112.44 347.719 1112.71 348.051C1112.97 348.383 1113.24 348.715 1113.4 349.126L1113.89 349.379C1113.78 348.829 1113.58 348.104 1113.32 347.396C1113.06 346.688 1112.72 346.007 1112.34 345.561Z" fill="#3DA935"/>
<path d="M1118.51 357.383C1117.96 356.41 1117.8 354.715 1116.32 354.111C1116.46 354.69 1116.24 354.824 1116.52 355.68C1115.91 355.638 1115.79 355.319 1115.76 354.925C1115.74 354.53 1115.81 354.06 1115.6 353.716C1115.72 354.396 1114.92 353.867 1114.58 353.414C1114.45 352.886 1114.15 352.273 1113.81 351.636C1113.44 351.006 1113.02 350.352 1112.65 349.739C1112.32 349.572 1112.04 348.967 1111.75 348.506C1111.45 348.044 1111.14 347.734 1110.77 348.128C1110.25 347.432 1110.86 346.912 1110.71 346.241C1110.2 345.989 1109.95 345.603 1109.83 345.158C1109.71 344.714 1109.69 344.202 1109.67 343.682C1109.63 342.649 1109.55 341.609 1108.38 341.139C1108.96 340.904 1108.31 340.09 1108.12 339.73C1107.66 338.975 1106.54 337.204 1105.86 338.245C1105.57 339.184 1107.26 339.478 1107.15 340.669C1107.01 342.666 1105.84 339.57 1104.98 340.141C1105.26 340.225 1104.58 340.846 1105.23 341.232C1104.02 340.275 1104.64 342.381 1103.69 342.113C1104.11 343.849 1104.03 343.715 1103.4 345.15C1104.11 345.871 1104.71 345.141 1105.28 345.108C1106.28 345.729 1105.75 347.071 1106.45 347.709C1104.74 347.977 1106.21 349.672 1106.8 350.578C1107.45 351.812 1108.25 350.243 1108.88 351.602C1108.59 352.634 1107.25 350.83 1107.04 352.089L1107.65 352.508C1108.4 352.567 1109.27 352.458 1109.91 352.684C1110.07 352.953 1110.32 353.347 1110.11 353.481C1109.58 353.087 1109.15 353.549 1109.18 354.279C1109.54 354.413 1109.62 354.446 1109.91 354.446C1110.8 352.491 1110.63 355.554 1111.93 355.831C1113.17 356.619 1112.88 357.173 1112.51 357.744C1112.15 358.323 1111.7 358.927 1112.61 359.867C1113.09 359.179 1113.46 359.455 1113.81 359.967C1114.17 360.479 1114.49 361.234 1114.93 361.477C1115.21 362.132 1114.95 362.543 1114.74 363.198C1114.97 363.298 1115.29 363.743 1115.59 363.693C1117.21 362.459 1118.18 360.135 1118.67 357.417C1118.61 357.391 1118.55 357.358 1118.51 357.383Z" fill="#3DA935"/>
</svg>
