<svg width="92" height="100" viewBox="0 0 92 100" fill="none" xmlns="http://www.w3.org/2000/svg">
<g opacity="0.3">
<path d="M90.0343 39.9956C90.1918 39.1011 90.3943 37.906 90.5368 36.974C90.6868 36.0495 90.8218 35.4031 90.9942 35.6661L91.2267 35.2979C91.2192 35.4933 91.2043 35.7714 91.1893 36.0946C91.1593 36.4178 91.1442 36.7861 91.0917 37.1769C91.0093 37.9586 90.8518 38.8155 90.6793 39.507C90.5893 39.8528 90.4918 40.1609 90.4093 40.4015C90.3193 40.642 90.2368 40.8073 90.1693 40.8825C90.0418 41.0328 89.9968 40.8074 90.0343 39.9956Z" fill="#E95232"/>
<path d="M85.2119 38.5304L85.0244 38.9889C85.2194 38.5304 85.3919 37.8238 85.4444 37.3578C85.6244 37.3353 85.7069 38.2974 85.3844 39.2294C85.3019 38.9964 85.4819 38.0643 85.2119 38.5304Z" fill="#E95232"/>
<path d="M74.8775 17.0257C74.7575 17.1535 74.7875 17.3038 74.93 17.4767C75.0725 17.6496 75.3275 17.83 75.65 18.0479C76.295 18.4689 77.225 18.98 78.1474 19.6038C77.7949 19.7918 77.4425 20.0097 77.12 20.2202C76.955 20.115 76.7525 20.0248 76.535 19.927C76.31 19.8444 76.0625 19.7692 75.8 19.7016C75.665 19.6715 75.53 19.649 75.3875 19.6189C75.3125 19.6039 75.245 19.5963 75.17 19.5813C75.095 19.5738 75.02 19.5663 74.945 19.5587C74.795 19.5437 74.6375 19.5287 74.4875 19.5137C74.33 19.5061 74.1725 19.5061 74.0075 19.4986C73.3625 19.4911 72.6876 19.5287 72.0351 19.6339C71.7051 19.6715 71.3826 19.7542 71.0676 19.8068C70.7526 19.8895 70.4451 19.9496 70.1526 20.0398C69.7251 20.2578 70.2876 20.1676 70.6701 20.16C70.8651 20.16 71.0076 20.1601 70.9701 20.2127C70.9476 20.2352 70.8801 20.2728 70.7526 20.3254C70.6851 20.348 70.6026 20.378 70.5051 20.4156C70.4076 20.4532 70.2876 20.4983 70.1526 20.5509C69.8601 20.4983 69.9801 20.2127 69.4776 20.2878C68.5401 20.7238 68.3977 21.062 68.0152 21.4378C67.9252 21.5356 67.8202 21.6408 67.6852 21.746C67.5502 21.8587 67.4002 21.9865 67.2052 22.1293C67.1527 22.1669 67.1077 22.2045 67.0552 22.2421C67.0327 22.2646 67.0027 22.2796 66.9727 22.3022C66.9202 22.3398 66.8677 22.3774 66.8077 22.4225C66.5677 22.5954 66.2827 22.8058 65.9977 23.0915C65.8552 23.2267 65.7052 23.3696 65.5477 23.5199C65.4652 23.5951 65.3902 23.6702 65.3077 23.7454C65.2627 23.7754 65.2252 23.8431 65.1802 23.9032C65.1352 23.9633 65.0977 24.0235 65.0527 24.0911C64.8802 24.3391 64.7077 24.5947 64.5202 24.8653C64.4302 25.0006 64.3327 25.1284 64.2352 25.2787C64.1377 25.5267 64.0327 25.7823 63.9277 26.0379C63.7027 26.0228 63.4478 26.0003 63.1778 25.9852C63.0278 25.9251 62.8778 25.8725 62.7353 25.8274L62.3528 25.7071C62.1503 25.647 61.9328 25.5944 61.8128 25.5869C61.7303 25.6245 61.6403 25.662 61.5653 25.6996L61.3778 25.8274L61.2803 25.8875C61.2578 25.9101 61.2353 25.9326 61.2128 25.9552L61.0778 26.098C61.0178 26.1807 60.9803 26.2633 60.9278 26.346C60.8903 26.4287 60.8678 26.5189 60.8453 26.6091C60.8453 26.6317 60.8378 26.6016 60.8303 26.5941L60.8078 26.5565L60.7703 26.4813L60.6878 26.3385C60.6278 26.2408 60.5528 26.1431 60.4853 26.0529C60.1778 25.6696 59.7353 25.2862 58.7829 24.8653C58.7904 24.1287 58.7829 23.4071 58.7829 22.6705C58.7604 21.964 58.7529 21.2349 58.7079 20.5359C58.6854 20.1901 58.6779 19.8293 58.6404 19.4836L58.5429 18.4388L58.5278 18.311L58.5204 18.2208L58.5129 18.1832L58.4904 18.0404L58.4454 17.7623C58.4229 17.5744 58.3854 17.394 58.3554 17.2061C58.2354 16.4695 58.0704 15.7555 57.8904 15.0489C57.7104 14.3424 57.4854 13.6659 57.2529 13.012C56.2779 10.3888 54.7404 8.08124 52.8655 6.45019C52.2355 6.23973 51.2155 5.66096 50.0155 5.31521C49.4156 5.14233 48.763 5.02958 48.1256 4.97696C47.4881 4.93187 46.8656 4.97696 46.3406 5.06716L46.2731 4.79658C45.6656 5.06717 44.8481 5.13483 43.9557 5.27764C43.0707 5.41293 42.1332 5.63092 41.4132 5.99923C40.9407 6.127 40.4757 6.27732 40.0107 6.45771C39.6508 6.42013 40.5282 5.79627 41.3907 5.33026C41.6082 5.21751 41.8182 5.09725 42.0057 4.99954C42.1932 4.90182 42.3507 4.81164 42.4632 4.72896C42.5757 4.64628 42.6357 4.57861 42.6207 4.51848C42.6057 4.45835 42.5157 4.42078 42.3207 4.39823C41.5032 4.57863 40.7907 4.90933 40.1607 5.27764C39.5307 5.64594 38.9908 6.10443 38.4733 6.54038C37.4533 7.45738 36.5833 8.39692 35.4208 9.3064C34.9108 9.81 34.5809 10.2084 34.3334 10.5241C34.0859 10.8397 33.9434 11.0953 33.8234 11.3133C33.5834 11.7642 33.4634 12.1175 33.0209 12.8917C32.9909 13.4179 33.5684 12.5685 33.7184 12.8993C32.8559 14.2146 32.2034 15.2519 31.6184 16.0937C31.5434 16.1989 31.4684 16.2966 31.4009 16.4019C31.3334 16.4996 31.2659 16.6048 31.1984 16.7025C31.0634 16.898 30.9284 17.0783 30.8009 17.2587C30.5309 17.612 30.2984 17.9502 30.051 18.281C29.931 18.4463 29.811 18.6117 29.691 18.7771C29.571 18.9424 29.4585 19.1153 29.346 19.2956C29.121 19.6489 28.8735 20.0172 28.6635 20.4457C28.551 20.6561 28.446 20.8816 28.3335 21.1146C28.221 21.3477 28.1085 21.6032 28.011 21.8738C27.906 22.1444 27.801 22.43 27.696 22.7382C27.591 23.0463 27.501 23.377 27.4035 23.7228C27.4485 23.7904 27.4185 24.1287 27.4035 24.5346C27.3885 24.9405 27.3735 25.414 27.396 25.7522C27.4185 26.0905 27.4935 26.2859 27.6285 26.1506C27.756 26.0078 27.9885 25.5418 28.3335 24.5421C28.4385 23.8807 28.521 23.2042 28.656 22.5427C28.896 22.1444 29.136 21.7385 29.3984 21.3552C29.3309 21.5356 29.256 21.7385 29.181 21.9489C29.1135 22.1594 29.0385 22.3849 28.9635 22.6179C28.8885 22.8434 28.8135 23.0764 28.746 23.3019C28.686 23.5274 28.626 23.7529 28.5735 23.9633C28.3485 24.7976 28.2885 25.429 28.4685 25.3087C28.2885 25.5192 28.1085 25.8499 27.9735 26.2483C27.8385 26.6542 27.7185 27.1202 27.6285 27.6313C27.546 28.1424 27.471 28.6761 27.426 29.2023C27.396 29.7284 27.351 30.247 27.3435 30.713C27.336 31.179 27.3285 31.6 27.3135 31.9232C27.3135 32.2539 27.2985 32.4944 27.261 32.6072C27.231 32.7199 27.1785 32.7049 27.096 32.532C27.0585 32.4418 27.006 32.314 26.946 32.1336C26.886 31.9532 26.826 31.7278 26.7585 31.4497C26.8935 30.7957 27.006 30.2545 27.096 29.7885C27.1935 29.3225 27.246 28.9317 27.2985 28.5633C27.351 28.195 27.3735 27.8568 27.381 27.4885C27.396 27.1277 27.4035 26.7444 27.3885 26.3009C26.661 29.2398 26.2185 32.0735 26.016 34.8019C25.986 35.4859 25.926 36.1624 25.926 36.8314C25.9185 37.1696 25.9185 37.5003 25.911 37.8311C25.9185 38.1618 25.926 38.4925 25.9335 38.8157C25.941 38.9811 25.941 39.1464 25.9485 39.3043C25.956 39.4696 25.971 39.6275 25.9785 39.7928C26.001 40.116 26.0235 40.4393 26.046 40.7625C26.0835 41.0857 26.1135 41.4013 26.151 41.717C26.1885 42.0327 26.2185 42.3484 26.271 42.6566L26.616 43.348C26.7285 43.5811 26.841 43.8066 26.9685 44.0321C26.8635 44.0772 26.796 44.2651 26.7585 44.5582C26.721 44.8514 26.706 45.2572 26.751 45.7232C26.7885 46.1893 26.8335 46.7379 26.9385 47.3017C26.991 47.5873 27.0435 47.8805 27.096 48.1736C27.156 48.4667 27.231 48.7674 27.306 49.0605C27.4035 49.301 27.501 49.5716 27.5985 49.8197C27.696 50.0677 27.7935 50.3082 27.876 50.5036C28.041 50.8945 28.1685 51.12 28.221 50.9321C28.326 51.0223 28.206 50.5412 28.0035 49.8347C27.8985 49.4814 27.8085 49.0605 27.696 48.6321C27.5835 48.2036 27.486 47.7527 27.4035 47.3318C27.366 47.1213 27.321 46.9183 27.291 46.7304C27.261 46.5425 27.2385 46.3621 27.216 46.1968C27.1785 45.8736 27.171 45.6255 27.1935 45.4902C27.2385 45.2196 27.4335 45.4226 27.861 46.4072C28.431 49.0981 29.226 51.8416 30.1559 54.2769C30.5984 55.5096 31.1009 56.6521 31.5509 57.7119C31.7909 58.238 32.0159 58.7416 32.2259 59.2227C32.4509 59.6962 32.6609 60.1396 32.8409 60.5681C32.0534 59.5008 31.4459 58.5462 30.8309 57.5615C30.6734 57.3135 30.5159 57.073 30.3509 56.8249C30.1934 56.5769 30.0284 56.3213 29.856 56.0658C29.496 55.5547 29.136 55.0135 28.701 54.4272C27.5685 52.3001 26.676 49.985 25.986 47.5948C25.806 47.001 25.6635 46.3922 25.5135 45.7834C25.3635 45.1746 25.251 44.5582 25.1235 43.9419C24.9061 42.7092 24.711 41.4614 24.5986 40.2137C24.3511 37.7183 24.2836 35.2078 24.4035 32.7425C24.516 30.2771 24.771 27.8568 25.1385 25.4967C25.326 25.3614 25.611 24.6924 25.8585 24.1663C26.106 23.6401 26.346 23.2568 26.391 23.6552C26.616 23.2718 26.8335 22.4826 27.1185 21.7535C27.186 21.5656 27.2535 21.3852 27.3285 21.2124C27.396 21.0395 27.4785 20.8816 27.561 20.7313C27.7185 20.4382 27.876 20.2127 28.0335 20.0999C28.581 18.3937 29.3085 16.6574 30.2009 14.9737C31.0859 13.2825 32.1359 11.659 33.3209 10.1708C34.5134 8.69008 35.8408 7.35969 37.2658 6.27733C37.9783 5.73615 38.7133 5.25508 39.4483 4.84167C40.1832 4.42827 40.9332 4.09756 41.6682 3.81194C41.1882 3.78187 41.1507 3.66915 41.4057 3.45869C41.5332 3.36097 41.7357 3.24823 41.9907 3.12797C42.2457 3.0077 42.5607 2.89493 42.8982 2.76715C43.5882 2.54166 44.4056 2.34625 45.1706 2.22599C45.3581 2.18841 45.5531 2.17339 45.7331 2.14332C45.9131 2.12077 46.0856 2.08317 46.2581 2.07565C46.5881 2.04559 46.8806 1.99296 47.1131 1.96289C47.9831 2.14328 49.1456 2.30868 50.323 2.65443C51.5005 2.99267 52.6855 3.51878 53.593 4.12761C53.8854 4.12009 54.9879 4.93939 54.8679 4.56357C54.5304 4.32305 54.2454 4.12013 53.9829 3.93222C53.7204 3.75935 53.4954 3.57891 53.2555 3.42107C52.7755 3.09786 52.2955 2.75213 51.493 2.40638C51.6055 2.3688 51.7405 2.36126 51.9055 2.38381C52.0705 2.39884 52.2505 2.46651 52.4455 2.54919C52.648 2.63187 52.8655 2.72958 53.0905 2.87239C53.3155 3.00768 53.5555 3.15049 53.788 3.3384C54.7479 4.04494 55.7079 5.08223 56.5404 6.04432L55.9704 5.66098L55.3854 5.31521C56.1429 6.02927 56.8104 6.90869 57.3579 7.86327C57.9129 8.81785 58.3554 9.84008 58.7079 10.8698C59.4353 12.9293 59.7803 14.9963 60.3278 16.7702C60.3653 15.7103 60.3428 14.643 60.2453 13.5682C60.6578 14.8084 60.9053 16.1839 61.0253 17.5669C61.0628 17.9277 61.0778 18.2208 61.0928 18.544C61.1078 18.8672 61.1153 19.1904 61.1303 19.5137C61.1453 20.1676 61.1453 20.829 61.1378 21.4829C61.1303 22.5127 61.1153 23.5199 61.1303 24.3241C61.1378 24.7225 61.1528 25.0758 61.1828 25.3464L61.1978 25.4441L61.2053 25.4892V25.5117V25.5192L61.2128 25.4967C61.2578 25.3689 61.2953 25.2411 61.3403 25.1208C61.4303 24.8728 61.4978 24.6172 61.6028 24.3692C61.5428 24.497 61.5053 24.6473 61.4528 24.7976L61.4153 24.9179L61.3928 24.9781C61.3928 24.9856 61.3928 24.9931 61.3853 24.9931V24.9705V24.9329C61.3928 24.8277 61.4003 24.7225 61.4003 24.6173C61.4228 24.2039 61.4378 23.7904 61.4453 23.3846C61.4603 22.5728 61.4528 21.7611 61.4528 21.032C61.4528 20.3856 61.4528 19.8143 61.5053 19.3934C61.5503 18.9724 61.6403 18.7244 61.8128 18.6493C61.9253 18.6267 62.0153 18.7921 62.0753 19.0326C62.1428 19.2731 62.1803 19.6038 62.1878 19.9797C62.2028 20.5659 62.1578 21.295 62.0753 21.9339C62.0078 22.4225 61.9553 22.9111 61.9178 23.3696L61.9103 23.4147L61.9178 23.3921L61.9328 23.3395L61.9703 23.2343L62.0453 23.0163C62.1053 22.8735 62.1653 22.7156 62.2403 22.5653C62.4428 22.1519 62.6978 21.7234 62.9828 21.3176C63.2752 20.9192 63.5828 20.5208 63.9127 20.1901C64.1602 19.927 64.4077 19.6941 64.6552 19.4761C64.7152 19.4235 64.7752 19.3708 64.8427 19.3182L64.9402 19.2431L64.9927 19.2055L65.0677 19.1454C65.2852 18.98 65.5177 18.8447 65.7352 18.6943C66.6427 18.1156 67.6027 17.6571 68.6076 17.3114C70.5951 16.695 72.7776 16.5071 74.8775 17.0257Z" fill="#E95232"/>
<path d="M64.3103 18.3938C64.1378 18.514 64.0103 18.6493 63.9053 18.7921C63.6353 19.1604 63.4403 19.6039 63.2453 20.0774C63.1403 20.333 63.0428 20.5585 62.9303 20.8366C62.8253 21.0771 62.7053 21.3552 62.5403 21.7385C62.4878 21.8588 62.4428 21.9866 62.3903 22.1219C62.3378 22.2572 62.2853 22.3924 62.2328 22.5428C62.2103 22.6179 62.1803 22.6931 62.1578 22.7758C62.1503 22.7908 62.1428 22.8209 62.1428 22.8284V22.7758C62.1428 22.7382 62.1428 22.7006 62.1428 22.6631C62.1503 22.4902 62.1578 22.3098 62.1653 22.1069C62.3303 21.8513 62.4953 21.1898 62.6303 20.5961C62.7653 19.9947 62.8553 19.446 62.8853 19.0702C62.8928 18.98 62.9003 18.9049 62.9003 18.8372C62.7803 18.6418 62.7428 18.2209 62.7128 17.8376V17.7999V17.7849C62.7128 17.8 62.7128 17.7699 62.7128 17.7849L62.6903 17.5895C62.6753 17.4617 62.6678 17.3264 62.6528 17.1986C62.6303 16.9431 62.5928 16.6875 62.5628 16.4395C62.5328 16.1914 62.5028 15.9509 62.4578 15.7104C62.4203 15.4774 62.3828 15.2519 62.3378 15.0339C62.2553 14.4326 62.3453 14.147 62.5178 14.2973C62.6828 14.4477 62.9603 15.0565 63.1478 16.244C63.1553 16.68 63.1628 17.131 63.1703 17.582V17.6647V17.7097V17.7323C63.1628 17.7023 63.1628 17.7323 63.1628 17.7323L63.1553 17.7548L63.1403 17.8376C63.1328 17.8902 63.1253 17.9503 63.1178 18.0104C63.0953 18.2509 63.0953 18.514 63.1103 18.7395C63.1253 19.0026 63.1553 19.2206 63.1928 19.3709L63.2153 19.4761L63.2303 19.5212L63.2378 19.5437V19.5513C63.2378 19.5513 63.2378 19.5663 63.2453 19.5437C63.2978 19.3784 63.3503 19.2281 63.4103 19.0928C63.5753 18.732 63.7028 18.5441 63.9053 18.4539C64.0028 18.4313 64.1303 18.4088 64.3103 18.3938Z" fill="#E95232"/>
<path d="M61.5273 14.4856C61.4598 14.2451 61.3923 13.9595 61.3173 13.6438C61.2348 13.3356 61.1448 12.9899 61.0548 12.6441C60.9498 12.2909 60.8598 11.9225 60.7398 11.5618C60.6873 11.3814 60.6273 11.1935 60.5748 11.0131C60.5148 10.8327 60.4548 10.6523 60.3948 10.4794C59.9373 9.08136 59.4349 7.9088 59.6224 7.70586C59.5624 7.55553 59.6523 7.56306 59.6823 7.4879C59.7123 7.40522 59.6523 7.23984 59.2773 6.75879C59.5098 7.17971 59.8623 7.79607 60.2073 8.51764C60.5598 9.2317 60.8823 10.066 61.1373 10.8778C61.2498 11.2912 61.3773 11.682 61.4448 12.0729C61.4823 12.2608 61.5198 12.4487 61.5573 12.6291C61.5798 12.8095 61.6023 12.9749 61.6173 13.1402C61.6548 13.4634 61.6623 13.749 61.6398 13.9745C61.6323 14.1925 61.5948 14.3729 61.5273 14.4856Z" fill="#E95232"/>
<path d="M59.8704 12.2603C59.7429 12.5008 59.5854 12.125 59.4204 11.6289C59.2554 11.1328 59.0604 10.5165 58.9404 10.2685C58.8354 9.89264 58.6929 9.53182 58.5654 9.15601C58.7154 9.38901 58.8729 9.63708 59.0229 9.89264C59.1654 10.1557 59.3079 10.4263 59.4279 10.7044C59.5404 10.9825 59.6529 11.2531 59.7279 11.5162C59.7879 11.7792 59.8479 12.0348 59.8704 12.2603Z" fill="#E95232"/>
<path d="M47.9828 0.692667C47.2178 0.609987 47.0228 0.564889 47.1278 0.504758C47.2253 0.452143 47.6153 0.392018 47.9978 0.369469C48.3728 0.346919 48.7403 0.324381 48.7703 0.286799C48.7853 0.26425 48.7178 0.241712 48.5303 0.20413C48.4328 0.189098 48.3128 0.166536 48.1478 0.143987C48.0653 0.13647 47.9753 0.121447 47.8778 0.106414C47.7803 0.0988974 47.6678 0.091359 47.5478 0.0838427C47.9153 0.0763263 48.2828 0.121437 48.6503 0.143987C49.0178 0.174052 49.3853 0.234185 49.7528 0.286799C49.9778 0.549873 50.1953 0.812936 50.3977 1.07601C50.0003 0.985813 49.5953 0.888095 49.1903 0.83548C48.7928 0.760316 48.3878 0.730249 47.9828 0.692667Z" fill="#E95232"/>
<path d="M43.2053 0.512695C42.7853 0.693088 42.3579 0.835932 41.8629 1.01633C41.7354 1.06142 41.6078 1.09899 41.4653 1.14409C41.3304 1.18919 41.1879 1.24181 41.0304 1.2869C40.8804 1.332 40.7154 1.38463 40.5504 1.43724C40.3854 1.49737 40.2054 1.5575 40.0254 1.61763C40.2579 1.43723 40.4979 1.2493 40.7454 1.07642C41.0079 0.933612 41.3229 0.850928 41.7278 0.790797C41.9303 0.753216 42.1478 0.715654 42.3953 0.670556C42.6353 0.64049 42.9053 0.587859 43.2053 0.512695Z" fill="#E95232"/>
<path d="M47.2702 1.51977C45.8753 1.65506 46.0778 1.3619 45.1553 1.30929C45.2828 1.24916 45.5753 1.21913 45.9128 1.20409C46.2503 1.19658 46.6402 1.23413 46.9552 1.27171C47.6077 1.38446 47.9827 1.51977 47.2702 1.51977Z" fill="#E95232"/>
<path d="M37.4307 9.46405C37.6482 8.90784 38.2406 8.31402 38.9906 7.7503C39.0881 7.68265 39.1781 7.60751 39.2756 7.53986C39.3731 7.47221 39.4781 7.40455 39.5831 7.3369C39.7856 7.19409 40.0031 7.06633 40.2206 6.93104C40.6556 6.66045 41.0906 6.41992 41.5331 6.17188C41.0906 6.41992 40.7381 6.66794 40.4156 6.90846C40.2581 7.03624 40.1006 7.1565 39.9506 7.27676C39.8006 7.40454 39.6581 7.5248 39.5081 7.65258C38.9231 8.14866 38.3156 8.68235 37.4307 9.46405Z" fill="#E95232"/>
<path d="M77.7729 57.3887C77.4954 57.524 77.2179 57.6818 76.9479 57.8547C76.6779 58.02 76.4079 58.1854 76.1529 58.3658C75.8979 58.5387 75.658 58.7191 75.4405 58.8844C75.2155 59.0423 75.0205 59.1926 74.8555 59.3279L75.5004 59.17C76.2729 58.5913 77.0379 58.0125 77.7729 57.3887Z" fill="#E95232"/>
<path d="M89.5251 43.8519C89.5101 43.1003 89.3451 43.3107 89.0151 43.9722C88.9251 44.1375 88.8501 44.333 88.7226 44.5434C88.6026 44.7539 88.4751 44.9794 88.3326 45.2199C88.1901 45.4604 88.0477 45.716 87.8677 45.964C87.6877 46.2121 87.5002 46.4601 87.2977 46.7082C86.4127 48.1137 85.5277 49.5569 84.5077 50.8948C83.4952 52.2402 82.3928 53.533 81.1478 54.5778L80.8253 54.9686L80.4953 55.3445L79.8203 56.0961C81.4328 54.9837 83.5402 53.2248 85.3852 51.015C85.8577 50.4814 86.2777 49.8801 86.7127 49.3013C86.8252 49.1585 86.9227 49.0081 87.0202 48.8503C87.1177 48.7 87.2152 48.5497 87.3127 48.3918C87.4101 48.2415 87.5076 48.0912 87.5976 47.9408C87.6951 47.7905 87.7852 47.6402 87.8677 47.4823C88.0402 47.1666 88.2051 46.8585 88.3701 46.5578C88.4526 46.4075 88.5351 46.2572 88.6101 46.0993C88.6776 45.9415 88.7526 45.7912 88.8201 45.6333C88.9551 45.3251 89.0826 45.0245 89.2101 44.7313C89.3376 44.4457 89.4276 44.1451 89.5251 43.8519Z" fill="#E95232"/>
<path d="M48.2158 65.2812C50.2483 65.439 52.6858 65.5442 55.1757 65.4014C57.6657 65.2812 60.1856 64.7776 62.2856 63.9508C61.7756 64.0485 61.3856 64.0786 61.0406 64.1011C60.6956 64.1237 60.3956 64.1462 60.0581 64.1687C59.3906 64.2289 58.5731 64.2514 56.9832 64.4017C57.5531 64.1312 58.1381 63.9658 58.7456 63.8531C58.8956 63.823 59.0456 63.8004 59.2031 63.7854C59.3531 63.7628 59.5106 63.7328 59.6681 63.7178C59.9756 63.6727 60.2981 63.6426 60.6131 63.6125C60.9356 63.59 61.2656 63.5599 61.5956 63.5374C61.9256 63.4998 62.2556 63.4622 62.5931 63.4171C62.9305 63.372 63.2755 63.3194 63.6205 63.2593C63.793 63.2292 63.9655 63.1991 64.138 63.154C64.3105 63.1089 64.483 63.0638 64.6555 63.0112C62.3456 63.4622 65.2555 62.3873 67.1005 61.6733C67.5505 61.5455 68.0379 61.3952 68.5479 61.2374C69.0504 61.0495 69.5754 60.854 70.1229 60.6436C70.3929 60.5308 70.6779 60.4331 70.9554 60.3054C71.2329 60.1776 71.5179 60.0498 71.8029 59.922C71.9454 59.8544 72.0879 59.7942 72.2379 59.7266C72.3804 59.6589 72.5228 59.5837 72.6653 59.5086C72.9503 59.3658 73.2428 59.2155 73.5353 59.0651C75.8603 57.8475 78.1927 56.254 80.1877 54.5778C80.3902 54.3824 80.6377 54.1118 80.9377 53.8262C81.2377 53.5406 81.5827 53.2249 81.9277 52.8716C82.6401 52.1801 83.3976 51.3759 84.0351 50.6092C84.3501 50.2184 84.6576 49.8575 84.8976 49.5043C85.1376 49.151 85.3401 48.8429 85.4826 48.5873C85.5576 48.4595 85.6101 48.3468 85.6551 48.2491C85.6926 48.1513 85.7151 48.0687 85.7151 48.0085C85.7226 47.8883 85.6551 47.8432 85.5051 47.9033C85.9176 47.2269 86.2926 46.7308 86.5776 46.2948C86.7276 46.0768 86.8701 45.8889 87.0125 45.7085C87.08 45.6183 87.155 45.5357 87.2225 45.453C87.2825 45.3703 87.35 45.2801 87.41 45.2049C87.6575 44.8742 87.8975 44.5736 88.16 44.2128C88.4075 43.852 88.64 43.4236 88.91 42.8749C89.36 41.086 89.7275 39.4173 90.035 37.7637C90.3275 36.1101 90.5525 34.4565 90.59 32.7503C90.62 31.0441 90.455 29.2852 89.9375 27.5189C89.4125 25.7601 88.5275 23.9787 87.1025 22.4379C87.2675 22.4754 87.245 22.295 87.0876 21.9868C86.9226 21.6787 86.6376 21.2352 86.2626 20.7692C85.8876 20.3032 85.4301 19.8146 84.9801 19.3787C84.5301 18.9503 84.0876 18.5744 83.7576 18.3189C83.5776 18.176 83.3826 18.0257 83.1726 17.8754C82.9551 17.7251 82.7451 17.5597 82.4752 17.4019C81.9652 17.0787 81.4027 16.7554 80.7952 16.4773C79.5952 15.9136 78.2602 15.5153 77.0828 15.3349C75.9053 15.147 74.9003 15.1395 74.3153 15.2447C73.7228 15.3349 73.5578 15.5002 74.0078 15.7182C75.1778 16.0264 76.9253 16.1015 78.8227 16.6502C79.7677 16.9208 80.7352 17.3042 81.6202 17.8228C81.8377 17.9581 82.0552 18.0934 82.2652 18.2362C82.4602 18.379 82.6551 18.5293 82.8426 18.6797C83.2101 18.9954 83.5551 19.3186 83.8401 19.6643C84.0951 19.9575 84.2826 20.213 84.4251 20.416C84.5676 20.6189 84.6651 20.7692 84.7176 20.8895C84.8301 21.115 84.8001 21.1601 84.6576 21.0774C84.3876 20.912 83.6826 20.2506 82.7451 19.5666C82.5126 19.3937 82.2652 19.2283 82.0102 19.063C81.7627 18.8901 81.4777 18.7398 81.2152 18.582C80.9452 18.4241 80.6602 18.3038 80.3977 18.1685C80.1277 18.0407 79.8577 17.9506 79.6102 17.8528C79.1077 17.68 78.6577 17.5597 78.3277 17.5221C77.9977 17.477 77.7877 17.4921 77.7502 17.5823C77.9602 17.6048 78.1327 17.68 78.3127 17.7777C78.4027 17.8303 78.4927 17.8829 78.5902 17.943C78.6877 18.0107 78.7927 18.0784 78.9052 18.161C79.0177 18.2362 79.1452 18.3114 79.2877 18.4016C79.4302 18.4918 79.5877 18.5894 79.7677 18.6871C79.9477 18.7773 80.1427 18.8976 80.3752 19.0104C80.6077 19.1231 80.8552 19.2584 81.1402 19.4012C79.9477 18.7698 79.4077 18.6947 79.2952 18.7473C79.1752 18.8074 79.4602 19.048 79.7827 19.3336C79.9402 19.4839 80.1202 19.6417 80.2702 19.7846C80.4127 19.9424 80.5327 20.0852 80.6002 20.1904C80.7277 20.4084 80.6227 20.4836 80.0377 20.2581C81.1627 21.0623 81.8752 21.799 82.3701 22.3777C82.8726 22.964 83.1576 23.4225 83.3751 23.8208C83.4801 24.0238 83.5626 24.2117 83.6376 24.4071C83.7126 24.5951 83.7726 24.798 83.8326 25.0084C83.9526 25.4294 84.0501 25.933 84.1551 26.617C84.3501 26.9552 84.5301 27.2258 84.6651 27.4663C84.8151 27.6993 84.9426 27.8947 85.0476 28.0526C85.2801 28.3607 85.4451 28.5336 85.6101 28.6313C85.9326 28.8268 86.1726 28.7516 86.4951 29.15C87.2075 30.8036 87.3425 32.4572 87.2675 33.9905C87.2375 34.7572 87.1476 35.5088 87.0501 36.253C86.9526 36.9971 86.8476 37.7337 86.7576 38.4928C86.5701 37.8765 86.3601 37.884 86.1501 38.2598C85.9476 38.6432 85.7151 39.3948 85.4001 40.3042C85.2501 40.7552 85.0701 41.2363 84.8451 41.7474C84.7401 42.003 84.6351 42.2585 84.5301 42.5216C84.4101 42.7771 84.2901 43.0327 84.1626 43.2883C83.9376 43.8069 83.6451 44.2804 83.3976 44.7464C83.2776 44.9795 83.1276 45.1899 83.0001 45.4004C82.8651 45.6108 82.7451 45.8062 82.6251 45.9941C82.3026 46.4602 82.0252 46.821 81.8377 47.1291C81.6427 47.4373 81.4852 47.6628 81.3802 47.8657C81.1702 48.2566 81.1477 48.5046 81.0952 48.7452C81.0427 48.9857 80.9902 49.2337 80.7277 49.6546C80.6602 49.7598 80.5852 49.8726 80.4877 50.0004C80.3902 50.1206 80.2702 50.2559 80.1352 50.4063C79.8577 50.6994 79.5127 51.0677 79.0252 51.4736C78.4627 51.7818 78.3952 51.6916 78.5527 51.4059C78.7102 51.1203 79.1077 50.6618 79.4377 50.1808C79.6102 49.9478 79.7752 49.7148 79.9027 49.5193C80.0302 49.3164 80.1127 49.1435 80.1427 49.0308C80.1727 48.918 80.1352 48.8654 80.0152 48.903C79.9552 48.918 79.8727 48.9631 79.7677 49.0233C79.6627 49.0909 79.5277 49.1736 79.3627 49.2863L78.6577 50.1507L77.9077 50.985C77.1203 52.2553 76.5578 53.4654 75.2303 54.7206C75.1178 54.7958 75.0053 54.8785 74.8778 54.9537C74.7503 55.0288 74.6228 55.1115 74.4953 55.1867C74.2403 55.3445 73.9778 55.4948 73.7453 55.6301C73.2728 55.8857 72.8903 56.0436 72.8303 55.9759C73.7003 55.3896 73.9103 55.0438 73.6778 54.9987C73.4528 54.9536 72.7553 55.1491 71.7579 55.555C71.3529 55.8632 71.1054 56.0586 70.9104 56.2239C70.7154 56.3893 70.5729 56.5246 70.3929 56.705C70.6704 56.6674 70.8954 56.6373 71.0679 56.6073C71.2479 56.5847 71.3829 56.5772 71.4729 56.5772C71.6604 56.5847 71.6829 56.6374 71.5854 56.7351C71.4804 56.8328 71.2554 56.9681 70.9329 57.1334C70.6104 57.2913 70.1904 57.4717 69.7179 57.6746C69.2454 57.87 68.7054 58.0579 68.1504 58.2759C67.8729 58.3812 67.5955 58.5014 67.3105 58.5916C67.0255 58.6893 66.7405 58.787 66.463 58.8847C65.353 59.3132 64.2805 59.6514 63.598 60.0498C63.4705 60.1024 63.343 60.1625 63.2155 60.2076C63.088 60.2527 62.968 60.2978 62.848 60.3354C62.6081 60.4181 62.3756 60.4932 62.1581 60.5684C61.7156 60.7112 61.3181 60.839 60.9506 60.9292C60.2081 61.0945 59.6156 61.1923 59.1131 61.2449C58.8656 61.275 58.6406 61.2749 58.4306 61.2674C58.2207 61.2599 58.0331 61.2449 57.8607 61.2223C57.5082 61.1772 57.2157 61.1096 56.9157 61.0419C56.7657 61.0044 56.6232 60.9743 56.4657 60.9367C56.3157 60.8916 56.1507 60.854 55.9857 60.8165C55.6482 60.7413 55.2582 60.6736 54.7782 60.6436C54.2982 60.621 53.7207 60.5834 52.9933 60.5909C52.6333 60.5909 52.2358 60.621 51.7933 60.6286C51.3508 60.6286 50.8633 60.6436 50.3233 60.6661C50.9758 60.9517 50.9533 61.1246 50.4883 61.2299C50.2558 61.2749 49.9183 61.3276 49.5058 61.3276C49.0933 61.3276 48.5983 61.3125 48.0659 61.2975C45.9284 61.1847 43.1385 60.7338 41.706 60.5759C41.406 60.5083 41.136 60.4406 40.8885 60.373C40.6335 60.3128 40.4085 60.2151 40.1985 60.14C39.771 59.9821 39.411 59.8243 39.0735 59.6664C38.9086 59.5838 38.7435 59.5086 38.586 59.4259C38.4285 59.3357 38.2786 59.2455 38.1136 59.1478C37.7986 58.9599 37.4761 58.7645 37.1086 58.5465C36.9436 58.524 36.7036 58.4789 36.4411 58.4037C36.1786 58.3285 35.8861 58.2458 35.6086 58.1632C35.0461 58.0053 34.5211 57.87 34.3486 57.9226C34.5211 58.3886 34.9486 58.9449 35.6161 59.5913C35.9461 59.922 36.3511 60.2377 36.8086 60.5759C37.0411 60.7413 37.2811 60.9217 37.5361 61.0946C37.7911 61.275 38.0611 61.4554 38.3535 61.6207C40.6485 63.0263 43.8959 64.4243 47.7959 65.3338C48.0283 65.3262 48.2158 65.3113 48.2158 65.2812Z" fill="#E95232"/>
<path d="M23.5263 86.191C23.6763 85.8302 23.9013 85.3793 24.1338 85.0486C24.3513 84.7178 24.5763 84.5149 24.7038 84.6803L24.9663 84.6201C24.8988 84.7704 24.7713 85.0411 24.6363 85.3417C24.4788 85.6424 24.3063 85.9655 24.1263 86.2136C23.7513 86.7172 23.4588 86.9351 23.5263 86.191Z" fill="#9F9F9F"/>
<path d="M19.1907 83.6509L19.0332 83.7636C19.1082 83.711 19.1907 83.6283 19.2582 83.5456C19.3257 83.4629 19.3782 83.3652 19.4082 83.29C19.5807 83.3502 19.6032 83.741 19.3557 84.0116C19.2732 83.8688 19.4307 83.5757 19.1907 83.6509Z" fill="#9F9F9F"/>
<path d="M24.6736 74.1649C24.1411 73.9694 23.3086 74.661 22.7387 75.5479L21.8537 75.157C22.3261 74.4956 22.1462 73.0825 22.2137 71.9626C22.0637 71.5191 21.8387 72.9848 21.7262 71.8649C21.8687 71.7521 22.0862 71.8573 22.1912 71.6319C22.1162 71.1283 21.8912 70.9855 21.7337 70.6998C21.5837 70.4142 21.4862 69.9783 21.7562 68.8583C21.9362 68.6328 22.1311 68.3998 22.3186 68.1819C22.4986 67.2198 22.7086 66.2201 23.0011 65.2204C23.3011 64.1982 23.7136 63.1835 24.2386 62.2364C24.7711 61.2893 25.4311 60.4024 26.2411 59.6358C27.0436 58.8766 27.996 58.2452 29.0535 57.8619C29.1735 57.6665 29.4285 57.4861 29.7435 57.2982C29.901 57.2005 30.081 57.1253 30.276 57.0501C30.471 56.975 30.6735 56.8847 30.891 56.8321C31.1085 56.772 31.3335 56.7119 31.5585 56.6593C31.7835 56.6142 32.016 56.5766 32.2485 56.539C32.361 56.524 32.4659 56.4939 32.5934 56.4864C32.7209 56.4714 32.8409 56.4563 32.9609 56.4488C33.2009 56.4263 33.4259 56.4112 33.6434 56.3887L33.6584 56.6593C34.1459 56.4713 34.7909 56.6217 35.3684 56.8923C35.9534 57.1628 36.4784 57.5462 36.9584 57.7867C37.1909 58.0197 37.4083 58.2603 37.6033 58.5158C37.6108 58.8014 37.0634 58.4481 36.5159 58.2452C36.2384 58.14 35.9684 58.0648 35.7959 58.0799C35.6234 58.0874 35.5634 58.1776 35.6684 58.4106C36.0434 58.6812 36.3884 58.8841 36.7259 59.0645C37.0709 59.2449 37.4008 59.4103 37.7233 59.5982C38.3533 59.9665 38.9683 60.44 39.1933 61.2517C39.5533 61.9433 39.7108 62.2514 39.8908 62.4844C40.0633 62.725 40.2508 62.8828 40.4383 63.3939C40.5958 63.5067 40.6483 63.409 40.6933 63.2812C40.7383 63.1609 40.7758 63.0031 40.9483 63.0256C41.0983 63.5368 41.1583 64.0178 41.1433 64.4537C41.1358 64.8897 41.0608 65.2805 40.9558 65.6188C40.7383 66.3027 40.4008 66.7688 40.0408 67.1671C39.6733 67.573 39.2683 67.8962 38.8183 68.227C38.3608 68.5577 37.8658 68.911 37.1909 69.3093C37.1909 69.377 37.0708 69.5273 36.9059 69.7002C36.7409 69.8731 36.5384 70.0609 36.3959 70.2188C36.2534 70.3766 36.1784 70.5119 36.3059 70.5796C36.3659 70.6172 36.4859 70.6322 36.6659 70.6172C36.8458 70.6021 37.0934 70.5571 37.4233 70.4518C37.7758 70.1812 38.0983 69.8806 38.3908 69.5423C38.6908 69.4521 38.9833 69.3319 39.2833 69.1816C38.9008 69.5724 38.3008 70.0158 37.8133 70.3165C37.3258 70.6171 36.9659 70.8201 37.1234 70.9328C36.7109 70.8276 36.1409 70.9479 35.5034 71.0757C34.8659 71.2109 34.1534 71.3387 33.5234 71.3688C32.9009 71.3989 32.3759 71.3388 32.2334 71.2486C32.1584 71.2035 32.181 71.1508 32.3235 71.0907C32.4585 71.0306 32.7134 70.9479 33.0809 70.8126C33.8834 71.0682 34.4309 71.0832 34.8809 71.0156C35.3309 70.9404 35.6984 70.7524 36.1334 70.4217C35.2709 70.6397 34.4084 70.6698 33.5834 70.542C32.7584 70.4142 31.9709 70.1211 31.2735 69.6851C30.9285 69.4596 30.606 69.2041 30.321 68.9185C30.036 68.6328 29.7885 68.3172 29.571 67.9864C29.151 67.325 28.8885 66.6109 28.7535 65.9119C28.551 65.6714 28.356 65.4083 28.191 65.1227C28.416 65.0776 28.566 64.6942 28.7535 64.2132C28.9335 63.7246 29.1585 63.1384 29.421 62.5897C29.5035 62.0635 29.8935 61.4773 29.616 61.5073C29.5935 61.4171 29.4135 61.6201 29.211 61.9658C29.0085 62.3116 28.791 62.8001 28.641 63.2436C28.4835 63.6946 28.3785 64.1005 28.266 64.2358C28.161 64.3711 27.996 64.2433 27.8985 63.5593C28.1685 62.2965 28.806 61.1315 29.706 60.2521C30.156 59.8161 30.6735 59.4554 31.2135 59.2073C31.7535 58.9593 32.316 58.8165 32.8334 58.7864L34.9709 58.6511L34.7834 60.0717C34.7234 60.5452 34.6409 60.9812 34.5359 61.357C34.4234 60.921 34.3634 60.5302 34.2734 60.1469L33.9884 58.9217L32.9684 59.2825C32.6309 59.4027 32.3159 59.5681 32.031 59.8011C31.7535 60.0341 31.5135 60.3498 31.3485 60.7331C30.6435 61.5825 30.2085 62.5746 30.036 63.6044C29.8635 64.6341 29.961 65.7315 30.4635 66.656C30.7185 67.1145 31.056 67.5204 31.4685 67.8211C31.8735 68.1293 32.3459 68.3397 32.8259 68.4524C33.7934 68.6779 34.7909 68.5276 35.5784 68.0917C35.6834 68.227 35.9759 68.2345 36.2384 68.242C36.4934 68.2495 36.7109 68.2495 36.6434 68.4675C36.8608 68.475 37.1834 68.2946 37.4758 68.0917C37.7758 67.8887 38.0458 67.6783 38.3233 67.7083C38.5783 67.34 38.7883 66.9342 38.9383 66.5057C39.0808 66.0848 39.1783 65.6413 39.2158 65.1978C39.2908 64.3034 39.1108 63.4089 38.7733 62.6197C38.0908 61.0413 36.8533 59.8311 35.5409 59.1847C35.6384 59.4553 35.5634 59.5681 35.4059 59.5907C35.2484 59.6132 35.0009 59.5531 34.7084 59.4929C34.4159 59.4328 34.0859 59.3576 33.7784 59.3426C33.6209 59.3276 33.4709 59.3351 33.3434 59.3426C33.2084 59.3576 33.0959 59.3877 33.0059 59.4253C32.8409 59.3426 32.6384 59.2825 32.4135 59.2825C32.301 59.2749 32.1809 59.2749 32.0684 59.2825C31.9484 59.29 31.8285 59.32 31.7085 59.3351C31.5885 59.3576 31.461 59.3877 31.341 59.4177C31.221 59.4553 31.1085 59.5005 30.9885 59.538C30.756 59.6132 30.5385 59.7184 30.336 59.8086C30.291 59.9589 29.8485 60.2521 30.066 60.3949C30.3135 60.1995 30.5235 60.1544 30.726 60.1093C30.7785 60.1018 30.831 60.0942 30.8835 60.0792C30.936 60.0717 30.996 60.0717 31.056 60.0642C31.176 60.0567 31.3035 60.0416 31.4535 60.0191C31.431 60.1769 31.3485 60.2822 31.221 60.3498C31.1535 60.3799 31.0785 60.4024 30.996 60.425C30.9135 60.455 30.8235 60.4701 30.7185 60.4926C30.621 60.5152 30.5085 60.5227 30.396 60.5452C30.2835 60.5753 30.171 60.5979 30.0585 60.6279C29.826 60.6805 29.601 60.7782 29.3985 60.891C29.4735 60.7181 29.5635 60.5377 29.6535 60.3573C28.956 60.7406 28.101 61.0864 27.3436 61.6126C26.5861 62.1237 25.9486 62.8152 25.7986 63.6044C25.9861 63.4691 26.1811 63.3413 26.3761 63.2286C26.5711 63.1083 26.7661 62.9955 26.9686 62.8978C26.5261 63.672 25.9111 64.4537 25.4611 65.2956C25.0111 66.1299 24.7411 67.0093 24.9211 67.7309C25.1536 67.1746 25.3336 66.408 25.5736 65.8292C25.6336 65.6864 25.6936 65.5511 25.7611 65.4308C25.8286 65.3181 25.9036 65.2204 25.9711 65.1452C26.1136 65.0024 26.2636 64.9498 26.4361 65.0475C26.6011 65.1678 26.5411 65.5136 26.4061 65.8819C26.2786 66.2502 26.0761 66.6861 25.9036 66.9567C25.5136 67.543 25.3336 68.1744 25.2436 68.7982C25.1536 69.4221 25.1686 70.0384 25.1836 70.6322C25.2436 71.7897 25.3036 72.9397 24.6736 74.1649Z" fill="#9F9F9F"/>
<path d="M26.2938 70.4669C26.4138 69.3771 26.2188 69.0764 26.0088 68.7608C25.8138 68.4601 25.6113 68.1369 25.9563 67.1297C26.2713 67.498 26.8788 66.6035 27.1563 66.0699C27.1713 65.7467 27.2988 65.4235 27.4713 65.1379C27.5538 64.9951 27.6513 64.8597 27.7413 64.732C27.8313 64.6042 27.9138 64.4839 27.9888 64.3712C28.1313 64.2434 28.2887 64.266 28.3712 64.3862C28.4087 64.4464 28.4312 64.5365 28.4162 64.6418C28.4087 64.6944 28.3937 64.7545 28.3712 64.8147C28.3487 64.8823 28.3187 64.9499 28.2737 65.0251C27.8687 65.2731 27.5988 65.6565 27.3963 66.0849C27.2163 66.5133 27.0888 67.0094 27.0138 67.5281C26.8413 68.5503 26.8038 69.5875 26.2938 70.4669Z" fill="#9F9F9F"/>
<path d="M27.5684 63.8002C27.7334 63.5071 28.1308 63.1012 28.5283 62.8381C28.7383 62.7179 28.9408 62.6276 29.1208 62.5901C29.3008 62.5675 29.4508 62.5901 29.5483 62.6878C29.6458 62.6652 29.7058 62.9659 29.8933 62.6803C29.7733 62.7329 29.6008 62.8231 29.4058 62.9433C29.2258 63.0711 29.0008 63.2064 28.7983 63.3568C28.6933 63.4319 28.5809 63.492 28.4759 63.5597C28.3709 63.6273 28.2659 63.6799 28.1609 63.725C27.9434 63.8077 27.7484 63.8528 27.5684 63.8002Z" fill="#9F9F9F"/>
<path d="M27.3434 62.4545C27.1409 62.3793 27.2309 62.244 27.3884 62.1087C27.4634 62.0411 27.5609 61.9734 27.6434 61.9133C27.7334 61.8607 27.8084 61.8081 27.8459 61.7705C27.9959 61.7103 28.1309 61.6427 28.2809 61.5901C28.1609 61.763 28.0259 61.9584 27.8684 62.1087C27.7109 62.2666 27.5384 62.4019 27.3434 62.4545Z" fill="#9F9F9F"/>
<path d="M32.7808 60.7402C33.1632 60.8154 32.9532 60.9507 32.7957 61.0634C32.7132 61.1311 32.6233 61.1988 32.6233 61.2439C32.6233 61.2664 32.6383 61.2814 32.6908 61.2964C32.7133 61.304 32.7433 61.304 32.7808 61.304C32.8183 61.3115 32.8558 61.319 32.9008 61.319L32.7957 61.3341L32.6683 61.3641L32.4133 61.4167C32.3233 61.2138 32.2258 61.0259 32.1133 60.838C32.2258 60.8079 32.3308 60.7928 32.4433 60.7853L32.7808 60.7402Z" fill="#9F9F9F"/>
<path d="M33.8008 61.4246C34.0258 61.3494 34.2658 61.3795 34.5508 61.6651C34.4533 61.7027 34.3633 61.7327 34.2658 61.7778C34.1158 61.8154 34.0783 61.4998 33.8008 61.4246Z" fill="#9F9F9F"/>
<path d="M32.9538 59.8837C33.4263 59.7559 33.3363 60.0792 33.5913 60.237C33.4938 60.3122 33.2463 60.222 33.0513 60.1242C32.8563 60.034 32.7213 59.9138 32.9538 59.8837Z" fill="#9F9F9F"/>
<path d="M39.9653 59.6804C39.5378 59.5376 39.1478 59.1693 38.6829 58.7484C38.2179 58.335 37.6704 57.8764 37.0254 57.5908C37.6629 57.8764 38.1279 58.0869 38.5853 58.365C39.0278 58.6507 39.4778 59.0039 39.9653 59.6804Z" fill="#9F9F9F"/>
<path d="M17.1209 92.7529C16.8584 92.798 16.6259 92.9183 16.4159 93.0536C16.2134 93.1964 16.0409 93.3617 15.9209 93.497C16.0259 93.5121 16.1234 93.5271 16.2284 93.5421C16.5284 93.2791 16.8284 93.0235 17.1209 92.7529Z" fill="#9F9F9F"/>
<path d="M23.2338 87.9654C23.1738 87.5445 23.0388 87.5971 22.8063 87.8226C22.6938 87.9428 22.5363 88.0931 22.3488 88.2585C22.1613 88.4239 21.9438 88.5968 21.6738 88.717C21.5388 88.8373 21.4113 88.9651 21.2913 89.1004C21.1638 89.2282 21.0438 89.3559 20.9163 89.4912C20.6763 89.7693 20.4288 90.0249 20.1889 90.303C19.9414 90.566 19.6864 90.8291 19.4239 91.0697C19.1614 91.2952 18.8839 91.5281 18.5989 91.701C18.4264 91.9415 18.2464 92.1821 18.0664 92.4151C18.8089 92.0844 19.8364 91.5432 20.8263 90.7615C21.0738 90.566 21.3138 90.3631 21.5463 90.1376C21.6588 90.0248 21.7788 89.9121 21.8913 89.7994C22.0038 89.6866 22.1088 89.5588 22.2138 89.4461C22.3188 89.3258 22.4163 89.2056 22.5138 89.0853C22.6113 88.9651 22.6938 88.8373 22.7838 88.7095C22.9488 88.454 23.1063 88.2134 23.2338 87.9654Z" fill="#9F9F9F"/>
<path d="M7.35636 98.1045C7.84385 97.7212 8.54884 97.3905 9.26133 97.0071C9.97381 96.6238 10.7088 96.1803 11.2638 95.5114C10.5588 95.7143 10.4538 95.549 9.41882 95.9624C9.60632 95.4212 10.0113 95.2483 10.4838 95.1581C10.9563 95.0679 11.4738 95.0679 11.9613 94.8424C11.0988 95.0454 11.9988 94.2787 12.6737 93.9179C13.3712 93.7225 14.2487 93.3692 15.1787 92.9182C16.1162 92.4673 17.1061 91.9186 18.0061 91.3398C18.3211 90.9865 19.1686 90.4604 19.8136 89.9117C20.4586 89.363 20.8711 88.8218 20.4511 88.7091C20.6836 88.4761 20.8711 88.2881 21.0586 88.1679C21.1486 88.1002 21.2386 88.0476 21.3286 88.0025C21.4111 87.9499 21.5011 87.9048 21.5836 87.8673C21.7561 87.7846 21.9211 87.7094 22.1011 87.6117C22.2736 87.514 22.446 87.3787 22.6335 87.1908C22.881 86.4166 23.226 85.8002 23.601 85.2064C23.8035 84.9133 23.9835 84.6202 24.201 84.327C24.396 84.0339 24.6135 83.7408 24.801 83.4401C25.5885 82.245 26.2335 80.8846 25.9035 79.2836C26.1135 79.4038 26.2485 79.0881 26.346 78.6597C26.391 78.4492 26.421 78.2087 26.451 77.9907C26.4735 77.7728 26.496 77.5698 26.5185 77.4195C26.586 76.7806 26.661 75.7358 26.6085 74.9541C26.556 74.1649 26.391 73.6162 25.9485 73.9018C25.3335 74.6685 26.1885 76.3897 25.506 77.6675C25.2285 78.2087 25.0785 78.3289 25.0035 78.2087C24.9285 78.0884 24.9285 77.7201 24.9285 77.2842C24.9285 76.4123 24.936 75.2999 24.5535 75.2623C24.6735 75.5855 23.9985 75.7208 24.1785 76.6979C24.0735 75.6607 23.8485 75.8636 23.601 76.1868C23.361 76.51 23.0835 76.9385 22.8885 76.4123C22.581 77.5473 22.4086 78.0358 22.1911 78.3891C21.9736 78.7349 21.7036 78.9378 21.1411 79.4038C21.1186 80.0502 21.2686 80.3133 21.4711 80.4711C21.6736 80.6365 21.9285 80.6891 22.0635 80.9146C22.101 81.6512 21.7936 82.2375 21.4711 82.7486C21.1411 83.2672 20.7586 83.7032 20.5936 84.2669C20.4286 83.9362 20.2336 83.861 20.0461 83.9362C19.9486 83.9737 19.8436 84.0414 19.7461 84.1391C19.6936 84.1917 19.6486 84.2444 19.5961 84.3045C19.5436 84.3646 19.4911 84.4248 19.4386 84.4924C19.3861 84.5601 19.3336 84.6352 19.2811 84.7104C19.2286 84.7855 19.1686 84.8607 19.1086 84.9358C19.0561 85.011 18.9961 85.0937 18.9361 85.1764L18.7561 85.4094C18.6961 85.4845 18.6361 85.5672 18.5761 85.6424C18.5161 85.7176 18.4486 85.7927 18.3886 85.8604C18.3286 85.928 18.2686 86.0032 18.2161 86.0633C18.1561 86.131 18.0961 86.1836 18.0436 86.2437C17.7436 86.5143 17.5937 86.7097 17.5337 86.8901C17.4737 87.063 17.4962 87.2133 17.5112 87.3637C17.5412 87.6568 17.5637 87.98 16.7312 88.4836C16.1687 88.4986 16.4987 88.0852 16.7312 87.6793C16.8587 87.4764 16.9562 87.281 16.9487 87.1457C16.9412 87.0104 16.8212 86.9427 16.5062 86.9953C16.3262 87.2133 16.1612 87.4388 15.9587 87.6568C15.9062 87.8221 15.8612 87.995 15.8237 88.1754C15.7787 88.3483 15.7262 88.5212 15.6737 88.694C15.5687 89.0473 15.4262 89.3856 15.1862 89.6937C14.8187 89.8967 14.2562 90.1898 14.1587 90.0395C14.4887 89.7689 14.5337 89.5584 14.4062 89.4457C14.2712 89.3254 13.9487 89.2954 13.5062 89.363C13.2287 89.7012 13.1537 89.7839 13.0562 90.032C14.0987 90.2499 13.7012 90.4529 12.9362 90.7535C12.1713 91.0542 11.0238 91.4225 10.6038 92.0163C9.8838 92.6251 9.38131 92.9032 8.98382 93.0159C8.58632 93.1212 8.27884 93.046 7.96385 92.9709C7.64885 92.8882 7.32637 92.798 6.89137 92.8807C6.67388 92.9182 6.42637 93.0009 6.14887 93.1588C5.86388 93.3091 5.5489 93.5421 5.18141 93.8653C5.97639 94.0006 5.52639 94.4516 4.8364 95.0529C4.66391 95.2032 4.47642 95.3686 4.28893 95.534C4.10143 95.7068 3.91393 95.8872 3.74143 96.0601C3.57643 96.248 3.41895 96.4284 3.28395 96.6013C3.15645 96.7817 3.05895 96.9545 2.99895 97.0973C2.81896 97.2852 2.66895 97.4506 2.51895 97.5784C2.36896 97.7137 2.21897 97.8114 2.08397 97.9166C1.80648 98.1196 1.49147 98.2624 1.16148 98.533C1.09398 98.8562 0.80899 99.6755 0.951487 99.8709C1.35648 99.8709 1.79896 99.7732 2.25645 99.6303C2.73644 99.4951 3.22394 99.3147 3.76393 99.1493C4.01892 99.0591 4.31142 98.984 4.58141 98.8938C4.71641 98.8487 4.86641 98.8111 5.00891 98.7735C5.1589 98.7359 5.29389 98.6908 5.44389 98.6532C6.04387 98.5104 6.65886 98.3751 7.31885 98.2549C7.34885 98.1797 7.37886 98.1271 7.35636 98.1045Z" fill="#9F9F9F"/>
</g>
</svg>
