<svg width="25" height="26" viewBox="0 0 25 26" fill="none" xmlns="http://www.w3.org/2000/svg">
<g id="Group">
<path id="Vector" d="M24.9821 12.7003C25.0271 19.5456 19.3214 25.1988 12.4537 25.1763C5.616 25.1538 -0.0371191 19.4857 0.000368482 12.618C0.0303585 5.81022 5.68348 0.142048 12.5437 0.187034C19.4339 0.224521 24.9821 5.78013 24.9821 12.7003ZM11.3966 7.902C11.3966 9.51396 11.4041 11.1261 11.3891 12.738C11.3891 12.993 11.4641 13.1878 11.6515 13.3677C12.2663 13.9675 12.8736 14.5823 13.4809 15.1971C14.6505 16.3667 15.8201 17.5212 16.9747 18.6983C17.1922 18.9233 17.3421 18.9233 17.552 18.6983C17.8294 18.3909 18.1293 18.1136 18.4218 17.8212C18.7891 17.4538 18.7891 17.4536 18.4292 17.0938C16.9372 15.6018 15.4452 14.1025 13.9457 12.618C13.6833 12.363 13.5784 12.1005 13.5784 11.7331C13.5934 8.83159 13.5784 5.93748 13.5934 3.03594C13.5934 2.69855 13.5034 2.55638 13.151 2.57137C12.7161 2.59387 12.2738 2.59387 11.8389 2.57137C11.4866 2.54888 11.3891 2.69123 11.3891 3.02862C11.4041 4.65558 11.3966 6.27504 11.3966 7.902Z" fill="#005E90"/>
</g>
</svg>
