<svg width="31" height="29" viewBox="0 0 31 29" fill="none" xmlns="http://www.w3.org/2000/svg">
<g id="Vector">
<path d="M9.77637 5.80777C9.77637 6.55752 9.46146 7.03724 8.92164 7.37463C8.16439 7.84697 7.3996 8.3194 6.62736 8.76925C6.38744 8.9117 6.34251 9.04663 6.40999 9.30905C6.95731 11.4083 7.88694 13.3426 8.97408 15.2095C9.99374 16.9564 11.1484 18.5985 12.5804 20.038C12.8054 20.263 12.9703 20.2778 13.2327 20.1204C13.96 19.7005 14.7097 19.3108 15.4444 18.8984C16.4191 18.3586 17.3938 18.6134 17.9636 19.5806C18.7283 20.9002 19.5006 22.2122 20.2504 23.5393C20.8277 24.559 20.4978 25.6011 19.4407 26.1034C17.9787 26.8007 16.5166 27.4905 15.0546 28.1952C14.8221 28.3077 14.6198 28.3152 14.3798 28.2327C12.9628 27.7604 11.7332 26.9657 10.6011 26.0135C8.04442 23.8617 6.0576 21.2302 4.34067 18.3886C2.58626 15.4796 1.19924 12.413 0.426995 9.09159C0.134593 7.83201 -0.0378942 6.55753 0.0070909 5.26047C0.0295834 4.69815 0.104595 4.13567 0.232053 3.58835C0.277038 3.40841 0.352002 3.2811 0.501952 3.17614C1.88899 2.22395 3.26848 1.26423 4.66301 0.319541C5.52523 -0.265264 6.6049 -0.0253659 7.12972 0.85934C7.94695 2.23138 8.73416 3.62594 9.5364 5.00548C9.71634 5.28289 9.79886 5.57535 9.77637 5.80777Z" fill="#005E90"/>
<path d="M30.6119 13.0203C30.6119 15.2995 30.6119 17.5789 30.6119 19.8581C30.6119 20.8328 30.1096 21.3426 29.1424 21.3426C26.4583 21.3426 23.7742 21.3351 21.0901 21.3501C20.7827 21.3501 20.6103 21.2451 20.4603 20.9752C20.063 20.248 19.6356 19.5281 19.2157 18.8158C18.301 17.2489 16.4941 16.7166 14.8821 17.5488C14.3798 17.8037 13.885 18.0812 13.3976 18.3586C13.2027 18.4711 13.0753 18.441 12.9328 18.276C10.826 15.8019 9.229 13.0277 8.12687 9.96874C8.0369 9.72133 8.07438 9.59392 8.3068 9.45897C8.89911 9.10658 9.51398 8.77671 10.0688 8.35685C10.2337 8.2294 10.3386 8.31941 10.4661 8.40188C11.5532 9.14414 12.6479 9.89387 13.7351 10.6361C15.1071 11.5733 16.4717 12.518 17.8437 13.4552C18.3235 13.7851 18.5184 13.7851 19.0058 13.4552C22.6795 10.936 26.3534 8.41682 30.0272 5.90515C30.1846 5.80019 30.3495 5.5752 30.5144 5.65017C30.7169 5.74014 30.6119 6.01773 30.6119 6.20516C30.6119 8.48441 30.6119 10.7485 30.6119 13.0203Z" fill="#005E90"/>
<path d="M29.2176 4.68319C28.8502 4.9381 28.5203 5.17049 28.1904 5.39541C25.0415 7.5547 21.9 9.70639 18.7586 11.8657C18.5187 12.0306 18.3537 12.0381 18.1138 11.8657C15.8646 10.3062 13.6003 8.76174 11.336 7.21726C11.1261 7.0748 11.0586 6.93989 11.1411 6.69247C11.321 6.10766 11.2986 5.51529 11.1112 4.93048C11.0212 4.66057 11.1036 4.60063 11.366 4.60063C13.3604 4.60813 15.3547 4.60063 17.3415 4.60063C21.1578 4.60063 24.974 4.60063 28.7827 4.60063C28.9027 4.62313 29.0376 4.59322 29.2176 4.68319Z" fill="#005E90"/>
</g>
</svg>
