<svg width="20" height="29" viewBox="0 0 20 29" fill="none" xmlns="http://www.w3.org/2000/svg">
<path id="Vector" d="M19.982 10.7514C19.982 5.33074 15.5885 0.92981 10.1603 0.92981C4.73956 0.92981 0.353516 5.33823 0.353516 10.7514C0.353516 12.7683 0.968311 14.6652 2.04045 16.2096V16.2397L10.1603 28.4456L18.3325 16.2096H18.3175C19.3672 14.6577 19.982 12.7683 19.982 10.7514ZM10.1603 16.2096C7.14626 16.2096 4.69458 13.7579 4.69458 10.7514C4.69458 7.73744 7.14626 5.28572 10.1603 5.28572C13.2042 5.28572 15.6184 7.73744 15.6184 10.7514C15.6184 13.7579 13.1967 16.2096 10.1603 16.2096Z" fill="#005E90"/>
</svg>
