<svg width="90" height="155" viewBox="0 0 90 155" fill="none" xmlns="http://www.w3.org/2000/svg">
<path d="M80.9924 11.4679C80.1724 10.5879 79.0624 9.39792 78.2024 8.49792C77.3424 7.59792 76.7624 6.92789 77.1824 6.95789L76.9824 6.41797C77.1824 6.58797 77.4624 6.8179 77.7924 7.0979C78.1124 7.3879 78.4924 7.70788 78.8624 8.07788C79.6224 8.78788 80.4024 9.64794 80.9924 10.3879C81.2824 10.7679 81.5324 11.1079 81.7224 11.3879C81.9024 11.6779 82.0124 11.898 82.0424 12.028C82.1024 12.298 81.8224 12.1579 80.9924 11.4679Z" fill="#E95232"/>
<path d="M75.5524 15.4079L75.8924 15.9779C75.5624 15.4079 74.9624 14.6579 74.5024 14.2179C74.6224 14.0079 75.7024 14.6979 76.4424 15.7879C76.1124 15.6879 75.2724 14.7379 75.5524 15.4079Z" fill="#E95232"/>
<path d="M44.4324 9.04797C44.4724 9.27797 44.6524 9.36791 44.9524 9.35791C45.2524 9.34791 45.6424 9.22798 46.1424 9.05798C47.1124 8.70798 48.4024 8.13796 49.8024 7.65796C49.7124 8.18796 49.6624 8.72792 49.6224 9.23792C49.3824 9.32792 49.1224 9.46793 48.8424 9.62793C48.5724 9.79793 48.2924 9.99791 48.0024 10.2279C47.8624 10.3479 47.7224 10.4779 47.5824 10.5979C47.5124 10.6679 47.4424 10.728 47.3624 10.798C47.2924 10.868 47.2224 10.9379 47.1524 11.0179C47.0124 11.1679 46.8724 11.3179 46.7324 11.4679C46.6024 11.6279 46.4624 11.7979 46.3324 11.9579C45.8024 12.6379 45.3024 13.378 44.8824 14.168C44.6624 14.548 44.4824 14.9579 44.2824 15.3379C44.1124 15.7379 43.9324 16.1179 43.7924 16.4979C43.6824 17.1279 44.0324 16.458 44.3424 16.038C44.4924 15.828 44.6224 15.6779 44.6424 15.7679C44.6524 15.8079 44.6324 15.9079 44.5824 16.0979C44.5524 16.1879 44.5224 16.298 44.4824 16.438C44.4424 16.578 44.4024 16.738 44.3424 16.918C44.0524 17.178 43.8524 16.828 43.5224 17.428C43.2324 18.778 43.4724 19.198 43.5624 19.908C43.5924 20.088 43.6124 20.2779 43.6224 20.5079C43.6324 20.7379 43.6524 21.0079 43.6424 21.3279C43.6424 21.4079 43.6424 21.4879 43.6424 21.5779C43.6424 21.6179 43.6424 21.6679 43.6424 21.7079C43.6424 21.7979 43.6324 21.8879 43.6324 21.9779C43.6224 22.3779 43.6124 22.8479 43.6824 23.3779C43.7124 23.6379 43.7424 23.9179 43.7724 24.2079C43.7824 24.3479 43.8024 24.4979 43.8124 24.6479C43.8124 24.7179 43.8524 24.818 43.8824 24.908C43.9124 24.998 43.9424 25.098 43.9724 25.188C44.1024 25.568 44.2324 25.9679 44.3624 26.3779C44.4324 26.5879 44.4924 26.7879 44.5724 27.0079C44.7524 27.3179 44.9424 27.628 45.1324 27.948C44.9324 28.168 44.7024 28.428 44.4624 28.698C44.2824 28.808 44.1024 28.928 43.9424 29.038L43.5024 29.3479C43.2724 29.5079 43.0424 29.7079 42.9424 29.8279C42.9124 29.9479 42.8824 30.068 42.8624 30.188L42.8424 30.4879L42.8324 30.6379C42.8324 30.6879 42.8424 30.7279 42.8524 30.7679L42.8924 31.0179C42.9324 31.1479 42.9824 31.2579 43.0324 31.3779C43.0924 31.4879 43.1724 31.578 43.2424 31.678C43.2624 31.698 43.2224 31.688 43.2124 31.688L43.1524 31.678L43.0424 31.658L42.8224 31.6279C42.6724 31.6079 42.5024 31.6179 42.3524 31.6079C41.6924 31.6279 40.9324 31.7879 39.7224 32.4579C38.9524 31.8479 38.1824 31.278 37.4024 30.688C36.6324 30.138 35.8524 29.558 35.0824 29.058C34.6924 28.808 34.3124 28.518 33.9124 28.288L32.7324 27.558L32.5824 27.4679L32.4824 27.408L32.4424 27.3879L32.2824 27.298L31.9524 27.1179C31.7324 26.9979 31.5124 26.8779 31.2924 26.7679C30.4124 26.3079 29.5224 25.898 28.6324 25.528C27.7424 25.148 26.8424 24.838 25.9624 24.568C22.3924 23.488 18.7124 23.268 15.4724 23.938C14.7424 24.438 13.3024 25.058 11.9624 26.048C11.2924 26.548 10.6424 27.148 10.0824 27.778C9.52237 28.418 9.06236 29.1079 8.74236 29.7379L8.40236 29.5879C8.19236 30.4479 7.61236 31.378 7.05236 32.438C6.48236 33.488 5.95236 34.6579 5.76236 35.7179C5.51236 36.3179 5.30237 36.9379 5.11237 37.5779C4.78237 37.9279 4.83236 36.4979 5.03236 35.2079C5.09236 34.8879 5.13236 34.568 5.17236 34.288C5.22236 34.008 5.25237 33.7679 5.25237 33.5879C5.25237 33.4079 5.22236 33.2879 5.15236 33.2579C5.08236 33.2279 4.96237 33.2879 4.79237 33.4779C4.32237 34.4979 4.09236 35.5079 3.98236 36.4779C3.86236 37.4379 3.90237 38.388 3.96237 39.288C4.11237 41.108 4.40236 42.7879 4.42236 44.7579C4.54236 45.6979 4.69236 46.3779 4.84236 46.8879C4.98236 47.4079 5.13236 47.758 5.26236 48.068C5.54236 48.678 5.82236 49.098 6.28236 50.198C6.82236 50.658 6.38237 49.3579 6.86237 49.4679C7.56237 51.4479 8.13237 52.978 8.55237 54.278C8.60237 54.438 8.65236 54.5979 8.70236 54.7579C8.75236 54.9179 8.80236 55.0679 8.85236 55.2179C8.95236 55.5179 9.03237 55.8079 9.11237 56.0879C9.26237 56.6579 9.44236 57.178 9.59236 57.698C9.67236 57.958 9.75236 58.2179 9.82236 58.4879C9.90236 58.7479 10.0024 59.0079 10.0924 59.2679C10.2924 59.7979 10.4824 60.348 10.7624 60.918C10.9024 61.208 11.0424 61.498 11.2024 61.808C11.3624 62.118 11.5424 62.4379 11.7424 62.7579C11.9424 63.0879 12.1624 63.428 12.4024 63.788C12.6424 64.148 12.9224 64.5079 13.2124 64.8879C13.3224 64.8979 13.6524 65.198 14.0724 65.538C14.4924 65.878 14.9824 66.2779 15.3524 66.5179C15.7224 66.7579 16.0024 66.8479 15.9624 66.5879C15.9224 66.3379 15.6024 65.718 14.8224 64.548C14.2024 63.898 13.5524 63.2679 12.9624 62.5979C12.7324 62.0179 12.5024 61.4479 12.3024 60.8579C12.4424 61.0779 12.5824 61.318 12.7524 61.568C12.9224 61.818 13.1024 62.0779 13.2824 62.3379C13.4624 62.5979 13.6424 62.8679 13.8324 63.1179C14.0224 63.3679 14.2124 63.6079 14.3924 63.8379C15.0924 64.7479 15.7124 65.328 15.7324 65.028C15.8124 65.398 16.0124 65.848 16.3224 66.308C16.6424 66.778 17.0424 67.288 17.5024 67.788C17.9724 68.278 18.4724 68.7979 19.0024 69.2679C19.5324 69.7279 20.0424 70.1879 20.5424 70.5779C21.0324 70.9679 21.4624 71.3079 21.8024 71.5879C22.1524 71.8579 22.3924 72.068 22.4824 72.188C22.5724 72.318 22.5224 72.358 22.2624 72.308C22.1324 72.278 21.9524 72.2279 21.7224 72.1379C21.4824 72.0579 21.1924 71.938 20.8524 71.778C20.2724 71.108 19.7824 70.5579 19.3724 70.0779C18.9624 69.5979 18.5824 69.2279 18.2424 68.8679C17.8924 68.5179 17.5524 68.218 17.1724 67.918C16.8024 67.608 16.4024 67.298 15.9224 66.948C18.4424 70.078 21.0924 72.8379 23.8124 75.2479C24.5124 75.8279 25.1824 76.4379 25.8924 76.9779C26.2424 77.2479 26.5924 77.528 26.9424 77.798C27.3024 78.058 27.6524 78.318 28.0024 78.568C28.1824 78.698 28.3524 78.818 28.5324 78.948C28.7124 79.068 28.8924 79.188 29.0724 79.308C29.4324 79.548 29.7924 79.7879 30.1524 80.0179C30.5224 80.2379 30.8824 80.458 31.2424 80.678C31.6024 80.898 31.9724 81.108 32.3424 81.308L33.3524 81.5079C33.6824 81.5779 34.0224 81.638 34.3624 81.688C34.3224 81.838 34.4724 82.0579 34.7524 82.3379C35.0324 82.6179 35.4524 82.958 35.9824 83.288C36.5124 83.628 37.1224 84.0179 37.8124 84.3579C38.1524 84.5379 38.5024 84.7179 38.8624 84.8879C39.2224 85.0579 39.6024 85.2179 39.9724 85.3779C40.3124 85.4679 40.6624 85.588 41.0124 85.678C41.3524 85.768 41.6824 85.868 41.9624 85.938C42.5124 86.078 42.8524 86.128 42.6924 85.918C42.8724 85.878 42.2624 85.6179 41.3524 85.2579C40.8924 85.0879 40.3724 84.8479 39.8324 84.6179C39.2824 84.3979 38.7324 84.1279 38.2224 83.8779C37.9624 83.7479 37.7224 83.6279 37.4924 83.5179C37.2624 83.3979 37.0624 83.278 36.8724 83.168C36.5024 82.948 36.2324 82.7579 36.1024 82.6279C35.8524 82.3679 36.2224 82.318 37.6124 82.658C40.9224 84.218 44.4624 85.588 47.8024 86.568C49.4624 87.088 51.0724 87.4779 52.5624 87.8579C53.3124 88.0279 54.0224 88.1879 54.7024 88.3579C55.3824 88.4979 56.0224 88.638 56.6224 88.788C54.8624 88.758 53.3524 88.6379 51.8124 88.4979C51.4324 88.4679 51.0424 88.438 50.6424 88.418C50.2524 88.388 49.8524 88.3479 49.4324 88.3279C48.6024 88.2979 47.7324 88.2379 46.7724 88.2379C43.6024 87.7279 40.4324 86.8079 37.3424 85.6079C36.5624 85.3179 35.8124 84.978 35.0424 84.6479C34.2824 84.3179 33.5324 83.9379 32.7824 83.5779C31.3024 82.8079 29.8324 82.0179 28.4124 81.1379C25.5624 79.3879 22.8624 77.4379 20.3424 75.3279C17.8224 73.2279 15.4624 70.9979 13.2624 68.7179C13.2624 68.4079 12.7924 67.5679 12.4324 66.8779C12.0724 66.1879 11.8624 65.6279 12.3224 65.8979C12.1024 65.3479 11.4424 64.4879 10.8924 63.5879C10.7524 63.3679 10.6124 63.148 10.4924 62.938C10.3624 62.728 10.2624 62.508 10.1724 62.308C9.99236 61.908 9.87237 61.558 9.89237 61.298C8.52237 59.348 7.27237 57.1779 6.21237 54.8679C5.14236 52.5679 4.26237 50.138 3.64237 47.688C3.03237 45.228 2.69236 42.7479 2.70236 40.3679C2.70236 39.1779 2.79236 38.018 2.94236 36.8979C3.09236 35.7879 3.35237 34.7179 3.64237 33.7079C3.22237 34.1979 3.07236 34.1379 3.05236 33.7079C3.05236 33.4979 3.10236 33.188 3.17236 32.818C3.25236 32.448 3.38236 32.028 3.52236 31.568C3.84236 30.658 4.29236 29.6279 4.78236 28.7179C4.89236 28.4879 5.03236 28.268 5.15236 28.058C5.27236 27.848 5.38237 27.638 5.50237 27.448C5.74237 27.068 5.91236 26.718 6.08236 26.448C6.97236 25.668 8.08236 24.5679 9.40236 23.5979C10.7124 22.6179 12.2224 21.788 13.6024 21.308C13.8224 20.988 15.5924 20.478 15.0924 20.298C14.5624 20.458 14.1124 20.5979 13.7124 20.7279C13.3124 20.8679 12.9424 20.9579 12.5824 21.0879C11.8624 21.3379 11.1024 21.5679 10.0924 22.1479C10.1424 21.9979 10.2424 21.848 10.4024 21.698C10.5524 21.538 10.7724 21.4079 11.0124 21.2579C11.2624 21.1079 11.5424 20.9579 11.8724 20.8379C12.2024 20.7079 12.5424 20.5679 12.9324 20.4679C14.4524 20.0179 16.3324 19.8279 18.0224 19.7279L17.1624 20.028L16.3324 20.3679C17.7024 20.1379 19.1724 20.1479 20.6224 20.3279C22.0824 20.5079 23.5224 20.868 24.9024 21.318C27.6724 22.208 30.1424 23.4979 32.4524 24.3579C31.3624 23.4679 30.2124 22.6279 28.9924 21.8679C30.6324 22.4279 32.2924 23.2779 33.8624 24.2579C34.2724 24.5079 34.5924 24.7279 34.9524 24.9679C35.3024 25.2079 35.6524 25.4579 36.0124 25.7079C36.7124 26.2179 37.4224 26.748 38.1024 27.288C39.1924 28.128 40.2324 28.9479 41.1024 29.5879C41.5324 29.9079 41.9224 30.1679 42.2324 30.3579L42.3424 30.428L42.3924 30.4579L42.4224 30.4679L42.4324 30.4779L42.4124 30.448C42.3124 30.298 42.2124 30.1579 42.1124 30.0079C41.9224 29.7179 41.7024 29.4279 41.5324 29.1279C41.6124 29.2979 41.7524 29.4479 41.8624 29.6379L41.9524 29.778L42.0024 29.8479C42.0024 29.8579 42.0124 29.8579 42.0124 29.8679L41.9924 29.8479L41.9524 29.818C41.8524 29.728 41.7424 29.638 41.6324 29.548C41.2124 29.188 40.7824 28.8479 40.3624 28.5079C39.5224 27.8379 38.6524 27.1879 37.8824 26.6079C37.2024 26.0879 36.5924 25.6279 36.1924 25.2379C35.7824 24.8479 35.5924 24.548 35.6624 24.308C35.7324 24.178 35.9724 24.2079 36.2824 24.3379C36.5924 24.4679 36.9724 24.6879 37.3824 24.9879C38.0224 25.4479 38.7524 26.088 39.3624 26.688C39.8324 27.148 40.3024 27.5979 40.7524 28.0079L40.7924 28.048L40.7724 28.0179L40.7324 27.9579L40.6524 27.8379L40.4824 27.5879C40.3824 27.4079 40.2624 27.2179 40.1624 27.0179C39.8824 26.4779 39.6424 25.8579 39.4324 25.2279C39.2424 24.5879 39.0824 23.9479 38.9824 23.3279C38.9024 22.8579 38.8524 22.3979 38.8224 21.9679C38.8124 21.8579 38.8024 21.7479 38.8024 21.6479V21.4879V21.408V21.278C38.8024 20.918 38.8424 20.558 38.8624 20.198C38.9824 18.768 39.2724 17.378 39.7224 16.038C40.6324 13.328 42.1924 10.858 44.4324 9.04797Z" fill="#E95232"/>
<path d="M37.3526 21.3679C37.3426 21.6479 37.3826 21.8879 37.4526 22.1179C37.6226 22.7079 37.9326 23.2679 38.2826 23.8579C38.4626 24.1779 38.6326 24.458 38.8226 24.808C38.9926 25.108 39.1926 25.458 39.4626 25.948C39.5426 26.098 39.6426 26.248 39.7426 26.418C39.8426 26.588 39.9426 26.758 40.0626 26.928C40.1226 27.008 40.1826 27.098 40.2426 27.198C40.2526 27.218 40.2826 27.248 40.2826 27.258L40.2226 27.2179C40.1826 27.1879 40.1426 27.1579 40.1026 27.1179C39.9326 26.9779 39.7426 26.818 39.5326 26.648C39.4026 26.268 38.8326 25.558 38.3126 24.938C37.7826 24.308 37.2826 23.778 36.9026 23.438C36.8126 23.358 36.7426 23.2879 36.6626 23.2379C36.3626 23.2079 35.8826 22.908 35.4526 22.638L35.4126 22.6079L35.3926 22.5979C35.3826 22.5879 35.4026 22.6079 35.3926 22.5979L35.1726 22.4579C35.0226 22.3679 34.8726 22.278 34.7326 22.188C34.4426 22.008 34.1426 21.838 33.8526 21.668C33.5626 21.498 33.2826 21.338 33.0026 21.188C32.7226 21.038 32.4526 20.888 32.1826 20.768C31.4826 20.368 31.2526 20.0479 31.5526 19.9879C31.8526 19.9379 32.7126 20.128 34.1226 20.888C34.5926 21.228 35.0726 21.588 35.5626 21.938L35.6526 22.008L35.7026 22.038L35.7226 22.058L35.7326 22.068H35.7226C35.6926 22.048 35.7226 22.0679 35.7126 22.0779L35.7326 22.0979L35.8026 22.178C35.8526 22.238 35.9126 22.2879 35.9726 22.3479C36.2126 22.5679 36.4926 22.778 36.7426 22.948C37.0326 23.148 37.2926 23.2879 37.4826 23.3679L37.6126 23.428L37.6726 23.4579L37.7026 23.4679L37.7126 23.4779C37.7126 23.4779 37.7226 23.4879 37.7126 23.4679C37.5826 23.2779 37.4626 23.098 37.3726 22.938C37.1226 22.478 37.0226 22.178 37.1026 21.898C37.1426 21.718 37.2226 21.5679 37.3526 21.3679Z" fill="#E95232"/>
<path d="M30.9727 21.168C30.6627 21.038 30.3027 20.8879 29.9127 20.7179C29.5127 20.5579 29.0827 20.378 28.6427 20.188C28.1827 20.018 27.7226 19.8179 27.2426 19.6479C27.0026 19.5579 26.7627 19.4679 26.5327 19.3879C26.2927 19.3079 26.0526 19.2279 25.8226 19.1479C23.9726 18.5079 22.3226 18.0979 22.2626 17.7279C22.0526 17.6779 22.1426 17.5779 22.0726 17.4879C22.0126 17.3979 21.7927 17.3179 20.9727 17.3279C21.6027 17.4179 22.5427 17.5379 23.5827 17.7579C24.6227 17.9579 25.7627 18.298 26.8327 18.668C27.3627 18.878 27.8827 19.068 28.3427 19.298C28.5827 19.408 28.8027 19.5179 29.0227 19.6279C29.2327 19.7479 29.4327 19.8579 29.6127 19.9679C29.9827 20.1879 30.2927 20.4079 30.5227 20.6179C30.7427 20.8279 30.9027 21.008 30.9727 21.168Z" fill="#E95232"/>
<path d="M27.2726 21.1379C27.4226 21.4679 26.9026 21.3379 26.2426 21.0979C25.5826 20.8779 24.7726 20.5779 24.4126 20.5179C23.9326 20.3279 23.4326 20.1879 22.9326 20.0179C23.2926 20.0479 23.6926 20.0779 24.0826 20.1279C24.4726 20.1979 24.8826 20.2579 25.2626 20.3479C25.6426 20.4479 26.0226 20.548 26.3626 20.688C26.7026 20.838 27.0126 20.9779 27.2726 21.1379Z" fill="#E95232"/>
<path d="M5.43239 24.438C4.72239 25.188 4.52239 25.348 4.54239 25.198C4.57239 25.048 4.82238 24.588 5.09238 24.168C5.37238 23.748 5.64238 23.348 5.62238 23.278C5.61238 23.248 5.53238 23.2979 5.34238 23.4679C5.24238 23.5579 5.12239 23.6679 4.97239 23.8279C4.89239 23.9079 4.81239 23.9879 4.72239 24.0879C4.63239 24.1879 4.54238 24.298 4.44238 24.418C4.73238 24.028 5.07239 23.668 5.39239 23.298C5.72239 22.928 6.08239 22.5879 6.43239 22.2379C6.89239 22.2079 7.35238 22.188 7.79238 22.188C7.37238 22.538 6.95239 22.8879 6.56239 23.2679C6.16239 23.6279 5.80239 24.038 5.43239 24.438Z" fill="#E95232"/>
<path d="M1.3825 29.3579C1.2325 29.9479 1.0425 30.508 0.832497 31.188C0.772497 31.358 0.712497 31.5279 0.652497 31.7079C0.592497 31.8879 0.522502 32.078 0.462502 32.288C0.392502 32.488 0.312498 32.698 0.232498 32.918C0.162498 33.138 0.0825027 33.3779 0.00250275 33.6279C0.00250275 33.2279 -0.00750275 32.828 0.0124973 32.428C0.0724972 32.028 0.242503 31.628 0.502503 31.158C0.622503 30.918 0.762499 30.6579 0.912499 30.3579C1.0625 30.0679 1.2225 29.7379 1.3825 29.3579Z" fill="#E95232"/>
<path d="M5.73273 25.8579C4.74273 27.4479 4.60273 26.998 3.80273 27.928C3.84273 27.748 4.04273 27.4079 4.30273 27.0379C4.57273 26.6779 4.91274 26.2879 5.22274 25.9779C5.86274 25.3879 6.30273 25.0979 5.73273 25.8579Z" fill="#E95232"/>
<path d="M6.19232 42.698C5.77232 42.018 5.63232 40.918 5.63232 39.658C5.63232 39.498 5.63233 39.338 5.64233 39.178C5.65233 39.018 5.66233 38.858 5.67233 38.688C5.68233 38.358 5.72233 38.028 5.75233 37.688C5.81233 37.008 5.91233 36.358 6.00233 35.678C5.91233 36.348 5.88232 36.9279 5.88232 37.4579C5.88232 37.7279 5.89233 37.9879 5.89233 38.2479C5.90233 38.5079 5.92233 38.7579 5.93233 39.0179C6.01233 40.0579 6.09232 41.128 6.19232 42.698Z" fill="#E95232"/>
<path d="M89.5126 38.4879C89.4326 38.8879 89.3726 39.3079 89.3426 39.7379C89.3026 40.1579 89.2626 40.5879 89.2426 40.9979C89.2226 41.4079 89.2226 41.808 89.2126 42.168C89.2026 42.528 89.2026 42.8679 89.2126 43.1479L89.5626 42.3379C89.5726 41.0479 89.5826 39.7679 89.5126 38.4879Z" fill="#E95232"/>
<path d="M84.6726 15.108C83.8626 14.518 83.9526 14.868 84.3826 15.748C84.4826 15.968 84.6326 16.218 84.7526 16.518C84.8726 16.808 85.0126 17.128 85.1526 17.478C85.2926 17.828 85.4426 18.188 85.5626 18.568C85.6826 18.958 85.7926 19.358 85.8926 19.778C86.6626 21.848 87.4826 23.948 88.0726 26.108C88.6726 28.268 89.1626 30.478 89.2626 32.648L89.4226 33.298L89.5526 33.9579L89.8026 35.278C89.9226 32.668 89.7626 29.008 88.9126 25.278C88.7326 24.338 88.4326 23.418 88.1726 22.488C88.1126 22.258 88.0326 22.028 87.9426 21.798C87.8626 21.568 87.7826 21.348 87.6926 21.118C87.6126 20.898 87.5226 20.668 87.4426 20.448C87.3626 20.228 87.2826 20.008 87.1726 19.788C86.9826 19.358 86.7826 18.928 86.5926 18.508C86.4926 18.298 86.4026 18.088 86.3026 17.888C86.1926 17.688 86.0826 17.488 85.9826 17.288C85.7626 16.898 85.5526 16.518 85.3426 16.138C85.1426 15.798 84.8926 15.448 84.6726 15.108Z" fill="#E95232"/>
<path d="M74.0126 76.2179C75.8227 74.1879 77.9026 71.688 79.7626 68.928C81.6427 66.188 83.1426 63.1079 83.9626 60.2179C83.6526 60.8379 83.3727 61.2779 83.1227 61.6579C82.8727 62.0479 82.6526 62.3779 82.4026 62.7579C81.9326 63.5179 81.2927 64.3979 80.1727 66.2079C80.3527 65.3879 80.6427 64.6279 81.0126 63.8979C81.1026 63.7179 81.2027 63.5379 81.3127 63.3579C81.4127 63.1779 81.5027 62.988 81.6127 62.808C81.8227 62.448 82.0427 62.0779 82.2727 61.7179C82.5027 61.3579 82.7426 60.9879 82.9827 60.6179C83.2127 60.2379 83.4327 59.8579 83.6627 59.4579C83.8927 59.0679 84.1126 58.6579 84.3226 58.2479C84.4326 58.0379 84.5427 57.8279 84.6327 57.6179C84.7227 57.3979 84.8126 57.1779 84.9026 56.9579C83.5126 59.7679 84.7226 55.8179 85.4626 53.2879C85.6926 52.7079 85.9227 52.0679 86.1627 51.3979C86.3727 50.7179 86.5827 49.9979 86.8027 49.2479C86.9027 48.8679 87.0326 48.4879 87.1227 48.0979C87.2127 47.6979 87.3126 47.2979 87.4026 46.8879C87.4526 46.6879 87.4926 46.4779 87.5426 46.2679C87.5826 46.0579 87.6227 45.8479 87.6627 45.6379C87.7427 45.2179 87.8226 44.7879 87.9026 44.3579C88.4926 40.9079 88.6927 37.148 88.5227 33.678C88.4727 33.308 88.3927 32.8279 88.3327 32.2779C88.2727 31.7279 88.2226 31.1079 88.1227 30.4579C87.9627 29.1479 87.7326 27.6979 87.4326 26.3979C87.2726 25.7479 87.1326 25.1379 86.9626 24.5979C86.7826 24.0579 86.6126 23.5979 86.4626 23.2379C86.3826 23.0579 86.3126 22.908 86.2426 22.788C86.1626 22.6679 86.1027 22.5779 86.0327 22.5279C85.9127 22.4179 85.8127 22.458 85.7527 22.668C85.3727 21.688 85.1527 20.8879 84.9127 20.2279C84.8027 19.8979 84.7127 19.588 84.6427 19.298C84.6027 19.148 84.5727 19.0079 84.5327 18.8679C84.4927 18.7279 84.4527 18.5979 84.4127 18.4679C84.2627 17.9379 84.1426 17.4379 83.9626 16.8779C83.7726 16.3279 83.5126 15.7279 83.1526 15.0079C81.6227 13.0979 80.1526 11.358 78.6526 9.69798C77.1427 8.04799 75.5726 6.47798 73.7926 5.06798C72.0126 3.66798 70.0227 2.41796 67.7227 1.54796C65.4327 0.68796 62.8327 0.187872 60.0527 0.457872C60.2327 0.317872 60.0227 0.197897 59.5627 0.107897C59.1027 0.0378966 58.4026 -0.022079 57.6026 0.00792104C56.8026 0.027921 55.9226 0.117911 55.1026 0.247911C54.2826 0.377911 53.5326 0.547975 52.9926 0.687975C52.7026 0.757975 52.3826 0.847872 52.0426 0.957872C51.7026 1.06787 51.3627 1.15797 50.9827 1.30797C50.2227 1.58797 49.4326 1.92789 48.6526 2.34789C47.0826 3.16789 45.5927 4.26791 44.4427 5.36791C43.2927 6.46791 42.4727 7.5279 42.1127 8.2379C41.7327 8.9379 41.7727 9.24798 42.3627 8.93797C43.6327 7.94798 45.1227 6.14787 47.2327 4.57787C48.2827 3.79787 49.4727 3.07797 50.7327 2.55797C51.0527 2.43797 51.3727 2.31787 51.6927 2.20787C52.0027 2.11787 52.3227 2.02798 52.6327 1.94798C53.2627 1.80798 53.8827 1.70797 54.4827 1.68797C55.0027 1.64797 55.4227 1.65796 55.7527 1.66796C56.0827 1.67796 56.3226 1.69789 56.4926 1.72789C56.8226 1.78789 56.8426 1.86797 56.6526 1.93797C56.2626 2.08797 54.9826 2.30791 53.5126 2.74791C53.1426 2.84791 52.7627 2.98791 52.3827 3.11791C52.0027 3.23791 51.6127 3.41787 51.2327 3.57787C50.8527 3.73787 50.4927 3.93791 50.1427 4.11791C49.7927 4.29791 49.4727 4.50798 49.1727 4.69798C48.5827 5.09798 48.0926 5.46795 47.7926 5.78795C47.4826 6.10795 47.3227 6.33798 47.3927 6.44798C47.5827 6.23798 47.8127 6.11792 48.0627 6.00792C48.1927 5.95792 48.3226 5.89789 48.4626 5.84789C48.6126 5.79789 48.7727 5.74797 48.9427 5.68797C49.1127 5.62797 49.3027 5.55789 49.5027 5.47789C49.7127 5.39789 49.9427 5.30798 50.1927 5.19798C50.4327 5.07798 50.7227 4.96798 51.0227 4.81798C51.3227 4.65798 51.6727 4.50798 52.0527 4.31798C50.4227 5.06798 49.9026 5.58791 49.8727 5.74791C49.8426 5.91791 50.3227 5.81798 50.8827 5.69798C51.1727 5.64798 51.4827 5.58796 51.7527 5.54796C52.0327 5.51796 52.2827 5.50794 52.4527 5.52794C52.7827 5.56794 52.7826 5.73797 52.0726 6.17797C53.8326 5.62796 55.1827 5.46795 56.2027 5.40795C57.2227 5.34795 57.9426 5.41791 58.5426 5.49791C58.8426 5.54791 59.1126 5.61797 59.3727 5.68797C59.6327 5.75798 59.8927 5.85788 60.1627 5.96788C60.7027 6.18788 61.3127 6.47796 62.1227 6.91796C62.6327 6.97796 63.0727 7.01797 63.4427 7.05797C63.8127 7.08797 64.1227 7.11791 64.3727 7.11791C64.8927 7.11791 65.2026 7.0779 65.4326 6.9879C65.9026 6.8079 66.0127 6.48788 66.7027 6.46788C69.0227 7.04788 70.8827 8.23796 72.4527 9.54796C73.2427 10.198 73.9627 10.8979 74.6727 11.5979C75.3827 12.2979 76.0727 12.9979 76.8027 13.7079C75.9927 13.4079 75.8326 13.638 76.0726 14.168C76.3126 14.688 76.9227 15.5479 77.6327 16.6079C77.9927 17.1379 78.3526 17.7179 78.7126 18.3579C78.9026 18.6679 79.0827 18.998 79.2727 19.318C79.4427 19.648 79.6127 19.988 79.7827 20.318C80.1527 20.968 80.4126 21.668 80.7126 22.308C80.8626 22.628 80.9727 22.9479 81.0827 23.2579C81.1927 23.5679 81.3027 23.8579 81.4026 24.1279C81.6326 24.8479 81.7927 25.4279 81.9727 25.8779C82.1427 26.3379 82.2527 26.6879 82.3827 26.9579C82.6327 27.4979 82.8727 27.7179 83.0927 27.9679C83.3127 28.2179 83.5227 28.4779 83.7527 29.0879C83.8127 29.2379 83.8627 29.4179 83.9227 29.6179C83.9727 29.8279 84.0227 30.058 84.0627 30.318C84.1527 30.848 84.2626 31.5079 84.2926 32.3479C84.1626 33.1979 84.0126 33.188 83.8427 32.798C83.6627 32.398 83.5027 31.6079 83.2626 30.8679C83.1526 30.4979 83.0426 30.1379 82.9326 29.8379C82.8226 29.5379 82.7026 29.308 82.6026 29.188C82.5026 29.068 82.4227 29.0579 82.3627 29.2179C82.3327 29.2979 82.3126 29.4179 82.2926 29.5779C82.2826 29.7379 82.2626 29.9579 82.2426 30.2279L82.5827 31.668L82.8526 33.1379C83.5626 34.9979 84.3927 36.5679 84.6526 38.9879C84.6427 39.1679 84.6326 39.358 84.6227 39.548C84.6026 39.738 84.5827 39.9379 84.5627 40.1379C84.5227 40.5379 84.4727 40.938 84.4227 41.298C84.3127 42.008 84.1727 42.538 84.0527 42.548C84.1327 41.148 83.9427 40.6479 83.7027 40.8579C83.4727 41.0579 83.1126 41.9579 82.7426 43.3379C82.7426 44.0079 82.7426 44.4379 82.7626 44.7779C82.7826 45.1179 82.8126 45.3779 82.8526 45.7179C83.0326 45.3979 83.1827 45.128 83.3027 44.928C83.4227 44.718 83.5226 44.5679 83.6026 44.4779C83.7626 44.2879 83.8427 44.2979 83.8627 44.4879C83.8827 44.6779 83.8427 45.0279 83.7626 45.5079C83.6627 45.9779 83.5227 46.5679 83.3627 47.2379C83.1827 47.8979 82.9527 48.6279 82.7327 49.3879C82.6127 49.7679 82.5227 50.1579 82.3927 50.5379C82.2627 50.9179 82.1427 51.298 82.0227 51.678C81.5727 53.198 81.0727 54.6079 80.9427 55.6579C80.8927 55.8379 80.8527 56.018 80.8027 56.188C80.7427 56.358 80.6927 56.518 80.6427 56.688C80.5327 57.008 80.4327 57.3179 80.3327 57.6079C80.1227 58.1879 79.9426 58.718 79.7426 59.188C79.3226 60.108 78.9426 60.8179 78.5927 61.3879C78.4227 61.6779 78.2427 61.9179 78.0627 62.1279C77.8927 62.3379 77.7227 62.528 77.5527 62.698C77.2227 63.038 76.9126 63.298 76.6026 63.558C76.4426 63.688 76.2926 63.818 76.1227 63.948C75.9527 64.078 75.7826 64.2079 75.6026 64.3579C75.2426 64.6579 74.8727 65.0179 74.4427 65.4979C74.0327 65.9879 73.5227 66.5679 72.9427 67.3479C72.6527 67.7279 72.3527 68.1779 72.0027 68.6479C71.6527 69.1179 71.2727 69.6479 70.8627 70.2379C71.6927 69.7779 71.8627 69.9479 71.5927 70.5179C71.4527 70.7979 71.2326 71.1979 70.9026 71.6379C70.5726 72.0779 70.1627 72.5879 69.7027 73.1379C67.8627 75.3179 65.1327 77.918 63.8027 79.308C63.4927 79.568 63.2027 79.7979 62.9227 80.0079C62.6527 80.2279 62.3727 80.388 62.1227 80.558C61.6126 80.878 61.1526 81.1379 60.7126 81.3679C60.4926 81.4779 60.2827 81.588 60.0627 81.698C59.8427 81.788 59.6227 81.8779 59.3927 81.9779C58.9427 82.1579 58.4727 82.348 57.9427 82.568C57.7827 82.718 57.5427 82.9379 57.2527 83.1579C56.9627 83.3779 56.6326 83.6179 56.3226 83.8479C55.7026 84.3179 55.1326 84.7679 55.0426 84.9879C55.6726 85.1779 56.6127 85.1779 57.8327 84.9879C58.4527 84.9079 59.1127 84.7379 59.8327 84.5179C60.1927 84.4079 60.5727 84.2879 60.9727 84.1579C61.3727 84.0279 61.7827 83.8879 62.1927 83.7079C65.5327 82.4079 69.6327 80.088 73.7527 76.678C73.9127 76.448 74.0426 76.2379 74.0126 76.2179Z" fill="#E95232"/>
<path d="M76.2226 119.258C75.9626 118.808 75.6626 118.198 75.5026 117.698C75.3326 117.198 75.2926 116.798 75.5726 116.798L75.7226 116.468C75.8226 116.668 76.0126 117.018 76.2226 117.408C76.4126 117.818 76.6126 118.258 76.7326 118.658C76.9626 119.438 76.9526 119.928 76.2226 119.258Z" fill="#9F9F9F"/>
<path d="M70.0328 121.818L70.0228 122.078C70.0328 121.948 70.0128 121.808 69.9728 121.668C69.9328 121.528 69.8728 121.398 69.8228 121.298C70.0228 121.168 70.4628 121.458 70.5428 121.928C70.3328 121.898 70.1428 121.498 70.0328 121.818Z" fill="#9F9F9F"/>
<path d="M64.4126 108.348C63.7726 108.758 63.8326 110.188 64.3126 111.518L63.1826 112.138C62.8626 111.098 61.2226 110.158 60.0926 109.178C59.4926 108.978 60.8726 110.398 59.5926 109.618C59.5826 109.378 59.8726 109.228 59.7226 108.938C59.1226 108.608 58.7926 108.738 58.3626 108.668C57.9326 108.598 57.3926 108.348 56.4326 107.158C56.3326 106.788 56.2526 106.398 56.1726 106.018C55.3026 105.048 54.4126 104.028 53.5926 102.918C52.7526 101.778 52.0026 100.528 51.4326 99.1976C50.8626 97.8676 50.4526 96.4475 50.2926 94.9775C50.1326 93.5075 50.2326 91.9876 50.6826 90.5576C50.5726 90.2676 50.5926 89.8576 50.6426 89.3776C50.6626 89.1376 50.7326 88.8775 50.8026 88.6075C50.8826 88.3375 50.9426 88.0576 51.0726 87.7776C51.1826 87.4976 51.3026 87.2076 51.4226 86.9276C51.5526 86.6476 51.7126 86.3775 51.8526 86.0975C51.9226 85.9575 51.9826 85.8276 52.0726 85.6876C52.1626 85.5476 52.2426 85.4076 52.3226 85.2676C52.4926 84.9976 52.6626 84.7376 52.8126 84.4976L53.1126 84.7075C53.3126 84.0375 53.9826 83.4775 54.7426 83.0775C55.5026 82.6675 56.3326 82.4276 56.9726 82.1176C57.4126 82.0576 57.8426 82.0276 58.2626 82.0176C58.5726 82.2376 57.7526 82.5276 57.0926 82.9476C56.7626 83.1576 56.4626 83.3775 56.3326 83.5775C56.2026 83.7675 56.2526 83.9075 56.5826 83.9775C57.1726 83.7975 57.6626 83.5976 58.1326 83.3776C58.6026 83.1576 59.0426 82.9376 59.5026 82.7476C60.4026 82.3776 61.4026 82.1076 62.4426 82.5176C63.4626 82.6876 63.9226 82.7776 64.3126 82.7676C64.7026 82.7776 65.0226 82.7076 65.7126 82.9176C65.9626 82.8376 65.8926 82.7076 65.8026 82.5476C65.7126 82.3976 65.5826 82.2375 65.7326 82.0775C66.3926 82.3275 66.9426 82.6576 67.4026 83.0176C67.8626 83.3776 68.2126 83.7676 68.4826 84.1476C69.0326 84.9276 69.2526 85.6575 69.3826 86.3575C69.5126 87.0775 69.5326 87.7576 69.5226 88.5076C69.5026 89.2576 69.4826 90.0775 69.3526 91.1075C69.4226 91.1575 69.4826 91.4075 69.5426 91.7175C69.5926 92.0275 69.6226 92.3976 69.6826 92.6776C69.7426 92.9576 69.8126 93.1376 69.9926 93.0676C70.0826 93.0276 70.1926 92.9175 70.3226 92.7175C70.4526 92.5175 70.6126 92.2176 70.7526 91.7776C70.7526 91.1876 70.6926 90.5976 70.5726 90.0176C70.7126 89.6276 70.8326 89.2176 70.9126 88.7776C71.0226 89.4976 71.0026 90.4976 70.9226 91.2476C70.8526 92.0076 70.7726 92.5575 71.0126 92.4775C70.5626 92.8275 70.2426 93.5276 69.8626 94.3076C69.4926 95.0876 69.0526 95.9576 68.5726 96.6476C68.1026 97.3376 67.6226 97.8376 67.4026 97.9176C67.2926 97.9576 67.2626 97.8976 67.3126 97.6976C67.3626 97.4976 67.4826 97.1676 67.6326 96.6676C68.5426 96.0176 69.0126 95.4576 69.3026 94.9176C69.5826 94.3776 69.6926 93.8375 69.6826 93.1075C69.2226 94.1975 68.5526 95.1376 67.7526 95.9076C66.9526 96.6776 66.0026 97.2776 64.9826 97.6676C64.4726 97.8576 63.9326 97.9876 63.4026 98.0676C62.8626 98.1376 62.3326 98.1475 61.8126 98.1075C60.7726 98.0175 59.8026 97.7176 58.9526 97.3076C58.5326 97.3276 58.0926 97.3176 57.6626 97.2676C57.7926 96.9976 57.5126 96.5276 57.1526 95.9376C56.7826 95.3576 56.3426 94.6376 55.9726 93.9176C55.4826 93.3976 55.1726 92.5175 54.9926 92.8375C54.8826 92.7975 54.9426 93.1476 55.1426 93.6376C55.3426 94.1276 55.6826 94.7476 56.0326 95.2776C56.3826 95.8076 56.7226 96.2475 56.7826 96.4775C56.8426 96.6975 56.5726 96.7675 55.7726 96.3275C54.6526 95.0275 53.9326 93.4076 53.7326 91.7476C53.6326 90.9176 53.6726 90.0776 53.8426 89.3076C54.0126 88.5276 54.3226 87.8176 54.7026 87.2476L56.2826 84.8676L57.6426 86.2075C58.0926 86.6575 58.4826 87.0876 58.8026 87.5076C58.2526 87.2676 57.7826 87.0176 57.3126 86.8076L55.7826 86.1276L55.3326 87.4976C55.1826 87.9476 55.1026 88.4176 55.1326 88.9076C55.1526 89.3976 55.2926 89.8976 55.5626 90.3776C55.8826 91.8076 56.5926 93.0675 57.5426 94.0875C58.4926 95.0975 59.7326 95.8775 61.1226 96.0875C61.8126 96.1875 62.5126 96.1575 63.1726 95.9575C63.8326 95.7775 64.4326 95.4376 64.9426 95.0276C65.9626 94.1876 66.6026 92.9976 66.7826 91.8176C67.0126 91.8076 67.2626 91.5076 67.4726 91.2476C67.6826 90.9876 67.8626 90.7576 68.0326 91.0076C68.2226 90.7876 68.2826 90.2976 68.3126 89.8176C68.3426 89.3376 68.3326 88.8775 68.5826 88.6075C68.3926 88.0475 68.1326 87.4975 67.8026 86.9875C67.4726 86.4975 67.0826 86.0376 66.6426 85.6376C65.7526 84.8376 64.6726 84.3076 63.5626 84.0276C61.3426 83.4776 59.0526 83.8176 57.3126 84.6876C57.6726 84.8076 57.7326 84.9776 57.6326 85.1576C57.5326 85.3476 57.2726 85.5576 56.9626 85.8176C56.6626 86.0776 56.3126 86.3676 56.0426 86.6776C55.9026 86.8276 55.7926 86.9976 55.6926 87.1376C55.6026 87.2876 55.5426 87.4376 55.5026 87.5576C55.2826 87.6676 55.0526 87.8376 54.8726 88.0676C54.7726 88.1776 54.6826 88.3076 54.5926 88.4376C54.5026 88.5676 54.4326 88.7176 54.3626 88.8676C54.2926 89.0176 54.2126 89.1676 54.1526 89.3176C54.1026 89.4776 54.0526 89.6376 54.0026 89.7876C53.8926 90.0976 53.8326 90.4076 53.7626 90.6976C53.8826 90.8676 53.8426 91.5675 54.1626 91.4575C54.1526 91.0375 54.2726 90.7776 54.3926 90.5176C54.4226 90.4576 54.4526 90.3875 54.4926 90.3275C54.5326 90.2675 54.5726 90.1976 54.6226 90.1376C54.7126 90.0076 54.8026 89.8576 54.8926 89.6776C55.0426 89.8276 55.0826 89.9976 55.0526 90.1876C55.0326 90.2876 54.9926 90.3775 54.9526 90.4875C54.9126 90.5975 54.8626 90.7075 54.8026 90.8375C54.7426 90.9575 54.6726 91.0875 54.6026 91.2175C54.5426 91.3575 54.4826 91.4976 54.4226 91.6376C54.2926 91.9276 54.2126 92.2476 54.1726 92.5476C54.0526 92.3276 53.9226 92.0875 53.8126 91.8475C53.6526 92.8975 53.3326 94.0776 53.2726 95.3076C53.2026 96.5276 53.4226 97.7576 54.1326 98.5576C54.1426 98.2476 54.1626 97.9376 54.2026 97.6376C54.2426 97.3376 54.2626 97.0375 54.3226 96.7375C54.7926 97.8375 55.1126 99.1176 55.6426 100.268C56.1626 101.418 56.8726 102.408 57.7926 102.798C57.3926 102.108 56.7326 101.298 56.3026 100.568C56.2026 100.388 56.1026 100.218 56.0326 100.048C55.9726 99.8776 55.9226 99.7275 55.9026 99.5975C55.8626 99.3275 55.9326 99.1276 56.1726 99.0276C56.4326 98.9476 56.7426 99.2875 57.0326 99.7375C57.3226 100.178 57.6226 100.738 57.7626 101.138C58.0726 102.018 58.5926 102.728 59.1726 103.318C59.7526 103.918 60.4226 104.388 61.0726 104.858C62.3626 105.838 63.6326 106.698 64.4126 108.348Z" fill="#9F9F9F"/>
<path d="M61.8125 103.648C60.7525 102.638 60.2725 102.607 59.7725 102.577C59.2925 102.537 58.7925 102.498 57.9925 101.318C58.6425 101.278 58.1825 99.9176 57.8425 99.1876C57.5125 98.9076 57.2725 98.5075 57.1125 98.0975C57.0225 97.8975 56.9625 97.6875 56.9025 97.4875C56.8425 97.2875 56.7825 97.1076 56.7225 96.9276C56.7025 96.6776 56.8525 96.5176 57.0525 96.5376C57.1525 96.5476 57.2625 96.5976 57.3625 96.6976C57.4125 96.7476 57.4625 96.8075 57.5125 96.8875C57.5625 96.9675 57.6125 97.0476 57.6525 97.1576C57.5825 97.7776 57.7825 98.3876 58.0725 98.9476C58.3825 99.4876 58.8025 100.018 59.2925 100.518C60.2125 101.528 61.2825 102.408 61.8125 103.648Z" fill="#9F9F9F"/>
<path d="M55.7824 96.9276C55.6024 96.5176 55.4924 95.7676 55.5424 95.1276C55.5824 94.8076 55.6524 94.5176 55.7524 94.2976C55.8724 94.0876 56.0224 93.9476 56.1924 93.9276C56.2424 93.8076 56.6224 93.9876 56.4624 93.5576C56.4224 93.7276 56.3824 93.9876 56.3524 94.2776C56.3424 94.5776 56.3024 94.9176 56.2924 95.2576C56.2824 95.4276 56.2624 95.5976 56.2424 95.7576C56.2324 95.9176 56.2024 96.0775 56.1624 96.2275C56.0824 96.5375 55.9824 96.7776 55.7824 96.9276Z" fill="#9F9F9F"/>
<path d="M54.1725 96.0875C53.9325 96.2375 53.8525 96.0376 53.8425 95.7676C53.8325 95.6276 53.8325 95.4775 53.8425 95.3375C53.8525 95.1975 53.8625 95.0776 53.8525 95.0076C53.9025 94.7976 53.9525 94.5976 54.0125 94.3976C54.1025 94.6676 54.1925 94.9676 54.2225 95.2576C54.2725 95.5476 54.2725 95.8375 54.1725 96.0875Z" fill="#9F9F9F"/>
<path d="M56.7528 88.9376C57.1428 88.5976 57.1128 88.9276 57.1128 89.1776C57.1128 89.3176 57.1128 89.4676 57.1628 89.5076C57.1828 89.5276 57.2228 89.5176 57.2728 89.4776C57.2928 89.4576 57.3228 89.4276 57.3628 89.3876C57.3928 89.3576 57.4328 89.3176 57.4728 89.2776L57.4028 89.3976L57.3328 89.5576L57.1828 89.8676C56.8928 89.7976 56.6128 89.7575 56.3228 89.7175C56.3728 89.5775 56.4528 89.4476 56.5328 89.3176L56.7528 88.9376Z" fill="#9F9F9F"/>
<path d="M58.2925 88.4076C58.3925 88.1076 58.6225 87.8676 59.1525 87.8076C59.1125 87.9376 59.0725 88.0676 59.0425 88.1976C58.9625 88.3876 58.5925 88.1776 58.2925 88.4076Z" fill="#9F9F9F"/>
<path d="M55.9725 88.0576C56.2225 87.4576 56.4925 87.8076 56.8625 87.6676C56.8625 87.8276 56.5625 88.0176 56.3025 88.1476C56.0525 88.2876 55.8225 88.3376 55.9725 88.0576Z" fill="#9F9F9F"/>
<path d="M61.4228 80.4576C60.9228 80.7976 60.2128 80.9077 59.4028 81.0677C58.5928 81.2277 57.6528 81.4376 56.8428 81.8976C57.6628 81.4476 58.2528 81.1276 58.9228 80.8676C59.5828 80.6276 60.3128 80.4276 61.4228 80.4576Z" fill="#9F9F9F"/>
<path d="M78.0028 131.338C77.8428 131.648 77.7728 131.998 77.7528 132.328C77.7328 132.658 77.7728 132.978 77.8228 133.208C77.9228 133.108 78.0228 133.018 78.1128 132.918C78.0828 132.388 78.0528 131.868 78.0028 131.338Z" fill="#9F9F9F"/>
<path d="M77.8626 120.998C77.3626 120.718 77.3126 120.908 77.3726 121.338C77.4026 121.558 77.4426 121.838 77.4626 122.168C77.4826 122.498 77.4926 122.868 77.4026 123.248C77.4226 123.488 77.4626 123.728 77.5026 123.968C77.5326 124.208 77.5726 124.438 77.6226 124.678C77.7226 125.158 77.7926 125.628 77.8926 126.108C77.9726 126.588 78.0426 127.058 78.0826 127.528C78.1126 127.998 78.1326 128.468 78.0826 128.918C78.1926 129.298 78.3126 129.678 78.4026 130.058C78.6626 129.008 78.9126 127.478 78.8726 125.798C78.8626 125.378 78.8426 124.958 78.7926 124.528C78.7626 124.318 78.7426 124.108 78.7126 123.898C78.6826 123.688 78.6326 123.478 78.5926 123.268C78.5526 123.058 78.5026 122.858 78.4526 122.658C78.4026 122.458 78.3327 122.258 78.2727 122.068C78.1527 121.688 78.0226 121.328 77.8626 120.998Z" fill="#9F9F9F"/>
<path d="M75.7826 146.008C75.7726 145.178 75.9926 144.168 76.1626 143.108C76.3326 142.038 76.4526 140.908 76.1926 139.778C75.8326 140.688 75.5826 140.668 75.1826 142.098C74.7526 141.468 74.9026 140.888 75.1826 140.318C75.4626 139.748 75.8826 139.188 76.0426 138.498C75.5626 139.578 75.4726 137.998 75.6426 136.998C75.9926 136.098 76.3326 134.888 76.6126 133.528C76.8926 132.178 77.1126 130.678 77.2226 129.258C77.1026 128.638 77.2326 127.318 77.1726 126.198C77.1126 125.078 76.8726 124.188 76.4126 124.558C76.3526 124.128 76.3026 123.778 76.3226 123.478C76.3326 123.328 76.3426 123.188 76.3626 123.058C76.3726 122.928 76.4026 122.798 76.4226 122.678C76.4726 122.428 76.5326 122.198 76.5726 121.928C76.6026 121.668 76.6026 121.378 76.5526 121.018C75.9326 120.138 75.5626 119.268 75.2326 118.388C75.0826 117.938 74.9226 117.508 74.7926 117.048C74.6426 116.608 74.5126 116.138 74.3426 115.698C73.7126 113.898 72.7926 112.118 70.8226 111.178C71.1226 111.048 70.8926 110.648 70.5226 110.208C70.3326 109.988 70.1126 109.768 69.8926 109.558C69.6826 109.358 69.4826 109.168 69.3426 109.028C68.7126 108.438 67.6726 107.518 66.8026 106.938C65.9326 106.358 65.2126 106.098 65.1626 106.788C65.4826 108.058 67.9826 108.538 68.7926 110.288C69.1426 111.018 69.1426 111.278 68.9526 111.258C68.7626 111.238 68.3726 110.948 67.9126 110.598C66.9926 109.898 65.8126 108.998 65.4626 109.368C65.9026 109.498 65.5026 110.318 66.6726 110.918C65.4926 110.198 65.5226 110.598 65.6626 111.118C65.8026 111.638 66.0426 112.278 65.3226 112.058C66.2726 113.288 66.6626 113.878 66.8526 114.388C67.0426 114.898 67.0426 115.348 67.0826 116.318C67.7426 116.868 68.1426 116.918 68.4826 116.828C68.8226 116.748 69.0826 116.518 69.4326 116.558C70.2426 117.118 70.6126 117.908 70.8926 118.668C71.1726 119.438 71.3326 120.188 71.7926 120.818C71.3126 120.728 71.0726 120.868 71.0026 121.138C70.9626 121.268 70.9526 121.438 70.9726 121.618C70.9826 121.708 71.0026 121.808 71.0326 121.908C71.0526 122.008 71.0726 122.118 71.1026 122.228C71.1326 122.338 71.1626 122.458 71.2026 122.568C71.2326 122.688 71.2726 122.808 71.3026 122.928C71.3426 123.048 71.3826 123.178 71.4126 123.298L71.5126 123.678C71.5526 123.808 71.5826 123.928 71.6226 124.058C71.6526 124.188 71.6726 124.308 71.7026 124.428C71.7326 124.548 71.7526 124.668 71.7826 124.778C71.8026 124.888 71.8126 125.008 71.8326 125.108C71.8826 125.648 71.9626 125.958 72.1026 126.168C72.2426 126.378 72.4126 126.468 72.5826 126.568C72.9126 126.778 73.2826 127.008 73.1426 128.298C72.7026 128.908 72.5326 128.228 72.2926 127.648C72.1826 127.358 72.0526 127.088 71.9026 126.988C71.7526 126.888 71.5926 126.958 71.3826 127.338C71.4726 127.698 71.5726 128.068 71.6426 128.448C71.7826 128.638 71.9326 128.828 72.0826 129.008C72.2326 129.198 72.3726 129.388 72.5126 129.588C72.8026 129.978 73.0426 130.408 73.1826 130.908C73.1026 131.458 72.9626 132.298 72.7226 132.268C72.7026 131.698 72.5226 131.478 72.2926 131.528C72.0626 131.578 71.7626 131.888 71.4826 132.418C71.6226 132.988 71.6426 133.138 71.8326 133.438C72.9026 132.508 72.8026 133.088 72.5026 134.148C72.2026 135.198 71.6726 136.728 71.9526 137.648C72.0126 138.908 71.9026 139.658 71.6926 140.168C71.4826 140.678 71.1626 140.938 70.8226 141.208C70.4826 141.478 70.1226 141.738 69.8626 142.268C69.7326 142.528 69.6126 142.858 69.5526 143.288C69.4826 143.708 69.4726 144.238 69.5226 144.878C70.3126 144.138 70.4226 144.988 70.5026 146.198C70.5226 146.508 70.5526 146.838 70.5726 147.168C70.6126 147.508 70.6426 147.848 70.6926 148.178C70.7526 148.508 70.8226 148.818 70.8926 149.098C70.9726 149.378 71.0826 149.618 71.1926 149.808C71.2426 150.148 71.2926 150.438 71.3126 150.708C71.3326 150.978 71.3126 151.218 71.3126 151.448C71.3026 151.908 71.2026 152.358 71.2126 152.928C71.5026 153.258 72.1326 154.228 72.4626 154.228C72.7826 153.798 73.0426 153.248 73.2626 152.648C73.5126 152.028 73.7126 151.368 73.9726 150.658C74.0826 150.318 74.2426 149.938 74.3626 149.588C74.4226 149.408 74.5126 149.218 74.5826 149.038C74.6626 148.848 74.7326 148.668 74.8126 148.478C75.1426 147.718 75.5026 146.958 75.9026 146.168C75.8626 146.078 75.8226 146.008 75.7826 146.008Z" fill="#9F9F9F"/>
</svg>
