<svg width="356" height="312" viewBox="0 0 356 312" fill="none" xmlns="http://www.w3.org/2000/svg">
<path d="M137.067 232.967C108.63 220.625 81.175 203.207 67.278 176.217C53.3809 149.228 53.3631 115.142 70.2272 89.7964C87.0914 64.4511 121.463 50.2145 151.304 58.9281C159.722 61.3858 168.177 65.5325 176.846 64.1025C186.301 62.5386 193.308 54.6472 197.714 46.4073C202.12 38.1584 204.81 29.0427 210.19 21.3479C220.503 6.60181 239.852 -0.798024 258.226 0.131425C276.61 1.06087 293.939 9.39012 308.211 20.6329C336.613 42.9933 354.246 77.66 355.229 113.077C356.221 148.486 338.141 181.696 313.43 207.837C267.655 256.266 180.287 251.726 137.067 232.967Z" fill="#FFEDBA"/>
<path d="M281.507 146.815C277.351 135.688 274.116 126.644 270.693 117.483C265.867 118.207 258.217 121.157 252.819 122.899C257.332 131.711 264.026 140.755 270.389 149.728C273.142 148.495 278.084 147.548 281.507 146.815Z" fill="#F7B89F"/>
<path d="M275.054 144.813C279.004 145.26 282.892 146.26 286.86 147.923C288.898 148.772 290.515 150.47 291.105 152.615C291.847 155.305 291.767 158.236 290.819 160.873C290.596 161.507 290.301 162.142 289.8 162.58C289.3 163.017 288.531 163.214 287.959 162.874C287.343 162.508 287.164 161.695 287.048 160.98C286.735 159.014 286.413 157.039 286.101 155.072C286.726 157.45 286.601 160.032 285.725 162.347C285.511 162.919 285.028 163.384 284.429 163.446C283.589 163.527 283.187 162.785 282.937 162.115C282.132 160.023 281.793 157.745 281.864 155.251C281.855 157.146 281.632 159.04 281.194 160.881C281.015 161.632 280.622 162.535 279.853 162.544C279.46 162.553 279.103 162.285 278.897 161.945C278.683 161.614 278.593 161.212 278.513 160.828C278.102 158.853 277.825 156.851 277.691 154.84C277.861 156.44 277.861 158.066 277.7 159.675C277.637 160.256 277.512 160.908 277.029 161.23C276.583 161.525 275.966 161.409 275.546 161.078C275.126 160.756 274.867 160.265 274.652 159.773C273.937 158.174 273.553 156.422 273.446 155.099C270.353 153.419 268.566 149.603 269.236 146.1C271.086 145.733 272.909 144.571 275.054 144.813Z" fill="#F7B89F"/>
<path d="M134.1 250.225C133.34 270.235 132.572 290.245 132.018 310.836C146.388 314.893 162.323 307.395 171.09 295.509C179.857 283.622 182.458 268.278 181.958 253.594C165.996 255.623 149.722 255.247 134.1 250.225Z" fill="#E0284D"/>
<path d="M119.184 205.674C109.478 188.05 99.7728 170.426 89.9868 152.195C101.051 142.337 118.728 142.176 131.955 149.049C145.182 155.922 154.432 168.567 160.607 181.955C145.37 187.031 130.936 194.404 119.184 205.674Z" fill="#F63B50"/>
<path d="M339.151 182.723C331.027 200.061 318.56 214.896 303.519 226.926C286.789 240.304 266.85 250.198 246.125 256.194C211.164 266.293 174.031 266.365 137.809 263.076C133.251 262.665 128.702 262.2 124.18 261.691C121.061 256.99 118.433 251.976 116.324 246.757C110.917 233.441 108.871 218.811 110.596 204.583C113.581 201.866 116.664 199.248 119.837 196.727C148.265 174.135 184.165 159.317 221.361 155.394C244.651 152.936 268.379 154.75 290.685 160.845C307.916 165.537 324.289 172.785 338.954 182.589C339.017 182.634 339.088 182.678 339.151 182.723Z" fill="#FFBE45"/>
<path opacity="0.502" d="M339.152 182.723C331.028 200.061 318.561 214.897 303.52 226.926C286.79 240.305 266.851 250.198 246.126 256.195C211.165 266.294 174.031 266.365 137.81 263.076C133.252 262.665 128.703 262.2 124.181 261.691C121.062 256.99 118.434 251.976 116.325 246.757C155.04 254.89 195.766 253.621 233.829 243.022C273.313 232.029 309.847 211.009 338.955 182.589C339.018 182.634 339.089 182.679 339.152 182.723Z" fill="#ED9B2F"/>
<path d="M215.105 156.395C219.136 169.917 228.85 181.651 242.658 188.318C244.213 187.54 245.759 186.772 247.823 187.335C252.551 190.597 257.297 193.877 261.417 197.881C265.528 201.884 269.022 206.683 271.399 213.109C271.551 214.459 271.953 215.772 272.713 216.979C274.259 219.446 277.53 220.044 279.88 218.337C288.532 212.037 294.287 201.947 294.582 191.741C275.144 183.832 258.575 170.355 243.328 158.013C233.435 158.021 223.533 157.485 215.105 156.395Z" fill="#ED9B2F"/>
<path d="M173.906 216.032C174.692 220.143 177.203 223.87 180.626 226.256C182.735 227.73 185.604 226.828 186.498 224.406C187.356 222.082 187.552 219.616 187.168 217.229C187.865 219.437 189.903 221.314 192.45 222.431C194.362 223.271 196.614 222.386 197.499 220.491C201.378 212.207 202.236 203.028 200.002 194.619C197.034 189.417 196.221 183.814 196.82 178.362C201.521 175.994 205.06 172.482 207.124 168.228C209.189 163.983 209.761 159.023 208.751 154.188C195.363 161.847 182.387 170.23 170.5 178.97C170.518 191.5 171.627 204.065 173.906 216.032Z" fill="#ED9B2F"/>
<path d="M338.954 182.59C324.28 172.786 307.907 165.529 290.686 160.837C299.846 175.628 304.734 192.93 304.877 210.241C317.059 202.063 328.489 192.814 338.954 182.59Z" fill="#F63B50"/>
<path d="M338.954 182.59C328.489 192.805 317.058 202.063 304.877 210.241C304.922 215.826 304.475 221.412 303.519 226.917C318.568 214.888 331.027 200.052 339.15 182.715C339.088 182.679 339.016 182.634 338.954 182.59Z" fill="#E0284D"/>
<path d="M259.526 222.355C260.218 208.923 249.697 197.463 236.028 196.76C222.359 196.056 210.718 206.375 210.026 219.808C209.335 233.24 219.855 244.7 233.525 245.403C247.194 246.107 258.835 235.788 259.526 222.355Z" fill="#ED9B2F"/>
<path d="M259.427 219.912C260.118 206.48 249.598 195.02 235.929 194.317C222.259 193.613 210.618 203.932 209.927 217.365C209.235 230.797 219.756 242.257 233.425 242.96C247.094 243.664 258.736 233.345 259.427 219.912Z" fill="#1F9EF2"/>
<path d="M250.934 219.517C250.496 228.106 243.239 234.755 234.588 234.692C234.338 234.692 234.088 234.683 233.838 234.674C231.532 234.558 229.369 233.977 227.43 233.03C224.061 231.377 221.37 228.633 219.824 225.273C218.77 223.021 218.251 220.491 218.386 217.846C218.841 209.016 226.491 202.224 235.482 202.689C237.037 202.769 238.53 203.055 239.933 203.538C243.49 204.726 246.475 207.104 248.432 210.16C249.567 211.93 250.371 213.932 250.729 216.068C250.925 217.176 250.997 218.338 250.934 219.517Z" fill="#324663"/>
<path d="M239.941 203.538L219.833 225.273C218.779 223.021 218.26 220.491 218.394 217.846C218.85 209.016 226.5 202.224 235.491 202.689C237.037 202.76 238.538 203.055 239.941 203.538Z" fill="#537091"/>
<path d="M250.728 216.059L234.588 234.692C234.338 234.692 234.087 234.684 233.837 234.675C231.531 234.558 229.369 233.978 227.429 233.03L248.431 210.16C249.575 211.921 250.379 213.923 250.728 216.059Z" fill="#537091"/>
<path d="M138.89 250.404C139.006 231.1 132.268 211.724 119.837 196.719C116.664 199.239 113.572 201.867 110.596 204.575C108.701 220.179 111.355 236.274 117.987 250.582C117.406 249.322 116.852 248.044 116.324 246.757C123.787 248.321 131.312 249.537 138.89 250.404Z" fill="#1F9EF2"/>
<path d="M138.891 250.404C131.322 249.537 123.788 248.322 116.325 246.758C116.844 248.044 117.398 249.323 117.987 250.583C118.014 250.636 118.041 250.69 118.059 250.744C118.318 251.289 118.577 251.843 118.845 252.379C118.908 252.504 118.971 252.638 119.033 252.763C119.265 253.237 119.507 253.702 119.748 254.166C119.829 254.327 119.918 254.488 119.998 254.64C120.231 255.078 120.463 255.516 120.704 255.945C120.794 256.115 120.892 256.284 120.99 256.454C121.232 256.883 121.482 257.312 121.723 257.732C121.821 257.893 121.911 258.063 122.009 258.224C122.277 258.671 122.545 259.118 122.822 259.555C122.903 259.689 122.992 259.824 123.073 259.967C123.43 260.538 123.797 261.11 124.172 261.674C128.694 262.183 133.243 262.648 137.801 263.059C138.516 258.885 138.864 254.649 138.891 250.404Z" fill="#1F82F2"/>
<path d="M114.465 235.256C110.882 221.412 111.463 209.159 112.499 208.65C114.09 207.864 117.45 220.215 121.034 234.058C124.618 247.901 127.245 258.983 125.476 258.787C124.028 258.626 118.049 249.099 114.465 235.256Z" fill="#324663"/>
<path d="M125.556 253.228C124.975 254.541 124.376 255.837 123.751 257.133C118.88 267.303 112.776 276.839 105.653 285.428C105.09 279.69 104.527 273.961 103.964 268.224C99.0133 277.456 91.0504 284.891 81.738 288.976C82.2385 283.533 82.7479 278.081 83.2484 272.639C79.3697 275.204 75.4732 277.778 71.5856 280.343C73.078 275.74 75.1514 270.011 76.5813 266.615C57.4829 273.568 30.1982 284.346 7.48929 294.856C6.72964 288.806 1.32275 264.247 0.73291 256.972C19.7241 248.938 42.1024 240.68 63.444 233.45C59.7619 231.984 50.6104 227.364 46.9194 225.907C51.5935 223.932 56.6697 223.065 61.6834 223.387C57.1076 219.088 52.5229 214.798 47.9472 210.509C58.752 206.862 70.5042 206.389 81.5146 209.159C78.8156 205.424 76.1256 201.688 73.4355 197.952C86.6355 199.784 99.4958 204.163 111.856 211.331C112.973 211.974 114.081 212.645 115.189 213.342C115.958 215.531 116.816 218.355 117.718 221.582C118.764 225.326 119.899 229.616 121.052 234.058C121.704 236.596 122.33 239.027 122.902 241.332C124.064 246.06 125.011 250.18 125.556 253.228Z" fill="#FFD470"/>
<path d="M122.884 241.323C121.642 243.691 120.337 246.024 118.952 248.303C116.262 252.771 113.295 257.079 110.095 261.199C109.89 256.579 110.274 251.931 111.221 247.409C109.273 250.171 106.655 252.441 103.652 253.978C104.787 251.547 105.913 249.107 107.048 246.676C101.239 252.548 94.6254 257.624 87.4401 261.699C88.1997 257.928 88.9683 254.148 89.7279 250.376C64.5166 258.125 28.849 272.692 4.43308 282.684C3.46788 278.349 2.4848 274.596 1.6626 270.288C24.2196 259.304 58.8505 245.193 83.3111 239.563C79.8972 236.81 76.4833 234.057 73.0693 231.314C81.4165 229.973 89.9067 229.562 98.3432 230.054C96.8775 228.534 95.4208 227.006 93.9551 225.487C96.3681 225.585 98.7543 226.085 100.989 226.979C97.5121 222.743 94.0356 218.507 90.5591 214.262C97.7623 215.513 104.876 217.265 111.874 219.544C113.822 220.178 115.761 220.84 117.692 221.554C118.737 225.299 119.872 229.589 121.025 234.031C121.687 236.586 122.321 239.026 122.884 241.323Z" fill="#FF763B"/>
<path d="M161.653 139.326C159.401 129.763 157.148 120.2 154.905 109.726C160.848 107.251 166.97 105.204 174.334 103.381C185.845 104.391 197.07 108.439 206.061 114.615C204.238 119.307 201.664 123.713 198.545 127.698C200.833 132.578 203.129 137.458 205.417 142.337C194.809 143.285 184.138 143.597 173.494 143.285C169.294 143.15 162.68 143.669 161.653 139.326Z" fill="#FFBE45"/>
<path d="M186.417 119.226C188.088 124.016 190.698 128.404 194.022 132.015" stroke="#F08826" stroke-width="0.8641" stroke-miterlimit="10" stroke-linecap="round" stroke-linejoin="round"/>
<path d="M177.141 105.177C176.953 105.937 176.739 106.678 176.488 107.411C175.085 111.567 172.735 115.347 169.723 118.323C168.195 119.825 165.978 119.959 164.325 118.672C163.565 118.082 162.877 117.412 162.269 116.697C160.92 115.106 159.955 113.247 159.41 111.254C165.272 110.11 171.376 108.055 177.141 105.177Z" fill="#FE8C6D"/>
<path d="M177.14 105.177C176.953 105.937 176.738 106.678 176.488 107.411C172.886 112.103 167.783 115.463 162.26 116.697C160.911 115.106 159.946 113.247 159.4 111.254C165.272 110.11 171.376 108.055 177.14 105.177Z" fill="#3E2336"/>
<path d="M152.143 123.221L150.32 155.421L164.101 152.677L165.71 140.684L152.143 123.221Z" fill="#FFCCB3"/>
<path d="M153.314 110.932C150.338 114.74 147.38 120.692 144.511 125.83C148.059 131.318 156.317 135.643 163.583 136.242C161.876 127.832 158.167 118.439 153.314 110.932Z" fill="#FFBE45"/>
<path d="M180.823 104.015C178.008 110.539 177.043 117.474 177.364 124.991C178.642 127.43 179.911 129.861 181.449 132.149C182.887 129.566 184.317 126.983 185.613 124.186C185.104 118.02 186.301 111.701 189.027 106.178C186.686 104.9 183.844 104.4 180.823 104.015Z" fill="#6CC4BD"/>
<path d="M156.818 131.246C154.593 126.778 152.582 119.146 151.885 112.818C152.448 110.245 153.887 108.52 156.604 107.125C157.98 115.187 159.383 121.934 162.404 129.504C162.341 130.8 162.395 133.079 162.663 135.67C160.393 134.267 157.158 131.935 156.818 131.246Z" fill="#6CC4BD"/>
<path d="M193.862 173.367C199.072 173.081 203.889 169.819 206.633 165.377C209.377 160.935 210.19 155.466 209.493 150.291C208.796 145.117 206.687 140.21 203.97 135.751C197.678 135.393 191.011 131.997 185.434 128.547C176.336 130.558 166.747 131.944 159.91 131.908C161.036 137.368 162.672 145.403 164.54 152.981C165.46 152.177 165.272 149.523 166.193 148.718C161.85 149.469 157.533 151.113 153.243 153.357" fill="#6CC4BD"/>
<path d="M177.829 150.961C175.693 152.445 173.799 154.295 172.252 156.386" stroke="#46949C" stroke-width="0.8641" stroke-miterlimit="10" stroke-linecap="round" stroke-linejoin="round"/>
<path d="M164.36 149.504C178.669 151.292 193.522 148.486 206.195 141.586" stroke="#46949C" stroke-width="0.8641" stroke-miterlimit="10" stroke-linecap="round" stroke-linejoin="round"/>
<path d="M166.246 143.481L164.781 136.984C169.991 136.877 174.853 136.34 180.26 135.134C180.528 137.091 180.787 139.057 181.019 141.05C181.243 142.918 180.358 144.768 178.705 145.751C177.811 146.278 176.881 146.761 175.898 147.19C174.924 147.619 173.843 147.807 172.788 147.664C171.403 147.485 170.045 147.136 168.811 146.6C167.489 146.019 166.55 144.849 166.246 143.481Z" stroke="#46949C" stroke-width="0.8641" stroke-miterlimit="10" stroke-linecap="round" stroke-linejoin="round"/>
<path d="M145.397 104.632C143.61 110.37 140.911 115.723 137.479 120.352C136.594 121.55 135.522 122.774 134.181 122.899C133.037 122.998 131.893 122.158 131.482 120.915C131.071 119.673 131.429 118.127 132.322 117.269C129.623 119.753 126.129 121.022 122.742 120.737C120.293 120.531 117.701 119.333 116.647 116.76C115.396 113.721 116.834 109.878 119.14 107.778C121.446 105.678 124.395 104.9 127.237 104.185C125.959 105.195 124.154 103.345 124.44 101.585C124.717 99.824 126.334 98.6979 127.854 98.5459C129.373 98.394 130.865 98.957 132.358 99.3235C136.067 100.235 139.999 99.9133 143.601 98.4119C144.03 100.458 144.468 102.514 145.397 104.632Z" fill="#893820"/>
<path d="M198.071 83.9784C201.985 81.6548 207.258 81.494 211.342 83.5763C215.436 85.6676 218.188 89.9126 218.269 94.2828C218.278 94.7208 218.251 95.1855 217.992 95.5519C217.536 96.1775 216.517 96.2311 215.802 95.8737C215.087 95.5162 214.596 94.8549 214.14 94.2203C215.248 98.6173 213.925 103.47 210.717 106.804C209.778 107.769 208.59 108.663 207.196 108.707C205.891 108.752 204.586 107.965 204.095 106.822C203.603 105.678 203.943 104.265 204.917 103.443C204.354 105.186 203.54 106.956 202.03 108.082C200.511 109.217 198.125 109.485 196.686 108.242C194.907 106.714 195.452 104.033 195.828 101.799C196.57 97.3393 195.989 92.6831 194.166 88.5006C195.935 87.3477 197.302 85.6318 198.071 83.9784Z" fill="#893820"/>
<path d="M194.988 81.7442C193.281 90.0378 188.964 97.8219 182.601 103.408C176.238 108.993 167.837 112.291 159.374 112.166C153.243 112.076 147.139 110.155 142.08 106.723C138.935 104.587 137.067 101.057 136.897 97.25C136.656 91.6555 135.36 86.4451 134.493 81.2259C133.376 74.5142 133.036 67.2931 137.103 60.0005C145.539 54.1468 156.022 51.3226 166.246 52.1359C173.914 52.7436 181.698 55.5588 186.792 61.3232C191.538 66.6943 196.596 73.9958 194.988 81.7442Z" fill="#FFCCB3"/>
<path d="M189.679 90.1273C184.102 84.3361 180.894 76.3197 180.956 68.2764C175.531 67.5971 170.875 62.9052 169.999 56.7655C163.752 59.6521 157.514 62.5387 151.267 65.4254C150.15 65.9437 148.81 66.4622 147.737 65.8545C146.772 65.3182 146.433 64.0401 146.656 62.9588C146.879 61.8774 147.532 60.948 148.256 59.9738C142.214 62.3779 137.12 67.0966 134.368 73.2542C134.019 78.3573 134.904 83.3888 135.914 88.6527C132.857 89.2604 129.738 88.0807 127.522 85.8912C125.305 83.7016 124.269 80.3771 124.841 77.3117C121.954 79.0276 117.906 77.544 116.145 74.6931C114.384 71.8332 114.59 68.0976 115.886 65.0054C117.182 61.9132 119.443 59.3304 121.713 56.8638C119.943 55.4785 119.228 53.0387 119.532 50.8134C119.997 47.4173 122.544 44.5753 125.574 42.9846C128.603 41.3938 132.08 40.8755 135.494 40.6074C138.908 40.3393 142.357 40.3035 145.709 39.5707C153.403 37.8816 160.33 32.5908 168.203 32.85C172.287 32.9841 176.3 34.7267 179.205 37.6045C182.1 40.4911 183.861 44.495 184.379 47.7481C190.179 47.4799 195.72 51.1619 198.66 56.1667C201.601 61.1714 202.226 67.2843 201.467 73.0397C200.716 78.7952 198.678 84.3004 196.587 89.7252C194.54 89.0639 192.244 89.2157 189.679 90.1273Z" fill="#893820"/>
<path d="M186.855 90.6098C188.088 87.2763 191.967 85.1672 195.435 85.9447C198.902 86.7133 201.521 90.2702 201.226 93.8092C201.029 96.2222 199.626 98.4297 197.731 99.9312C195.837 101.424 193.477 102.255 191.091 102.639C188.526 103.05 185.55 102.827 183.843 100.869" fill="#FFCCB3"/>
<path d="M167.149 74.434C168.945 73.4956 171.019 73.2096 172.949 73.6297C174.879 74.0497 176.667 75.1758 177.936 76.7755C178.186 74.8541 177.48 72.8432 176.113 71.601C174.745 70.3587 172.77 69.9387 171.037 70.5196C169.312 71.0916 167.882 72.6556 167.149 74.434Z" fill="#692539"/>
<path d="M139.9 78.9203C140.865 77.3564 142.411 76.1498 144.163 75.6046C145.924 75.0595 147.872 75.1756 149.552 75.9264C148.989 74.2462 147.496 72.9057 145.763 72.5393C144.029 72.1729 142.116 72.7895 140.928 74.1033C139.739 75.426 139.31 77.3832 139.9 78.9203Z" fill="#692539"/>
<path d="M171.805 95.284C171.206 92.8799 173.333 90.2793 176.55 89.4839C179.767 88.6795 182.869 89.9754 183.467 92.3795C184.066 94.7835 181.939 97.3842 178.722 98.1796C175.504 98.9839 172.403 97.688 171.805 95.284Z" fill="#FF888E"/>
<path d="M169.499 90.1182C169.374 88.4022 170.402 86.9277 171.778 86.8294C173.163 86.7311 174.379 88.0449 174.504 89.7608C174.629 91.4767 173.601 92.9512 172.225 93.0495C170.84 93.1568 169.624 91.843 169.499 90.1182Z" fill="#3E2336"/>
<path d="M151.161 96.7583C151.411 94.2916 148.935 92.0216 145.638 91.6909C142.34 91.3603 139.453 93.0762 139.203 95.5428C138.953 98.0094 141.428 100.279 144.726 100.61C148.024 100.941 150.91 99.2159 151.161 96.7583Z" fill="#FF888E"/>
<path d="M152.716 91.3161C152.591 89.6002 151.375 88.2864 149.99 88.3847C148.605 88.483 147.586 89.9575 147.711 91.6735C147.836 93.3894 149.052 94.7031 150.437 94.6048C151.813 94.5065 152.841 93.0409 152.716 91.3161Z" fill="#3E2336"/>
<path d="M156.568 89.4479C155.924 90.0288 155.558 90.9135 155.612 91.7804C155.656 92.6473 156.121 93.4785 156.827 93.9879" stroke="#E0483A" stroke-width="0.8641" stroke-miterlimit="10" stroke-linecap="round" stroke-linejoin="round"/>
<path d="M167.077 102.845C166.005 104.686 163.833 105.749 161.706 105.678C160.232 105.633 158.82 105.088 157.631 104.212C157.104 103.828 156.621 103.381 156.192 102.871C154.816 101.245 154.065 99.1625 153.824 97.0534C154.065 96.9997 154.306 96.9551 154.539 96.9104C158.694 96.0525 162.814 95.4804 166.943 94.9084C167.015 95.114 167.077 95.3286 167.149 95.5341C167.399 96.3474 167.614 97.1875 167.739 98.0276C168.007 99.7077 167.917 101.388 167.077 102.845Z" fill="#3E2336"/>
<path d="M167.157 95.534C163.985 98.0632 160.088 99.3055 156.299 99.0105C155.629 98.9569 155.03 98.4922 154.771 97.7683C154.672 97.5091 154.601 97.2232 154.547 96.9014C158.703 96.0435 162.823 95.4715 166.952 94.8995C167.015 95.114 167.086 95.3285 167.157 95.534Z" fill="white"/>
<path d="M167.077 102.844C166.005 104.685 163.833 105.749 161.706 105.677C160.232 105.633 158.819 105.088 157.631 104.212C158.256 102.38 159.427 100.744 160.982 99.6182C162.895 98.2329 165.352 97.6699 167.739 98.0363C168.007 99.7075 167.917 101.388 167.077 102.844Z" fill="#FA4664"/>
<path d="M178.231 66.9532L182.574 60.2236C182.887 59.7321 183.54 59.5891 184.031 59.9109L184.201 60.0181C184.692 60.3309 184.835 60.9833 184.514 61.4748L180.17 68.2044C179.857 68.696 179.205 68.839 178.714 68.5172L178.544 68.41C178.061 68.0972 177.918 67.4448 178.231 66.9532Z" fill="#6CC4BD"/>
<path d="M178.83 57.2384C180.108 55.2544 183.379 55.0845 186.131 56.8541C188.884 58.6325 190.072 61.68 188.794 63.6641C187.516 65.6481 184.442 65.514 181.689 63.7445C178.937 61.966 177.543 59.2224 178.83 57.2384Z" fill="white"/>
<path d="M182.575 53.8424C183.933 51.5098 186.15 48.9628 187.472 49.7314C189.001 50.6251 187.66 53.6905 186.302 56.0141C184.943 58.3467 183.576 58.7666 182.548 58.1589C181.52 57.5691 181.216 56.1749 182.575 53.8424Z" fill="white"/>
<path d="M190.332 58.856C191.896 56.6575 193.308 53.5831 192.057 52.6984C190.618 51.6706 188.375 54.1552 186.811 56.3537C185.247 58.5522 185.425 59.9642 186.4 60.6613C187.374 61.3584 188.777 61.0545 190.332 58.856Z" fill="white"/>
<path d="M179.027 58.5164C179.375 58.1678 180.072 58.293 180.582 58.8114C181.091 59.3208 181.216 60.0178 180.868 60.3664C180.519 60.7149 179.822 60.5897 179.313 60.0714C178.803 59.562 178.678 58.8649 179.027 58.5164Z" fill="#FB6F61"/>
<path d="M187.543 64.004C187.722 63.5392 187.311 62.9584 186.632 62.7081C185.953 62.4579 185.264 62.6276 185.095 63.0924C184.916 63.5571 185.327 64.1381 186.006 64.3883C186.685 64.6385 187.365 64.4687 187.543 64.004Z" fill="#FB6F61"/>
<path d="M180.823 58.9456C181.064 58.5703 181.564 58.4631 181.931 58.7044C182.306 58.9457 182.413 59.4462 182.172 59.8126C181.931 60.188 181.43 60.2951 181.064 60.0538C180.689 59.8125 180.581 59.321 180.823 58.9456Z" fill="#3E2336"/>
<path d="M185.06 61.6713C185.301 61.2959 185.801 61.1887 186.168 61.43C186.543 61.6713 186.65 62.1717 186.409 62.5382C186.168 62.9135 185.667 63.0208 185.301 62.7795C184.925 62.5471 184.818 62.0467 185.06 61.6713Z" fill="#3E2336"/>
<path d="M191.332 199.668C189.322 207.819 183.289 217.783 175.934 224.316C174.71 225.407 172.842 225.407 171.6 224.334C169.106 222.189 167.891 218.704 167.783 215.37C167.676 211.635 168.722 208.006 169.919 204.458C170.107 203.895 170.295 203.323 170.491 202.769C173.727 200.329 177.596 197.434 181.314 194.368C182.565 194.449 183.816 194.637 185.059 194.922C186.56 195.262 188.044 195.754 189.465 196.37C190.778 196.942 191.672 198.319 191.332 199.668Z" fill="#FE8C6D"/>
<path d="M191.332 199.668C189.322 207.818 183.289 217.783 175.934 224.316C174.71 225.406 172.842 225.406 171.6 224.334C169.106 222.189 167.891 218.704 167.783 215.37C167.676 211.634 168.722 208.006 169.919 204.458C173.709 202.832 178.445 203.43 181.573 206.165C183.843 202.894 185.077 198.899 185.059 194.922C186.56 195.262 188.044 195.753 189.465 196.37C190.778 196.942 191.672 198.318 191.332 199.668Z" fill="#692539"/>
<path d="M144.314 163.285C143.751 162.669 143.278 162.159 143.251 161.641C143.197 160.568 148.881 154.42 152.948 152.489C154.369 151.81 155.968 151.587 157.523 151.81C163.288 152.623 168.498 155.367 172.144 159.541C169.445 163.366 169.749 162.937 167.05 166.762C159.838 164.125 152.161 162.847 144.314 163.285Z" fill="#89E0D5"/>
<path d="M165.37 164.608C161.912 160.363 156.21 158.057 150.222 158.647C147.398 160.023 144.824 161.909 142.581 164.331C140.016 167.101 139.605 171.257 141.642 174.43C147.443 183.438 163.324 197.603 170.545 203.019C173.887 201.419 176.81 198.962 178.954 195.941C174.781 185.315 172.529 173.375 165.37 164.608Z" fill="#FFCCB3"/>
<path d="M192.351 192.804C189.831 187.415 187.757 181.821 186.166 176.083C188.535 171.704 188.553 167.191 186.694 163.562C184.844 159.934 181.171 157.298 177.935 156.779C172.332 158.12 167.032 160.729 162.68 164.277C160.392 166.145 159.615 169.318 160.884 171.981C166.201 183.197 172.957 193.734 181.197 203.216C185.988 201.232 190.054 197.559 192.351 192.804Z" fill="#FFCCB3"/>
<path d="M200.538 196.129C199.367 204.44 194.38 214.968 187.731 222.216C186.623 223.422 184.764 223.619 183.414 222.681C180.715 220.795 179.151 217.461 178.713 214.146C178.231 210.446 178.901 206.728 179.732 203.073C179.866 202.492 179.991 201.911 180.134 201.33C183.11 198.577 186.658 195.298 190.046 191.866C191.297 191.821 192.557 191.884 193.826 192.035C195.354 192.223 196.882 192.563 198.357 193.027C199.706 193.483 200.734 194.752 200.538 196.129Z" fill="#FE8C6D"/>
<path d="M200.538 196.129C199.367 204.44 194.38 214.968 187.731 222.216C186.623 223.422 184.764 223.619 183.414 222.681C180.715 220.795 179.151 217.461 178.713 214.146C178.231 210.446 178.901 206.728 179.732 203.073C183.334 201.071 188.115 201.187 191.493 203.582C193.415 200.097 194.237 196.004 193.817 192.044C195.345 192.232 196.873 192.572 198.348 193.036C199.706 193.483 200.734 194.752 200.538 196.129Z" fill="#692539"/>
<path d="M164.281 163.187C163.7 163.607 163.137 164.063 162.574 164.563C160.411 166.494 159.741 169.622 160.947 172.258C165.818 182.884 172.199 192.813 179.858 201.643" stroke="#F7B89F" stroke-width="0.8641" stroke-miterlimit="10"/>
<path d="M184.612 171.802C184.951 173.134 185.425 174.43 186.042 175.663" stroke="#F7B89F" stroke-width="0.8641" stroke-miterlimit="10"/>
<path d="M169.33 157.342C168.347 157.789 167.462 158.433 166.693 159.362C166.479 159.63 166.381 159.97 166.399 160.318L166.452 161.239" stroke="#6CC4BD" stroke-width="0.8641" stroke-miterlimit="10" stroke-linecap="round" stroke-linejoin="round"/>
<path d="M168.392 158.442C168.007 158.925 167.864 160.158 167.829 160.775C177.49 160.256 188.428 166.986 186.042 176.289C189.179 176.602 192.405 175.914 195.551 174.109C197.482 166.575 190.278 157.289 181.493 153.696C179.742 152.981 177.776 153.026 176.06 153.822C172.619 155.43 169.607 156.914 168.392 158.442Z" fill="#89E0D5"/>
<path d="M204.738 117.689C204.738 117.689 199.278 126.232 194.497 131.729L219.574 155.939L227.304 147.967C227.304 147.976 215.186 125.821 204.738 117.689Z" fill="#FFCCB3"/>
<path d="M243.534 182.643C245.688 182.303 247.922 181.713 249.95 180.918C248.199 179.917 246.331 179.086 244.41 178.46C243.998 179.89 243.641 181.365 243.534 182.643Z" fill="#821F38"/>
<path d="M287.2 187.254C279.89 179.408 268.263 169.103 260.398 161.516C253.213 165.216 246.876 170.569 241.898 177.71C255.161 184.055 270.497 195.235 282.061 204.226C283.259 198.64 286.146 191.866 287.2 187.254Z" fill="#FFCCB3"/>
<path d="M287.968 204.906C286.905 205.692 285.609 205.996 284.384 205.844C283.241 205.692 282.159 205.138 281.364 204.191C279.764 202.26 278.54 199.865 278.075 197.676C277.333 194.154 277.753 190.481 278.593 186.987C279.871 181.625 282.249 176.325 286.476 172.795C289.38 170.355 293.295 168.952 297.182 169.363C299.944 169.649 302.08 171.812 302.41 174.493C302.455 174.779 302.464 175.074 302.455 175.369C302.241 186.647 297.218 198.078 287.968 204.906Z" fill="#3E2336"/>
<path d="M287.968 204.906C286.905 205.692 285.609 205.996 284.385 205.844C284.233 205.629 284.081 205.406 283.956 205.165C283.33 203.976 283.151 202.6 283.071 201.25C282.579 193.261 284.975 185.119 289.738 178.676C291.418 176.397 293.5 174.252 296.19 173.358C298.21 172.697 300.623 172.947 302.42 174.484C302.464 174.77 302.473 175.065 302.464 175.36C302.241 186.647 297.218 198.078 287.968 204.906Z" fill="#633952"/>
<path d="M214.784 139.254C212.093 145.197 212.522 152.257 215.052 158.263C217.581 164.278 222.04 169.318 227.117 173.411C232.193 177.504 237.895 180.731 243.534 182.643C249.057 175.243 257.583 169.425 265.912 166.092C263.705 162.714 261.006 159.353 258.325 156.386C259.227 155.421 259.71 154.483 260.058 153.464C260.711 151.56 260.836 149.505 260.541 147.512C260.344 146.18 260.139 144.777 259.799 143.785C246.823 140.532 234.695 138.95 221.388 137.61" fill="#FF485E"/>
<path d="M257.064 156.609C250.648 154.956 243.65 155.653 237.689 158.558" stroke="#B32040" stroke-width="0.8641" stroke-miterlimit="10" stroke-linecap="round" stroke-linejoin="round"/>
<path d="M253.373 154.572C247.537 152.338 241.165 151.515 234.954 152.204" stroke="#B32040" stroke-width="0.8641" stroke-miterlimit="10" stroke-linecap="round" stroke-linejoin="round"/>
<path d="M261.425 147.476C248.351 149.371 228.466 146.377 213.398 141.328C218.456 121.872 228.198 105.964 241.246 92.6029C246.09 93.2464 250.996 93.3983 257.252 93.0766C265.045 96.9821 274.348 112.104 279.157 122.131C274.331 124.392 267.252 127.118 261.711 128.181C261.711 135.134 261.944 140.479 261.425 147.476Z" fill="white"/>
<g opacity="0.702">
<path d="M257.913 124.115C253.945 116.465 249.191 109.226 243.739 102.55" stroke="#C9ABB0" stroke-width="0.8641" stroke-miterlimit="10" stroke-linecap="round" stroke-linejoin="round"/>
<path d="M240.423 133.677C239.529 134.07 238.627 134.455 237.742 134.848C232.317 128.672 229.708 120.111 230.771 111.951" stroke="#C9ABB0" stroke-width="0.8641" stroke-miterlimit="10" stroke-linecap="round" stroke-linejoin="round"/>
<path d="M234.141 129.754C231.102 128.744 228.394 126.76 226.518 124.168" stroke="#C9ABB0" stroke-width="0.8641" stroke-miterlimit="10" stroke-linecap="round" stroke-linejoin="round"/>
<path d="M262.525 104.543C262.365 112.345 262.213 120.156 262.052 127.958" stroke="#C9ABB0" stroke-width="0.8641" stroke-miterlimit="10" stroke-linecap="round" stroke-linejoin="round"/>
</g>
<path d="M260.684 101.28C260.559 101.736 260.407 102.192 260.228 102.63C258.986 105.695 254.169 106.75 250.916 104.694C247.216 102.353 244.303 98.9032 242.685 95.4446C242.721 95.4446 242.766 95.4446 242.81 95.4446C249.004 95.5786 254.857 95.5161 260.657 95.105C261.229 96.9907 261.238 99.207 260.684 101.28Z" fill="#FE8C6D"/>
<path d="M260.685 101.281C257.61 100.977 254.545 100.557 251.605 99.7523C248.325 98.8586 245.17 97.4555 242.811 95.4447C249.004 95.5788 254.858 95.5162 260.658 95.1051C261.23 96.9908 261.239 99.2071 260.685 101.281Z" fill="#3E2336"/>
<path d="M226.401 88.429C236.742 97.4822 252.176 100.271 265.036 95.4089C267.583 94.4437 270.086 93.1388 272.248 91.4676C275.993 88.572 277.879 83.9069 277.334 79.206C276.368 70.8231 276.163 62.458 276.636 54.1377C276.779 51.6979 276.109 49.2759 274.795 47.2115C270.121 39.901 263.231 34.5299 255.411 32.2242C246.858 30.9015 237.859 32.5817 230.369 36.9161C222.871 41.2506 216.928 48.2035 213.89 56.1843C213.934 68.0616 217.724 80.8325 226.401 88.429Z" fill="#FFCCB3"/>
<path d="M217.161 41.5098C212.603 41.9477 208.921 45.8443 207.571 50.2145C206.213 54.5847 206.794 59.3302 207.893 63.7719C209.671 71.0109 213.693 77.517 218.912 83.3082C221.352 83.5942 221.781 84.7203 224.989 84.5148C228.144 73.1916 229.797 61.4572 230.325 48.9454C231.71 50.0357 233.113 51.1439 234.757 51.7873C236.393 52.4308 238.332 52.5559 239.869 51.689C241.407 50.8311 242.345 48.8202 241.639 47.2116C242.908 48.5075 244.374 49.6872 246.108 50.2412C247.841 50.7953 249.879 50.6345 251.282 49.4816C252.685 48.3287 253.203 46.0766 252.265 44.5931C253.632 45.746 255.027 46.9167 256.653 47.6584C258.28 48.4002 260.21 48.6862 261.863 48.007C263.526 47.3367 264.786 45.5493 264.482 43.7798C266.18 46.7648 270.148 48.2394 273.562 47.0776C275.01 49.1421 276.252 54.7098 276.44 59.5268C280.381 54.6293 280.765 45.0399 277.369 39.7492C278.513 40.482 280.158 40.0262 280.98 38.9448C281.802 37.8724 281.891 36.3621 281.48 35.0662C281.069 33.7793 280.211 32.6711 279.282 31.688C273.616 25.6913 265.117 23.4035 256.975 22.0629C251.479 21.1603 245.875 20.5794 240.334 21.1603C234.793 21.7412 229.279 23.5554 224.927 27.0408C220.566 30.5441 217.5 35.8258 217.161 41.5098Z" fill="#3E2336"/>
<path d="M219.27 45.2635C216.892 42.931 214.703 40.4196 213.389 37.6313C212.075 34.8429 211.682 31.7329 212.906 29.0696C215.051 24.3956 221.298 22.7512 220.699 24.056C218.224 29.445 216.964 38.6144 219.27 45.2635Z" fill="#3E2336"/>
<path d="M220.199 45.2097C218.742 42.904 216.812 40.9111 214.471 39.785C212.129 38.6679 209.376 38.498 207.071 39.6599C202.361 42.0371 201.422 46.9971 203.004 46.2017C206.088 44.6556 213.523 42.6537 220.199 45.2097Z" fill="#3E2336"/>
<path d="M227.983 80.8416C225.382 79.1882 222.228 77.9103 219.323 78.8934C215.704 80.1177 213.773 84.8632 214.953 88.6525C216.133 92.4418 219.868 94.971 223.658 95.1587C227.447 95.3464 231.165 93.4607 233.873 90.6545" fill="#FFCCB3"/>
<path d="M232.299 65.4523C231.495 63.0661 232.63 60.1795 234.819 59.0177C237.009 57.8558 239.985 58.5797 241.442 60.6173C237.688 60.2151 233.81 62.4584 232.299 65.4523Z" fill="#3E2336"/>
<path d="M260.273 57.6589C261.131 55.523 263.58 54.2361 265.751 54.7902C267.923 55.3353 269.55 57.6589 269.398 59.9736C267.128 57.793 263.803 56.8993 260.273 57.6589Z" fill="#3E2336"/>
<path d="M230.968 81.2348C230.852 78.8576 233.399 76.8021 236.661 76.6502C239.923 76.4893 242.658 78.2856 242.765 80.6629C242.881 83.0401 240.334 85.0956 237.072 85.2476C233.819 85.3995 231.084 83.6032 230.968 81.2348Z" fill="#FF888E"/>
<path d="M238.046 76.6054C237.778 74.8895 238.743 73.3167 240.2 73.0932C241.657 72.8609 243.051 74.0674 243.328 75.7833C243.596 77.4992 242.631 79.072 241.174 79.2955C239.708 79.5189 238.314 78.3124 238.046 76.6054Z" fill="#3E2336"/>
<path d="M274.733 74.3624C274.116 72.0655 271.06 70.8948 267.914 71.7349C264.768 72.5839 262.712 75.131 263.329 77.4278C263.946 79.7246 267.002 80.8953 270.148 80.0552C273.294 79.2062 275.349 76.6592 274.733 74.3624Z" fill="#FF888E"/>
<path d="M266.573 72.128C266.305 70.4121 264.902 69.2145 263.445 69.4379C261.988 69.6703 261.023 71.2433 261.291 72.9502C261.559 74.6661 262.963 75.8637 264.419 75.6403C265.876 75.4169 266.841 73.8439 266.573 72.128Z" fill="#3E2336"/>
<path d="M253.427 76.5698C253.847 75.3991 255.16 74.6126 256.394 74.8092C257.627 75.0058 258.637 76.1497 258.682 77.392" stroke="#E0483A" stroke-width="0.8641" stroke-miterlimit="10" stroke-linecap="round" stroke-linejoin="round"/>
<path d="M260.907 90.5384C260.719 90.6636 260.54 90.7886 260.353 90.9048C257.055 92.9246 252.738 92.7637 249.601 90.5116C247.626 89.0906 246.187 86.8831 245.499 84.4433C245.088 82.9955 244.945 81.4584 245.115 79.948C245.276 79.9748 245.437 79.9928 245.598 80.0196C251.058 80.8239 258.932 81.1277 264.785 80.8417C265.027 80.8328 265.259 80.815 265.482 80.806C265.724 84.5596 263.865 88.4114 260.907 90.5384Z" fill="#3E2336"/>
<path d="M260.907 90.5383C260.719 90.6634 260.541 90.7884 260.353 90.9046C257.055 92.9244 252.738 92.7636 249.602 90.5114C247.626 89.0905 246.188 86.883 245.5 84.4432C247.055 83.7371 248.762 83.3797 250.468 83.3976H250.477C251.684 83.4155 252.881 83.612 254.025 84.0142C254.07 84.0232 254.133 84.05 254.177 84.0679C257.135 85.1582 259.611 87.5712 260.907 90.5383Z" fill="#FA4664"/>
<path d="M264.768 80.8417C264.563 81.8247 264.125 82.5844 263.374 83.0313C261.667 84.0412 257.887 84.4344 254.008 84.0144C252.819 83.8892 251.613 83.6837 250.46 83.3977C249.665 83.2011 248.878 82.9687 248.145 82.7006C246.948 82.2627 246.009 81.2618 245.589 80.0195C251.05 80.8239 258.914 81.1277 264.768 80.8417Z" fill="white"/>
<path d="M274.026 150.139C267.493 140.219 262.792 132.783 257.412 124.606C252.872 126.385 245.615 130.308 240.736 133.212C247.099 140.8 255.643 148.128 263.838 155.457C266.242 153.633 270.854 151.605 274.026 150.139Z" fill="#FFCCB3"/>
<path d="M267.297 149.621C271.247 149.183 275.26 149.281 279.496 150.023C281.668 150.398 283.625 151.685 284.679 153.652C286.002 156.109 286.556 159.344 286.217 162.124C286.074 163.295 285.135 165.207 283.518 164.698C282.829 164.483 282.481 163.732 282.204 163.053C281.453 161.203 281.087 159.014 280.336 157.164C281.48 159.344 282.275 162.195 281.936 164.644C281.855 165.243 281.221 166.119 280.55 166.19C279.71 166.279 278.879 165.627 278.486 165.028C277.244 163.169 276.743 160.721 276.252 158.272C276.877 160.131 277.458 162.365 277.449 164.269C277.44 166.601 275.161 166.342 274.527 165.556C274.277 165.252 274.071 164.912 273.901 164.546C273.061 162.714 272.677 160.739 272.096 158.799C273.168 161.936 273.973 164.349 272.972 165.252C272.579 165.609 271.864 165.582 271.39 165.359C270.907 165.136 270.55 164.716 270.228 164.287C269.174 162.883 268.414 161.266 268.012 159.997C264.625 159.05 262.033 155.725 261.899 152.159C263.633 151.399 265.143 149.862 267.297 149.621Z" fill="#FFCCB3"/>
<path d="M281.945 162.267C281.793 160.48 281.391 158.71 280.738 157.039L281.945 162.267Z" fill="#E0483A"/>
<path d="M281.945 162.267C281.793 160.48 281.391 158.71 280.738 157.039" stroke="#F7B89F" stroke-width="0.8641" stroke-miterlimit="10"/>
<path d="M277.272 162.312C277.066 160.873 276.664 159.452 276.092 158.111L277.272 162.312Z" fill="#E0483A"/>
<path d="M277.272 162.312C277.066 160.873 276.664 159.452 276.092 158.111" stroke="#F7B89F" stroke-width="0.8641" stroke-miterlimit="10"/>
<path d="M273.285 162.982C273.124 161.624 272.704 160.301 272.042 159.104L273.285 162.982Z" fill="#E0483A"/>
<path d="M273.285 162.982C273.124 161.624 272.704 160.301 272.042 159.104" stroke="#F7B89F" stroke-width="0.8641" stroke-miterlimit="10"/>
</svg>
