<svg width="320" height="298" viewBox="0 0 320 298" fill="none" xmlns="http://www.w3.org/2000/svg">
<path d="M255.114 13.2519C190.267 -27.1697 158.728 39.4396 158.728 39.4396C158.728 39.4396 125.545 -27.1697 57.3019 13.2519C-10.9411 53.6734 55.586 198.363 158.058 215.503C255.427 198.363 319.97 53.6734 255.114 13.2519Z" fill="#FFC5CB"/>
<path d="M279.762 86.1024C279.762 86.1024 289.995 72.262 288.333 56.2758C286.679 40.2895 279.762 26.0021 279.762 26.0021C279.762 26.0021 271.379 43.1507 270.798 57.8047C270.217 72.4587 275.472 86.1024 275.472 86.1024L269.431 107.802C269.431 107.802 271.871 95.0701 267.483 85.3245C263.095 75.579 257.5 64.4656 257.5 64.4656C257.5 64.4656 254.131 80.7111 256.571 94.328C259.01 107.945 266.115 116.546 266.115 116.546L261.379 135.232C261.379 135.232 262.701 123.413 252.084 110.118C241.467 96.8225 241.467 96.8226 241.467 96.8226C241.467 96.8226 236.981 125.71 256.571 139.292L258.912 140.686C258.912 140.686 252.88 156.672 249.323 161.349C249.323 161.349 248.42 133.838 232.039 120.543C232.039 120.543 225.729 150.235 246.516 164.961L226.971 210.425L233.969 213.304C233.969 213.304 251.7 173.83 255.016 164.961C255.016 164.961 283.373 165.578 301.005 139.292C301.005 139.292 278.484 132.595 257.107 158.622C257.107 158.622 261.79 148.384 265.856 138.147C265.856 138.147 289.897 143.985 305.099 105.728C305.099 105.728 283.087 107.578 266.991 133.221L273.149 112.201C273.149 112.201 299.245 102.366 303.731 69.5172C303.731 69.5172 281.335 81.3191 274.695 105.459L279.762 86.1024Z" fill="#357751"/>
<path d="M42.0293 71.457C42.0293 71.457 31.7964 57.6165 33.4587 41.6302C35.1121 25.644 42.0293 11.3566 42.0293 11.3566C42.0293 11.3566 50.4122 28.5052 50.9931 43.1592C51.574 57.8132 46.3191 71.457 46.3191 71.457L52.3605 93.1563C52.3605 93.1563 49.9207 80.4245 54.3088 70.679C58.6969 60.9335 64.2914 49.8201 64.2914 49.8201C64.2914 49.8201 67.6607 66.0656 65.2208 79.6825C62.781 93.2994 55.6761 101.9 55.6761 101.9L60.4127 120.587C60.4127 120.587 59.0901 108.767 69.7072 95.4721C80.3244 82.177 80.3244 82.177 80.3244 82.177C80.3244 82.177 84.8108 111.065 65.2208 124.646L62.8794 126.041C62.8794 126.041 68.9119 142.027 72.4688 146.703C72.4688 146.703 73.3714 119.192 89.753 105.897C89.753 105.897 96.0625 135.59 75.275 150.315L94.8202 195.779L87.8226 198.658C87.8226 198.658 70.0915 159.184 66.7759 150.315C66.7759 150.315 38.4188 150.932 20.786 124.646C20.786 124.646 43.3073 117.949 64.6847 143.976C64.6847 143.976 60.0017 133.739 55.9353 123.502C55.9353 123.502 31.8947 129.34 16.6929 91.0821C16.6929 91.0821 38.7048 92.9328 54.8003 118.575L48.6427 97.5553C48.6427 97.5553 22.5466 87.7203 18.0603 54.8717C18.0603 54.8717 40.4564 66.6735 47.0966 90.8138L42.0293 71.457Z" fill="#357751"/>
<path d="M13.4216 138.952C8.3186 149.573 16.9696 160.866 27.6315 168.242C38.2933 175.618 55.4256 189.914 63.9604 198.846C72.4953 207.787 72.9779 212.436 72.9779 212.436L95.3204 204.72C95.3204 204.72 96.9112 176.056 69.6801 150.092C42.458 124.137 18.5336 128.339 13.4216 138.952ZM53.2003 157.942C66.6773 169.091 73.3086 179.176 71.6105 180.348C68.6971 182.359 61.896 168.573 48.2134 158.121C34.5309 147.669 26.854 146.221 27.3187 143.851C27.7745 141.482 39.7233 146.793 53.2003 157.942Z" fill="#6FC99A"/>
<path d="M53.2004 157.942C66.6774 169.091 73.3086 179.177 71.6106 180.348C68.6971 182.359 61.8961 168.573 48.2135 158.121C34.5309 147.669 26.854 146.221 27.3188 143.851C27.7746 141.482 39.7234 146.793 53.2004 157.942Z" fill="#4DA374"/>
<path d="M265.222 148.59C264.078 150.45 258.493 148.59 242.299 144.862C234.756 143.127 226.999 144.2 220.859 145.836C224.496 143.485 228.563 141.393 233.129 139.685C233.657 139.488 234.175 139.3 234.693 139.122C252.433 138.728 266.062 147.222 265.222 148.59Z" fill="#4DA374"/>
<path d="M216.221 170.638C204.487 172.641 196.711 186.275 192.439 196.566L190.992 195.046C190.992 195.046 194.003 163.208 220.859 145.836C226.999 144.191 234.756 143.118 242.299 144.861C258.484 148.59 264.079 150.449 265.223 148.59C266.063 147.231 252.434 138.728 234.694 139.121C272.086 126.032 297.208 149.618 289.862 161.768C282.408 174.098 262.693 172.56 252.898 171.183C252.898 171.183 235.426 167.365 216.221 170.638Z" fill="#6FC99A"/>
<path d="M216.22 170.638C235.417 167.366 252.898 171.183 252.898 171.183C252.898 171.183 229.116 173.365 218.517 185.694C207.918 198.033 207.06 211.918 207.06 211.918L192.448 196.566C196.72 186.276 204.486 172.641 216.22 170.638Z" fill="#4DA374"/>
<path d="M24.1284 189.235C25.1651 190.924 30.2324 189.235 44.9159 185.855C51.7528 184.281 58.7862 185.256 64.3539 186.74C61.0562 184.603 57.3652 182.708 53.2273 181.161C52.7537 180.982 52.28 180.812 51.8063 180.651C35.7287 180.303 23.3688 188.001 24.1284 189.235Z" fill="#6FC99A"/>
<path d="M68.5631 209.235C79.2071 211.05 86.2495 223.415 90.1282 232.75L91.4419 231.373C91.4419 231.373 88.7072 202.503 64.3628 186.749C58.795 185.265 51.7616 184.29 44.9248 185.864C30.2413 189.244 25.174 190.933 24.1373 189.244C23.3776 188.01 35.7375 180.303 51.8152 180.66C17.9081 168.787 -4.87228 190.173 1.78579 201.197C8.54217 212.374 26.4251 210.988 35.3085 209.727C35.3085 209.727 51.1538 206.267 68.5631 209.235Z" fill="#A4EAC7"/>
<path d="M68.5632 209.235C51.1539 206.267 35.3086 209.727 35.3086 209.727C35.3086 209.727 56.8736 211.703 66.4898 222.888C76.1061 234.073 76.8836 246.671 76.8836 246.671L90.1282 232.75C86.2495 223.415 79.2072 211.05 68.5632 209.235Z" fill="#6FC99A"/>
<path d="M252.264 179.23C206.533 189.235 189.713 220.752 189.713 220.752L208.49 243.408C208.49 243.408 212.011 238.776 226.856 234.78C241.709 230.792 269.154 226.67 285.268 225.714C301.381 224.766 317.879 218.346 319.309 203.755C320.73 189.164 297.994 169.225 252.264 179.23ZM301.372 199.982C300.336 202.798 291.238 199.374 269.932 201.645C248.626 203.916 232.486 214.18 230.681 210.157C229.626 207.814 243.201 201.377 264.731 198.23C286.278 195.091 302.418 197.166 301.372 199.982Z" fill="#A4EAC7"/>
<path d="M264.74 198.238C243.201 201.386 229.635 207.814 230.69 210.165C232.495 214.189 248.635 203.925 269.941 201.654C291.247 199.383 300.345 202.807 301.381 199.991C302.418 197.174 286.278 195.091 264.74 198.238Z" fill="#6FC99A"/>
<path d="M160.544 297.768C221.032 297.768 270.067 280.247 270.067 258.633C270.067 237.02 221.032 219.499 160.544 219.499C100.056 219.499 51.0205 237.02 51.0205 258.633C51.0205 280.247 100.056 297.768 160.544 297.768Z" fill="#357751"/>
<path d="M137.423 26.5112C154.439 25.8585 165.485 13.2518 165.485 13.2518C165.485 13.2518 161.714 19.5194 165.485 19.8949C169.257 20.2704 173.734 15.3351 173.734 15.3351C173.734 15.3351 178.256 39.7615 198.132 31.8846C195.049 19.5373 187.667 4.09644 172.161 7.79795C172.161 7.79795 154.234 -3.63739 139.202 7.79795C133.062 12.474 129.451 18.6611 126.556 24.9912C129.308 26.0372 132.856 26.69 137.423 26.5112Z" fill="#3A3A3A"/>
<path d="M208.178 132.925C209.045 124.199 226.187 110.394 215.319 91.9762C204.452 73.558 212.12 70.4377 208.875 63.9377C205.631 57.4377 200.564 52.8064 199.983 43.1681C199.822 40.5663 199.268 36.4357 198.133 31.8758C178.257 39.7527 173.735 15.3263 173.735 15.3263C173.735 15.3263 169.258 20.2617 165.486 19.8861C161.715 19.5106 165.486 13.243 165.486 13.243C165.486 13.243 154.44 25.8497 137.424 26.5024C132.857 26.6723 129.318 26.0285 126.557 24.9824C122.374 34.1467 119.684 43.6241 112.999 49.2836C101.694 58.8593 88.7084 64.5814 90.1293 75.1137C91.5593 85.646 97.0109 87.6577 93.5076 90.4205C90.0043 93.1832 62.3263 106.04 61.0304 123.975C59.7346 141.911 68.5643 149.037 74.284 151.585C80.0037 154.133 80.8349 154.49 80.7455 157.432C80.6561 160.374 63.7652 177.495 83.6411 187.455C103.517 197.416 117.423 189.226 117.423 189.226C117.423 189.226 115.6 213.572 145.485 213.098C175.371 212.624 181.01 190.835 181.01 190.835C181.01 190.835 214.908 183.566 216.937 163.235C218.956 142.921 207.311 141.652 208.178 132.925ZM189.455 119.532C189.455 119.532 198.455 143.556 181.001 159.909C163.547 176.261 141.437 164.406 141.437 164.406C141.437 164.406 136.378 178.059 114.036 175.466C91.6933 172.864 96.3585 153.114 96.3585 153.114C96.3585 153.114 74.7935 146.229 82.3363 121.213C89.8702 96.2051 110.917 93.3262 110.917 93.3262C105.072 85.9143 112.606 78.5112 119.872 72.6371C127.138 66.763 132.357 45.2066 132.357 45.2066C132.357 45.2066 132.732 53.9418 142.867 54.3352C153.001 54.7286 180.063 57.8043 180.063 57.8043C180.063 57.8043 179.017 67.7554 181.001 75.9184C182.985 84.0814 195.747 92.1638 197.454 104.323C199.161 116.483 189.455 119.532 189.455 119.532Z" fill="#2B2B2B"/>
<path d="M181.001 75.9002C179.017 67.7373 180.062 57.7861 180.062 57.7861C180.062 57.7861 153.001 54.7104 142.866 54.317C132.732 53.9236 132.356 45.1885 132.356 45.1885C132.356 45.1885 127.137 66.7448 119.871 72.6189C112.606 78.4931 105.063 85.8961 110.917 93.308C110.917 93.308 89.8699 96.1869 82.336 121.194C74.8021 146.211 96.3582 153.095 96.3582 153.095C96.3582 153.095 91.6841 172.855 114.036 175.448C136.378 178.049 141.436 164.388 141.436 164.388C141.436 164.388 163.547 176.243 181.001 159.89C198.455 143.538 189.455 119.514 189.455 119.514C189.455 119.514 199.161 116.447 197.463 104.287C195.765 92.1279 182.985 84.0632 181.001 75.9002Z" fill="black"/>
<path d="M157.299 101.766C157.299 101.766 175.459 110.215 188.177 130.806C200.894 151.388 204.138 171.568 204.138 171.568L190.411 172.408C190.411 172.408 181.715 150.083 174.494 143.261C167.273 136.439 155.995 132.934 155.995 132.934L157.299 101.766Z" fill="#E5906E"/>
<path d="M86.6342 258.436L86.241 255.611C86.241 255.611 85.6064 250.443 83.7118 250.443C81.8171 250.443 68.9478 257.659 66.0791 261.798C63.2013 265.938 62.6651 270.229 66.4723 269.55C70.2705 268.87 81.2809 262.925 81.2809 262.925L86.6342 258.436Z" fill="#2B2B2B"/>
<path d="M94.8213 257.069L86.2507 255.602C86.2507 255.602 81.2817 257.748 81.2817 262.916L93.5612 267.985L94.8213 257.069Z" fill="#E5906E"/>
<path d="M181.009 264.23C176.621 261.208 165.244 266.465 153.724 268.325C142.205 270.185 130.533 265.205 129.166 264.23C127.798 263.255 129.746 263.059 138.326 261.7C146.897 260.332 155.994 255.656 155.994 255.656L130.461 248.056C130.461 248.056 106.957 250.685 98.9673 251.373C90.9776 252.053 90.9776 252.053 90.9776 252.053C90.9776 252.053 86.4019 264.641 91.3709 270.676C91.3709 270.676 130.443 278.401 151.794 279.251C163.117 279.698 172.305 277.051 178.641 273.09C181.134 268.906 182.564 265.312 181.009 264.23Z" fill="#FFA440"/>
<path d="M202.136 239.276C203.164 224.068 195.237 208.6 177.113 199.177C158.988 189.753 140.087 184.299 140.087 184.299L102.086 172.408C102.086 172.408 96.7778 175.448 91.4424 181.17C94.7938 186.4 99.6734 192.444 105.786 195.582C117.967 201.85 134.242 199.186 134.242 199.186C134.242 199.186 180.384 223.88 186.452 233.626C192.511 243.371 188.257 260.725 188.257 260.725C188.257 260.725 201.109 254.485 202.136 239.276Z" fill="#FFA440"/>
<path d="M186.443 233.626C180.384 223.88 134.233 199.185 134.233 199.185C134.233 199.185 117.959 201.85 105.778 195.582C99.6647 192.435 94.7851 186.4 91.4338 181.17C85.5085 187.527 79.5565 197.21 80.8345 209.736C83.2743 233.536 130.453 248.056 130.453 248.056L155.986 255.656C155.986 255.656 146.888 260.332 138.317 261.7C129.747 263.068 127.79 263.256 129.157 264.23C130.524 265.205 142.196 270.185 153.716 268.325C165.236 266.465 176.612 261.208 181.001 264.23C182.565 265.303 181.126 268.906 178.632 273.081C184.245 269.577 187.614 265.044 188.24 260.716C188.248 260.725 192.502 243.371 186.443 233.626Z" fill="#FFD150"/>
<path d="M167.362 163.637C167.362 163.637 152.053 157.011 150.096 155.965C148.139 154.919 148.139 154.928 148.139 154.928L144.635 166.498L161.437 171.567L167.362 163.637Z" fill="#E5906E"/>
<path d="M182.18 163.118C182.18 163.118 173.341 162.975 169.445 161.58C165.548 160.194 164.637 159.908 163.859 160.704C163.081 161.491 159.417 172.864 159.489 174.813C159.569 176.762 175.558 179.229 175.558 179.229L182.18 163.118Z" fill="white"/>
<path d="M219.018 192.096L223.576 201.197L234.694 199.177L226.856 185.855L219.018 192.096Z" fill="#E5906E"/>
<path d="M212.513 167.535C212.513 167.535 221.262 173.061 225.007 177.799C228.751 182.547 229.386 185.336 229.788 186.508C230.181 187.679 218.554 196.307 216.74 196.736C214.917 197.165 208.241 187.464 208.241 187.464L212.513 167.535Z" fill="white"/>
<path d="M165.209 270.873C157.586 271.535 155.155 278.071 156.138 280.091C157.112 282.103 171.992 281.129 173.154 280.091C173.815 279.501 174.209 276.256 174.602 272.295C171.143 272.304 167.908 271.678 165.209 270.873Z" fill="#2B2B2B"/>
<path d="M178.766 246.823C173.851 245.955 169.534 243.935 166.156 241.843C165.271 252.527 165.208 270.865 165.208 270.865C167.916 271.669 171.143 272.295 174.592 272.286C174.896 269.246 175.191 265.786 175.62 262.791C176.022 259.921 177.354 253.421 178.766 246.823Z" fill="#FFCCB3"/>
<path d="M182.841 228.315L169.382 225.767C169.382 225.767 168.015 228.628 166.656 237.336C166.469 238.561 166.299 240.108 166.156 241.86C169.534 243.944 173.851 245.964 178.766 246.84C180.723 237.658 182.841 228.315 182.841 228.315Z" fill="#E5906E"/>
<path d="M211.744 269.926C210.859 263.265 209.661 254.985 209.009 248.772C208.812 246.921 208.642 245.124 208.491 243.407C202.646 244.82 197.668 244.847 194.343 244.587C195.103 249.38 195.925 254.082 196.533 256.559C197.909 262.138 200.715 268.889 201.341 270.373C204.603 270.811 208.258 270.856 211.744 269.926Z" fill="#FFCCB3"/>
<path d="M208.491 243.407C207.678 234.243 207.446 227.483 207.446 227.483L192.119 229.629C192.119 229.629 193.173 237.211 194.344 244.587C197.66 244.847 202.647 244.811 208.491 243.407Z" fill="#E5906E"/>
<path d="M201.341 270.373C201.421 270.561 201.466 270.668 201.466 270.668C201.466 270.668 194.843 272.286 193.539 276.184C192.243 280.083 195.228 281.379 196.783 281.907C198.338 282.425 212.11 282.827 212.762 281.263C213.066 280.53 212.521 275.872 211.725 269.926C208.258 270.856 204.603 270.811 201.341 270.373Z" fill="#2B2B2B"/>
<path d="M197.766 225.239C203.28 224.462 208.061 222.503 211.457 220.751C210.992 216.182 210.429 211.935 210.429 211.935L165.61 209.727C165.61 209.727 160.48 225.105 161.58 227.483C162.643 229.754 171.348 234.574 182.832 235.646L183.538 226.795C183.538 226.804 186.755 226.804 197.766 225.239Z" fill="#1239C6"/>
<path d="M197.766 225.24C186.755 226.795 183.538 226.795 183.538 226.795L182.832 235.647C183.324 235.691 183.815 235.736 184.316 235.763C196.524 236.541 210.689 232.777 211.797 231.731C212.378 231.185 211.976 225.767 211.457 220.742C208.061 222.504 203.28 224.462 197.766 225.24Z" fill="#1164F4"/>
<path d="M205.023 155.411C205.827 151.415 206.918 146.73 206.918 146.73L195.103 147.382C195.103 147.382 194.156 153.382 193.039 157.405C198.025 157.664 202.208 156.529 205.023 155.411Z" fill="#E5906E"/>
<path d="M205.068 162.126C204.549 161.58 204.219 161.08 204.201 160.695C204.165 159.962 204.541 157.807 205.023 155.411C202.208 156.529 198.025 157.664 193.039 157.405C192.61 158.943 192.154 160.195 191.725 160.695C191.439 161.026 190.974 161.321 190.411 161.572C197.033 166.167 202.128 164.272 205.068 162.126Z" fill="#FFCCB3"/>
<path d="M211.797 200.544C211.02 194.697 212.512 167.535 212.512 167.535C212.512 167.535 207.194 164.379 205.059 162.126C202.118 164.271 197.033 166.167 190.411 161.58C187.873 162.734 183.181 163.172 182.171 163.118C180.938 163.055 176.844 169.225 171.715 178.452C166.585 187.679 162.617 211.139 162.617 212.892C162.617 214.644 174.896 219.454 185.871 220.044C196.845 220.626 212.44 216.861 213.54 216.146C214.657 215.431 212.575 206.392 211.797 200.544Z" fill="#FF485E"/>
<path d="M234.694 201.644C235.248 201.054 235.99 200.572 236.937 200.285C238.242 199.892 239.583 199.901 240.789 200.214C240.825 199.043 240.673 197.871 240.396 196.736C237.384 195.511 234.086 194.823 230.628 194.823C228.492 194.823 226.409 195.091 224.425 195.574C229.859 197.228 233.094 199.937 234.694 201.644Z" fill="#FFD150"/>
<path d="M244.936 203.987C244.981 204.201 245.017 204.425 245.026 204.648C245.115 206.732 244.4 208.52 242.434 209.307C243.462 213.071 244.731 219.428 244.525 227.26C249.548 225.597 253.435 222.369 256.438 218.578C255.974 212.981 253.73 207.885 250.281 203.871C248.645 203.71 246.822 203.701 244.936 203.987Z" fill="#2EA1FF"/>
<path d="M242.434 209.307C241.335 209.745 239.86 209.87 237.912 209.548C236.196 209.262 234.98 208.395 234.256 207.286C230.396 210.058 224.962 215.011 220.771 222.897C223.675 225.749 228.009 227.832 234.408 228.369C238.207 228.691 241.567 228.253 244.534 227.269C244.731 219.428 243.462 213.071 242.434 209.307Z" fill="#FF485E"/>
<path d="M240.789 200.214C242.862 200.751 244.533 202.172 244.935 203.987C246.821 203.701 248.644 203.701 250.28 203.862C247.617 200.76 244.238 198.301 240.396 196.736C240.664 197.872 240.825 199.052 240.789 200.214Z" fill="#FF485E"/>
<path d="M244.525 227.26C244.391 232.374 243.622 238.114 241.746 244.167C250.495 240 256.536 231.086 256.536 220.751C256.536 220.018 256.501 219.293 256.438 218.578C253.444 222.369 249.548 225.597 244.525 227.26Z" fill="#1164F4"/>
<path d="M220.77 222.888C224.962 215.002 230.404 210.049 234.256 207.277C233.121 205.534 233.246 203.191 234.694 201.645C233.086 199.937 229.85 197.219 224.417 195.583C221.467 196.307 218.706 197.541 216.248 199.186C215.167 204.193 213.639 215.879 220.77 222.888Z" fill="white"/>
<path d="M234.408 228.36C228.018 227.823 223.675 225.749 220.77 222.888C218.134 227.85 215.989 233.966 215.051 241.458C219.385 244.73 224.783 246.671 230.628 246.671C234.605 246.671 238.376 245.768 241.746 244.167C243.622 238.114 244.391 232.374 244.525 227.26C241.567 228.244 238.207 228.682 234.408 228.36Z" fill="#C40A4D"/>
<path d="M216.256 199.177C209.303 203.826 204.719 211.748 204.719 220.742C204.719 229.209 208.776 236.72 215.05 241.449C215.988 233.957 218.133 227.841 220.77 222.879C213.638 215.879 215.166 204.193 216.256 199.177Z" fill="#B3D3E8"/>
<path d="M237.911 209.548C239.86 209.87 241.334 209.745 242.434 209.307C241.781 206.902 241.227 205.552 241.227 205.552C241.227 205.552 241.781 206.911 242.434 209.307C244.4 208.52 245.124 206.732 245.025 204.649C245.016 204.425 244.981 204.202 244.936 203.987C244.292 204.085 243.64 204.202 242.979 204.38C243.64 204.211 244.284 204.085 244.936 203.987C244.534 202.172 242.863 200.75 240.789 200.214C239.583 199.901 238.242 199.892 236.937 200.286C235.99 200.572 235.248 201.054 234.694 201.645C233.246 203.2 233.121 205.534 234.256 207.277C237.098 205.239 239.082 204.38 239.082 204.38C239.082 204.38 237.098 205.248 234.256 207.277C234.98 208.395 236.196 209.262 237.911 209.548Z" fill="#2B2B2B"/>
<path d="M256.527 220.107C256.527 220.107 259.995 216.951 259.968 213.232C259.932 209.513 256.983 206.66 253.605 206.169C250.227 205.677 245.973 208.422 246.455 209.727C246.947 211.041 252.237 210.192 252.237 210.192C252.237 210.192 247.492 211.748 247.751 213.438C248.01 215.127 253.185 214.35 253.185 214.35C253.185 214.35 248.886 215.977 249.503 217.667C250.119 219.356 256.366 217.872 256.366 217.872L256.527 220.107Z" fill="#FFCCB3"/>
<path d="M186.854 87.7917C194.066 89.258 203.155 85.646 203.155 85.646C203.155 85.646 198.222 91.2966 203.155 92.4679C208.088 93.6391 218.223 89.9376 218.223 89.9376C218.223 89.9376 216.668 99.2987 223.093 100.273C225.998 100.711 229.689 99.3255 232.87 97.6714C230.949 96.9472 229.206 96.8309 229.206 96.8309C229.206 96.8309 230.699 89.419 225.435 82.3915C220.171 75.373 213.227 83.1694 213.227 83.1694C213.227 83.1694 212.387 74.1391 202.136 71.0813C191.885 68.0236 190.411 81.7389 190.411 81.7389C190.411 81.7389 185.245 80.9073 181 83.2767C182.019 85.2705 183.779 87.1659 186.854 87.7917Z" fill="#C16240"/>
<path d="M237.786 110.77C237.786 110.77 238.626 108.526 237.786 102.938C237.339 100.005 235.007 98.4674 232.88 97.6717C229.698 99.3257 226.007 100.712 223.103 100.273C216.668 99.2989 218.232 89.9378 218.232 89.9378C218.232 89.9378 208.097 93.6394 203.164 92.4682C198.231 91.2969 203.164 85.6463 203.164 85.6463C203.164 85.6463 194.066 89.2494 186.863 87.792C183.789 87.1661 182.028 85.2618 181.009 83.2859C179.463 84.1442 178.042 85.4316 177.041 87.336C173.261 94.4887 179.651 100.354 179.651 100.354C174.262 108.043 178.891 123.019 178.891 123.019L232.334 135.947C232.334 135.947 233.55 135.733 236.749 129.707C239.958 123.681 238.832 118.03 238.832 118.03C238.832 118.03 244.873 118.397 244.677 111.897C244.471 105.406 237.786 110.77 237.786 110.77Z" fill="#893820"/>
<path d="M188.132 101.883C188.132 101.883 178.811 112.415 176.183 126.765C173.556 141.115 179.159 151.495 195.281 151.594C211.404 151.692 216.963 146.426 218.956 142.921C218.956 142.921 227.187 149.198 234.935 144.209C242.683 139.22 243.506 129.957 232.692 129.76C221.878 129.563 221.002 131.808 221.002 131.808C221.002 131.808 221.101 122.885 227.044 118.039C227.044 118.039 220.609 119.38 220.225 115.723C219.831 112.066 221.78 110.77 221.78 110.77C221.78 110.77 209.509 113.622 206.265 110.162C203.021 106.702 207.892 100.899 207.892 100.899C207.892 100.899 196.139 108.025 188.132 101.883Z" fill="#FFCCB3"/>
<path d="M200.984 123.403C201.341 124.557 203.37 121.865 206.31 122.706C209.259 123.546 210.743 126.381 211.261 125.629C212.36 122.366 200.689 118.2 200.984 123.403Z" fill="#2B2B2B"/>
<path d="M202.163 131.047C202.619 127.811 211.431 128.964 211.69 132.871C211.949 136.778 201.502 135.759 202.163 131.047Z" fill="#FF888E"/>
<path d="M211.297 117.288C212.396 115.866 208.08 112.415 207.32 112.987C206.56 113.559 205.988 114.632 206.408 115.312C206.837 116 210.457 118.361 211.297 117.288Z" fill="#893820"/>
<path d="M192.466 123.054C194.155 123.046 189.696 129.867 189.991 130.136C190.285 130.404 194.03 131.888 193.387 132.702C192.743 133.515 188.686 132.04 188.185 130.806C187.685 129.572 191.447 123.063 192.466 123.054Z" fill="#E5906E"/>
<path d="M192.7 141.812C192.941 140.453 195.292 143.931 197.204 142.206C199.117 140.48 198.357 138.352 199.474 138.549C200.591 138.737 200.091 141.946 198.455 143.565C196.829 145.183 192.414 143.431 192.7 141.812Z" fill="#E5906E"/>
<path d="M223.594 138.567C223.853 136.734 232.638 134.239 233.541 135.741C234.444 137.243 227.473 138.567 227.473 138.567C232.907 142.134 223.237 140.516 223.594 138.567Z" fill="#E5906E"/>
<path d="M189.455 119.532C188.981 120.319 188.436 117.002 186.541 116.197C184.647 115.392 183.136 117.029 183.002 116.126C183.968 112.022 191.144 116.671 189.455 119.532Z" fill="#2B2B2B"/>
<path d="M185.558 124.413C185.111 121.427 178.927 119.675 178.891 123.019C178.846 126.363 186.201 128.759 185.558 124.413Z" fill="#FF888E"/>
<path d="M188.624 109.786C188.311 108.016 192.761 107.122 193.128 107.989C193.485 108.847 193.53 110.063 192.976 110.457C192.404 110.832 188.865 111.127 188.624 109.786Z" fill="#893820"/>
<path d="M147.2 90.429C146.592 84.6443 148.201 77.8492 148.201 77.8492L136.431 68.9352C136.431 68.9352 135.796 79.7357 134.67 84.9483C137.209 87.7646 141.15 90.2412 147.2 90.429Z" fill="#E5906E"/>
<path d="M139.497 105.539C142.58 105.289 147.201 100.166 150.096 96.5625C148.738 95.0962 147.638 93.3885 147.335 91.502C147.281 91.1533 147.236 90.7957 147.192 90.4291C141.141 90.2413 137.2 87.7647 134.662 84.9484C134.421 86.0481 134.17 86.9064 133.884 87.3534C133.447 88.0597 130.721 89.8122 127.003 91.9759C130.721 97.7606 136.432 105.789 139.497 105.539Z" fill="#FFCCB3"/>
<path d="M137.647 141.607C128.754 141.607 116.439 134.946 106.331 128.267C108.449 138.29 109.79 149.287 107.404 155.474C102.274 168.831 96.1701 170.852 96.3577 172.998C96.5544 175.144 102.533 191.783 120.783 193.016C139.032 194.25 147.218 186.132 148.067 184.701C148.907 183.271 148.943 166.176 151.785 160.525C153.867 156.395 157.648 148.232 159.489 139.255C155.396 140.301 148.219 141.607 137.647 141.607Z" fill="#1164F4"/>
<path d="M127.61 115.669C135.502 119.183 141.15 111.181 141.15 111.181C141.15 111.181 143.393 119.469 148.657 117.806C152.277 116.671 154.323 106.719 155.253 100.622C153.769 99.7188 151.74 98.315 150.096 96.5447C147.2 100.148 142.58 105.271 139.497 105.521C136.431 105.772 130.712 97.7428 127.021 91.967C124.885 93.2098 122.427 94.5956 119.88 95.9904C120.613 103.098 122.543 113.416 127.61 115.669Z" fill="white"/>
<path d="M159.489 139.237C160.159 135.938 160.579 132.523 160.543 129.161C160.409 116.644 157.299 101.757 157.299 101.757C157.299 101.757 156.459 101.355 155.262 100.631C154.332 106.728 152.286 116.671 148.666 117.815C143.402 119.469 141.159 111.19 141.159 111.19C141.159 111.19 135.511 119.183 127.619 115.678C122.552 113.425 120.622 103.107 119.88 96.0083C110.684 101.06 100.379 106.371 100.379 106.371C100.379 106.371 103.883 116.662 106.331 128.267C116.439 134.946 128.754 141.607 137.647 141.607C148.219 141.607 155.396 140.301 159.489 139.237Z" fill="#2EA1FF"/>
<path d="M168.488 25.6979C168.488 25.6979 160.204 36.3196 149.336 34.6656C149.336 34.6656 140.667 54.55 138.621 53.5755C136.574 52.6009 139.202 47.4957 139.202 47.4957C139.202 47.4957 136.521 36.8114 128.191 38.4744C119.862 40.1284 122.829 48.3539 125.85 51.823C128.871 55.292 133.446 56.7315 133.446 56.7315C133.446 56.7315 129.067 62.561 132.356 68.9358C135.645 75.3106 145.19 85.9413 154.404 85.1634C163.609 84.3856 175.352 75.2659 180.911 64.5012C186.47 53.7364 187.149 50.6875 187.149 50.6875C187.149 50.6875 168.837 43.0968 168.488 25.6979Z" fill="#FFCCB3"/>
<path d="M157.424 53.477C156.441 54.1834 156.45 50.8127 153.59 49.704C150.731 48.5954 147.844 49.9633 147.871 49.0514C147.898 48.1394 151.606 46.9681 154.752 48.5954C157.916 50.2316 158.792 52.5025 157.424 53.477Z" fill="#2B2B2B"/>
<path d="M151.58 58.6178C153.162 55.7567 145.44 51.3758 142.875 54.3263C140.31 57.2857 149.274 62.7753 151.58 58.6178Z" fill="#FF888E"/>
<path d="M152.965 40.4858C152.938 38.6887 158.47 38.5367 158.729 39.4487C158.988 40.3606 158.801 41.5587 158.05 41.8537C157.299 42.1487 152.983 41.8448 152.965 40.4858Z" fill="#2B2B2B"/>
<path d="M165.352 57.1248C164.011 56.1056 162.688 66.5126 162.295 66.5484C161.902 66.5842 158.014 65.5113 158.041 66.5484C158.068 67.5855 162.197 68.8552 163.332 68.1757C164.476 67.4872 166.165 57.7417 165.352 57.1248Z" fill="#E5906E"/>
<path d="M150.15 72.0022C150.776 70.7773 146.808 72.1362 146.316 69.597C145.825 67.0668 147.71 65.8241 146.709 65.3055C145.699 64.7869 144.18 67.6479 144.502 69.9189C144.824 72.1988 149.408 73.4685 150.15 72.0022Z" fill="#E5906E"/>
<path d="M135.6 51.4651C136.494 49.8468 130.988 42.5601 129.362 43.2127C127.735 43.8654 132.499 49.1226 132.499 49.1226C132.499 49.1226 129.523 48.6041 130.336 50.0346C131.149 51.4652 135.117 52.3413 135.6 51.4651Z" fill="#E5906E"/>
<path d="M170.169 58.2601C170.071 59.181 172.51 56.8564 174.503 57.3571C176.505 57.8578 176.729 60.0751 177.372 59.4313C178.016 58.7876 177.31 56.3467 174.816 56.0785C172.323 55.8013 170.303 56.9816 170.169 58.2601Z" fill="#2B2B2B"/>
<path d="M169.257 63.4191C171.411 61.3091 177.408 63.6337 175.424 66.3249C173.44 69.0161 166.129 66.4858 169.257 63.4191Z" fill="#FF888E"/>
<path d="M177.926 49.0244C179.24 47.7995 177.032 45.2513 176.264 45.761C175.495 46.2706 174.7 47.1826 174.807 47.7191C174.905 48.2466 176.925 49.9542 177.926 49.0244Z" fill="#2B2B2B"/>
<path d="M173.725 172.265C176.943 171.621 183.708 166.516 188.132 165.827C192.556 165.148 194.012 165.291 194.012 165.827C194.012 166.364 192.305 168.34 189.338 168.814C186.362 169.288 184.566 171.576 184.566 171.576C184.566 171.576 195.675 170.208 197.766 169.332C199.857 168.456 206.515 163.923 206.918 165.827C207.32 167.732 201.421 171.916 199.571 172.265C197.721 172.605 192.69 174.116 192.69 174.116C192.69 174.116 197.712 174.017 200.081 173.534C202.449 173.043 207.48 168.903 208.178 170.414C208.875 171.925 203.307 176.36 200.974 177.433C198.642 178.506 193.449 179.48 193.449 179.48C193.449 179.48 201.484 179.578 202.127 178.801C202.78 178.023 205.175 175.975 206.265 176.95C207.355 177.924 204.478 182.064 199.169 183.092C193.86 184.112 175.835 182.6 169.454 181.438C163.072 180.267 139.881 179.051 128.629 171.693C117.378 164.334 105.295 153.167 98.8154 139.327C92.336 125.486 96.1343 108.472 100.37 106.38C104.607 104.288 108.021 107.748 110.112 111.351C112.203 114.954 128.281 144.593 133.688 152.291C139.095 159.989 146.11 161.402 152.107 164.424C158.112 167.437 172.349 172.542 173.725 172.265Z" fill="#FFCCB3"/>
</svg>
