<svg width="90" height="39" viewBox="0 0 90 39" fill="none" xmlns="http://www.w3.org/2000/svg">
<path d="M79.782 32.6179C79.9949 32.4874 80.2284 32.3638 80.462 32.2195C80.7023 32.0753 80.9496 31.9242 81.1968 31.7731C81.4441 31.6151 81.6914 31.4572 81.9318 31.3061C82.1722 31.155 82.3988 30.9901 82.6117 30.8527C83.4634 30.2826 84.061 29.8637 83.9236 30.1521L84.3288 29.9942C84.164 30.1384 83.9374 30.3376 83.6558 30.5573C83.5184 30.6672 83.3673 30.784 83.2093 30.9076C83.0513 31.0313 82.8796 31.1481 82.7079 31.2717C82.0142 31.7799 81.2037 32.2607 80.5306 32.6316C80.1872 32.8033 79.8782 32.9544 79.6309 33.0712C79.3768 33.1742 79.1913 33.2429 79.0883 33.2566C78.9921 33.2704 78.9784 33.2429 79.0883 33.1399C79.1982 33.03 79.4248 32.8789 79.782 32.6179Z" fill="#4CA4DB"/>
<path d="M78.5251 29.3554L77.9756 29.589C78.2435 29.4722 78.5869 29.3211 78.896 29.1425C79.0539 29.0532 79.212 28.9639 79.3562 28.8815C79.5004 28.7922 79.6309 28.7029 79.7476 28.6274C79.8575 28.7029 79.0196 29.4379 77.9344 29.9255C78.1267 29.7263 79.1226 29.1631 78.5251 29.3554Z" fill="#4CA4DB"/>
<path d="M78.8548 7.13628C78.7312 7.23243 78.7792 7.33551 78.9578 7.4454C79.0471 7.50035 79.1707 7.55529 79.315 7.61024C79.4592 7.67205 79.6378 7.73381 79.8301 7.80249C80.5994 8.09096 81.7052 8.50997 82.708 9.21741C82.5294 9.23802 82.3439 9.27924 82.1722 9.31358C82.0005 9.35479 81.8219 9.40283 81.6571 9.45091C81.2862 9.24486 80.771 9.05944 80.1598 8.95641C79.5554 8.84652 78.8479 8.83962 78.1336 8.92891C77.9551 8.94952 77.7765 8.98386 77.591 9.0182C77.4124 9.05941 77.227 9.0938 77.0553 9.14875C76.6982 9.2449 76.3479 9.37534 76.0113 9.51958C75.6748 9.67068 75.3588 9.84247 75.0566 10.0279C74.9811 10.076 74.9123 10.124 74.8368 10.1721C74.7681 10.2202 74.6926 10.2683 74.6239 10.3232C74.5552 10.3782 74.4865 10.4262 74.4247 10.4743C74.3972 10.488 74.3423 10.5499 74.2874 10.598L74.1294 10.7422C73.9783 10.907 73.9165 10.9757 73.9165 11.01C73.9165 11.0238 73.9302 11.01 73.9577 10.9963C73.9852 10.9826 74.0263 10.9551 74.0744 10.9208C74.1706 10.8521 74.308 10.7422 74.4522 10.6255C74.4728 10.6049 74.4796 10.6048 74.4934 10.598L74.5964 10.5362C74.6445 10.5087 74.6926 10.4812 74.7338 10.4538C74.9124 10.3576 75.0566 10.2958 75.0291 10.3507C75.0154 10.3782 74.9536 10.4331 74.8437 10.5293C74.7887 10.5774 74.7201 10.6392 74.6377 10.7148C74.6239 10.7216 74.617 10.7353 74.6033 10.7422C74.5964 10.749 74.5964 10.7491 74.5827 10.7559L74.5484 10.7903C74.5072 10.8315 74.459 10.8795 74.4178 10.9208C74.3285 11.01 74.2255 11.1131 74.1157 11.2161C74.1019 11.223 74.0881 11.2367 74.0744 11.2435C74.0607 11.2504 74.0538 11.2642 74.0401 11.2779C74.0195 11.2985 73.9988 11.3122 73.9782 11.326C73.9439 11.3534 73.9096 11.3741 73.8889 11.381C73.834 11.4016 73.7997 11.4015 73.7516 11.4153C73.7035 11.429 73.6486 11.4565 73.5662 11.5252C73.4769 11.5733 73.3738 11.7793 73.209 12.0609C73.154 12.1846 73.0991 12.3013 73.0442 12.4181C72.9892 12.5486 72.9343 12.679 72.8793 12.8027C72.7694 13.0637 72.6733 13.3041 72.5771 13.5308C72.378 14.039 72.1994 14.4923 72.0414 14.9319C71.8766 15.3783 71.7323 15.7905 71.5881 16.1957C71.4507 16.5941 71.3271 16.9649 71.2035 17.3358C71.1691 17.2946 71.1348 17.2397 71.1073 17.2053C71.0867 17.1985 71.0592 17.1847 71.0386 17.1641C71.0112 17.1503 70.9906 17.1298 70.9631 17.1023C70.9494 17.0885 70.9356 17.0749 70.9219 17.0611L70.9012 17.0336C70.9012 17.0336 70.9012 17.0267 70.8943 17.0267L70.8875 17.013L70.8738 16.9787C70.8189 16.8001 70.757 16.5872 70.6883 16.3262C70.654 16.1888 70.6128 16.0377 70.5716 15.8797C70.5303 15.708 70.4823 15.5295 70.4411 15.3371C70.3449 14.9457 70.235 14.4648 70.1113 13.9222C69.9877 13.3865 69.8504 12.7821 69.6993 12.1021C69.6787 12.0197 69.6581 11.9373 69.6443 11.848C69.6237 11.7724 69.5963 11.6969 69.5688 11.6213C69.5207 11.4702 69.4658 11.3123 69.4177 11.1475C69.3902 11.065 69.3628 10.9825 69.3353 10.9001C69.3078 10.8177 69.2666 10.7491 69.2391 10.6735C69.1704 10.5224 69.1017 10.3645 69.0331 10.1996C68.9987 10.1172 68.9643 10.0347 68.9231 9.95229L68.8957 9.8905L68.8545 9.81496L68.8202 9.74629C68.779 9.67074 68.7377 9.58833 68.6965 9.50591C68.6003 9.34794 68.511 9.16936 68.3943 8.99079C68.1676 8.44819 67.8929 7.91929 67.5701 7.41103C66.272 5.9412 64.5754 4.7942 62.7279 4.16231C61.8006 3.85323 60.846 3.6609 59.8844 3.62655C59.4036 3.60595 58.9228 3.61973 58.442 3.6678C57.9612 3.71588 57.4873 3.79829 57.0134 3.90818C55.1315 4.36149 53.3732 5.31621 51.9446 6.58686C51.5874 6.9028 51.2509 7.23933 50.9349 7.59649C50.8525 7.68578 50.7838 7.77508 50.7082 7.86436L50.6258 7.96741L50.6121 7.98107C50.6053 7.98794 50.6052 7.98797 50.5915 8.00857L50.1657 8.57183L50.0626 8.71603L49.9665 8.88087L49.575 9.53333C49.0942 10.5086 48.6271 11.7793 48.1326 13.0225C47.8922 13.6338 47.6587 14.245 47.4183 14.8494C47.3084 15.131 47.2054 15.4058 47.0955 15.6874L46.9444 16.0858L46.9032 16.1888L46.8826 16.2369L46.8619 16.2781L46.7933 16.4292C46.601 15.5157 46.4087 14.6022 46.2164 13.6887C46.0034 12.6997 45.7905 11.7175 45.5844 10.8108L45.3578 9.84246L45.3234 9.6845C45.3097 9.63642 45.296 9.59517 45.2754 9.55396L45.0899 9.03883L44.9938 8.7847C44.9594 8.70228 44.9319 8.61301 44.8907 8.54433L44.6641 8.11162L44.5473 7.89178L44.4649 7.72695L44.4237 7.65141C44.3413 7.52091 44.2589 7.38357 44.1765 7.25307C43.888 6.99894 43.5171 6.59373 43.0363 6.16102C42.5555 5.72145 41.9579 5.24749 41.2917 4.82852C40.6255 4.40268 39.8768 4.04552 39.1419 3.79139C38.407 3.53726 37.679 3.39989 37.054 3.36555L37.0196 3.17322C36.9235 3.18009 36.8341 3.18697 36.7311 3.18697C36.635 3.18697 36.532 3.20072 36.4289 3.20072C36.2229 3.20072 36.0031 3.21447 35.7764 3.21447C35.3231 3.23507 34.8423 3.2557 34.3547 3.32439C33.3794 3.45489 32.356 3.77771 31.6005 4.2791C31.1128 4.50575 30.6321 4.78733 30.1788 5.11014C30.007 5.15822 30.1375 4.97966 30.426 4.69118C30.7145 4.40958 31.1747 4.05931 31.6348 3.76397C32.095 3.46176 32.5689 3.24198 32.8162 3.07714C33.0703 2.9329 33.1046 2.8367 32.6994 2.86418C31.8065 3.14578 31.0304 3.57852 30.3916 4.10051C29.746 4.61564 29.2171 5.20632 28.757 5.81761C28.3036 6.42889 27.919 7.06759 27.5687 7.73382C27.2185 8.40005 26.9025 9.0938 26.5934 9.83558C26.3461 10.5842 26.2569 11.1406 26.2088 11.5733C26.1951 11.7931 26.1744 11.9785 26.1813 12.1433C26.1813 12.3082 26.1882 12.4524 26.1951 12.5898C26.2294 12.8577 26.25 13.0912 26.305 13.3659C26.3187 13.4346 26.3255 13.5101 26.3393 13.5857C26.353 13.6612 26.3737 13.7436 26.3874 13.8261C26.4011 13.9153 26.4217 14.0047 26.4423 14.1008C26.4629 14.197 26.4904 14.3 26.5179 14.4167C26.6484 14.6365 26.669 14.4717 26.6896 14.2863C26.6964 14.1901 26.7102 14.094 26.7308 14.0253C26.7583 13.9566 26.7926 13.9223 26.8544 13.9635C26.9368 14.4923 27.0604 14.9662 27.1841 15.3852L23.7911 16.3262C23.6469 15.7011 23.4683 15.1517 23.2898 14.6572C23.1112 14.1558 22.9052 13.723 22.7128 13.3109C22.3145 12.5005 21.9161 11.8205 21.449 11.1749C20.982 10.5293 20.4394 9.91111 19.6839 9.29295C19.3061 8.97701 18.8665 8.68171 18.3582 8.38637C17.85 8.09103 17.2593 7.81626 16.5725 7.58274C16.5038 7.59648 16.1466 7.53464 15.7208 7.47282C15.5079 7.44535 15.2744 7.41789 15.0546 7.40415C14.9447 7.39729 14.8348 7.3904 14.7318 7.3904C14.6288 7.3904 14.5326 7.39041 14.4433 7.39728C14.354 7.40415 14.2785 7.40416 14.2167 7.41103C14.1549 7.4179 14.0999 7.43167 14.0655 7.4454C13.9968 7.47288 13.99 7.50716 14.0655 7.55524C14.1479 7.59645 14.3197 7.66515 14.6013 7.74757C14.7455 7.78878 14.9103 7.85058 15.1095 7.90553C15.2125 7.933 15.3155 7.97423 15.4323 8.00857C15.5491 8.04978 15.6727 8.08416 15.7964 8.13224C16.4832 8.27648 17.17 8.48246 17.8362 8.75033C18.2415 9.03193 18.6193 9.34106 18.9833 9.66387C18.6399 9.44409 18.2209 9.18307 17.7676 8.95641C17.3143 8.72976 16.8404 8.52373 16.4076 8.38637C15.9818 8.23526 15.5972 8.15283 15.3499 8.11162C15.0958 8.07041 14.9722 8.09097 15.0408 8.15966C14.5738 7.86432 13.626 7.64455 12.5683 7.66516C12.0394 7.67202 11.4967 7.7476 10.9747 7.86436C10.4528 7.97426 9.95823 8.15279 9.51866 8.33137C8.63951 8.69539 8.01447 9.10748 7.78782 9.18304C7.67792 9.23112 7.66419 9.18994 7.78782 9.0457C7.84963 8.97702 7.94583 8.88083 8.08319 8.75033C8.15188 8.68164 8.23428 8.61988 8.32357 8.54433C8.41286 8.46877 8.51593 8.3795 8.6327 8.29708C8.79754 8.24213 8.95547 8.18719 9.10657 8.13912C9.25768 8.09791 9.40192 8.04978 9.53928 8.00857C9.82089 7.93989 10.075 7.8712 10.3154 7.82999C10.7893 7.72696 11.1945 7.67893 11.5723 7.61711C12.3278 7.52096 12.9666 7.43161 13.8938 7.3904C13.1039 7.28738 12.321 7.2668 11.5518 7.33549C10.7894 7.40417 10.0407 7.55529 9.31953 7.78195C7.87718 8.23526 6.55841 8.98389 5.41826 9.91112C3.14484 11.7793 1.58569 14.3618 1.09804 17.0267C1.11177 17.5693 1.14617 18.0982 1.23545 18.6134C1.15303 18.6408 1.07743 18.8194 1.01562 19.1147C1.00188 19.1903 0.981321 19.2727 0.974453 19.362C0.967584 19.4513 0.953821 19.5474 0.946953 19.6504C0.926347 19.8565 0.926334 20.0831 0.933202 20.3373C0.953807 20.8386 1.0088 21.4156 1.15304 22.0269C1.29727 22.6313 1.51013 23.2701 1.778 23.8745C2.05273 24.3759 2.39619 24.9323 2.67779 25.31C2.95253 25.6878 3.15171 25.8869 3.1105 25.7015C3.22727 25.777 2.91821 25.3374 2.53358 24.6437C2.14209 23.95 1.72998 22.9816 1.49646 22.1025C1.25606 21.2233 1.20113 20.4403 1.2492 20.1793C1.26981 20.0419 1.31098 20.0351 1.37966 20.193C1.414 20.2755 1.44839 20.3922 1.51021 20.5571C1.53768 20.6395 1.57195 20.7357 1.60629 20.8387C1.64063 20.9417 1.68875 21.0585 1.72996 21.189C2.01156 22.5833 2.58853 23.9569 3.39213 25.1795C4.18886 26.4089 5.20537 27.4941 6.30431 28.3595C7.40325 29.2318 8.59836 29.8843 9.75224 30.3308C10.3292 30.5505 10.8992 30.7154 11.4487 30.8459C11.9982 30.9764 12.5202 31.0451 13.0147 31.1069C12.2935 31.1344 11.6272 31.0795 10.9816 30.9764C10.3429 30.8734 9.73161 30.7223 9.12032 30.53C8.51591 30.3377 7.91146 30.1041 7.28644 29.8294C6.66142 29.5546 6.00893 29.225 5.3221 28.8266C4.22316 28.0505 3.23412 27.082 2.40992 25.9762C1.58571 24.8704 0.933213 23.6204 0.514242 22.2811C0.095272 20.9417 -0.0695419 19.5268 0.0266152 18.1119C0.122772 16.7039 0.486782 15.3096 1.04312 14.0115C2.16953 11.4084 4.09268 9.17622 6.45539 7.68578C7.63675 6.93713 8.93483 6.39454 10.2742 6.06486C11.6204 5.74891 13.0078 5.66648 14.3678 5.79698C14.4639 5.8588 14.7043 5.95494 14.9996 6.04423C15.2949 6.14726 15.6452 6.26402 15.9474 6.38765C16.5587 6.63491 16.9846 6.87533 16.5587 6.84099C16.9983 7.06764 17.8431 7.39041 18.6124 7.82311C19.3816 8.24895 20.0547 8.77095 20.247 9.1075C21.3803 9.88362 22.4243 10.8864 23.2691 12.054C24.1208 13.2217 24.7665 14.5747 25.1099 16.0102L25.9134 15.7904C25.4807 14.4785 25.3571 13.0568 25.5151 11.6831C25.6662 10.3026 26.092 8.97016 26.7033 7.7682C27.3146 6.56623 28.1251 5.49479 29.0455 4.60877C29.9589 3.71588 31.0098 3.04279 32.0676 2.56201C31.5593 2.6513 31.5318 2.56884 31.8271 2.35592C32.1224 2.15674 32.7406 1.84075 33.5373 1.62096C34.3272 1.40117 35.2819 1.27755 36.1611 1.28442C37.0402 1.27755 37.8438 1.39431 38.3727 1.45613C39.3136 1.78581 40.5568 2.27353 41.7588 2.98784C42.9676 3.68842 44.094 4.64994 44.8976 5.59777C44.9594 5.63211 45.0694 5.73514 45.1999 5.85877C45.3235 5.98927 45.4608 6.14724 45.5913 6.28461C45.8317 6.57308 46.0377 6.79292 45.9965 6.59373C45.4471 5.82448 45.0418 5.33679 44.6229 4.84227C44.1902 4.36148 43.7438 3.87381 42.9745 3.27626C43.4141 3.34494 44.2795 3.9906 45.1106 5.02085C45.3166 5.28185 45.5295 5.55656 45.7219 5.85877C45.7699 5.93432 45.818 6.00985 45.8729 6.0854C45.921 6.16095 45.9691 6.24343 46.0103 6.31898C46.0584 6.39454 46.1065 6.47693 46.1546 6.55248C46.1889 6.6143 46.2232 6.67613 46.2507 6.73794C46.5254 7.25994 46.7864 7.85746 46.9787 8.42753C46.8963 8.29017 46.8001 8.14592 46.6971 7.98795C46.5872 7.83684 46.4773 7.66516 46.3399 7.49345C46.7589 8.29018 47.068 9.22432 47.2535 10.2889L47.274 10.385L47.2809 10.4125C47.2809 10.4125 47.2809 10.4262 47.2809 10.4194L47.2878 10.4125L47.3015 10.3713L47.3633 10.2202C47.4114 10.1171 47.4458 10.0142 47.5007 9.918L47.6518 9.62262C47.7068 9.52647 47.7617 9.42348 47.8167 9.32045C48.0502 8.91522 48.3181 8.48933 48.6203 8.06349C48.7645 7.8437 48.9362 7.64457 49.101 7.43165C49.2728 7.23247 49.4513 7.0127 49.6162 6.84786C49.9527 6.49071 50.3099 6.15409 50.6739 5.83815C51.402 5.20626 52.1781 4.66365 52.9542 4.1966C53.7303 3.72955 54.5064 3.33126 55.2619 2.98784C54.1149 3.25571 52.9816 3.68841 51.9102 4.27222C52.9748 3.48236 54.2454 2.83671 55.6122 2.43834C56.9722 2.03311 58.4214 1.8751 59.8088 1.97125C61.1962 2.06054 62.5081 2.39711 63.662 2.84355C64.8159 3.28999 65.8255 3.82574 66.6909 4.31339C66.5192 4.16915 66.3269 4.03867 66.1346 3.89443C65.9354 3.76393 65.7294 3.61973 65.5164 3.4961C65.0837 3.2351 64.6167 2.99468 64.129 2.78176C63.1606 2.35592 62.1166 2.06056 61.1619 1.90259C60.2072 1.74462 59.3624 1.71032 58.758 1.68971C58.4558 1.67598 58.2154 1.66906 58.0505 1.64159C57.8857 1.62098 57.7964 1.57294 57.8033 1.51113C57.8239 1.47679 57.9132 1.43554 58.0505 1.38746C58.1879 1.34625 58.3802 1.31189 58.6137 1.27754C59.0808 1.2226 59.7127 1.19518 60.3996 1.25013C61.0864 1.30507 61.8213 1.4424 62.4944 1.63471C63.1675 1.82703 63.7788 2.08114 64.2321 2.3078C65.3997 2.89161 66.4436 3.58539 67.3709 4.36152C67.8379 4.74614 68.2775 5.1513 68.6828 5.57027C69.088 5.98924 69.4795 6.42884 69.8298 6.88215C70.1801 7.33546 70.5097 7.80941 70.8051 8.2902C70.8737 8.40696 70.9425 8.53061 71.0111 8.64737C71.0524 8.71605 71.0936 8.79844 71.1348 8.86712C71.2172 9.01822 71.2928 9.16248 71.3614 9.31358C71.4988 9.60892 71.6087 9.89052 71.7049 10.1721C71.7461 10.3095 71.7873 10.4468 71.8216 10.5842L71.8353 10.6323L71.8422 10.6598V10.6735L71.8491 10.6598L71.8903 10.543C71.9178 10.4675 71.9453 10.385 71.9796 10.3095C72.1651 9.89049 72.3986 9.53337 72.6802 9.23116L72.79 9.12125C72.8244 9.0869 72.8587 9.05254 72.9068 9.01133L73.0373 8.90149L73.0716 8.87399C73.0785 8.86713 73.106 8.84648 73.1266 8.83274L73.2502 8.74354L73.4906 8.56495L73.7447 8.40012C73.9096 8.29022 74.0882 8.19402 74.2599 8.09787C74.9604 7.71324 75.7091 7.4522 76.4783 7.28736C77.2751 7.13626 78.065 7.07446 78.8548 7.13628Z" fill="#4CA4DB"/>
<path d="M71.9383 8.68165C71.8971 8.57176 71.849 8.47566 71.8009 8.39324C71.7872 8.37263 71.7734 8.35196 71.7666 8.33136L71.7459 8.30394L71.7392 8.29019L71.7323 8.28332C71.6911 8.20777 71.6498 8.13904 71.6086 8.06348C71.5674 7.98793 71.5262 7.91929 71.4782 7.85061C71.1347 7.30801 70.8187 6.90967 70.5509 6.59373C70.0014 5.96871 69.6168 5.68705 69.2527 5.41918C68.875 5.15818 68.5178 4.89724 67.8997 4.4508C67.7486 4.34091 67.5769 4.21725 67.3846 4.07988C67.1854 3.94938 66.9794 3.79139 66.7321 3.63342C66.2444 3.31061 65.64 2.93287 64.857 2.54138C65.0837 2.57572 65.0768 2.49326 64.8845 2.33529C64.7883 2.25287 64.6578 2.15669 64.4793 2.05366C64.39 1.99872 64.2938 1.94377 64.1908 1.88196C64.0877 1.82701 63.971 1.77206 63.8473 1.71025C63.3665 1.47672 62.7622 1.23637 62.1166 1.06466C61.4778 0.886083 60.7978 0.776189 60.1796 0.721242C58.9846 0.714374 57.6933 0.817413 56.4638 1.07841C55.8526 1.20891 55.255 1.37372 54.6987 1.55916C54.1424 1.75148 53.6273 1.9713 53.1671 2.19796C52.5283 2.48643 52.2192 2.56198 52.3634 2.36967C52.4321 2.27351 52.6244 2.12238 52.961 1.90946C53.2975 1.71027 53.7784 1.44926 54.4446 1.20887C55.2894 0.975345 56.1685 0.783088 57.0751 0.666326C57.9886 0.549563 58.9297 0.49458 59.8844 0.542658C60.8391 0.590737 61.8074 0.728107 62.7415 0.975368C63.6825 1.22263 64.5961 1.55228 65.4683 1.97812C66.3406 2.40396 67.1648 2.9054 67.9203 3.48234C68.6758 4.05928 69.3695 4.70486 69.9808 5.40543C70.5921 6.106 71.1141 6.85465 71.54 7.63077C71.6498 7.82309 71.746 8.02234 71.8421 8.21465C71.8353 8.21465 71.8421 8.22146 71.8421 8.23519L71.8627 8.33823C71.904 8.44126 71.9246 8.55115 71.9383 8.68165Z" fill="#4CA4DB"/>
<path d="M52.6726 2.98781C52.1712 3.27628 51.5187 3.68838 50.8525 4.18977C50.1862 4.69116 49.5062 5.28181 48.9224 5.87936C48.7851 6.0236 48.6477 6.16783 48.5172 6.3052C48.4485 6.37388 48.3798 6.4426 48.3111 6.51128C48.1875 6.62804 48.0914 6.72413 48.009 6.78595C47.851 6.91645 47.7754 6.91645 47.7548 6.78595C47.6999 6.84089 47.748 6.38074 47.6038 6.81345C47.6587 6.74476 47.7548 6.5868 47.9059 6.39449C47.9883 6.29833 48.0639 6.20219 48.1944 6.07169C48.3387 5.91372 48.4829 5.75571 48.634 5.59773C48.8057 5.42602 48.9774 5.24745 49.156 5.08948C49.8634 4.43012 50.6121 3.89437 51.2577 3.53035C51.9033 3.18006 52.4253 2.98781 52.6726 2.98781Z" fill="#4CA4DB"/>
<path d="M50.667 5.25449C50.9211 5.22015 50.5777 5.52922 50.145 5.93445C50.0351 6.03748 49.9184 6.14048 49.8085 6.25725C49.6986 6.36714 49.5818 6.4771 49.4857 6.587C49.3826 6.69689 49.2865 6.79987 49.2109 6.88229C49.1354 6.97158 49.0736 7.04031 49.0323 7.10213C48.8881 7.24636 48.7645 7.39747 48.6409 7.53484C48.5241 7.67907 48.4005 7.81643 48.2975 7.9538C48.4348 7.70653 48.5859 7.45235 48.7507 7.21196C48.9156 6.9647 49.0804 6.75182 49.314 6.47708C49.7467 5.96882 50.2412 5.53609 50.667 5.25449Z" fill="#4CA4DB"/>
<path d="M39.5197 0.817379C38.7023 0.542644 38.5031 0.487691 38.6199 0.467086C38.7366 0.446481 39.1693 0.515124 39.5746 0.597544C39.7806 0.645623 39.973 0.68687 40.1241 0.721212C40.2752 0.755554 40.3782 0.78299 40.3988 0.769253C40.4332 0.755517 40.1446 0.583841 39.1281 0.288501C39.9111 0.487684 40.6804 0.755574 41.4153 1.08526C41.6214 1.34625 41.8205 1.60039 41.9991 1.86826C41.2093 1.43555 40.3782 1.08525 39.5197 0.817379Z" fill="#4CA4DB"/>
<path d="M34.2447 0C34.1211 0.0343418 33.9975 0.0618253 33.867 0.0961672C33.7434 0.130509 33.6129 0.171743 33.4824 0.206084C33.2214 0.274768 32.9535 0.364047 32.6582 0.453336C32.0744 0.64565 31.4013 0.879211 30.5839 1.26384C30.7144 1.16081 30.8518 1.06462 30.9891 0.968463C31.1265 0.872306 31.2639 0.776125 31.415 0.686836C31.5661 0.604416 31.7309 0.535776 31.9163 0.473961C32.1018 0.419014 32.3079 0.364074 32.5345 0.309127C32.9878 0.21297 33.5373 0.103025 34.2447 0Z" fill="#4CA4DB"/>
<path d="M38.6474 1.18828C38.4551 1.15394 38.2834 1.12646 38.1391 1.09899C37.9949 1.07151 37.8712 1.05771 37.7682 1.03024C37.5553 0.982158 37.4111 0.947863 37.2806 0.906653C37.1501 0.865442 37.0401 0.81732 36.8959 0.77611C36.7517 0.7349 36.58 0.693737 36.319 0.652526C36.3945 0.63879 36.5182 0.638783 36.6624 0.645651C36.8135 0.65252 36.9921 0.66622 37.1775 0.693693C37.3699 0.721166 37.569 0.748663 37.7613 0.80361C37.9605 0.851689 38.1529 0.892879 38.3246 0.954694C38.6749 1.05772 38.9427 1.1745 39.032 1.22945C39.1281 1.28439 39.032 1.27757 38.6474 1.18828Z" fill="#4CA4DB"/>
<path d="M28.1182 8.88083C28.2075 8.27642 28.6058 7.43845 29.2583 6.62111C29.5811 6.20901 29.9657 5.80378 30.3847 5.42602C30.8037 5.04826 31.2638 4.69796 31.7378 4.38202C31.621 4.46444 31.5042 4.53319 31.4012 4.62248C31.2982 4.7049 31.1952 4.78044 31.0991 4.86286C30.9136 5.0277 30.735 5.17877 30.577 5.34361C30.4122 5.50158 30.2679 5.66646 30.1237 5.81757C30.055 5.89999 29.9864 5.9824 29.9177 6.06482C29.849 6.14724 29.7803 6.22278 29.7185 6.31207C29.2034 6.9783 28.6883 7.71321 28.1182 8.88083Z" fill="#4CA4DB"/>
<path d="M57.2263 37.6593C55.9213 37.6662 54.4103 37.8928 53.5243 38.0645L54.2111 38.1263C55.2139 37.9752 56.2167 37.8173 57.2263 37.6593Z" fill="#4CA4DB"/>
<path d="M76.2036 34.7265C76.8355 34.28 76.5538 34.3281 75.7915 34.5617C75.0222 34.7883 73.7516 35.1523 72.3917 35.3172C68.8888 36.0727 65.2554 36.7801 61.8281 37.1029L59.7676 37.5356C60.7979 37.4669 62.0135 37.3845 63.346 37.2746C64.6853 37.1647 66.1414 37.0273 67.6387 36.8213C69.136 36.6221 70.6608 36.3543 72.1238 36.004C73.5936 35.6537 74.9879 35.2141 76.2036 34.7265Z" fill="#4CA4DB"/>
<path d="M23.5438 37.6388C25.7555 38.0303 28.3998 38.4493 31.1059 38.6691C33.8189 38.8957 36.5869 38.9301 39.0183 38.676C37.8919 38.621 37.3218 38.5729 36.5869 38.4974C35.8588 38.4287 34.9659 38.36 33.2145 38.2226C34.5401 38.0303 35.8863 38.0921 37.3012 38.202C38.7161 38.2982 40.1928 38.4562 41.7725 38.415C40.4881 38.3806 40.6873 38.2913 41.484 38.202C42.2807 38.1127 43.6613 38.0097 44.7534 37.941C46.8207 37.9273 49.4925 37.7899 52.3429 37.5633C55.1932 37.3435 58.2154 37.0344 61.0039 36.7459C62.1922 36.5261 64.7747 36.3132 66.9245 36.011C69.0743 35.7157 70.7707 35.3105 70.1457 35.1662C71.849 34.816 72.8312 34.6511 73.7172 34.5206C73.937 34.4862 74.15 34.4519 74.3697 34.4175C74.5895 34.3832 74.8093 34.3489 75.0428 34.2939C75.2764 34.2459 75.5236 34.1909 75.7846 34.1222C76.0525 34.0467 76.3341 33.9643 76.65 33.8612C77.5498 33.4285 78.4152 32.9958 79.2531 32.5494C79.4661 32.4395 79.6653 32.3227 79.8713 32.2059L80.1804 32.0342L80.4826 31.8556C80.6818 31.7389 80.8878 31.6221 81.087 31.5053C81.2862 31.3817 81.4785 31.2581 81.6777 31.1345C81.8769 31.0178 82.0692 30.8872 82.2615 30.7567C82.4538 30.6262 82.6461 30.5026 82.8384 30.3721C83.2162 30.0974 83.5939 29.8364 83.958 29.5479C84.1365 29.4036 84.3289 29.2663 84.5006 29.1152L85.0295 28.6619C85.208 28.5108 85.3729 28.3391 85.5446 28.1811C85.7163 28.0162 85.888 27.8583 86.046 27.6797C86.2108 27.508 86.3688 27.3294 86.5336 27.1577C86.6916 26.9791 86.8427 26.7869 87.0007 26.6014L87.2342 26.3198L87.4471 26.0244C87.5914 25.8252 87.7356 25.626 87.873 25.42C88.134 25.001 88.4087 24.582 88.6285 24.1219C88.862 23.6823 89.0817 23.1947 89.2672 22.7001C89.9884 20.7221 90.2288 18.4692 89.7549 16.1889C89.8511 16.3194 89.8853 16.134 89.8647 15.7494C89.8441 15.3647 89.7618 14.7809 89.5969 14.1353C89.4321 13.4897 89.1848 12.7754 88.8895 12.1366C88.601 11.4978 88.2644 10.9278 88.0103 10.5294C87.7218 10.0967 87.3647 9.60215 86.9114 9.10762C86.4649 8.6131 85.9292 8.11173 85.3248 7.67216C84.6929 7.20511 83.9923 6.82046 83.2849 6.53199C82.5706 6.24352 81.8494 6.05809 81.1763 5.94819C80.4964 5.8383 79.8713 5.81087 79.3287 5.82461C78.7861 5.85208 78.3328 5.90702 78.0031 5.98257C77.6735 6.05125 77.4674 6.13363 77.4056 6.20232C77.3506 6.271 77.4399 6.31219 77.7078 6.34653C78.3946 6.3534 79.2325 6.33966 80.1804 6.43582C80.4207 6.44956 80.6612 6.49764 80.9084 6.52511C81.1557 6.57319 81.4098 6.60759 81.6708 6.6694C82.1859 6.7793 82.7148 6.94411 83.2437 7.15703C83.5116 7.26006 83.7656 7.39058 84.0266 7.52107C84.2808 7.66531 84.5418 7.80262 84.7822 7.97433C85.2699 8.30401 85.7163 8.66123 86.1215 9.07333C86.5267 9.47856 86.8907 9.91128 87.1998 10.3715C87.5089 10.8316 87.7631 11.2986 87.9623 11.7657C88.3057 12.5761 88.4224 13.0982 88.4705 13.3661C88.5117 13.6408 88.4843 13.6614 88.395 13.5103C88.2233 13.2081 87.818 12.1847 87.0693 11.0995C86.6985 10.5569 86.2382 10.0074 85.7368 9.52658C85.2286 9.03893 84.686 8.6269 84.1503 8.31095C83.6214 7.99501 83.1269 7.80955 82.7629 7.69966C82.3988 7.6035 82.1722 7.57597 82.1309 7.63778C82.598 7.75454 82.9277 7.96747 83.4291 8.33149C83.6832 8.51007 83.9717 8.73673 84.3426 9.02521C84.6998 9.32055 85.1393 9.67774 85.6544 10.1791C85.1118 9.6434 84.686 9.32745 84.3838 9.14887C84.0816 8.96343 83.9167 8.90162 83.8618 8.90162C83.8 8.90162 83.848 8.97711 83.9442 9.09387C83.9923 9.14882 84.061 9.21753 84.1297 9.29308C84.1983 9.36863 84.2808 9.45792 84.3564 9.54721C84.6792 9.91123 85.0295 10.3508 85.1325 10.5981C85.1874 10.7149 85.1943 10.7835 85.1188 10.756C85.0775 10.7423 85.0226 10.708 84.9402 10.653C84.8577 10.5912 84.7479 10.5088 84.6036 10.4058C85.1462 10.9758 85.5308 11.5391 85.8261 12.0542C86.1215 12.5693 86.3207 13.0295 86.4718 13.4416C86.6229 13.8537 86.7259 14.2108 86.7946 14.5268C86.8701 14.8427 86.9113 15.1243 86.9388 15.3784C86.9938 15.8867 86.9869 16.3126 86.9388 16.7934C86.8907 17.2742 86.8014 17.8236 86.5954 18.5654C86.5748 19.4514 86.5061 20.0558 86.4787 20.4885C86.4649 20.7015 86.458 20.8732 86.4512 21.0106C86.4512 21.1479 86.4649 21.2578 86.4718 21.354C86.5267 21.718 86.6984 21.7798 86.6229 22.3292C86.3001 23.2839 85.8605 24.1631 85.3248 24.9186C84.789 25.681 84.1846 26.3541 83.5459 26.9516C82.2477 28.1467 80.8466 29.0877 79.3562 30.0493C79.8232 29.5273 79.7133 29.4312 79.2463 29.596C79.1295 29.6372 78.9922 29.699 78.8342 29.7677C78.6693 29.8364 78.4907 29.9188 78.2916 30.0081C78.0924 30.1042 77.8726 30.2004 77.6391 30.3034C77.5223 30.3583 77.4056 30.4133 77.2819 30.4682C77.1583 30.5232 77.0278 30.5782 76.8973 30.6331C75.8464 31.0864 74.569 31.5534 73.2777 31.9381C71.9865 32.3227 70.6952 32.6249 69.6581 32.8172C68.3187 33.0576 67.522 33.2019 67.0138 33.3461C66.5055 33.4835 66.2719 33.6003 66.0315 33.7239C65.5508 33.9574 65.0288 34.2115 62.0754 34.4794C60.5849 34.4313 62.0753 34.1566 63.4284 33.8819C64.7883 33.6003 66.011 33.3186 64.0741 33.3324C63.1812 33.4835 62.2883 33.6346 61.3885 33.7788C59.6852 34.2665 58.339 34.8091 56.2854 35.228C55.0491 35.3448 53.1945 35.5096 53.1327 35.3929C55.5504 35.0563 54.7743 34.8159 52.2193 34.8502C51.0448 35.07 50.7494 35.125 50.1931 35.2898C51.4568 35.4203 51.7591 35.5028 51.45 35.5852C51.1409 35.6676 50.2206 35.7225 49.0323 35.7912C47.8441 35.8461 46.388 35.908 45.0144 35.9767C43.6407 36.0453 42.3425 36.1209 41.4634 36.2652C40.8246 36.327 40.2409 36.3613 39.712 36.3956C39.1831 36.43 38.7023 36.4438 38.2696 36.4506C37.3973 36.4712 36.7105 36.4437 36.1404 36.4025C35.5703 36.3613 35.1171 36.2927 34.7324 36.2171C34.3409 36.1416 34.0181 36.0591 33.6884 35.9629C33.0359 35.7706 32.3972 35.5852 31.2983 35.3929C30.1993 35.2074 28.6401 35.0357 26.1675 34.7747C26.8956 35.07 26.8544 35.1869 26.3187 35.1869C25.783 35.1937 24.7664 35.07 23.5507 34.864C22.9463 34.7541 22.2938 34.6443 21.6344 34.5C21.3047 34.4313 20.9682 34.3626 20.6385 34.2871C20.3089 34.2115 19.9792 34.1291 19.6632 34.0536C18.3788 33.7514 17.1975 33.4285 16.3939 33.2499C15.7276 33.0439 15.1851 32.8172 14.7043 32.6318C14.2235 32.4395 13.8251 32.2403 13.4473 32.048C13.0695 31.8557 12.7193 31.6702 12.369 31.4573C12.0119 31.2444 11.6478 31.0315 11.2288 30.7773C11.0503 30.7155 10.7893 30.6194 10.5008 30.5026C10.2124 30.3858 9.8827 30.2622 9.5805 30.1248C8.96921 29.8569 8.39907 29.6165 8.22049 29.6097C8.6738 30.3995 10.2192 31.8213 12.7742 33.3186C13.097 33.5041 13.4268 33.6964 13.7771 33.8956C14.1273 34.0811 14.4913 34.2665 14.8691 34.4657C15.2469 34.6648 15.6383 34.8434 16.0504 35.0288C16.4557 35.2143 16.8746 35.4135 17.3142 35.5852C17.7469 35.7638 18.1934 35.9561 18.6536 36.1278C19.1138 36.2995 19.5876 36.4712 20.0684 36.6497C20.5561 36.8146 21.0506 36.9795 21.552 37.1443C22.0603 37.3092 22.5754 37.4534 23.0974 37.6113C23.3447 37.6457 23.5507 37.6594 23.5438 37.6388Z" fill="#4CA4DB"/>
<path d="M47.2191 22.3771C47.171 22.4321 47.0886 22.4458 47.0131 22.4183C46.9375 22.384 46.8688 22.3084 46.855 22.1848L46.7932 22.0406C46.8963 22.0543 47.3015 21.9101 47.2191 22.3771Z" fill="#4CA4DB"/>
<path d="M48.1807 25.7083L48.2493 25.7495C48.1807 25.7083 48.0982 25.7083 48.0501 25.722C48.0089 25.6053 48.0708 25.4542 48.1807 25.4748C48.1875 25.571 48.0914 25.6053 48.1807 25.7083Z" fill="#4CA4DB"/>
<path d="M45.2272 23.7509C45.2478 24.1286 45.4814 24.6437 45.7424 24.9597L45.7699 25.5847C45.6668 25.4473 45.5432 25.4405 45.4196 25.4679C45.2959 25.4885 45.1586 25.5504 45.035 25.571C44.9526 25.7084 45.2891 25.7496 45.0624 25.9075C45.0212 25.8182 45.0212 25.6602 44.9662 25.6122C44.7671 25.8045 44.9388 26.2715 44.4442 26.2028L44.2589 25.9212C43.8468 25.9487 43.4346 26.0998 43.0156 26.2028C42.5967 26.2852 42.1708 26.3333 41.7793 26.1753C41.6213 26.4775 41.2161 26.347 40.9483 26.5187L40.962 26.3334C40.7903 26.6356 40.5842 26.2303 40.4056 26.2441L40.2683 26.0449C40.2477 25.7358 40.7285 25.9624 40.6461 25.4885C40.3576 25.1794 40.0416 25.832 39.8081 25.4679C39.554 25.3443 39.5472 25.571 39.3548 25.6328C39.2793 25.8114 39.3754 25.8251 39.3205 26.0311C38.668 26.0174 38.8466 25.0489 38.3108 25.0146C38.2559 25.1588 37.727 25.4198 38.0705 25.7495C38.1529 25.7083 38.2284 25.6602 38.3108 25.6053L38.3932 25.8388C38.3177 25.825 38.2078 25.8045 38.1254 25.8045C38.0361 25.8045 37.9605 25.8319 37.9537 25.9418C37.9468 25.5778 37.6515 25.6603 37.4385 25.7289C37.2256 25.7908 37.102 25.832 37.4592 25.3787C37.6583 25.619 37.7476 25.6053 37.9812 25.3787C37.7133 25.2688 37.4729 25.1039 37.2462 24.9597C37.0264 24.8086 36.8204 24.6437 36.6006 24.5613L36.3602 24.8085C36.4564 24.5132 36.319 24.2454 36.1473 24.0943C36.0374 24.1149 35.9344 24.0462 35.9 24.1973C35.8451 24.2729 36.0168 24.3896 36.1404 24.5132C36.264 24.6369 36.3327 24.7879 36.0374 24.9734C35.9824 24.9321 35.9206 24.891 35.8657 24.8498C35.8107 24.8017 35.7558 24.7536 35.7077 24.7056C35.6047 24.6025 35.5085 24.4926 35.4261 24.3758C35.2544 24.1423 35.1307 23.8882 35.0827 23.6203C35.3299 23.6547 35.4604 23.8058 35.8588 23.531C35.9755 23.5241 36.0855 23.531 36.1954 23.5516C36.3053 23.5654 36.4083 23.586 36.5182 23.6066C36.7311 23.6478 36.9371 23.7097 37.1432 23.7646C37.2462 23.7921 37.3493 23.8195 37.4523 23.847C37.5553 23.8676 37.6652 23.8813 37.7682 23.8882C37.9811 23.9019 38.201 23.8882 38.4207 23.8195C38.3933 24.0324 38.5787 24.1698 38.4619 24.369C38.4963 24.5407 38.7435 24.417 38.7229 24.7261C38.8946 24.6849 39.0663 24.6712 39.238 24.6849C39.4098 24.6918 39.5746 24.733 39.7394 24.7536C40.0691 24.8154 40.385 24.9116 40.6666 24.9666C40.6186 24.6781 40.7147 24.6094 40.8452 24.575C40.9757 24.5338 41.1337 24.5407 41.223 24.4377C41.3466 24.6849 41.6076 24.6025 41.7931 24.6094C41.8205 24.5201 41.9373 24.4926 41.9167 24.3346C41.7794 24.3896 41.7382 24.2659 41.6008 24.2041C41.642 24.0049 41.7106 24.0118 41.7999 24.0805C41.8411 24.1149 41.8893 24.1561 41.9442 24.1973C41.9923 24.2317 42.0472 24.266 42.0953 24.2729L41.9785 24.4926C42.1502 24.4995 42.3357 24.678 42.5211 24.8085C42.7066 24.939 42.8989 25.0146 43.05 24.8223C42.9607 24.6918 42.8646 24.5613 42.7821 24.4308C42.8783 24.3896 42.9813 24.3964 43.0843 24.4033C43.1873 24.417 43.2904 24.4445 43.3934 24.4651C43.5995 24.5063 43.7918 24.5064 43.9154 24.266C43.6544 24.1355 43.2423 24.4583 43.2355 23.9363C43.2423 23.6547 43.5239 23.6547 43.6681 23.7646C43.8192 23.8882 43.9635 23.9088 44.1008 23.8813C44.2313 23.847 44.355 23.7645 44.4717 23.689C44.6984 23.5173 44.9113 23.4074 45.2272 23.7509Z" fill="#4CA4DB"/>
<path d="M44.3276 22.9405C43.8743 23.0229 44.1627 23.7236 43.6956 23.6824C43.7369 23.4008 43.5033 23.1741 43.3522 23.1604C43.2149 23.3252 43.0363 23.2359 42.9058 23.2359C42.8165 23.1741 42.8302 22.8375 42.9951 22.8306C43.208 23.0985 43.4415 23.0024 43.6681 22.9062C43.778 22.8582 43.888 22.8101 43.9979 22.8032C44.1078 22.7895 44.2177 22.8238 44.3276 22.9405Z" fill="#4CA4DB"/>
<path d="M42.8646 23.7027C42.7135 23.737 42.3563 23.5722 42.3563 23.2013C42.3357 23.1739 42.3769 22.9816 42.2944 23.0502C42.4181 23.1601 42.8027 23.2082 42.8646 23.7027Z" fill="#4CA4DB"/>
<path d="M42.6585 24.3896C42.686 24.6643 42.5211 24.4583 42.4799 24.4583L42.3837 24.3416C42.4799 24.2729 42.5898 24.2385 42.6585 24.3896Z" fill="#4CA4DB"/>
<path d="M41.3604 23.5106C41.1543 23.3801 41.6145 23.174 41.3604 23.1122L41.5115 23.0847L41.5321 23.5174L41.3604 23.5106Z" fill="#4CA4DB"/>
<path d="M41.0651 23.0983C40.9964 23.1876 40.9277 23.222 40.8316 23.119L40.9071 22.9679C40.9483 22.9129 40.9758 23.0983 41.0651 23.0983Z" fill="#4CA4DB"/>
<path d="M41.2574 24.0944C41.1406 24.1837 41.1749 23.9707 41.1131 23.8746C41.168 23.751 41.3741 24.0669 41.2574 24.0944Z" fill="#4CA4DB"/>
<path d="M39.7738 26.5256C39.9455 26.2028 40.1516 26.4363 40.392 26.3676C40.1516 26.4363 40.0279 26.608 39.7738 26.5256Z" fill="#4CA4DB"/>
<path d="M48.531 21.5804C48.6546 21.656 48.7096 21.5324 48.7302 21.4225L48.6409 21.3263L48.531 21.5804Z" fill="#4CA4DB"/>
<path d="M47.3221 21.8412C47.3565 22.2602 47.4457 22.0198 47.7136 22.2533C47.8372 22.2533 47.9334 22.164 48.0227 22.0541C48.112 21.9442 48.1876 21.8275 48.2975 21.7932L48.3455 21.5322C48.1944 21.5185 48.0021 21.5253 47.8166 21.5734C47.6174 21.6146 47.4389 21.697 47.3221 21.8412Z" fill="#4CA4DB"/>
<path d="M50.3648 20.406C50.248 20.4815 50.0626 20.5021 49.9115 20.5777C49.836 20.612 49.7672 20.667 49.7123 20.7425C49.6848 20.7837 49.6642 20.8318 49.6505 20.8867C49.6299 20.9417 49.623 21.0035 49.6161 21.0791C49.7878 21.0928 49.8428 21.1958 50.0832 21.1477C50.1382 21.4225 50.0489 21.4568 49.9253 21.4293C49.8016 21.395 49.6436 21.3057 49.5543 21.3538C49.7604 21.3813 49.6642 21.6835 49.5406 21.7865C49.3826 21.7865 49.2109 21.8483 49.0392 21.9307C48.8606 21.9994 48.6752 22.0956 48.5035 22.178C48.4622 22.3016 48.2905 22.3359 48.1532 22.4046C48.0227 22.4664 47.9265 22.5489 48.0501 22.7824C47.8372 22.8992 47.6793 22.5283 47.4801 22.4734C47.4045 22.6588 47.2878 22.7068 47.1573 22.6794C47.0268 22.6519 46.8757 22.542 46.7246 22.4459C46.4292 22.2467 46.1545 22.0612 45.9759 22.487C45.9416 22.1779 45.6943 22.2673 45.5844 22.2673C45.3577 22.2879 44.8358 22.3565 45.035 22.9129C45.1449 23.0983 45.2548 23.009 45.3715 22.9266C45.4883 22.8442 45.6119 22.7549 45.7699 22.9266C46.3125 23.4623 45.3784 23.2426 45.4539 23.7646C45.502 23.6616 45.6119 24.108 45.7836 23.9088C45.5982 24.0668 45.66 24.1973 45.763 24.3415C45.8591 24.4789 45.9896 24.6231 45.9072 24.8017C46.1888 24.9115 46.3193 24.9665 46.4292 25.0695C46.5391 25.1726 46.6284 25.3306 46.8345 25.619C47.123 25.4336 46.9306 25.0077 46.9581 24.7467C47.0886 24.5819 47.2466 24.6231 47.4114 24.6849C47.5763 24.7468 47.7411 24.8292 47.8579 24.7124C47.8716 25.5641 48.5103 25.1589 48.84 25.0352C49.0667 24.9872 49.0392 24.8017 49.0117 24.6163C48.9911 24.4377 48.9705 24.2591 49.1972 24.2041C49.3757 24.3415 49.3139 24.5064 49.259 24.6712C49.204 24.836 49.156 25.0009 49.3758 25.1383L49.5268 24.8978C49.5406 24.5475 49.4925 24.1354 49.5543 23.8676C49.6436 23.8264 49.7741 23.7646 49.8222 23.8813C49.6986 24.0736 49.8703 24.3346 50.1313 24.4171C50.1656 24.2591 50.1725 24.2179 50.1656 24.0874C49.8085 23.7715 49.8978 23.7165 50.0763 23.6684C50.2549 23.6204 50.5365 23.5722 50.5433 23.2838C50.7357 22.7961 50.9349 22.9678 51.1684 23.1807C51.4019 23.3936 51.6629 23.6409 51.917 23.27C51.6148 23.0022 51.6836 22.8511 51.8209 22.7206C51.9652 22.5901 52.178 22.4527 52.2055 22.2673C52.3978 22.1642 52.5764 22.2947 52.8443 22.4046C52.8443 22.3016 52.961 22.1711 52.8992 22.0406C52.5489 21.6629 52.13 21.3469 51.6973 21.0722C51.2577 20.7906 50.8113 20.5639 50.358 20.3441C50.3511 20.3647 50.351 20.3854 50.3648 20.406Z" fill="#4CA4DB"/>
</svg>
