<svg width="214" height="216" viewBox="0 0 214 216" fill="none" xmlns="http://www.w3.org/2000/svg">
<path d="M3.30127 87.9918C3.36381 87.8399 3.4353 87.688 3.50677 87.5271C3.47104 87.0983 3.43527 86.6963 3.39954 86.3389C3.37273 86.8393 3.30127 87.4021 3.30127 87.9918Z" fill="#20729E"/>
<path d="M4.66852 89.4572L4.03418 91.5657C4.21287 91.1011 4.41836 90.4222 4.66852 89.4572Z" fill="#20729E"/>
<path d="M4.51635 89.2696C4.40914 89.4751 4.31981 89.5196 4.23047 89.5554C4.2394 89.8681 4.32873 89.895 4.51635 89.2696Z" fill="#20729E"/>
<path d="M50.1095 22.6951C53.0311 21.0868 50.4669 21.7837 53.1652 20.4077C53.7102 19.8001 50.9583 21.5246 51.5391 20.9439C49.9577 22.2305 49.0017 22.6951 50.1095 22.6951Z" fill="#20729E"/>
<path d="M51.5391 20.9528C51.7892 20.7473 52.0573 20.524 52.3342 20.2738C51.8697 20.6401 51.6641 20.8277 51.5391 20.9528Z" fill="#20729E"/>
<path d="M213.548 107.872C213.539 108.864 213.906 108.507 213.977 108.659C213.852 106.988 213.459 107.917 213.548 107.872Z" fill="#20729E"/>
<path d="M212.128 122.892C212.092 123.374 211.994 124.161 211.904 124.893C211.967 124.545 212.047 123.937 212.128 122.892Z" fill="#20729E"/>
<path d="M213.397 114.806C213.531 114.064 213.584 113.322 213.674 112.581L213.334 114.01C213.37 114.279 213.379 114.546 213.397 114.806Z" fill="#20729E"/>
<path d="M212.86 110.508L213.45 109.99L212.959 108.65C212.976 109.159 213.003 110.133 212.86 110.508Z" fill="#20729E"/>
<path d="M49.8146 17.3788C48.1974 18.0222 46.2765 18.6475 46.6785 18.862L47.3397 18.8977C48.3046 18.1919 49.1087 17.7273 49.8146 17.3788Z" fill="#20729E"/>
<path d="M30.5696 38.3937C30.5964 38.349 30.6143 38.3313 30.6411 38.2955C30.6053 38.3313 30.5517 38.3669 30.5249 38.4026L30.5696 38.3937Z" fill="#20729E"/>
<path d="M28.2378 41.4407C28.9436 39.9039 29.569 39.2068 30.5161 38.3937C29.9532 38.4473 29.3725 38.4922 28.8185 38.5636L28.2378 41.4407Z" fill="#20729E"/>
<path d="M121.55 2.51989C120.102 2.18036 118.932 1.9659 117.904 1.82294C119.655 2.26075 121.04 2.77901 121.55 2.51989Z" fill="#20729E"/>
<path d="M113.625 1.45665C113.884 1.51026 114.134 1.55487 114.402 1.60848C115.492 1.64422 116.591 1.62633 117.905 1.81396C116.609 1.48337 115.099 1.31369 113.625 1.45665Z" fill="#20729E"/>
<path d="M152.642 11.5888C152.82 11.6156 153.651 12.0445 152.642 11.5888V11.5888Z" fill="#20729E"/>
<path d="M102.671 3.6904C102.635 3.6904 102.617 3.6904 102.573 3.6904C102.894 3.75294 102.841 3.74401 102.671 3.6904Z" fill="#20729E"/>
<path d="M154.053 12.4912C153.705 12.2589 153.294 12 152.838 11.7408C153.035 11.8749 153.401 12.107 154.053 12.4912Z" fill="#20729E"/>
<path d="M153.938 12.2234C154.268 12.411 154.536 12.5627 154.786 12.6967C154.938 12.7057 154.849 12.6165 153.938 12.2234Z" fill="#20729E"/>
<path d="M151.221 10.9723C151.802 11.2314 152.338 11.4907 152.838 11.7498C152.651 11.6336 152.579 11.5798 152.633 11.5888C152.338 11.4548 151.918 11.2761 151.221 10.9723Z" fill="#20729E"/>
<path d="M88.4204 6.86237C87.6788 6.93385 87.2589 6.92473 86.964 6.89792C86.9462 7.01408 87.2946 7.04107 88.4204 6.86237Z" fill="#20729E"/>
<path d="M149.193 10.3558C149.881 10.7669 149.836 10.1413 150.185 10.463C150.685 10.4362 149.417 10.0162 148.532 9.80178C148.094 9.68562 147.737 9.65002 147.764 9.7215C147.79 9.77511 148.184 9.96271 149.193 10.3558Z" fill="#20729E"/>
<path d="M126.517 5.07537L123.658 4.69101C123.346 4.78929 124.105 5.02161 125.168 5.1467C125.856 5.17351 126.92 5.29874 126.517 5.07537Z" fill="#20729E"/>
<path d="M134.657 8.28289C133.942 7.9791 133.915 7.87188 133.54 7.61276L133.316 8.12212L134.657 8.28289Z" fill="#20729E"/>
<path d="M126.562 6.46004C126.249 6.55832 122.425 6.1742 125.972 6.76391C126.276 6.65669 129.099 7.08549 126.562 6.46004Z" fill="#20729E"/>
<path d="M83.8101 6.21015L84.5159 6.04022L84.23 5.17355L83.8101 6.21015Z" fill="#20729E"/>
<path d="M174.897 26.2512C174.933 26.3138 174.969 26.3763 175.014 26.4388C175.04 26.4299 175.058 26.4209 175.094 26.4209L174.897 26.2512Z" fill="#20729E"/>
<path d="M170.288 25.7151C170.466 25.6347 171.154 25.9565 172.003 26.5194C172.423 26.8053 172.896 27.1448 173.343 27.5379C173.79 27.94 174.228 28.3867 174.612 28.8513C176.56 30.1916 176.184 28.3153 175.014 26.4479C174.853 26.5283 174.791 26.5907 172.718 25.2416C173.316 25.8759 176.595 29.0837 174.826 27.9757C173.558 26.975 173.048 26.5551 172.736 26.2156C172.423 25.876 172.307 25.6258 171.744 25.0629C172.137 25.6526 171.226 25.1344 170.243 24.6072C169.278 24.0532 168.161 23.5708 168.268 24.0265C169.09 24.4911 169.859 25.0272 170.645 25.5454C170.627 25.6616 169.734 25.1612 170.288 25.7151Z" fill="#20729E"/>
<path d="M178.534 29.5661L179.302 30.2362C178.516 29.3784 177.98 28.7351 177.006 27.5289C175.612 26.546 175.264 26.4209 175.094 26.4299C176.336 27.5467 177.614 28.6189 178.82 29.7715L178.534 29.5661Z" fill="#20729E"/>
<path d="M174.674 25.8045L175.336 25.8402C174.639 25.465 173.879 25.1611 173.165 24.8215L174.674 25.8045Z" fill="#20729E"/>
<path d="M170.538 22.6057L170.904 22.4449C170.493 22.2216 170.073 22.0161 169.653 21.8106L170.538 22.6057Z" fill="#20729E"/>
<path d="M156.725 15.3862C156.492 15.3147 156.314 15.2881 156.242 15.3506C156.367 15.3059 156.528 15.3236 156.725 15.3862Z" fill="#20729E"/>
<path d="M162.818 16.9321C162.13 16.5121 161.407 16.1637 160.692 15.7973C161.71 16.3602 162.032 16.6371 162.488 17.0213C162.497 16.9052 162.184 16.539 162.818 16.9321Z" fill="#20729E"/>
<path d="M163.917 19.3445C163.899 19.55 164.221 19.8269 164.721 20.1575C165.231 20.4792 165.91 20.8813 166.606 21.3459C166.526 21.2923 166.446 21.2298 166.365 21.1762C166.714 21.1137 166.499 20.8546 165.999 20.5061C165.508 20.1487 164.703 19.7555 163.917 19.3445Z" fill="#20729E"/>
<path d="M166.928 21.5514C167.357 21.8373 167.786 22.1322 168.188 22.436C168.465 22.3824 167.706 22.0428 166.928 21.5514Z" fill="#20729E"/>
<path d="M164.399 21.0689L164.14 20.3719L163.167 20.1754L164.399 21.0689Z" fill="#20729E"/>
<path d="M153.285 14.2693L155.581 15.5829C155.581 15.5025 155.903 15.6097 156.287 15.7705C154.84 15.0111 153.294 14.1174 153.285 14.2693Z" fill="#20729E"/>
<path d="M156.278 15.7705C157.02 16.1726 157.717 16.5835 158.164 16.7532C157.761 16.5299 156.913 16.0296 156.278 15.7705Z" fill="#20729E"/>
<path d="M161.299 19.2372L160.692 18.7457L159.102 17.7898C159.825 18.2723 160.594 18.71 161.299 19.2372Z" fill="#20729E"/>
<path d="M211.35 91.6462L211.556 91.9054L210.761 89.609L211.35 91.6462Z" fill="#20729E"/>
<path d="M207.884 76.8141C207.66 78.3777 209.572 82.077 209.885 84.8021L209.84 85.2668L210.618 86.3478C210.189 84.7485 209.715 82.9079 209.161 81.2192C208.608 79.5394 208.134 77.9578 207.884 76.8141Z" fill="#20729E"/>
<path d="M206.41 68.6566C206.365 69.2195 205.561 67.0841 207.044 70.4704C206.999 70.2917 207 70.2291 206.973 70.1218C206.848 69.8181 206.687 69.3893 206.41 68.6566Z" fill="#20729E"/>
<path d="M206.972 70.1308C206.785 69.0586 207.589 71.6319 206.972 70.1308V70.1308Z" fill="#20729E"/>
<path d="M203.917 63.2688L204.998 65.1274C204.945 64.6628 204.194 62.9025 204.578 63.5101C203.569 61.5533 203.622 62.0358 203.917 63.2688Z" fill="#20729E"/>
<path d="M204.355 64.6448L203.211 62.5897C203.247 62.9114 203.068 63.0276 203.72 63.5368C203.461 63.4475 203.818 63.796 204.355 64.6448Z" fill="#20729E"/>
<path d="M204.81 65.8956C205.194 67.0392 205.659 68.5046 204.649 66.6194C205.471 68.4778 205.891 69.2462 205.945 69.0586C205.972 68.8888 205.695 67.7362 204.81 65.8956Z" fill="#20729E"/>
<path d="M207 76.2782C207.107 76.7964 207.223 77.3057 207.294 77.8329L207.875 79.0837C207.732 78.771 207.562 78.0294 207.411 77.3861C207.259 76.7428 207.08 76.2067 207 76.2782Z" fill="#20729E"/>
<path d="M202.639 61.6425C202.836 61.9552 203.032 62.268 203.202 62.5986C203.184 62.3931 203.086 62.1161 202.639 61.6425Z" fill="#20729E"/>
<path d="M197.842 51.4031C197.654 51.3674 197.922 52.1984 197.86 52.4218C198.199 52.8328 198.494 53.2616 198.807 53.6905C198.503 52.931 197.726 51.5997 197.842 51.4031Z" fill="#20729E"/>
<path d="M197.86 52.4218L196.394 50.5632C197.502 52.3502 197.806 52.6094 197.86 52.4218Z" fill="#20729E"/>
<path d="M201.835 61.6157C202.595 62.67 203.211 63.796 203.908 64.895C203.122 63.5637 202.362 62.2322 201.496 60.9635L201.835 61.6157Z" fill="#20729E"/>
<path d="M192.749 43.9157C193.106 44.2105 193.437 44.5233 193.785 44.8181L192.901 43.9781L191.972 43.183L192.749 43.9157Z" fill="#20729E"/>
<path d="M188.961 39.2517C189.81 39.8414 188.407 37.938 189.211 38.626C188.094 37.4198 187.031 36.4906 186.03 35.7043C187.022 36.6157 187.915 37.7327 188.961 39.2517Z" fill="#20729E"/>
<path d="M184.377 34.3819C184.877 34.8197 185.44 35.2397 186.039 35.7043C185.512 35.2397 184.967 34.7929 184.377 34.3819Z" fill="#20729E"/>
<path d="M194.214 47.1947C194.178 46.9982 194.151 46.5872 193.455 45.4525L193.687 46.4352C193.839 46.6675 194.026 46.9267 194.214 47.1947Z" fill="#20729E"/>
<path d="M193.687 46.471L193.678 46.4352C193.106 45.6132 192.704 45.0415 192.534 44.7913C192.686 45.0057 193.026 45.506 193.687 46.471Z" fill="#20729E"/>
<path d="M194.348 47.3913C194.294 47.3198 194.259 47.2662 194.214 47.2037C194.232 47.293 194.259 47.3377 194.348 47.3913Z" fill="#20729E"/>
<path d="M199.253 56.0403C198.378 54.9502 196.761 52.5914 197.859 55.1557C198.574 55.8705 197.949 54.3962 199.253 56.0403Z" fill="#20729E"/>
<path d="M194.616 48.5976C195.072 49.2945 195.474 50.0182 195.903 50.733C195.965 50.6347 195.84 50.179 196.296 50.6972C195.742 49.9913 195.206 49.2677 194.616 48.5976Z" fill="#20729E"/>
<path d="M193.812 47.6683L194.616 48.5976L194.107 47.8202L193.812 47.6683Z" fill="#20729E"/>
<path d="M187.013 37.7951C186.593 37.4377 186.191 37.0445 185.78 36.6067C185.36 36.1868 184.913 35.74 184.44 35.2665C185.396 36.3387 186.325 37.4825 187.236 38.5458C187.46 38.6262 188.032 38.9478 187.013 37.7951Z" fill="#20729E"/>
<path d="M190.346 41.95C190.292 41.8964 190.229 41.8248 190.176 41.7711C190.238 41.9141 190.31 42.0126 190.346 41.95Z" fill="#20729E"/>
<path d="M187.343 38.7781C187.987 39.6359 188.478 40.0647 188.97 40.4489C188.416 39.8681 187.835 39.2427 187.236 38.5458C187.138 38.519 187.102 38.528 187.343 38.7781Z" fill="#20729E"/>
<path d="M181.67 31.8803C182.027 32.3181 182.429 32.8095 182.84 33.3456C182.563 32.8541 181.893 31.9429 181.67 31.8803Z" fill="#20729E"/>
<path d="M190.033 41.4228C190.069 41.4585 190.104 41.4942 190.149 41.5388C189.997 41.2082 189.988 41.2709 190.033 41.4228Z" fill="#20729E"/>
<path d="M190.033 41.4228C189.649 41.0207 189.309 40.7348 188.97 40.4489C189.398 40.9403 189.801 41.3959 190.176 41.7711C190.113 41.655 190.069 41.5211 190.033 41.4228Z" fill="#20729E"/>
<path d="M182.581 33.3992C181.777 33.0686 179.874 31.5496 180.669 32.863C182.796 34.918 182.349 34.1138 183.707 35.2665C180.33 31.8622 184.815 36.1155 182.572 33.4529C183.269 34.0872 183.877 34.6946 184.44 35.2665C183.877 34.6053 183.341 33.962 182.849 33.3366C182.876 33.3723 182.885 33.3992 182.912 33.435L182.93 33.4529H182.921C183.028 33.6405 183.055 33.7029 182.912 33.5152C182.894 33.5063 182.858 33.4618 182.84 33.4439C182.769 33.4707 182.679 33.4349 182.581 33.3992C181.679 32.3359 182.501 33.1669 182.84 33.4529C182.867 33.4529 182.903 33.4618 182.921 33.4529L182.912 33.435C181.759 32.3092 180.499 31.2905 179.302 30.2272C179.99 30.9867 180.955 31.8177 182.581 33.3992Z" fill="#20729E"/>
<path d="M195.849 53.3955C195.796 53.2526 195.822 53.2437 195.84 53.2169C195.644 52.9935 195.554 52.9131 195.849 53.3955Z" fill="#20729E"/>
<path d="M195 51.6355C195.233 51.8946 195.519 52.0555 196.09 53.0204C196.519 53.905 195.93 53.1098 195.849 53.2259C196.305 53.7352 197.332 55.0933 196.376 53.1902L196.153 52.931C195.233 51.2512 194.303 48.9014 194.527 49.1605C194.536 49.8217 194.598 50.3756 195 51.6355Z" fill="#20729E"/>
<path d="M189.122 42.1911C188.273 41.1725 187.335 40.2256 186.423 39.2606L187.495 41.0029L187.585 40.7974C188.961 42.5844 188.818 42.0749 189.122 42.1911Z" fill="#20729E"/>
<path d="M29.3187 176.904L27.8267 174.652C30.3641 176.725 31.7489 178.575 30.4713 176.377C30.1854 176.511 29.6136 176.091 28.8988 175.394C28.184 174.697 27.2995 173.75 26.5133 172.722C25.7003 171.712 24.8872 170.703 24.2082 169.979C23.556 169.22 23.0288 168.746 22.7251 168.853L21.912 167.263C22.1979 167.683 22.2962 167.71 22.5821 168.121C21.0632 165.011 20.3932 166.53 18.1238 162.697C17.3912 161.33 17.0338 160.285 17.6771 161.133L15.7025 158.292C15.2379 157.408 15.5328 157.524 16.0063 158.399C15.1218 156.889 14.3356 155.326 13.4957 153.78L13.5493 153.798C13.0311 153.217 12.093 151.779 11.6195 151.073C11.2263 149.777 12.0126 151.636 12.0126 151.26C11.5301 150.411 11.0119 149.572 10.5563 148.705C10.4848 148.089 10.735 148.321 11.1013 148.928C11.4944 149.527 12.0126 150.51 12.4057 151.439C12.3968 149.947 12.0841 149.447 11.548 148.589C11.0655 147.722 10.3418 146.498 9.636 143.648C9.98445 144.488 10.3954 145.31 10.7707 146.141C10.7796 145.193 10.4848 144.264 10.1989 143.165C9.91298 142.066 9.53773 140.815 9.25183 139.305C9.2697 140.047 10.2078 145.497 8.91231 142.62C8.71575 141.745 8.36729 140.628 7.6168 139.082C8.02778 138.939 7.47386 137.375 6.87524 135.383L7.46492 135.374C7.07181 134.329 6.84843 133.846 6.64294 133.489C6.42851 133.131 6.23197 132.881 5.96393 132.265C5.45467 129.807 5.76737 129.218 6.04434 128.566C5.43679 124.616 5.8299 131.425 4.89178 126.779C4.80244 125.948 4.68629 125.188 4.56121 124.446C4.46293 123.705 4.35571 122.981 4.22169 122.24C3.96259 120.756 3.5784 119.211 3.2925 117.218C3.31036 114.868 3.66775 117.602 3.77497 116.745L3.15848 114.707C3.13168 114.198 3.28358 114.359 3.36399 114.439C3.09595 112.706 2.7743 114.332 2.542 111.571C2.22929 111.205 2.38118 109.775 2.62241 108.024C2.90831 106.273 3.10487 104.209 2.87257 102.484C3.09593 101.653 3.19422 102.913 3.43545 102.663C3.38184 100.313 3.35504 99.3125 3.32824 98.41C3.30144 97.5076 3.30144 96.7123 3.22103 94.7556C3.48013 93.6834 3.73028 92.6111 4.06979 91.5657C3.22101 93.8709 3.25677 90.7616 3.33718 87.9917C2.9798 88.8048 2.67603 89.5019 2.49734 89.9755C2.64922 88.5191 2.79217 87.0626 3.05127 85.6151C3.2657 85.1147 3.35503 85.5973 3.42651 86.3389C3.44438 86.0351 3.46226 85.749 3.4712 85.5257C4.02514 84.0514 4.16809 84.9182 4.23064 86.0708C3.99834 86.5622 3.76604 87.0446 3.53374 87.5271C3.68563 88.6529 3.89112 89.7072 4.25744 89.5464C4.23957 89.2605 4.28423 88.7156 4.3557 88.1259C4.40038 88.4207 4.45399 88.6083 4.52546 88.4921C4.61481 88.3581 4.54332 87.8935 4.57012 87.1787L5.40997 86.3568L5.21341 86.0708C5.75841 84.2749 6.29451 82.4789 6.96459 80.7277C7.07181 79.718 7.17009 78.7262 7.27731 77.7254C7.42026 76.7247 7.57213 75.7062 7.75975 74.6161C7.85803 74.0711 7.96525 73.5082 8.07246 72.9185C8.19755 72.3288 8.36729 71.7391 8.53705 71.1047C8.90336 69.8538 9.26969 68.4511 9.88617 66.95C9.65387 68.5941 10.449 67.5666 10.9226 67.8614C10.2882 68.5405 9.92191 69.7377 9.50199 71.1137C9.2965 71.8017 9.08207 72.5432 8.85871 73.3027C8.65321 74.0711 8.42091 74.8575 8.12607 75.6348C8.73362 74.0176 8.86762 74.4643 8.81402 74.911C9.23394 72.9811 9.85044 71.1135 10.3954 69.2104C10.7618 69.5052 11.1549 68.174 11.9858 66.8517C11.3336 67.2001 11.6552 66.1369 12.227 64.6984C12.3789 64.341 12.5308 63.9568 12.7005 63.5636C12.8882 63.1794 13.0668 62.7952 13.2545 62.411C13.6208 61.6515 13.9514 60.9188 14.1658 60.3559C14.4964 60.3648 14.5053 61.0172 13.1115 63.5905C15.2022 61.044 14.0229 59.3553 16.1493 56.8714C15.8008 57.4968 15.5685 57.8095 15.5596 58.1311C15.8634 57.3359 16.5692 56.076 17.1678 55.1378C17.7753 54.1996 18.3293 53.6279 18.1685 54.0925L17.7843 54.7C18.4454 53.7172 19.2674 52.4573 20.1251 51.1171C21.0186 49.8036 21.9567 48.4098 22.8323 47.1232C24.6281 44.5856 26.0845 42.3967 26.0398 41.8963C26.147 41.9231 26.3346 42.9507 26.281 43.2813C27.4336 40.5919 28.6486 37.8488 30.0692 35.1951C30.0246 36.1869 33.1159 35.1951 30.6679 38.2955C31.0878 37.9202 31.5613 37.5003 32.1152 36.9374C32.6692 36.3745 33.2767 35.6597 34.0719 34.7662C33.4465 35.2219 32.017 35.4363 32.7407 34.65C35.3674 33.1757 34.4472 33.4974 37.5117 31.5585C36.5468 32.2108 36.8327 30.6115 38.2532 29.4232C38.1371 29.7269 39.0305 30.0931 38.5928 30.6024L39.9865 28.7262C40.4511 28.1007 40.9693 27.5199 41.4607 26.9124C40.6745 27.7612 41.836 27.6986 42.8098 27.2965C42.5597 27.368 43.337 26.7605 44.284 26.0368C45.249 25.3398 46.4194 24.5624 46.875 24.1693L45.1685 25.0985C47.3128 23.6868 48.108 22.6145 49.0015 21.6495C49.4392 21.1581 49.8681 20.6578 50.4667 20.1038C51.0743 19.5677 51.8158 18.9333 52.9505 18.3258C52.5127 18.8172 52.2804 20.1842 54.5945 19.0048C55.336 17.9594 57.9806 14.1979 62.0637 11.9195L62.9929 11.8211C64.0204 11.2314 65.0478 10.6239 66.12 10.1146C64.3509 11.5978 59.5084 15.6542 56.9085 17.8343C58.7133 17.1463 57.5428 17.8969 60.0802 16.5567C61.0988 16.3422 58.883 17.6379 58.1415 18.04C60.1428 17.084 62.1173 16.101 64.1723 15.288C63.9132 15.0735 65.0121 14.4124 66.12 13.7601C67.2547 13.1525 68.4072 12.5717 68.1928 12.3841C65.9949 13.4206 63.9042 14.6713 61.7867 15.8329C61.5187 15.6274 62.2871 14.8056 63.6898 13.8048C64.3956 13.3134 65.2355 12.7237 66.2182 12.2412C67.201 11.7498 68.2821 11.2673 69.4079 10.8563C70.623 10.6329 68.9433 12.1875 69.1131 12.3394C69.3632 12.1428 70.3639 11.5888 71.3913 11.2046C72.4188 10.8025 73.4374 10.4453 73.6697 10.4453L71.8738 11.3922C73.1604 11.0795 74.1074 10.5434 75.1438 10.0341C76.1802 9.53373 77.3328 9.12275 78.9321 8.95299C79.9953 8.65813 82.2736 8.88151 82.3808 8.50624C80.4956 8.23819 79.5932 6.27261 80.6654 5.49527C80.8619 5.4774 82.3361 5.31644 83.9265 5.13774C84.7127 5.03945 85.5436 4.99485 86.2494 4.98591C86.9553 4.96804 87.5449 4.96805 87.8755 4.99486C89.7607 5.20036 85.4096 6.73709 87.0267 6.91579C87.0625 6.74602 88.0095 6.37074 88.4116 6.22778C89.5731 6.16523 88.0274 6.80862 90.4755 6.29933C90.7971 5.63814 95.5413 5.70963 91.5744 5.63815C92.7806 5.3969 93.4328 5.34341 94.1386 5.30767C94.8444 5.27193 95.6039 5.21813 97.0423 5.11091C96.5688 4.95008 97.1763 4.56606 98.2306 4.18185C99.2849 3.80658 100.768 3.35982 102.019 3.27047C101.876 3.4313 102.448 3.61892 102.716 3.69933C103.984 3.68146 105.11 3.68145 106.156 3.69039C107.201 3.73506 108.166 3.8065 109.113 3.86904C110.069 3.93159 111.007 3.9941 112.008 4.05664C112.999 4.16386 114.054 4.26222 115.233 4.35157C115.662 4.52133 117.904 4.89664 116.913 5.06641C117.592 5.0396 118.235 4.91453 119.682 5.08429C122.398 5.95992 116.466 4.7536 118.512 5.65604C118.726 5.35225 122.3 5.58447 124.364 5.78997C124.096 5.47725 122.926 5.19152 121.541 5.09324C120.165 4.98602 118.592 4.95906 117.556 4.93225C117.592 4.55698 118.53 4.28904 120.093 4.14608C120.871 4.08353 121.818 4.0209 122.872 4.05664C123.926 4.11025 125.097 4.19965 126.339 4.33368C128.322 4.57492 128.706 4.85187 128.697 4.96803C128.688 5.10205 128.277 5.15564 128.626 5.17351C130.44 5.62026 131.744 5.86165 132.789 5.98674C133.817 6.16543 134.585 6.22784 135.318 6.29038C136.05 6.35293 136.738 6.41556 137.614 6.6032C138.49 6.79083 139.517 7.18384 140.955 7.80929C143.135 9.05125 140.741 8.74755 141.152 9.24791C139.597 8.81903 138.463 8.33655 137.435 7.91661C136.399 7.52347 135.488 7.13932 134.433 6.8534L136.962 7.80929C135.925 7.6842 133.835 7.21071 132.745 6.76396C133.209 7.00521 134.192 7.34483 135.488 7.75584C136.14 7.95241 136.863 8.17577 137.641 8.40808C138.409 8.67613 139.231 8.95306 140.071 9.24791C140.92 9.54277 141.795 9.82869 142.662 10.1504C143.52 10.4988 144.377 10.8472 145.217 11.1957C146.906 11.8569 148.451 12.6343 149.702 13.3134C150.694 13.5814 152.356 14.1531 151.686 13.6349L150.006 12.9469C148.648 11.9015 153.348 13.8672 151.328 12.7593C152.517 13.1167 153.723 13.5992 155.054 14.1353C155.715 14.4123 156.394 14.7161 157.1 15.0556C157.788 15.4309 158.494 15.8597 159.209 16.3333L159.495 17.1286C159.512 16.9589 157.708 15.7167 156.778 15.3861C157.466 15.6274 158.521 16.4584 159.611 17.2268C160.156 17.6199 160.719 17.9862 161.237 18.281C161.746 18.5938 162.237 18.8173 162.666 18.8798C162.05 18.3437 161.451 17.7808 160.808 17.2804C161.952 17.7629 163.202 18.3705 164.525 19.0138C165.856 19.6482 167.169 20.4523 168.367 21.4262C167.527 20.1753 167.759 21.0599 166.321 19.2819C167.491 20.9527 159.673 15.0021 161.818 17.3341C161.04 16.4495 160.227 15.9045 159.343 15.3148C158.449 14.734 157.493 14.0995 156.314 13.1613C156.314 13.3668 157.082 13.9478 154.813 12.679C154.688 12.6701 154.411 12.6074 154.232 12.5628C154.161 12.5181 154.143 12.5091 154.08 12.4733C154.125 12.5001 154.152 12.527 154.196 12.5538C154.08 12.527 154.071 12.527 154.241 12.5806C154.759 12.9291 155.161 13.2418 155.295 13.4294C154.625 13.3311 153.392 12.7771 152.133 12.2678C150.864 11.7764 149.595 11.2583 148.916 11.0707C147.558 10.3648 149.577 11.1422 148.898 10.6239C148.228 10.4274 147.558 10.2575 146.87 10.1146C146.834 9.66783 143.323 7.9971 146.781 9.11397L143.752 7.89872C142.028 7.03203 139.526 6.10289 137.927 5.76336C136.461 5.25407 134.058 5.12886 135.434 5.1914C134.603 5.00377 133.772 4.79836 132.932 4.61966L130.413 4.16397L130.386 4.05664C127.938 3.40439 125.338 3.18108 122.684 2.779C120.013 2.52882 117.279 2.1088 114.42 1.58164C113.571 1.5727 112.705 1.55499 111.695 1.51925C110.685 1.51925 109.542 1.49233 108.121 1.40298L107.567 1.04567C106.468 1.03673 104.833 1.01882 103.341 1.00095C101.849 0.983081 100.518 0.974137 100.062 1.21538C99.4636 1.02775 98.4897 0.974137 97.3193 0.992007C96.7296 1.00094 96.0953 1.03655 95.4252 1.08123C94.7551 1.14377 94.0671 1.25103 93.3613 1.34037C91.9496 1.55481 90.4933 1.74245 89.1621 2.0105C87.8308 2.27855 86.6157 2.51082 85.6508 2.64485L85.5972 3.11843C84.2838 3.30606 83.042 3.69028 81.7107 4.02981C81.0496 4.21744 80.3705 4.4052 79.6558 4.60177C78.9499 4.82515 78.2173 5.08412 77.44 5.35217L77.7438 5.68287C76.4394 6.23684 74.6703 6.60311 72.7405 7.18388C71.7666 7.46087 70.7481 7.74675 69.7027 8.0416C68.6663 8.38113 67.6299 8.7743 66.5935 9.18531C66.8169 8.93513 67.889 8.55098 68.6663 8.34547C67.344 8.62246 66.0396 9.06016 64.753 9.57839C63.4843 10.1324 62.2603 10.8026 61.0452 11.4548C59.8212 12.0803 58.6775 12.8308 57.516 13.4652C56.3635 14.0996 55.211 14.6447 54.0941 15.1182C53.1203 15.842 52.343 16.235 51.5567 16.5745C51.655 16.5209 51.7354 16.4584 51.8069 16.4048C51.6997 16.4674 51.5389 16.5567 51.378 16.6461C50.8777 16.8427 50.3684 17.0661 49.8413 17.3431C50.3238 17.1554 50.7616 16.9498 51.1547 16.78C50.3506 17.2536 49.2069 18.0847 48.0991 18.9067L47.3665 18.862C47.2771 18.9245 47.1967 18.9781 47.1073 19.0406C45.8744 19.6392 46.3032 19.8 47.0895 19.675C46.5355 20.0949 46.0799 20.5596 45.7314 20.917C45.0881 20.9528 44.3823 21.5245 43.6318 22.1142C42.8813 22.7039 42.104 23.3294 41.291 23.517C41.0319 23.9459 39.7096 25.0717 38.4498 26.2154C37.2347 27.4216 36.0732 28.6458 36.0554 29.1729C35.9571 29.1283 35.6176 29.3605 36.1715 28.8691C34.9385 29.7804 33.786 30.7902 32.9461 31.8892L32.0974 31.9427L31.1414 33.3634L30.2479 34.8286C28.6129 36.0617 27.8803 36.5443 28.9703 34.7931C27.4961 36.7677 26.9064 37.5628 26.3704 38.2776C25.8343 39.0014 25.334 39.6358 24.2529 41.4228L24.101 41.0386C23.1897 42.218 22.1086 44.3623 21.3313 44.8805C20.6969 45.4434 19.8035 46.5692 18.7045 48.0256C18.1417 48.7493 17.5788 49.5803 16.998 50.4917C16.4084 51.3941 15.783 52.359 15.1397 53.3598C12.7005 57.4341 10.181 62.2055 8.22436 66.0118C9.04634 65.4668 8.51025 66.3157 7.90271 67.3968C7.31303 68.4958 6.6072 69.818 6.9199 70.1218C6.50892 70.497 5.93711 71.5514 6.24982 70.1933C5.52612 72.2573 4.99007 73.8031 4.454 75.1791C3.91793 76.5551 3.58735 77.8149 3.50694 79.3606C3.13169 79.7716 3.41758 78.36 3.14954 78.7531C3.10487 79.1105 2.97979 80.147 2.71176 80.549C2.45266 80.9422 2.68496 79.8789 2.77431 79.182C2.47947 80.2631 2.29185 81.1118 2.19357 81.782C2.12209 82.461 2.13103 82.9614 2.19357 83.3456C2.30972 84.1051 2.62241 84.3733 2.93512 84.6145C2.5152 85.6688 2.25609 86.4729 2.11313 87.2234C2.00592 87.9829 2.01487 88.6799 2.10422 89.5198C1.7379 90.2435 1.26435 91.4854 1.66641 88.7602C1.586 89.1355 1.42518 89.9129 1.22863 90.8511C1.13035 91.3246 1.03207 91.8428 0.924855 92.37C0.853379 92.9061 0.77296 93.4599 0.692549 94.0049C0.406645 96.1851 0.210084 98.1955 0.522791 98.3027C0.344101 98.7763 0.317323 100.456 0.353061 100.867C0.19224 102.592 0.111821 103.539 0.0939523 104.468C0.0582142 105.406 0.04033 106.335 0.0224609 108.033L0.138614 107.086C0.76403 108.435 0.290497 109.909 0.442384 112.652L0.37092 112.581C0.263706 114.153 0.317323 115.109 0.353061 115.762C0.388799 116.405 0.442382 116.744 0.495989 117.075C0.549596 117.406 0.594282 117.736 0.621085 118.371C0.63002 118.692 0.638962 119.086 0.656831 119.595C0.683634 120.104 0.710435 120.729 0.737238 121.507L1.12142 121.123C1.61281 121.355 1.64854 122.722 1.66641 124.491C1.74682 126.242 1.85405 128.396 2.35438 130.129L2.36333 128.807C2.6671 129.745 2.68496 131.139 2.63135 132.568C2.59561 133.989 2.46158 135.463 2.70281 136.428C2.74749 136.866 2.38118 135.803 2.18462 135.222C3.06021 140.404 2.90832 135.731 4.08768 139.43C4.00727 140.208 3.0602 138.769 3.79283 141.298C3.89111 141.959 4.72201 143.692 5.63333 145.685C6.12473 146.668 6.64295 147.713 7.0718 148.741C7.28623 149.25 7.49172 149.759 7.65254 150.251C7.84017 150.733 8.00098 151.189 8.11713 151.627C8.00991 150.814 7.90271 150.018 8.8051 151.582C9.95765 154.066 11.2085 158.721 13.1026 160.544C13.2187 160.883 13.2366 161.026 13.1919 161.062C13.8174 161.92 14.684 163.403 15.6489 164.69C16.6049 165.985 17.5252 167.174 18.0344 167.602C17.9719 168.228 18.499 169.157 19.2317 170.247C19.9822 171.337 20.9471 172.579 21.9835 173.687C23.002 174.813 23.9491 175.903 24.6371 176.716C25.325 177.529 25.6913 178.128 25.4233 178.342C26.147 179.146 26.8439 179.977 27.5944 180.755L29.8548 183.078L29.6404 183.051C31.0163 184.606 32.1331 185.481 32.964 186.151C33.8217 186.804 34.4382 187.206 35.0994 187.554C35.7605 188.251 35.144 187.885 35.0368 187.885C37.2347 189.967 38.4409 191.128 39.7185 192.004C40.9872 192.888 42.1665 193.693 44.4449 194.845L44.6146 195.506C45.8118 196.15 51.4763 201.055 57.0336 203.324C56.9621 203.342 56.8102 203.36 56.3635 203.199C59.4459 204.531 62.9214 206.523 66.1021 207.971C69.256 209.463 72.0882 210.392 73.491 210.026C74.9115 210.401 76.3768 210.615 77.8153 210.901C72.392 209.23 78.8159 210.463 76.6538 209.57C77.7349 209.829 79.075 210.338 79.8255 210.696C80.5849 211.017 80.7279 211.25 79.3967 210.937L79.0036 210.74C77.7974 211.375 85.7759 212.688 85.5257 213.153C91.0294 214.243 96.5331 214.913 101.974 215.288C103.341 215.351 104.699 215.414 106.048 215.476C107.397 215.494 108.747 215.467 110.096 215.467C110.766 215.458 111.436 215.467 112.106 215.431C112.776 215.387 113.437 215.351 114.107 215.306C115.43 215.208 116.761 215.172 118.065 214.994C117.636 214.824 117.216 214.672 116.797 214.475C118.012 214.377 119.218 214.207 120.433 214.073C121.407 214.1 121.782 214.413 119.182 214.716C120.603 214.922 123.497 213.85 123.542 213.653C128.635 213.01 121.693 214.761 123.238 214.493L125.338 214.064L124.847 214.073C125.677 213.787 126.115 213.573 126.732 213.358C127.044 213.251 127.393 213.153 127.866 213.037C128.331 212.903 128.912 212.76 129.68 212.59C131.646 212.268 130.77 212.751 131.538 212.599C131.547 212.644 131.807 212.608 132.718 212.349C134.219 211.982 135.702 211.554 137.194 211.151L135.273 211.16C137.176 210.374 139.446 209.981 137.239 210.026C138.856 209.999 142.984 208.757 146.825 207.158C148.755 206.398 150.578 205.478 152.079 204.816C153.553 204.111 154.652 203.53 155.117 203.378C155.715 202.967 156.314 202.583 156.93 202.208C157.538 201.814 158.145 201.412 158.789 201.019C160.066 200.233 161.46 199.491 162.925 198.535C162.139 198.911 161.398 198.696 163.953 197.141C163.801 197.928 165.07 197.347 166.606 196.355C168.134 195.354 170.046 194.13 171.243 193.684C170.207 194.13 171.887 192.772 173.406 191.495C174.933 190.208 176.211 188.885 174.674 189.708C176.64 188.135 175.076 189.949 176.711 188.912C180.911 184.624 186.53 179.96 190.971 173.946C190.917 173.759 189.961 174.59 190.756 173.196C191.793 172.347 192.722 171.409 193.705 170.497C194.098 169.872 194.107 169.47 194.268 168.987C194.437 168.505 194.741 167.942 195.679 166.959C195.367 167.209 194.893 167.567 195.384 166.718C199.673 160.848 202.988 154.111 205.606 147.15C208.241 140.172 210.207 132.97 212.092 125.769C211.44 127.699 211.645 126.376 211.904 124.866C211.663 125.831 211.529 124.786 211.279 124.947C211.735 122.936 212.226 120.926 212.619 118.889C212.369 118.299 212.485 116.646 212.601 115.056C212.726 113.465 212.7 111.929 212.44 111.598L212.494 113.555C212.19 112.241 211.815 113.144 211.368 114.287C210.886 115.44 210.359 116.843 209.948 116.619C210.082 117.343 210.046 118.174 209.921 119.077C209.778 119.979 209.501 120.944 209.26 121.971C208.804 124.035 208.179 126.269 208.295 128.664C207.946 129.638 208.179 127.752 207.884 128.253C208.071 129.486 207.786 130.889 207.044 133.426L207.026 133.113C206.669 134.936 206.151 136.437 205.749 137.858C205.346 139.27 204.855 140.538 204.364 141.825C203.872 143.112 203.372 144.434 202.702 145.864C202.059 147.311 201.388 148.928 200.441 150.778L201.085 150.394C200.298 152.002 200.021 152.288 199.584 153.003C199.316 155.147 201.683 148.446 201.558 150.438C201.112 150.894 200.567 151.841 199.977 153.02C199.36 154.191 198.646 155.567 197.931 156.916C197.261 158.292 196.439 159.552 195.787 160.588C195.116 161.607 194.545 162.358 194.107 162.563C192.624 164.868 194.956 162.143 193.472 164.448L192.856 164.913L192.767 165.681C191.757 167.174 190.899 167.683 190.694 167.629C190.971 167.29 191.355 166.584 191.614 166.2C190.81 167.057 189.89 168.407 189.095 169.613C188.299 170.819 187.54 171.829 187.272 172.124C187.853 171.462 188.451 170.819 189.014 170.149C187.915 171.659 186.736 173.249 185.449 174.804C184.118 176.323 182.823 177.931 181.366 179.397C180.66 180.147 179.955 180.898 179.258 181.639C178.534 182.354 177.81 183.06 177.104 183.766C175.729 185.204 174.281 186.482 173.004 187.778L173.549 187.572C173.057 188.064 172.628 188.475 172.253 188.823C171.86 189.154 171.52 189.43 171.217 189.672C170.609 190.145 170.136 190.476 169.653 190.807C169.171 191.137 168.67 191.486 167.973 191.959C167.277 192.424 166.401 193.04 165.186 193.961L165.338 193.791C164.48 194.684 163.14 195.623 161.728 196.507C162.899 195.48 159.057 197.677 160.611 196.373C158.172 198.115 157.529 198.491 157.172 198.857C156.796 199.188 156.716 199.5 155.117 200.742L154.143 200.867C153.607 201.305 153.33 201.582 152.856 201.922C152.374 202.261 151.713 202.708 150.328 203.36C152.49 202.074 148.344 203.7 150.73 202.208C149.202 202.699 147.924 203.226 146.808 203.753C145.682 204.245 144.708 204.7 143.832 205.12C142.099 205.987 140.687 206.55 139.142 206.514C137.9 207.417 139.249 207.095 140.723 206.639C142.206 206.21 143.761 205.478 143.037 205.889C143.734 205.773 143.225 206.157 142.314 206.648C141.384 207.104 140.017 207.631 139.052 207.917C138.079 208.239 137.158 208.248 135.872 208.292C135.228 208.328 134.496 208.382 133.611 208.525C133.173 208.596 132.7 208.686 132.173 208.802C131.646 208.891 131.074 209.007 130.457 209.15C130.958 209.043 130.967 208.962 131.467 208.855C130.511 208.953 129.618 209.239 128.662 209.525C128.188 209.668 127.697 209.802 127.178 209.919C126.651 210.008 126.097 210.07 125.508 210.079C124.31 210.857 122.506 210.58 122.247 211.348L126.857 210.356C125.561 210.678 124.337 211.16 122.872 211.598C121.407 212.036 119.682 212.313 117.476 212.402C117.806 212.215 119.084 211.866 119.959 211.652C118.655 211.589 117.52 212.143 116.162 212.018C116.323 211.67 117.735 211.473 119.45 211.223C120.308 211.107 121.246 210.991 122.139 210.83C123.024 210.633 123.864 210.419 124.543 210.16C123.837 210.124 122.55 210.517 121.568 210.714C120.594 210.91 119.95 211 120.612 210.526C119.664 211.134 118.405 211.268 116.975 211.393C115.537 211.455 113.937 211.473 112.231 211.982L112.436 211.545C111.9 211.67 110.775 211.893 109.765 211.911L111.561 211.312C108.782 211.839 106.182 211.089 103.52 211.223C106.316 211.294 106.629 211.411 106.54 211.58C106.45 211.75 105.95 211.974 107.147 212.099C100.187 212.536 103.171 211.044 95.4877 210.642C96.5241 210.696 99.3742 211.205 97.7303 211.285C96.9977 211.178 96.1489 211.08 95.3805 210.901C94.6121 210.723 93.9153 210.535 93.4864 210.374C88.4027 209.82 94.2101 210.901 92.0122 210.892C90.3504 210.186 89.4927 210.714 87.2322 210.49L87.2948 210.061C86.58 209.901 86.0171 209.784 85.5704 209.713C85.1237 209.623 84.802 209.561 84.5519 209.543C84.0515 209.498 83.855 209.561 83.6763 209.633C83.3189 209.776 83.033 209.918 80.4867 209.168L82.8096 209.087C81.9073 208.927 80.9959 208.793 80.1025 208.596C80.3259 208.489 80.5492 208.391 80.7726 208.265C79.2894 208.051 78.3335 207.837 77.3953 207.577C76.4572 207.318 75.5459 207.015 74.1878 206.461C74.7418 206.97 73.5803 207.086 71.1054 206.255C69.524 205.406 72.1686 206.246 68.711 204.96C69.5955 204.995 70.5247 205.076 71.9096 205.933C72.115 205.853 72.7762 205.942 72.9817 205.862C71.2663 205.031 68.5412 204.138 67.2993 203.664C67.7639 203.87 68.3268 204.111 68.5948 204.281C67.7371 204.048 66.8705 203.825 66.0128 203.575L63.4664 202.753C62.7695 202.261 63.4307 202.413 64.0829 202.574C63.0912 202.154 62.3049 202.083 60.8665 201.386C61.3847 201.252 61.4472 200.921 63.5468 201.68C61.9476 201.135 60.4108 200.456 58.8473 199.804C58.606 199.527 56.7477 198.24 57.391 198.428C56.2384 197.642 54.6659 196.945 53.0041 196.159C51.3959 195.292 49.6269 194.425 48.1884 193.237C47.9919 193.183 47.6434 193.013 46.9644 192.593C46.2675 192.075 45.5974 191.548 44.9363 191.021C44.293 190.467 43.6586 189.913 42.9975 189.35C42.3363 188.787 41.6394 188.251 40.9157 187.679C40.201 187.09 39.4237 186.509 38.566 185.919C38.1192 185.24 37.6457 184.606 37.2347 183.9C34.7956 181.764 39.0037 186.679 34.9296 183.123C32.017 180.612 34.2595 181.755 33.4465 180.683C32.6781 180.111 31.606 179.334 30.4713 178.333C29.3455 177.324 28.2198 176.019 27.2549 174.536C28.05 175.358 28.5772 176.108 29.3187 176.904ZM8.90337 142.701C9.07312 143.058 9.34118 143.576 9.56454 144.085C9.8147 144.586 10.0113 145.077 10.0023 145.381C9.20715 144.729 9.18034 144.005 8.90337 142.701ZM5.44572 82.336C5.42785 82.9347 5.17768 83.8013 4.77563 84.7574C4.91858 84.0247 5.1062 83.2027 5.44572 82.336ZM141.259 7.32698C141.223 7.32698 141.197 7.31804 141.17 7.31804C139.517 6.57644 140.107 6.84449 141.259 7.32698ZM144.717 8.78328C145.092 8.86369 145.083 8.80105 144.958 8.6849C144.672 8.69383 143.895 8.38111 143.01 8.01477C143.225 8.20241 143.636 8.46162 144.717 8.78328ZM131.878 212.393L131.145 212.447C132.709 211.956 132.289 212.17 131.878 212.393Z" fill="#20729E"/>
<path d="M106.28 195.381C151.672 195.381 188.469 158.582 188.469 113.189C188.469 67.7947 151.672 30.9957 106.28 30.9957C60.8889 30.9957 24.0918 67.7947 24.0918 113.189C24.0918 158.582 60.8889 195.381 106.28 195.381Z" fill="#005E90"/>
<path d="M143.618 139.877H68.291V63.787L143.618 60.4543V139.877Z" fill="#231F20"/>
<path d="M74.5899 63.51L68.291 63.787V139.877H74.5899V63.51Z" fill="#231F20"/>
<path d="M169.697 165.476C154.625 183.739 131.806 195.39 106.28 195.39C80.7544 195.39 57.9446 183.748 42.8721 165.485C43.5332 152.949 46.8926 142.066 57.8999 135.017C63.4036 131.487 71.0962 129.128 79.6197 127.663C88.1343 126.18 97.4798 125.59 106.28 125.59C123.89 125.59 143.662 127.967 154.679 135.017C165.677 142.066 169.036 152.94 169.697 165.476Z" fill="#FF527C"/>
<path d="M119.539 123.044V113.305H93.0216V123.044C93.0216 125.134 91.9227 127.02 90.1984 128.199C87.6073 129.986 85.9634 134.32 85.9634 138.376C85.9634 148.759 93.6917 165.958 106.28 165.958C119.325 165.958 126.598 148.759 126.598 138.376C126.598 134.32 124.954 129.986 122.363 128.199C120.638 127.02 119.539 125.134 119.539 123.044Z" fill="#FBCBAB"/>
<path d="M119.539 115.118V124.259C115.152 127.109 112.597 128.003 108.317 128.003C103.126 128.003 100.464 126.698 94.0041 122.15C93.6736 121.918 93.343 121.677 93.0303 121.435V115.127C98.7484 119.077 101.393 120.247 106.289 120.247C111.185 120.229 113.83 119.068 119.539 115.118Z" fill="#DB9172"/>
<path d="M129.26 84.3107C129.26 79.7181 131.824 74.1336 134.987 74.1336C138.15 74.1336 141.393 75.0183 141.393 79.6109C141.393 81.8178 140.392 86.7677 139.418 88.9389C138.373 91.2799 136.622 92.6202 134.978 92.6202C131.824 92.6202 129.26 88.9032 129.26 84.3107Z" fill="#ECA182"/>
<path d="M106.281 37.9648C83.9532 37.9648 77.8599 57.2109 77.8599 80.9421C77.8599 96.6856 82.7828 107.899 91.9585 114.368C98.4182 118.916 101.081 120.22 106.272 120.22C111.471 120.22 114.125 118.916 120.585 114.368C129.769 107.899 134.683 96.6856 134.683 80.9421C134.701 57.2109 128.608 37.9648 106.281 37.9648Z" fill="#FBCBAB"/>
<path d="M134.567 78.8155C134.308 76.7426 133.647 74.893 132.691 73.2311C133.665 74.8305 134.317 76.6711 134.567 78.8155Z" fill="#29235C"/>
<path d="M106.28 37.9648C105.887 37.9648 105.503 37.9827 105.119 38.0006C124.801 38.6707 130.234 57.6308 130.234 80.9511C130.234 96.6945 125.704 107.908 117.243 114.377C111.757 118.576 109.237 120.006 105.128 120.202C105.503 120.22 105.887 120.229 106.289 120.229C111.489 120.229 114.143 118.925 120.602 114.377C129.787 107.908 134.701 96.6945 134.701 80.9511C134.701 57.2109 128.607 37.9648 106.28 37.9648Z" fill="#ECA182"/>
<path d="M77.8687 80.9422C77.8687 57.2019 92.1818 46.3281 92.1818 46.3281C92.1818 46.3281 98.016 55.8526 108.46 59.1765C121.139 63.2151 134.701 68.183 134.701 80.9422C134.701 82.5951 143.618 68.192 143.618 60.4543C143.618 49.2588 135.845 21.9266 106.289 21.9266C72.0076 21.9266 68.2998 52.6183 68.2998 63.7781C68.2998 72.2216 72.9636 80.0129 78.0831 86.3031C77.9402 84.5876 77.8687 82.8006 77.8687 80.9422Z" fill="#231F20"/>
<path d="M91.9139 32.8898C78.4585 35.7401 74.5899 59.2302 74.5899 81.6302C71.0161 76.3138 68.291 70.2381 68.291 63.796C68.291 52.6183 71.9989 21.9355 106.281 21.9355C106.772 21.9355 107.245 21.9445 107.719 21.9534C108.148 21.9713 108.568 21.9803 108.988 22.016C109.354 22.0339 109.72 22.0606 110.078 22.0963C110.524 22.1231 110.98 22.1679 111.418 22.2305C111.713 22.2573 111.999 22.2929 112.285 22.3376C112.526 22.3644 112.758 22.4002 112.99 22.4449C113.339 22.4985 113.687 22.5521 114.036 22.6236C114.429 22.6861 114.813 22.7755 115.197 22.8559C115.206 22.8648 115.215 22.8648 115.215 22.8648C115.608 22.9452 115.992 23.0436 116.368 23.1419C116.725 23.2312 117.073 23.3204 117.413 23.4187C117.467 23.4365 117.52 23.4455 117.574 23.4634C117.851 23.5438 118.119 23.6242 118.396 23.7136C118.494 23.7404 118.583 23.7762 118.682 23.803C119.012 23.9103 119.343 24.0263 119.656 24.1425C119.933 24.2407 120.201 24.3391 120.46 24.4463C120.638 24.5089 120.817 24.5803 120.987 24.6518C121.228 24.7501 121.478 24.8485 121.71 24.9557C123.882 25.876 125.284 26.6264 126.017 27.2429C130.815 31.1743 108.371 29.4052 91.9139 32.8898Z" fill="#2D292A"/>
<path d="M132.557 73.0078C128.456 66.5567 119.021 64.1443 109.291 61.9106C97.4799 59.1944 92.9323 53.3153 92.9323 53.3153C92.9323 53.3153 78.1099 60.7491 78.0742 86.321C77.9401 84.5876 77.8687 82.8096 77.8687 80.9511C77.8687 57.2109 92.1818 46.337 92.1818 46.337C92.1818 46.337 98.016 55.8616 108.46 59.1854C118.101 62.2501 128.241 65.8598 132.557 73.0078Z" fill="#DB9172"/>
</svg>
