<svg width="144" height="143" viewBox="0 0 144 143" fill="none" xmlns="http://www.w3.org/2000/svg">
<path d="M93.2202 60.79C92.5702 60.38 91.7402 59.77 91.1202 59.27C90.8202 59.01 90.5502 58.8 90.4102 58.64C90.2702 58.48 90.2302 58.39 90.3602 58.39L90.2002 58.0699C90.3302 58.1599 90.5202 58.29 90.7402 58.44C90.8502 58.52 90.9702 58.6 91.0902 58.68C91.2102 58.77 91.3402 58.86 91.4702 58.96C91.9902 59.35 92.5702 59.78 93.0302 60.15C93.9802 60.89 94.4602 61.38 93.2202 60.79Z" fill="#4CA4DB"/>
<path d="M90.5502 63.84L90.9302 64.1999C90.5502 63.8399 89.9402 63.38 89.5402 63.09C89.5902 62.95 90.4601 63.38 91.2501 64.03C91.0101 63.98 90.2002 63.41 90.5502 63.84Z" fill="#4CA4DB"/>
<path d="M68.4603 50.75C68.2503 50.96 68.6003 51.24 69.2303 51.53C69.5403 51.69 69.9303 51.84 70.3603 52.02C70.5803 52.11 70.8002 52.2 71.0402 52.29C71.2702 52.38 71.5202 52.49 71.7602 52.58C71.4602 52.77 71.1602 52.96 70.8802 53.16C70.1602 52.87 69.0102 52.72 67.7502 52.75C66.4902 52.77 65.1502 52.98 64.0002 53.25C63.7902 53.34 63.8203 53.37 63.9503 53.37C64.0803 53.37 64.3103 53.34 64.4903 53.35C64.6803 53.35 64.8202 53.35 64.7802 53.39C64.7602 53.41 64.6902 53.44 64.5602 53.48C64.4902 53.5 64.4102 53.52 64.3102 53.55C64.2102 53.58 64.1003 53.62 63.9603 53.66C63.6903 53.62 63.8303 53.4 63.3303 53.44C62.8503 53.64 62.5603 53.79 62.3503 53.95C62.1403 54.11 61.9902 54.26 61.7602 54.42C61.6502 54.5 61.5303 54.6 61.3703 54.7C61.2903 54.75 61.2103 54.8 61.1103 54.86C61.0103 54.92 60.9102 54.97 60.7902 55.04C60.6802 55.11 60.5502 55.18 60.4102 55.26C60.2702 55.34 60.1203 55.42 59.9603 55.52C59.8003 55.62 59.6202 55.73 59.4302 55.84C59.2402 55.96 59.0503 56.1 58.8303 56.25C58.6003 56.33 58.4002 56.45 58.1802 56.55L57.8503 56.71C57.7403 56.77 57.6402 56.83 57.5402 56.89C56.2002 58.17 55.2202 59.81 54.6402 61.6C54.0602 63.4 53.8602 65.34 53.9202 67.29C53.9802 69.24 54.2803 71.2 54.7003 73.11C55.1203 75.03 55.6702 76.91 56.2502 78.74C56.4502 79.03 56.6903 79.48 56.9503 80.02C57.2203 80.57 57.5303 81.1999 57.8503 81.8599C58.5003 83.1899 59.1502 84.67 59.8202 85.69L59.6502 85.84C60.1302 86.38 60.5202 87.23 60.9102 88.14C60.9602 88.25 61.0102 88.3699 61.0502 88.4799L61.2103 88.82C61.3203 89.04 61.4202 89.2699 61.5202 89.4899C61.7302 89.9299 61.9402 90.3499 62.1602 90.7299L62.7303 92.19C62.7103 92.89 60.4202 88.3699 60.6302 89.8499C60.9702 90.6199 61.3403 91.3 61.7203 91.93C61.9103 92.24 62.1002 92.55 62.2902 92.84C62.5002 93.12 62.7002 93.4 62.9002 93.67C63.3002 94.22 63.6902 94.75 64.0602 95.31C64.4302 95.87 64.7503 96.4699 65.0803 97.1099C65.8203 98.2899 66.2002 98.78 66.5202 99.15C66.6802 99.33 66.8302 99.48 67.0102 99.67C67.1002 99.77 67.1902 99.8699 67.3002 99.9899C67.4102 100.11 67.5302 100.25 67.6702 100.41C68.1102 100.64 67.5102 99.84 67.8202 99.84C68.7702 101.07 69.4303 102.04 69.9503 102.89C70.2003 103.32 70.4502 103.69 70.6602 104.06C70.8802 104.42 71.0702 104.77 71.2602 105.11C71.6502 105.79 72.0102 106.46 72.5102 107.22C73.0302 107.96 73.6903 108.78 74.6203 109.8C74.6903 109.81 74.9403 110 75.2403 110.24C75.3903 110.36 75.5603 110.48 75.7203 110.59C75.8803 110.7 76.0402 110.81 76.1802 110.89C76.4502 111.05 76.6303 111.12 76.5903 110.94C76.5703 110.85 76.4802 110.71 76.3202 110.49C76.1602 110.27 75.9203 109.98 75.6203 109.57L74.1802 108.27L73.5002 107.12C74.5002 108.24 76.2802 110.33 76.2702 109.91C76.4602 110.4 77.0303 111.08 77.7303 111.79C78.0803 112.14 78.4503 112.5 78.8303 112.85C79.0103 113.03 79.2102 113.19 79.4002 113.34C79.5902 113.5 79.7703 113.65 79.9503 113.79C81.3403 114.94 82.1503 115.59 80.2203 114.6C79.7903 114.12 79.4402 113.73 79.1302 113.4C79.0502 113.32 78.9802 113.24 78.9002 113.16C78.8302 113.08 78.7602 113.01 78.6902 112.93C78.5602 112.79 78.4302 112.65 78.3002 112.53C77.7902 112.03 77.3103 111.67 76.6103 111.18C77.1003 111.71 77.5802 112.24 78.0602 112.75C78.3002 113.01 78.5302 113.27 78.7702 113.52C79.0102 113.77 79.2503 114.01 79.4903 114.26C79.9703 114.75 80.4402 115.23 80.9002 115.71C81.1302 115.95 81.3603 116.19 81.5903 116.42C81.8203 116.66 82.0602 116.87 82.3002 117.1C83.2402 117.99 84.1603 118.88 85.0803 119.71C86.0203 120.52 86.9602 121.3 87.8802 122.06C88.1002 122.16 88.3202 122.26 88.5402 122.35L89.2103 122.62C89.1403 122.79 89.5402 123.27 90.1802 123.89C90.8202 124.5 91.6903 125.28 92.6203 125.95C93.4803 126.44 94.5203 127.18 94.3603 126.86C94.4803 126.88 94.1202 126.59 93.5602 126.17C93.2802 125.96 92.9503 125.72 92.6203 125.47C92.2803 125.22 91.9303 124.97 91.6203 124.7C90.3603 123.66 89.5103 122.86 91.3403 123.82C91.6003 124.03 91.8603 124.23 92.1203 124.44C92.3803 124.64 92.6602 124.83 92.9202 125.03C93.4602 125.43 93.9902 125.82 94.5202 126.21C94.7902 126.41 95.0502 126.61 95.3102 126.8C95.4402 126.9 95.5703 127 95.7003 127.1C95.8303 127.2 95.9703 127.29 96.1003 127.38C96.6303 127.75 97.1502 128.11 97.6602 128.48C98.1702 128.85 98.6602 129.2 99.1402 129.55C99.3802 129.73 99.6203 129.88 99.8603 130.04C100.1 130.2 100.33 130.36 100.55 130.51C101.45 131.13 102.26 131.72 102.95 132.25C100.73 131.1 99.1903 130.2 96.7003 129.19C96.2103 128.92 95.7103 128.65 95.2103 128.37C94.9603 128.24 94.7203 128.08 94.4803 127.93C94.2403 127.78 94.0002 127.63 93.7502 127.47C93.2702 127.16 92.7802 126.85 92.3002 126.54C92.0602 126.38 91.8102 126.23 91.5702 126.07C91.4502 125.99 91.3303 125.91 91.2103 125.83L90.8603 125.58C89.9203 124.9 88.9802 124.22 88.0302 123.54L87.6802 123.28C87.5602 123.19 87.4503 123.1 87.3403 123.01L86.6602 122.47C86.2002 122.11 85.7502 121.74 85.2902 121.38L84.6103 120.84C84.3803 120.66 84.1502 120.48 83.9402 120.29C83.5002 119.91 83.0603 119.53 82.6203 119.15C82.1803 118.77 81.7402 118.4 81.3102 118.02C81.0902 117.83 80.8702 117.65 80.6602 117.46C80.4502 117.27 80.2402 117.07 80.0302 116.88C79.1902 116.11 78.3502 115.35 77.5002 114.6C76.6902 113.82 75.8802 113.06 75.0702 112.32C75.0502 112.11 74.6503 111.59 74.3603 111.13C74.0703 110.67 73.8702 110.31 74.1902 110.48C73.7902 109.75 72.1702 108.2 72.0502 107.52C71.4902 106.89 70.9203 106.25 70.3503 105.59C70.0703 105.26 69.7803 104.92 69.4903 104.59C69.3503 104.42 69.2002 104.25 69.0602 104.08C68.9202 103.9 68.7902 103.73 68.6502 103.55C68.1102 102.84 67.5702 102.12 67.0302 101.4L66.6302 100.86C66.5602 100.77 66.4902 100.68 66.4302 100.59L66.2403 100.31C65.9903 99.94 65.7403 99.56 65.4903 99.19C64.9903 98.44 64.5002 97.7001 64.0202 96.9701C63.5702 96.2201 63.1202 95.4699 62.6802 94.7399C62.4602 94.3699 62.2502 94.01 62.0302 93.65C61.9202 93.47 61.8203 93.29 61.7103 93.12C61.6103 92.94 61.5102 92.76 61.4202 92.58C61.0302 91.87 60.6602 91.17 60.2902 90.5C60.4202 91.4 59.8902 90.6399 59.1802 89.4799C58.5202 88.2999 57.7203 86.71 57.2203 86C57.1603 85.8 57.0902 85.6 57.0102 85.38C56.9402 85.16 56.8502 84.92 56.7602 84.68C56.5802 84.2 56.3602 83.68 56.1302 83.16C55.9002 82.64 55.6502 82.1 55.4102 81.59C55.1702 81.07 54.9602 80.56 54.7802 80.09C54.5902 79.92 54.1202 78.75 54.0602 79.1C54.3602 79.8 54.5302 80.28 54.6902 80.78C54.7702 81.03 54.8503 81.28 54.9503 81.56C55.0503 81.84 55.1602 82.14 55.3102 82.5C55.1402 82.4 54.9702 82.16 54.8002 81.82C54.7102 81.65 54.6302 81.4499 54.5502 81.2399C54.4702 81.0299 54.3902 80.79 54.3102 80.54C53.9902 79.54 53.6803 78.31 53.3503 77.21C53.5503 77.57 53.7603 77.92 53.9703 78.28C53.3603 76.46 52.9902 74.38 52.7602 72.36C52.5402 70.33 52.4602 68.38 52.2802 66.68C52.1002 67.64 51.9902 68.62 51.9302 69.62C51.7802 68.55 51.7402 67.41 51.8102 66.26C51.8802 65.11 52.0703 63.95 52.3403 62.85C52.6203 61.75 52.9902 60.72 53.3902 59.79C53.7902 58.86 54.2203 58.03 54.5803 57.29C54.1203 57.86 53.6602 58.59 53.2802 59.36C52.9002 60.14 52.6102 60.97 52.3802 61.72C52.2702 62.1 52.1703 62.45 52.0903 62.77C52.0503 62.93 52.0103 63.08 51.9703 63.22C51.9403 63.36 51.9003 63.49 51.8703 63.61C51.7203 64.08 51.6103 64.36 51.4603 64.32C51.3903 64.27 51.3502 64.01 51.3802 63.63C51.3902 63.44 51.4103 63.22 51.4503 62.98C51.4903 62.74 51.5403 62.48 51.6003 62.21C51.6703 61.94 51.7403 61.66 51.8303 61.38C51.9203 61.1 52.0103 60.82 52.1203 60.56C52.2303 60.3 52.3403 60.04 52.4503 59.81C52.5703 59.58 52.6802 59.37 52.7802 59.19C53.2402 58.41 53.7402 57.68 54.2502 57C54.7802 56.33 55.3202 55.7 55.9002 55.13C57.0502 53.98 58.3202 53.04 59.6702 52.31C61.0202 51.58 62.4502 51.06 63.9302 50.78C65.4302 50.54 66.9503 50.5 68.4603 50.75Z" fill="#4CA4DB"/>
<path d="M58.7001 51.89C58.5301 51.98 58.3602 52.07 58.2102 52.16C58.0602 52.26 57.9201 52.35 57.7801 52.44C57.5101 52.62 57.2601 52.78 57.0601 52.95C56.8501 53.12 56.6701 53.27 56.5101 53.41C56.3501 53.55 56.2202 53.6899 56.1002 53.8199C55.8702 54.0799 55.6901 54.28 55.5601 54.47C55.4301 54.67 55.3302 54.8399 55.2402 55.0099C55.0402 55.3399 54.8801 55.68 54.5301 56.2C54.2001 56.74 53.6602 57.46 52.9702 58.73C52.9802 58.53 52.8902 58.53 52.7402 58.67C52.6602 58.74 52.5702 58.85 52.4602 58.98C52.3602 59.12 52.2501 59.28 52.1401 59.47C52.0801 59.56 52.0202 59.66 51.9602 59.77C51.9102 59.88 51.8501 59.99 51.7901 60.1C51.6801 60.33 51.5602 60.5699 51.4602 60.8199C51.2502 61.3199 51.0902 61.8399 50.9602 62.3199C50.8202 63.2599 50.6902 64.28 50.5902 65.27C50.5002 66.26 50.4402 67.22 50.4802 68.03C50.4602 68.58 50.3701 68.83 50.2501 68.66C50.1901 68.58 50.1202 68.39 50.0802 68.09C50.0302 67.79 49.9901 67.36 50.0001 66.81C50.0901 66.13 50.2001 65.43 50.3001 64.71C50.4301 63.99 50.5402 63.26 50.7202 62.52C50.8802 61.78 51.1002 61.03 51.3502 60.29C51.4802 59.92 51.6101 59.55 51.7701 59.18C51.8501 59 51.9201 58.8099 52.0101 58.6299L52.2701 58.09C52.3501 57.91 52.4601 57.74 52.5501 57.56C52.6501 57.39 52.7402 57.21 52.8502 57.04C53.0702 56.7 53.2701 56.36 53.5101 56.05C53.6301 55.89 53.7402 55.7299 53.8602 55.5699C53.9902 55.4199 54.1102 55.27 54.2402 55.12L54.4301 54.9C54.5001 54.83 54.5701 54.76 54.6301 54.69C54.7701 54.55 54.9101 54.41 55.0401 54.28C56.1901 53.19 57.4501 52.38 58.7001 51.89Z" fill="#4CA4DB"/>
<path d="M51.0702 68.64C51.1302 69.56 51.2602 71.0799 51.4002 72.3799C51.5302 73.6899 51.6503 74.79 51.4603 74.9C51.5003 75.17 51.1602 74.7799 51.5002 75.7599C51.3502 74.9599 51.0202 73.3799 50.8802 71.8799C50.7302 70.3999 50.7902 69 51.0702 68.64Z" fill="#4CA4DB"/>
<path d="M52.0903 70.93C52.2203 70.74 52.3003 71.11 52.3503 71.59C52.3803 71.83 52.4102 72.1 52.4302 72.34C52.4502 72.58 52.4802 72.79 52.5102 72.91C52.5302 73.27 52.5603 73.62 52.6003 73.98C52.2903 73.02 52.0203 71.76 52.0903 70.93Z" fill="#4CA4DB"/>
<path d="M55.9902 85.8699C56.2402 86.4699 56.2802 86.63 56.2002 86.57C56.1202 86.51 55.9301 86.2499 55.7601 85.9799C55.4301 85.4499 55.1102 84.98 55.7402 86.41C55.4702 85.88 55.2202 85.33 54.9602 84.79L55.1501 83.9799L55.9902 85.8699Z" fill="#4CA4DB"/>
<path d="M57.3602 89.65C57.7802 90.27 58.2001 90.9099 58.7501 92.1199L58.2402 91.57C58.0902 91.37 57.9902 91.12 57.8602 90.81C57.8002 90.65 57.7301 90.48 57.6401 90.29C57.5701 90.09 57.4802 89.88 57.3602 89.65Z" fill="#4CA4DB"/>
<path d="M56.8603 86.0901C57.5203 87.1601 57.2103 87.1 57.4703 87.86C57.1303 87.51 56.2503 84.9801 56.8603 86.0901Z" fill="#4CA4DB"/>
<path d="M65.4202 95.3699C64.9602 94.9899 64.4702 94.28 63.9502 93.44C63.6902 93.02 63.4101 92.57 63.1401 92.09C62.8801 91.61 62.6002 91.13 62.3002 90.66C62.8902 91.6 63.3302 92.25 63.8302 92.91C64.3102 93.58 64.8002 94.2899 65.4202 95.3699Z" fill="#4CA4DB"/>
<path d="M96.1301 62.25C95.5301 62.09 95.6601 62.27 96.1301 62.68C96.3701 62.89 96.6802 63.16 97.0402 63.47C97.2202 63.63 97.4102 63.8 97.5902 63.98C97.7802 64.16 97.9602 64.36 98.1502 64.56C98.6902 65.03 99.2602 65.48 99.8402 65.92C100.42 66.36 101.02 66.79 101.59 67.24C102.17 67.69 102.75 68.13 103.32 68.59C103.6 68.82 103.89 69.04 104.16 69.27C104.44 69.5 104.7 69.75 104.96 69.99L106.41 70.98C105.81 70.37 105.1 69.65 104.29 68.89C103.47 68.14 102.59 67.34 101.67 66.53C99.8102 64.94 97.8401 63.36 96.1301 62.25Z" fill="#4CA4DB"/>
<path d="M125.85 93.42C125.33 92.68 124.79 91.8399 124.21 90.9799C123.61 90.1299 122.98 89.23 122.33 88.34C122.17 88.12 122 87.89 121.84 87.67C121.67 87.45 121.5 87.24 121.32 87.02C120.97 86.59 120.62 86.1699 120.26 85.7499C119.9 85.3399 119.55 84.94 119.18 84.55C118.82 84.17 118.43 83.8199 118.06 83.4899C118.61 84.2299 118.87 84.6199 119.19 85.1299C119.51 85.6399 119.92 86.25 120.77 87.4C119.86 86.75 119.2 85.87 118.56 84.9C117.9 83.95 117.25 82.91 116.41 81.93C117.04 82.78 116.85 82.72 116.37 82.28C116.12 82.06 115.82 81.74 115.47 81.41C115.13 81.08 114.77 80.71 114.46 80.39C114.19 80.06 113.9 79.71 113.59 79.34C113.28 78.97 112.96 78.58 112.59 78.2C111.87 77.43 111.09 76.6 110.28 75.75C110.08 75.53 109.87 75.33 109.65 75.12C109.44 74.91 109.22 74.7 109.01 74.49C108.58 74.07 108.15 73.65 107.71 73.23C107.49 73.02 107.28 72.81 107.06 72.6C106.84 72.4 106.62 72.19 106.4 71.99C105.96 71.59 105.52 71.19 105.09 70.8C104.89 70.65 104.64 70.45 104.36 70.21C104.22 70.09 104.07 69.96 103.92 69.83C103.76 69.7 103.6 69.56 103.43 69.42C102.76 68.85 102.02 68.21 101.36 67.64C100.7 67.06 100.06 66.58 99.6302 66.3C99.2002 66.02 98.9602 65.95 99.0502 66.21C98.5002 65.78 98.0803 65.42 97.7403 65.09C97.5703 64.93 97.4202 64.7799 97.2902 64.6299C97.1502 64.49 97.0202 64.35 96.9002 64.22C96.4102 63.69 96.0102 63.2 95.2102 62.51C92.5002 60.93 90.4002 59.08 88.1702 57.26C87.8902 57.03 87.6102 56.8 87.3302 56.57C87.0402 56.35 86.7602 56.12 86.4602 55.9C85.8702 55.46 85.2603 55.03 84.6103 54.61C83.3103 53.79 81.8702 53.04 80.2002 52.5C80.3302 52.46 80.2402 52.35 80.0001 52.18C79.7601 52.02 79.3702 51.81 78.9202 51.6C78.0202 51.18 76.8702 50.76 76.2102 50.53C75.8602 50.4 75.4302 50.28 74.9602 50.14C74.7302 50.07 74.4803 50.01 74.2303 49.94C74.1003 49.91 73.9802 49.87 73.8502 49.84C73.7202 49.81 73.5902 49.78 73.4602 49.75C73.1902 49.69 72.9302 49.63 72.6602 49.58C72.3902 49.53 72.1102 49.49 71.8402 49.44C71.5702 49.39 71.2902 49.37 71.0302 49.34C70.7602 49.31 70.5001 49.28 70.2501 49.27C69.7401 49.25 69.2703 49.22 68.8703 49.25C68.4603 49.27 68.1203 49.29 67.8703 49.35C67.3603 49.45 67.2203 49.58 67.6203 49.74C67.8803 49.79 68.1703 49.82 68.4903 49.86C68.6503 49.88 68.8103 49.89 68.9803 49.9C69.1503 49.91 69.3302 49.92 69.5102 49.94C70.2302 49.99 71.0502 50.05 71.8802 50.16C73.5402 50.37 75.3302 50.79 76.7002 51.53C77.8802 52.16 78.1102 52.39 77.8402 52.35C77.7002 52.33 77.4302 52.25 77.0802 52.14C76.7302 52.02 76.2802 51.89 75.8002 51.74C74.8302 51.45 73.6801 51.15 72.7501 51.02C71.8201 50.88 71.1302 50.87 71.0902 51.02C71.1902 51.02 71.2803 51.03 71.3603 51.04C71.4503 51.06 71.5303 51.09 71.6203 51.12C71.7903 51.18 71.9702 51.27 72.2002 51.36C72.6602 51.55 73.2902 51.77 74.4102 51.97C73.2202 51.72 72.7402 51.71 72.6502 51.77C72.5602 51.83 72.8502 51.99 73.2102 52.16C73.5702 52.34 73.9902 52.55 74.1702 52.7C74.3502 52.85 74.2902 52.92 73.6802 52.86C73.8402 52.91 73.9902 52.97 74.1402 53.02C74.2902 53.08 74.4302 53.13 74.5602 53.18C74.8302 53.28 75.0802 53.38 75.3102 53.48C75.5402 53.58 75.7502 53.67 75.9502 53.76C76.1502 53.85 76.3302 53.94 76.5001 54.02C76.8401 54.18 77.1203 54.33 77.3603 54.46C77.6003 54.59 77.8102 54.72 78.0001 54.84C78.3701 55.08 78.6603 55.3 78.9803 55.59C79.3103 55.87 79.6602 56.21 80.1702 56.68C80.5302 56.85 80.8302 56.99 81.0902 57.1C81.3502 57.21 81.5701 57.3 81.7501 57.36C82.1201 57.48 82.3502 57.52 82.5202 57.51C82.8702 57.5 82.9802 57.32 83.4502 57.43C84.2302 57.8 84.9302 58.22 85.5902 58.66C85.9202 58.88 86.2302 59.11 86.5402 59.34C86.8502 59.57 87.1402 59.8 87.4402 60.03C88.0302 60.49 88.6002 60.9399 89.1902 61.3799C89.7702 61.83 90.3503 62.27 90.9903 62.66C89.8003 62.39 90.7102 63.26 92.2702 64.45C93.0302 65.07 93.9603 65.77 94.8703 66.45C95.1003 66.62 95.3302 66.79 95.5402 66.96C95.7602 67.13 95.9702 67.3 96.1802 67.47C96.5902 67.8 96.9802 68.1099 97.3302 68.3799C98.2002 69.0999 98.7503 69.48 99.1203 69.71C99.4903 69.93 99.7102 69.99 99.9402 70.05C100.16 70.11 100.39 70.17 100.79 70.42C100.99 70.55 101.23 70.72 101.53 70.96C101.83 71.2 102.21 71.5 102.64 71.93C103 72.42 102.94 72.49 102.66 72.35C102.39 72.21 101.91 71.87 101.43 71.57C100.48 70.95 99.6002 70.4 100.63 71.61L101.53 72.26C101.83 72.48 102.11 72.71 102.41 72.93C103.05 73.27 103.66 73.55 104.28 73.86C104.59 74.02 104.91 74.18 105.24 74.37C105.56 74.56 105.89 74.78 106.24 75.03C106.96 75.73 108.05 76.79 107.98 76.92C106.45 75.64 106.65 76.32 107.97 77.92C108.74 78.51 108.93 78.66 109.36 78.9C108.32 77.07 109.07 77.84 110.38 79.27C110.54 79.45 110.72 79.64 110.9 79.83C111.08 80.02 111.26 80.23 111.45 80.44C111.82 80.86 112.2 81.3 112.57 81.71C113.32 82.54 114.08 83.2899 114.64 83.7499C116.14 85.2199 117.03 86.2099 117.55 86.9899C118.08 87.7699 118.29 88.29 118.48 88.82C118.67 89.35 118.86 89.88 119.3 90.68C119.52 91.08 119.82 91.5499 120.22 92.1099C120.62 92.6699 121.14 93.33 121.75 94.15C121.4 92.86 122.26 93.91 123.44 95.54C124.04 96.35 124.66 97.3399 125.27 98.2399C125.57 98.6899 125.87 99.12 126.14 99.51C126.28 99.7 126.41 99.88 126.52 100.05C126.64 100.22 126.75 100.37 126.86 100.5C128.01 102.48 128.24 103.3 128.75 104.84C129.14 105.34 130.03 106.86 130.31 107.01C130.42 106.59 130.4 105.95 130.27 105.13C130.21 104.72 130.11 104.26 129.99 103.75C129.87 103.25 129.74 102.69 129.55 102.12C129.37 101.54 129.16 100.93 128.92 100.27C128.8 99.94 128.68 99.61 128.55 99.27C128.42 98.93 128.3 98.57 128.14 98.22C127.84 97.52 127.53 96.78 127.19 96.02C127.02 95.64 126.85 95.2499 126.67 94.8599C126.49 94.4699 126.29 94.08 126.1 93.68C125.98 93.53 125.86 93.41 125.85 93.42Z" fill="#4CA4DB"/>
<path d="M57.05 45.05C56.59 44.99 55.88 44.62 56.09 44.39L56.06 44.19C56.42 44.33 57.97 44.84 57.05 45.05Z" fill="#4CA4DB"/>
<path d="M55.7101 48.85L55.8401 48.96C55.7101 48.85 55.4901 48.7399 55.3401 48.6999C55.3701 48.5599 55.7001 48.51 55.9801 48.67C55.8901 48.75 55.6001 48.66 55.7101 48.85Z" fill="#4CA4DB"/>
<path d="M48.9401 43.55C48.8301 43.74 48.93 44.05 49.05 44.37C49.16 44.68 49.3601 45.0199 49.6101 45.3199L49.15 45.93C49.06 45.81 48.92 45.7099 48.78 45.6299C48.71 45.5699 48.61 45.5399 48.51 45.5099C48.31 45.4499 48.1101 45.45 47.9401 45.4C47.9001 45.47 48.0101 45.56 48.0701 45.65C48.1401 45.74 48.1601 45.81 48.0801 45.86C48.0101 45.73 47.9601 45.52 47.8501 45.41C47.7501 45.48 47.84 45.7099 47.89 45.8799C47.92 45.9699 47.9401 46.0399 47.9301 46.0699C47.9201 46.0999 47.88 46.1 47.76 46.02C47.59 45.84 47.4001 45.66 47.1801 45.47L47.13 45.46C47.2 45.69 47.31 45.96 47.42 46.2C47.53 46.44 47.6501 46.64 47.7401 46.79L47.8 46.9L47.8301 46.95L47.9 47.17C47.99 47.47 48.08 47.7699 48.16 48.0699C48.32 48.6699 48.44 49.27 48.5 49.87C48.96 50.2 49.1501 51.4499 49.5601 52.1299L49.3601 52.2C49.8201 52.53 49.5601 53.36 49.7401 53.87L49.66 54.39C49.36 54.66 49.16 53.09 48.75 53.64C48.71 54.72 49.66 55.21 49.51 56.16C49.63 57.02 49.8501 56.86 50.0901 57.35C50.3401 57.43 50.25 57.13 50.51 57.12C51.12 58.96 50.03 59.33 50.55 60.96C50.74 60.98 51.5101 62.18 51.4601 60.89L51.0901 60.36L51.2301 59.9C51.3501 60.35 51.54 61.19 51.76 61.03C51.12 61.82 53.29 63.94 51.77 62.99C51.77 62.17 51.6801 61.96 51.2301 61.54C51.6001 63.3 51.66 64.91 52.01 66.35L52.4701 66.68C52.1301 66.8 52.07 67.5499 52.16 68.2599C52.31 68.5399 52.38 68.92 52.53 68.79C52.78 68.87 52.0301 66.26 52.9501 67.33C53.2101 68.96 53.3101 70.7299 53.0701 71.8799C52.8001 71.1499 52.7601 70.59 52.0901 69.92C50.9501 67.36 50.5901 64.38 49.3601 61.93C49.5801 61.77 49.5 61.06 49.8 61.21C49.91 60.93 49.5601 60.31 49.8601 60.04C49.0001 58.12 48.6101 55.72 48.1901 53.9C47.7001 54.56 47.51 52.91 47.13 52.46C47.28 51.92 46.95 51.13 46.79 50.53C46.67 50.49 46.53 50.1299 46.38 50.2599C46.57 50.6899 46.47 50.88 46.53 51.36C46.03 51.29 46.3 50.37 46.15 49.69L46.4901 49.98C46.3501 49.41 46.4 48.74 46.39 48.1C46.39 47.94 46.3801 47.7799 46.3701 47.6299C46.3601 47.4799 46.3301 47.31 46.3101 47.2C46.2601 46.95 46.1701 46.73 45.9901 46.49C45.9001 46.73 45.81 47.02 45.75 47.37C45.61 47.04 45.5201 46.66 45.4501 46.29C45.3801 45.92 45.33 45.57 45.28 45.24C45.23 44.91 45.1701 44.5899 45.0601 44.2599C44.9501 43.9299 44.79 43.57 44.54 43.12C44.54 43.31 44.6101 43.59 44.6801 43.87C44.7501 44.16 44.84 44.46 44.9 44.72C44.96 44.98 45.0001 45.2 44.9701 45.34C44.9501 45.48 44.8701 45.55 44.6901 45.48C44.5001 45.39 44.3201 44.99 44.1901 44.54C44.0601 44.09 43.9701 43.6 43.9801 43.35C44.0001 42.88 43.92 42.4 43.77 41.85C44.22 41.98 44.61 42.0599 45 42.1299C45.4 42.1999 45.8001 42.26 46.2301 42.36C46.6601 42.46 47.1301 42.59 47.5901 42.78C48.0601 42.99 48.5301 43.24 48.9401 43.55Z" fill="#4CA4DB"/>
<path d="M44.4901 41.02C42.9501 40.55 43.03 40.8499 43 41.0699C43.16 41.3499 43.3201 41.62 43.4501 41.93C43.5901 42.25 43.7101 42.61 43.8101 43.09C43.5601 42.77 43.4201 42.81 43.3701 43.08C43.3201 43.34 43.3701 43.8299 43.4601 44.2599C43.6801 44.7399 43.81 45.1899 43.91 45.6299C44.01 46.0699 44.0901 46.5 44.1901 46.87C44.2501 47.37 43.84 47.3799 43.55 46.2599C43.56 45.3299 43.34 44.4 43.02 43.33C42.86 42.8 42.68 42.24 42.5 41.67C42.32 41.1 42.14 40.53 42 40C42.8 40.25 43.6501 40.57 44.4901 41.02Z" fill="#4CA4DB"/>
<path d="M44.8201 47.1299C44.8501 47.2199 44.88 47.33 44.91 47.45C44.94 47.57 44.9701 47.71 44.9801 47.79C45.0101 47.98 45.03 48.19 45.03 48.39C45.03 48.79 44.96 49.14 44.76 49.21C44.75 49.3 44.5 49.22 44.65 49.49C44.66 49.24 44.5901 48.77 44.5801 48.33C44.5801 48.22 44.5801 48.11 44.5901 48C44.5901 47.95 44.6001 47.9 44.6101 47.85C44.6101 47.83 44.6201 47.8 44.6201 47.78C44.6201 47.74 44.62 47.71 44.63 47.68C44.63 47.4 44.6901 47.2099 44.8201 47.1299Z" fill="#4CA4DB"/>
<path d="M45.8101 47.78C46.1001 47.6 46.0001 48.21 46.0401 48.36L45.9902 48.71C45.8402 48.43 45.7001 48.07 45.8101 47.78Z" fill="#4CA4DB"/>
<path d="M46.03 52.54C46.1 53.34 45.4301 51.85 45.6101 52.77L45.4301 52.2599L45.8701 51.95L46.03 52.54Z" fill="#4CA4DB"/>
<path d="M45.89 53.8199C46.05 54.0099 46.15 54.2199 46.15 54.6299L45.92 54.46C45.81 54.34 45.97 54.1199 45.89 53.8199Z" fill="#4CA4DB"/>
<path d="M46.7301 52.54C46.9301 52.88 46.68 52.89 46.63 53.15C46.46 53.05 46.6001 52.18 46.7301 52.54Z" fill="#4CA4DB"/>
<path d="M50.5801 55.48C50.1001 55.23 50.1601 54.48 49.8701 53.84C50.1601 54.48 50.4501 54.7 50.5801 55.48Z" fill="#4CA4DB"/>
<path d="M62.54 46.43C62.81 46.66 63.2001 46.6699 63.4501 46.6299L63.3301 46.44L62.54 46.43Z" fill="#4CA4DB"/>
<path d="M58.14 44.81C57.66 45.16 58.3101 45.12 58.8201 45.65C59.6101 46 60.59 45.92 61.4 46.2L61.9801 46.11C61.0501 45.64 59.38 44.95 58.14 44.81Z" fill="#4CA4DB"/>
<path d="M70.52 48.6999C69.48 48.3899 68.1501 47.58 66.8401 47.79C67.3401 48.05 67.3001 48.19 68.1001 48.54C67.3001 48.94 66.8601 48.0599 66.1201 47.8299C66.6801 48.1499 65.81 48.1499 65.28 48.0299C64.35 47.5699 62.78 47.13 61.44 46.73C60.8 46.76 59.0301 45.82 59.1101 46.48C58.2801 46.27 58.31 45.7899 57.75 45.4699C55.74 45.5799 54.9301 43.1999 52.7401 43.4099C52.9701 43.0999 51.99 42.8499 51.63 42.6999C51.23 42.5599 50.5401 42.33 49.9901 42.23C49.9601 42.22 49.92 42.2199 49.89 42.2099C49.83 42.1999 49.7701 42.18 49.7201 42.17C49.6001 42.14 49.49 42.12 49.38 42.11C49.17 42.08 49.0001 42.0599 48.8701 42.0699C48.6101 42.0799 48.5501 42.19 48.7201 42.42C48.9501 42.61 49.22 42.7399 49.54 42.8499C49.58 42.8599 49.62 42.8799 49.66 42.8899C49.69 42.8999 49.7101 42.8999 49.7401 42.9099C49.7901 42.9199 49.85 42.9299 49.9 42.9499C50.01 42.9699 50.13 42.9899 50.25 43.0099C50.73 43.0899 51.2401 43.1799 51.6001 43.5299C52.8501 44.6899 49.98 43.3099 49.77 43.8799C50.02 43.8399 49.97 44.3899 50.68 44.4099C49.21 44.2299 51.0501 45.23 50.2301 45.36C51.7001 46.21 51.5601 46.1699 52.1201 47.1599C53.1101 47.3399 53.0101 46.75 53.3701 46.56C54.4701 46.59 55.0601 47.5199 55.9801 47.6399C55.0301 48.3299 57.23 48.8 58.27 49.11C59.59 49.58 58.9701 48.46 60.3601 48.99C60.9301 49.65 58.75 49.11 59.53 49.87L60.2401 49.8899C60.7701 49.6699 61.24 49.33 61.82 49.24C62.12 49.33 62.56 49.4599 62.53 49.5999C61.9 49.5599 61.97 49.9599 62.52 50.3499C62.85 50.2999 62.9301 50.29 63.1101 50.19C62.2301 48.84 64.38 50.53 65.4 50.24C68.1 50.22 66.3201 51.7899 68.8601 52.1399C68.3901 51.0599 70.5901 52.2099 71.4801 52.1399C72.1401 52.3799 72.31 52.6899 72.69 53.0999C72.9 53.0699 73.43 53.18 73.56 53.04C73.55 51.79 72.34 50.2299 70.63 48.6599C70.58 48.6699 70.52 48.6799 70.52 48.6999Z" fill="#4CA4DB"/>
<path d="M90.8401 138.7C90.6301 138.74 90.35 138.71 90.14 138.63C89.93 138.54 89.8 138.42 89.88 138.29C89.86 138.23 89.8401 138.17 89.8301 138.1C89.9101 138.12 90.0601 138.14 90.2201 138.18C90.3801 138.2 90.5601 138.24 90.7101 138.28C91.0101 138.33 91.2001 138.46 90.8401 138.7Z" fill="#4CA4DB"/>
<path d="M90.6201 142.72L90.8501 142.79C90.7401 142.75 90.6001 142.73 90.4601 142.71C90.3201 142.69 90.1901 142.67 90.0801 142.66C90.0801 142.52 90.49 142.4 90.92 142.47C90.82 142.58 90.3901 142.57 90.6201 142.72Z" fill="#4CA4DB"/>
<path d="M83.2401 136.25C82.8601 136.49 82.8601 137.35 83.2101 138.16C82.9901 138.29 82.76 138.42 82.53 138.54C82.41 138.22 82.1001 137.91 81.7301 137.6C81.3701 137.29 80.9501 136.98 80.6201 136.67C80.2701 136.54 81.06 137.42 80.31 136.92C80.31 136.77 80.49 136.69 80.4 136.51C79.71 136.09 79.6001 136.79 78.4901 135.44C78.4401 135.22 78.4001 135 78.3501 134.78C78.1001 134.5 77.84 134.23 77.5801 133.97C77.4501 133.84 77.31 133.7 77.18 133.57L76.9801 133.37L76.79 133.16C76.28 132.61 75.7401 132.07 75.2301 131.51C74.7401 130.94 74.25 130.36 73.81 129.77C73.39 129.16 73 128.54 72.68 127.91C72.38 127.8 72.08 127.41 71.76 126.97C71.6 126.75 71.44 126.52 71.27 126.3C71.19 126.19 71.1 126.09 71.02 125.99C70.94 125.89 70.86 125.8 70.78 125.71L70.9601 125.58C70.3901 125.32 70.37 124.34 70.02 123.81L69.95 123.21C70.06 123.03 70.27 123.38 70.5 123.67C70.73 123.96 70.9701 124.2 71.0801 123.86C70.9201 123.27 70.6 122.88 70.28 122.5C69.97 122.12 69.6501 121.76 69.6101 121.21C69.2901 120.26 69.11 120.47 68.75 119.95C68.49 119.89 68.64 120.22 68.38 120.26C68.25 120.01 68.1501 119.78 68.0801 119.57C68.0101 119.36 67.97 119.16 67.94 118.98C67.89 118.61 67.9 118.3 67.92 118C67.94 117.7 67.96 117.4 67.93 117.07C67.91 116.74 67.84 116.37 67.66 115.91C67.47 115.91 66.52 114.55 66.75 116.03L67.19 116.62L67.1101 117.15C66.9301 116.64 66.62 115.68 66.42 115.87C66.56 115.63 66.5001 115.31 66.3701 114.98C66.2501 114.64 66.06 114.28 65.9 113.99C65.58 113.4 65.39 113.06 66.2 113.61C66.23 114.08 66.28 114.38 66.38 114.62C66.43 114.74 66.49 114.85 66.57 114.95C66.65 115.05 66.76 115.16 66.88 115.27C66.84 115.15 66.81 115.02 66.77 114.9C66.74 114.77 66.71 114.65 66.68 114.53C66.62 114.28 66.57 114.04 66.52 113.8C66.47 113.56 66.43 113.32 66.38 113.09C66.34 112.85 66.29 112.62 66.26 112.39C66.19 111.93 66.13 111.48 66.06 111.04C65.98 110.6 65.9101 110.18 65.8301 109.76L65.3701 109.34C65.5401 109.29 65.65 109.05 65.7 108.72C65.76 108.39 65.7501 107.98 65.7401 107.57C65.6101 107.24 65.58 106.79 65.41 106.92C65.29 106.86 65.3601 107.6 65.3701 108.18C65.4001 108.76 65.34 109.2 64.89 108.54C64.83 108.06 64.82 107.57 64.8 107.09C64.79 106.61 64.79 106.13 64.81 105.68C64.88 104.77 65.0101 103.95 65.2101 103.33C65.3901 104.2 65.34 104.84 65.93 105.7C66.17 106.46 66.34 107.23 66.51 108.02C66.61 108.41 66.7 108.8 66.79 109.19L66.92 109.78L66.9901 110.07L67.07 110.36C67.18 110.75 67.28 111.13 67.39 111.52C67.5 111.9 67.6 112.28 67.75 112.65C67.89 113.02 68.03 113.38 68.18 113.74C68.33 114.1 68.49 114.44 68.69 114.77C68.49 114.95 68.6601 115.74 68.3401 115.59C68.2701 115.91 68.69 116.58 68.43 116.9C68.73 117.42 69 117.97 69.26 118.53C69.32 118.67 69.39 118.81 69.45 118.96L69.65 119.38C69.78 119.66 69.91 119.95 70.03 120.24C70.15 120.53 70.27 120.81 70.4 121.09C70.53 121.37 70.66 121.64 70.78 121.91C70.9 122.18 71.03 122.44 71.14 122.7C71.2 122.83 71.26 122.96 71.32 123.08C71.38 123.2 71.45 123.32 71.51 123.44C71.79 122.63 72.5 124.36 73.01 124.74C73.05 125.35 73.66 126.1 74.04 126.69C74.17 126.7 74.45 127.03 74.54 126.85C74.36 126.66 74.2801 126.5 74.2201 126.33C74.1601 126.16 74.1101 125.98 73.9901 125.74C74.2501 125.71 74.39 125.95 74.52 126.28C74.58 126.45 74.6501 126.64 74.7301 126.82C74.8101 127.01 74.89 127.2 75 127.36L74.56 127.16C74.74 127.43 74.89 127.75 75.03 128.07C75.17 128.4 75.29 128.75 75.45 129.07C75.75 129.72 76.1 130.33 76.63 130.66L76.39 129.58C76.65 129.84 76.8701 130.15 77.1001 130.47C77.3301 130.78 77.55 131.12 77.77 131.43C77.99 131.74 78.21 132.05 78.45 132.29C78.7 132.53 78.9601 132.72 79.2401 132.83C78.7001 132.02 77.42 130.98 77.91 130.62C78.05 130.54 78.3 130.72 78.54 130.98C78.78 131.24 79 131.59 79.13 131.82C79.4 132.34 79.7401 132.77 80.1001 133.14C80.1901 133.23 80.28 133.32 80.38 133.41C80.48 133.49 80.58 133.57 80.68 133.65C80.88 133.81 81.08 133.95 81.27 134.1C81.47 134.25 81.6601 134.39 81.8401 134.55C82.0201 134.7 82.2001 134.86 82.3701 135.03C82.7301 135.38 83.0101 135.76 83.2401 136.25Z" fill="#4CA4DB"/>
<path d="M81.76 133.37C81.43 133.05 81.1801 132.88 80.9801 132.79C80.7801 132.7 80.6301 132.68 80.4801 132.67C80.1801 132.64 79.8901 132.61 79.3201 131.91C79.5201 131.89 79.52 131.67 79.43 131.4C79.34 131.13 79.1701 130.79 78.9901 130.56C78.7401 130.4 78.5201 130.16 78.3301 129.92C78.2401 129.8 78.15 129.68 78.06 129.56C77.98 129.44 77.9001 129.32 77.8201 129.22C77.6701 128.9 78.01 128.7 78.42 129.23C78.55 129.65 78.7901 130.03 79.0701 130.38C79.3601 130.73 79.68 131.07 80.04 131.37C80.39 131.68 80.73 131.99 81.03 132.31C81.1 132.39 81.1701 132.48 81.2401 132.56C81.3101 132.64 81.38 132.73 81.44 132.81C81.57 132.99 81.67 133.17 81.76 133.37Z" fill="#4CA4DB"/>
<path d="M77.27 129.39C76.88 128.94 76.2001 127.72 76.55 127.43C76.53 127.34 76.79 127.34 76.54 127.11C76.59 127.24 76.67 127.41 76.77 127.61C76.87 127.81 76.9901 128.02 77.0901 128.24C77.2901 128.68 77.43 129.12 77.27 129.39Z" fill="#4CA4DB"/>
<path d="M76.16 129.24C75.97 129.53 75.7901 128.87 75.6801 128.74C75.6401 128.62 75.6101 128.49 75.5801 128.37C75.8401 128.6 76.14 128.91 76.16 129.24Z" fill="#4CA4DB"/>
<path d="M74.1001 124.41C74.0101 124.21 74.0301 124.14 74.0801 124.14C74.1301 124.14 74.2301 124.21 74.3201 124.27C74.5101 124.4 74.6701 124.51 74.4301 124.06L74.78 124.54L74.4701 124.98L74.1001 124.41Z" fill="#4CA4DB"/>
<path d="M73.8401 123.04C73.6201 122.88 73.4701 122.68 73.3501 122.25L73.63 122.37C73.77 122.48 73.6701 122.75 73.8401 123.04Z" fill="#4CA4DB"/>
<path d="M73.41 124.59C73.11 124.28 73.35 124.21 73.31 123.92C73.41 123.95 73.5 124.21 73.53 124.41C73.56 124.62 73.54 124.76 73.41 124.59Z" fill="#4CA4DB"/>
<path d="M68.7201 122.17C69.2701 122.37 69.43 123.23 69.9 123.9C69.43 123.24 69.0801 123.03 68.7201 122.17Z" fill="#4CA4DB"/>
<path d="M94.7001 136.74C94.7601 136.71 94.8101 136.68 94.8601 136.63C94.9001 136.58 94.9301 136.53 94.9501 136.47C95.0001 136.36 95.0001 136.23 94.9801 136.13L94.8 136.17C94.78 136.36 94.7501 136.56 94.7001 136.74Z" fill="#4CA4DB"/>
<path d="M91.63 138.1C91.51 138.35 91.5701 138.41 91.7301 138.44C91.8901 138.46 92.1601 138.46 92.4701 138.56C92.8401 138.51 93.1801 138.33 93.4601 138.1C93.7401 137.87 93.9801 137.63 94.2201 137.43C94.2701 137.29 94.29 137.13 94.31 137C94.23 137.04 94.16 137.09 94.07 137.14C93.97 137.19 93.89 137.25 93.78 137.3C93.67 137.35 93.5801 137.41 93.4601 137.45C93.4001 137.47 93.35 137.5 93.29 137.53C93.23 137.55 93.1701 137.58 93.1101 137.6C92.8701 137.7 92.6201 137.78 92.3601 137.87C92.1201 137.93 91.87 138.02 91.63 138.1Z" fill="#4CA4DB"/>
<path d="M94.02 131.54C94.32 131.78 94.56 132.17 94.75 132.53C94.95 132.9 95.1301 133.23 95.4901 133.61C95.5001 133.41 95.5501 133.29 95.5601 133.15C95.5801 133.01 95.6 132.83 95.5 132.52C95.89 132.61 95.9601 132.9 95.9401 133.19C95.9001 133.49 95.78 133.79 95.79 134.09C95.85 133.84 95.95 133.87 96.04 134.02C96.14 134.18 96.2101 134.47 96.2101 134.71C96.0901 135.14 95.9401 135.69 95.6901 136.24C95.4501 136.79 95.08 137.31 94.67 137.7C94.65 137.76 94.59 137.83 94.53 137.9C94.5 137.93 94.46 137.97 94.42 138.01C94.38 138.05 94.33 138.08 94.29 138.11C94.11 138.25 93.8801 138.37 93.6801 138.48C93.5701 138.53 93.48 138.59 93.39 138.64C93.3 138.69 93.23 138.74 93.17 138.79C93.06 138.89 93.02 138.99 93.13 139.12C92.75 139.27 92.49 139.21 92.27 139.13C92.05 139.04 91.8601 138.92 91.5601 138.88C91.1501 139.09 90.7101 139.11 90.3101 138.99C89.9101 138.88 89.5301 138.66 89.2001 138.42C89.0301 138.31 88.8701 138.17 88.7001 138.06C88.5301 137.93 88.3601 137.82 88.1801 137.72C87.8201 137.52 87.42 137.37 86.89 137.32C87.03 137.19 86.88 137.03 86.67 136.85C86.46 136.68 86.17 136.5 86.02 136.38C85.68 136.14 85.12 135.7 84.64 135.39C84.16 135.08 83.7401 134.92 83.6901 135.33C83.7701 135.7 84.1701 135.96 84.6101 136.21C85.0501 136.46 85.51 136.71 85.76 137.15C85.99 137.51 86.01 137.66 85.91 137.67C85.81 137.68 85.57 137.58 85.29 137.42C84.74 137.12 84.0501 136.62 83.8401 136.84C84.1001 136.9 83.8701 137.42 84.5901 137.71C83.8701 137.35 83.89 137.57 84 137.88C84.11 138.18 84.3001 138.56 83.8501 138.46C84.0201 138.64 84.16 138.79 84.3 138.92C84.43 139.05 84.54 139.17 84.64 139.27C84.84 139.47 84.9701 139.62 85.0801 139.77C85.1801 139.92 85.2601 140.06 85.3501 140.23C85.4301 140.41 85.5301 140.62 85.6801 140.92C86.2801 141.14 86.5601 141.08 86.7401 140.95C86.9201 140.82 87.0001 140.63 87.2101 140.56C87.8501 140.64 88.37 140.89 88.89 141.13C89.41 141.36 89.95 141.56 90.53 141.51C90.3 141.73 90.3001 141.9 90.4601 142.02C90.5401 142.08 90.6601 142.12 90.8201 142.16C90.9001 142.18 90.9801 142.19 91.0701 142.21C91.1601 142.22 91.2601 142.22 91.3601 142.23C91.4601 142.23 91.5701 142.24 91.6801 142.23C91.7901 142.22 91.91 142.22 92.02 142.2C92.25 142.18 92.4901 142.14 92.7301 142.1C92.9701 142.06 93.2 141.99 93.42 141.93C93.64 141.87 93.84 141.79 94.02 141.74C94.25 141.67 94.4301 141.58 94.5701 141.51C94.7101 141.44 94.8001 141.35 94.8701 141.28C95.0101 141.13 95.0401 141.01 95.0701 140.87C95.1001 140.74 95.13 140.6 95.26 140.45C95.32 140.37 95.41 140.29 95.53 140.19C95.65 140.09 95.81 139.99 96 139.84C96.26 139.78 96.32 139.85 96.28 139.99C96.24 140.13 96.0901 140.35 95.9301 140.55C95.8501 140.65 95.7701 140.75 95.7101 140.84C95.6401 140.92 95.6001 141 95.5801 141.06C95.5501 141.18 95.65 141.25 96.02 141.16L96.39 140.8C96.51 140.68 96.6201 140.54 96.7301 140.41C96.9901 139.71 96.98 139.04 97.15 138.35C97.27 138.19 97.39 137.98 97.51 137.82C97.62 137.66 97.72 137.54 97.79 137.56C97.68 137.94 97.7001 138.13 97.8601 138.14C98.0101 138.15 98.2701 137.98 98.5701 137.62C98.6001 137.18 98.61 137.07 98.53 136.84C98.34 137 98.2001 137.07 98.1101 137.1C98.0201 137.13 97.9701 137.11 97.9701 137.05C97.9601 136.94 98.0601 136.67 98.2001 136.32C98.3201 135.97 98.46 135.52 98.5 135.09C98.51 134.98 98.52 134.87 98.52 134.77C98.52 134.67 98.51 134.56 98.5 134.47C98.48 134.28 98.4201 134.11 98.3401 133.97C98.2901 133.77 98.22 133.6 98.17 133.44C98.15 133.36 98.1201 133.29 98.1001 133.22C98.0801 133.15 98.05 133.08 98.04 133.02C97.97 132.77 97.92 132.57 97.9 132.39C97.89 132.21 97.89 132.07 97.91 131.93C97.93 131.79 97.98 131.66 98.01 131.53C98.08 131.27 98.1601 130.98 98.0601 130.59C97.9601 130.2 97.68 129.69 97 129.14C97.03 129.49 96.9101 129.57 96.7301 129.51C96.5501 129.45 96.2801 129.25 95.9701 129.03C95.8101 128.92 95.6401 128.8 95.4601 128.69C95.3701 128.64 95.2801 128.58 95.1901 128.53C95.0901 128.48 95 128.43 94.91 128.39C94.54 128.21 94.17 128.1 93.9 128.09C93.7 128 93.53 127.94 93.39 127.87C93.24 127.79 93.1201 127.73 92.9901 127.65C92.7501 127.49 92.5301 127.34 92.2201 127.16C92.0901 127.2 91.8401 127.22 91.6201 127.27C91.4001 127.32 91.2 127.39 91.15 127.48C91.3 127.77 91.53 128.05 91.79 128.34C92.05 128.63 92.3401 128.94 92.6201 129.28C93.1801 129.95 93.7201 130.75 93.9701 131.59C93.9601 131.55 94 131.56 94.02 131.54Z" fill="#4CA4DB"/>
<path d="M107.86 72.5099C108.53 73.3599 109.51 74.1599 110.12 74.6099L109.82 74.1199L107.86 72.5099Z" fill="#4CA4DB"/>
<path d="M142.58 92.8999C142.53 92.5899 142.5 92.1799 142.52 91.8499C142.53 91.5299 142.59 91.2899 142.75 91.3499C142.8 91.2999 142.85 91.2399 142.9 91.1899C142.92 91.3299 142.95 91.57 142.98 91.84C143 92.11 143.02 92.4099 143 92.6699C142.95 93.1799 142.84 93.4499 142.58 92.8999Z" fill="#4CA4DB"/>
<path d="M138.55 92.9799L138.49 93.1199C138.52 93.0499 138.54 92.9699 138.56 92.8799C138.57 92.7999 138.57 92.7099 138.56 92.6499C138.7 92.6199 138.88 92.8699 138.82 93.1499C138.7 93.0899 138.68 92.8299 138.55 92.9799Z" fill="#4CA4DB"/>
<path d="M137.4 84.5099C136.99 84.7099 136.94 85.5699 137.07 86.3899C136.83 86.4799 136.59 86.5699 136.35 86.6599C136.31 86.3499 136.08 86.02 135.77 85.71C135.46 85.4 135.09 85.0899 134.78 84.7999C134.45 84.6799 135.17 85.5199 134.47 85.0499C134.48 84.9099 134.65 84.8299 134.57 84.6599C133.89 84.2899 133.79 84.9699 132.71 83.7699C132.66 83.5599 132.6 83.3599 132.54 83.1499C132.27 82.9299 132 82.7099 131.72 82.4899L131.09 82.0099L130.87 81.8599C130.28 81.4699 129.69 81.08 129.09 80.71C128.49 80.35 127.9 79.9899 127.33 79.5999C126.75 79.2399 126.2 78.8499 125.69 78.43C125.4 78.4599 124.97 78.2899 124.51 78.0799C124.28 77.9799 124.05 77.8599 123.82 77.7599C123.71 77.7099 123.59 77.66 123.48 77.62C123.37 77.58 123.26 77.5499 123.16 77.5299L123.24 77.3299C122.65 77.4399 122.16 76.6799 121.62 76.4499L121.23 76.0499C121.21 75.8499 121.58 75.96 121.91 76.06C122.24 76.16 122.56 76.2299 122.47 75.8799C122.04 75.4699 121.54 75.4 121.07 75.31C120.6 75.23 120.17 75.1299 119.8 74.7699C118.96 74.3299 118.96 74.5999 118.38 74.4899C118.16 74.6399 118.48 74.7599 118.33 74.9699C118.08 74.8899 117.87 74.7999 117.69 74.7099C117.5 74.6199 117.34 74.5299 117.2 74.43C116.92 74.24 116.71 74.0299 116.51 73.8199C116.31 73.6099 116.11 73.3999 115.85 73.2199C115.59 73.0399 115.26 72.8899 114.81 72.7699C114.69 72.9199 113.15 72.9299 114.38 73.5799L115.07 73.5499L115.42 73.9099C114.94 73.7699 114.06 73.48 114.09 73.75C113.99 73.51 113.72 73.3599 113.4 73.2899C113.07 73.2199 112.7 73.2099 112.39 73.1999C111.77 73.1899 111.41 73.18 112.24 72.75C112.63 72.96 112.89 73.0599 113.13 73.0999C113.25 73.1199 113.36 73.1199 113.49 73.0999C113.61 73.0899 113.75 73.0599 113.9 73.0199C113.78 72.9799 113.67 72.9399 113.56 72.8999C113.45 72.8599 113.33 72.8299 113.22 72.7899C112.99 72.7199 112.77 72.64 112.56 72.56C112.34 72.48 112.13 72.3999 111.91 72.3199C111.7 72.2399 111.49 72.1599 111.28 72.0899C110.86 71.9499 110.45 71.8199 110.05 71.6999C109.85 71.6399 109.65 71.5799 109.45 71.5299C109.25 71.4799 109.05 71.4499 108.85 71.4099L108.32 71.6999C108.33 71.5199 108.15 71.34 107.88 71.18C107.6 71.02 107.23 70.8599 106.85 70.7799C106.51 70.8199 106.08 70.74 106.16 70.93C106.07 71.03 106.77 71.1399 107.3 71.2999C107.83 71.4699 108.19 71.67 107.47 71.87C107.04 71.75 106.6 71.6699 106.16 71.5499C105.73 71.4399 105.3 71.32 104.89 71.19C104.07 70.97 103.32 70.6999 102.75 70.3999C103.6 70.3799 104.2 70.5099 105.14 70.0999C105.91 70.0699 106.7 70.0799 107.5 70.1499C107.89 70.1899 108.29 70.2399 108.69 70.2999L109.28 70.3799L109.58 70.4199L109.87 70.4699C110.26 70.5399 110.66 70.61 111.05 70.68C111.44 70.75 111.83 70.7999 112.22 70.8799C112.61 70.9499 112.99 71.0099 113.38 71.0699C113.77 71.1199 114.15 71.1599 114.53 71.1999C114.57 71.4699 115.3 71.7999 115 71.9699C115.21 72.2199 116 72.2599 116.08 72.6599C116.65 72.7699 117.23 72.9199 117.82 73.0899C117.97 73.1299 118.11 73.1799 118.26 73.2299L118.69 73.3899C118.98 73.4999 119.26 73.6199 119.54 73.7399C119.82 73.8599 120.1 73.9699 120.37 74.0999C120.64 74.2299 120.9 74.3699 121.17 74.4899C121.43 74.6199 121.68 74.75 121.93 74.87C122.05 74.93 122.18 74.9899 122.3 75.0499C122.42 75.1099 122.53 75.1799 122.65 75.2399C122.41 74.3999 123.96 75.4499 124.6 75.4899C124.95 75.9999 125.82 76.3699 126.44 76.7099C126.57 76.6499 126.95 76.8499 126.96 76.6399C126.72 76.5299 126.57 76.4299 126.44 76.3199C126.3 76.1999 126.17 76.0699 125.96 75.9099C126.17 75.7599 126.42 75.9099 126.7 76.1399C126.84 76.2499 126.98 76.3999 127.13 76.5499C127.28 76.6899 127.44 76.8299 127.6 76.9499H127.11C127.39 77.1299 127.65 77.3599 127.9 77.5999C128.16 77.8499 128.41 78.1 128.65 78.37C129.14 78.89 129.64 79.3499 130.26 79.5099L129.7 78.5699C130.03 78.7399 130.35 78.9599 130.66 79.2099C130.96 79.4699 131.25 79.7399 131.54 79.9999C131.83 80.2599 132.12 80.5 132.4 80.7C132.68 80.9 132.96 81.0599 133.26 81.1299C132.63 80.3399 131.1 79.6399 131.5 79.1699C131.62 79.0599 131.91 79.1799 132.21 79.3899C132.51 79.5999 132.83 79.8799 132.99 80.1199C133.35 80.6199 133.75 81 134.17 81.33C134.39 81.49 134.6 81.6499 134.81 81.7999C135.02 81.9499 135.23 82.0999 135.44 82.2399C135.65 82.3799 135.86 82.53 136.05 82.69C136.25 82.84 136.44 83 136.61 83.19C136.93 83.56 137.22 83.9799 137.4 84.5099Z" fill="#4CA4DB"/>
<path d="M135.83 81.4798C135.46 81.1498 135.19 80.9799 134.98 80.8999C134.76 80.8199 134.6 80.8199 134.44 80.8199C134.12 80.8199 133.83 80.8199 133.13 80.1899C133.32 80.1399 133.29 79.9099 133.15 79.6499C133 79.3799 132.74 79.0899 132.5 78.8899C132.2 78.7799 131.92 78.5799 131.67 78.3799C131.54 78.2799 131.42 78.1699 131.3 78.0699C131.18 77.9699 131.06 77.8899 130.95 77.8099C130.69 77.5499 130.96 77.2499 131.56 77.6599C131.82 78.0599 132.16 78.3999 132.54 78.6999C132.92 78.9999 133.36 79.2599 133.76 79.5499C134.17 79.8299 134.59 80.1199 134.95 80.4299C135.04 80.5099 135.13 80.5899 135.21 80.6699C135.29 80.7499 135.37 80.8399 135.44 80.9299C135.6 81.0899 135.73 81.2798 135.83 81.4798Z" fill="#4CA4DB"/>
<path d="M130.45 78.1099C129.92 77.7899 128.85 76.7999 129.03 76.4399C128.97 76.3599 129.22 76.2599 128.88 76.1399C129.3 76.5199 130.59 77.5199 130.45 78.1099Z" fill="#4CA4DB"/>
<path d="M129.33 78.2999C129.24 78.6299 128.86 78.0699 128.72 77.9699C128.65 77.8599 128.57 77.7599 128.49 77.6499C128.82 77.7799 129.2 77.9999 129.33 78.2999Z" fill="#4CA4DB"/>
<path d="M125.32 74.6899C125.14 74.5499 125.11 74.4899 125.16 74.4599C125.21 74.4299 125.33 74.4499 125.45 74.4599C125.68 74.4899 125.89 74.5099 125.43 74.2099L126 74.4799L125.95 75.0299L125.32 74.6899Z" fill="#4CA4DB"/>
<path d="M124.3 73.6499C124.02 73.6299 123.76 73.5399 123.4 73.2399L123.71 73.1899C123.89 73.2099 123.97 73.4899 124.3 73.6499Z" fill="#4CA4DB"/>
<path d="M124.82 75.1999C124.38 75.0999 124.56 74.9099 124.36 74.6899C124.47 74.6599 124.68 74.8299 124.82 74.9799C124.96 75.1399 125.01 75.2899 124.82 75.1999Z" fill="#4CA4DB"/>
<path d="M119.75 76.0699C120.26 75.8599 120.86 76.3999 121.59 76.5999C120.86 76.3999 120.48 76.4699 119.75 76.0699Z" fill="#4CA4DB"/>
<path d="M139.87 100.33C139.75 100.38 139.64 100.45 139.53 100.52C139.42 100.59 139.32 100.66 139.22 100.74C139.03 100.9 138.86 101.06 138.74 101.2L139.04 101.19C139.35 100.92 139.63 100.64 139.87 100.33Z" fill="#4CA4DB"/>
<path d="M143.11 94.2599C142.89 93.9899 142.82 94.08 142.76 94.34C142.69 94.6 142.61 95.03 142.34 95.44C142.17 96.01 142.06 96.6199 141.87 97.2399C141.68 97.8499 141.43 98.4699 141.02 98.9799C140.94 99.2399 140.81 99.4999 140.69 99.7699C140.84 99.6299 141.01 99.48 141.17 99.31C141.32 99.13 141.5 98.9499 141.65 98.7399C141.8 98.5299 141.97 98.31 142.1 98.07C142.17 97.95 142.24 97.83 142.31 97.71C142.37 97.59 142.43 97.46 142.49 97.33C142.73 96.82 142.89 96.2699 143 95.7499C143.09 95.2099 143.14 94.6999 143.11 94.2599Z" fill="#4CA4DB"/>
<path d="M128.29 99.6699C128.85 100.29 129.57 101.03 130.5 101.56C130.62 101.63 130.73 101.69 130.85 101.75C130.97 101.81 131.1 101.86 131.22 101.91C131.47 102.02 131.73 102.09 131.99 102.14C132.12 102.17 132.25 102.19 132.38 102.2C132.51 102.21 132.64 102.22 132.76 102.23C133.01 102.24 133.26 102.21 133.5 102.17C133.09 102.06 132.89 101.97 132.63 101.84C132.38 101.72 132.07 101.58 131.49 101.29C132.05 101.2 132.48 101.34 132.95 101.55C133.42 101.73 133.94 101.98 134.52 101.96C134.05 101.89 134.14 101.79 134.42 101.71C134.7 101.63 135.17 101.53 135.54 101.45C136.25 101.44 137.17 101.23 138.06 100.78C138.96 100.34 139.8 99.6498 140.44 98.8698C140.49 98.7698 140.55 98.6498 140.64 98.5198C140.68 98.4498 140.73 98.3799 140.78 98.3099C140.83 98.2399 140.87 98.1599 140.92 98.0799C141.12 97.7699 141.31 97.4099 141.46 97.0699C141.53 96.8999 141.59 96.7399 141.64 96.5899C141.68 96.4399 141.7 96.3099 141.71 96.1999C141.73 95.9899 141.65 95.8699 141.49 95.9199C141.62 95.3899 141.77 95.1098 141.94 94.8498C142.1 94.5898 142.29 94.3599 142.38 93.9399C142.23 93.2999 142.21 92.7399 142.22 92.1599C142.23 91.5899 142.28 91.0099 142.27 90.4099C142.27 90.1099 142.25 89.8098 142.21 89.4998C142.16 89.1998 142.11 88.8998 142.01 88.6198C141.82 88.0398 141.5 87.4899 140.97 87.0399C141.17 87.0199 141.09 86.7299 140.92 86.3999C140.75 86.0699 140.49 85.6998 140.35 85.4998C140.04 85.0498 139.48 84.3298 138.97 83.8698C138.46 83.4098 138.02 83.1798 137.96 83.5998C138.03 84.0098 138.44 84.3398 138.86 84.7398C139.29 85.1298 139.74 85.5999 139.88 86.1799C140 86.6799 139.97 86.8199 139.86 86.7799C139.75 86.7399 139.56 86.5098 139.32 86.2398C138.86 85.6898 138.22 85.0099 137.98 85.1999C138.23 85.3299 137.92 85.7698 138.55 86.2698C137.92 85.6998 137.9 85.9498 137.93 86.2698C137.96 86.5898 138.02 86.9899 137.62 86.7799C137.72 86.9899 137.81 87.1699 137.88 87.3199C137.95 87.4799 138.01 87.6098 138.05 87.7298C138.14 87.9698 138.18 88.1499 138.2 88.3099C138.22 88.4699 138.21 88.6099 138.17 88.7899C138.14 88.9599 138.09 89.1599 138.01 89.4399C138.29 89.8399 138.51 89.9299 138.72 89.9399C138.93 89.9499 139.12 89.8699 139.31 89.9499C139.67 90.4099 139.73 90.9199 139.73 91.3999C139.72 91.8899 139.65 92.3299 139.77 92.7799C139.52 92.6199 139.35 92.6599 139.26 92.7799C139.21 92.8399 139.17 92.9299 139.14 93.0399C139.13 93.0899 139.12 93.1499 139.11 93.2099C139.1 93.2699 139.09 93.3399 139.08 93.4099C139.07 93.4799 139.07 93.5498 139.06 93.6198C139.05 93.6898 139.04 93.7699 139.04 93.8399C139.03 93.9899 139.01 94.1499 138.99 94.2999C138.98 94.4499 138.94 94.5998 138.93 94.7398C138.9 94.8798 138.87 95.0098 138.85 95.1198C138.8 95.2598 138.77 95.3699 138.76 95.4699C138.75 95.5699 138.74 95.6399 138.76 95.7099C138.78 95.8399 138.86 95.9399 138.92 96.0299C138.99 96.1199 139.05 96.2198 139.05 96.3798C139.05 96.4598 139.04 96.5499 138.99 96.6499C138.94 96.7499 138.88 96.8798 138.76 97.0098C138.56 97.0798 138.49 97.0199 138.47 96.8999C138.45 96.7799 138.49 96.6199 138.49 96.4499C138.5 96.3699 138.5 96.2899 138.5 96.2199C138.49 96.1499 138.48 96.0899 138.45 96.0399C138.39 95.9499 138.29 95.9399 138.09 96.0399L138.03 96.3099C138.01 96.3999 137.98 96.4899 137.95 96.5799C138.03 97.0599 138.17 97.6299 137.92 98.1499C137.81 98.2499 137.64 98.3499 137.51 98.4299C137.37 98.4999 137.25 98.5199 137.21 98.4599C137.43 98.2499 137.43 98.0798 137.32 97.9998C137.21 97.9198 136.98 97.8899 136.7 97.9199C136.54 98.1599 136.49 98.2299 136.43 98.4099C136.61 98.4799 136.73 98.5299 136.8 98.5699C136.87 98.6199 136.89 98.6599 136.87 98.6999C136.83 98.7899 136.61 98.8799 136.33 98.9599C136.04 99.0299 135.69 99.0999 135.36 99.1499C135.28 99.1599 135.19 99.1799 135.12 99.1999C135.04 99.2099 134.96 99.2298 134.89 99.2498C134.74 99.2998 134.61 99.3399 134.5 99.4199C134.34 99.4799 134.18 99.4998 134.05 99.5198C133.98 99.5298 133.91 99.5399 133.85 99.5399C133.79 99.5399 133.73 99.5399 133.67 99.5399C133.44 99.5399 133.27 99.4799 133.13 99.4099C132.99 99.3499 132.9 99.2499 132.83 99.1499C132.76 99.0499 132.71 98.9499 132.67 98.8299C132.59 98.5999 132.53 98.3799 132.38 98.1599C132.22 97.9399 131.97 97.7399 131.49 97.4499C131.47 97.7299 131.38 97.8299 131.22 97.8099C131.06 97.7899 130.85 97.6399 130.64 97.4299C130.53 97.3199 130.42 97.1999 130.32 97.0599C130.27 96.9899 130.22 96.9198 130.16 96.8598C130.11 96.7898 130.06 96.7199 130.02 96.6499C129.83 96.3699 129.67 96.1099 129.51 95.9399C129.44 95.7699 129.42 95.6198 129.41 95.4898C129.39 95.3598 129.41 95.2298 129.44 95.1198C129.48 94.8898 129.59 94.6899 129.69 94.4599C129.64 94.3799 129.58 94.2099 129.53 94.0599C129.49 93.8999 129.43 93.7599 129.34 93.7099C129.05 93.7899 128.74 93.9598 128.47 94.2498C128.2 94.5398 127.96 94.9399 127.8 95.4599C127.76 95.5899 127.72 95.7198 127.69 95.8698C127.66 96.0098 127.64 96.1599 127.62 96.3099C127.6 96.4699 127.59 96.6199 127.59 96.7899C127.59 96.9499 127.58 97.1299 127.6 97.2999C127.64 97.9999 127.82 98.7699 128.17 99.5499C128.21 99.6399 128.27 99.6899 128.29 99.6699Z" fill="#4CA4DB"/>
<path d="M127.34 118.08L127.6 118.35C127.34 118.09 126.92 117.72 126.62 117.44C126.66 117.37 126.84 117.45 127.08 117.59C127.32 117.73 127.61 117.92 127.88 118.15C127.79 118.15 127.6 118.05 127.46 117.99C127.31 117.93 127.22 117.9 127.34 118.08Z" fill="#FCEA0D"/>
<path d="M116.11 128.85C116.64 129.16 116.3 129.12 116.02 129.09C115.88 129.09 115.74 129.09 115.72 129.12C115.71 129.14 115.73 129.16 115.79 129.19C115.82 129.21 115.86 129.23 115.91 129.25C115.96 129.27 116.02 129.31 116.09 129.35C116.03 129.33 115.97 129.3 115.91 129.28L115.73 129.23C115.61 129.2 115.49 129.16 115.37 129.15C115.32 128.97 115.27 128.78 115.2 128.6L115.66 128.7L116.11 128.85Z" fill="#FCEA0D"/>
<path d="M117.39 130.18C117.55 130.25 117.69 130.34 117.84 130.48C117.98 130.63 118.13 130.81 118.25 131.08C118.14 131.03 118.03 130.98 117.92 130.93C117.82 130.87 117.77 130.77 117.71 130.62C117.68 130.55 117.63 130.48 117.58 130.4C117.54 130.34 117.48 130.25 117.39 130.18Z" fill="#FCEA0D"/>
<path d="M116.64 128.34C116.72 128.36 116.79 128.38 116.85 128.41C116.91 128.44 116.95 128.46 116.99 128.49C117.06 128.54 117.11 128.6 117.14 128.65C117.17 128.7 117.19 128.76 117.23 128.82C117.26 128.88 117.3 128.95 117.37 129.03C117.23 129.01 116.92 128.77 116.7 128.57C116.46 128.39 116.33 128.22 116.64 128.34Z" fill="#FCEA0D"/>
<path d="M138.42 118.05C138.5 118.16 138.61 118.11 138.61 118.02C138.61 117.99 138.6 117.95 138.58 117.92C138.53 117.89 138.49 117.85 138.45 117.81V117.82C138.48 117.89 138.47 117.98 138.42 118.05Z" fill="#FCEA0D"/>
<path d="M129.91 114.97C129.59 114.79 129.22 114.47 129.13 114.26C129.11 114.23 129.11 114.21 129.11 114.19C129.1 114.17 129.11 114.15 129.11 114.14C129.11 114.13 129.11 114.13 129.12 114.12C129.13 114.12 129.13 114.11 129.13 114.11L129.09 114.13C129.07 114.14 129.04 114.16 129.02 114.17C128.97 114.2 128.94 114.22 128.9 114.24C128.77 114.32 128.65 114.36 128.63 114.38C128.59 114.4 128.6 114.39 128.66 114.36C128.55 114.42 128.41 114.46 128.32 114.49C128.34 114.48 128.36 114.48 128.38 114.47L128.41 114.46L128.45 114.45C128.51 114.43 128.57 114.41 128.63 114.38C128.69 114.35 128.78 114.31 128.86 114.27C128.9 114.25 128.93 114.22 128.98 114.2C129.03 114.17 129.08 114.15 129.13 114.12C129.18 114.09 129.23 114.06 129.28 114.02C129.32 113.99 129.4 113.94 129.44 113.92C129.44 113.92 129.44 113.92 129.44 113.93C129.45 113.94 129.45 113.95 129.46 113.96C129.47 113.97 129.48 113.99 129.49 114C129.58 114.12 129.79 114.33 129.97 114.51C130.16 114.69 130.32 114.86 130.34 114.95C130.36 115.03 130.24 115.06 129.91 114.97Z" fill="#FCEA0D"/>
<path d="M132.39 126.04C132.61 126.14 132.87 125.96 133.12 125.57C133.37 125.18 133.56 124.57 133.63 123.87C133.91 123.98 134.17 124.11 134.44 124.24C134.41 124.52 134.39 124.86 134.4 125.23C134.39 125.61 134.42 126.02 134.4 126.46C134.39 127.33 134.31 128.29 134.09 129.11C134.08 129.28 134.12 129.27 134.17 129.19C134.2 129.15 134.23 129.09 134.27 129.03C134.3 128.97 134.33 128.9 134.36 128.83C134.42 128.71 134.47 128.61 134.5 128.65C134.51 128.67 134.52 128.73 134.51 128.83C134.5 128.93 134.49 129.09 134.44 129.3C134.28 129.46 134.15 129.27 133.98 129.59C133.91 129.96 133.87 130.21 133.88 130.42C133.88 130.63 133.88 130.8 133.85 131.03C133.83 131.14 133.82 131.27 133.76 131.42C133.71 131.57 133.63 131.74 133.53 131.94C133.48 132.04 133.42 132.15 133.34 132.26C133.26 132.37 133.18 132.5 133.08 132.63C132.99 132.77 132.86 132.9 132.72 133.04C132.58 133.18 132.44 133.34 132.26 133.49C132.07 133.59 131.88 133.68 131.69 133.77C131.49 133.85 131.29 133.92 131.1 133.99C129.83 134.88 128.31 135.38 126.83 135.51C125.34 135.64 123.86 135.46 122.48 135.03C121.79 134.82 121.11 134.53 120.49 134.21C119.87 133.89 119.29 133.52 118.74 133.13C117.65 132.35 116.71 131.46 115.91 130.55C115.4 130.35 114.62 129.64 113.86 128.91L108.98 124.28L115.81 125.26C116.83 125.41 117.81 125.78 118.56 126.11L118.49 126.32C118.78 126.37 119.07 126.53 119.36 126.72C119.51 126.81 119.64 126.94 119.78 127.06C119.92 127.19 120.06 127.31 120.18 127.46C120.71 128.03 121.1 128.71 121.49 129.25L121.71 129.81C121.78 130 121.83 130.19 121.89 130.38C121.86 130.52 121.74 130.4 121.59 130.18C121.52 130.07 121.41 129.93 121.31 129.79C121.2 129.65 121.1 129.49 120.98 129.35C120.86 129.21 120.74 129.08 120.63 128.96C120.52 128.85 120.41 128.77 120.33 128.71C120.16 128.61 120.07 128.64 120.13 128.91C120.44 129.39 120.72 129.83 120.99 130.25C121.12 130.46 121.25 130.67 121.37 130.88C121.48 131.09 121.6 131.31 121.71 131.51C121.81 131.73 121.9 131.95 121.98 132.17C122.05 132.4 122.11 132.63 122.16 132.86C122.2 133.1 122.22 133.34 122.22 133.59C122.21 133.84 122.18 134.09 122.12 134.35C122.08 134.6 122.05 134.81 122.03 135C122 135.18 121.96 135.34 121.94 135.48C121.9 135.76 121.86 135.95 121.84 136.12C121.8 136.47 121.8 136.74 121.58 137.34C121.6 137.53 121.7 137.47 121.81 137.38C121.92 137.29 122.03 137.17 122.12 137.29C121.65 138.4 121.04 139.1 120.48 139.59C120.2 139.84 119.91 140.02 119.65 140.19C119.38 140.35 119.11 140.47 118.85 140.58C118.31 140.79 117.79 140.96 117.18 141.11C116.57 141.28 115.86 141.46 114.9 141.57C114.88 141.59 114.82 141.63 114.73 141.67C114.64 141.7 114.52 141.74 114.39 141.78C114.26 141.82 114.12 141.86 113.98 141.9C113.84 141.94 113.71 141.96 113.59 142C113.36 142.07 113.23 142.14 113.34 142.24C113.45 142.32 113.81 142.47 114.59 142.5L114.77 142.47L114.96 142.42L115.33 142.32C115.58 142.26 115.81 142.16 116.05 142.07C116.14 142.07 116.23 142.07 116.31 142.07L116.57 142.05C116.74 142.04 116.92 142.02 117.1 142.01C116.55 142.2 115.74 142.43 115.07 142.5C114.73 142.56 114.47 142.57 114.28 142.61C114.1 142.65 114.01 142.69 114.07 142.75C113.97 142.7 113.86 142.66 113.73 142.61C113.6 142.57 113.46 142.53 113.3 142.5C113.14 142.47 112.98 142.43 112.81 142.4C112.64 142.37 112.46 142.33 112.27 142.3C111.53 142.15 110.73 141.94 110.09 141.72C109.78 141.6 109.5 141.49 109.29 141.4C109.08 141.3 108.94 141.21 108.88 141.16C108.82 141.1 108.85 141.07 108.99 141.06C109.06 141.06 109.16 141.06 109.29 141.07C109.42 141.08 109.58 141.1 109.78 141.11C109.97 141.23 110.14 141.36 110.31 141.45C110.48 141.54 110.64 141.63 110.79 141.7C111.09 141.84 111.37 141.93 111.62 142C111.88 142.06 112.13 142.09 112.38 142.1C112.64 142.1 112.91 142.08 113.22 142.04C112.17 141.9 111.2 141.55 110.36 141.1C109.52 140.65 108.81 140.12 108.18 139.57C106.91 138.47 105.93 137.33 104.95 136.3L104.11 135.95C104.32 135.66 103.57 134.49 102.7 133.51C102.24 133.17 101.74 132.67 101.74 132.91C101.58 132.9 102.41 133.72 103 134.45C103.59 135.18 103.96 135.77 102.91 135.13C102.41 134.56 101.91 133.98 101.41 133.45C100.91 132.91 100.42 132.41 99.9402 131.96C98.9702 131.05 98.0202 130.39 97.2202 129.91C97.8602 130.05 98.3902 130.27 98.9402 130.49C99.4802 130.73 100.05 130.96 100.8 131.21C101.35 131.54 101.87 131.93 102.39 132.35C102.9 132.77 103.39 133.22 103.88 133.68C104.85 134.61 105.78 135.61 106.75 136.55C107.72 137.49 108.75 138.4 109.9 139.08C110.48 139.42 111.08 139.69 111.7 139.88C112.32 140.07 112.96 140.15 113.57 140.14C113.65 140.27 114.02 140.4 114.33 140.47C114.49 140.51 114.63 140.56 114.7 140.6C114.78 140.64 114.79 140.69 114.69 140.77C114.82 140.8 115 140.8 115.21 140.79C115.42 140.78 115.64 140.72 115.87 140.68C116.09 140.63 116.31 140.57 116.51 140.55C116.7 140.52 116.87 140.5 116.99 140.54C117.95 140.03 118.82 139.31 119.54 138.46C119.63 138.36 119.72 138.24 119.8 138.13C119.88 138.02 119.97 137.91 120.05 137.79C120.19 137.55 120.36 137.32 120.48 137.07C120.76 136.58 120.94 136.04 121.11 135.51C121.39 134.42 121.41 133.26 121.14 132.22C120.88 131.18 120.41 130.24 119.83 129.48C119.86 129.79 119.76 129.84 119.6 129.74C119.52 129.69 119.41 129.61 119.29 129.51C119.17 129.41 119.04 129.28 118.89 129.15C118.74 129.02 118.58 128.88 118.4 128.75C118.31 128.68 118.23 128.62 118.14 128.55C118.05 128.49 117.96 128.44 117.87 128.38C117.78 128.33 117.69 128.27 117.61 128.22C117.52 128.18 117.43 128.14 117.35 128.1C117.19 128.03 117.04 127.97 116.91 127.96C116.83 127.89 116.73 127.81 116.63 127.74C116.53 127.66 116.4 127.62 116.28 127.55C116.03 127.42 115.74 127.35 115.44 127.28L115.21 127.22L115.38 127.4C115.86 127.92 116.42 128.43 116.87 128.88C117.04 128.9 117.59 129.37 117.59 129.12C116.91 128.57 116.79 128.25 116.21 127.56C116.8 127.49 117.52 128.95 118.49 129.84C118.26 129.75 118.04 129.66 117.81 129.56C118.61 130.32 119.4 131.26 120.33 132.05C120.79 132.44 121.29 132.8 121.8 133.07C122.32 133.34 122.86 133.51 123.38 133.56C122.87 133.24 122.4 132.89 121.97 132.51C122.54 132.74 123.13 132.97 123.75 133.17C124.37 133.37 125.01 133.53 125.65 133.61C126.92 133.78 128.18 133.54 128.88 132.95C128.78 132.98 128.69 133 128.59 133.04C128.49 133.07 128.38 133.09 128.28 133.12C128.07 133.18 127.84 133.22 127.62 133.27C127.16 133.34 126.69 133.41 126.27 133.39C125.42 133.38 124.79 133.18 124.87 132.88C124.94 132.73 125.4 132.74 125.94 132.74C126.48 132.75 127.09 132.74 127.49 132.74C128.36 132.73 129.17 132.45 129.78 131.97C130.4 131.5 130.85 130.88 131.16 130.23C131.48 129.58 131.68 128.89 131.87 128.19C132.01 127.54 132.17 126.82 132.39 126.04Z" fill="#FCEA0D"/>
<path d="M130.24 130.05C129.91 130.55 129.67 130.81 129.54 131.05C129.51 131.11 129.47 131.16 129.45 131.21C129.43 131.26 129.4 131.31 129.38 131.35C129.34 131.44 129.31 131.53 129.28 131.62C129.24 131.7 129.2 131.78 129.15 131.87C129.12 131.91 129.09 131.96 129.05 132.01C129.01 132.06 128.96 132.1 128.91 132.14C128.86 132.19 128.79 132.23 128.72 132.28C128.65 132.33 128.56 132.37 128.46 132.42C128.41 132.44 128.36 132.47 128.3 132.49C128.24 132.51 128.18 132.53 128.12 132.55C128.05 132.57 127.99 132.59 127.91 132.61C127.84 132.63 127.76 132.64 127.68 132.66C127.74 132.56 127.71 132.49 127.61 132.44C127.56 132.41 127.5 132.39 127.42 132.38C127.34 132.36 127.25 132.34 127.16 132.33C126.97 132.31 126.74 132.27 126.52 132.25C126.29 132.22 126.06 132.2 125.85 132.18C125.64 132.22 125.42 132.21 125.2 132.21C124.98 132.18 124.75 132.15 124.53 132.09C124.31 132.04 124.1 131.96 123.89 131.9C123.69 131.82 123.5 131.76 123.32 131.68C123.09 131.55 123.04 131.41 123.16 131.34C123.28 131.26 123.55 131.28 124 131.42C124.51 131.76 125.13 131.95 125.76 132C126.39 132.05 127.03 131.96 127.59 131.77C128.16 131.59 128.63 131.31 129.05 131.01C129.45 130.7 129.84 130.39 130.24 130.05Z" fill="#FCEA0D"/>
<path d="M122.81 132.05C122.38 131.89 121.69 131.49 121.17 131.04C120.65 130.59 120.3 130.11 120.4 129.92C120.31 129.8 120.63 129.79 120.17 129.51C120.45 129.83 121.06 130.36 121.64 130.82C121.93 131.06 122.2 131.28 122.42 131.49C122.64 131.7 122.78 131.88 122.81 132.05Z" fill="#FCEA0D"/>
<path d="M121.31 132.19C121.32 132.38 121.11 132.29 120.89 132.13C120.66 131.97 120.41 131.73 120.29 131.65C120.15 131.5 120.01 131.34 119.88 131.19C120.38 131.47 121 131.81 121.31 132.19Z" fill="#FCEA0D"/>
<path d="M123.29 133.34C123.17 133.11 123.09 132.82 122.99 132.5C122.94 132.34 122.9 132.17 122.85 131.99C122.8 131.81 122.74 131.63 122.68 131.44C122.44 130.69 122.09 129.85 121.57 129.16C121.82 129.51 122.04 129.81 122.22 130.11C122.31 130.26 122.41 130.4 122.48 130.55C122.56 130.7 122.63 130.84 122.71 130.99C122.79 131.14 122.85 131.3 122.91 131.46C122.97 131.63 123.03 131.8 123.09 131.99C123.14 132.18 123.18 132.39 123.22 132.61C123.24 132.72 123.26 132.84 123.26 132.96C123.27 133.08 123.28 133.21 123.29 133.34Z" fill="#FCEA0D"/>
<path d="M131.55 115.34C130.81 115.46 131.78 115.78 132.69 116.58C134.05 117.31 135.72 117.54 137.12 117.92C137.43 117.91 137.73 117.89 138.01 117.85C137.24 117.63 136.09 117.22 134.91 116.75C133.72 116.27 132.51 115.74 131.55 115.34Z" fill="#FCEA0D"/>
<path d="M134.88 109.53C134.96 109.56 135.02 109.6 135.09 109.64C135.14 109.68 135.21 109.71 135.24 109.75C135.26 109.77 135.28 109.78 135.29 109.79C135.3 109.8 135.3 109.8 135.3 109.81C135.3 109.82 135.3 109.82 135.3 109.82C135.3 109.83 135.3 109.83 135.3 109.83C135.3 109.84 135.29 109.84 135.3 109.84C135.3 109.85 135.3 109.85 135.31 109.86L135.36 109.95C135.42 110.07 135.48 110.2 135.55 110.33C135.68 110.59 135.8 110.85 135.93 111.12C136.45 112.19 137 113.27 137.67 114.14C137.53 113.67 137.49 113.41 137.41 113.09C137.33 112.77 137.23 112.38 136.93 111.65C137.47 112.05 137.7 112.62 137.86 113.24C138.02 113.86 138.1 114.54 138.33 115.18C138.21 114.63 138.33 114.68 138.53 114.98C138.73 115.28 139 115.84 139.14 116.28C139.19 116.55 139.24 116.84 139.28 117.13C139.29 117.2 139.3 117.28 139.31 117.35L139.32 117.46C139.32 117.49 139.33 117.54 139.33 117.56C139.34 117.64 139.34 117.71 139.34 117.78C139.34 117.93 139.34 118.08 139.3 118.23C139.26 118.38 139.18 118.53 139.04 118.6C138.86 118.69 138.64 118.69 138.44 118.68C138.39 118.68 138.34 118.67 138.29 118.67L138.2 118.66L138.03 118.63C137.8 118.59 137.57 118.55 137.35 118.5C136.82 118.5 135.72 118.15 134.81 117.83C133.9 117.51 133.18 117.25 133.29 117.64C132.56 117.36 132.2 117.07 131.91 116.78C131.62 116.49 131.39 116.21 130.94 115.88C130.33 115.69 129.8 115.39 129.39 115.04C129.19 114.87 129.02 114.68 128.92 114.51C128.87 114.43 128.84 114.35 128.84 114.31C128.84 114.3 128.84 114.29 128.85 114.29H128.86L128.8 114.32C128.76 114.34 128.71 114.36 128.66 114.38C128.59 114.42 128.51 114.45 128.42 114.48C128.36 114.51 128.29 114.53 128.22 114.54L126.04 115.81C126.56 116.69 127.01 117.59 127.53 118.45C128.05 119.31 128.62 120.12 129.4 120.9C129.29 120.9 129.28 120.99 129.31 121.14C129.34 121.28 129.42 121.48 129.52 121.69C129.61 121.91 129.73 122.14 129.82 122.36C129.87 122.47 129.92 122.57 129.96 122.67C130 122.77 130.03 122.85 130.06 122.93C130.19 123.24 130.33 123.67 130.47 124.11C130.59 124.53 130.7 124.98 130.77 125.39C130.82 125.59 130.85 125.78 130.88 125.94C130.92 126.1 130.96 126.24 131 126.35C131.09 126.56 131.21 126.64 131.38 126.47C131.63 126.02 131.52 125.28 131.3 124.56C131.25 124.38 131.17 124.2 131.12 124.01C131.05 123.82 130.98 123.63 130.92 123.44C130.85 123.25 130.79 123.06 130.74 122.86C130.68 122.67 130.65 122.47 130.62 122.28C130.51 121.61 130.51 121.41 130.64 121.5C130.7 121.55 130.79 121.66 130.89 121.83C130.94 121.91 130.99 122.01 131.05 122.11C131.1 122.21 131.16 122.33 131.22 122.45C131.34 122.68 131.44 122.95 131.55 123.2C131.6 123.33 131.65 123.46 131.7 123.58C131.73 123.64 131.75 123.7 131.77 123.76C131.79 123.82 131.81 123.88 131.83 123.93C132.01 124.37 132.14 124.7 132.29 124.69C132.25 124.6 132.24 124.51 132.26 124.41C132.28 124.31 132.3 124.2 132.32 124.06C132.33 123.92 132.35 123.76 132.31 123.56C132.29 123.46 132.26 123.35 132.22 123.23C132.18 123.11 132.13 122.98 132.05 122.84C132.33 123.45 132.47 123.69 132.56 123.71C132.65 123.73 132.7 123.53 132.71 123.29C132.76 122.81 132.7 122.13 133.13 122.76C133.04 122.36 132.95 122 132.86 121.71C132.78 121.41 132.69 121.15 132.62 120.93C132.55 120.7 132.48 120.52 132.43 120.35C132.38 120.18 132.34 120.03 132.3 119.9C132.23 119.63 132.19 119.39 132.15 119.1C132.13 118.96 132.11 118.8 132.09 118.63C132.06 118.45 132.03 118.26 132 118.02C131.38 117.21 131.02 117.03 130.77 117C130.51 116.97 130.35 117.09 130.06 116.96C129.13 116.06 128.58 115.09 127.99 114.17L126.39 114.96C126.44 115.28 126.55 115.52 126.66 115.72C126.77 115.92 126.9 116.1 127.03 116.26C127.29 116.57 127.57 116.81 127.88 117.02C127.66 117 127.53 117.02 127.47 117.08C127.41 117.14 127.43 117.24 127.5 117.38C127.66 117.65 128.06 118.03 128.59 118.39C129.64 119.13 131.18 119.81 132.18 120.22C132.82 120.51 133.23 120.61 133.5 120.63C133.78 120.65 133.93 120.6 134.08 120.54C134.23 120.49 134.39 120.44 134.68 120.46C134.97 120.48 135.39 120.58 136.1 120.79C136.76 121.19 135.99 121.16 135.27 121.11C134.91 121.08 134.57 121.05 134.42 121.1C134.27 121.14 134.32 121.27 134.76 121.54C135.23 121.62 135.7 121.69 136.17 121.74C136.66 121.67 137.1 121.55 137.57 121.43C137.63 121.41 137.69 121.4 137.74 121.38C137.77 121.37 137.81 121.37 137.85 121.36L137.96 121.34C138.11 121.31 138.26 121.29 138.4 121.25C138.69 121.19 138.98 121.12 139.28 121.04C139.69 121.02 140.19 120.91 140.54 120.73C140.83 120.58 141.01 120.41 141.06 120.45C140.9 120.66 140.75 120.8 140.66 120.9C140.49 121.05 140.43 121.14 140.47 121.2C140.51 121.25 140.65 121.27 140.89 121.21C140.96 121.19 141.04 121.17 141.12 121.13C141.2 121.09 141.29 121.05 141.39 120.98C141.57 120.86 141.77 120.68 141.95 120.44C142.11 120.02 142.13 119.74 142.15 119.52C142.16 119.3 142.15 119.13 142.1 118.91C141.92 119.3 141.75 119.48 141.65 119.56C141.55 119.64 141.51 119.61 141.51 119.5C141.52 119.29 141.66 118.76 141.65 118.02C141.65 117.84 141.64 117.64 141.62 117.44C141.61 117.39 141.61 117.34 141.6 117.29L141.58 117.15C141.57 117.06 141.56 116.98 141.54 116.89C141.49 116.54 141.41 116.19 141.32 115.86C141.14 115.19 140.88 114.6 140.6 114.25C139.98 113.14 139.64 112.45 139.48 111.92C139.32 111.39 139.33 111.03 139.35 110.67C139.37 110.31 139.4 109.94 139.26 109.39C139.19 109.12 139.07 108.8 138.88 108.43C138.83 108.34 138.78 108.24 138.72 108.13C138.69 108.08 138.66 108.03 138.63 107.97C138.59 107.89 138.54 107.82 138.48 107.74C138.27 107.42 137.96 107.1 137.59 106.84C137.73 107.09 137.76 107.26 137.72 107.32C137.68 107.39 137.58 107.35 137.41 107.28C137.1 107.12 136.59 106.84 135.99 106.59C134.79 106.1 133.25 105.73 132.44 105.72C131.14 105.41 130.71 105.07 129.9 104.59C129.72 104.6 129.39 104.55 129.1 104.51C128.8 104.47 128.56 104.43 128.47 104.48C128.49 104.81 128.69 105.2 129.05 105.6C129.41 106 129.93 106.41 130.55 106.83C131.16 107.25 131.88 107.67 132.62 108.12C132.99 108.34 133.36 108.58 133.72 108.82C134.07 109.06 134.41 109.31 134.67 109.57C134.8 109.55 134.87 109.55 134.88 109.53Z" fill="#FCEA0D"/>
<path d="M82.45 69.34C81.96 69.01 81.1999 68.31 81.4999 68.18V67.96C81.7099 68.11 82.25 68.5299 82.57 68.8799C82.89 69.2299 83 69.5 82.45 69.34Z" fill="#263682"/>
<path d="M79.75 72.3299L79.8201 72.48C79.7501 72.33 79.5901 72.1499 79.4701 72.0699C79.5101 72.0099 79.6101 71.99 79.7301 72.02C79.8501 72.0499 79.9701 72.1399 80.0701 72.2599C79.9501 72.2999 79.72 72.1099 79.75 72.3299Z" fill="#263682"/>
<path d="M72.7401 66.9499C72.6801 67.1699 72.82 67.43 73.05 67.69C73.28 67.95 73.6101 68.21 73.9501 68.44C73.8501 68.68 73.75 68.9099 73.66 69.1499C73.42 68.9699 73.0301 68.9199 72.6101 68.9599C72.1901 68.9899 71.7501 69.1 71.3701 69.19C71.2401 69.29 71.43 69.32 71.55 69.35C71.68 69.39 71.75 69.4399 71.4 69.5799C71.3 69.4899 71.32 69.2999 71.15 69.2699C70.99 69.3599 70.9101 69.45 70.8501 69.55C70.7901 69.65 70.7501 69.7499 70.6901 69.8399C70.6301 69.9299 70.54 70.02 70.4 70.11C70.33 70.15 70.2301 70.19 70.1201 70.24C70.0101 70.29 69.8701 70.3299 69.7201 70.3799C69.5401 70.3299 69.35 70.2999 69.16 70.2699C68.64 70.5499 68.2001 70.94 67.8401 71.37C67.4801 71.8 67.2301 72.29 67.0601 72.79C66.8901 73.3 66.7901 73.8099 66.7301 74.3299C66.6801 74.8599 66.67 75.3899 66.67 75.9499C66.88 76.1099 67.01 76.46 67.17 76.85C67.21 76.95 67.25 77.0399 67.29 77.1399C67.34 77.2399 67.3901 77.33 67.4401 77.42C67.5301 77.61 67.66 77.7699 67.78 77.8999L67.5901 78.0099C67.6501 78.0399 67.7 78.07 67.75 78.11C67.8 78.15 67.8401 78.2 67.8701 78.25C67.9401 78.36 67.98 78.49 68.03 78.62C68.08 78.76 68.12 78.9 68.17 79.04C68.22 79.18 68.2901 79.2999 68.3701 79.3899C68.4001 79.5599 68.4401 79.7199 68.4801 79.8799C68.4001 80.0599 68.15 79.8299 67.92 79.6099C67.68 79.3999 67.4701 79.1899 67.3601 79.5299C67.4001 79.6699 67.46 79.7799 67.52 79.8799C67.59 79.9799 67.6501 80.08 67.7401 80.17C67.9101 80.33 68.08 80.48 68.27 80.59C68.63 80.83 68.9901 81.0499 69.2001 81.4899C69.5001 81.8299 69.6901 81.92 69.8501 81.97C70.0101 82.02 70.16 82.0099 70.42 82.1399C70.66 82.0499 70.4101 81.86 70.6101 81.7C71.4201 82.23 71.74 82.71 72.04 83.19C72.35 83.67 72.65 84.15 73.51 84.53C73.58 84.46 74 84.5 74.27 84.43C74.54 84.36 74.6201 84.22 74.0701 83.8C73.8401 83.77 73.62 83.74 73.39 83.71C73.3 83.57 73.2101 83.43 73.1201 83.29C73.3401 83.41 73.65 83.57 73.91 83.67C74.17 83.77 74.38 83.81 74.39 83.67C74.51 84.18 75.39 84.3799 76.01 84.4999C76.64 84.6199 77.0101 84.68 76.0901 84.97C75.3601 84.43 75.1201 84.36 74.4601 84.42C75.3401 84.88 76.1601 85.35 76.9701 85.79C77.7601 86.23 78.47 86.5999 79.14 86.7299C79.29 86.6299 79.43 86.53 79.55 86.42C79.55 86.5 79.58 86.58 79.63 86.66C79.68 86.73 79.7601 86.7999 79.8601 86.8499C79.9101 86.8799 79.96 86.9 80.02 86.92C80.08 86.94 80.1401 86.95 80.2001 86.97C80.2601 86.98 80.33 86.9899 80.4 86.9899C80.43 86.9899 80.47 86.9899 80.5 86.9899H80.5801C80.6201 86.9899 80.6501 86.98 80.6901 86.97C80.8701 86.82 81.0901 86.67 80.9301 86.57C80.9001 86.48 80.7001 86.6099 80.4601 86.6199H80.4C80.37 86.6199 80.3501 86.6299 80.3201 86.6199C80.2601 86.6199 80.21 86.6099 80.16 86.6099C80.06 86.5899 79.97 86.5699 79.91 86.5199C79.85 86.4799 79.8301 86.4299 79.8501 86.3599C79.8701 86.2899 79.94 86.2199 80.03 86.1099C80.08 86.1199 80.1301 86.1099 80.1801 86.1099C80.2101 86.1099 80.23 86.1099 80.25 86.1099C80.27 86.1099 80.27 86.1099 80.29 86.1199C80.41 86.1299 80.5401 86.1 80.6801 86.04C80.8301 85.97 80.9901 85.84 81.1101 85.72L81.16 85.67C81.17 85.66 81.1801 85.6399 81.2001 85.6299C81.2101 85.6099 81.2301 85.6 81.2401 85.58L81.28 85.5199C81.31 85.4799 81.3301 85.4399 81.3501 85.3999C81.3701 85.3599 81.39 85.3099 81.4 85.2699C81.46 85.0899 81.46 84.8999 81.42 84.7399C81.66 84.9199 81.7601 85.17 81.8201 85.42C81.8501 85.55 81.87 85.69 81.9 85.83C81.92 85.91 81.9201 85.99 81.9401 86.08C81.9501 86.18 81.9601 86.2799 81.9701 86.3899C81.8001 86.9299 81.3801 87.4199 80.8101 87.6499C80.2601 87.8599 79.62 87.89 79 87.8C78.38 87.7 77.76 87.51 77.16 87.29C75.96 86.84 74.7701 86.4099 73.5701 86.0999C73.5701 85.8299 72.8901 85.3799 73.2201 85.2599C73.0501 84.9799 72.27 84.7899 72.27 84.3699C71.72 84.1699 71.17 83.91 70.65 83.59C70.38 83.44 70.13 83.26 69.88 83.09C69.63 82.91 69.39 82.7199 69.16 82.5199C68.92 82.3299 68.7101 82.11 68.4901 81.91C68.3801 81.8 68.2901 81.69 68.1801 81.59C68.1301 81.54 68.08 81.48 68.03 81.43C67.98 81.37 67.94 81.3199 67.89 81.2699C67.8 81.1599 67.7101 81.05 67.6201 80.95C67.5401 80.84 67.4501 80.7299 67.3701 80.6199C67.3301 80.5699 67.29 80.51 67.25 80.46C67.21 80.4 67.18 80.35 67.14 80.29C67.07 80.18 66.99 80.07 66.92 79.97C66.82 80.38 66.55 80.19 66.26 79.82C66.11 79.64 65.9701 79.4 65.8301 79.19C65.6901 78.98 65.5701 78.78 65.4401 78.67C65.4401 78.51 65.43 78.34 65.38 78.16C65.36 78.07 65.3401 77.9799 65.3101 77.8899C65.2801 77.7999 65.2601 77.7 65.2301 77.61C65.1101 77.23 64.98 76.83 64.9 76.49C64.78 76.44 64.66 75.9999 64.51 76.1299C64.6 76.3899 64.6001 76.5799 64.6101 76.7699C64.6201 76.9599 64.61 77.16 64.66 77.44C64.4 77.4 64.3301 77.0899 64.3101 76.6999C64.3101 76.4999 64.3201 76.2899 64.3301 76.0699C64.3501 75.8499 64.3701 75.63 64.3501 75.42C64.4501 75.56 64.55 75.6999 64.65 75.8299C64.57 75.1499 64.8001 74.4 65.0601 73.75C65.3301 73.09 65.6 72.52 65.66 71.91C65.53 72.03 65.38 72.1399 65.25 72.2699C65.12 72.3999 64.9901 72.54 64.8601 72.68C64.9901 71.91 65.51 71.1699 66.05 70.5799C66.6 69.9799 67.1701 69.54 67.4801 68.98C67.0001 69.2 66.4901 69.7 66.1101 70.12C65.7201 70.53 65.4401 70.87 65.1901 70.69C65.0701 70.57 65.2001 70.2399 65.4601 69.8999C65.5901 69.7299 65.74 69.56 65.91 69.42C65.99 69.35 66.07 69.28 66.15 69.23C66.23 69.18 66.31 69.1299 66.38 69.0899C66.99 68.7599 67.51 68.4499 68.01 68.1499C68.51 67.8499 69 67.55 69.51 67.31C70.01 67.07 70.5301 66.87 71.0701 66.79C71.6301 66.73 72.1801 66.7499 72.7401 66.9499Z" fill="#263682"/>
<path d="M69.01 66.6C67.92 67.03 67.7701 67.42 67.6201 67.71C67.4901 68.04 67.3501 68.29 66.4901 68.92C66.4901 68.71 66.25 68.72 65.92 68.86C65.76 68.93 65.58 69.04 65.41 69.17C65.24 69.3 65.0801 69.45 64.9501 69.6C64.8701 69.78 64.77 69.95 64.67 70.12C64.57 70.3 64.4601 70.4599 64.3501 70.6299C64.2501 70.7999 64.14 70.9699 64.05 71.1299C63.96 71.2999 63.88 71.46 63.81 71.61C63.7 71.81 63.5601 71.86 63.4801 71.75C63.4401 71.7 63.42 71.6 63.43 71.47C63.44 71.34 63.5001 71.16 63.5901 70.95C64.0001 70.51 64.3501 70.03 64.7401 69.56C65.1301 69.09 65.5301 68.6 65.9801 68.17C66.8801 67.31 67.96 66.65 69.01 66.6Z" fill="#263682"/>
<path d="M64.2301 72.06C64.1201 72.4 63.9101 72.95 63.7301 73.44C63.5401 73.93 63.36 74.36 63.15 74.37C63.11 74.48 62.9 74.27 62.95 74.71C62.99 74.54 63.04 74.2899 63.09 74.0099C63.15 73.7299 63.2501 73.4199 63.3501 73.1299C63.4801 72.8399 63.61 72.5699 63.76 72.3799C63.91 72.1899 64.0701 72.07 64.2301 72.06Z" fill="#263682"/>
<path d="M64.7201 73.15C64.8901 73.13 64.8801 73.26 64.8101 73.42C64.7601 73.58 64.6701 73.78 64.6501 73.87L64.5501 74.05C64.5201 74.11 64.4901 74.17 64.4701 74.23C64.4401 74.04 64.4501 73.84 64.4801 73.64C64.5001 73.54 64.5201 73.45 64.5601 73.36C64.6101 73.28 64.6601 73.21 64.7201 73.15Z" fill="#263682"/>
<path d="M64.3501 78.89C64.4101 79.14 64.4101 79.2 64.3501 79.19C64.3001 79.18 64.1901 79.09 64.1101 78.99C63.9401 78.8 63.7701 78.62 63.9801 79.21C63.8701 79 63.78 78.78 63.67 78.56C63.79 78.42 63.9301 78.28 64.0601 78.15C64.1001 78.28 64.1501 78.4 64.2001 78.52L64.3501 78.89Z" fill="#263682"/>
<path d="M64.64 80.4799C64.76 80.5799 64.8701 80.68 64.9801 80.83C65.0801 80.97 65.18 81.16 65.29 81.39L64.9701 81.2599C64.8001 81.1399 64.85 80.8299 64.64 80.4799Z" fill="#263682"/>
<path d="M65.0701 78.82C65.3701 79.18 65.1 79.23 65.14 79.54C65.03 79.5 64.9601 79.21 64.9301 78.99C64.9201 78.77 64.9601 78.62 65.0701 78.82Z" fill="#263682"/>
<path d="M69.75 80.3599C69.21 80.3999 68.9501 79.77 68.4901 79.33C68.6001 79.44 68.7201 79.5299 68.8201 79.5999C68.9301 79.6699 69.0201 79.74 69.1201 79.81C69.2201 79.87 69.32 79.94 69.42 80.03C69.51 80.11 69.64 80.2199 69.75 80.3599Z" fill="#263682"/>
<path d="M87.1101 74.8799C87.1601 75.3199 87.46 75.71 87.67 75.94L87.7201 75.68C87.5201 75.41 87.3101 75.1499 87.1101 74.8799Z" fill="#263682"/>
<path d="M83.7499 69.78C83.4199 69.79 83.44 69.89 83.58 70.1C83.65 70.2 83.75 70.34 83.85 70.49C83.95 70.65 84.0601 70.83 84.1201 71.05C84.4501 71.49 84.8501 71.89 85.2401 72.3C85.6301 72.71 86.02 73.1399 86.29 73.6299C86.47 73.7799 86.67 73.93 86.85 74.09C86.6 73.47 86.2 72.6199 85.65 71.8199C85.1 71.0199 84.4099 70.27 83.7499 69.78Z" fill="#263682"/>
<path d="M89.03 85.4C89.13 84.68 89.28 83.83 89.3 82.95C89.33 82.07 89.18 81.17 88.79 80.44C88.79 80.8 88.7401 80.9899 88.7101 81.2299C88.6801 81.4699 88.6301 81.75 88.6201 82.3C88.2801 81.9 88.2901 81.49 88.3301 81.04C88.3601 80.82 88.4 80.5799 88.41 80.3499C88.43 80.1099 88.44 79.8699 88.38 79.6199C88.39 79.8199 88.3601 79.92 88.3101 79.93C88.2701 79.94 88.21 79.8699 88.14 79.7599C88.07 79.6499 88.0001 79.4899 87.9301 79.3199C87.9001 79.2399 87.8601 79.15 87.8301 79.06C87.8001 78.97 87.7701 78.89 87.7401 78.81C87.6801 78.17 87.46 77.37 87.15 76.53C86.84 75.7 86.4101 74.85 85.9701 74.09C85.8301 73.95 85.6701 73.71 85.4801 73.43C85.3901 73.29 85.2901 73.14 85.2001 73C85.1001 72.86 85 72.7099 84.9 72.5799C84.71 72.3099 84.5001 72.09 84.3401 71.97C84.1801 71.85 84.0601 71.8399 83.9901 72.0099C83.8201 71.8199 83.6901 71.65 83.6101 71.49C83.5301 71.33 83.4801 71.19 83.4301 71.05C83.3801 70.91 83.35 70.7699 83.29 70.6299C83.26 70.5599 83.2301 70.48 83.1901 70.4C83.1501 70.32 83.1 70.25 83.04 70.17C82.76 70.03 82.52 69.86 82.29 69.69C82.07 69.52 81.87 69.3199 81.67 69.1299C81.47 68.9299 81.2901 68.7199 81.1001 68.5099C80.9101 68.2999 80.73 68.07 80.52 67.87C80.32 67.66 80.11 67.4399 79.88 67.2599C79.65 67.0699 79.42 66.88 79.14 66.73C78.59 66.42 77.9601 66.21 77.2401 66.23C77.3701 66.08 77.1101 65.92 76.7401 65.79C76.5501 65.73 76.34 65.6699 76.15 65.6299C75.95 65.5899 75.77 65.5499 75.64 65.5199C75.07 65.4099 74.0801 65.2999 73.3201 65.3799C72.9401 65.4199 72.6201 65.49 72.4301 65.59C72.2501 65.69 72.2001 65.82 72.3601 65.98C72.7601 66.18 73.3201 66.09 73.9501 66.05C74.5701 66 75.2701 66.02 75.8 66.35C76.26 66.62 76.3401 66.76 76.2301 66.8C76.1701 66.82 76.0701 66.8199 75.9301 66.8199C75.7901 66.8099 75.6201 66.8 75.4301 66.78C74.6801 66.71 73.7001 66.7099 73.6801 67.0199C73.8201 66.9699 73.9201 67.08 74.0901 67.19C74.2601 67.29 74.48 67.4 74.9 67.35C74.46 67.37 74.29 67.4299 74.26 67.5099C74.23 67.5899 74.3301 67.68 74.4601 67.79C74.7201 67.99 75.0501 68.23 74.6201 68.37C75.5001 68.66 75.8601 68.8599 76.1101 69.0699C76.3501 69.2799 76.4801 69.5199 76.7401 70.0199C76.9801 70.0699 77.15 70.08 77.29 70.06C77.43 70.04 77.5201 69.98 77.6001 69.92C77.7601 69.79 77.85 69.6 78.05 69.53C78.34 69.58 78.5901 69.71 78.8101 69.84C79.0301 69.99 79.21 70.17 79.39 70.35C79.56 70.54 79.72 70.7199 79.89 70.8899C80.06 71.0699 80.2401 71.22 80.4501 71.34C80.1601 71.41 80.0701 71.5399 80.1001 71.7099C80.1301 71.8799 80.2801 72.09 80.4901 72.31C80.9001 72.76 81.5101 73.3399 81.8701 73.7599C82.2901 74.3299 82.52 74.32 82.77 74.31C82.89 74.31 83.02 74.3099 83.16 74.3899C83.3 74.4799 83.46 74.6599 83.66 75.0099C83.66 75.4699 83.34 75.19 83.01 74.97C82.69 74.74 82.3801 74.57 82.4501 75.12C82.6201 75.28 82.8101 75.43 82.9701 75.61C83.5101 75.81 84.1001 75.9099 84.5801 76.3199C84.6501 76.4699 84.74 76.6699 84.8 76.8299C84.85 76.9999 84.87 77.13 84.8 77.16C84.6101 76.88 84.4401 76.83 84.3401 76.93C84.2401 77.03 84.1901 77.2899 84.2201 77.6299C84.4701 77.8699 84.5201 77.9299 84.7101 78.0199C84.8401 77.6199 84.94 77.5 85.02 77.56C85.11 77.62 85.18 77.86 85.27 78.17C85.43 78.81 85.5601 79.7299 85.9301 80.15C86.0901 80.4799 86.2 80.7599 86.25 80.9999C86.3 81.2399 86.3101 81.43 86.3 81.59C86.26 81.91 86.1001 82.11 85.9401 82.29C85.7801 82.48 85.5901 82.66 85.4801 82.95C85.4301 83.1 85.3801 83.2699 85.3601 83.4899C85.3501 83.5999 85.3501 83.7199 85.3501 83.8599C85.3501 83.9999 85.3501 84.15 85.3701 84.31C85.6101 84.13 85.7501 84.15 85.8201 84.3C85.9001 84.45 85.9 84.73 85.88 85.07C85.82 85.74 85.6101 86.6 85.6201 87.08C85.3701 87.81 85.0201 87.98 84.5601 88.34C84.5701 88.45 84.5201 88.64 84.4701 88.82C84.4301 89 84.4101 89.1799 84.4601 89.2599C84.7701 89.3099 85.11 89.27 85.5 89.15C85.69 89.09 85.8901 88.9999 86.0901 88.8899C86.2901 88.7799 86.5001 88.6499 86.7101 88.4999C87.5501 87.8799 88.4101 86.87 89.1001 85.55C89.0701 85.47 89.06 85.4 89.03 85.4Z" fill="#263682"/>
<path d="M116.6 101.64C116.53 101.81 116.39 102.01 116.23 102.12C116.07 102.23 115.91 102.27 115.82 102.15L115.63 102.1C115.68 102.04 115.77 101.94 115.87 101.83C115.97 101.71 116.07 101.59 116.18 101.49C116.39 101.3 116.58 101.24 116.6 101.64Z" fill="#4CA4DB"/>
<path d="M119.84 104.03L119.97 103.96C119.84 104.03 119.7 104.18 119.63 104.29C119.51 104.22 119.52 103.92 119.73 103.74C119.79 103.85 119.65 104.07 119.84 104.03Z" fill="#4CA4DB"/>
<path d="M113.51 107.29C113.78 107.65 114.52 107.75 115.18 107.61L115.6 108.24C115.34 108.28 115.11 108.49 114.9 108.75C114.68 109 114.47 109.3 114.26 109.54C114.2 109.82 114.84 109.26 114.53 109.83C114.4 109.81 114.3 109.65 114.16 109.7C113.92 110.24 114.54 110.41 113.59 111.22C113.41 111.24 113.24 111.26 113.06 111.28C112.31 112.02 111.65 112.89 110.94 113.71C110.21 114.49 109.45 115.25 108.57 115.78C108.52 116.29 107.63 116.85 107.28 117.42L107.14 117.26C107.08 117.77 106.33 117.81 105.99 118.1L105.54 118.17C105.21 117.97 106.37 117.37 105.76 117.15C104.89 117.4 104.89 118.39 104.08 118.51C103.77 118.68 103.66 118.8 103.6 118.93C103.54 119.06 103.52 119.19 103.36 119.35C103.39 119.59 103.6 119.45 103.7 119.68C102.42 120.67 101.74 119.75 100.62 120.58C100.67 120.76 99.9303 121.71 100.97 121.42C101.08 121.27 101.18 121.12 101.28 120.97L101.69 120.99C101.53 121.1 101.3 121.25 101.13 121.38C100.96 121.51 100.85 121.64 100.95 121.73C100.52 121.51 100.04 122 99.7003 122.36C99.3603 122.72 99.1703 122.92 99.3303 122.11C100 121.96 100.15 121.83 100.35 121.33C99.6903 121.67 99.0303 121.92 98.4103 122.17C98.1003 122.3 97.7904 122.4 97.4904 122.51C97.1904 122.62 96.9102 122.74 96.6302 122.88L96.4703 123.37C96.2903 123.06 95.6503 123.11 95.1003 123.28C94.9103 123.45 94.6004 123.55 94.7404 123.68C94.7404 123.74 94.8603 123.73 95.0403 123.68C95.1303 123.66 95.2303 123.63 95.3303 123.6C95.4303 123.57 95.5403 123.53 95.6403 123.51C96.0503 123.4 96.3803 123.39 96.0403 123.91C95.8803 123.97 95.7203 124.03 95.5503 124.08C95.3803 124.13 95.2103 124.17 95.0503 124.21C94.7103 124.29 94.3803 124.36 94.0503 124.41C93.4003 124.51 92.7903 124.55 92.3003 124.48C92.8403 124.15 93.3003 124.06 93.7103 123.35C93.9403 123.18 94.1803 123.03 94.4203 122.88C94.5403 122.81 94.6703 122.73 94.7903 122.66C94.9103 122.59 95.0403 122.51 95.1603 122.44C95.6503 122.14 96.1603 121.87 96.6603 121.59C96.9103 121.45 97.1603 121.31 97.4103 121.17C97.6503 121.02 97.8904 120.86 98.1204 120.7C98.5804 120.37 99.0203 120.02 99.4103 119.63C99.6103 119.81 100.15 119.6 100.13 119.91C100.4 119.96 100.76 119.49 101.07 119.71C101.38 119.41 101.71 119.12 102.07 118.86C102.25 118.73 102.43 118.6 102.62 118.47L102.9 118.28L103.17 118.09C103.9 117.58 104.64 117.12 105.27 116.69C104.91 116.56 105.04 116.35 105.26 116.1C105.49 115.85 105.82 115.57 105.9 115.33C106.38 115.3 106.84 114.78 107.22 114.46C107.19 114.34 107.41 114.12 107.23 114.03C106.99 114.32 106.8 114.3 106.46 114.48C106.37 114.25 106.53 114.13 106.77 114.02C106.89 113.97 107.03 113.92 107.17 113.86C107.3 113.8 107.44 113.73 107.54 113.64L107.49 114.03C107.85 113.73 108.36 113.54 108.84 113.31C109.31 113.08 109.75 112.82 109.91 112.37L109.07 112.52C109.23 112.31 109.44 112.13 109.66 111.95C109.87 111.77 110.1 111.6 110.32 111.43C110.75 111.09 111.14 110.74 111.21 110.27C110.6 110.64 110.01 111.7 109.61 111.24C109.42 110.98 110 110.43 110.36 110.26C110.76 110.08 111.06 109.83 111.31 109.55C111.55 109.26 111.73 108.94 111.92 108.64C112.32 108.07 112.7 107.52 113.51 107.29Z" fill="#4CA4DB"/>
<path d="M111.23 108.2C110.35 109.2 111.41 109.3 110.43 110.16C110.31 109.82 109.67 110.06 109.35 110.34C109.27 110.55 109.12 110.72 108.95 110.87C108.87 110.94 108.78 111.01 108.7 111.08C108.62 111.14 108.54 111.2 108.47 111.27C108.24 111.39 108 111.07 108.35 110.74C109 110.56 109.42 110.02 109.82 109.48C110.02 109.21 110.22 108.94 110.45 108.72C110.68 108.49 110.92 108.3 111.23 108.2Z" fill="#4CA4DB"/>
<path d="M108.73 111.77C108.44 112.09 107.57 112.6 107.26 112.3C107.19 112.32 107.13 112.08 107 112.3C107.37 112.14 108.23 111.45 108.73 111.77Z" fill="#4CA4DB"/>
<path d="M108.85 112.73C109.13 112.91 108.63 113.03 108.54 113.12L108.25 113.19C108.38 112.97 108.59 112.74 108.85 112.73Z" fill="#4CA4DB"/>
<path d="M105.4 114.4C104.84 114.69 105.65 113.68 105.04 114.09L105.34 113.79L105.77 114.08L105.4 114.4Z" fill="#4CA4DB"/>
<path d="M104.39 114.64C104.32 114.84 104.21 114.99 103.89 115.08L103.92 114.83C103.97 114.71 104.2 114.79 104.39 114.64Z" fill="#4CA4DB"/>
<path d="M105.72 115.02C105.55 115.3 105.43 115.07 105.22 115.11C105.22 114.93 105.93 114.8 105.72 115.02Z" fill="#4CA4DB"/>
<path d="M105.05 119.29C105.06 118.79 105.68 118.63 106.08 118.2C105.68 118.63 105.62 118.95 105.05 119.29Z" fill="#4CA4DB"/>
<path d="M118.67 97.76C118.92 97.62 118.97 97.31 118.96 97.1L118.77 97.14L118.67 97.76Z" fill="#4CA4DB"/>
<path d="M116.56 100.7C116.8 101.19 116.87 100.68 117.45 100.45C117.68 100.2 117.81 99.87 117.93 99.54C118.04 99.2 118.14 98.8601 118.32 98.5801L118.31 98.1C118.04 98.4 117.69 98.82 117.38 99.29C117.03 99.75 116.72 100.25 116.56 100.7Z" fill="#4CA4DB"/>
<path d="M121.38 91.95C121.21 92.33 120.92 92.75 120.69 93.2C120.58 93.43 120.48 93.66 120.41 93.91C120.38 94.03 120.36 94.16 120.35 94.29C120.33 94.42 120.33 94.55 120.34 94.69C120.63 94.36 120.76 94.41 121.13 93.84C121.3 94.2 121.18 94.4299 120.97 94.6299C120.75 94.8299 120.47 95 120.33 95.27C120.68 94.9 120.61 95.5899 120.45 95.9899C120.19 96.3099 119.92 96.7499 119.66 97.2399C119.37 97.7099 119.09 98.23 118.81 98.71C118.78 98.97 118.5 99.3899 118.29 99.7499C118.08 100.11 117.94 100.41 118.25 100.49C117.92 101.08 117.48 100.89 117.09 101.23C117.03 101.64 116.84 101.93 116.59 102.17C116.33 102.41 116 102.58 115.67 102.75C115.02 103.1 114.39 103.47 114.25 104.36C114.03 104.06 113.57 104.69 113.36 104.9C112.92 105.39 111.9 106.57 112.62 106.75C113.26 106.7 113.29 105.51 114.08 105.27C115.42 104.8 113.49 106.42 113.94 106.83C113.97 106.62 114.44 106.89 114.64 106.35C114.11 107.42 115.47 106.41 115.37 107.11C115.94 106.71 116.21 106.53 116.47 106.45C116.73 106.37 116.97 106.38 117.48 106.34C117.88 105.6 117.32 105.46 117.22 105.1C117.36 104.66 117.67 104.41 117.99 104.19C118.31 103.96 118.64 103.76 118.78 103.39C119.23 104.41 120.09 102.75 120.57 102C120.74 101.77 120.8 101.6 120.8 101.47C120.79 101.34 120.73 101.24 120.67 101.14C120.55 100.94 120.44 100.74 120.79 100.24C121.49 99.9599 120.66 101.62 121.49 101.19L121.62 100.6C121.49 100.1 121.23 99.6099 121.23 99.1099C121.36 98.8899 121.54 98.5599 121.67 98.6199C121.55 99.1199 121.93 99.17 122.38 98.82C122.37 98.53 122.36 98.46 122.29 98.28C120.92 98.69 122.75 97.3 122.56 96.39C122.69 95.28 123.05 95.17 123.48 95.07C123.91 94.98 124.38 94.8999 124.62 93.8699C124.08 93.9799 124.12 93.62 124.29 93.14C124.38 92.91 124.48 92.6299 124.56 92.3699C124.64 92.1099 124.7 91.86 124.69 91.68C124.93 91.16 125.23 91.06 125.64 90.79C125.61 90.61 125.73 90.18 125.59 90.06C124.98 90 124.28 90.1699 123.56 90.4999C123.2 90.6599 122.83 90.86 122.45 91.09C122.26 91.2 122.08 91.32 121.89 91.45C121.8 91.51 121.7 91.58 121.61 91.64C121.51 91.7 121.41 91.77 121.31 91.84C121.35 91.9 121.36 91.94 121.38 91.95Z" fill="#4CA4DB"/>
<path d="M110.35 99.59C110.29 99.75 110.15 99.92 110 100.02C109.85 100.12 109.7 100.15 109.61 100.03L109.43 99.9799C109.63 99.7899 110.29 98.84 110.35 99.59Z" fill="#4CA4DB"/>
<path d="M113.58 102.01L113.71 101.95C113.58 102.01 113.45 102.14 113.38 102.24C113.26 102.16 113.27 101.89 113.46 101.73C113.52 101.83 113.39 102.03 113.58 102.01Z" fill="#4CA4DB"/>
<path d="M107.5 104.75C107.76 105.11 108.48 105.26 109.13 105.17L109.54 105.79C109.28 105.81 109.07 106 108.86 106.23C108.65 106.46 108.46 106.74 108.26 106.96C108.21 107.23 108.81 106.73 108.52 107.26C108.4 107.23 108.3 107.07 108.17 107.11C107.95 107.62 108.54 107.82 107.61 108.52L107.09 108.53C106.73 108.86 106.4 109.23 106.06 109.6C105.72 109.96 105.39 110.34 105.04 110.7C104.69 111.05 104.33 111.4 103.95 111.71C103.57 112.01 103.17 112.29 102.74 112.5C102.68 112.99 101.83 113.47 101.47 113.98L101.34 113.81C101.26 114.3 100.54 114.25 100.21 114.51L99.7803 114.54C99.4703 114.31 100.59 113.83 100.02 113.56C99.1903 113.72 99.1702 114.7 98.3802 114.72C97.7702 114.97 97.9603 115.16 97.6603 115.46C97.6803 115.7 97.8803 115.58 97.9703 115.82C97.3503 116.24 96.8903 116.22 96.4403 116.16C95.9903 116.1 95.5703 116.02 95.0203 116.36C95.0603 116.54 94.3103 117.4 95.3103 117.22C95.4203 117.09 95.5202 116.95 95.6302 116.81L96.0203 116.88C95.8603 116.96 95.6303 117.08 95.4603 117.19C95.2903 117.3 95.1803 117.41 95.2703 117.51C94.8803 117.24 94.4103 117.69 94.0603 117.99C93.7203 118.29 93.5203 118.47 93.7303 117.7C94.0503 117.67 94.2503 117.63 94.3903 117.53C94.5303 117.43 94.6203 117.29 94.7303 117.05C93.4503 117.58 92.2003 117.72 91.1603 118.12L90.9803 118.58C90.8303 118.25 90.2403 118.21 89.7003 118.3C89.5103 118.44 89.2103 118.51 89.3403 118.66C89.3203 118.78 89.8003 118.67 90.1903 118.61C90.5803 118.56 90.8903 118.6 90.5403 119.06C90.3803 119.1 90.2303 119.13 90.0703 119.16C89.9103 119.19 89.7503 119.21 89.5903 119.23C89.2703 119.27 88.9503 119.3 88.6503 119.31C88.0303 119.32 87.4603 119.26 87.0103 119.12C87.5403 118.88 87.9803 118.86 88.4203 118.22C89.3303 117.68 90.3303 117.31 91.3003 116.89C91.5403 116.78 91.7803 116.68 92.0203 116.57C92.2603 116.46 92.4903 116.33 92.7103 116.2C92.9403 116.07 93.1604 115.94 93.3704 115.79C93.5804 115.64 93.7803 115.48 93.9703 115.31C94.1403 115.5 94.6602 115.37 94.6302 115.66C94.8802 115.74 95.2403 115.33 95.5303 115.59C96.7503 114.57 98.4103 113.84 99.6003 113.1C99.2603 112.94 99.3904 112.74 99.6104 112.52C99.8304 112.3 100.16 112.07 100.25 111.85C100.71 111.88 101.14 111.4 101.51 111.13C101.49 111.01 101.69 110.81 101.53 110.71C101.3 110.97 101.12 110.93 100.8 111.08C100.72 110.85 100.87 110.74 101.1 110.66C101.21 110.62 101.35 110.58 101.48 110.54C101.61 110.49 101.74 110.44 101.84 110.37L101.78 110.74C102.12 110.48 102.63 110.36 103.08 110.19C103.53 110.01 103.94 109.79 104.1 109.37L103.3 109.44C103.45 109.25 103.65 109.09 103.86 108.94C104.07 108.79 104.29 108.65 104.5 108.5C104.92 108.22 105.28 107.9 105.35 107.46C105.06 107.61 104.78 107.94 104.52 108.16C104.25 108.38 104.02 108.5 103.82 108.26C103.63 107.99 104.2 107.53 104.54 107.39C104.92 107.25 105.2 107.03 105.44 106.78C105.67 106.52 105.85 106.24 106.02 105.96C106.2 105.69 106.37 105.42 106.6 105.2C106.83 105 107.11 104.84 107.5 104.75Z" fill="#4CA4DB"/>
<path d="M105.33 105.46C104.48 106.33 105.5 106.52 104.58 107.27C104.47 106.93 103.87 107.12 103.55 107.35C103.39 107.74 102.97 107.94 102.71 108.16C102.49 108.25 102.26 107.93 102.6 107.64C102.91 107.59 103.17 107.44 103.4 107.25C103.51 107.15 103.62 107.05 103.72 106.93C103.82 106.82 103.91 106.69 104.01 106.57C104.2 106.33 104.39 106.09 104.6 105.89C104.8 105.69 105.03 105.53 105.33 105.46Z" fill="#4CA4DB"/>
<path d="M102.95 108.67C102.81 108.81 102.54 108.99 102.26 109.09C101.98 109.19 101.7 109.21 101.56 109.05C101.49 109.06 101.44 108.83 101.31 109.02C101.67 108.92 102.47 108.32 102.95 108.67Z" fill="#4CA4DB"/>
<path d="M103.06 109.61C103.32 109.81 102.85 109.89 102.76 109.96L102.49 110C102.62 109.81 102.81 109.59 103.06 109.61Z" fill="#4CA4DB"/>
<path d="M99.7703 110.89C99.2303 111.1 100.02 110.22 99.4403 110.55C99.5403 110.47 99.6403 110.38 99.7303 110.29L100.13 110.61C100.01 110.71 99.8903 110.8 99.7703 110.89Z" fill="#4CA4DB"/>
<path d="M98.8003 111.01C98.7303 111.19 98.6203 111.32 98.3203 111.39L98.3503 111.15C98.4003 111.03 98.6203 111.14 98.8003 111.01Z" fill="#4CA4DB"/>
<path d="M100.05 111.53C99.8803 111.78 99.7803 111.55 99.5703 111.56C99.5803 111.38 100.26 111.33 100.05 111.53Z" fill="#4CA4DB"/>
<path d="M99.2803 115.61C99.3103 115.13 99.9103 115.03 100.3 114.64C100.11 114.83 99.9904 115.01 99.8604 115.17C99.7204 115.33 99.5603 115.48 99.2803 115.61Z" fill="#4CA4DB"/>
<path d="M112.22 96.05C112.45 95.92 112.49 95.6301 112.47 95.4401L112.29 95.4701L112.22 96.05Z" fill="#4CA4DB"/>
<path d="M110.29 98.7201C110.54 99.1901 110.6 98.72 111.14 98.52C111.35 98.29 111.46 97.9901 111.56 97.6801C111.66 97.3701 111.74 97.0601 111.91 96.8101L111.88 96.36C111.62 96.63 111.3 97.0101 111.01 97.4301C110.7 97.8401 110.44 98.3001 110.29 98.7201Z" fill="#4CA4DB"/>
<path d="M114.55 90.7201C114.48 90.9001 114.38 91.0801 114.28 91.2701C114.18 91.4601 114.07 91.66 113.96 91.87C113.86 92.08 113.77 92.2901 113.72 92.5201C113.7 92.6301 113.68 92.75 113.68 92.87C113.67 92.99 113.68 93.11 113.7 93.24C113.96 92.93 114.09 92.9901 114.43 92.4701C114.62 92.8101 114.5 93.0201 114.31 93.2001C114.11 93.3801 113.84 93.5401 113.73 93.7901C114.05 93.4501 114.02 94.0901 113.89 94.4601C113.65 94.7501 113.4 95.15 113.16 95.6C112.9 96.04 112.66 96.5201 112.41 96.9501C112.39 97.1901 112.12 97.5701 111.93 97.9001C111.74 98.2301 111.62 98.5101 111.93 98.5901C111.63 99.1301 111.21 98.95 110.84 99.24C110.79 99.62 110.61 99.8801 110.37 100.09C110.13 100.3 109.81 100.45 109.51 100.6C109.2 100.75 108.9 100.91 108.65 101.12C108.4 101.33 108.23 101.62 108.17 102.03C107.95 101.73 107.53 102.3 107.33 102.49C107.13 102.72 106.78 103.08 106.57 103.42C106.47 103.59 106.4 103.75 106.4 103.89C106.4 104.02 106.47 104.13 106.65 104.19C106.96 104.19 107.12 103.91 107.29 103.61C107.38 103.46 107.47 103.3 107.59 103.18C107.7 103.05 107.84 102.94 108.03 102.89C108.66 102.71 108.53 102.97 108.29 103.34C108.23 103.43 108.17 103.53 108.1 103.63C108.04 103.73 107.97 103.82 107.93 103.91C107.84 104.09 107.8 104.26 107.91 104.37C107.94 104.17 108.4 104.47 108.59 103.97C108.34 104.46 108.54 104.49 108.79 104.48C109.04 104.47 109.35 104.41 109.31 104.74C109.85 104.39 110.11 104.23 110.35 104.16C110.59 104.09 110.83 104.12 111.33 104.11C111.71 103.43 111.16 103.27 111.07 102.92C111.2 102.52 111.49 102.29 111.79 102.09C112.09 101.89 112.4 101.7 112.54 101.37C113 102.36 113.83 100.84 114.25 100.12C114.57 99.68 114.44 99.4901 114.32 99.3001C114.2 99.1101 114.08 98.9101 114.41 98.4601C115.09 98.2201 114.32 99.75 115.12 99.37L115.23 98.8201C115.1 98.3501 114.82 97.8701 114.79 97.4001C114.9 97.1901 115.07 96.8901 115.2 96.9501C115.11 97.4201 115.48 97.4801 115.91 97.1501C115.89 96.8801 115.88 96.8101 115.8 96.6401C115.13 96.8101 115.23 96.5901 115.48 96.2101C115.6 96.0201 115.76 95.7901 115.88 95.5601C115.99 95.3201 116.05 95.08 115.99 94.87C116.05 93.83 116.41 93.7301 116.83 93.6401C117.04 93.6001 117.26 93.5601 117.46 93.4101C117.66 93.2601 117.82 93.0001 117.9 92.5101C117.38 92.6101 117.39 92.2701 117.53 91.8301C117.67 91.3801 117.89 90.8101 117.85 90.4601C118.06 89.9801 118.34 89.87 118.73 89.61C118.69 89.44 118.77 89.0401 118.63 88.9301C118.02 88.8901 117.35 89.06 116.66 89.37C116.32 89.53 115.96 89.7101 115.6 89.9201C115.24 90.1301 114.89 90.37 114.52 90.61C114.52 90.67 114.53 90.7101 114.55 90.7201Z" fill="#4CA4DB"/>
<path d="M105.09 91.2201C105.02 91.3801 104.88 91.56 104.72 91.67C104.57 91.78 104.41 91.81 104.32 91.68L104.14 91.63C104.34 91.42 105.05 90.4401 105.09 91.2201Z" fill="#4CA4DB"/>
<path d="M108.27 93.6901L108.4 93.63C108.27 93.69 108.14 93.82 108.07 93.92C107.95 93.84 107.96 93.57 108.16 93.41C108.22 93.51 108.08 93.7101 108.27 93.6901Z" fill="#4CA4DB"/>
<path d="M102.19 96.62C102.47 96.97 103.21 97.0701 103.85 96.9401L104.29 97.54C104.03 97.58 103.83 97.78 103.64 98.02C103.44 98.26 103.27 98.55 103.08 98.79C103.05 99.06 103.62 98.5201 103.36 99.0701C103.24 99.0501 103.13 98.9001 103 98.9501C102.81 99.4701 103.42 99.63 102.56 100.41L102.05 100.47C101.4 101.21 100.84 102.06 100.25 102.87C99.6502 103.66 99.0204 104.43 98.2404 104.98C98.2704 105.47 97.5002 106.08 97.2502 106.66L97.0903 106.52C97.1103 107.02 96.4002 107.11 96.1302 107.42L95.7203 107.53C95.3703 107.37 96.3703 106.67 95.7603 106.52C94.9803 106.85 95.1403 107.8 94.3903 108C93.8503 108.39 94.0804 108.52 93.8604 108.89C93.9304 109.12 94.1004 108.96 94.2404 109.17C93.2404 110.28 92.4103 109.49 91.5203 110.44C91.6103 110.6 91.1203 111.63 92.0303 111.19C92.1003 111.03 92.1603 110.87 92.2203 110.71L92.6204 110.68C92.4904 110.8 92.3003 110.98 92.1703 111.13C92.0403 111.28 91.9603 111.42 92.0803 111.49C91.1903 111.19 90.7303 113.7 90.6603 112.1C91.2503 111.85 91.3603 111.7 91.4403 111.19C90.9003 111.61 90.3403 111.96 89.8103 112.3C89.2803 112.63 88.7703 112.93 88.3303 113.29L88.3103 113.79C88.0603 113.53 87.4903 113.7 87.0103 113.96C86.8803 114.16 86.6203 114.33 86.7903 114.42C86.8203 114.54 87.2303 114.26 87.5803 114.08C87.9303 113.9 88.2303 113.83 88.0603 114.39C87.5303 114.74 86.9304 115.04 86.3704 115.28C85.8004 115.52 85.2503 115.68 84.7803 115.72C85.1903 115.29 85.5803 115.11 85.7703 114.34C86.1103 113.92 86.4902 113.55 86.8802 113.17C87.2702 112.8 87.6803 112.44 88.0803 112.08C88.2803 111.9 88.4803 111.72 88.6803 111.54C88.8803 111.36 89.0604 111.16 89.2404 110.97C89.6004 110.58 89.9403 110.17 90.2203 109.73C90.4403 109.87 90.9103 109.59 90.9603 109.88C91.2203 109.89 91.4703 109.39 91.8203 109.56C92.2803 108.89 92.8902 108.3 93.5002 107.73C94.1102 107.16 94.7403 106.64 95.2703 106.16C94.9003 106.07 94.9903 105.85 95.1703 105.59C95.3503 105.33 95.6303 105.03 95.6803 104.8C96.1403 104.73 96.5003 104.19 96.8203 103.85C96.7803 103.74 96.9503 103.5 96.7703 103.43C96.5803 103.73 96.3903 103.72 96.1003 103.93C95.8603 103.5 96.6503 103.41 97.0303 103.03V103.41C97.6403 102.78 98.9503 102.56 99.1703 101.67L98.3802 101.86C98.5103 101.64 98.6903 101.46 98.8802 101.28C99.0702 101.1 99.2803 100.93 99.4703 100.75C99.8603 100.4 100.2 100.05 100.23 99.6C99.6703 99.98 99.2003 101.03 98.7603 100.6C98.5403 100.35 99.0603 99.8 99.4003 99.62C99.7703 99.43 100.04 99.18 100.26 98.9C100.47 98.62 100.63 98.31 100.79 98.01C101.08 97.39 101.42 96.85 102.19 96.62Z" fill="#4CA4DB"/>
<path d="M100.02 97.54C99.2203 98.53 100.27 98.6001 99.4003 99.4701C99.2603 99.1401 98.6604 99.4001 98.3604 99.6901C98.2404 100.11 97.8304 100.38 97.6004 100.64C97.3904 100.77 97.1203 100.47 97.4303 100.13C98.0503 99.93 98.4103 99.3801 98.7603 98.8401C98.9303 98.5701 99.1103 98.3001 99.3103 98.0701C99.5003 97.8401 99.7303 97.65 100.02 97.54Z" fill="#4CA4DB"/>
<path d="M97.9003 101.11C97.6603 101.44 96.8703 101.99 96.5403 101.72C96.4703 101.74 96.3903 101.52 96.2903 101.73C96.6203 101.56 97.3703 100.83 97.9003 101.11Z" fill="#4CA4DB"/>
<path d="M98.1204 102.04C98.4104 102.2 97.9404 102.35 97.8604 102.44L97.5903 102.52C97.7003 102.3 97.8704 102.06 98.1204 102.04Z" fill="#4CA4DB"/>
<path d="M95.0002 103.91C94.4902 104.24 95.1404 103.19 94.6104 103.65L94.8604 103.33L95.3203 103.57L95.0002 103.91Z" fill="#4CA4DB"/>
<path d="M94.0503 104.24C94.0103 104.44 93.9202 104.59 93.6302 104.72L93.6204 104.48C93.6504 104.35 93.8903 104.41 94.0503 104.24Z" fill="#4CA4DB"/>
<path d="M95.3902 104.49C95.2702 104.77 95.1202 104.57 94.9202 104.62C94.9002 104.44 95.5702 104.25 95.3902 104.49Z" fill="#4CA4DB"/>
<path d="M95.4404 108.66C95.3604 108.18 95.9204 107.97 96.2204 107.51C95.9304 107.97 95.9204 108.28 95.4404 108.66Z" fill="#4CA4DB"/>
<path d="M107.23 87.5901C107.48 87.4701 107.55 87.17 107.55 86.98L107.36 87L107.23 87.5901Z" fill="#4CA4DB"/>
<path d="M105.06 90.3101C105.29 90.8001 105.37 90.3 105.94 90.11C106.17 89.88 106.3 89.57 106.43 89.26C106.55 88.94 106.66 88.62 106.85 88.37L106.86 87.9C106.58 88.17 106.22 88.55 105.89 88.98C105.54 89.41 105.23 89.8701 105.06 90.3101Z" fill="#4CA4DB"/>
<path d="M110.34 82.28C110.14 82.63 109.81 82.99 109.54 83.4C109.27 83.81 109.06 84.27 109.07 84.8C109.38 84.51 109.5 84.5801 109.92 84.0801C110.06 84.4501 109.91 84.6501 109.69 84.8201C109.47 84.9901 109.17 85.12 109.02 85.37C109.39 85.05 109.27 85.7101 109.09 86.0701C108.81 86.3501 108.52 86.7501 108.23 87.1901C107.93 87.6301 107.63 88.1 107.34 88.54C107.31 88.79 107.01 89.17 106.79 89.5C106.57 89.83 106.43 90.1201 106.74 90.2101C106.41 90.7601 105.98 90.56 105.59 90.86C105.53 91.25 105.34 91.53 105.09 91.74C104.84 91.96 104.51 92.11 104.2 92.27C103.56 92.59 102.94 92.93 102.82 93.79C102.59 93.49 102.17 94.1101 101.96 94.3201C101.55 94.8001 100.58 95.95 101.3 96.12C101.93 96.07 101.91 94.92 102.67 94.68C103.96 94.24 102.13 95.7901 102.6 96.1901C102.62 95.9901 103.09 96.25 103.27 95.73C102.8 96.76 104.08 95.8001 104.02 96.4701C105.1 95.7101 105.03 95.81 106.04 95.78C106.41 95.09 105.86 94.9401 105.76 94.5801C105.88 94.1701 106.18 93.94 106.49 93.73C106.8 93.52 107.11 93.34 107.25 93.01C107.7 94.01 108.53 92.49 109 91.8C109.34 91.38 109.22 91.18 109.11 90.98C109 90.78 108.9 90.58 109.25 90.14C109.94 89.93 109.09 91.43 109.91 91.1L110.05 90.5601C109.94 90.0701 109.7 89.59 109.71 89.11C109.84 88.91 110.03 88.6201 110.16 88.6901C110.02 89.1601 110.4 89.2401 110.85 88.9501C110.85 88.6801 110.85 88.61 110.79 88.43C109.42 88.67 111.29 87.55 111.16 86.67C111.35 85.63 111.72 85.57 112.15 85.54C112.58 85.51 113.05 85.5101 113.37 84.5701C112.84 84.5901 112.91 84.2601 113.11 83.8401C113.32 83.4201 113.64 82.88 113.66 82.53C113.95 82.08 114.26 82.04 114.69 81.85C114.68 81.67 114.84 81.29 114.73 81.15C113.55 80.82 111.97 81.34 110.33 82.17C110.32 82.22 110.32 82.26 110.34 82.28Z" fill="#4CA4DB"/>
</svg>
