<svg width="118" height="80" viewBox="0 0 118 80" fill="none" xmlns="http://www.w3.org/2000/svg">
<g id="Vector">
<path d="M64.8635 73.1108C65.4965 72.6293 66.2096 72.0023 66.8665 71.3027C67.5235 70.603 68.1244 69.8216 68.6131 69.1129C69.0938 68.4042 69.4624 67.7591 69.7028 67.3593C69.9432 66.9595 70.0553 66.805 70.0232 67.0685C70.1594 66.8777 70.3036 66.6869 70.4398 66.487C70.3757 66.6596 70.2877 66.8686 70.1835 67.1049C70.0874 67.3411 69.9591 67.5955 69.8229 67.8681C69.5505 68.4132 69.2061 69.0221 68.8055 69.6218C67.9963 70.8302 66.9386 72.0023 65.9451 72.7928C64.9677 73.6015 64.0864 74.0558 63.79 74.1467C63.6377 74.1921 63.6377 74.1557 63.8059 74.0012C63.9661 73.8468 64.3267 73.5833 64.8635 73.1108Z" fill="#4CA4DB"/>
<path d="M63.3974 69.3036L63.0608 69.5308L62.7163 69.7399C63.0688 69.54 63.4775 69.2401 63.854 68.9039C64.2386 68.5677 64.5911 68.1952 64.8475 67.8772C64.9196 67.8953 64.7353 68.2497 64.3427 68.7131C63.9582 69.1765 63.3573 69.7489 62.6522 70.1578C62.7163 70.0851 62.8445 69.9761 62.9807 69.8489C63.125 69.7308 63.2772 69.5854 63.3974 69.4673C63.6458 69.231 63.7579 69.0765 63.3974 69.3036Z" fill="#4CA4DB"/>
<path d="M99.9799 59.2089C99.9078 58.9817 99.7957 59.0453 99.6435 59.3179C99.5794 59.4542 99.4752 59.636 99.379 59.8632C99.2829 60.0903 99.1467 60.3538 99.0185 60.6537C98.7301 61.2352 98.3456 61.9348 97.8488 62.6344C97.3521 63.3431 96.7432 64.0701 96.0461 64.7425C96.2064 64.1973 96.3345 63.6521 96.4146 63.116C96.4867 63.0342 96.5589 62.9433 96.631 62.8525C96.7031 62.7525 96.7672 62.6526 96.8473 62.5527C96.8874 62.4981 96.9193 62.4436 96.9594 62.3891C96.9915 62.3345 97.0315 62.2801 97.0636 62.2165C97.1357 62.0984 97.2078 61.9802 97.2719 61.853C97.5443 61.3533 97.7846 60.7626 97.9609 60.1266C98.1372 59.4815 98.2493 58.7909 98.2573 58.0549C98.2413 57.7551 98.2173 57.4552 98.2013 57.1463C98.1372 56.801 98.0731 56.4648 98.017 56.1196C97.9449 55.7652 97.8648 55.42 97.7927 55.0657C97.7126 54.7204 97.6324 54.3842 97.5523 54.0389L97.6245 54.0025C97.6565 54.0025 97.7045 54.0116 97.7526 54.0116L98.009 54.0389L98.5298 54.0843C98.8743 54.1206 99.2348 54.1389 99.5954 54.1661C99.9559 54.2025 100.3 54.1933 100.645 54.1933C100.821 54.1933 100.997 54.2024 101.166 54.1933C101.206 54.1933 101.246 54.1934 101.294 54.1843L101.414 54.1752L101.566 54.157C102.384 54.0753 103.185 53.9026 103.93 53.6845C104.306 53.521 104.258 53.5028 104.034 53.5391C103.922 53.5664 103.77 53.5846 103.601 53.6119C103.433 53.6391 103.257 53.6845 103.089 53.6936C102.768 53.73 102.52 53.7481 102.6 53.6936C102.68 53.63 103.097 53.5573 104.058 53.212C104.523 53.1666 104.25 53.4665 105.1 53.2211C105.524 53.0212 105.861 52.8304 106.133 52.6487C106.414 52.4761 106.622 52.3125 106.814 52.158C107.006 52.0126 107.159 51.8582 107.327 51.7128C107.487 51.5674 107.647 51.413 107.84 51.2313C108.216 50.877 108.697 50.4499 109.434 49.7139C109.803 49.3504 110.227 48.8961 110.708 48.3237C111.189 47.7512 111.733 47.0425 112.286 46.143C112.855 45.3979 113.36 44.5893 113.793 43.717C114.586 41.5636 114.906 39.2194 114.682 36.8933C114.458 34.5672 113.745 32.2775 112.639 30.2603C112.094 29.2518 111.453 28.2977 110.74 27.4345C110.027 26.5714 109.234 25.799 108.384 25.1266C107.543 24.4542 106.63 23.9 105.692 23.473L105.34 23.3185L104.979 23.1822C104.739 23.0822 104.499 23.0096 104.258 22.9369L104.074 22.8824L103.738 22.8006L103.041 22.6461L102.864 22.6098L102.68 22.5735L101.55 22.3554C101.43 21.6285 101.318 20.8925 101.182 20.1656L101.086 19.6205L101.022 19.3387C100.973 19.1479 100.933 18.9571 100.885 18.7754C100.701 18.0485 100.469 17.3489 100.204 16.6493C100.076 16.304 99.9319 15.9678 99.7877 15.6225C99.6354 15.2863 99.4832 14.9502 99.315 14.6321C98.9865 13.9779 98.634 13.3418 98.2494 12.7422C96.7111 10.3071 94.7402 8.27182 92.5369 6.79077C91.9921 6.54544 91.2148 6.16386 90.2614 5.80041C89.308 5.43696 88.1944 5.10069 87.0006 4.91896C86.7041 4.86445 86.3997 4.83719 86.0952 4.80993C85.7908 4.79176 85.4783 4.76456 85.1738 4.75547C84.5569 4.7373 83.9319 4.75543 83.331 4.82812C83.0266 4.85538 82.7301 4.90082 82.4417 4.94625C82.1533 5.00077 81.8649 5.04625 81.5845 5.11894C81.0316 5.23706 80.5108 5.4097 80.0381 5.57325L79.894 5.39146C78.8284 5.90938 77.3781 6.4909 75.936 7.32682C75.2149 7.74479 74.5019 8.21732 73.8529 8.74432C73.6927 8.88061 73.5324 9.00777 73.3722 9.14406C73.22 9.28035 73.0677 9.4257 72.9155 9.56199C72.7712 9.70737 72.6271 9.84375 72.4909 9.98912C72.4428 10.0255 72.2906 10.2072 72.1784 10.3435C72.0582 10.4889 71.938 10.6251 71.8178 10.7614C71.5935 10.9795 71.3612 11.3066 71.1288 11.5883C70.8965 11.8791 70.6721 12.1607 70.4478 12.4605L69.1499 14.1506C69.1339 14.1324 69.1258 14.1142 69.1098 14.096L69.0698 14.0233L68.9977 13.8779L68.8454 13.5963L68.549 13.033C68.4368 12.7604 68.4609 12.7331 68.573 12.8785C68.6291 12.9512 68.7092 13.0693 68.8133 13.2237C68.8614 13.3055 68.9176 13.3873 68.9817 13.4782C69.0137 13.5236 69.0457 13.5782 69.0778 13.6236C69.1098 13.669 69.1419 13.7325 69.1739 13.7598C69.4383 13.3691 69.7348 12.9148 70.0793 12.4151C70.2556 12.1697 70.4318 11.9063 70.616 11.6428C70.8003 11.3883 70.9927 11.1249 71.1849 10.8523C71.3772 10.5706 71.5695 10.3616 71.7618 10.1253C71.8579 10.0072 71.9541 9.89817 72.0502 9.78005L72.1223 9.6983L72.1704 9.64384L72.2585 9.54391C72.3707 9.4167 72.4909 9.28946 72.6031 9.16225C72.7152 9.04413 72.8273 8.92601 72.9315 8.81697C73.1398 8.58982 73.3402 8.40808 73.5004 8.23544C73.6607 8.07189 73.7888 7.94475 73.8529 7.8448C73.9891 7.65399 73.917 7.62663 73.4844 7.85378C73.1319 8.11728 72.8034 8.39899 72.4829 8.68975C72.3226 8.82604 72.1704 8.9805 72.0261 9.13496L71.8579 9.29856L71.8339 9.32574L71.7939 9.36212C71.6897 9.48024 71.5936 9.58928 71.4894 9.7074C71.3933 9.81643 71.2891 9.93455 71.193 10.0436C71.0968 10.1617 70.9927 10.298 70.8965 10.4252C70.7042 10.6797 70.5039 10.934 70.3196 11.1975C70.1353 11.461 69.9431 11.7245 69.7588 11.988C69.5745 12.2515 69.3982 12.515 69.222 12.7694C69.2139 12.7604 69.198 12.7694 69.19 12.7512L69.1579 12.6968L69.0858 12.5787L68.9496 12.3515C68.8614 12.197 68.7653 12.0426 68.6772 11.8881C68.4929 11.5792 68.3086 11.2793 68.1243 10.9704C67.7397 10.3798 67.3552 9.80732 66.9626 9.22581C66.9146 9.1622 66.8584 9.06229 66.8264 9.03503L66.5139 8.65337C66.3777 8.48982 66.2336 8.31725 66.0974 8.1537C65.9612 7.98106 65.8089 7.83566 65.6647 7.6812L65.224 7.21779C64.0302 6.00025 62.7563 4.9099 61.3222 3.81048C60.2966 3.11084 59.5035 2.71104 58.8866 2.43845C58.7344 2.36576 58.5901 2.29311 58.4539 2.24768C58.3177 2.20225 58.1895 2.1568 58.0694 2.11136C57.829 2.02959 57.6126 1.95691 57.4123 1.8933C57.3162 1.85696 57.212 1.83883 57.1159 1.82066C57.0197 1.80248 56.9236 1.77516 56.8275 1.75699C56.6352 1.71156 56.4429 1.6752 56.2266 1.62977C56.0182 1.57525 55.7779 1.54798 55.5055 1.50255C55.3693 1.47529 55.2251 1.45715 55.0729 1.42081C54.9207 1.39355 54.7524 1.35723 54.5681 1.33906C54.1835 1.39358 54.4078 1.48446 54.6882 1.58441C54.9606 1.70253 55.2811 1.84792 55.1129 1.93878C54.9526 1.90244 54.8004 1.86599 54.6482 1.83873C54.496 1.81148 54.3437 1.79335 54.1915 1.77518C54.0393 1.74792 53.8951 1.72979 53.7509 1.70253C53.6067 1.68436 53.4624 1.64795 53.3182 1.63887C52.7494 1.60252 52.2206 1.52075 51.7078 1.52984C51.4514 1.52075 51.2111 1.52073 50.9708 1.51165C50.7304 1.52073 50.4981 1.53894 50.2737 1.54803C50.0494 1.5662 49.825 1.55715 49.6087 1.58441C49.3923 1.61166 49.184 1.6298 48.9837 1.65706C48.7834 1.68431 48.5751 1.69335 48.3828 1.72061C48.1905 1.75695 47.9983 1.78431 47.814 1.82066C47.6297 1.84791 47.4455 1.88424 47.2612 1.9115C47.0849 1.94784 46.9087 1.99328 46.7404 2.02962C46.5641 2.06596 46.3959 2.1114 46.2276 2.14774C46.1475 2.16592 46.0593 2.18403 45.9792 2.2022C45.8991 2.22946 45.819 2.24771 45.7389 2.27496C45.4104 2.37491 45.0979 2.46573 44.7774 2.56567C43.5275 3.00181 42.3177 3.52884 40.9797 4.4102C40.8115 4.52832 40.6432 4.64645 40.475 4.76457C40.3869 4.82817 40.2988 4.88265 40.2106 4.94625C40.1225 5.00985 40.0344 5.07343 39.9463 5.14612C39.778 5.2915 39.6017 5.43686 39.4175 5.58224C39.3293 5.65493 39.2332 5.7367 39.1451 5.80939C39.097 5.84574 39.0489 5.89117 39.0088 5.92752C38.9608 5.97295 38.9207 6.00931 38.8726 6.05474C38.6963 6.22737 38.5121 6.40918 38.3198 6.5909C38.2237 6.68176 38.1275 6.78165 38.0314 6.87252C37.9353 6.97246 37.8471 7.08147 37.759 7.18141C37.5747 7.3904 37.3824 7.61763 37.1901 7.8357C37.0859 7.94474 37.0058 8.07186 36.9097 8.19906C36.8136 8.32627 36.7254 8.45352 36.6293 8.58072C36.6133 8.63524 36.5331 8.78058 36.4049 8.99865C36.3408 9.0986 36.2767 9.23492 36.1966 9.37121C36.1245 9.50751 36.0445 9.66196 35.9563 9.81643C35.8762 9.97089 35.788 10.1345 35.6999 10.298C35.6118 10.4616 35.5396 10.6432 35.4675 10.8068C35.4515 10.8522 35.4275 10.8886 35.4115 10.934C35.4035 10.9613 35.3954 10.9704 35.3794 11.0068L35.3314 11.1067C35.2673 11.243 35.2032 11.3702 35.1391 11.5064C35.0189 11.779 34.9067 12.0425 34.8106 12.2878C34.426 13.2601 34.1936 13.9143 34.482 13.5055C34.6263 13.2965 34.8907 12.833 35.3554 11.9789C35.3875 11.9244 35.4115 11.87 35.4435 11.8155C35.4756 11.7609 35.5076 11.7064 35.5397 11.6519C35.6038 11.5428 35.6759 11.4247 35.756 11.3066C35.8361 11.1794 35.9242 11.034 36.0284 10.8886C36.1165 10.7433 36.2367 10.5979 36.3489 10.4343C36.4611 10.2708 36.5892 10.0981 36.7254 9.91636C36.8616 9.65286 37.0379 9.41668 37.1981 9.18044C37.3584 8.93511 37.5186 8.68974 37.6868 8.4535L38.2157 7.76294C38.3038 7.64482 38.3919 7.5267 38.48 7.41766L38.7684 7.09057L39.2172 6.71801L39.4415 6.53633L39.6738 6.36375C39.9863 6.14568 40.2907 5.90934 40.6112 5.70036C40.1145 6.12741 39.5136 6.64539 38.9528 7.24508C38.8086 7.39046 38.6563 7.53583 38.5281 7.69029C38.3919 7.84476 38.2637 8.00833 38.1275 8.16279C37.9993 8.31726 37.8632 8.47172 37.735 8.6171C37.6148 8.78065 37.5026 8.93513 37.3904 9.08051C37.2782 9.23497 37.1741 9.38033 37.0699 9.51663C37.0218 9.58931 36.9658 9.6529 36.9257 9.72559C36.8857 9.79828 36.8376 9.86186 36.7975 9.93455C36.6373 10.1981 36.4931 10.4343 36.3889 10.616C36.3328 10.7069 36.2927 10.7887 36.2607 10.8614C36.2286 10.9341 36.2046 10.9885 36.1966 11.0339C36.1726 11.1248 36.1806 11.1521 36.2447 11.1067C36.1967 11.1612 36.1485 11.2157 36.0925 11.2793C36.0684 11.3156 36.0444 11.3429 36.0124 11.3792L35.9723 11.4338C35.9482 11.4701 35.9242 11.5065 35.9002 11.5428C35.796 11.6973 35.6919 11.8609 35.5797 12.0335C35.4835 12.2152 35.3794 12.4061 35.2672 12.6059C34.8506 13.3874 34.3939 14.2687 33.9132 15.2228C33.3764 14.8412 32.8316 14.4413 32.2547 14.0506C31.9663 13.8598 31.6698 13.6599 31.3734 13.46C31.2212 13.36 31.077 13.2601 30.9248 13.1602C30.7966 13.0693 30.5562 12.9421 30.5242 12.9239C30.3639 12.8422 30.2116 12.7513 30.0514 12.6695C29.8912 12.5877 29.7229 12.515 29.5627 12.4423C29.3944 12.3697 29.2342 12.2879 29.0659 12.2243C28.8977 12.1607 28.7294 12.0971 28.5612 12.0244C27.2232 11.5065 25.8692 11.2521 24.8516 11.1067C24.5953 11.0704 24.3629 11.0431 24.1546 11.0159C23.9463 10.9977 23.7621 10.9795 23.6018 10.9613C23.4496 10.9431 23.3214 10.925 23.2333 10.9068C23.1452 10.8978 23.081 10.8795 23.065 10.8614C23.0249 10.8341 23.1451 10.7796 23.4576 10.7432C23.6098 10.7251 23.8181 10.7069 24.0745 10.6797C24.3309 10.6615 24.6434 10.6615 25.0119 10.6524C27.0149 11.1521 28.2728 11.6882 29.3384 12.1697C29.6028 12.2969 29.8592 12.406 30.1075 12.5241C30.2277 12.5877 30.3559 12.6423 30.4761 12.7059L30.6603 12.7967C30.6683 12.7967 30.7165 12.824 30.7485 12.8422C30.7886 12.8604 30.8126 12.8785 30.8447 12.8967C30.9008 12.933 30.9568 12.9602 31.0129 12.9966C31.4696 13.2783 31.9262 13.5509 32.3909 13.8326C32.8396 14.1051 33.3043 14.3959 33.793 14.7048C33.8972 14.4686 34.0094 14.196 34.1296 13.9234C34.0094 14.1687 33.8892 14.4141 33.777 14.6321C33.3123 14.305 32.8556 13.9779 32.399 13.6599C31.9343 13.3509 31.4696 13.042 31.0129 12.7331C30.7165 12.5513 30.6443 12.5241 30.5001 12.4333C30.3719 12.3606 30.2357 12.2879 30.1075 12.2061C29.8431 12.0698 29.5707 11.9336 29.3063 11.7973C28.2327 11.2884 27.1271 10.8886 26.0134 10.5978C23.7861 10.0163 21.5187 9.86188 19.3315 10.0618C18.2338 10.1617 17.1602 10.3525 16.1106 10.6251C15.0611 10.8977 14.0515 11.2612 13.0741 11.7064C12.0966 12.1426 11.1592 12.6604 10.2699 13.251C9.38857 13.8416 8.55534 14.514 7.77818 15.2499C7.22535 15.9223 6.73662 16.6493 6.27994 17.3762C6.19181 17.3489 5.95949 17.5306 5.60696 17.8668C5.43871 18.0394 5.24634 18.2666 5.02201 18.512C4.80568 18.7664 4.58938 19.0753 4.34101 19.4024C3.87631 20.0839 3.37154 20.9015 2.91485 21.8283C2.45817 22.7551 2.0336 23.791 1.68108 24.845C1.43271 25.7809 1.18431 26.853 1.05612 27.6344C0.93594 28.4158 0.895849 28.8884 1.02404 28.6158C1.04006 28.843 1.1923 27.9434 1.5288 26.635C1.56886 26.4714 1.61697 26.3079 1.66504 26.1262C1.68907 26.0353 1.71308 25.9535 1.73712 25.8627C1.76115 25.7718 1.79318 25.6809 1.81722 25.59C1.92939 25.2266 2.04161 24.845 2.17782 24.4724C2.24191 24.2816 2.30601 24.0908 2.37812 23.9C2.45022 23.7092 2.53037 23.5275 2.60247 23.3367C2.64253 23.2458 2.6745 23.1459 2.71456 23.0551C2.75462 22.9642 2.79469 22.8733 2.83475 22.7824C2.91487 22.6007 2.99503 22.419 3.07515 22.2464C3.23539 21.9011 3.41164 21.5739 3.56387 21.265C3.73212 20.9652 3.89233 20.6927 4.03655 20.4473C4.18878 20.2111 4.32499 20.0021 4.44517 19.8294C4.50125 19.7476 4.55739 19.6659 4.60547 19.6023C4.65354 19.5387 4.70154 19.4932 4.73359 19.4478C4.88582 19.2842 4.92586 19.3115 4.81369 19.5841C4.7576 19.7113 4.67753 19.9203 4.55735 20.1929C4.49325 20.3292 4.42915 20.4837 4.34903 20.6563C4.27692 20.838 4.18884 21.0288 4.10071 21.2469C2.96301 23.4003 2.12971 25.8172 1.64098 28.2977C1.14424 30.7782 0.983992 33.3224 1.13622 35.7211C1.28044 38.129 1.70506 40.4005 2.33 42.3995C2.47421 42.8992 2.65848 43.3807 2.81871 43.8532C2.90685 44.0895 3.00306 44.3075 3.09119 44.5347C3.13926 44.6437 3.17926 44.762 3.22733 44.871C3.27541 44.98 3.32352 45.089 3.37159 45.1981C3.74014 46.0613 4.15674 46.8336 4.54933 47.5514C3.88433 46.5882 3.33955 45.616 2.87485 44.6528C2.40215 43.6897 2.01758 42.7084 1.68108 41.7089C1.50481 41.2092 1.3526 40.6913 1.19236 40.1734C1.12025 39.9099 1.04813 39.6464 0.97602 39.3738C0.8959 39.1103 0.839816 38.8286 0.77572 38.556C0.511325 37.4475 0.278998 36.2572 0.0947221 34.9397C-0.265817 30.542 0.399134 25.899 2.15376 21.7648C2.59441 20.738 3.09918 19.7385 3.66803 18.7845C4.24489 17.8395 4.88586 16.94 5.5829 16.095C6.27193 15.25 7.04104 14.4867 7.84224 13.778C8.65145 13.0693 9.49275 12.4242 10.3901 11.8699C11.2794 11.3066 12.2007 10.8159 13.1462 10.3889C14.0916 9.9709 15.061 9.6256 16.0465 9.34393C17.032 9.06226 18.0334 8.87152 19.0349 8.73523C19.2833 8.70797 19.5397 8.66245 19.7881 8.64428L20.5412 8.58072C21.0459 8.56255 21.5427 8.53526 22.0475 8.54434C24.0585 8.56251 26.0454 8.88055 27.9603 9.47115C28.9137 9.77099 29.8512 10.1345 30.7485 10.5707C30.9729 10.6797 31.1972 10.7977 31.4215 10.9158C31.6378 11.0249 31.8301 11.143 32.0385 11.2611C32.4391 11.4792 32.8156 11.7427 33.1841 11.9789C33.1921 11.988 33.1921 11.9698 33.2002 11.9608L33.2082 11.9336L33.2322 11.879L33.2803 11.7791C33.3123 11.7155 33.3363 11.6428 33.3684 11.5792C33.4245 11.452 33.4886 11.3157 33.5447 11.1885C33.6409 11.1248 33.8171 10.8341 34.0975 10.4525C34.2337 10.2617 34.386 10.0436 34.5382 9.81643C34.6824 9.58927 34.8586 9.38033 35.0189 9.17134C35.6358 8.3445 36.1886 7.81743 35.8761 8.41712C36.3969 7.85378 37.2702 6.6999 38.2717 5.76403C38.3919 5.64591 38.5121 5.52777 38.6323 5.40965C38.7605 5.30062 38.8887 5.19161 39.0088 5.09166C39.2572 4.88268 39.4896 4.69186 39.7139 4.51923C40.1786 4.20121 40.5712 3.96489 40.8276 3.87403C41.092 3.66505 41.3724 3.48341 41.6448 3.28352C41.781 3.18357 41.9252 3.08356 42.0614 2.9927C42.2057 2.90184 42.3498 2.82014 42.494 2.72927C42.6382 2.63841 42.7825 2.54751 42.9267 2.46574C43.0709 2.37488 43.2152 2.28399 43.3674 2.2113C43.6719 2.05683 43.9682 1.90235 44.2727 1.7388C44.4249 1.65702 44.5852 1.59344 44.7374 1.52984C44.8977 1.46623 45.0499 1.39357 45.2101 1.32997L45.6828 1.1301L46.6603 0.803008C46.8205 0.748491 46.9808 0.684847 47.149 0.648503C47.4775 0.566727 47.814 0.475838 48.1505 0.394063C49.4965 0.112391 50.8746 -0.0238394 52.2527 0.00341914C53.6387 0.0670224 55.0168 0.285064 56.3628 0.657598C57.7088 1.03922 59.0067 1.59348 60.2486 2.25677C60.553 2.42941 60.8575 2.6111 61.162 2.78373C61.4664 2.96546 61.7548 3.17445 62.0433 3.36526C62.1875 3.46521 62.3397 3.55603 62.4759 3.66507L63.5174 4.48284L63.7177 4.65554C63.9821 4.89178 64.2465 5.12793 64.5109 5.35508C64.7673 5.60041 65.0077 5.85489 65.2561 6.10931C65.3762 6.23651 65.5044 6.35456 65.6246 6.49086C65.7368 6.62715 65.857 6.75441 65.9691 6.89071C66.0813 7.027 66.2014 7.15415 66.3136 7.29044L66.4819 7.49042C66.538 7.55403 66.586 7.6267 66.6421 7.69939C66.8504 7.98106 67.0668 8.26266 67.2751 8.53525L67.3552 8.63529C67.3792 8.67164 67.4113 8.72606 67.4433 8.7624L67.6196 9.03503C67.7397 9.21675 67.852 9.39846 67.9721 9.58018C68.0923 9.7619 68.2044 9.9436 68.3166 10.1253C68.4288 10.3071 68.533 10.507 68.6451 10.6978C68.7493 10.8886 68.8615 11.0794 68.9656 11.2702L69.1258 11.5519L69.246 11.77C69.254 11.7791 69.2621 11.8064 69.2701 11.7973L69.2941 11.7882C69.839 11.0068 70.4237 10.2345 71.0166 9.53481C71.1609 9.37126 71.3131 9.20768 71.4573 9.04413L71.5134 8.98057L71.5615 8.9351L71.6576 8.83516L71.8419 8.64428C71.9621 8.51707 72.0902 8.38994 72.2184 8.27182C72.3466 8.1537 72.4669 8.02648 72.5951 7.91745C71.9301 8.32633 71.89 8.23546 72.2505 7.79932C72.611 7.37227 73.3883 6.62723 74.4058 5.89125C75.4233 5.15527 76.6731 4.44651 77.8829 3.9286C79.0847 3.4016 80.2224 3.06546 80.9675 2.8383C82.4017 2.66567 84.3566 2.50202 86.3917 2.73826C87.4092 2.85638 88.4347 3.06543 89.4202 3.37436C90.3977 3.6742 91.327 4.07398 92.1522 4.50103C92.3525 4.54647 92.9614 4.84635 93.4662 5.10985C93.9629 5.38243 94.3555 5.59143 94.1632 5.3461C92.9775 4.58286 92.1362 4.1285 91.2789 3.70145C90.8463 3.49246 90.4057 3.29253 89.9089 3.09263C89.6606 2.99268 89.3881 2.90187 89.0997 2.80192C88.8113 2.72015 88.4988 2.61108 88.1462 2.53839C88.7471 2.42935 90.2694 2.80195 91.992 3.73783C92.8493 4.20122 93.7547 4.80086 94.636 5.50049C95.5093 6.19104 96.3586 6.97245 97.1277 7.77204C96.5348 7.29047 95.9259 6.83618 95.301 6.4273C97.2479 8.03555 99.0025 10.2344 100.292 12.7512C100.933 14.0051 101.478 15.3318 101.879 16.6856C101.983 17.0218 102.071 17.3671 102.167 17.7033C102.215 17.8759 102.247 18.0485 102.287 18.2121C102.327 18.3847 102.368 18.5483 102.4 18.73C102.432 18.9027 102.472 19.0753 102.504 19.2479C102.536 19.4478 102.568 19.6477 102.608 19.8385C102.68 20.2383 102.72 20.6471 102.792 21.0378C103.089 21.1014 103.385 21.1651 103.673 21.2287C103.818 21.2651 103.962 21.3014 104.098 21.3378L104.314 21.3922C104.387 21.4104 104.459 21.4286 104.515 21.4468C104.755 21.5286 104.995 21.6013 105.228 21.6921C105.46 21.783 105.693 21.8647 105.925 21.9646C106.838 22.3463 107.695 22.8096 108.497 23.3003C107.808 22.7188 107.063 22.2009 106.285 21.7466L105.989 21.5831C105.893 21.5286 105.789 21.4831 105.692 21.4286C105.492 21.3286 105.292 21.2196 105.084 21.1378C104.883 21.056 104.667 20.9561 104.467 20.8834L103.89 20.6745C104.106 20.729 104.33 20.7744 104.547 20.8289C104.779 20.8925 105.02 20.9742 105.26 21.0469C105.5 21.1287 105.733 21.2287 105.973 21.3196C106.205 21.4195 106.438 21.5285 106.678 21.6376C107.607 22.0919 108.513 22.6734 109.354 23.3549C111.045 24.7178 112.487 26.4806 113.592 28.3977C114.698 30.3149 115.475 32.3774 115.924 34.3673C116.148 35.3577 116.292 36.33 116.38 37.2568C116.396 37.493 116.429 37.7201 116.437 37.9472C116.453 38.1744 116.461 38.3925 116.477 38.6197C116.485 39.0558 116.501 39.4828 116.485 39.8917C116.661 38.4288 116.605 36.6843 116.292 34.967C115.988 33.2497 115.419 31.5779 114.778 30.1786C114.137 28.7702 113.432 27.6253 112.919 26.8166C112.799 26.6077 112.671 26.435 112.575 26.2806C112.471 26.1261 112.399 25.9808 112.334 25.8718C112.206 25.6446 112.166 25.4992 112.222 25.4628C112.278 25.4628 112.383 25.5446 112.543 25.6991C112.703 25.8535 112.895 26.0717 113.136 26.3443C113.592 26.9076 114.153 27.7071 114.674 28.6521C115.195 29.597 115.675 30.6874 116.028 31.7596C116.388 32.8317 116.613 33.8766 116.741 34.7035C116.989 36.3117 117.037 37.9018 116.933 39.4465C116.821 40.9911 116.517 42.4721 116.084 43.8623C115.643 45.2525 115.066 46.5519 114.393 47.7512C113.712 48.9506 112.927 50.0409 112.07 51.0313C111.862 51.2857 111.629 51.5129 111.413 51.7492C111.189 51.9854 110.956 52.2035 110.724 52.4306C110.484 52.6396 110.251 52.8576 110.003 53.0666C109.755 53.2665 109.514 53.4755 109.258 53.6573C108.248 54.4114 107.175 55.0475 106.045 55.5291C104.915 56.0197 103.738 56.3468 102.528 56.5103C102.376 56.5285 102.223 56.5558 102.071 56.5649L101.614 56.6012C101.518 56.6103 101.518 56.6103 101.47 56.6103C101.43 56.6103 101.39 56.6103 101.342 56.6103L101.086 56.6012C100.917 56.6012 100.741 56.574 100.557 56.5558L100.284 56.5103L100.148 56.4921L100.076 56.483C100.06 56.474 100.068 56.4921 100.068 56.5012L100.076 56.5376C100.1 56.7012 100.14 56.8737 100.148 57.0464C100.156 57.1372 100.164 57.2281 100.172 57.319V57.6006C100.172 57.6915 100.164 57.8006 100.164 57.9096L100.156 58.0731L100.148 58.155L100.14 58.2731L100.084 58.7728C100.044 58.8818 100.012 59.0453 99.9799 59.2089Z" fill="#4CA4DB"/>
<path d="M112.214 52.0399C113.224 50.995 113.945 50.0138 114.474 49.1597C114.61 48.9507 114.73 48.7416 114.842 48.5418C114.898 48.4418 114.954 48.351 115.01 48.251C115.059 48.1511 115.107 48.0602 115.155 47.9693C115.251 47.7876 115.331 47.615 115.419 47.4515C115.491 47.2788 115.563 47.1243 115.635 46.9699C115.772 46.67 115.876 46.3883 115.964 46.1339C116.012 46.0067 116.052 45.8887 116.092 45.7705C116.124 45.6524 116.156 45.5434 116.188 45.4343C116.252 45.2163 116.308 45.0163 116.349 44.8255C116.389 44.6347 116.429 44.453 116.469 44.2622C116.485 44.1713 116.509 44.0804 116.525 43.9896C116.541 43.8987 116.557 43.8079 116.573 43.708C116.605 43.5171 116.645 43.3263 116.677 43.1082C116.741 42.6812 116.829 42.1906 116.909 41.5636C116.957 41.2547 116.981 40.9003 117.03 40.5096C117.054 40.3188 117.062 40.1098 117.078 39.8917C117.094 39.6736 117.11 39.4465 117.118 39.2011C117.158 38.2289 117.142 37.0568 116.957 35.6212C117.078 35.9665 117.142 35.8756 117.15 35.4849C117.15 35.285 117.15 35.0124 117.118 34.6762C117.102 34.5127 117.078 34.331 117.062 34.1311C117.038 33.9403 116.998 33.7312 116.965 33.5223C116.813 32.6682 116.565 31.6506 116.204 30.6602C115.852 29.6698 115.395 28.6884 114.93 27.8525C114.45 27.0711 113.897 26.2897 113.304 25.5356C112.711 24.7814 112.07 24.0455 111.389 23.3822C110.708 22.7189 110.003 22.1191 109.282 21.5921C108.569 21.0742 107.84 20.6472 107.159 20.3019C106.694 20.0657 106.366 19.8749 106.189 19.7568C106.013 19.6387 105.997 19.575 106.165 19.575C106.245 19.575 106.382 19.6023 106.558 19.6478C106.734 19.7023 106.95 19.775 107.223 19.884C107.495 19.993 107.8 20.1475 108.16 20.3292C108.337 20.4292 108.521 20.5382 108.729 20.6563C108.929 20.7744 109.13 20.9198 109.354 21.0651C109.618 21.256 109.867 21.4832 110.123 21.6922C110.38 21.9102 110.62 22.1374 110.876 22.3645C111.117 22.6008 111.365 22.8369 111.605 23.0913C111.838 23.3458 112.086 23.5912 112.31 23.8547C113.232 24.9087 114.089 26.0626 114.834 27.3255C115.579 28.5976 116.244 29.9605 116.749 31.4143C116.869 31.7778 117.005 32.1412 117.11 32.5137C117.166 32.7045 117.222 32.8862 117.27 33.077L117.414 33.6495L117.486 33.9312L117.542 34.2219L117.662 34.8034L117.759 35.385C117.791 35.5758 117.823 35.7757 117.839 35.9756C118.031 37.5475 118.063 39.1558 117.871 40.7367C117.679 42.3087 117.31 43.8351 116.773 45.2344C116.236 46.6336 115.563 47.924 114.794 49.0597C113.993 50.2228 113.12 51.2131 112.214 52.0399Z" fill="#4CA4DB"/>
<path d="M105.861 20.3655C105.685 20.3019 105.5 20.2201 105.292 20.1565C105.188 20.1202 105.084 20.0929 104.979 20.0566C104.923 20.0384 104.875 20.0202 104.819 20.002L104.739 19.9748L104.691 19.9567C104.555 19.9203 104.411 19.884 104.258 19.8385C104.122 19.8113 103.986 19.775 103.842 19.7477C103.818 19.6114 103.802 19.457 103.778 19.3116C103.754 19.1662 103.73 19.0207 103.706 18.8662C103.649 18.6118 103.601 18.3575 103.545 18.103C103.481 17.8395 103.417 17.576 103.353 17.3125C103.089 16.2586 102.76 15.25 102.432 14.3777C101.783 12.6241 101.15 11.3884 101.23 11.1976C101.102 10.9522 101.198 10.9977 101.182 10.8887C101.166 10.7796 101.054 10.498 100.437 9.66205C100.741 10.1618 101.166 10.8159 101.59 11.6155C102.015 12.4151 102.464 13.3419 102.848 14.3413C103.241 15.3408 103.569 16.404 103.818 17.458C103.882 17.7215 103.938 17.9758 103.986 18.2303C104.01 18.3575 104.034 18.4847 104.058 18.6028L104.082 18.7391V18.7572L104.09 18.83C104.106 19.0208 104.114 19.2298 104.122 19.4297C104.186 19.457 104.242 19.4751 104.298 19.5023C104.355 19.5296 104.411 19.5477 104.483 19.5841C104.555 19.6204 104.619 19.6477 104.683 19.684C104.715 19.7022 104.747 19.7204 104.779 19.7295C104.835 19.7568 104.891 19.784 104.939 19.8112C105.164 19.9203 105.348 20.0203 105.508 20.1112C105.669 20.202 105.789 20.2928 105.861 20.3655Z" fill="#4CA4DB"/>
<path d="M102.936 18.8573C102.904 19.0481 102.84 18.9572 102.768 18.7028C102.696 18.4483 102.584 18.0304 102.464 17.5579C102.4 17.3217 102.327 17.0763 102.263 16.831C102.191 16.5856 102.111 16.3404 102.047 16.1132C101.895 15.6589 101.759 15.2591 101.655 15.0228C101.422 14.3504 101.158 13.6872 100.869 13.0421C101.366 13.9053 101.855 14.932 102.223 15.9678C102.592 16.9945 102.84 18.0395 102.936 18.8573Z" fill="#4CA4DB"/>
<path d="M82.1053 1.4663C81.8008 1.50265 81.5604 1.52988 81.3601 1.55714C81.1678 1.5844 81.0237 1.60251 80.9195 1.6116C80.7112 1.62977 80.6791 1.62076 80.7512 1.57533C80.8233 1.53899 81.0076 1.47532 81.2479 1.40263C81.4883 1.32995 81.7767 1.26636 82.0652 1.19367C82.3536 1.13915 82.634 1.07561 82.8423 1.03018C83.0586 0.993837 83.2029 0.957403 83.227 0.939231C83.267 0.911972 82.7862 0.866581 81.328 1.09374C82.4497 0.884754 83.5795 0.766647 84.7172 0.766647C84.9255 0.848422 85.1337 0.939217 85.334 1.03917C85.5343 1.13003 85.7426 1.22095 85.9429 1.32999C84.653 1.23912 83.3712 1.29366 82.1053 1.4663Z" fill="#4CA4DB"/>
<path d="M74.8625 3.52888C74.2536 3.94685 73.6607 4.3829 72.9556 4.91898C72.2586 5.45507 71.4494 6.10024 70.488 7.01794L70.7122 6.71803L70.9526 6.42732C71.1129 6.23651 71.2731 6.0457 71.4333 5.86398C71.6096 5.68226 71.8019 5.50967 72.0262 5.34612C72.1384 5.26434 72.2506 5.17344 72.3788 5.08258C72.507 5.00081 72.6352 4.90991 72.7714 4.81905C73.3242 4.4556 73.9972 4.03771 74.8625 3.52888Z" fill="#4CA4DB"/>
<path d="M81.1438 2.3385C81.0076 2.37485 80.8794 2.40209 80.7593 2.43844C80.6391 2.47478 80.5269 2.50202 80.4307 2.52928C80.2224 2.5838 80.0543 2.62925 79.902 2.66559C79.5976 2.73828 79.3812 2.77466 79.197 2.811C78.8124 2.86552 78.524 2.86546 77.8189 3.09262C77.9151 3.02901 78.0753 2.95634 78.2756 2.88365C78.4759 2.80188 78.7162 2.72008 78.9806 2.63831C79.5014 2.47476 80.1183 2.34763 80.631 2.26585C81.1438 2.19316 81.5605 2.15673 81.7127 2.1749C81.7848 2.18399 81.7929 2.20221 81.7047 2.22038C81.6006 2.22947 81.4242 2.26581 81.1438 2.3385Z" fill="#4CA4DB"/>
<path d="M62.6121 6.20926C62.7804 6.30921 62.9647 6.42733 63.157 6.55454C63.2531 6.61814 63.3573 6.69081 63.4614 6.7635C63.5656 6.83619 63.6617 6.92708 63.7659 7.01794C63.9742 7.19967 64.1825 7.39958 64.4068 7.59947C64.6231 7.81754 64.8315 8.06278 65.0638 8.30811C65.176 8.43532 65.2962 8.55348 65.4004 8.68977C65.5045 8.82606 65.6166 8.97141 65.7208 9.1077C65.8329 9.25308 65.9371 9.39855 66.0493 9.54393C66.1214 9.60753 66.3778 10.0436 66.5781 10.3707C66.7864 10.716 66.9947 11.0613 67.211 11.4065C67.4273 11.7609 67.6437 12.0971 67.852 12.4787C68.2766 13.2147 68.7012 13.9779 69.1339 14.7139C69.6066 14.0415 70.0793 13.3692 70.56 12.6877C70.8004 12.3424 71.0408 12.0063 71.2811 11.6792L71.6416 11.1794C71.7618 11.0249 71.874 10.8977 71.9942 10.7524C71.9301 10.8341 71.866 10.9068 71.8019 10.9795C71.7378 11.0522 71.6738 11.1249 71.6097 11.2249C71.4815 11.4066 71.3532 11.5883 71.225 11.7609C71.0968 11.9426 70.9766 12.1152 70.8485 12.2879C70.7283 12.4696 70.6001 12.6423 70.4799 12.8149C69.9992 13.5146 69.5505 14.1687 69.1259 14.7957C68.7733 14.2141 68.4368 13.6508 68.1083 13.0965C67.9401 12.8149 67.7718 12.5424 67.6116 12.2607C67.4433 11.9972 67.2751 11.7337 67.1068 11.4702C66.7703 10.9432 66.4339 10.4162 66.0974 9.88921L66.0653 9.83464C66.0573 9.81647 66.0413 9.79826 66.0413 9.79826L66.0092 9.75289L65.9371 9.67104L65.801 9.50755C65.7128 9.39851 65.6166 9.2804 65.5205 9.17136C65.4243 9.05324 65.3362 8.94421 65.2401 8.82609C65.1439 8.70796 65.0318 8.59894 64.9276 8.4899C64.7113 8.26275 64.503 8.00829 64.2707 7.76296C64.0303 7.52672 63.7739 7.27235 63.5095 7.00885C63.229 6.75444 62.9246 6.50002 62.6121 6.20926Z" fill="#4CA4DB"/>
<path d="M43.5677 76.0547C42.6784 76.7635 41.6689 77.4722 40.6594 77.9992C39.6579 78.5444 38.6644 78.926 37.9112 79.1441L38.2077 79.1168L38.5041 79.0713C38.6964 79.035 38.8967 79.0168 39.089 78.9623C40.7635 78.3353 42.2698 77.3086 43.5677 76.0547Z" fill="#4CA4DB"/>
<path d="M58.8145 75.9639C59.1189 75.8912 59.3112 75.8095 59.4234 75.764C59.5275 75.7095 59.5436 75.6821 59.4795 75.6549C59.4154 75.6367 59.2712 75.6368 59.0709 75.6368C58.9667 75.6368 58.8465 75.6368 58.7103 75.6368C58.5741 75.6368 58.4299 75.6368 58.2617 75.6277C57.6127 75.6095 56.7474 75.5368 55.8019 75.2824C55.3292 75.1643 54.8406 74.9916 54.3438 74.7917C53.8551 74.5737 53.3583 74.3284 52.8856 74.0285C51.7238 73.3925 50.6182 72.5929 49.6247 71.6389C49.4966 71.5207 49.3764 71.4026 49.2562 71.2754C49.1361 71.1482 49.0078 71.03 48.8956 70.8937C48.7755 70.7665 48.6633 70.6303 48.5432 70.5031L48.3749 70.2941L48.2947 70.1942C48.3027 70.2033 48.2867 70.1942 48.2787 70.1851C48.1585 70.0488 48.0625 69.9215 47.9743 69.7943C47.782 69.5127 47.6698 69.2673 47.6298 69.0674C47.6618 69.5035 47.6458 69.8307 47.5657 70.1032C47.5577 70.1396 47.5416 70.185 47.5336 70.2214L47.5256 70.4213V70.5031C47.5497 70.4758 47.4615 70.703 47.4054 70.8393C47.157 71.4481 46.8926 72.0568 46.5802 72.6292C46.7724 72.3476 46.9407 72.0386 47.125 71.7206C47.2131 71.5571 47.3012 71.3936 47.3894 71.2209C47.4294 71.1392 47.4775 71.0483 47.5176 70.9665C47.5577 70.8756 47.5977 70.7938 47.6378 70.703L47.6699 70.6394C47.6779 70.6212 47.6778 70.6212 47.6778 70.6212C47.6778 70.6212 47.6778 70.6121 47.6858 70.6121L47.6938 70.603L47.7099 70.5757C47.7179 70.5576 47.7339 70.5485 47.742 70.5304C47.774 70.4849 47.782 70.4667 47.79 70.4758C47.806 70.5667 47.814 70.6212 47.8301 70.6485C47.8301 70.6576 47.8381 70.6666 47.8381 70.6757L47.8221 70.6575L47.8541 70.703L47.9342 70.8029C48.0384 70.9392 48.1426 71.0664 48.2547 71.1936C48.3669 71.3209 48.471 71.4571 48.5912 71.5752L48.9357 71.9387C49.4084 72.4202 49.8971 72.8564 50.4099 73.2653C50.9227 73.6651 51.4595 74.0285 52.0043 74.3465C52.5491 74.6645 53.1179 74.9372 53.6868 75.1643C54.2556 75.3915 54.8325 75.5641 55.4094 75.7095C55.9862 75.8367 56.5631 75.9276 57.1239 75.973C57.7248 76.0093 58.2777 76.0184 58.8145 75.9639Z" fill="#4CA4DB"/>
<path d="M7.22536 72.2476C8.53131 72.9199 10.0216 73.347 11.5759 73.5106C12.3531 73.5742 13.1542 73.5923 13.9474 73.5197C14.1477 73.5106 14.348 73.4743 14.5483 73.447C14.7486 73.4197 14.9489 73.3925 15.1492 73.3562C15.3495 73.3198 15.5498 73.2744 15.7501 73.238C15.9504 73.1835 16.1507 73.138 16.351 73.0835C17.9454 72.6474 19.5078 71.9296 20.9339 70.921C21.1182 70.8029 21.2864 70.6667 21.4627 70.5304C21.6309 70.3941 21.8152 70.2668 21.9754 70.1123L22.4722 69.6671C22.6324 69.5217 22.7767 69.3673 22.9209 69.2219L23.0891 69.0584C23.1051 69.0493 23.0891 69.0584 23.0971 69.0493V69.0311C23.0971 69.022 23.0971 69.0038 23.1051 68.9857C23.1132 68.9311 23.1452 68.8403 23.1933 68.6586C23.2173 68.5677 23.2493 68.4496 23.2814 68.3042L23.3054 68.2043C23.3135 68.1861 23.3215 68.168 23.3215 68.1498C23.3375 68.0771 23.3455 68.0043 23.3615 67.9316C23.3695 67.8953 23.3775 67.8589 23.3855 67.8226V67.8317C23.3855 67.8499 23.3695 67.859 23.3535 67.8772C23.3214 67.9135 23.2654 67.9953 23.0731 68.2134C23.025 68.2679 22.9609 68.3315 22.8808 68.4132C22.6645 68.6222 22.4161 68.8585 22.1357 69.1129C22.296 68.913 22.4562 68.7131 22.6164 68.5223L22.6484 68.486C22.6564 68.4769 22.6564 68.4678 22.6644 68.4678V68.4587L22.6805 68.4314L22.7045 68.377C22.7206 68.3406 22.7446 68.3043 22.7686 68.2588C22.8567 68.1044 22.9609 67.9317 23.057 67.7681C23.2093 67.5046 23.3695 67.2593 23.4737 67.0412C23.5778 66.8231 23.6579 66.6505 23.682 66.5142L23.69 66.487L23.674 66.5506L23.6419 66.6959C23.6178 66.7959 23.6019 66.8868 23.5858 66.9776C23.5698 67.0685 23.5538 67.1593 23.5457 67.2502C23.5297 67.341 23.5218 67.4228 23.5138 67.5046C23.4817 67.8317 23.4817 68.0952 23.5057 68.3315C23.5138 68.4042 23.5218 68.4677 23.5378 68.5313C23.5298 68.4405 23.5218 68.3587 23.5218 68.2951C23.5218 67.9771 23.5618 67.8771 23.6419 68.0679C23.6739 68.1315 23.714 68.2407 23.7621 68.377C23.7941 68.4496 23.8182 68.5223 23.8502 68.6041C23.8662 68.6405 23.8823 68.6858 23.9063 68.7403L23.9144 68.7585L23.9304 68.804L23.9624 68.9039C23.9864 68.9675 24.0105 69.0402 24.0346 69.1038C24.4352 70.1669 24.98 71.2663 25.5328 72.1567C26.4221 73.7286 27.728 75.3642 29.4907 76.6454C30.372 77.2814 31.3734 77.8174 32.4551 78.19C33.5367 78.5625 34.7225 78.7352 35.9083 78.7079C37.094 78.6716 38.2878 78.3989 39.4175 77.9628C40.5392 77.4994 41.6208 76.8816 42.5902 76.1002L42.9508 75.8094L43.3033 75.5005C43.5356 75.3006 43.7519 75.0644 43.9763 74.8463C44.4089 74.392 44.8256 73.9194 45.2021 73.4106C45.5867 72.9109 45.9313 72.3748 46.2517 71.8296C46.404 71.548 46.5642 71.2755 46.7004 70.9938C46.7725 70.8484 46.8366 70.712 46.9087 70.5666C46.9568 70.4485 47.0129 70.3304 47.061 70.2123C47.117 70.0124 47.1971 69.7489 47.2772 69.4309C47.4134 68.8948 47.5016 68.2043 47.4455 67.5228L47.4935 67.75L47.5497 67.9862C47.5897 68.1407 47.6378 68.2951 47.6938 68.4405C47.798 68.7313 47.9343 69.0039 48.0705 69.2492C48.2227 69.5127 48.399 69.758 48.5592 69.9398C48.6553 70.0579 48.7515 70.1669 48.8476 70.2759C48.9518 70.385 49.0479 70.494 49.136 70.5939C49.3203 70.7938 49.4966 70.9574 49.6488 71.1028C49.9613 71.3754 50.1936 71.5571 50.3218 71.6025C50.45 71.657 50.458 71.5934 50.3378 71.4026C50.8586 71.8842 51.3553 72.2657 51.812 72.5928C52.2687 72.92 52.6933 73.1835 53.0939 73.4197C53.8871 73.874 54.5681 74.1921 55.2251 74.4556C55.8821 74.71 56.5151 74.9099 57.2602 75.0462C57.9973 75.1734 58.8465 75.237 59.8961 75.0826C61.4183 74.7282 62.8205 74.0831 64.0704 73.2562C65.3202 72.4294 66.4339 71.4208 67.3954 70.2668C68.3568 69.1129 69.174 67.8136 69.807 66.387L70.0312 65.8419L70.2395 65.2876L70.2476 65.2694V65.2603L70.2556 65.2513L70.2636 65.2331L70.2796 65.1968L70.3116 65.124L70.3678 64.9877C70.4399 64.806 70.4959 64.6515 70.528 64.5334L70.544 64.488C70.544 64.4699 70.5601 64.4881 70.5681 64.4971L70.6001 64.5243L70.7122 64.6424L70.9046 64.8606L71.0568 65.0423L71.1208 65.124L71.1529 65.1604L71.3452 65.3149C72.4268 66.1872 73.5565 67.0412 74.7583 67.8499C75.9681 68.6495 77.2661 69.3946 78.6682 70.0306C79.0207 70.1851 79.3732 70.3395 79.7417 70.4758C80.1103 70.6121 80.4788 70.7393 80.8554 70.8666C81.24 70.9756 81.6246 71.0846 82.0172 71.1846C82.4098 71.2845 82.8104 71.3481 83.219 71.4299C83.1148 71.4481 83.1229 71.4935 83.219 71.548C83.2671 71.5753 83.3392 71.6116 83.4273 71.648C83.5155 71.6843 83.6356 71.7115 83.7638 71.7479C84.0282 71.8206 84.3566 71.9024 84.7412 71.9841C85.1258 72.0477 85.5665 72.1022 86.0312 72.1567C86.4959 72.1931 86.9926 72.2022 87.4893 72.2204C87.7457 72.2204 88.0181 72.2022 88.2825 72.1931C88.5469 72.1658 88.8033 72.1386 89.0597 72.1023C90.0692 71.9569 90.9746 71.6842 91.6075 71.4571C92.3046 71.2027 93.0977 70.8574 93.915 70.385C94.7402 69.9125 95.5894 69.3128 96.3987 68.6041C97.2079 67.8954 97.985 67.0594 98.658 66.1417C99.331 65.224 99.9079 64.2245 100.333 63.2069C100.765 62.1983 101.038 61.1716 101.182 60.2629C101.262 59.8086 101.286 59.3816 101.318 58.9909C101.326 58.8 101.326 58.6183 101.326 58.4457C101.326 58.3639 101.326 58.2821 101.326 58.2004V58.1095L101.318 58.0822C101.294 58.0095 101.27 57.9369 101.246 57.8915C101.222 57.8551 101.19 57.8279 101.158 57.8097C101.126 57.7915 101.094 57.7733 101.062 57.7824C101.046 57.7824 101.03 57.7915 101.014 57.8006C100.998 57.8188 100.981 57.8188 100.965 57.8642C100.957 57.9096 100.941 57.9642 100.933 58.0187C100.925 58.0459 100.925 58.0732 100.917 58.1095C100.909 58.1822 100.901 58.2549 100.893 58.3367C100.877 58.5002 100.861 58.6638 100.845 58.8365C100.829 59.0091 100.797 59.1726 100.773 59.3543C100.733 59.7087 100.645 60.0631 100.573 60.4265C100.477 60.79 100.397 61.1716 100.268 61.535C99.8037 63.0433 99.0266 64.5698 98.0091 65.9418C96.9835 67.3047 95.7257 68.5042 94.3396 69.4037C92.9536 70.3032 91.4473 70.9119 89.9971 71.1391C88.7472 71.339 87.962 71.2754 87.5614 71.239C87.1769 71.1754 87.1609 71.1301 87.4012 71.0937C87.6496 71.0574 88.1784 71.0119 88.8754 70.9028C89.5644 70.7756 90.4137 70.5666 91.3111 70.2214C92.2004 69.8761 93.1298 69.4037 93.987 68.8313C94.8443 68.2588 95.6215 67.5955 96.2544 66.9413C96.8954 66.2871 97.3761 65.642 97.6886 65.1422C97.8408 64.8969 97.961 64.6879 98.0251 64.5334C98.0892 64.3789 98.1212 64.2791 98.0972 64.2518C98.001 64.4153 97.9129 64.5698 97.8088 64.7152C97.7046 64.8515 97.5924 64.9877 97.4803 65.1149C97.3681 65.2512 97.2319 65.3694 97.0957 65.5148C96.9595 65.6602 96.7993 65.7964 96.631 65.9509C96.2945 66.2689 95.8699 66.6233 95.3331 67.0776C94.7883 67.5228 94.1153 68.0407 93.226 68.6313C93.7067 68.3224 94.0912 68.0407 94.4117 67.7863C94.5719 67.6591 94.7162 67.541 94.8364 67.432C94.9565 67.3138 95.0686 67.2139 95.1648 67.1231C95.3571 66.9413 95.4933 66.7869 95.5894 66.6778C95.6856 66.5688 95.7336 66.4961 95.7496 66.4507C95.7817 66.3689 95.6695 66.4143 95.4773 66.5324C95.3811 66.587 95.269 66.6687 95.1328 66.7596C95.0046 66.8414 94.8524 66.9412 94.7001 67.0321C94.0832 67.4228 93.33 67.8045 92.9615 67.9136C92.7772 67.9771 92.6891 67.9589 92.7612 67.8681C92.8013 67.8226 92.8734 67.75 92.9936 67.65C93.1137 67.5501 93.282 67.4228 93.4983 67.2502C93.2419 67.4137 92.9855 67.5501 92.7452 67.6864C92.617 67.75 92.4968 67.8136 92.3766 67.8681C92.2565 67.9317 92.1363 67.9863 92.0161 68.0408C91.7758 68.1407 91.5515 68.2497 91.3271 68.3224C91.215 68.3678 91.1028 68.4042 90.9986 68.4405C90.8864 68.4769 90.7823 68.5041 90.6781 68.5404C89.8368 68.8039 89.0997 68.9129 88.4588 68.9675C88.2985 68.9766 88.1463 68.9948 88.0021 68.9948C87.8579 68.9948 87.7137 68.9948 87.5775 68.9948C87.2971 68.9857 87.0407 68.9494 86.8003 68.9312C86.3196 68.9039 85.903 68.8039 85.5265 68.7312C85.1499 68.6676 84.8133 68.5405 84.4849 68.4405C84.3246 68.386 84.1564 68.3405 83.9961 68.2769C83.8359 68.2042 83.6677 68.1406 83.4994 68.0679C83.3312 67.9953 83.1549 67.9135 82.9706 67.8317C82.7863 67.7408 82.6021 67.6409 82.4018 67.5319C82.2976 67.4774 82.2015 67.4228 82.0893 67.3683C82.0332 67.341 81.9851 67.3138 81.929 67.2865C81.8729 67.2502 81.8168 67.223 81.7608 67.1866C81.5364 67.0503 81.2961 66.905 81.0397 66.7505C80.7112 66.6324 80.4147 66.487 80.1423 66.3779C80.0061 66.3234 79.8699 66.269 79.7498 66.2144C79.6216 66.1599 79.5014 66.1054 79.3893 66.0508C79.1569 65.9509 78.9486 65.86 78.7563 65.7782C78.564 65.6964 78.3957 65.6148 78.2355 65.5421C77.923 65.4058 77.6667 65.3148 77.4664 65.2331C77.258 65.1604 77.0978 65.1059 76.9696 65.0787C76.4328 64.9605 76.3367 65.1513 75.5515 64.806C74.9907 64.4789 74.4538 64.1246 73.9331 63.7793C73.6767 63.5976 73.4203 63.4159 73.1639 63.2432C73.0357 63.1524 72.9076 63.0615 72.7874 62.9706C72.6512 62.8707 72.515 62.7617 72.3788 62.6617C71.7538 62.1892 71.1369 61.7077 70.5199 61.217C70.2075 60.9717 69.9031 60.7172 69.5986 60.4719C69.3102 60.2629 68.9096 59.8178 68.8374 60.0722C68.8134 60.3629 68.7814 60.681 68.7493 60.9899C68.7173 61.2988 68.6692 61.6168 68.6372 61.9348C68.5971 62.2528 68.5491 62.5618 68.501 62.8798L68.4049 63.325C68.3728 63.4704 68.3488 63.6248 68.3007 63.7611L68.1725 64.1881C68.1485 64.2517 68.1324 64.3427 68.1083 64.3881L68.0523 64.5334C67.9802 64.7242 67.9161 64.9059 67.8279 65.0967L67.7077 65.3694L67.5796 65.642C67.4995 65.8237 67.4033 65.9963 67.3152 66.169C66.5861 67.5682 65.6327 68.8039 64.527 69.8943C64.8234 69.4581 64.9196 69.2129 64.8796 69.1402C64.8636 69.1038 64.8074 69.1038 64.7193 69.1402C64.6392 69.1765 64.519 69.2583 64.3748 69.3491C63.806 69.7489 62.7403 70.5939 61.2982 71.1755C60.9376 71.3208 60.5531 71.4481 60.1605 71.548C59.7599 71.6389 59.3513 71.7297 58.9266 71.7661C58.0854 71.8479 57.1961 71.7842 56.3308 71.5752C55.4655 71.3662 54.6322 71.0301 53.8871 70.603C53.134 70.1851 52.485 69.6763 51.9402 69.1765C51.6197 68.8767 51.3473 68.5859 51.107 68.3133C51.0429 68.2497 50.9868 68.177 50.9307 68.1134C50.8746 68.0498 50.8186 67.9772 50.7705 67.9226C50.7465 67.8863 50.7144 67.8589 50.6903 67.8226C50.6262 67.7499 50.5862 67.6954 50.5462 67.6318C50.458 67.5046 50.3779 67.3865 50.2977 67.2684C50.2176 67.1502 50.1376 67.0321 50.0574 66.9231L50.0013 66.8413L49.9533 66.7505C49.9212 66.6869 49.8892 66.6232 49.8491 66.5687C49.785 66.4506 49.7209 66.3326 49.6568 66.2235C49.6248 66.169 49.5928 66.1144 49.5687 66.0599L49.5206 65.9782C49.5046 65.9509 49.4965 65.9146 49.4805 65.8783C49.3763 65.6148 49.2723 65.3603 49.1761 65.1331C49.1521 65.0786 49.128 65.0151 49.104 64.9605L49.072 64.8787C49.064 64.8423 49.0479 64.806 49.0399 64.7697C48.9998 64.6243 48.9598 64.488 48.9277 64.3517C48.7835 64.3517 48.6553 64.3426 48.5351 64.3426C48.439 64.3335 48.3588 64.3335 48.2787 64.3244C48.2386 64.3244 48.1987 64.3153 48.1666 64.3153C48.1266 64.3153 48.0945 64.3153 48.0705 64.3063C48.0224 64.2972 47.9743 64.2973 47.9262 64.2882C47.7339 64.27 47.6618 64.2427 47.5497 64.2063C47.4936 64.1881 47.4615 64.1518 47.4134 64.1155C47.3894 64.0973 47.3654 64.0701 47.3414 64.0428C47.3173 64.0156 47.3012 63.9792 47.2772 63.9429C47.2532 63.9065 47.2292 63.8611 47.2051 63.8157C47.1811 63.7702 47.1571 63.7066 47.133 63.643C47.109 63.5794 47.077 63.5067 47.061 63.4249C47.053 63.3795 47.0369 63.3431 47.0289 63.2977C47.0209 63.2795 47.0209 63.2523 47.0128 63.225L47.0048 63.1887L46.9968 63.1705C46.9968 63.1523 46.9968 63.1614 46.9968 63.1705C46.9968 63.3159 47.0048 63.4703 46.9968 63.6521C46.9728 63.8338 46.9728 64.0337 46.9087 64.2518C46.8847 64.3608 46.8686 64.479 46.8125 64.6062C46.7885 64.6698 46.7645 64.7333 46.7485 64.7969C46.7244 64.8605 46.7084 64.9241 46.6684 64.9968C46.6363 65.0604 46.5963 65.1331 46.5562 65.2058C46.5402 65.2421 46.5161 65.2786 46.5001 65.3149C46.484 65.3513 46.46 65.3876 46.428 65.424C46.3719 65.4966 46.3158 65.5693 46.2517 65.6511C46.2197 65.6874 46.1957 65.7238 46.1636 65.7692L46.1155 65.8237L46.0514 65.8872C45.9793 65.9418 45.9153 65.9872 45.8672 66.0054C45.8351 66.2598 45.811 66.487 45.779 66.6597C45.7389 66.7959 45.6988 66.9141 45.6748 66.9958C45.6187 67.1594 45.5868 67.2048 45.5707 67.1502C45.5627 67.0957 45.5707 66.9322 45.5947 66.6868C45.6027 66.6232 45.6108 66.5596 45.6188 66.487C45.6268 66.4506 45.6268 66.4143 45.6348 66.3688C45.6428 66.3325 45.6348 66.269 45.6348 66.2235C45.6348 66.0055 45.6428 65.7692 45.6428 65.5057C45.6989 65.4512 45.755 65.3966 45.8111 65.3421C45.8431 65.3148 45.8751 65.2876 45.8992 65.2603C45.9232 65.2331 45.9473 65.2059 45.9713 65.1786C46.0675 65.0696 46.1716 64.9514 46.2917 64.8333C46.3719 64.7243 46.452 64.6062 46.5402 64.488C46.5562 64.4608 46.5882 64.4336 46.6042 64.4063L46.6443 64.3244L46.7324 64.161C46.9488 63.7339 46.9888 63.3795 46.9968 63.1614C47.0128 63.1886 47.0289 63.2433 47.0369 63.2705C47.0529 63.3069 47.0609 63.3341 47.0769 63.3523C47.109 63.3886 47.125 63.4067 47.125 63.4067C47.1411 63.3976 47.0609 63.2887 46.9968 63.1524C46.9888 63.1887 46.9808 63.2341 46.9568 63.2886L46.9007 63.3976C46.8927 63.4158 46.8847 63.434 46.8687 63.4522L46.8125 63.5158C46.7725 63.5612 46.7484 63.5975 46.7004 63.643L46.5321 63.7884L46.492 63.8248L46.4681 63.8428L46.436 63.861L46.3078 63.9429L46.1876 64.0246C46.1475 64.0519 46.1155 64.0791 46.0434 64.1155L45.6748 64.3063L45.5867 64.3517C45.5546 64.3699 45.5066 64.3881 45.4666 64.4063L45.2182 64.5153V65.5148C45.2182 65.5602 45.2101 65.5875 45.2021 65.6238L45.0819 66.4507C45.0579 66.6506 45.0419 66.8504 45.0179 67.0321C44.9778 67.1957 44.9458 67.3502 44.9057 67.5137C44.8656 67.6682 44.8336 67.8226 44.7935 67.9771L44.7375 68.2043C44.7214 68.2769 44.6973 68.3496 44.6733 68.4132C44.6493 68.4859 44.6333 68.5586 44.6093 68.6222L44.5772 68.7222C44.5692 68.7495 44.5532 68.7949 44.5452 68.8131L44.4891 69.0311C44.449 69.1765 44.401 69.3128 44.3529 69.4582C44.1686 70.0306 43.9522 70.5848 43.6718 71.1391C43.3994 71.6933 43.0789 72.2386 42.6864 72.7837C42.2938 73.3198 41.8211 73.865 41.2523 74.3738C40.5392 74.919 39.5778 75.4732 38.7526 75.773C38.5442 75.8366 38.3519 75.9094 38.1756 75.9548C37.9994 76.0002 37.8391 76.0366 37.7029 76.0638C37.4305 76.1093 37.2623 76.1184 37.2383 76.082C38.0395 75.8821 38.5522 75.6186 38.8327 75.4459C39.1051 75.2642 39.1531 75.1734 39.0089 75.1643C38.9368 75.1552 38.8166 75.1733 38.6484 75.2097C38.4801 75.2369 38.2718 75.2733 38.0234 75.3278C37.5187 75.4187 36.8537 75.5187 36.0525 75.5096C35.3074 75.6186 34.8346 75.5913 34.4661 75.5913C34.2738 75.5822 34.1136 75.5731 33.9534 75.564C33.7851 75.555 33.6249 75.5278 33.4406 75.5187C33.6329 75.6005 33.8011 75.6913 33.9613 75.7549C34.1216 75.8185 34.2658 75.873 34.386 75.9275C34.6423 76.0093 34.8267 76.082 34.9469 76.1274C35.1952 76.2182 35.1952 76.2637 34.9788 76.2819C34.7625 76.291 34.3459 76.2637 33.7851 76.1365C33.2242 76.0002 32.5352 75.7549 31.7981 75.3551C30.3159 74.5828 28.7295 73.0926 27.5998 71.348C27.031 70.4849 26.5583 69.5763 26.2058 68.704C26.1257 68.486 26.0295 68.2769 25.9574 68.0679C25.9333 68.0043 25.9173 67.9499 25.8933 67.8954C25.8693 67.8227 25.8453 67.7591 25.8212 67.6864C25.7731 67.5501 25.7331 67.4137 25.693 67.2684C25.6529 67.1321 25.6209 66.9958 25.5888 66.8686C25.5568 66.7323 25.5087 66.6232 25.4927 66.4779C25.4446 66.2053 25.3965 65.96 25.3565 65.7328C25.3484 65.4875 25.3485 65.224 25.3405 65.0423C25.3005 64.9787 25.2604 64.9151 25.2203 64.8424C25.1883 64.7788 25.1642 64.7151 25.1322 64.6515C25.0761 64.5243 25.02 64.3972 24.9719 64.2791C24.9078 64.0338 24.8277 63.7884 24.8037 63.5521C24.7877 63.434 24.7636 63.3159 24.7636 63.1978C24.7556 63.0796 24.7556 62.9706 24.7475 62.8525C24.7475 62.798 24.7476 62.7435 24.7396 62.6799C24.7396 62.6254 24.7475 62.5708 24.7475 62.5163C24.7556 62.4073 24.7636 62.2982 24.7636 62.1892C24.7876 61.9802 24.8196 61.7713 24.8437 61.5623C24.8677 61.4624 24.8838 61.3624 24.9078 61.2624C24.9159 61.217 24.9319 61.1624 24.9399 61.117C24.972 60.9534 25.0119 60.7991 25.044 60.6446C24.9719 60.9535 24.8999 61.2443 24.8358 61.5259C24.8037 61.6895 24.7716 61.744 24.7475 61.8348C24.7235 61.9166 24.6915 61.9984 24.6674 62.0802C24.6434 62.162 24.6114 62.2347 24.5873 62.3164C24.5553 62.3891 24.5232 62.4618 24.4912 62.5345C24.4271 62.6799 24.371 62.8161 24.3069 62.9433C24.2348 63.0614 24.1707 63.1796 24.1066 63.2977C24.0746 63.3522 24.0425 63.4068 24.0105 63.4613C23.9785 63.5158 23.9384 63.5613 23.8983 63.6067C23.7461 63.7975 23.6259 63.9701 23.4576 64.0973C23.2894 64.2245 23.1612 64.3517 22.9769 64.4244C22.8968 64.5698 22.8167 64.7061 22.7366 64.8424C22.6966 64.9151 22.6565 64.9787 22.6164 65.0514C22.6004 65.0786 22.5763 65.124 22.5603 65.1422L22.4962 65.2149C22.328 65.4057 22.1758 65.5965 22.0235 65.7782C21.9514 65.8782 21.8633 65.9418 21.7831 66.0236C21.703 66.0962 21.6149 66.178 21.5348 66.2507C21.4547 66.3234 21.3665 66.4052 21.2864 66.4779C21.2383 66.5233 21.2143 66.5325 21.1742 66.5597L21.0701 66.6324C20.9339 66.7232 20.8057 66.814 20.6615 66.914C20.5252 66.9958 20.381 67.0866 20.2368 67.1684C20.1647 67.2139 20.0927 67.2593 20.0206 67.3047C19.9404 67.3502 19.8683 67.3865 19.7882 67.432C19.6279 67.5228 19.4677 67.6227 19.2914 67.7136C18.5864 68.0952 17.705 68.5313 16.4471 68.9675C15.8142 69.1765 15.0851 69.3764 14.2439 69.5127C13.3946 69.6399 12.4251 69.7035 11.3355 69.5854C11.5839 69.6672 11.7682 69.7489 11.8884 69.8034C12.0166 69.858 12.0807 69.9034 12.0967 69.9398C12.1207 70.0124 11.9284 70.0761 11.5679 70.067C11.4798 70.067 11.3756 70.067 11.2634 70.067C11.1513 70.0579 11.0311 70.0397 10.9029 70.0306C10.7747 70.0124 10.6305 70.0034 10.4863 69.967C10.3421 69.9307 10.1898 69.9033 10.0295 69.867C9.38859 69.7034 8.65156 69.4218 7.89843 68.9857C7.15332 68.5495 6.40014 67.9499 5.73514 67.2139C5.07015 66.4779 4.49329 65.6056 4.03661 64.7061C3.57993 63.7975 3.23547 62.8616 2.99511 61.9893C2.86692 61.5532 2.77878 61.1352 2.69065 60.7445C2.61854 60.3538 2.54644 59.9903 2.49837 59.6632C2.39422 58.5456 2.41825 57.6007 2.49837 56.7739C2.57849 55.947 2.73873 55.2474 2.89897 54.6023C3.09126 53.9662 3.28349 53.3757 3.54789 52.8032C3.79626 52.2217 4.10877 51.6583 4.49334 51.0495C4.70166 50.5135 5.24643 49.5685 5.85534 48.8053C6.01558 48.6236 6.16786 48.4328 6.31208 48.2692C6.46431 48.1057 6.60845 47.9603 6.73664 47.8149C7.00103 47.5514 7.20938 47.3515 7.27348 47.2425C6.98505 47.297 6.59242 47.3969 6.13574 47.6513C5.90339 47.7604 5.6631 47.933 5.3987 48.1056C5.2625 48.1874 5.14233 48.3055 5.00612 48.4145C4.87793 48.5326 4.7257 48.6417 4.5975 48.778C4.4613 48.9143 4.32508 49.0505 4.18087 49.1959C4.04466 49.3504 3.90844 49.514 3.76423 49.6866C3.69212 49.7684 3.62 49.8593 3.55591 49.9502C3.4838 50.041 3.4197 50.1409 3.34759 50.2318C3.20337 50.4226 3.07517 50.6316 2.93897 50.8406C2.40217 51.7038 1.9054 52.7305 1.51282 53.9299C1.12023 55.1202 0.823787 56.474 0.711619 57.955C0.695595 58.1367 0.687642 58.3275 0.671618 58.5184C0.663606 58.7092 0.66359 58.9 0.655578 59.0908C0.639554 59.4724 0.663606 59.8632 0.671618 60.2629C0.67963 60.4628 0.695595 60.6628 0.711619 60.8627C0.727643 61.0626 0.743722 61.2715 0.767758 61.4714C0.791794 61.6713 0.81581 61.8803 0.847858 62.0893C0.879906 62.2983 0.91997 62.4981 0.952017 62.7071C0.968041 62.807 0.992034 62.9161 1.00806 63.0161C1.03209 63.116 1.0562 63.225 1.08024 63.325C1.12831 63.534 1.17633 63.743 1.23242 63.952C1.3526 64.37 1.46476 64.7969 1.625 65.2149C1.7612 65.6419 1.94547 66.0508 2.12173 66.4779C2.32203 66.8867 2.51435 67.3138 2.75471 67.7136C2.86688 67.9135 2.98702 68.1225 3.11521 68.3133C3.2434 68.5132 3.37159 68.7131 3.51581 68.9039C3.66003 69.0947 3.80427 69.2855 3.94849 69.4763C4.0927 69.6672 4.26093 69.8398 4.42117 70.0215C4.50129 70.1124 4.58145 70.2033 4.66157 70.2941L4.91791 70.5485C5.09417 70.712 5.26245 70.8938 5.44672 71.0482C5.631 71.2027 5.82334 71.3572 6.00762 71.5207C6.20792 71.6661 6.4002 71.8024 6.6005 71.9478C6.78477 72.0568 6.96103 72.1204 7.08922 72.184C7.13729 72.2385 7.22536 72.2657 7.22536 72.2476Z" fill="#4CA4DB"/>
<path d="M56.9543 27.6836C56.7462 27.765 56.4661 27.8556 56.234 27.8646C56.0019 27.8737 55.8258 27.8283 55.8498 27.6655L55.7137 27.5298C55.8018 27.5027 55.9699 27.4484 56.154 27.4031C56.338 27.3579 56.5461 27.3126 56.7222 27.2945C57.0743 27.2764 57.2824 27.3578 56.9543 27.6836Z" fill="#4CA4DB"/>
<path d="M57.6821 31.665L57.8102 31.7103C57.7461 31.6922 57.6741 31.6831 57.6021 31.6831C57.53 31.6922 57.466 31.7013 57.41 31.7194C57.37 31.5836 57.538 31.3665 57.7781 31.3846C57.7461 31.5022 57.538 31.5564 57.6821 31.665Z" fill="#4CA4DB"/>
<path d="M51.0079 32.5332C51.1039 32.7322 51.344 32.8499 51.6241 32.9133C51.9043 32.9766 52.2483 32.9947 52.5605 32.9585C52.6485 33.1938 52.7446 33.4199 52.8407 33.6552C52.7206 33.6552 52.6005 33.7095 52.4804 33.7819C52.3684 33.8634 52.2644 33.9811 52.1524 34.0987C51.9363 34.343 51.7442 34.6869 51.5281 34.9674C51.4561 35.275 52.0883 34.6235 51.7681 35.2659C51.6481 35.2569 51.5601 35.085 51.424 35.1574C51.288 35.4741 51.36 35.6642 51.336 35.8994C51.32 36.0171 51.296 36.1528 51.1839 36.3247C51.1279 36.4061 51.0559 36.5056 50.9519 36.6142C50.9039 36.6685 50.8478 36.7229 50.7757 36.7862C50.7037 36.8495 50.6317 36.9128 50.5517 36.9762C50.4477 36.9943 50.3436 37.0124 50.2396 37.0305C50.1355 37.0486 50.0315 37.0576 49.9194 37.0667C49.6233 37.2929 49.2871 37.5191 48.911 37.6911C48.5348 37.8721 48.1106 37.9897 47.6784 38.0349C47.4623 38.053 47.2463 38.0712 47.0302 38.0531C46.9182 38.044 46.8141 38.0349 46.702 38.0259C46.598 38.0078 46.4939 37.9806 46.3899 37.9625C46.1738 37.9263 45.9897 37.8449 45.7896 37.7725C45.5976 37.7001 45.4215 37.6096 45.2455 37.5191C44.5652 37.139 44.0369 36.6867 43.5967 36.2523C43.1565 35.809 42.8124 35.3746 42.5243 34.9583C42.2922 34.9674 42.0281 34.7864 41.7799 34.6326C41.7239 34.5964 41.6599 34.5692 41.6039 34.533C41.5479 34.4968 41.4919 34.4607 41.4278 34.4426C41.2998 34.3973 41.1877 34.352 41.0676 34.352L41.1397 34.153C40.9477 34.2706 40.8275 34.153 40.6675 34.0444C40.5954 33.981 40.5235 33.8996 40.4434 33.8453C40.3634 33.791 40.2833 33.7458 40.2033 33.7367C40.1233 33.6372 40.0353 33.5557 39.9472 33.4652C39.9312 33.3747 39.9792 33.3205 40.0592 33.2934C40.0992 33.2843 40.1473 33.2662 40.1953 33.2662C40.2433 33.2662 40.2993 33.2662 40.3553 33.2662C40.4594 33.2662 40.5635 33.2571 40.6355 33.2118C40.7076 33.1666 40.7395 33.0852 40.6995 32.9404C40.5394 32.8228 40.3794 32.7503 40.2193 32.7503C40.0593 32.7503 39.8992 32.7685 39.7472 32.8137C39.5951 32.859 39.451 32.8952 39.3069 32.9042C39.1629 32.9223 39.0188 32.8952 38.8667 32.8047C38.5626 32.7866 38.4346 32.8228 38.3386 32.9133C38.2425 32.9947 38.1865 33.1033 38.0184 33.1938C37.9704 33.4291 38.1624 33.3839 38.1624 33.6463C38.1224 33.6553 38.0904 33.6643 38.0584 33.6733C38.0263 33.6824 37.9943 33.6915 37.9623 33.7005C37.8983 33.7186 37.8343 33.7277 37.7783 33.7367C37.6582 33.7458 37.5542 33.7548 37.4502 33.7458C37.3462 33.7367 37.25 33.7095 37.154 33.6914C37.0579 33.6734 36.9699 33.6462 36.8739 33.6191C36.6818 33.5648 36.4977 33.5376 36.2896 33.5557C36.1856 33.5647 36.0815 33.6009 35.9695 33.6552C35.8655 33.7095 35.7455 33.7819 35.6414 33.8996C35.6574 33.9448 35.6414 34.0444 35.6174 34.153C35.6014 34.2615 35.5773 34.3882 35.5853 34.4968C35.5933 34.6054 35.6254 34.6959 35.6974 34.7321C35.7294 34.7502 35.7775 34.7592 35.8335 34.7411C35.8895 34.7321 35.9695 34.7139 36.0575 34.6777L36.1296 34.4606C36.1536 34.3882 36.1936 34.3249 36.2176 34.2525C36.3297 34.2706 36.4338 34.2887 36.5378 34.3068C36.4818 34.3521 36.4178 34.4063 36.3457 34.4606C36.2737 34.5149 36.2096 34.5692 36.1616 34.6416C36.0655 34.7683 36.0095 34.8859 36.1056 34.9583C36.0095 34.904 35.9295 34.904 35.8574 34.9402C35.7854 34.9673 35.7214 35.0307 35.6573 35.1031C35.6013 35.1846 35.5614 35.284 35.5214 35.3836C35.5053 35.4288 35.4893 35.4831 35.4733 35.5284C35.4653 35.5827 35.4493 35.628 35.4413 35.6823C35.4013 35.8723 35.3693 36.0079 35.3293 36.0351C35.3053 36.0441 35.2733 36.017 35.2252 35.9537C35.1772 35.8813 35.1291 35.7636 35.0731 35.5917C35.1852 35.5102 35.2573 35.4288 35.3293 35.3745C35.4013 35.3112 35.4493 35.2569 35.4813 35.1936C35.5453 35.0579 35.5613 34.9131 35.5773 34.6688C35.1532 35.076 34.7611 35.5194 34.4409 36.0261C34.1208 36.5329 33.8886 37.0938 33.7926 37.673C33.8806 37.8087 33.9687 37.9354 34.0727 38.0621C33.9126 38.0531 33.7686 38.1707 33.6406 38.3879C33.5846 38.4964 33.5365 38.614 33.4965 38.7588C33.4805 38.8312 33.4565 38.8946 33.4405 38.967C33.4325 39.0394 33.4245 39.1118 33.4165 39.1842C33.4565 39.3108 33.4725 39.4465 33.5045 39.546C33.5365 39.6456 33.5765 39.6999 33.6565 39.6546C33.7125 39.6727 33.7206 39.5551 33.7366 39.3832C33.7446 39.3018 33.7606 39.2022 33.7686 39.0936C33.7766 39.0393 33.7766 38.9941 33.7846 38.9398C33.7926 38.8855 33.8086 38.8402 33.8166 38.786C33.8647 38.5869 33.9127 38.424 33.9927 38.3788C34.0727 38.3245 34.1608 38.3969 34.3048 38.6231C34.2168 39.2023 34.1687 39.8176 34.1527 40.4148C34.1447 41.012 34.1767 41.573 34.1687 42.0797C34.0887 41.9531 34.0167 41.8264 33.9526 41.7087L33.9047 41.6183L33.8646 41.5278C33.8326 41.4644 33.8006 41.4101 33.7686 41.3467C33.7366 41.2834 33.6965 41.2291 33.6565 41.1658C33.6165 41.1025 33.5846 41.0392 33.5365 40.9849C33.4885 40.9215 33.4404 40.8581 33.3764 40.7948C33.3124 40.7314 33.2484 40.6591 33.1843 40.5867C33.1283 40.4419 33.0723 40.2971 33.0243 40.1523C32.9843 39.9985 32.9443 39.8447 32.9122 39.6908C32.8722 39.537 32.8562 39.3741 32.8322 39.2203C32.8082 39.0574 32.7922 38.8946 32.7922 38.7317C32.7602 38.0802 32.8322 37.4196 32.9762 36.7771C33.1123 36.1347 33.3204 35.5103 33.5765 34.9221C33.6085 34.8497 33.6325 34.7682 33.6725 34.6959L33.7766 34.4787C33.8486 34.3339 33.9046 34.1801 33.9927 34.0444C34.0727 33.9086 34.1448 33.7639 34.2168 33.6191C34.2968 33.4834 34.3848 33.3476 34.4649 33.2028C34.5209 33.2299 34.5929 33.2299 34.6649 33.2118C34.737 33.1937 34.825 33.1848 34.9051 33.1667C35.0571 33.1395 35.1852 33.1395 35.1852 33.3024C35.2492 33.3024 35.3132 33.2661 35.3773 33.2209C35.4493 33.1847 35.5293 33.1305 35.6014 33.0852C35.6814 33.04 35.7615 32.9947 35.8335 32.9856C35.9135 32.9766 35.9935 32.9947 36.0575 33.049C36.6578 32.4608 37.5222 32.0989 38.3785 32.0174C39.2429 31.936 40.0832 32.0989 40.7635 32.3432C40.7075 32.1622 40.7315 32.0536 40.8196 32.0084C40.8596 31.9812 40.9236 31.9721 40.9956 31.9631C41.0677 31.9631 41.1397 31.9812 41.2278 31.9993C41.3158 32.0174 41.4038 32.0446 41.4918 32.0627C41.5879 32.0899 41.6759 32.126 41.7639 32.1532C41.94 32.2165 42.1081 32.2618 42.2282 32.2708C42.2922 32.3885 42.3722 32.497 42.4762 32.5966C42.5803 32.6961 42.6843 32.8047 42.8044 32.8951C42.8604 32.9404 42.9244 32.9857 42.9885 33.0309C43.0445 33.0761 43.1085 33.1305 43.1645 33.1757C43.2846 33.2662 43.3886 33.3747 43.4927 33.4652C43.6047 33.42 43.8609 33.6371 43.9169 33.4471C43.5807 33.2118 43.5647 32.9947 43.2766 32.6508C43.4687 32.5241 43.6528 32.6871 43.8128 32.9495C43.9809 33.2029 44.133 33.5467 44.3411 33.791L43.9568 33.7367C44.309 34.1258 44.5571 34.6869 44.8692 35.1936C45.0293 35.447 45.1974 35.6822 45.4135 35.8632C45.5176 35.9537 45.6216 36.0351 45.7417 36.0894C45.8617 36.1437 45.9817 36.1889 46.1098 36.1889C46.0218 36.0623 45.9497 35.9175 45.8777 35.7818C45.8056 35.6461 45.7416 35.5012 45.6856 35.3655C45.8056 35.4288 45.9177 35.5102 46.0378 35.5826C46.0938 35.6188 46.1578 35.6641 46.2138 35.7003C46.2699 35.7365 46.3339 35.7727 46.3899 35.8088C46.4459 35.8541 46.5099 35.8812 46.574 35.9174L46.758 36.0171C46.822 36.0442 46.8862 36.0713 46.9502 36.0985L47.0462 36.1347L47.1423 36.1618C47.2063 36.1799 47.2783 36.198 47.3424 36.2071C47.4064 36.2161 47.4784 36.2161 47.5424 36.2161C47.6065 36.2161 47.6705 36.2252 47.7345 36.2071C47.7985 36.198 47.8625 36.1799 47.9186 36.1708C48.1587 36.0984 48.3507 35.9537 48.4627 35.7365C48.1426 35.8179 47.7505 35.9717 47.4063 35.9355C47.0702 35.9084 46.8381 35.7456 46.9262 35.456C46.9582 35.3837 47.0141 35.3293 47.0782 35.3112C47.1102 35.3022 47.1502 35.2931 47.1902 35.2931C47.2303 35.2841 47.2703 35.2841 47.3183 35.2841C47.4864 35.2931 47.6865 35.3113 47.8305 35.3475C48.1427 35.4289 48.4708 35.2931 48.7189 35.0669C48.975 34.8407 49.175 34.524 49.3671 34.2073C49.5592 33.8906 49.7513 33.5557 49.9994 33.2662C50.2635 32.9495 50.5837 32.687 51.0079 32.5332Z" fill="#4CA4DB"/>
<path d="M48.7516 33.6831C48.6475 33.7917 48.5755 33.9004 48.5275 33.9818C48.5035 34.0271 48.4794 34.0633 48.4634 34.0995C48.4474 34.1357 48.4314 34.1718 48.4234 34.208C48.3834 34.3528 48.3914 34.4704 48.3914 34.5971C48.3914 34.7238 48.3834 34.8414 48.3274 34.959C48.2634 35.0767 48.1353 35.1944 47.9192 35.2306C47.9352 35.0496 47.8232 34.9409 47.7111 34.8414C47.6791 34.8143 47.6551 34.7962 47.6231 34.7781C47.5911 34.76 47.5671 34.7328 47.5351 34.7147C47.503 34.6966 47.4791 34.6875 47.455 34.6785C47.431 34.6604 47.407 34.6514 47.3829 34.6424C47.3589 34.6605 47.3269 34.6785 47.3029 34.6875C47.2709 34.6966 47.2469 34.6966 47.2149 34.6966C47.1829 34.6966 47.1589 34.6966 47.1269 34.6875C47.0949 34.6785 47.0629 34.6605 47.0389 34.6424C46.9828 34.6152 46.9187 34.57 46.8627 34.5247C46.8067 34.4885 46.7427 34.4342 46.6867 34.398C46.5586 34.2351 46.7988 33.9366 47.0469 34.0813C47.2229 34.5609 47.559 34.5156 47.7591 34.3346C47.8711 34.2441 47.9833 34.1265 48.1433 34.0089C48.2714 33.8912 48.4795 33.7555 48.7516 33.6831Z" fill="#4CA4DB"/>
<path d="M46.302 34.804C46.134 34.7045 45.8939 34.4602 45.7338 34.1616C45.5658 33.872 45.4777 33.5553 45.5977 33.3924C45.5737 33.32 45.7818 33.2385 45.5657 33.1119C45.6617 33.3109 45.9019 33.6277 46.0779 33.9263C46.1259 34.0077 46.166 34.0711 46.198 34.1525C46.23 34.2249 46.262 34.3063 46.286 34.3697C46.326 34.5054 46.3421 34.6592 46.302 34.804Z" fill="#4CA4DB"/>
<path d="M45.4462 35.0952C45.3902 35.249 45.3021 35.2038 45.2221 35.0952C45.142 34.9866 45.062 34.8327 45.014 34.7874L44.9019 34.4798C45.134 34.6246 45.3902 34.8237 45.4462 35.0952Z" fill="#4CA4DB"/>
<path d="M42.8851 31.4032C42.573 31.1317 42.7891 31.1498 42.9972 31.1769C43.2052 31.2041 43.3973 31.2313 42.9811 30.9327L43.2373 31.0684C43.3253 31.1136 43.4053 31.1589 43.4853 31.2222C43.4613 31.4032 43.4293 31.5932 43.3973 31.7742L43.1413 31.5842L42.8851 31.4032Z" fill="#4CA4DB"/>
<path d="M41.9555 30.416C41.6994 30.4341 41.4833 30.3707 41.1152 30.1716L41.3712 30.054C41.5473 30.0178 41.6593 30.3074 41.9555 30.416Z" fill="#4CA4DB"/>
<path d="M42.4363 31.9178C42.2682 31.8726 42.2122 31.8093 42.1882 31.7279C42.1641 31.6464 42.1561 31.5468 42.0761 31.4473C42.1641 31.4111 42.3483 31.5559 42.4523 31.7097C42.5564 31.8545 42.5964 31.9993 42.4363 31.9178Z" fill="#4CA4DB"/>
<path d="M39.1465 34.008C39.2505 33.7999 39.4105 33.7818 39.5946 33.7909C39.6906 33.7909 39.7787 33.8271 39.8827 33.8452C39.9787 33.8633 40.0828 33.8724 40.1868 33.8724C40.0828 33.8634 39.9948 33.8904 39.9067 33.9176C39.8267 33.9357 39.7466 33.9629 39.6746 33.981C39.5946 34.0081 39.5226 34.0262 39.4346 34.0352C39.3945 34.0352 39.3465 34.0352 39.2985 34.0352C39.2585 34.0171 39.2025 34.0171 39.1465 34.008Z" fill="#4CA4DB"/>
<path d="M62.3245 27.1492C62.6126 27.3573 62.9888 27.3211 63.2209 27.2759C63.1808 27.2125 63.1328 27.1491 63.0928 27.0948L62.3245 27.1492Z" fill="#4CA4DB"/>
<path d="M57.7622 26.9324C57.6261 27.1948 57.6982 27.2491 57.8822 27.2581C57.9783 27.2672 58.0984 27.2672 58.2344 27.2762C58.3705 27.2853 58.5305 27.3305 58.6906 27.3939C59.0987 27.3848 59.507 27.3033 59.9311 27.2128C60.1392 27.1766 60.3552 27.1405 60.5633 27.1133C60.7714 27.0862 60.9875 27.0952 61.1956 27.1133C61.3717 27.0409 61.5478 26.9686 61.7239 26.9143C61.6599 26.8962 61.5958 26.8781 61.5318 26.851C61.4678 26.8329 61.3957 26.8147 61.3237 26.8057C61.1797 26.7695 61.0196 26.7424 60.8596 26.7062C60.6995 26.67 60.5234 26.6609 60.3473 26.6428C60.1713 26.6247 59.9951 26.6066 59.8111 26.6066C59.4509 26.6066 59.0828 26.6157 58.7306 26.679C58.5546 26.7061 58.3865 26.7423 58.2264 26.7785C58.0583 26.8238 57.9062 26.8781 57.7622 26.9324Z" fill="#4CA4DB"/>
<path d="M69.5681 30.923C69.36 30.7329 69.16 30.4886 68.9359 30.2533C68.8239 30.1357 68.7038 30.0181 68.5837 29.9004C68.5197 29.8371 68.4637 29.7827 68.3996 29.7194C68.3356 29.6651 68.2716 29.6109 68.2076 29.5566C68.0715 29.448 67.9434 29.3484 67.7994 29.2488C67.6633 29.1493 67.5112 29.077 67.3672 28.9955C67.2151 28.9231 67.0711 28.8597 66.919 28.8145C66.767 28.7693 66.6069 28.7421 66.4469 28.7331C66.8791 29.1041 66.823 29.2399 67.4712 29.8009C67.063 29.8733 66.815 29.6832 66.5749 29.4118C66.3267 29.1584 66.1027 28.8055 65.7586 28.6426C66.0067 28.8507 65.9186 28.914 65.7185 28.905C65.5184 28.905 65.2064 28.8145 64.9583 28.7331C64.7502 28.5974 64.51 28.4526 64.2299 28.335C64.0939 28.2717 63.9498 28.2173 63.7977 28.1539C63.6456 28.0997 63.4856 28.0544 63.3335 28.0001C63.0134 27.8915 62.6773 27.8282 62.3411 27.7559C62.1731 27.7197 62.005 27.7015 61.8369 27.6743C61.6688 27.6562 61.5008 27.6201 61.3407 27.611C61.1966 27.6563 60.9725 27.6563 60.7324 27.6382C60.4843 27.6292 60.2122 27.6292 59.9641 27.6292C59.4678 27.6563 59.0838 27.7467 59.2358 28.0363C58.8597 28.0906 58.6356 28.0182 58.4195 27.9187C58.2114 27.8191 58.0193 27.7015 57.7152 27.6924C57.5151 27.8191 57.315 27.9278 57.1149 27.9821C57.0189 28.0183 56.9148 28.0363 56.8108 28.0544C56.7147 28.0816 56.6107 28.0907 56.5066 28.1088C56.0985 28.145 55.6823 28.1449 55.2502 28.1449C54.826 28.172 54.3777 28.1992 53.9615 28.3711C53.8575 28.4073 53.7535 28.4526 53.6495 28.5069C53.5454 28.5612 53.4494 28.6335 53.3534 28.7059C53.1613 28.8597 52.9772 29.0317 52.8251 29.276C52.7931 29.086 52.577 29.1403 52.3209 29.276C52.0648 29.4117 51.7927 29.647 51.6246 29.7556C51.4485 29.8823 51.2244 30.0813 50.9923 30.2985C50.8723 30.3981 50.7603 30.5247 50.6562 30.6424C50.5522 30.76 50.4481 30.8867 50.3521 30.9953C49.9919 31.4749 49.8398 31.9001 50.208 31.9635C50.3761 31.9363 50.5281 31.8278 50.6641 31.674C50.8082 31.5201 50.9443 31.3392 51.0964 31.1401C51.2404 30.941 51.4085 30.751 51.5926 30.5881C51.6806 30.5067 51.7766 30.4342 51.8807 30.3799C51.9847 30.3256 52.0968 30.2894 52.2088 30.2623C52.9772 30.1085 52.697 30.4072 52.2888 30.8053C52.0808 31.0044 51.8567 31.2487 51.6886 31.4659C51.5285 31.6921 51.4485 31.8911 51.5366 32.0088C51.5766 31.8911 51.6967 31.9183 51.8487 31.8911C52.0008 31.873 52.1848 31.8187 52.3609 31.5382C51.9447 32.0902 52.1528 32.1264 52.4009 32.1264C52.657 32.1264 52.9692 32.0993 52.8331 32.4612C53.1372 32.2983 53.3773 32.2079 53.5614 32.1445C53.7374 32.0721 53.8815 32.0541 54.0016 32.0541C54.2497 32.0541 54.4498 32.1264 54.8899 32.3164C55.034 32.1897 55.122 32.0721 55.17 31.9635C55.2181 31.8549 55.2341 31.7554 55.2261 31.6468C55.2181 31.4477 55.138 31.2577 55.1861 31.0677C55.2661 30.9862 55.3462 30.9138 55.4422 30.8595C55.5303 30.8053 55.6263 30.769 55.7143 30.7328C55.8984 30.6695 56.0904 30.6424 56.2745 30.6424C56.4586 30.6333 56.6427 30.6243 56.8188 30.6152C56.9949 30.5971 57.1629 30.561 57.331 30.4705C57.251 30.742 57.299 30.8957 57.419 30.9772C57.5391 31.0586 57.7232 31.0767 57.9473 31.0586C58.0593 31.0405 58.1793 31.0315 58.2994 31.0134C58.4194 30.9953 58.5475 30.9681 58.6755 30.941C58.9316 30.9048 59.1717 30.8505 59.3718 30.8324C59.6279 30.8324 59.772 30.7782 59.868 30.6967C59.9641 30.6153 60.0122 30.5157 60.0602 30.4162C60.1082 30.3166 60.1561 30.2172 60.2682 30.1448C60.3802 30.0724 60.5564 30.0361 60.8365 30.0904C61.1006 30.3438 60.7965 30.4705 60.5404 30.5972C60.2763 30.742 60.0521 30.9049 60.3883 31.1582C60.5483 31.0949 60.7164 31.0587 60.8845 31.0044C60.9725 30.9229 61.0526 30.8233 61.1406 30.7328C61.2207 30.6424 61.3087 30.5519 61.3967 30.4705C61.4847 30.3891 61.5807 30.2986 61.6768 30.2262C61.7728 30.1538 61.8769 30.0904 61.9889 30.0542C62.229 30.1085 62.5892 30.1809 62.5652 30.3257C62.317 30.3347 62.2131 30.4524 62.2291 30.5881C62.2451 30.7239 62.3651 30.8957 62.5652 31.0677C62.8133 30.9862 62.8773 30.9681 63.0134 30.8595C62.8533 30.5428 62.8213 30.3981 62.8933 30.3529C62.9653 30.3076 63.1415 30.3619 63.3576 30.4705C63.4696 30.5248 63.5896 30.579 63.7097 30.6333C63.8297 30.6967 63.9578 30.7601 64.0858 30.8144C64.3419 30.9139 64.59 30.9952 64.8061 30.941C65.0783 30.9591 65.2864 31.0315 65.4545 31.1039C65.5345 31.1401 65.6064 31.1763 65.6705 31.2215C65.7345 31.2668 65.7826 31.312 65.8226 31.3573C65.9906 31.5473 66.0307 31.7644 66.0547 31.9907C66.0787 32.2259 66.0867 32.4612 66.1987 32.6874C66.2307 32.7417 66.2627 32.8051 66.3028 32.8594C66.3428 32.9228 66.3909 32.977 66.4549 33.0403C66.5749 33.167 66.743 33.2757 66.9511 33.4114C66.9831 32.8504 67.2872 32.9951 67.6873 33.3299C68.0715 33.6737 68.4957 34.2167 68.8158 34.3977C69.16 34.8954 69.0879 35.2483 69.1039 35.7459C69.256 35.8364 69.5121 36.2074 69.6802 36.1803C69.8642 35.954 70.0163 35.6736 70.1284 35.3207C70.1844 35.1487 70.2325 34.9497 70.2565 34.7506C70.2805 34.5515 70.3045 34.3343 70.3045 34.1081C70.3205 33.2032 70.1204 32.0721 69.6562 30.9139C69.6322 30.9229 69.5841 30.9049 69.5681 30.923Z" fill="#4CA4DB"/>
</g>
</svg>
