<svg width="104" height="52" viewBox="0 0 104 52" fill="none" xmlns="http://www.w3.org/2000/svg">
<g id="Vector">
<path d="M92.1926 43.6441C92.4386 43.4732 92.7085 43.3113 92.9783 43.1224C93.2561 42.9335 93.5418 42.7357 93.8275 42.5378C94.1133 42.3309 94.399 42.124 94.6768 41.9262C94.9546 41.7283 95.2165 41.5124 95.4625 41.3326C96.4467 40.586 97.1372 40.0374 96.9784 40.4151L97.4467 40.2083C97.2563 40.3972 96.9943 40.658 96.6689 40.9458C96.5102 41.0897 96.3356 41.2426 96.153 41.4045C95.9705 41.5664 95.772 41.7193 95.5736 41.8812C94.772 42.5468 93.8355 43.1764 93.0577 43.6621C92.6608 43.8869 92.3037 44.0848 92.018 44.2377C91.7243 44.3726 91.51 44.4625 91.391 44.4805C91.2799 44.4985 91.264 44.4626 91.391 44.3276C91.518 44.1837 91.7798 43.9859 92.1926 43.6441Z" fill="#4CA4DB"/>
<path d="M90.7401 39.3718L90.1052 39.6776C90.4227 39.5247 90.8116 39.3269 91.1687 39.093C91.3513 38.9761 91.5338 38.8592 91.7005 38.7512C91.8671 38.6343 92.0179 38.5174 92.1529 38.4185C92.2799 38.5174 91.3116 39.4798 90.0575 40.1184C90.2798 39.8575 91.4306 39.12 90.7401 39.3718Z" fill="#4CA4DB"/>
<path d="M91.1211 10.2756C90.9782 10.4015 91.0338 10.5364 91.2402 10.6803C91.3433 10.7523 91.4862 10.8242 91.6528 10.8962C91.8195 10.9771 92.0259 11.0581 92.2481 11.148C93.137 11.5258 94.4148 12.0744 95.5736 13.0008C95.3672 13.0278 95.153 13.0818 94.9546 13.1268C94.7561 13.1807 94.5498 13.2437 94.3593 13.3067C93.9307 13.0368 93.3355 12.794 92.6291 12.659C91.9307 12.5151 91.1132 12.5062 90.2877 12.6231C90.0814 12.6501 89.875 12.6951 89.6607 12.74C89.4543 12.794 89.2401 12.839 89.0417 12.9109C88.6289 13.0368 88.2242 13.2077 87.8353 13.3966C87.4464 13.5945 87.0813 13.8193 86.7321 14.0621C86.6448 14.1251 86.5654 14.1881 86.4781 14.251C86.3987 14.314 86.3114 14.3769 86.2321 14.4489C86.1527 14.5208 86.0733 14.5838 86.0019 14.6468C85.9701 14.6648 85.9066 14.7457 85.8431 14.8087L85.6606 14.9975C85.486 15.2134 85.4145 15.3033 85.4145 15.3483C85.4145 15.3663 85.4304 15.3483 85.4622 15.3304C85.4939 15.3124 85.5415 15.2763 85.5971 15.2314C85.7082 15.1414 85.867 14.9975 86.0336 14.8446C86.0574 14.8176 86.0654 14.8177 86.0813 14.8087L86.2003 14.7277C86.2558 14.6917 86.3114 14.6558 86.359 14.6198C86.5654 14.4939 86.732 14.4129 86.7003 14.4849C86.6844 14.5209 86.613 14.5928 86.486 14.7187C86.4225 14.7817 86.3431 14.8626 86.2479 14.9616C86.232 14.9706 86.2241 14.9885 86.2082 14.9975C86.2003 15.0065 86.2003 15.0065 86.1844 15.0155L86.1447 15.0605C86.0971 15.1144 86.0415 15.1774 85.9939 15.2314C85.8907 15.3483 85.7717 15.4832 85.6447 15.6181C85.6288 15.6271 85.6129 15.6451 85.5971 15.6541C85.5812 15.6631 85.5733 15.6811 85.5574 15.6991C85.5336 15.7261 85.5098 15.7441 85.486 15.7621C85.4463 15.798 85.4066 15.825 85.3828 15.834C85.3193 15.861 85.2796 15.861 85.2241 15.879C85.1685 15.897 85.105 15.9329 85.0098 16.0229C84.9066 16.0858 84.7876 16.3557 84.5971 16.7244C84.5336 16.8863 84.4701 17.0392 84.4066 17.1921C84.3431 17.363 84.2796 17.5339 84.2161 17.6958C84.0891 18.0376 83.978 18.3523 83.8669 18.6492C83.6367 19.3147 83.4304 19.9084 83.2478 20.484C83.0573 21.0686 82.8906 21.6082 82.724 22.1389C82.5652 22.6606 82.4224 23.1463 82.2795 23.632C82.2398 23.578 82.2002 23.5061 82.1684 23.4611C82.1446 23.4521 82.1128 23.4341 82.089 23.4071C82.0573 23.3891 82.0335 23.3621 82.0017 23.3261C81.9859 23.3082 81.97 23.2902 81.9541 23.2722L81.9303 23.2362C81.9303 23.2362 81.9303 23.2272 81.9223 23.2272L81.9145 23.2092L81.8986 23.1643C81.8351 22.9304 81.7636 22.6516 81.6842 22.3098C81.6446 22.1299 81.597 21.9321 81.5493 21.7252C81.5017 21.5004 81.4462 21.2665 81.3985 21.0146C81.2874 20.502 81.1605 19.8724 81.0176 19.1618C80.8747 18.4603 80.716 17.6688 80.5414 16.7784C80.5175 16.6705 80.4938 16.5625 80.4779 16.4456C80.4541 16.3467 80.4223 16.2477 80.3906 16.1488C80.335 15.9509 80.2715 15.7441 80.216 15.5282C80.1842 15.4203 80.1525 15.3124 80.1207 15.2044C80.089 15.0965 80.0414 15.0065 80.0096 14.9076C79.9302 14.7097 79.8509 14.5029 79.7715 14.287C79.7318 14.1791 79.6921 14.0711 79.6445 13.9632L79.6128 13.8822L79.5651 13.7833L79.5255 13.6934C79.4779 13.5945 79.4302 13.4865 79.3826 13.3786C79.2715 13.1717 79.1683 12.9379 79.0334 12.704C78.7715 11.9935 78.454 11.3009 78.081 10.6354C76.5809 8.7106 74.6206 7.20859 72.4856 6.38112C71.4141 5.97638 70.3109 5.72452 69.1997 5.67955C68.6441 5.65256 68.0886 5.67055 67.533 5.73351C66.9774 5.79647 66.4298 5.90443 65.8822 6.04834C63.7075 6.64196 61.6757 7.89211 60.0248 9.55604C59.6121 9.96977 59.2232 10.4105 58.8581 10.8782C58.7628 10.9951 58.6835 11.112 58.5962 11.2289L58.501 11.3639L58.4851 11.3819C58.4771 11.3909 58.4771 11.3909 58.4613 11.4178L57.9692 12.1554L57.8502 12.3443L57.739 12.5601L57.2866 13.4146C56.7311 14.6918 56.1914 16.3556 55.6199 17.9836C55.3421 18.7841 55.0723 19.5846 54.7945 20.3761C54.6675 20.7448 54.5485 21.1046 54.4215 21.4733L54.2468 21.995L54.1992 22.13L54.1754 22.1929L54.1516 22.2468L54.0722 22.4447C53.85 21.2485 53.6278 20.0523 53.4055 18.8561C53.1595 17.5609 52.9135 16.2747 52.6754 15.0875L52.4134 13.8193L52.3738 13.6124C52.3579 13.5495 52.342 13.4955 52.3182 13.4415L52.1039 12.767L51.9928 12.4342C51.9531 12.3263 51.9214 12.2094 51.8737 12.1194L51.6119 11.5528L51.4769 11.265L51.3817 11.0491L51.334 10.9501C51.2388 10.7792 51.1436 10.5994 51.0483 10.4285C50.715 10.0957 50.2864 9.56504 49.7308 8.9984C49.1752 8.42278 48.4848 7.80218 47.7149 7.25353C46.945 6.69589 46.0799 6.22818 45.2307 5.8954C44.3814 5.56261 43.5402 5.38273 42.8179 5.33776L42.7782 5.08595C42.6751 5.09495 42.5639 5.1039 42.4449 5.1039C42.3337 5.1039 42.2147 5.12191 42.0956 5.12191C41.8575 5.12191 41.6036 5.13992 41.3417 5.13992C40.8179 5.1669 40.2623 5.19386 39.6988 5.2838C38.5717 5.45469 37.3892 5.87743 36.5161 6.53401C35.9526 6.83081 35.397 7.1996 34.8732 7.62232C34.6748 7.68528 34.8256 7.45139 35.1589 7.07363C35.4923 6.70487 36.024 6.24619 36.5558 5.85944C37.0876 5.4637 37.6352 5.17588 37.9209 4.96002C38.2146 4.77114 38.2542 4.64523 37.786 4.6812C36.7542 5.04997 35.8574 5.61659 35.1192 6.30015C34.3732 6.97471 33.762 7.74821 33.2303 8.5487C32.7065 9.34918 32.262 10.1857 31.8572 11.0581C31.4525 11.9305 31.0873 12.839 30.7302 13.8103C30.4445 14.7907 30.3413 15.5192 30.2857 16.0858C30.2698 16.3736 30.2461 16.6165 30.254 16.8324C30.254 17.0482 30.2619 17.2371 30.2699 17.417C30.3096 17.7677 30.3334 18.0735 30.3968 18.4333C30.4127 18.5232 30.4206 18.6222 30.4365 18.7211C30.4524 18.8201 30.4762 18.928 30.4921 19.036C30.508 19.1529 30.5318 19.2698 30.5556 19.3957C30.5794 19.5216 30.6111 19.6565 30.6429 19.8094C30.7937 20.0973 30.8175 19.8814 30.8413 19.6385C30.8492 19.5126 30.8651 19.3867 30.8889 19.2968C30.9207 19.2068 30.9603 19.1618 31.0318 19.2158C31.127 19.9083 31.2699 20.529 31.4128 21.0776L27.492 22.3098C27.3253 21.4913 27.1189 20.7718 26.9126 20.1242C26.7062 19.4676 26.4682 18.901 26.2459 18.3614C25.7856 17.3001 25.3252 16.4096 24.7855 15.5642C24.2458 14.7187 23.6188 13.9092 22.7458 13.0998C22.3093 12.686 21.8013 12.2993 21.214 11.9125C20.6267 11.5258 19.9441 11.166 19.1505 10.8602C19.0711 10.8782 18.6584 10.7973 18.1663 10.7163C17.9203 10.6804 17.6504 10.6443 17.3964 10.6264C17.2694 10.6174 17.1425 10.6084 17.0234 10.6084C16.9044 10.6084 16.7933 10.6084 16.6901 10.6173C16.5869 10.6263 16.4996 10.6264 16.4281 10.6354C16.3567 10.6444 16.2932 10.6623 16.2535 10.6803C16.1741 10.7163 16.1662 10.7613 16.2535 10.8243C16.3488 10.8782 16.5472 10.9681 16.8726 11.0761C17.0393 11.13 17.2298 11.211 17.4599 11.283C17.579 11.3189 17.698 11.3729 17.8329 11.4178C17.9678 11.4718 18.1107 11.5168 18.2536 11.5797C19.0473 11.7686 19.8409 12.0385 20.6108 12.3892C21.0791 12.758 21.5156 13.1628 21.9363 13.5855C21.5394 13.2977 21.0553 12.9559 20.5314 12.659C20.0076 12.3622 19.46 12.0924 18.96 11.9125C18.4679 11.7146 18.0234 11.6067 17.7377 11.5528C17.444 11.4988 17.3012 11.5258 17.3806 11.6157C16.8409 11.229 15.7456 10.9412 14.5233 10.9681C13.9122 10.9771 13.2852 11.076 12.682 11.2289C12.0788 11.3729 11.5073 11.6068 10.9994 11.8406C9.98347 12.3173 9.26125 12.8569 8.99934 12.9559C8.87235 13.0188 8.85648 12.9649 8.99934 12.776C9.07077 12.686 9.18188 12.5601 9.34062 12.3892C9.41998 12.2993 9.51521 12.2184 9.61838 12.1194C9.72156 12.0205 9.84062 11.9035 9.97555 11.7956C10.166 11.7236 10.3486 11.6517 10.5232 11.5887C10.6978 11.5348 10.8645 11.4718 11.0232 11.4178C11.3486 11.3279 11.6423 11.238 11.9201 11.184C12.4677 11.0491 12.9359 10.9861 13.3725 10.9052C14.2455 10.7793 14.9836 10.6624 16.0551 10.6084C15.1424 10.4735 14.2376 10.4465 13.3487 10.5364C12.4677 10.6264 11.6026 10.8242 10.7692 11.121C9.1025 11.7146 7.57865 12.695 6.26115 13.9093C3.63407 16.3557 1.8324 19.7375 1.26889 23.2272C1.28476 23.9378 1.32445 24.6303 1.42763 25.3049C1.33239 25.3409 1.24508 25.5747 1.17365 25.9614C1.15777 26.0604 1.13397 26.1683 1.12603 26.2853C1.11809 26.4022 1.10224 26.5281 1.0943 26.663C1.07049 26.9328 1.07047 27.2296 1.07841 27.5624C1.10222 28.219 1.16572 28.9835 1.33239 29.775C1.49907 30.5665 1.74513 31.403 2.05467 32.1945C2.37214 32.851 2.76897 33.5795 3.09438 34.0742C3.41185 34.5689 3.64202 34.8297 3.5944 34.5869C3.72933 34.6858 3.37215 34.1102 2.92769 33.2018C2.4753 32.2934 1.99908 31.0252 1.72923 29.8739C1.45144 28.7227 1.38796 27.6974 1.44352 27.3556C1.46733 27.1757 1.51495 27.1667 1.59432 27.3735C1.634 27.4815 1.67369 27.6344 1.74512 27.8503C1.77687 27.9582 1.81656 28.0841 1.85625 28.219C1.89593 28.3539 1.95148 28.5068 1.9991 28.6777C2.32451 30.5035 2.99119 32.3024 3.91979 33.9033C4.84045 35.5133 6.01509 36.9344 7.28497 38.0676C8.55485 39.2099 9.93587 40.0644 11.2692 40.649C11.9359 40.9368 12.5947 41.1526 13.2296 41.3235C13.8645 41.4944 14.4678 41.5844 15.0392 41.6653C14.2059 41.7013 13.436 41.6293 12.6899 41.4944C11.9518 41.3595 11.2454 41.1616 10.5391 40.9098C9.84064 40.6579 9.14217 40.3522 8.41992 39.9924C7.69768 39.6326 6.9437 39.2009 6.15002 38.6792C4.88014 37.6629 3.73725 36.3947 2.78484 34.9467C1.83242 33.4986 1.07842 31.8617 0.594279 30.1078C0.110136 28.3539 -0.0803638 26.5011 0.030751 24.6483C0.141866 22.8045 0.562548 20.9787 1.20543 19.2788C2.50706 15.87 4.72936 12.9469 7.45961 10.9951C8.82473 10.0148 10.3248 9.30419 11.8724 8.87247C13.4281 8.45874 15.0313 8.35085 16.6027 8.52174C16.7138 8.60269 16.9917 8.72859 17.333 8.84552C17.6742 8.98043 18.079 9.13333 18.4282 9.29523C19.1346 9.61902 19.6266 9.93379 19.1346 9.88882C19.6425 10.1856 20.6187 10.6084 21.5077 11.175C22.3966 11.7326 23.1744 12.4162 23.3966 12.8569C24.7062 13.8733 25.9126 15.1864 26.8888 16.7154C27.873 18.2445 28.619 20.0163 29.0159 21.8961L29.9444 21.6083C29.4444 19.8904 29.3016 18.0286 29.4841 16.2298C29.6588 14.4219 30.1508 12.6771 30.8572 11.1031C31.5636 9.52909 32.5001 8.12596 33.5636 6.96571C34.6192 5.79646 35.8335 4.91505 37.0558 4.28546C36.4685 4.40238 36.4368 4.29446 36.778 4.01564C37.1193 3.75481 37.8336 3.34107 38.7543 3.05326C39.667 2.76544 40.7702 2.60356 41.7861 2.61255C42.802 2.60356 43.7306 2.75646 44.3418 2.8374C45.4291 3.26913 46.8656 3.90769 48.2546 4.83409C49.6515 5.7515 50.9531 7.01067 51.8817 8.25187C51.9531 8.29684 52.0801 8.43176 52.2309 8.59366C52.3738 8.76454 52.5325 8.97141 52.6833 9.15129C52.9611 9.52905 53.1992 9.81687 53.1516 9.55604C52.5166 8.54869 52.0483 7.91011 51.5642 7.26253C51.0642 6.63294 50.5483 5.99438 49.6594 5.21188C50.1674 5.30183 51.1674 6.14726 52.1277 7.49639C52.3658 7.83817 52.6119 8.19791 52.8341 8.59366C52.8897 8.69259 52.9452 8.79154 53.0087 8.89048C53.0643 8.98942 53.1198 9.09737 53.1674 9.19631C53.223 9.29524 53.2786 9.40314 53.3341 9.50208C53.3738 9.58302 53.4135 9.66399 53.4453 9.74494C53.7627 10.4285 54.0643 11.211 54.2866 11.9575C54.1913 11.7776 54.0802 11.5888 53.9611 11.3819C53.8341 11.184 53.7071 10.9591 53.5484 10.7343C54.0325 11.7776 54.3897 13.0008 54.604 14.3949L54.6278 14.5209L54.6358 14.5568C54.6358 14.5568 54.6358 14.5748 54.6358 14.5658L54.6437 14.5568L54.6596 14.5028L54.731 14.305C54.7866 14.1701 54.8262 14.0352 54.8897 13.9093L55.0643 13.5225C55.1278 13.3966 55.1913 13.2617 55.2548 13.1268C55.5247 12.5961 55.8342 12.0385 56.1834 11.4808C56.3501 11.193 56.5485 10.9322 56.739 10.6534C56.9374 10.3925 57.1438 10.1047 57.3422 9.88882C57.7311 9.42112 58.1438 8.98043 58.5644 8.5667C59.4057 7.73924 60.3026 7.02868 61.1994 6.41708C62.0963 5.80547 62.9931 5.2838 63.8662 4.83409C62.5408 5.18486 61.2312 5.75149 59.9931 6.516C61.2233 5.48167 62.6916 4.63623 64.271 4.11457C65.8425 3.58391 67.5172 3.37705 69.1204 3.50297C70.7236 3.61989 72.2395 4.06062 73.5729 4.64525C74.9063 5.22987 76.073 5.93137 77.073 6.56996C76.8746 6.38108 76.6523 6.21021 76.4301 6.02133C76.1999 5.85044 75.9619 5.66155 75.7158 5.49965C75.2158 5.15787 74.6761 4.84309 74.1126 4.56427C72.9935 4.00663 71.7871 3.61991 70.6839 3.41305C69.5807 3.20618 68.6045 3.16116 67.906 3.13417C67.5568 3.11619 67.2791 3.10724 67.0886 3.07126C66.8981 3.04428 66.7949 2.98132 66.8028 2.90037C66.8266 2.8554 66.9298 2.80144 67.0886 2.73848C67.2473 2.68452 67.4695 2.63952 67.7393 2.59454C68.279 2.52259 69.0093 2.48663 69.8029 2.55859C70.5966 2.63054 71.4458 2.81042 72.2236 3.06226C73.0014 3.3141 73.7078 3.64686 74.2317 3.94367C75.5809 4.70818 76.7873 5.61658 77.8587 6.63293C78.3984 7.1366 78.9064 7.66727 79.3747 8.21591C79.8429 8.76456 80.2953 9.34022 80.7001 9.93384C81.1049 10.5275 81.4858 11.148 81.8271 11.7776C81.9065 11.9305 81.9859 12.0924 82.0652 12.2453C82.1129 12.3352 82.1605 12.4432 82.2081 12.5331C82.3033 12.731 82.3906 12.9199 82.47 13.1178C82.6287 13.5045 82.7557 13.8733 82.8668 14.242C82.9144 14.4219 82.9621 14.6018 83.0018 14.7817L83.0176 14.8446L83.0256 14.8806V14.8986L83.0335 14.8806L83.0811 14.7277C83.1129 14.6198 83.1446 14.5209 83.1843 14.4219C83.3986 13.8733 83.6685 13.4056 83.9939 13.0098L84.1208 12.8659C84.1605 12.8209 84.2002 12.776 84.2558 12.722L84.4066 12.5781L84.4463 12.5421C84.4542 12.5331 84.4859 12.5061 84.5097 12.4882L84.6447 12.3712L84.9225 12.1374L85.2161 11.9215C85.4066 11.7776 85.613 11.6517 85.8114 11.5258C86.6209 11.0221 87.486 10.6803 88.3749 10.4645C89.2956 10.2756 90.2084 10.2036 91.1211 10.2756Z" fill="#4CA4DB"/>
<path d="M83.1288 12.3083C83.0812 12.1644 83.0256 12.0385 82.97 11.9305C82.9542 11.9036 82.9383 11.8765 82.9304 11.8496L82.9066 11.8136L82.8986 11.7956L82.8907 11.7867C82.8431 11.6877 82.7954 11.5978 82.7478 11.4988C82.7002 11.3999 82.6526 11.31 82.597 11.22C82.2002 10.5095 81.8351 9.9878 81.5255 9.57406C80.8906 8.75559 80.4462 8.38681 80.0255 8.03604C79.589 7.69426 79.1763 7.3525 78.462 6.76788C78.2873 6.62397 78.0889 6.46204 77.8667 6.28216C77.6365 6.11127 77.3984 5.90444 77.1127 5.69757C76.5492 5.27484 75.8508 4.78014 74.946 4.26747C75.2079 4.31244 75.1999 4.20452 74.9777 3.99765C74.8666 3.88972 74.7158 3.76383 74.5095 3.62892C74.4063 3.55696 74.2952 3.48501 74.1761 3.40406C74.0571 3.33211 73.9221 3.26015 73.7793 3.17921C73.2237 2.8734 72.5253 2.5586 71.7792 2.33375C71.0411 2.0999 70.2553 1.95599 69.541 1.88404C68.16 1.87505 66.6679 2.00992 65.2473 2.3517C64.5409 2.52259 63.8504 2.73846 63.2075 2.98131C62.5646 3.23314 61.9693 3.52095 61.4376 3.81776C60.6995 4.19551 60.3423 4.29445 60.509 4.04261C60.5884 3.91669 60.8106 3.71884 61.1995 3.44002C61.5884 3.17919 62.144 2.83739 62.9138 2.52259C63.8901 2.21679 64.9059 1.96497 65.9536 1.81207C67.0092 1.65917 68.0965 1.58722 69.1998 1.65018C70.303 1.71314 71.422 1.89303 72.5014 2.21682C73.5888 2.54061 74.6444 2.9723 75.6524 3.52994C76.6603 4.08758 77.6127 4.74416 78.4858 5.49967C79.3588 6.25518 80.1604 7.10068 80.8668 8.01809C81.5732 8.93549 82.1764 9.91585 82.6684 10.9322C82.7954 11.184 82.9065 11.4448 83.0177 11.6967C83.0097 11.6967 83.0177 11.7057 83.0177 11.7237L83.0415 11.8586C83.0891 11.9845 83.1129 12.1284 83.1288 12.3083Z" fill="#4CA4DB"/>
<path d="M60.8661 4.84312C60.2867 5.22087 59.5327 5.76052 58.7629 6.4171C57.993 7.07368 57.2073 7.8472 56.5326 8.62969C56.3739 8.81857 56.2152 9.00744 56.0644 9.18733C55.985 9.27727 55.9057 9.3672 55.8263 9.45714C55.6834 9.61004 55.5723 9.73598 55.4771 9.81693C55.2945 9.98782 55.2072 9.98782 55.1834 9.81693C55.1199 9.88888 55.1755 9.28625 55.0088 9.85289C55.0723 9.76295 55.1834 9.55609 55.358 9.30426C55.4533 9.17834 55.5405 9.05239 55.6913 8.8815C55.858 8.67463 56.0247 8.46776 56.1993 8.2609C56.3977 8.03604 56.5961 7.8022 56.8025 7.59534C57.62 6.73189 58.4851 6.03033 59.2312 5.55364C59.9693 5.09493 60.5725 4.84312 60.8661 4.84312Z" fill="#4CA4DB"/>
<path d="M58.5407 7.8112C58.8343 7.76623 58.4375 8.17096 57.9375 8.70162C57.8105 8.83653 57.6756 8.97147 57.5486 9.12437C57.4216 9.26828 57.2866 9.41217 57.1755 9.55608C57.0565 9.69998 56.9454 9.83489 56.8581 9.94282C56.7708 10.0597 56.6993 10.1497 56.6517 10.2306C56.485 10.4195 56.3422 10.6174 56.1993 10.7973C56.0644 10.9862 55.9215 11.166 55.8025 11.3459C55.9612 11.0221 56.1358 10.6894 56.3263 10.3746C56.5168 10.0508 56.7072 9.77196 56.9771 9.41219C57.485 8.74662 58.0486 8.17996 58.5407 7.8112Z" fill="#4CA4DB"/>
<path d="M45.6672 2.00098C44.7227 1.64121 44.4925 1.56925 44.6275 1.54226C44.7624 1.51528 45.2624 1.60522 45.7307 1.71315C45.9688 1.77611 46.191 1.83007 46.3656 1.87504C46.5402 1.92001 46.6593 1.956 46.6831 1.93801C46.7228 1.92002 46.3894 1.69516 45.2148 1.3084C46.1196 1.56924 47.0085 1.91999 47.8577 2.35171C48.0958 2.69349 48.326 3.02628 48.5324 3.37706C47.6197 2.81942 46.6593 2.35175 45.6672 2.00098Z" fill="#4CA4DB"/>
<path d="M39.5638 0.930664C39.421 0.975635 39.2781 1.01157 39.1273 1.05654C38.9844 1.10151 38.8336 1.15551 38.6828 1.20048C38.3812 1.29042 38.0717 1.40733 37.7304 1.52426C37.0558 1.77609 36.278 2.08189 35.3335 2.58556C35.4843 2.45065 35.6431 2.32474 35.8018 2.19882C35.9605 2.0729 36.1193 1.94701 36.2939 1.83008C36.4685 1.72215 36.659 1.63221 36.8733 1.55127C37.0876 1.47931 37.3257 1.40731 37.5876 1.33536C38.1193 1.20944 38.7543 1.06558 39.5638 0.930664Z" fill="#4CA4DB"/>
<path d="M44.6593 2.48664C44.437 2.44167 44.2386 2.40569 44.0719 2.36971C43.9053 2.33373 43.7624 2.31577 43.6433 2.27979C43.3973 2.21683 43.2306 2.17187 43.0798 2.1179C42.929 2.06394 42.802 2.00097 42.6353 1.94701C42.4687 1.89304 42.2703 1.83903 41.9687 1.78506C42.056 1.76708 42.1988 1.76712 42.3655 1.77612C42.5401 1.78511 42.7465 1.80311 42.9608 1.83908C43.183 1.87506 43.4132 1.91101 43.6354 1.98297C43.8655 2.04593 44.0878 2.09986 44.2862 2.18081C44.691 2.31572 45.0005 2.46865 45.1037 2.5406C45.2148 2.61255 45.1037 2.60356 44.6593 2.48664Z" fill="#4CA4DB"/>
<path d="M32.4842 12.5601C32.5874 11.7687 33.0478 10.6713 33.8018 9.60102C34.1748 9.06137 34.6192 8.53072 35.1034 8.03604C35.5875 7.54136 36.1193 7.0827 36.6669 6.66896C36.532 6.77689 36.3971 6.86681 36.278 6.98374C36.159 7.09167 36.0399 7.19058 35.9288 7.29851C35.7145 7.51437 35.5082 7.71226 35.3256 7.92812C35.1351 8.13498 34.9684 8.35086 34.8018 8.55772C34.7224 8.66565 34.643 8.77357 34.5637 8.8815C34.4843 8.98943 34.4049 9.08835 34.3335 9.20528C33.7383 10.0687 33.143 11.0311 32.4842 12.5601Z" fill="#4CA4DB"/>
<path d="M66.1203 50.2458C64.6123 50.2548 62.8662 50.5516 61.8423 50.7765L62.636 50.8574C63.8027 50.6596 64.9615 50.4616 66.1203 50.2458Z" fill="#4CA4DB"/>
<path d="M88.0575 46.4053C88.7877 45.8207 88.4623 45.8836 87.5813 46.1894C86.6924 46.4863 85.2241 46.9629 83.6526 47.1788C79.6049 48.1771 75.4063 49.0945 71.4459 49.5173L69.0648 50.0839C70.2553 49.994 71.6601 49.886 73.1999 49.7421C74.7475 49.5982 76.4301 49.4183 78.1603 49.1485C79.8905 48.8877 81.6525 48.5369 83.3431 48.0782C85.0415 47.6195 86.6527 47.0439 88.0575 46.4053Z" fill="#4CA4DB"/>
<path d="M27.2063 50.2188C29.7619 50.7315 32.8176 51.2801 35.9446 51.568C39.0797 51.8648 42.2782 51.9097 45.0878 51.577C43.7862 51.505 43.1275 51.442 42.2782 51.3431C41.4369 51.2532 40.4051 51.1632 38.3812 50.9833C39.913 50.7315 41.4687 50.8124 43.1036 50.9564C44.7386 51.0823 46.445 51.2891 48.2705 51.2352C46.7863 51.1902 47.0165 51.0733 47.9371 50.9564C48.8578 50.8394 50.4531 50.7045 51.715 50.6146C54.104 50.5966 57.1914 50.4167 60.4852 50.1199C63.7789 49.8321 67.2711 49.4273 70.4934 49.0496C71.8665 48.7618 74.8507 48.4829 77.3349 48.0872C79.8191 47.7005 81.7795 47.1698 81.0573 46.9809C83.0256 46.5222 84.1606 46.3064 85.1844 46.1355C85.4384 46.0905 85.6844 46.0455 85.9384 46.0005C86.1924 45.9556 86.4464 45.9106 86.7162 45.8387C86.986 45.7757 87.2718 45.7037 87.5734 45.6138C87.8829 45.5149 88.2083 45.4069 88.5734 45.272C89.6131 44.7054 90.6132 44.1387 91.5814 43.5541C91.8275 43.4102 92.0576 43.2483 92.2957 43.1044L92.6529 42.8795L93.0021 42.6457C93.2323 42.4928 93.4704 42.3399 93.7005 42.187C93.9307 42.0251 94.1529 41.8632 94.3831 41.7013C94.6133 41.5484 94.8355 41.3775 95.0578 41.2066C95.28 41.0357 95.5022 40.8738 95.7244 40.703C96.1609 40.3432 96.5975 40.0014 97.0181 39.6236C97.2245 39.4348 97.4467 39.2549 97.6451 39.057L98.2562 38.4634C98.4626 38.2655 98.6531 38.0407 98.8515 37.8338C99.0499 37.6179 99.2484 37.4111 99.4309 37.1772C99.6214 36.9524 99.8039 36.7185 99.9944 36.4937C100.177 36.2598 100.352 36.008 100.534 35.7651L100.804 35.3964L101.05 35.0096C101.217 34.7488 101.383 34.488 101.542 34.2182C101.844 33.6695 102.161 33.1209 102.415 32.5183C102.685 31.9426 102.939 31.304 103.153 30.6565C103.987 28.0661 104.264 25.116 103.717 22.13C103.828 22.3009 103.868 22.058 103.844 21.5543C103.82 21.0507 103.725 20.2861 103.534 19.4407C103.344 18.5952 103.058 17.6598 102.717 16.8234C102.383 15.9869 101.994 15.2404 101.701 14.7187C101.367 14.1521 100.955 13.5045 100.431 12.857C99.915 12.2094 99.296 11.5528 98.5975 10.9772C97.8673 10.3656 97.0578 9.8619 96.2403 9.48414C95.4149 9.10639 94.5815 8.86351 93.8037 8.7196C93.018 8.5757 92.2957 8.53973 91.6687 8.55771C91.0417 8.59369 90.5179 8.66563 90.1369 8.76456C89.756 8.85451 89.5179 8.96244 89.4464 9.05238C89.375 9.14233 89.4861 9.19631 89.7957 9.24128C90.5893 9.25028 91.5576 9.23229 92.6529 9.35821C92.9307 9.3762 93.2085 9.43916 93.4942 9.47514C93.7799 9.5381 94.0736 9.58303 94.3752 9.66398C94.9704 9.80789 95.5816 10.0238 96.1927 10.3026C96.5022 10.4375 96.7959 10.6084 97.0975 10.7793C97.3912 10.9681 97.6927 11.148 97.9705 11.3729C98.534 11.8046 99.0499 12.2723 99.5182 12.812C99.9865 13.3426 100.407 13.9093 100.764 14.5119C101.121 15.1145 101.415 15.7261 101.645 16.3377C102.042 17.399 102.177 18.0825 102.233 18.4333C102.28 18.7931 102.248 18.8201 102.145 18.6222C101.947 18.2265 101.479 16.8863 100.613 15.4652C100.185 14.7547 99.6531 14.0352 99.0738 13.4056C98.4864 12.767 97.8594 12.2273 97.2404 11.8136C96.6292 11.3999 96.0498 11.157 95.6371 11.0131C95.2165 10.8872 94.9546 10.8512 94.907 10.9322C95.4467 11.0851 95.8276 11.3639 96.407 11.8406C96.7006 12.0745 97.034 12.3712 97.4626 12.749C97.8753 13.1357 98.3833 13.6035 98.9785 14.2601C98.3515 13.5585 97.8594 13.1448 97.5102 12.9109C97.161 12.6681 96.9705 12.5871 96.907 12.5871C96.8356 12.5871 96.8911 12.6861 97.0022 12.839C97.0578 12.9109 97.1372 13.0008 97.2165 13.0998C97.2959 13.1987 97.3912 13.3156 97.4785 13.4326C97.8515 13.9092 98.2563 14.4849 98.3753 14.8087C98.4388 14.9616 98.4467 15.0515 98.3594 15.0155C98.3118 14.9976 98.2483 14.9526 98.1531 14.8807C98.0578 14.7997 97.9308 14.6917 97.7642 14.5568C98.3912 15.3033 98.8357 16.0409 99.1769 16.7155C99.5182 17.39 99.7484 17.9926 99.923 18.5323C100.098 19.072 100.217 19.5396 100.296 19.9533C100.383 20.3671 100.431 20.7358 100.463 21.0686C100.526 21.7342 100.518 22.2918 100.463 22.9214C100.407 23.551 100.304 24.2706 100.066 25.2419C100.042 26.4022 99.9626 27.1937 99.9309 27.7603C99.915 28.0391 99.9071 28.264 99.8992 28.4439C99.8992 28.6237 99.9151 28.7677 99.923 28.8936C99.9865 29.3703 100.185 29.4513 100.098 30.1708C99.7246 31.421 99.2166 32.5722 98.5975 33.5616C97.9785 34.5599 97.28 35.4414 96.5419 36.2239C95.0419 37.7889 93.4227 39.0211 91.7005 40.2803C92.2402 39.5967 92.1132 39.4707 91.5735 39.6866C91.4386 39.7406 91.2799 39.8215 91.0973 39.9115C90.9068 40.0014 90.7004 40.1094 90.4703 40.2263C90.2401 40.3522 89.9861 40.4781 89.7163 40.613C89.5813 40.685 89.4465 40.7569 89.3036 40.8289C89.1607 40.9008 89.0099 40.9728 88.8591 41.0447C87.6448 41.6384 86.1686 42.25 84.6764 42.7537C83.1843 43.2573 81.6922 43.653 80.4938 43.9049C78.9461 44.2197 78.0254 44.4086 77.4381 44.5975C76.8508 44.7773 76.5809 44.9302 76.3032 45.0921C75.7476 45.3979 75.1444 45.7307 71.7316 46.0815C70.0093 46.0185 71.7315 45.6587 73.2951 45.299C74.8666 44.9302 76.2793 44.5615 74.0412 44.5794C73.0094 44.7773 71.9776 44.9752 70.9379 45.1641C68.9696 45.8027 67.414 46.5132 65.0409 47.0619C63.6123 47.2148 61.4693 47.4306 61.3979 47.2777C64.1916 46.837 63.2948 46.5222 60.3423 46.5672C58.9851 46.855 58.6438 46.927 58.001 47.1428C59.4613 47.3137 59.8105 47.4216 59.4534 47.5296C59.0962 47.6375 58.0327 47.7094 56.6596 47.7994C55.2866 47.8713 53.604 47.9523 52.0166 48.0422C50.4293 48.1322 48.9292 48.2311 47.9133 48.42C47.1752 48.5009 46.5006 48.5459 45.8894 48.5909C45.2783 48.6358 44.7227 48.6539 44.2227 48.6628C43.2147 48.6898 42.4211 48.6538 41.7623 48.5999C41.1036 48.5459 40.5797 48.456 40.1353 48.357C39.6829 48.2581 39.3098 48.1502 38.9289 48.0242C38.1749 47.7724 37.4368 47.5295 36.1669 47.2777C34.897 47.0349 33.0953 46.81 30.2381 46.4683C31.0794 46.855 31.0318 47.0079 30.4127 47.0079C29.7937 47.0169 28.619 46.855 27.2221 46.5852C26.5237 46.4413 25.7697 46.2973 25.0078 46.1085C24.6268 46.0185 24.2379 45.9286 23.857 45.8297C23.476 45.7307 23.095 45.6228 22.73 45.5238C21.2458 45.1281 19.8806 44.7054 18.952 44.4715C18.1822 44.2017 17.5552 43.9139 16.9996 43.6621C16.444 43.4102 15.9837 43.1494 15.5472 42.8975C15.1107 42.6457 14.7059 42.4029 14.3011 42.1241C13.8884 41.8452 13.4677 41.5664 12.9836 41.2336C12.7772 41.1527 12.4756 41.0267 12.1423 40.8738C11.8089 40.7209 11.428 40.5591 11.0788 40.3792C10.3724 40.0284 9.71362 39.7136 9.50727 39.7046C10.0311 40.7389 11.8169 42.6008 14.7694 44.5615C15.1424 44.8043 15.5234 45.0561 15.9281 45.317C16.3329 45.5598 16.7535 45.8027 17.1901 46.0635C17.6266 46.3243 18.079 46.5582 18.5552 46.801C19.0235 47.0439 19.5076 47.3047 20.0155 47.5296C20.5156 47.7634 21.0315 48.0152 21.5632 48.2401C22.095 48.4649 22.6426 48.6898 23.1982 48.9237C23.7617 49.1395 24.3332 49.3554 24.9126 49.5712C25.4999 49.7871 26.0951 49.976 26.6983 50.1829C26.9761 50.2278 27.2142 50.2458 27.2063 50.2188Z" fill="#4CA4DB"/>
<path d="M54.5644 30.2338C54.5088 30.3058 54.4136 30.3238 54.3263 30.2878C54.239 30.2428 54.1596 30.1439 54.1437 29.982L54.0723 29.7931C54.1834 29.8111 54.6596 29.6222 54.5644 30.2338Z" fill="#4CA4DB"/>
<path d="M55.6756 34.5961L55.7549 34.65C55.6755 34.5961 55.5803 34.596 55.5248 34.614C55.4771 34.4611 55.5486 34.2632 55.6756 34.2902C55.6835 34.4161 55.5724 34.4701 55.6756 34.5961Z" fill="#4CA4DB"/>
<path d="M52.2548 32.0416C52.2786 32.5363 52.5485 33.2109 52.8501 33.6246L52.8818 34.4431C52.7627 34.2632 52.6199 34.2542 52.477 34.2902C52.3341 34.3172 52.1754 34.3981 52.0325 34.4251C51.9373 34.605 52.3262 34.659 52.0643 34.8658C52.0167 34.7489 52.0167 34.542 51.9532 34.4791C51.723 34.7309 51.9214 35.3425 51.35 35.2526L51.1357 34.8838C50.6595 34.9198 50.1833 35.1177 49.6991 35.2526C49.215 35.3605 48.7229 35.4235 48.2705 35.2166C48.088 35.6124 47.6197 35.4415 47.3102 35.6663L47.326 35.4235C47.1276 35.8192 46.8895 35.2885 46.6832 35.3065L46.5244 35.0457C46.5006 34.641 47.0562 34.9378 46.9609 34.3172C46.6276 33.9125 46.2625 34.7669 45.9927 34.2902C45.699 34.1283 45.6911 34.4251 45.4688 34.506C45.3815 34.7399 45.4926 34.7579 45.4291 35.0277C44.6752 35.0097 44.8815 33.7416 44.2625 33.6966C44.199 33.8855 43.5878 34.2273 43.9846 34.659C44.0799 34.605 44.1672 34.542 44.2625 34.4701L44.3577 34.7759C44.2704 34.7579 44.1434 34.7309 44.0482 34.7309C43.945 34.7309 43.8577 34.7669 43.8497 34.9108C43.8418 34.4341 43.5005 34.542 43.2545 34.632C43.0084 34.7129 42.8656 34.7669 43.2783 34.1733C43.5085 34.488 43.6116 34.4701 43.8815 34.1733C43.564 34.0293 43.2941 33.8135 43.0322 33.6246C42.7783 33.4267 42.5402 33.2109 42.2862 33.1029L42.0084 33.4268C42.1195 33.04 41.9608 32.6892 41.7624 32.4913C41.6354 32.5183 41.5163 32.4284 41.4767 32.6263C41.4132 32.7252 41.6116 32.8781 41.7544 33.04C41.8973 33.2019 41.9767 33.3998 41.6354 33.6426C41.5719 33.5887 41.5005 33.5347 41.437 33.4807C41.3735 33.4178 41.31 33.3548 41.2544 33.2918C41.1353 33.1569 41.0243 33.013 40.929 32.8601C40.7306 32.5543 40.5877 32.2215 40.5322 31.8707C40.8179 31.9157 40.9687 32.1136 41.429 31.7538C41.564 31.7448 41.6909 31.7538 41.8179 31.7808C41.9449 31.7988 42.0639 31.8258 42.1909 31.8528C42.437 31.9068 42.6751 31.9877 42.9132 32.0596C43.0323 32.0956 43.1513 32.1316 43.2704 32.1676C43.3894 32.1945 43.5164 32.2125 43.6354 32.2215C43.8815 32.2395 44.1355 32.2215 44.3894 32.1316C44.3577 32.4104 44.572 32.5903 44.4371 32.8511C44.4767 33.076 44.7625 32.9141 44.7387 33.3188C44.9371 33.2649 45.1355 33.2468 45.3339 33.2648C45.5323 33.2738 45.7228 33.3278 45.9133 33.3548C46.2942 33.4358 46.6594 33.5617 46.9848 33.6336C46.9292 33.2559 47.0403 33.1659 47.1911 33.1209C47.3419 33.067 47.5245 33.076 47.6277 32.9411C47.7705 33.2648 48.0721 33.1569 48.2864 33.1659C48.3182 33.049 48.4531 33.013 48.4293 32.8062C48.2705 32.8781 48.2229 32.7162 48.0642 32.6353C48.1118 32.3744 48.1911 32.3834 48.2943 32.4734C48.3419 32.5184 48.3975 32.5723 48.461 32.6263C48.5166 32.6712 48.5801 32.7162 48.6356 32.7252L48.5007 33.013C48.6991 33.022 48.9134 33.2559 49.1277 33.4268C49.342 33.5977 49.5642 33.6966 49.7388 33.4447C49.6356 33.2738 49.5246 33.1029 49.4293 32.932C49.5404 32.8781 49.6594 32.8871 49.7785 32.8961C49.8975 32.9141 50.0166 32.9501 50.1356 32.9771C50.3738 33.031 50.596 33.031 50.7388 32.7162C50.4373 32.5453 49.9611 32.9681 49.9531 32.2845C49.9611 31.9157 50.2865 31.9157 50.4531 32.0596C50.6357 32.2215 50.7944 32.2485 50.9532 32.2125C51.104 32.1676 51.2468 32.0597 51.3817 31.9607C51.6436 31.7269 51.8976 31.5829 52.2548 32.0416Z" fill="#4CA4DB"/>
<path d="M51.223 30.9713C50.6992 31.0793 51.0325 31.9967 50.4928 31.9427C50.5404 31.574 50.2706 31.2772 50.096 31.2592C49.9372 31.475 49.7309 31.3581 49.5801 31.3581C49.4769 31.2771 49.4928 30.8365 49.6832 30.8275C49.9293 31.1782 50.1992 31.0523 50.4611 30.9264C50.5881 30.8634 50.715 30.8004 50.842 30.7915C50.969 30.7735 51.096 30.8184 51.223 30.9713Z" fill="#4CA4DB"/>
<path d="M49.5324 31.9698C49.3578 32.0147 48.9451 31.7988 48.9451 31.3131C48.9213 31.2772 48.969 31.0254 48.8737 31.1153C49.0166 31.2682 49.4531 31.3222 49.5324 31.9698Z" fill="#4CA4DB"/>
<path d="M49.2944 32.8691C49.3261 33.2289 49.1356 32.9591 49.088 32.9591L48.9769 32.8062C49.0801 32.7162 49.215 32.6713 49.2944 32.8691Z" fill="#4CA4DB"/>
<path d="M47.7943 31.7179C47.5562 31.547 48.0879 31.2771 47.7943 31.1962L47.9689 31.1602L47.9927 31.7269L47.7943 31.7179Z" fill="#4CA4DB"/>
<path d="M47.4451 31.1872C47.3658 31.3041 47.2864 31.3491 47.1752 31.2142L47.2625 31.0163C47.3181 30.9354 47.3499 31.1782 47.4451 31.1872Z" fill="#4CA4DB"/>
<path d="M47.6753 32.4823C47.5403 32.5993 47.58 32.3205 47.5086 32.1946C47.5721 32.0327 47.8023 32.4464 47.6753 32.4823Z" fill="#4CA4DB"/>
<path d="M45.953 35.6663C46.1514 35.2436 46.3895 35.5494 46.6673 35.4594C46.3895 35.5494 46.2467 35.7832 45.953 35.6663Z" fill="#4CA4DB"/>
<path d="M56.0803 29.1905C56.2231 29.2894 56.2867 29.1276 56.3105 28.9837L56.2073 28.8577L56.0803 29.1905Z" fill="#4CA4DB"/>
<path d="M54.6755 29.5323C54.7152 30.0809 54.8184 29.7661 55.1279 30.0719C55.2708 30.0719 55.3818 29.955 55.485 29.8111C55.5882 29.6672 55.6755 29.5143 55.8025 29.4693L55.8581 29.1276C55.6835 29.1096 55.4612 29.1186 55.2469 29.1815C55.0247 29.2445 54.8184 29.3434 54.6755 29.5323Z" fill="#4CA4DB"/>
<path d="M58.1915 27.6525C58.0566 27.7514 57.8422 27.7784 57.6676 27.8773C57.5803 27.9223 57.501 27.9943 57.4375 28.0932C57.4057 28.1472 57.3819 28.2101 57.3661 28.2821C57.3423 28.354 57.3343 28.435 57.3263 28.534C57.5248 28.5519 57.5883 28.6868 57.866 28.6239C57.9295 28.9836 57.8264 29.0286 57.6835 28.9926C57.5406 28.9476 57.3581 28.8307 57.2549 28.8937C57.493 28.9297 57.3819 29.3254 57.2391 29.4603C57.0565 29.4603 56.8581 29.5413 56.6597 29.6492C56.4533 29.7392 56.239 29.8651 56.0406 29.973C55.993 30.1349 55.7945 30.1799 55.6358 30.2698C55.485 30.3508 55.3739 30.4587 55.5168 30.7645C55.2707 30.9174 55.0882 30.4317 54.858 30.3597C54.7707 30.6026 54.6358 30.6655 54.485 30.6296C54.3342 30.5936 54.1596 30.4497 53.985 30.3238C53.6437 30.063 53.3262 29.8201 53.1199 30.3778C53.0802 29.973 52.7945 30.0899 52.6675 30.0899C52.4056 30.1169 51.8024 30.2069 52.0325 30.9354C52.1595 31.1782 52.2865 31.0613 52.4214 30.9534C52.5564 30.8455 52.6992 30.7285 52.8818 30.9534C53.5088 31.6549 52.4294 31.3671 52.5167 32.0507C52.5722 31.9157 52.6992 32.5004 52.8977 32.2396C52.6834 32.4464 52.7627 32.6173 52.8738 32.8062C52.9849 32.9861 53.1358 33.1749 53.0405 33.4088C53.3659 33.5527 53.5167 33.6247 53.6437 33.7596C53.7707 33.8945 53.8739 34.1013 54.112 34.4791C54.4453 34.2363 54.2231 33.6786 54.2548 33.3368C54.4056 33.121 54.5882 33.175 54.7787 33.2559C54.9692 33.3369 55.1596 33.4448 55.2945 33.2919C55.3104 34.4071 56.0485 33.8765 56.4295 33.7146C56.6914 33.6516 56.6597 33.4088 56.6279 33.1659C56.6041 32.9321 56.5803 32.6983 56.8422 32.6263C57.0486 32.8062 56.9772 33.022 56.9137 33.2379C56.8502 33.4538 56.7946 33.6696 57.0486 33.8495L57.2232 33.5347C57.239 33.076 57.1835 32.5364 57.2549 32.1856C57.3581 32.1316 57.5089 32.0506 57.5645 32.2035C57.4216 32.4554 57.62 32.7972 57.9216 32.9051C57.9613 32.6983 57.9693 32.6443 57.9613 32.4734C57.5486 32.0597 57.6518 31.9877 57.8581 31.9247C58.0645 31.8618 58.3899 31.7988 58.3978 31.4211C58.6201 30.7825 58.8502 31.0074 59.1201 31.2862C59.3899 31.565 59.6915 31.8888 59.9852 31.4031C59.636 31.0523 59.7153 30.8544 59.8741 30.6835C60.0407 30.5126 60.2868 30.3328 60.3185 30.0899C60.5408 29.955 60.7471 30.1259 61.0566 30.2698C61.0566 30.1349 61.1916 29.964 61.1201 29.7931C60.7154 29.2984 60.2312 28.8847 59.7312 28.525C59.2233 28.1562 58.7074 27.8594 58.1835 27.5716C58.1835 27.5986 58.1835 27.6345 58.1915 27.6525Z" fill="#4CA4DB"/>
</g>
</svg>
