<svg width="38" height="74" viewBox="0 0 38 74" fill="none" xmlns="http://www.w3.org/2000/svg">
<g opacity="0.5">
<path d="M34.1837 10.5087C34.0712 10.3133 33.9362 10.0953 33.8087 9.85479C33.6812 9.62178 33.5537 9.38878 33.4487 9.17832C33.2387 8.76492 33.1187 8.45675 33.2762 8.50185L33.2837 8.27637C33.4862 8.60709 34.0262 9.4489 34.3112 10.0878C34.4612 10.4035 34.5511 10.6666 34.5436 10.7718C34.5436 10.877 34.4386 10.8169 34.1837 10.5087Z" fill="#FCEA0D"/>
<path d="M31.5207 11.6811C31.5507 11.7638 31.5732 11.854 31.6032 11.9442C31.5657 11.8089 31.4982 11.6586 31.4307 11.5082C31.3557 11.3579 31.2882 11.2076 31.2207 11.1024C31.2582 11.0648 31.3707 11.1399 31.4907 11.2903C31.6107 11.4406 31.7532 11.6586 31.8507 11.9141C31.7907 11.8841 31.7007 11.7488 31.6257 11.6586C31.5432 11.5759 31.4982 11.5383 31.5207 11.6811Z" fill="#FCEA0D"/>
<path d="M22.1685 1.48166C22.026 1.60192 22.161 1.84245 22.4535 2.12055C22.6035 2.25585 22.7836 2.4212 22.9936 2.57904C23.2036 2.73688 23.4285 2.92479 23.676 3.09015C23.4735 3.20289 23.2786 3.31565 23.0911 3.42839C22.7386 3.16532 22.131 2.94735 21.4486 2.79702C21.2761 2.75944 21.1036 2.72185 20.9236 2.69178C20.7436 2.66923 20.5635 2.63918 20.3835 2.61664C20.0235 2.57905 19.6711 2.54147 19.3411 2.51892C19.0786 2.54898 19.3861 2.61663 19.5886 2.68428C19.6936 2.71435 19.7611 2.75192 19.7311 2.76695C19.7011 2.78198 19.5661 2.79702 19.2436 2.79702C19.1011 2.70682 19.2211 2.58657 18.9511 2.51892C18.6586 2.54147 18.4711 2.58656 18.3286 2.63166C18.1786 2.68427 18.0737 2.74441 17.9162 2.79702C17.8412 2.82709 17.7512 2.84212 17.6462 2.87219C17.5412 2.89474 17.4137 2.91728 17.2562 2.93983C17.0987 2.95487 16.9187 2.97741 16.6937 2.99995C16.5812 3.00747 16.4612 3.01499 16.3262 3.03003C16.1912 3.04506 16.0486 3.05257 15.8986 3.0676C15.7562 3.03753 15.6137 3.0225 15.4712 2.99995C15.3287 2.98492 15.1787 2.96238 15.0362 2.93983C13.9638 3.14278 12.9138 3.47349 11.9163 3.92448C10.9188 4.37546 9.97383 4.93166 9.11885 5.57807C8.26387 6.23199 7.48382 6.95358 6.80884 7.73528C6.13385 8.51699 5.54887 9.3513 5.03138 10.2232C4.98638 10.6065 4.73143 11.2454 4.51393 11.967C4.28894 12.6886 4.10888 13.5003 4.07888 14.1242H3.92142C3.95892 14.3121 3.95142 14.5226 3.92892 14.7556C3.92142 14.8683 3.89888 14.9886 3.88388 15.1088C3.86138 15.2291 3.83891 15.3494 3.81641 15.4771C3.79391 15.6049 3.77143 15.7327 3.74893 15.853C3.72643 15.9807 3.71138 16.1085 3.69638 16.2363C3.65888 16.4843 3.64393 16.7324 3.65143 16.9579C3.62143 17.0932 3.60646 17.2285 3.58396 17.3638C3.56146 17.4991 3.5389 17.6343 3.5239 17.7771C3.4039 17.9425 3.34396 17.3562 3.29896 16.8151C3.29146 16.6798 3.27643 16.552 3.26143 16.4317C3.25393 16.319 3.23897 16.2138 3.21647 16.1461C3.17898 16.0033 3.11896 15.9657 3.01396 16.1536C2.86397 17.0481 2.98398 17.8223 3.12648 18.5363C3.26898 19.2504 3.44144 19.9193 3.46394 20.701C3.48644 20.8889 3.52393 21.0468 3.55393 21.1821C3.58393 21.3174 3.61393 21.4376 3.64393 21.5353C3.70392 21.7383 3.76391 21.8736 3.81641 21.9938C3.86891 22.1141 3.9364 22.2118 3.9964 22.3396C4.06389 22.4599 4.13144 22.6102 4.22894 22.8206C4.45393 22.9935 4.28141 22.4899 4.4839 22.5275C4.7539 23.3017 4.95636 23.888 5.10636 24.3991C5.25636 24.9027 5.35392 25.3236 5.45892 25.7295C5.56392 26.1354 5.67636 26.5412 5.87136 26.9847C6.05885 27.4357 6.33633 27.9318 6.79382 28.5331C6.83882 28.5331 6.97388 28.6458 7.13137 28.7811C7.20637 28.8488 7.30384 28.9164 7.38634 28.9841C7.47634 29.0517 7.5588 29.1118 7.6338 29.1569C7.7838 29.2471 7.88886 29.2772 7.88136 29.172C7.88136 29.1194 7.84385 29.0367 7.77635 28.9014C7.70885 28.7736 7.59632 28.6007 7.46132 28.3677L6.72635 27.6236C6.65135 27.3981 6.56891 27.1726 6.50141 26.9396C6.60641 27.105 6.7414 27.3004 6.8689 27.5109C7.01139 27.7138 7.16135 27.9167 7.29635 28.0896C7.43134 28.2625 7.55882 28.4128 7.64882 28.503C7.74632 28.5857 7.80638 28.6158 7.81388 28.5556C7.83638 28.6984 7.91882 28.8713 8.03132 29.0592C8.09132 29.1494 8.15882 29.2471 8.22632 29.3449C8.30132 29.4426 8.37637 29.5478 8.46637 29.6455C8.82636 30.0288 9.2463 30.4422 9.62879 30.7354C9.81628 30.8932 9.98129 31.0285 10.1088 31.1413C10.2363 31.254 10.3338 31.3292 10.3638 31.3818C10.4013 31.4344 10.3713 31.4494 10.2663 31.4344C10.2138 31.4269 10.1463 31.4043 10.0488 31.3743C9.95882 31.3367 9.84626 31.2916 9.70377 31.2314C9.48627 30.9609 9.30628 30.7429 9.14879 30.555C8.99129 30.3671 8.86384 30.2092 8.72884 30.0739C8.59385 29.9387 8.45881 29.8184 8.31631 29.7056C8.16632 29.5929 8.0163 29.4651 7.82881 29.3298C8.78879 30.555 9.77131 31.6599 10.7838 32.6445C11.0463 32.8851 11.3013 33.1256 11.5563 33.3586C11.8188 33.5841 12.0812 33.8096 12.3437 34.0275C12.5987 34.253 12.8763 34.4485 13.1388 34.6514C13.2738 34.7491 13.4088 34.8468 13.5363 34.9521C13.6713 35.0498 13.8062 35.14 13.9412 35.2302L14.7287 35.4331C14.6762 35.5609 14.9087 35.824 15.2762 36.1472C15.6437 36.4779 16.1687 36.8387 16.7087 37.1844C17.2112 37.3949 17.8262 37.7331 17.7362 37.5452C17.8787 37.5302 16.8662 36.989 16.1312 36.4854C16.0412 36.4253 15.9512 36.3651 15.8687 36.305C15.7862 36.2449 15.7112 36.1848 15.6437 36.1321C15.5087 36.0269 15.4187 35.9367 15.3737 35.8766C15.2912 35.7563 15.4412 35.7488 15.9737 35.9442C17.1887 36.7259 18.4861 37.4776 19.6786 38.1615C20.8711 38.8531 21.9811 39.4468 22.7986 39.9655C22.1461 39.74 21.5836 39.5295 21.0211 39.3191C20.7361 39.2138 20.4436 39.1312 20.1361 39.0334C19.8286 38.9433 19.4911 38.8606 19.1236 38.7854C18.8311 38.6727 18.5461 38.5524 18.2536 38.4321C18.1111 38.372 17.9612 38.3119 17.8187 38.2442C17.6762 38.1766 17.5336 38.1089 17.3911 38.0413C17.1061 37.906 16.8137 37.7707 16.5287 37.6279C16.2437 37.4776 15.9587 37.3272 15.6812 37.1769C15.3962 37.0266 15.1187 36.8612 14.8412 36.6959C14.5637 36.5305 14.2787 36.3727 14.0162 36.1923L13.1987 35.6661L12.4038 35.1099C11.3538 34.3507 10.3338 33.5615 9.39634 32.7047C9.27634 32.5994 9.15636 32.4942 9.03636 32.389C8.92386 32.2837 8.8038 32.171 8.69131 32.0658C8.46631 31.8478 8.22638 31.6373 8.00138 31.4194C7.78388 31.1939 7.55889 30.9759 7.34139 30.7579L7.17632 30.5926C7.12382 30.54 7.07135 30.4798 7.01886 30.4272C6.91386 30.3145 6.80883 30.2017 6.70383 30.089C6.71883 29.9612 6.53141 29.638 6.40391 29.3599C6.28391 29.0818 6.2014 28.8638 6.38889 28.9615C6.3514 28.8488 6.26887 28.7135 6.17137 28.5556C6.07387 28.3978 5.94643 28.2324 5.84893 28.0595C5.74393 27.8867 5.64635 27.7138 5.57885 27.556C5.51135 27.3981 5.47386 27.2628 5.48886 27.1576C4.96387 26.3984 4.48388 25.5566 4.08639 24.6621C3.6889 23.7677 3.35897 22.8206 3.11897 21.8661C2.87148 20.9115 2.70646 19.9494 2.62396 19.0173C2.53396 18.0853 2.51898 17.1909 2.55648 16.3566C2.31649 16.8151 2.24147 16.3115 2.25647 15.5598C2.27147 14.8082 2.41395 13.8311 2.42895 13.3425C2.51895 13.132 2.62395 12.884 2.70644 12.6134C2.75144 12.4781 2.80399 12.3353 2.84899 12.1925C2.87149 12.1173 2.89396 12.0421 2.91646 11.967C2.93896 11.8918 2.96894 11.8167 2.99144 11.7415C3.18644 11.1327 3.41894 10.5163 3.65894 9.9977C3.65144 9.92253 3.71895 9.72712 3.76395 9.56176C3.80895 9.3964 3.84642 9.2611 3.74143 9.3062C3.65143 9.49411 3.58389 9.66698 3.50889 9.80979C3.43389 9.9526 3.36646 10.0804 3.29896 10.2082C3.23146 10.3359 3.15643 10.4637 3.07393 10.614C2.99893 10.7644 2.92397 10.9297 2.83397 11.1327C2.78898 11.0199 2.80392 10.8546 2.87142 10.6441C2.93892 10.4412 3.05896 10.2006 3.20146 9.93758C3.50145 9.41895 3.91389 8.84018 4.26638 8.29149C4.19888 8.51698 4.13138 8.74247 4.07888 8.96796C4.61137 8.03593 5.43641 7.17907 6.29139 6.44247C7.13888 5.69835 8.03135 5.08199 8.72134 4.42806C8.21135 4.631 7.71636 4.87153 7.22137 5.1346C8.09885 4.31532 9.27634 3.62382 10.4238 3.12774C10.9938 2.86467 11.5638 2.66173 12.0813 2.44375C12.3437 2.34604 12.5912 2.24081 12.8312 2.1431C13.0712 2.04539 13.2887 1.94016 13.4912 1.83493C13.0937 1.91009 12.6438 2.03785 12.1938 2.1957C11.7438 2.35354 11.2938 2.53395 10.8963 2.70683C10.1013 3.05258 9.50877 3.33819 9.41877 3.13524C9.40377 3.01498 9.81627 2.71434 10.3638 2.44375C10.4988 2.36859 10.6413 2.30845 10.7913 2.24832C10.9413 2.18819 11.0838 2.12807 11.2338 2.07546C11.5263 1.97774 11.8038 1.88754 12.0288 1.83493C12.9888 1.61695 13.8813 1.414 14.7437 1.2336C15.6062 1.06073 16.4462 0.917931 17.2787 0.827735C18.1112 0.745054 18.9361 0.722498 19.7536 0.820211C20.5786 0.917924 21.396 1.12087 22.1685 1.48166Z" fill="#FCEA0D"/>
<path d="M16.8887 0.226509C16.4762 0.264091 16.1312 0.294167 15.8612 0.354298C15.5837 0.406912 15.3662 0.452011 15.1937 0.519659C14.8487 0.639921 14.6612 0.73762 14.4812 0.857882C14.3912 0.910496 14.3012 0.970628 14.1962 1.02324C14.0912 1.07586 13.9638 1.136 13.8063 1.20365C13.4913 1.33143 13.0263 1.46673 12.2838 1.69973C12.4338 1.52686 12.1263 1.50429 11.6613 1.58697C11.1963 1.66965 10.5663 1.87261 10.0788 2.0981C9.97377 2.16575 9.85381 2.24091 9.74131 2.30856C9.62881 2.37621 9.50883 2.45137 9.38884 2.51902C9.26884 2.58666 9.14886 2.6543 9.02886 2.72195C8.90886 2.7896 8.78879 2.86476 8.66879 2.93241C8.42879 3.0677 8.19636 3.21051 7.97886 3.35332C7.75387 3.48862 7.55883 3.63144 7.37133 3.76674C7.10134 3.92458 6.95132 3.94712 6.98132 3.82686C6.99632 3.76673 7.05634 3.66902 7.18383 3.54876C7.24383 3.48863 7.31888 3.41346 7.41637 3.3383C7.50637 3.26314 7.61883 3.17293 7.74632 3.09025C8.42881 2.75953 9.1563 2.39874 9.90628 2.03796C10.6488 1.67717 11.4213 1.32391 12.2088 1.03829C12.9963 0.745152 13.8062 0.504625 14.6012 0.354298C15.3962 0.211486 16.1762 0.158862 16.8887 0.226509Z" fill="#FCEA0D"/>
<path d="M7.3269 4.29248C6.92941 4.6232 6.25437 5.15688 5.68438 5.64544C5.1144 6.13401 4.63442 6.55492 4.48443 6.48727C4.36443 6.5925 4.40941 6.28432 4.08691 6.80295C4.40191 6.44216 5.03191 5.75065 5.6994 5.20196C6.02939 4.92385 6.3744 4.69085 6.65189 4.52549C6.94439 4.36013 7.1844 4.26993 7.3269 4.29248Z" fill="#FCEA0D"/>
<path d="M6.68116 5.59277C6.98115 5.63036 6.11116 6.20911 5.92367 6.4346L5.68362 6.62251L5.45117 6.81795C5.60867 6.57742 5.81117 6.3369 6.02117 6.11141C6.23866 5.88591 6.47866 5.70552 6.68116 5.59277Z" fill="#FCEA0D"/>
<path d="M1.77661 12.7789C1.71661 12.9593 1.67909 13.072 1.65659 13.1322C1.62659 13.1923 1.61163 13.1998 1.60413 13.1698C1.59663 13.1397 1.58911 13.0796 1.58911 13.0044C1.58911 12.9292 1.59662 12.8315 1.59662 12.7413C1.61912 12.373 1.63411 12.0348 1.40161 12.9292C1.47661 12.5835 1.54406 12.2377 1.63406 11.892C1.78407 11.8018 1.93415 11.7116 2.09165 11.6289C1.97165 12.0047 1.86661 12.3881 1.77661 12.7789Z" fill="#FCEA0D"/>
<path d="M1.07179 15.0188C1.09429 15.2443 1.10181 15.4622 1.08681 15.7253C1.08681 15.8531 1.07937 15.9959 1.06437 16.1538C1.04937 16.3116 1.03432 16.4845 1.01182 16.6724C0.966823 16.5296 0.929297 16.3868 0.891797 16.2439C0.869297 16.1011 0.906848 15.9433 0.944348 15.7479C0.989348 15.5525 1.04929 15.3195 1.07179 15.0188Z" fill="#FCEA0D"/>
<path d="M2.18126 13.207C2.12125 13.9135 1.96368 13.7782 1.82118 14.2142C1.80618 14.1465 1.82871 13.9962 1.85871 13.8308C1.89621 13.6655 1.95618 13.4851 2.01618 13.3273C2.07618 13.1769 2.12874 13.0567 2.16624 13.0191C2.20374 12.989 2.21126 13.0266 2.18126 13.207Z" fill="#FCEA0D"/>
<path d="M4.19931 19.8447C4.00431 19.5816 3.91435 19.1381 3.86185 18.6195C3.80185 18.1009 3.80184 17.5146 3.75684 16.9434C3.77184 17.229 3.81683 17.477 3.84683 17.7025C3.88433 17.928 3.92186 18.1309 3.96686 18.3414C4.04936 18.7623 4.11681 19.1983 4.19931 19.8447Z" fill="#FCEA0D"/>
<path d="M36.9058 21.0693C36.8908 21.152 36.8833 21.2272 36.8683 21.3099C36.8533 21.3925 36.8458 21.4752 36.8383 21.5579C36.8233 21.7233 36.8158 21.8886 36.8158 22.0465C36.8008 22.3621 36.8158 22.6628 36.8308 22.8883C36.8758 22.7831 36.9208 22.6778 36.9658 22.5726C36.9583 22.3246 36.9583 22.069 36.9433 21.821C36.9433 21.5654 36.9358 21.3174 36.9058 21.0693Z" fill="#FCEA0D"/>
<path d="M35.346 12.0427C34.7535 11.5466 35.4134 12.5689 35.5709 13.8542C35.7959 14.6584 36.066 15.4702 36.291 16.297C36.516 17.1238 36.7035 17.9731 36.7635 18.8075C36.8085 18.9728 36.8534 19.1457 36.8909 19.3111C36.9284 19.4839 36.9734 19.6493 37.0109 19.8222C37.0484 18.8075 36.9585 17.4019 36.6735 15.9738C36.381 14.5457 35.901 13.1176 35.346 12.0427Z" fill="#FCEA0D"/>
<path d="M31.2211 35.9364C31.8961 35.1246 32.6986 34.14 33.3961 33.0501C34.1011 31.9602 34.6785 30.7576 34.9485 29.6076C34.701 30.0886 34.5361 30.3141 34.3486 30.6073C34.1536 30.9004 33.9286 31.2537 33.4936 31.9602C33.6061 31.3063 33.921 30.7651 34.266 30.1938C34.446 29.9082 34.6261 29.6151 34.8061 29.3069C34.8961 29.1491 34.9785 28.9912 35.0535 28.8259C35.091 28.7432 35.136 28.6605 35.166 28.5778C35.2035 28.4952 35.2335 28.405 35.2635 28.3148C34.731 29.4197 35.1585 27.8638 35.421 26.8641C35.766 25.9471 36.096 24.7144 36.2835 23.3615C36.381 22.685 36.4335 21.986 36.4635 21.2794C36.4785 20.5729 36.471 19.8739 36.426 19.1974C36.4035 19.0546 36.366 18.8667 36.3435 18.6562C36.3285 18.551 36.3135 18.4383 36.306 18.318C36.291 18.1977 36.276 18.0775 36.2535 17.9497C36.2385 17.8219 36.2235 17.6941 36.201 17.5588C36.1785 17.4311 36.1559 17.2958 36.1334 17.1605C36.1109 17.0252 36.0885 16.8974 36.066 16.7621C36.036 16.6343 36.0135 16.5066 35.991 16.3788C35.781 15.3791 35.5035 14.6199 35.3685 14.9356C35.316 14.7402 35.2635 14.5673 35.2185 14.417C35.1735 14.2591 35.1435 14.1163 35.1135 13.9886C35.0535 13.7255 35.0235 13.5075 34.9935 13.3046C34.9336 12.8912 34.911 12.5154 34.7086 11.9366C34.2286 11.1624 33.831 10.4108 33.4485 9.65914C33.0735 8.9075 32.7061 8.16338 32.2786 7.42677C31.8586 6.69017 31.3786 5.96858 30.7711 5.29963C30.1711 4.63067 29.4361 4.02184 28.5436 3.5408C28.6336 3.52576 28.5961 3.44309 28.4836 3.31531C28.3711 3.19505 28.1762 3.02968 27.9512 2.8568C27.7187 2.69144 27.4562 2.51106 27.2087 2.35322C26.9537 2.20289 26.7212 2.06007 26.5487 1.96235C26.3612 1.85712 26.1362 1.73686 25.8962 1.60908C25.6487 1.48882 25.3862 1.35353 25.1012 1.23326C24.8162 1.12052 24.5237 0.985238 24.2312 0.895041C24.0812 0.842427 23.9387 0.797327 23.7962 0.752228C23.6537 0.70713 23.5113 0.669546 23.3763 0.631964C22.2813 0.346342 21.4863 0.323792 21.8688 0.654512C22.1313 0.789807 22.4688 0.917578 22.8588 1.02281C23.0538 1.08294 23.2563 1.14308 23.4738 1.20322C23.6913 1.26335 23.9087 1.33849 24.1337 1.39863C25.0337 1.68425 25.9787 2.09014 26.6462 2.67642C26.9387 2.91694 27.1037 3.08981 27.1787 3.18753C27.2537 3.28524 27.2387 3.3153 27.1637 3.30027C27.0887 3.27772 26.9461 3.21007 26.7586 3.11236C26.5711 3.02216 26.3387 2.89438 26.0837 2.75909C25.9562 2.69896 25.8212 2.63132 25.6862 2.56368C25.6187 2.53361 25.5512 2.49603 25.4837 2.46596L25.2737 2.37577C25.1312 2.31564 24.9962 2.2555 24.8613 2.20288C24.7263 2.15027 24.5912 2.10517 24.4712 2.06007C24.3437 2.01497 24.2313 1.98492 24.1263 1.95485C24.0213 1.92479 23.9238 1.90974 23.8413 1.89471C23.6763 1.87216 23.5713 1.87968 23.5488 1.92478C23.7588 1.96236 23.8863 2.08262 24.1113 2.24798C24.2238 2.33066 24.3587 2.42838 24.5387 2.51858C24.7262 2.61629 24.9438 2.72153 25.2513 2.82675C24.9363 2.70649 24.7112 2.62381 24.5612 2.58623C24.4037 2.54864 24.3213 2.54864 24.2913 2.56368C24.2313 2.60126 24.3662 2.72904 24.5387 2.87185C24.8762 3.18002 25.3412 3.54833 24.6813 3.39048C25.0038 3.57088 25.2662 3.75879 25.4987 3.90911C25.7237 4.06696 25.9187 4.20975 26.0762 4.33753C26.3987 4.6006 26.6162 4.78851 26.7737 4.9689C26.9387 5.1493 27.0662 5.30715 27.1862 5.51761C27.2537 5.61532 27.3137 5.72807 27.3887 5.85585C27.4562 5.98363 27.5387 6.12644 27.6286 6.29932C27.8011 6.42709 27.9437 6.53232 28.0637 6.62251C28.1912 6.71271 28.2961 6.77283 28.3861 6.82545C28.5661 6.93068 28.6937 6.96827 28.7987 6.97578C29.0087 6.99082 29.1137 6.88558 29.3612 6.99081C30.0961 7.59212 30.5761 8.29867 30.9811 8.99769C31.3861 9.70423 31.7161 10.4032 32.1511 11.0797C31.8511 10.8993 31.7611 10.9745 31.7986 11.2075C31.8361 11.4405 32.001 11.8314 32.2035 12.3124C32.301 12.5529 32.4211 12.8085 32.5336 13.0866C32.6536 13.3572 32.7585 13.6428 32.871 13.9209C33.081 14.4846 33.2761 15.0409 33.4036 15.4843C33.6961 16.6494 33.8536 16.8222 34.0486 17.0101C34.1461 17.1079 34.2361 17.2056 34.3261 17.4461C34.416 17.6866 34.506 18.0624 34.551 18.7164C34.4985 19.0471 34.431 19.0471 34.356 18.8967C34.3185 18.8216 34.2811 18.7088 34.2361 18.5735C34.1986 18.4382 34.146 18.2954 34.101 18.1526C34.011 17.8595 33.906 17.5889 33.831 17.4987C33.7485 17.4085 33.6886 17.4912 33.6736 17.9121L33.816 18.4758C33.861 18.6637 33.8985 18.8517 33.936 19.0471C34.251 19.7611 34.6185 20.3624 34.761 21.2945C34.7385 21.8432 34.6635 22.67 34.551 22.6775C34.551 22.1363 34.476 21.9409 34.371 22.0236C34.266 22.1062 34.1385 22.452 33.9885 22.9857C34.011 23.2487 34.011 23.4141 34.026 23.5419C34.041 23.6697 34.056 23.7749 34.086 23.9026C34.356 23.3991 34.4685 23.2788 34.491 23.4216C34.4985 23.4968 34.491 23.6321 34.461 23.8125C34.4385 24.0004 34.3786 24.2259 34.3261 24.4814C34.2661 24.737 34.191 25.0226 34.1085 25.3157C34.0185 25.6089 33.9436 25.9095 33.8536 26.2027C33.6886 26.7889 33.5236 27.3451 33.4861 27.751C33.2161 28.8785 32.9011 29.5474 32.6311 29.9909C32.4886 30.2089 32.3611 30.3742 32.2336 30.502C32.1061 30.6298 31.9786 30.735 31.8511 30.8327C31.7236 30.9305 31.596 31.0207 31.4536 31.1409C31.3186 31.2537 31.1686 31.3965 31.0036 31.5844C30.9211 31.6746 30.8311 31.7798 30.7411 31.9001C30.6436 32.0203 30.5461 32.1481 30.4336 32.306C30.2161 32.6066 29.9687 32.9824 29.6612 33.4409C29.9912 33.2681 30.0661 33.3357 29.9761 33.5687C29.9311 33.6815 29.8411 33.8393 29.7211 34.0122C29.6011 34.1926 29.4512 34.3955 29.2787 34.606C28.9412 35.0419 28.5061 35.5079 28.1011 35.9514C27.6962 36.3873 27.3137 36.7782 27.0812 37.0713C26.6087 37.4847 26.2487 37.7177 25.9037 37.8981C25.7312 37.9883 25.5662 38.0635 25.3937 38.1387C25.2212 38.2138 25.0412 38.289 24.8312 38.3717C24.7112 38.4994 24.4637 38.7099 24.2387 38.9053C24.0062 39.1008 23.7962 39.2811 23.7737 39.3789C24.2912 39.5442 25.2962 39.4089 26.5937 38.8828C27.8911 38.3642 29.4736 37.4396 31.0711 36.1017C31.1836 36.0266 31.2361 35.9439 31.2211 35.9364Z" fill="#FCEA0D"/>
<path d="M35.2857 55.0213C35.2332 54.8785 35.1731 54.7056 35.1131 54.5327C35.0606 54.3598 34.9931 54.1794 34.9481 54.0216C34.9256 53.9464 34.9107 53.8712 34.8957 53.8036C34.8807 53.7359 34.8656 53.6833 34.8656 53.6382C34.8581 53.548 34.8806 53.4954 34.9481 53.5105L35.0007 53.3301C35.1282 53.5781 35.4281 54.2395 35.5256 54.7281C35.6156 55.2242 35.5932 55.5023 35.2857 55.0213Z" fill="#9F9F9F"/>
<path d="M32.4729 55.7199L32.4579 55.8628C32.4804 55.7199 32.4278 55.532 32.3828 55.4118C32.4278 55.3892 32.4954 55.4268 32.5629 55.502C32.5929 55.5395 32.6229 55.5922 32.6529 55.6448C32.6754 55.7049 32.6903 55.7726 32.6978 55.8402C32.6528 55.8252 32.6078 55.75 32.5778 55.7049C32.5328 55.6523 32.4954 55.6373 32.4729 55.7199Z" fill="#9F9F9F"/>
<path d="M27.9057 49.0232C27.6432 49.2337 27.9358 49.9177 28.4383 50.5265L27.9508 50.8572C27.5908 50.3762 26.5333 49.9928 25.7533 49.5268C25.4008 49.4366 26.3833 50.1131 25.5583 49.7448C25.5133 49.6245 25.6408 49.5569 25.5058 49.4141C25.1308 49.2562 24.9733 49.3164 24.7333 49.2788C24.6133 49.2638 24.4708 49.2112 24.2683 49.0984C24.0658 48.9781 23.8109 48.7827 23.4659 48.452C23.3684 48.2415 23.2709 48.0461 23.1809 47.8281C23.0384 47.6853 22.8959 47.535 22.7609 47.3847C22.6934 47.3095 22.6258 47.2193 22.5508 47.1441C22.4833 47.0615 22.4084 46.9788 22.3484 46.8886C22.2209 46.7157 22.0933 46.5428 21.9808 46.3549C21.9208 46.2647 21.8609 46.1745 21.8084 46.0768L21.6509 45.7912C21.5984 45.6935 21.5533 45.5958 21.5083 45.4981C21.4633 45.4003 21.4184 45.3026 21.3734 45.1974C21.2984 44.9945 21.2084 44.7915 21.1484 44.5735L21.0509 44.2503L20.9759 43.9196L20.9384 43.7543L20.9159 43.5814C20.9009 43.4686 20.8859 43.3559 20.8709 43.2431L20.8559 42.8974C20.8559 42.8373 20.8484 42.7846 20.8484 42.7245L20.8559 42.5441C20.8634 42.4239 20.8634 42.3111 20.8784 42.1909L20.9309 41.8301C20.9459 41.7098 20.9759 41.5895 21.0059 41.4768C21.0359 41.3565 21.0659 41.2363 21.1109 41.1235C21.2009 40.8905 21.2834 40.6575 21.4109 40.4395C21.4709 40.3343 21.5234 40.2216 21.5984 40.1163C21.6659 40.0111 21.7409 39.9134 21.8159 39.8157C21.9584 39.6127 22.1459 39.4248 22.3334 39.2595C22.7159 38.9212 23.1508 38.6732 23.5933 38.5078C23.7208 38.3801 23.9384 38.2372 24.2159 38.132C24.4934 38.0193 24.8233 37.9291 25.1833 37.884C25.5358 37.8314 25.9108 37.8238 26.2633 37.8389C26.6158 37.8539 26.9608 37.899 27.2533 37.9366L27.2382 38.0944C27.5982 38.0568 28.0408 38.2372 28.4383 38.5153C28.8433 38.7934 29.2032 39.1768 29.5182 39.4774C29.5932 39.5902 29.6607 39.7105 29.7207 39.8232C29.7807 39.9435 29.8482 40.0562 29.8857 40.184C29.8782 40.2291 29.8557 40.2441 29.8182 40.2216C29.7807 40.199 29.7283 40.1539 29.6608 40.0938C29.5333 39.966 29.3533 39.7856 29.1733 39.6353C29.0833 39.5601 28.9858 39.4925 28.9033 39.4399C28.8133 39.3872 28.7382 39.3497 28.6782 39.3271C28.5507 39.2895 28.4982 39.3346 28.5657 39.5C28.8207 39.7631 29.0458 39.9961 29.2557 40.2291C29.3082 40.2892 29.3607 40.3493 29.4132 40.402C29.4582 40.4621 29.5108 40.5222 29.5558 40.5823C29.6458 40.7026 29.7507 40.8154 29.8257 40.9431C29.9007 41.0709 29.9907 41.1912 30.0507 41.3265C30.1107 41.4618 30.1707 41.5971 30.2157 41.7323C30.2532 41.8752 30.2832 42.018 30.2982 42.1683C30.3132 42.2435 30.3057 42.3186 30.3057 42.3938C30.3057 42.469 30.2982 42.5441 30.2832 42.6268C30.2907 42.7771 30.2832 42.8974 30.2832 43.0101C30.2832 43.1229 30.2832 43.2131 30.2832 43.2958C30.2757 43.4611 30.2832 43.5739 30.2982 43.6791C30.3132 43.7843 30.3207 43.8745 30.3282 43.9873C30.3282 44.0399 30.3357 44.1075 30.3282 44.1752C30.3282 44.2428 30.3207 44.3255 30.3057 44.4157C30.3507 44.5284 30.4107 44.4833 30.4707 44.4157C30.5382 44.3556 30.5907 44.2729 30.6732 44.333C30.5232 45.0321 30.2457 45.5206 29.9757 45.8814C29.8257 46.0543 29.6907 46.2121 29.5407 46.3324C29.3832 46.4526 29.2483 46.5654 29.0908 46.6631C28.9333 46.7533 28.7908 46.8435 28.6258 46.9262C28.5433 46.9637 28.4607 47.0013 28.3782 47.0464C28.2957 47.084 28.2133 47.1366 28.1233 47.1667C28.0333 47.2043 27.9358 47.2494 27.8458 47.2945C27.7483 47.3396 27.6507 47.3771 27.5383 47.4222C27.4333 47.4598 27.3208 47.52 27.2008 47.5575C27.0808 47.5951 26.9533 47.6478 26.8183 47.6928C26.8108 47.7379 26.6983 47.8056 26.5483 47.8958C26.4733 47.9409 26.3983 47.986 26.3233 48.0311C26.2483 48.0687 26.1733 48.1138 26.1058 48.1513C25.9858 48.2265 25.9108 48.3017 25.9858 48.3543C26.0233 48.3768 26.0983 48.3994 26.2258 48.4069C26.2858 48.4069 26.3683 48.4219 26.4583 48.4144C26.5483 48.4069 26.6533 48.3994 26.7733 48.3768C26.8408 48.3468 26.9158 48.3167 26.9833 48.2791L27.1858 48.1664C27.3208 48.0912 27.4483 48.0161 27.5758 47.9259C27.7858 47.8883 28.0033 47.8582 28.2133 47.7905C27.9058 47.9935 27.4407 48.1964 27.0583 48.3317C26.9683 48.3693 26.8783 48.3919 26.7958 48.4219C26.7208 48.452 26.6533 48.4745 26.6008 48.4971C26.4958 48.5497 26.4508 48.5873 26.4958 48.6249C26.3683 48.5798 26.1958 48.5497 26.0008 48.5497C25.9558 48.5497 25.9033 48.5497 25.8508 48.5497C25.7983 48.5497 25.7458 48.5497 25.6933 48.5497C25.5883 48.5497 25.4758 48.5497 25.3633 48.5572C25.2508 48.5647 25.1308 48.5572 25.0183 48.5572C24.8983 48.5572 24.7783 48.5647 24.6658 48.5572C24.4333 48.5497 24.2008 48.5422 23.9908 48.5121C23.8858 48.4971 23.7883 48.4896 23.6983 48.4745C23.6083 48.4595 23.5259 48.4445 23.4509 48.4219C23.3084 48.3919 23.2034 48.3543 23.1584 48.3242C23.0684 48.2641 23.2259 48.219 23.7284 48.1438C24.2534 48.3618 24.6208 48.437 24.9433 48.4445C25.1008 48.4445 25.2508 48.4369 25.4083 48.3994C25.5583 48.3618 25.7233 48.3092 25.8958 48.234C25.2583 48.2791 24.6508 48.1964 24.0958 48.0386C23.5409 47.8808 23.0233 47.6478 22.5734 47.3396C22.1234 47.0389 21.7184 46.6932 21.3734 46.3023C21.0359 45.9115 20.7509 45.4755 20.5259 45.0395C20.3684 44.9043 20.2034 44.7615 20.0459 44.6036C20.1059 44.5735 20.1359 44.4833 20.1509 44.3631C20.1659 44.2428 20.1584 44.085 20.1659 43.8971C20.1659 43.8069 20.1659 43.7092 20.1584 43.6039C20.1584 43.5062 20.1584 43.401 20.1584 43.2882C20.1584 43.2356 20.1584 43.183 20.1584 43.1229C20.1584 43.0703 20.1659 43.0101 20.1659 42.9575C20.1659 42.8448 20.1734 42.732 20.1734 42.6268C20.1584 42.5291 20.1509 42.4314 20.1509 42.3337C20.1434 42.236 20.1434 42.1382 20.1434 42.0631C20.1434 41.9052 20.1209 41.8075 20.0534 41.8601C20.0384 41.8376 20.016 41.8676 19.9935 41.9428C19.971 42.018 19.9409 42.1307 19.9334 42.2735C19.9184 42.4163 19.896 42.5742 19.896 42.7471C19.896 42.8297 19.896 42.9199 19.896 43.0101C19.896 43.0552 19.896 43.1003 19.896 43.1379C19.896 43.183 19.9035 43.2206 19.9035 43.2657C19.911 43.4311 19.9109 43.5889 19.9184 43.7242C19.9259 43.852 19.926 43.9572 19.9035 44.0098C19.8735 44.1226 19.7609 44.0624 19.5584 43.6415C19.4759 43.0552 19.4984 42.469 19.5959 41.9128C19.6934 41.3565 19.8585 40.8229 20.0985 40.3569C20.331 39.8908 20.6084 39.4774 20.9234 39.1542C21.0659 38.9889 21.2384 38.8461 21.3884 38.7183C21.5459 38.5905 21.7109 38.4928 21.8534 38.4026C21.7034 38.5905 21.5459 38.7559 21.4259 38.9363C21.3659 39.0265 21.2984 39.1091 21.2459 39.1993C21.1934 39.2895 21.1409 39.3797 21.0959 39.4699C20.9159 39.8458 20.7809 40.2591 20.8034 40.7703C20.7809 40.868 20.7659 40.9657 20.7509 41.0709C20.7359 41.1686 20.7134 41.2739 20.7059 41.3716C20.6909 41.5745 20.661 41.7775 20.661 41.9804C20.646 42.1833 20.6609 42.3863 20.6684 42.5892C20.6759 42.6869 20.6909 42.7922 20.6984 42.8899L20.7134 43.0402C20.7209 43.0928 20.7284 43.1379 20.7434 43.1905C20.8034 43.5889 20.9309 43.9798 21.0809 44.3556L21.2084 44.6337C21.2534 44.7239 21.3059 44.8066 21.3584 44.8968L21.4334 45.0245L21.5234 45.1448C21.5834 45.2275 21.6359 45.3102 21.7034 45.3853C21.9658 45.6935 22.2584 45.9716 22.5884 46.1971C22.6709 46.2497 22.7533 46.3023 22.8433 46.3549L22.9709 46.4301L23.1058 46.4977C23.1958 46.5428 23.2784 46.5879 23.3684 46.6255L23.6459 46.7307C24.0134 46.851 24.3959 46.9412 24.7709 46.9487C24.9583 46.9637 25.1458 46.9487 25.3258 46.9412C25.4158 46.9337 25.5058 46.9111 25.5958 46.9036C25.6858 46.8886 25.7758 46.8736 25.8583 46.8435C25.8883 46.8811 25.9633 46.9111 26.0458 46.9337C26.0908 46.9412 26.1358 46.9562 26.1883 46.9638C26.2408 46.9713 26.2858 46.9713 26.3308 46.9788C26.5183 47.0013 26.6833 47.0239 26.5858 47.1441C26.6683 47.1592 26.7658 47.1291 26.8858 47.099C26.9458 47.084 27.0058 47.0615 27.0733 47.0464C27.1333 47.0239 27.2008 46.9938 27.2608 46.9638C27.3208 46.9412 27.3883 46.9111 27.4483 46.8886C27.5083 46.866 27.5682 46.836 27.6207 46.8209C27.7332 46.7834 27.8308 46.7608 27.9208 46.7834C28.4232 46.3624 28.8357 45.8288 29.1357 45.2425C29.4357 44.6562 29.6307 44.0098 29.6982 43.3559C29.7657 42.702 29.6982 42.033 29.4807 41.4242C29.4132 41.2738 29.3608 41.131 29.2858 40.9882C29.2033 40.8529 29.1282 40.7101 29.0457 40.5823C28.8657 40.3268 28.6633 40.1013 28.4383 39.9134C28.4908 40.1088 28.4233 40.1539 28.3108 40.1239C28.2508 40.1088 28.1832 40.0788 28.1007 40.0337C28.0182 39.9961 27.9207 39.9359 27.8157 39.8908C27.6057 39.7856 27.3583 39.6804 27.1258 39.6127C26.8933 39.5451 26.6683 39.515 26.5183 39.5376C26.2783 39.3873 25.9033 39.3121 25.5058 39.3271C25.1158 39.3422 24.7108 39.4474 24.3884 39.5752C24.3659 39.6202 24.2608 39.6954 24.1783 39.7706C24.1033 39.8457 24.0509 39.9134 24.1259 39.951C24.3284 39.8157 24.4858 39.7706 24.6508 39.748C24.8158 39.7255 24.9883 39.718 25.2283 39.7104C25.1533 39.8908 24.9133 39.9209 24.6058 39.9735C24.4483 40.0036 24.2834 40.0337 24.1109 40.0938C23.9384 40.1539 23.7734 40.2366 23.6309 40.3418C23.6609 40.2817 23.6909 40.214 23.7284 40.1539C23.7659 40.0938 23.8034 40.0336 23.8409 39.966C23.5709 40.1314 23.2933 40.3118 23.0383 40.5448C22.7908 40.7853 22.5358 41.0559 22.3633 41.3791C22.2658 41.5369 22.1984 41.7098 22.1309 41.8752C22.0934 41.9578 22.0784 42.048 22.0559 42.1307C22.0334 42.2209 22.0109 42.3036 22.0034 42.3938C21.9884 42.5667 21.9658 42.7395 21.9883 42.9049C21.9958 42.9876 22.0109 43.0703 22.0184 43.1454C22.0334 43.2206 22.0634 43.3033 22.0858 43.3709C22.1533 43.0177 22.2809 42.6869 22.4234 42.3863C22.4234 42.7395 22.4158 43.1003 22.4458 43.4762C22.4458 43.5663 22.4684 43.6641 22.4759 43.7543C22.4834 43.8445 22.4984 43.9422 22.5134 44.0324C22.5284 44.1226 22.5509 44.2203 22.5659 44.3105C22.5884 44.4007 22.6108 44.4909 22.6333 44.5811C22.8283 45.3026 23.2108 45.934 23.6833 46.2121C23.6233 46.1144 23.5558 46.0092 23.4883 45.8964C23.4208 45.7837 23.3459 45.6709 23.2784 45.5582L23.1734 45.3853C23.1434 45.3252 23.1134 45.265 23.0834 45.2049C23.0534 45.1448 23.0234 45.0847 22.9934 45.0245C22.9634 44.9644 22.9408 44.9043 22.9183 44.8516C22.8208 44.6261 22.7759 44.4082 22.7684 44.2579C22.7684 44.1 22.8133 44.0023 22.9258 43.9798C22.9858 43.9798 23.0459 44.0399 23.0984 44.1301C23.1584 44.2278 23.2184 44.3556 23.2709 44.4984C23.3009 44.566 23.3384 44.6412 23.3609 44.7163L23.4058 44.8291C23.4208 44.8667 23.4359 44.9043 23.4509 44.9419C23.4809 45.017 23.5109 45.0846 23.5334 45.1598C23.5634 45.2275 23.5858 45.2876 23.6008 45.3477C23.7583 45.8438 24.0584 46.2422 24.4109 46.5804C24.7634 46.9111 25.1608 47.1667 25.5583 47.3997C26.3833 47.8958 27.1933 48.2716 27.9057 49.0232Z" fill="#9F9F9F"/>
<path d="M25.7984 46.8213C25.7159 46.7612 25.6409 46.701 25.5659 46.6559C25.4984 46.6033 25.4384 46.5657 25.3784 46.5282C25.2584 46.453 25.1684 46.4004 25.0784 46.3628C24.9059 46.2876 24.7859 46.2651 24.6584 46.2501C24.5309 46.235 24.4184 46.205 24.2609 46.1072C24.1109 46.0095 23.9309 45.8366 23.7284 45.4909C23.8784 45.5134 23.8934 45.3331 23.8559 45.1C23.8334 44.9873 23.8109 44.8445 23.7734 44.7167C23.7434 44.5814 23.7059 44.4536 23.6684 44.3334C23.5259 44.138 23.4434 43.8824 23.4134 43.6419C23.4059 43.5817 23.3984 43.5216 23.3909 43.4615C23.3909 43.4014 23.3834 43.3412 23.3834 43.2886C23.3834 43.2285 23.376 43.1759 23.376 43.1232C23.376 43.0706 23.376 43.018 23.376 42.9729C23.3985 42.8376 23.4885 42.7925 23.5635 42.8301C23.601 42.8527 23.6384 42.8977 23.6684 42.9579C23.6984 43.0255 23.7134 43.1082 23.7284 43.236C23.7059 43.3111 23.6834 43.3938 23.6759 43.4765C23.6684 43.5592 23.6684 43.6419 23.6684 43.7245C23.6759 43.8072 23.6909 43.8974 23.7059 43.9801C23.7209 44.0703 23.7509 44.153 23.7734 44.2357C23.8859 44.5814 24.081 44.9046 24.306 45.1902C24.3659 45.2579 24.4184 45.333 24.4784 45.4007C24.5384 45.4683 24.5984 45.5285 24.6584 45.5961C24.7859 45.7239 24.9209 45.8667 25.0484 45.9945C25.3334 46.2501 25.5809 46.5206 25.7984 46.8213Z" fill="#9F9F9F"/>
<path d="M22.9936 42.7843C22.9861 42.5362 23.0761 42.1228 23.2636 41.8447C23.3086 41.7771 23.361 41.7094 23.406 41.6568C23.4585 41.6042 23.5111 41.5667 23.5636 41.5291C23.6611 41.4614 23.7586 41.4539 23.8261 41.4915C23.8786 41.4614 23.9536 41.6268 24.0286 41.4238C23.9986 41.4539 23.9611 41.484 23.9161 41.5291C23.8936 41.5516 23.8711 41.5742 23.8486 41.5967C23.8261 41.6268 23.811 41.6493 23.7885 41.6794C23.7435 41.7395 23.6911 41.7922 23.6536 41.8673C23.6311 41.9049 23.6085 41.9349 23.586 41.9725C23.571 41.9876 23.5636 42.0101 23.5486 42.0252L23.5185 42.0853C23.4811 42.1604 23.4285 42.2356 23.391 42.3108C23.3535 42.3859 23.3161 42.4536 23.2711 42.5212C23.1886 42.6415 23.1061 42.7467 22.9936 42.7843Z" fill="#9F9F9F"/>
<path d="M22.521 42.0175C22.3935 42.0476 22.416 41.9198 22.4685 41.7695C22.4835 41.7319 22.4985 41.6943 22.521 41.6567C22.5435 41.6191 22.566 41.5816 22.5885 41.5515C22.6335 41.4838 22.6635 41.4237 22.6785 41.3861C22.716 41.341 22.761 41.2959 22.7985 41.2508L22.926 41.123C22.9035 41.1982 22.8735 41.2809 22.836 41.3561C22.806 41.4387 22.7835 41.5214 22.746 41.5966C22.731 41.6342 22.7085 41.6717 22.6935 41.7093C22.6785 41.7469 22.6635 41.7845 22.6485 41.8221C22.611 41.8972 22.5735 41.9574 22.521 42.0175Z" fill="#9F9F9F"/>
<path d="M26.1809 40.3042C26.5109 40.4094 26.3159 40.447 26.1584 40.4921C26.0759 40.5147 26.0009 40.5372 25.9934 40.5673C25.9859 40.5898 26.0459 40.6124 26.2259 40.6575C26.0834 40.6424 25.9409 40.6424 25.8059 40.6499C25.7609 40.5297 25.7009 40.4094 25.6409 40.2892C25.8209 40.2741 26.0009 40.2741 26.1809 40.3042Z" fill="#9F9F9F"/>
<path d="M27.0205 40.9053C27.208 40.9128 27.388 40.988 27.553 41.236C27.4855 41.236 27.418 41.2285 27.3505 41.236C27.298 41.2285 27.268 41.1684 27.223 41.1082C27.1855 41.0331 27.1255 40.9579 27.0205 40.9053Z" fill="#9F9F9F"/>
<path d="M26.4288 39.8387C26.6238 39.8387 26.6989 39.8838 26.7514 39.9439C26.8039 40.004 26.8263 40.0792 26.9238 40.1544C26.8413 40.1769 26.6388 40.0792 26.4888 39.989C26.3313 39.9064 26.2338 39.8237 26.4288 39.8387Z" fill="#9F9F9F"/>
<path d="M31.0852 41.89C30.9802 41.7622 30.9128 41.5968 30.8228 41.4014C30.7328 41.206 30.6578 40.988 30.5453 40.7625C30.4928 40.6498 30.4403 40.522 30.3728 40.4092C30.3053 40.289 30.2303 40.1687 30.1553 40.056C30.0053 39.8155 29.8103 39.59 29.5928 39.3945C29.7053 39.4847 29.7953 39.5824 29.8928 39.6726C29.9828 39.7628 30.0652 39.853 30.1402 39.9432C30.2827 40.1236 30.4253 40.289 30.5453 40.4694C30.7703 40.8302 30.9877 41.2511 31.0852 41.89Z" fill="#9F9F9F"/>
<path d="M35.1727 61.9512C34.9852 62.2819 34.9551 62.7103 34.9701 62.9659L35.1126 62.8156L35.1727 61.9512Z" fill="#9F9F9F"/>
<path d="M35.9307 56.2167C35.7282 56.0063 35.6982 56.0965 35.6982 56.352C35.6907 56.4798 35.6906 56.6376 35.6831 56.8255C35.6681 57.0135 35.6381 57.2164 35.5781 57.4193C35.5481 57.9605 35.5557 58.5017 35.5482 59.0429C35.5407 59.584 35.5106 60.1177 35.3906 60.6138C35.4131 60.8318 35.4207 61.0422 35.4357 61.2602C35.6307 60.689 35.8632 59.8622 35.9907 58.9527C36.1257 58.0432 36.1257 57.036 35.9307 56.2167Z" fill="#9F9F9F"/>
<path d="M34.9183 69.6411C34.7008 69.2728 34.5584 68.7467 34.4834 68.2506C34.4684 68.1905 34.4683 68.1228 34.4533 68.0627C34.4458 67.995 34.4384 67.9199 34.4309 67.8522C34.4084 67.7094 34.3934 67.5666 34.3709 67.4238C34.3484 67.281 34.3259 67.1306 34.2959 66.9878C34.2734 66.8375 34.2284 66.6947 34.1909 66.5519C34.1609 66.6797 34.1384 66.7774 34.1159 66.8676C34.0934 66.9578 34.0634 67.0329 34.0484 67.1156C34.0259 67.1983 34.0034 67.296 33.9884 67.4163C33.9809 67.4764 33.9734 67.5441 33.9659 67.6267C33.9659 67.6643 33.9584 67.7094 33.9584 67.7545C33.9584 67.7996 33.9584 67.8447 33.9584 67.8973C33.8234 67.762 33.7709 67.6042 33.7484 67.4463C33.7334 67.2885 33.7484 67.1156 33.7934 66.9503C33.8759 66.612 34.0334 66.2663 34.0784 65.8829C33.9959 66.1911 33.9284 66.131 33.8909 65.928C33.8534 65.7251 33.8534 65.3643 33.8909 65.0862C34.0484 64.5751 34.2284 63.8911 34.4309 63.1395C34.6259 62.3878 34.8433 61.5685 35.0158 60.7643C35.0158 60.4035 35.1884 59.6744 35.2559 59.043C35.3309 58.4117 35.3009 57.893 35.0759 58.0584C35.0834 57.5548 35.1509 57.2616 35.2259 56.9986C35.2709 56.8633 35.3009 56.7355 35.3384 56.5927C35.3759 56.4499 35.3908 56.2845 35.3833 56.0816C35.1658 55.5028 35.0159 54.9616 34.8584 54.4054C34.7009 53.8567 34.5209 53.3005 34.2809 52.7593C34.0409 52.2257 33.7334 51.7071 33.3284 51.2636C32.9234 50.8201 32.4284 50.4593 31.8284 50.2263C31.9634 50.1662 31.7759 49.9557 31.4985 49.7453C31.221 49.5273 30.861 49.3169 30.6585 49.1891C30.441 49.0538 30.1485 48.8884 29.8335 48.7231C29.526 48.5577 29.2035 48.3999 28.9185 48.2796C28.3485 48.0391 27.936 47.9413 28.026 48.2645C28.221 48.5577 28.671 48.7381 29.1735 48.9485C29.6685 49.1515 30.231 49.3995 30.591 49.8129C30.906 50.1587 30.951 50.2864 30.8535 50.2789C30.7485 50.2714 30.4935 50.1361 30.186 49.9783C29.8785 49.8204 29.526 49.6476 29.2335 49.5348C28.941 49.4221 28.716 49.377 28.656 49.4672C28.911 49.5123 28.851 49.9182 29.586 50.1662C28.8285 49.858 28.9185 50.0535 29.0835 50.294C29.256 50.5345 29.496 50.8351 29.076 50.7525C29.8035 51.3087 30.096 51.5943 30.2835 51.8348C30.4635 52.0829 30.5384 52.3008 30.6959 52.7819C31.1084 53.0525 31.3109 53.0826 31.4684 53.045C31.6259 53.0074 31.731 52.9022 31.911 52.9247C32.3835 53.2329 32.6459 53.6764 32.8184 54.1048C32.9909 54.5407 33.0809 54.9541 33.2759 55.3675C33.0584 55.2623 32.9534 55.3149 32.9159 55.4502C32.9084 55.4878 32.9009 55.5254 32.9009 55.5705C32.9009 55.6156 32.8934 55.6682 32.9009 55.7208C32.9084 55.826 32.9235 55.9538 32.9385 56.0891C32.946 56.1567 32.9609 56.2319 32.9684 56.2996C32.9759 56.3747 32.9834 56.4499 32.9909 56.5326C32.9984 56.5701 32.9984 56.6077 33.0059 56.6528C33.0059 56.6904 33.0134 56.7355 33.0134 56.7731L33.036 57.0211C33.0585 57.3518 33.0734 57.6826 33.0509 57.9532C32.9909 58.6447 33.1034 58.7875 33.2384 58.9378C33.3059 59.013 33.3659 59.0956 33.3884 59.2535C33.4184 59.4113 33.4034 59.6443 33.3135 60.0352C33.066 60.3885 33.0584 59.9675 33.0059 59.5917C32.9609 59.2159 32.8934 58.8852 32.646 59.3437C32.646 59.5767 32.6535 59.8172 32.646 60.0577C32.8109 60.5613 33.0509 61.0048 33.0884 61.6061C33.0059 61.9368 32.8784 62.4404 32.7734 62.4254C32.8409 61.7414 32.5409 61.8767 32.2109 62.5306C32.2259 62.8839 32.2334 62.9741 32.2934 63.1545C32.8259 62.5607 32.7434 62.9215 32.5485 63.5679C32.451 63.8911 32.3385 64.2895 32.2635 64.6803C32.196 65.0712 32.1659 65.447 32.2409 65.71C32.2634 66.0859 32.286 66.3865 32.286 66.6346C32.286 66.7623 32.286 66.8676 32.2785 66.9728C32.271 67.0705 32.2709 67.1607 32.2559 67.2434C32.2259 67.4088 32.1959 67.5365 32.1509 67.6568C32.1059 67.7771 32.046 67.8748 31.9935 67.98C31.8885 68.1905 31.7684 68.3934 31.7459 68.7767C31.7309 69.145 31.8134 69.6787 32.2109 70.3928C32.2559 70.0996 32.3609 70.0771 32.4809 70.1973C32.6009 70.3251 32.7584 70.5957 32.9684 70.9039C33.1709 71.2196 33.4334 71.5653 33.7109 71.8585C33.9884 72.1516 34.2959 72.3771 34.5284 72.4823C34.8584 72.7454 35.0908 72.9258 35.3083 73.1062C35.5183 73.2866 35.7134 73.4594 36.0134 73.6398C36.1484 73.6398 36.3958 73.6624 36.6283 73.6474C36.8608 73.6398 37.0633 73.5947 37.1158 73.5346C36.8533 73.1137 36.2833 72.6702 35.8558 72.0313C35.4208 71.3999 35.0984 70.5882 34.9784 69.6937C34.9634 69.6562 34.9333 69.6336 34.9183 69.6411Z" fill="#9F9F9F"/>
</g>
</svg>
