<svg width="18" height="18" viewBox="0 0 18 18" fill="none" xmlns="http://www.w3.org/2000/svg">
<path d="M9.65854 6.85714C11.3558 6.85714 12.7317 5.514 12.7317 3.85714C12.7317 2.20029 11.3558 0.857143 9.65854 0.857143C7.96127 0.857143 6.58537 2.20029 6.58537 3.85714C6.58537 5.514 7.96127 6.85714 9.65854 6.85714Z" fill="#005E90"/>
<path fill-rule="evenodd" clip-rule="evenodd" d="M9.65854 1.71429C8.4462 1.71429 7.46341 2.67368 7.46341 3.85714C7.46341 5.04061 8.4462 6 9.65854 6C10.8709 6 11.8537 5.04061 11.8537 3.85714C11.8537 2.67368 10.8709 1.71429 9.65854 1.71429ZM5.70732 3.85714C5.70732 1.7269 7.47634 0 9.65854 0C11.8407 0 13.6098 1.7269 13.6098 3.85714C13.6098 5.98738 11.8407 7.71429 9.65854 7.71429C7.47634 7.71429 5.70732 5.98738 5.70732 3.85714Z" fill="#005E90"/>
<path fill-rule="evenodd" clip-rule="evenodd" d="M8.78049 10.7143C4.80098 10.7143 1.7561 13.4925 1.7561 16.7143C1.7561 17.1877 1.36298 17.5714 0.878049 17.5714C0.393116 17.5714 0 17.1877 0 16.7143C0 12.3615 4.03132 9 8.78049 9C9.26542 9 9.65854 9.38376 9.65854 9.85714C9.65854 10.3305 9.26542 10.7143 8.78049 10.7143Z" fill="#005E90"/>
<path d="M12.7317 17.1429L17.122 12.8571L15.3659 11.1429L10.9756 15.4286V17.1429H12.7317Z" fill="#005E90"/>
<path fill-rule="evenodd" clip-rule="evenodd" d="M14.745 10.5368C15.0879 10.202 15.6438 10.202 15.9867 10.5368L17.7428 12.2511C18.0857 12.5858 18.0857 13.1285 17.7428 13.4632L13.3526 17.7489C13.1879 17.9097 12.9646 18 12.7317 18H10.9756C10.4907 18 10.0976 17.6162 10.0976 17.1429V15.4286C10.0976 15.2012 10.1901 14.9832 10.3547 14.8225L14.745 10.5368ZM11.8537 15.7836V16.2857H12.368L15.8802 12.8571L15.3659 12.355L11.8537 15.7836Z" fill="#005E90"/>
</svg>
