<svg width="91" height="90" viewBox="0 0 91 90" fill="none" xmlns="http://www.w3.org/2000/svg">
<path d="M45.2997 90C70.1525 90 90.2998 69.8528 90.2998 45C90.2998 20.1472 70.1525 0 45.2997 0C20.4469 0 0.299805 20.1472 0.299805 45C0.299805 69.8528 20.4469 90 45.2997 90Z" fill="#005E90"/>
<path d="M45.2996 83.9666C66.8203 83.9666 84.2663 66.5206 84.2663 44.9999C84.2663 23.4792 66.8203 6.0332 45.2996 6.0332C23.7789 6.0332 6.33301 23.4792 6.33301 44.9999C6.33301 66.5206 23.7789 83.9666 45.2996 83.9666Z" stroke="white" stroke-width="1.1595" stroke-miterlimit="10"/>
<path d="M24.2998 55.2889C24.5688 53.867 25.1549 52.6085 26.2501 51.6286C28.0658 49.9953 30.1794 49.515 32.4851 50.274C34.7716 51.0233 36.1935 52.6565 36.6546 55.0103C37.3751 58.613 34.8677 61.9851 31.2362 62.4271C28.1715 62.8018 25.1933 60.7554 24.4439 57.7579C24.3959 57.5754 24.3478 57.3833 24.2998 57.2008C24.2998 56.5571 24.2998 55.923 24.2998 55.2889ZM26.8265 56.1728C26.8169 58.1903 28.479 59.8619 30.5061 59.8908C32.4948 59.9196 34.2049 58.2191 34.2145 56.2016C34.2241 54.2033 32.5235 52.5028 30.5156 52.5028C28.5173 52.5125 26.8265 54.1841 26.8265 56.1728Z" fill="#F9F9F9"/>
<path d="M43.8696 66.2319C42.7263 66.0685 41.5735 65.9148 40.4591 65.5882C39.4215 65.2808 38.4223 64.9061 37.4424 64.4546C37.1638 64.3201 37.0678 64.1951 37.2311 63.8877C37.5193 63.3689 37.7787 62.831 38.0381 62.3026C38.1533 62.0528 38.2783 61.9759 38.5473 62.1104C40.6512 63.148 42.8896 63.6667 45.2146 63.7052C47.6932 63.7532 50.0758 63.2632 52.3239 62.2065C52.8427 61.9663 52.8426 61.9567 53.0924 62.4563C53.3326 62.9366 53.5632 63.4266 53.8226 63.8973C53.9667 64.1567 53.9379 64.3104 53.6497 64.4449C51.9012 65.2712 50.0854 65.8476 48.1639 66.107C47.8373 66.155 47.5107 66.2031 47.1841 66.2511C46.0793 66.2319 44.9744 66.2319 43.8696 66.2319Z" fill="#F9F9F9"/>
<path d="M45.5316 36.248C42.0442 36.248 39.2773 33.4811 39.2773 29.9841C39.2773 26.5159 42.0443 23.749 45.5125 23.749C49.0095 23.749 51.7667 26.5159 51.7667 30.0033C51.7763 33.4811 48.9998 36.248 45.5316 36.248ZM45.4644 33.6924C47.4243 33.6732 49.1536 32.261 49.2016 30.0513C49.2497 28.1203 47.799 26.391 45.5989 26.3237C43.6775 26.2661 41.9001 27.6976 41.8425 29.936C41.7945 31.8671 43.2452 33.5771 45.4644 33.6924Z" fill="#F9F9F9"/>
<path d="M54.2832 56.2027C54.2832 52.7153 57.05 49.958 60.5566 49.958C64.0248 49.958 66.782 52.7249 66.782 56.2123C66.782 59.6997 64.0152 62.457 60.5086 62.457C57.0404 62.4473 54.2832 59.6805 54.2832 56.2027ZM56.8386 56.1931C56.829 58.1913 58.5391 59.9015 60.5374 59.8919C62.5549 59.8919 64.2458 58.1818 64.2266 56.1835C64.2074 54.166 62.5645 52.5231 60.5566 52.5039C58.5583 52.4847 56.8386 54.1852 56.8386 56.1931Z" fill="#F9F9F9"/>
<path d="M62.5171 46.6045C62.4018 46.6045 62.3634 46.6045 62.3153 46.6045C61.6524 46.6045 61.6428 46.7006 61.5563 45.9416C61.2009 42.4831 59.8751 39.4472 57.5886 36.8244C56.7239 35.8253 55.7343 34.9702 54.6487 34.2209C54.3893 34.0383 54.3318 33.8942 54.5239 33.6252C54.8506 33.1641 55.1676 32.6934 55.4558 32.2034C55.648 31.8864 55.8112 31.8768 56.109 32.0881C59.9999 34.8454 62.5459 38.5153 63.6891 43.146C63.9293 44.0971 64.0446 45.0674 64.1598 46.0473C64.1983 46.374 64.1023 46.5373 63.7468 46.5373C63.3337 46.5277 62.8917 46.5853 62.5171 46.6045Z" fill="#F9F9F9"/>
<path d="M28.6992 46.6046C28.1804 46.5758 27.7192 46.5278 27.2676 46.5278C26.9314 46.5278 26.8354 46.3837 26.8642 46.0666C27.0467 44.0779 27.4886 42.1469 28.2668 40.2927C29.6791 36.9302 31.8983 34.221 34.8765 32.1266C35.3185 31.8192 35.3185 31.8192 35.6067 32.2515C35.9045 32.703 36.1928 33.1546 36.5002 33.5965C36.702 33.8751 36.6635 34.0288 36.3753 34.221C34.0312 35.8446 32.2441 37.9486 30.9952 40.5137C30.1306 42.3103 29.6022 44.2028 29.4581 46.1915C29.4389 46.5182 29.3044 46.6335 28.997 46.6046C28.8817 46.595 28.7568 46.6046 28.6992 46.6046Z" fill="#F9F9F9"/>
</svg>
