<svg width="91" height="90" viewBox="0 0 91 90" fill="none" xmlns="http://www.w3.org/2000/svg">
<path d="M45.2998 90C70.1526 90 90.2998 69.8528 90.2998 45C90.2998 20.1472 70.1526 0 45.2998 0C20.447 0 0.299805 20.1472 0.299805 45C0.299805 69.8528 20.447 90 45.2998 90Z" fill="#005E90"/>
<path d="M45.2999 83.9668C66.8207 83.9668 84.2666 66.5209 84.2666 45.0001C84.2666 23.4794 66.8207 6.03345 45.2999 6.03345C23.7792 6.03345 6.33325 23.4794 6.33325 45.0001C6.33325 66.5209 23.7792 83.9668 45.2999 83.9668Z" stroke="white" stroke-width="1.1595" stroke-miterlimit="10"/>
<path d="M38.2386 34.3842C38.2386 35.3353 37.8448 35.9501 37.1531 36.3825C36.1828 36.9877 35.2124 37.5834 34.2325 38.1598C33.925 38.3328 33.8674 38.5153 33.9539 38.8419C34.6456 41.5223 35.8368 43.9817 37.2203 46.3547C38.5172 48.574 39.9872 50.6684 41.8125 52.5033C42.1007 52.7915 42.3121 52.8011 42.6484 52.609C43.5802 52.071 44.5314 51.5714 45.4632 51.0526C46.7122 50.3609 47.9515 50.6875 48.6721 51.9269C49.652 53.5985 50.6223 55.2798 51.583 56.9706C52.3228 58.2676 51.9 59.5934 50.555 60.2371C48.6912 61.1306 46.8274 62.0048 44.9637 62.8983C44.6658 63.0424 44.4065 63.052 44.1087 62.9463C42.3025 62.3507 40.7365 61.3323 39.2955 60.1122C36.0386 57.3742 33.5023 54.0213 31.3215 50.3994C29.083 46.691 27.3153 42.7905 26.3354 38.5537C25.9607 36.9493 25.7494 35.3257 25.807 33.6732C25.8358 32.9527 25.9319 32.2418 26.0952 31.5405C26.1529 31.3195 26.2489 31.1466 26.4411 31.0217C28.2088 29.8112 29.9669 28.5814 31.7442 27.3805C32.8395 26.6408 34.2132 26.9386 34.8857 28.0723C35.9233 29.8208 36.9321 31.5885 37.9504 33.3562C38.1618 33.7117 38.2675 34.0864 38.2386 34.3842Z" fill="#F9F9F9"/>
<path d="M64.7736 43.5686C64.7736 46.47 64.7736 49.381 64.7736 52.2823C64.7736 53.5312 64.1395 54.1749 62.9002 54.1749C59.48 54.1749 56.0599 54.1653 52.6397 54.1845C52.2458 54.1845 52.0248 54.05 51.8423 53.7138C51.3331 52.7819 50.7951 51.8788 50.2571 50.9565C49.0946 48.9582 46.7985 48.2857 44.733 49.3425C44.0893 49.6691 43.4648 50.015 42.8404 50.3801C42.5906 50.5242 42.4369 50.4858 42.2544 50.2744C39.574 47.1136 37.5276 43.5974 36.1346 39.6969C36.0193 39.3895 36.0673 39.2165 36.3652 39.0436C37.1241 38.5921 37.9023 38.1789 38.6036 37.6409C38.8149 37.4776 38.9495 37.5929 39.1128 37.6986C40.5058 38.6497 41.8892 39.6008 43.2823 40.5519C45.0308 41.7528 46.7697 42.9441 48.5182 44.145C49.1331 44.5677 49.3733 44.5677 49.9977 44.145C54.6764 40.9362 59.3551 37.7274 64.0338 34.5282C64.2259 34.3937 64.4373 34.1055 64.6487 34.2016C64.8985 34.3169 64.7736 34.6723 64.7736 34.9125C64.7832 37.7851 64.7736 40.6768 64.7736 43.5686Z" fill="#F9F9F9"/>
<path d="M62.9963 32.9527C62.5255 33.2794 62.1124 33.5772 61.6897 33.8654C57.6835 36.6131 53.6773 39.3511 49.6711 42.1084C49.3637 42.3198 49.162 42.3294 48.8449 42.1084C45.9724 40.1197 43.0999 38.1503 40.2177 36.1904C39.9487 36.0079 39.8719 35.8349 39.9679 35.5179C40.1985 34.7685 40.1696 34.0096 39.9295 33.2794C39.8142 32.9335 39.9199 32.8567 40.2561 32.8567C42.7924 32.8663 45.3287 32.8567 47.8746 32.8567C52.7358 32.8567 57.5874 32.8567 62.4487 32.8567C62.6024 32.8663 62.7657 32.8278 62.9963 32.9527Z" fill="#F9F9F9"/>
</svg>
