<svg width="99" height="43" viewBox="0 0 99 43" fill="none" xmlns="http://www.w3.org/2000/svg">
<g opacity="0.3">
<path d="M87.3935 35.7402C87.626 35.5973 87.881 35.4621 88.1359 35.3042C88.3984 35.1464 88.6685 34.981 88.9385 34.8156C89.2085 34.6428 89.4784 34.4699 89.7409 34.3045C90.0034 34.1392 90.2509 33.9588 90.4834 33.8084C91.4134 33.1846 92.0659 32.7261 91.9159 33.0418L92.3584 32.8689C92.1784 33.0267 91.9309 33.2447 91.6234 33.4852C91.4734 33.6055 91.3084 33.7333 91.1359 33.8686C90.9634 34.0039 90.7759 34.1317 90.5884 34.267C89.8309 34.8232 88.946 35.3493 88.211 35.7552C87.836 35.9431 87.4985 36.1085 87.2285 36.2362C86.951 36.349 86.7485 36.4241 86.636 36.4392C86.531 36.4542 86.516 36.4242 86.636 36.3114C86.756 36.1911 87.0035 36.0258 87.3935 35.7402Z" fill="#4CA4DB"/>
<path d="M86.0212 32.1698L85.4212 32.4253C85.7137 32.2976 86.0887 32.1322 86.4262 31.9368C86.5987 31.8391 86.7712 31.7413 86.9286 31.6511C87.0861 31.5534 87.2287 31.4557 87.3562 31.373C87.4762 31.4557 86.5612 32.26 85.3762 32.7936C85.5862 32.5757 86.6737 31.9593 86.0212 32.1698Z" fill="#4CA4DB"/>
<path d="M86.3812 7.85444C86.2462 7.95967 86.2987 8.07242 86.4937 8.19268C86.5912 8.25282 86.7262 8.31294 86.8837 8.37307C87.0412 8.44072 87.2362 8.50836 87.4462 8.58353C88.2862 8.89922 89.4936 9.35771 90.5886 10.1319C90.3936 10.1544 90.1911 10.1996 90.0037 10.2371C89.8162 10.2822 89.6212 10.3348 89.4412 10.3875C89.0362 10.162 88.4736 9.95902 87.8062 9.84627C87.1462 9.72601 86.3737 9.71851 85.5937 9.81622C85.3987 9.83877 85.2037 9.87636 85.0012 9.91394C84.8062 9.95904 84.6037 9.9966 84.4162 10.0567C84.0262 10.162 83.6437 10.3048 83.2762 10.4626C82.9087 10.628 82.5637 10.8159 82.2337 11.0188C82.1512 11.0714 82.0763 11.1241 81.9938 11.1767C81.9188 11.2293 81.8362 11.2819 81.7612 11.342C81.6862 11.4022 81.6113 11.4548 81.5438 11.5074C81.5138 11.5224 81.4537 11.5901 81.3938 11.6427L81.2213 11.8005C81.0563 11.9809 80.9888 12.0561 80.9888 12.0937C80.9888 12.1087 81.0038 12.0937 81.0338 12.0786C81.0638 12.0636 81.1088 12.0335 81.1613 11.996C81.2663 11.9208 81.4162 11.8005 81.5737 11.6728C81.5962 11.6502 81.6038 11.6502 81.6188 11.6427L81.6563 11.6201L81.7313 11.5751C81.7838 11.545 81.8363 11.5149 81.8813 11.4849C82.0763 11.3796 82.2338 11.312 82.2038 11.3721C82.1888 11.4022 82.1213 11.4623 82.0013 11.5675C81.9413 11.6201 81.8662 11.6878 81.7762 11.7705C81.7613 11.778 81.7538 11.793 81.7388 11.8005C81.7313 11.8081 81.7313 11.8081 81.7163 11.8156L81.6787 11.8532C81.6337 11.8983 81.5813 11.9509 81.5363 11.996C81.4388 12.0937 81.3263 12.2064 81.2063 12.3192C81.1913 12.3267 81.1763 12.3417 81.1613 12.3492C81.1463 12.3568 81.1388 12.3718 81.1238 12.3868C81.1013 12.4094 81.0788 12.4244 81.0563 12.4394C81.0188 12.4695 80.9813 12.492 80.9588 12.4996C80.8988 12.5221 80.8613 12.5221 80.8088 12.5371C80.7563 12.5522 80.6963 12.5822 80.6063 12.6574C80.5088 12.71 80.3963 12.9355 80.2163 13.2437C80.1563 13.379 80.0963 13.5068 80.0363 13.6345C79.9763 13.7773 79.9163 13.9202 79.8563 14.0554C79.7363 14.3411 79.6313 14.6041 79.5263 14.8522C79.3088 15.4084 79.1139 15.9045 78.9414 16.3855C78.7614 16.8741 78.6039 17.3251 78.4464 17.7685C78.2964 18.2045 78.1613 18.6104 78.0263 19.0163C77.9888 18.9712 77.9513 18.911 77.9213 18.8734C77.8988 18.8659 77.8688 18.8509 77.8463 18.8283C77.8163 18.8133 77.7939 18.7908 77.7639 18.7607C77.7489 18.7457 77.7339 18.7306 77.7189 18.7156L77.6964 18.6855C77.6964 18.6855 77.6964 18.678 77.6889 18.678L77.6814 18.663L77.6663 18.6254C77.6064 18.43 77.5388 18.197 77.4638 17.9114C77.4263 17.761 77.3814 17.5957 77.3364 17.4228C77.2914 17.2349 77.2389 17.0394 77.1939 16.829C77.0889 16.4006 76.9689 15.8744 76.8339 15.2806C76.6989 14.6943 76.5489 14.0329 76.3839 13.2888C76.3614 13.1986 76.3388 13.1084 76.3238 13.0107C76.3013 12.9205 76.2714 12.8453 76.2414 12.7626C76.1889 12.5973 76.1289 12.4244 76.0764 12.244C76.0464 12.1538 76.0164 12.0636 75.9864 11.9734C75.9564 11.8832 75.9114 11.808 75.8814 11.7254C75.8064 11.56 75.7314 11.3871 75.6564 11.2067C75.6189 11.1165 75.5814 11.0264 75.5364 10.9362L75.5064 10.8685L75.4614 10.7858L75.4239 10.7107C75.3789 10.628 75.334 10.5378 75.289 10.4476C75.184 10.2747 75.0864 10.0793 74.9589 9.88387C74.7114 9.29008 74.4115 8.7113 74.059 8.15509C72.6415 6.54659 70.789 5.29137 68.7715 4.59986C67.7591 4.26162 66.7166 4.05116 65.6666 4.01358C65.1416 3.99103 64.6166 4.00606 64.0916 4.05868C63.5667 4.11129 63.0492 4.2015 62.5317 4.32176C60.4768 4.81784 58.5568 5.86261 56.9968 7.25314C56.6068 7.59889 56.2393 7.96719 55.8943 8.35805C55.8043 8.45576 55.7293 8.55346 55.6468 8.65117L55.5868 8.72634L55.5568 8.76391L55.5418 8.77896C55.5343 8.78648 55.5343 8.78648 55.5193 8.80903L55.2868 9.11718L55.0543 9.42536L54.9419 9.58322L54.8369 9.7636L54.4093 10.4777C53.8843 11.545 53.3744 12.9355 52.8344 14.296C52.5719 14.9649 52.3169 15.6339 52.0544 16.2953C51.9344 16.6035 51.8219 16.9042 51.7019 17.2123L51.5369 17.6483L51.4919 17.761L51.4694 17.8136L51.4469 17.8587L51.3719 18.0241C51.1619 17.0244 50.9519 16.0247 50.7419 15.0251C50.5094 13.9427 50.277 12.8679 50.052 11.8757L49.8869 11.1692L49.8044 10.8159L49.767 10.643C49.752 10.5904 49.7294 10.5453 49.7144 10.5002L49.5119 9.93649L49.407 9.65836C49.3695 9.56817 49.3395 9.47047 49.2945 9.39531L49.0469 8.92177L48.9195 8.68124L48.8594 8.56098L48.8295 8.50086L48.7844 8.41817C48.6944 8.27536 48.6045 8.12504 48.5145 7.98223C48.1995 7.70412 47.7944 7.26066 47.2694 6.78713C46.7445 6.30608 46.092 5.78745 45.3646 5.32895C44.6371 4.86293 43.8196 4.47207 43.0171 4.19397C42.2146 3.91586 41.4196 3.76554 40.7371 3.72796L40.6996 3.5175C40.5946 3.52502 40.4971 3.53252 40.3846 3.53252C40.2796 3.53252 40.1671 3.54757 40.0546 3.54757C39.8296 3.54757 39.5896 3.5626 39.3422 3.5626C38.8472 3.58515 38.3222 3.6077 37.7897 3.68286C36.7247 3.82567 35.6073 4.17893 34.7823 4.72762C34.2498 4.97567 33.7248 5.28385 33.2298 5.63712C33.0423 5.68974 33.1848 5.4943 33.4997 5.17861C33.8147 4.87044 34.3172 4.4871 34.8197 4.1639C35.3222 3.83318 35.8397 3.59265 36.1097 3.41226C36.3872 3.25442 36.4247 3.14919 35.9822 3.17925C35.0073 3.48742 34.1598 3.96097 33.4623 4.53221C32.7573 5.09594 32.1798 5.74235 31.6773 6.41131C31.1823 7.08027 30.7624 7.77927 30.3799 8.50836C29.9974 9.23745 29.6524 9.9966 29.3149 10.8084C29.0449 11.6277 28.9473 12.2365 28.8948 12.71C28.8798 12.9505 28.8574 13.1535 28.8649 13.3339C28.8649 13.5143 28.8724 13.6721 28.8799 13.8224C28.9174 14.1156 28.9398 14.3711 28.9998 14.6718C29.0148 14.747 29.0224 14.8296 29.0374 14.9123C29.0524 14.995 29.0748 15.0852 29.0898 15.1754C29.1048 15.2731 29.1274 15.3708 29.1499 15.4761C29.1724 15.5813 29.2024 15.694 29.2324 15.8218C29.3749 16.0623 29.3974 15.8819 29.4199 15.679C29.4274 15.5738 29.4423 15.4685 29.4648 15.3934C29.4948 15.3182 29.5324 15.2806 29.5999 15.3257C29.6899 15.9045 29.8248 16.4231 29.9598 16.8816L26.255 17.9114C26.0975 17.2274 25.9024 16.6261 25.7074 16.0849C25.5124 15.5362 25.2874 15.0627 25.0774 14.6117C24.6424 13.7247 24.2075 12.9806 23.6975 12.2741C23.1875 11.5675 22.595 10.8911 21.77 10.2146C21.3575 9.86884 20.8775 9.54563 20.3226 9.22242C19.7676 8.89922 19.1226 8.59856 18.3726 8.343C18.2976 8.35803 17.9076 8.2904 17.4426 8.22276C17.2101 8.19269 16.9551 8.16262 16.7151 8.14759C16.5951 8.14007 16.4751 8.13254 16.3626 8.13254C16.2501 8.13254 16.1451 8.13255 16.0476 8.14006C15.9501 8.14758 15.8676 8.14757 15.8001 8.15509C15.7326 8.16261 15.6727 8.17765 15.6352 8.19268C15.5602 8.22275 15.5527 8.26033 15.6352 8.31295C15.7252 8.35805 15.9127 8.43321 16.2202 8.52341C16.3777 8.56851 16.5576 8.63614 16.7751 8.69627C16.8876 8.72633 17.0001 8.77145 17.1276 8.80903C17.2551 8.85413 17.3901 8.89171 17.5251 8.94432C18.2751 9.10217 19.0251 9.32765 19.7526 9.62079C20.1951 9.92896 20.6076 10.2672 21.0051 10.6205C20.6301 10.3799 20.1726 10.0943 19.6776 9.84627C19.1826 9.59823 18.6651 9.37275 18.1926 9.22242C17.7276 9.05706 17.3076 8.95936 17.0376 8.92177C16.7601 8.87668 16.6251 8.89923 16.7001 8.97439C16.1901 8.65119 15.1551 8.41067 14.0001 8.43321C13.4227 8.44073 12.8302 8.52339 12.2602 8.65117C11.6902 8.77143 11.1502 8.96688 10.6703 9.1623C9.71028 9.56067 9.02778 10.0116 8.78028 10.0943C8.66029 10.1469 8.64529 10.1018 8.78028 9.94399C8.84778 9.86883 8.95282 9.7636 9.10282 9.62079C9.17782 9.54563 9.2678 9.47799 9.36529 9.39531C9.46279 9.31263 9.57525 9.2149 9.70275 9.12471C9.88275 9.06458 10.0553 9.00444 10.2203 8.95182C10.3853 8.90672 10.5428 8.85413 10.6928 8.80903C11.0003 8.73387 11.2778 8.6587 11.5403 8.6136C12.0578 8.50085 12.5002 8.44824 12.9127 8.38059C13.7377 8.27536 14.4352 8.17764 15.4477 8.13254C14.5852 8.0198 13.7302 7.99726 12.8902 8.07242C12.0577 8.14758 11.2402 8.31294 10.4527 8.56098C8.87777 9.05706 7.43785 9.87635 6.19287 10.8911C3.71042 12.9355 2.00793 15.7617 1.47544 18.678C1.49044 19.2718 1.5279 19.8506 1.6254 20.4143C1.5354 20.4444 1.45295 20.6398 1.38545 20.963C1.37045 21.0457 1.3479 21.1359 1.3404 21.2336C1.3329 21.3313 1.31797 21.4365 1.31047 21.5493C1.28797 21.7748 1.28795 22.0228 1.29545 22.3009C1.31795 22.8496 1.37791 23.4885 1.53541 24.1499C1.6929 24.8114 1.92542 25.5104 2.21792 26.1718C2.51791 26.7205 2.89286 27.3294 3.20035 27.7428C3.50034 28.1562 3.71784 28.3741 3.67284 28.1712C3.80034 28.2539 3.46287 27.7728 3.04288 27.0137C2.61539 26.2545 2.16539 25.1947 1.9104 24.2326C1.6479 23.2705 1.58792 22.4137 1.64042 22.128C1.66292 21.9777 1.70796 21.9702 1.78296 22.1431C1.82046 22.2333 1.85791 22.361 1.92541 22.5414C1.95541 22.6316 1.99292 22.7369 2.03042 22.8496C2.06792 22.9624 2.12046 23.0901 2.16546 23.2329C2.47295 24.7588 3.10288 26.2621 3.98036 27.6C4.85035 28.9454 5.96032 30.133 7.16029 31.08C8.36027 32.0346 9.66525 32.7487 10.9252 33.2372C11.5552 33.4778 12.1777 33.6582 12.7777 33.801C13.3777 33.9438 13.9477 34.0189 14.4877 34.0866C13.7002 34.1166 12.9727 34.0565 12.2677 33.9438C11.5702 33.831 10.9027 33.6657 10.2352 33.4552C9.57522 33.2447 8.9153 32.9892 8.23281 32.6885C7.55032 32.3879 6.83785 32.0271 6.08786 31.5912C4.88789 30.7418 3.80792 29.682 2.90794 28.4718C2.00796 27.2617 1.29546 25.8937 0.837973 24.4281C0.380482 22.9624 0.200423 21.414 0.305421 19.8656C0.410419 18.3248 0.807988 16.7989 1.41548 15.3783C2.64545 12.5296 4.74532 10.0868 7.32527 8.45576C8.61524 7.63648 10.0328 7.04267 11.4952 6.68189C12.9652 6.33613 14.4801 6.24595 15.9651 6.38876C16.0701 6.45641 16.3326 6.56163 16.6551 6.65934C16.9776 6.77208 17.3601 6.89986 17.6901 7.03516C18.3576 7.30575 18.8226 7.56882 18.3576 7.53124C18.8376 7.77928 19.7601 8.13254 20.6 8.60608C21.44 9.07209 22.175 9.64333 22.385 10.0116C23.6225 10.861 24.7625 11.9584 25.685 13.2362C26.6149 14.5139 27.3199 15.9947 27.6949 17.5656L28.5724 17.3251C28.0999 15.8894 27.9648 14.3335 28.1373 12.8303C28.3023 11.3195 28.7674 9.86132 29.4349 8.54596C30.1024 7.23059 30.9873 6.05803 31.9923 5.08842C32.9897 4.11129 34.1372 3.37468 35.2922 2.84853C34.7372 2.94624 34.7072 2.85606 35.0297 2.62305C35.3522 2.40507 36.0272 2.05932 36.8972 1.81879C37.7597 1.57827 38.8021 1.44298 39.7621 1.4505C40.7221 1.44298 41.5996 1.57076 42.1771 1.63841C43.2046 1.99919 44.562 2.53284 45.8745 3.31454C47.1945 4.08121 48.4245 5.13352 49.302 6.17078C49.3695 6.20836 49.4894 6.32111 49.6319 6.4564C49.7669 6.59922 49.917 6.77209 50.0595 6.92242C50.322 7.2381 50.5469 7.47861 50.5019 7.26064C49.9019 6.41881 49.4595 5.88515 49.002 5.34397C48.5295 4.81783 48.042 4.28417 47.202 3.63024C47.682 3.7054 48.6269 4.41195 49.5344 5.53941C49.7594 5.82503 49.9919 6.12568 50.2019 6.4564C50.2544 6.53908 50.3069 6.62175 50.3669 6.70443C50.4194 6.78711 50.4719 6.87731 50.5169 6.95999C50.5694 7.04267 50.6219 7.13286 50.6744 7.21554C50.7119 7.28319 50.7494 7.35085 50.7794 7.4185C51.0794 7.98974 51.3644 8.64366 51.5744 9.26752C51.4844 9.11719 51.3794 8.95936 51.2669 8.78648C51.1469 8.62112 51.0269 8.43321 50.8769 8.2453C51.3344 9.1172 51.6719 10.1394 51.8744 11.3045L51.8969 11.4097L51.9044 11.4398C51.9044 11.4398 51.9044 11.4548 51.9044 11.4473L51.9119 11.4398L51.9269 11.3946L51.9944 11.2293C52.0469 11.1166 52.0844 11.0038 52.1444 10.8986L52.3094 10.5754C52.3694 10.4701 52.4294 10.3574 52.4894 10.2446C52.7444 9.80117 53.0368 9.33517 53.3668 8.86915C53.5243 8.62863 53.7119 8.41064 53.8919 8.17764C54.0794 7.95966 54.2744 7.71916 54.4544 7.53876C54.8219 7.14791 55.2118 6.77961 55.6093 6.43386C56.4043 5.74235 57.2518 5.14855 58.0993 4.63743C58.9468 4.12632 59.7942 3.69036 60.6192 3.31454C59.3667 3.60768 58.1293 4.08123 56.9593 4.72012C58.1218 3.85574 59.5092 3.14919 61.0017 2.71324C62.4867 2.26978 64.0691 2.09691 65.5841 2.20213C67.0991 2.29985 68.5315 2.66814 69.7915 3.15671C71.0515 3.64527 72.154 4.23156 73.099 4.76522C72.9115 4.60738 72.7014 4.46455 72.4914 4.30671C72.2739 4.1639 72.049 4.00606 71.8165 3.87077C71.344 3.58515 70.834 3.32207 70.3015 3.08906C69.2441 2.62305 68.104 2.29984 67.0616 2.12697C66.0191 1.95409 65.0966 1.91651 64.4366 1.89396C64.1066 1.87893 63.8442 1.87141 63.6642 1.84134C63.4842 1.81879 63.3866 1.76617 63.3941 1.69853C63.4166 1.66095 63.5142 1.61585 63.6642 1.56324C63.8142 1.51814 64.0241 1.48056 64.2791 1.44297C64.7891 1.38284 65.4791 1.35277 66.2291 1.4129C66.9791 1.47303 67.7816 1.62338 68.5166 1.83384C69.2516 2.0443 69.9191 2.32239 70.4141 2.57043C71.689 3.20932 72.829 3.96847 73.8414 4.81782C74.3514 5.23873 74.8315 5.68221 75.2739 6.14071C75.7164 6.59921 76.1439 7.08026 76.5264 7.57634C76.9088 8.07242 77.2689 8.59104 77.5914 9.11718C77.6664 9.24496 77.7414 9.38027 77.8164 9.50805C77.8614 9.58321 77.9063 9.67342 77.9513 9.74858C78.0413 9.91394 78.1238 10.0718 78.1988 10.2371C78.3488 10.5603 78.4688 10.8685 78.5738 11.1767C78.6188 11.327 78.6638 11.4773 78.7013 11.6277L78.7163 11.6803L78.7239 11.7103V11.7254L78.7314 11.7103L78.7763 11.5826C78.8063 11.4924 78.8363 11.4097 78.8738 11.327C79.0763 10.8685 79.3313 10.4777 79.6388 10.1469L79.7588 10.0267C79.7963 9.9891 79.8338 9.95152 79.8863 9.90642L80.0288 9.78615L80.0664 9.75608C80.0739 9.74856 80.1038 9.72602 80.1263 9.71098L80.2613 9.61327L80.5238 9.41786L80.8013 9.23745C80.9813 9.11719 81.1763 9.01196 81.3638 8.90673C82.1288 8.48581 82.9463 8.20019 83.7862 8.0198C84.6562 7.86196 85.5187 7.79431 86.3812 7.85444Z" fill="#4CA4DB"/>
<path d="M78.8287 9.55314C78.7837 9.43287 78.7312 9.32764 78.6787 9.23744C78.6637 9.21489 78.6487 9.19234 78.6412 9.16979L78.6187 9.13972L78.6112 9.1247L78.6037 9.11717C78.5587 9.03449 78.5137 8.95935 78.4687 8.87667C78.4237 8.79399 78.3787 8.71883 78.3262 8.64366C77.9512 8.04987 77.6062 7.61391 77.3137 7.26815C76.7138 6.58416 76.2938 6.276 75.8963 5.98286C75.4838 5.69724 75.0938 5.41161 74.4188 4.92305C74.2538 4.80279 74.0663 4.66749 73.8563 4.51716C73.6388 4.37435 73.4138 4.20147 73.1438 4.0286C72.6113 3.67533 71.9513 3.26193 71.0963 2.8335C71.3438 2.87108 71.3364 2.78089 71.1264 2.60802C71.0214 2.51782 70.8789 2.41259 70.6839 2.29984C70.5864 2.23971 70.4814 2.17958 70.3689 2.11193C70.2564 2.0518 70.1289 1.99167 69.9939 1.92402C69.4689 1.66847 68.8089 1.40539 68.1039 1.21748C67.4064 1.02206 66.664 0.901794 65.989 0.841663C64.684 0.834147 63.274 0.946884 61.9316 1.23251C61.2641 1.37532 60.6116 1.55572 60.0041 1.75866C59.3966 1.96912 58.8341 2.20964 58.3316 2.45768C57.6341 2.77337 57.2967 2.85605 57.4542 2.64559C57.5292 2.54036 57.7392 2.37499 58.1066 2.14198C58.4741 1.92401 58.9992 1.63839 59.7266 1.37532C60.6491 1.11976 61.6091 0.909298 62.599 0.78152C63.5965 0.653741 64.624 0.593616 65.6665 0.64623C66.7089 0.698845 67.7664 0.849176 68.7864 1.11977C69.8139 1.39036 70.8114 1.75113 71.7638 2.21715C72.7163 2.68316 73.6164 3.23186 74.4413 3.86324C75.2663 4.49461 76.0238 5.20117 76.6913 5.96784C77.3588 6.73451 77.9287 7.55378 78.3937 8.40313C78.5137 8.61359 78.6187 8.83157 78.7237 9.04203C78.7162 9.04203 78.7237 9.04954 78.7237 9.06458L78.7312 9.10215L78.7462 9.17732C78.7912 9.28255 78.8137 9.40281 78.8287 9.55314Z" fill="#4CA4DB"/>
<path d="M57.7917 3.32202C57.2442 3.63771 56.5317 4.08869 55.8042 4.63739C55.0768 5.18608 54.3343 5.83248 53.6968 6.48641C53.5468 6.64425 53.3969 6.80212 53.2544 6.95244C53.1794 7.02761 53.1043 7.10276 53.0293 7.17792C52.8943 7.3057 52.7893 7.41093 52.6993 7.47858C52.5268 7.62139 52.4443 7.62139 52.4218 7.47858C52.3618 7.53871 52.4143 7.03512 52.2568 7.50865C52.3168 7.43348 52.4219 7.26059 52.5869 7.05014C52.6769 6.94491 52.7593 6.83968 52.9018 6.69687C53.0593 6.52399 53.2168 6.35113 53.3818 6.17826C53.5693 5.99035 53.7568 5.79491 53.9518 5.62203C54.7243 4.90046 55.5418 4.31419 56.2468 3.91582C56.9518 3.52497 57.5217 3.32202 57.7917 3.32202Z" fill="#4CA4DB"/>
<path d="M55.6022 5.79485C55.8796 5.75726 55.5046 6.09549 55.0322 6.53896C54.9122 6.6517 54.7847 6.76445 54.6647 6.89223C54.5447 7.01249 54.4171 7.13276 54.3121 7.25302C54.1996 7.37329 54.0946 7.48603 54.0121 7.57622C53.9296 7.67394 53.8622 7.7491 53.8172 7.81675C53.6597 7.9746 53.5246 8.13996 53.3896 8.29029C53.2621 8.44813 53.1271 8.59845 53.0146 8.74877C53.1646 8.47819 53.3297 8.20009 53.5097 7.93702C53.6897 7.66643 53.8696 7.43341 54.1246 7.13276C54.5971 6.57655 55.1372 6.10302 55.6022 5.79485Z" fill="#4CA4DB"/>
<path d="M43.429 0.939127C42.5365 0.638472 42.3191 0.578334 42.4466 0.555785C42.5741 0.533235 43.0466 0.608401 43.4891 0.698598C43.7141 0.751212 43.924 0.796305 44.089 0.833887C44.254 0.871469 44.3665 0.90154 44.389 0.886507C44.4265 0.871474 44.1115 0.683556 43.0016 0.360352C43.8565 0.578326 44.6965 0.871468 45.499 1.23225C45.724 1.51788 45.9415 1.79599 46.1364 2.08913C45.274 1.62312 44.3665 1.23227 43.429 0.939127Z" fill="#4CA4DB"/>
<path d="M37.6694 0.0449219C37.5344 0.0825037 37.3993 0.112557 37.2568 0.150139C37.1218 0.187721 36.9794 0.232822 36.8369 0.270404C36.5519 0.345568 36.2593 0.443292 35.9368 0.541005C35.2994 0.751464 34.5644 1.00701 33.6719 1.42793C33.8144 1.31519 33.9644 1.20996 34.1144 1.10473C34.2644 0.999504 34.4144 0.894272 34.5794 0.796559C34.7444 0.706363 34.9244 0.631201 35.1269 0.563553C35.3294 0.503422 35.5544 0.443276 35.8019 0.383145C36.2969 0.277916 36.8969 0.157667 37.6694 0.0449219Z" fill="#4CA4DB"/>
<path d="M42.477 1.34481C42.267 1.30723 42.0795 1.27716 41.922 1.2471C41.7645 1.21703 41.6295 1.20202 41.517 1.17195C41.2845 1.11934 41.127 1.08174 40.9845 1.03664C40.842 0.991541 40.722 0.938948 40.5645 0.89385C40.407 0.848751 40.2196 0.803636 39.9346 0.758538C40.0171 0.743505 40.1521 0.74352 40.3096 0.751037C40.4746 0.758553 40.6696 0.773568 40.8721 0.803634C41.082 0.833699 41.2995 0.863768 41.5095 0.923899C41.727 0.976513 41.937 1.02161 42.1245 1.08926C42.507 1.20201 42.7995 1.32978 42.897 1.38991C43.002 1.45004 42.897 1.45004 42.477 1.34481Z" fill="#4CA4DB"/>
<path d="M30.9795 9.76404C31.077 9.10259 31.512 8.18559 32.2245 7.29114C32.577 6.84016 32.997 6.3967 33.4545 5.9833C33.912 5.5699 34.4144 5.18657 34.9319 4.84082C34.8044 4.93102 34.6769 5.00616 34.5644 5.10388C34.4519 5.19407 34.3394 5.27676 34.2344 5.36695C34.0319 5.54735 33.837 5.71272 33.6645 5.89311C33.4845 6.06598 33.327 6.24638 33.1695 6.41174C33.0945 6.50194 33.0194 6.59212 32.9444 6.68232C32.8694 6.77251 32.7945 6.85521 32.727 6.95292C32.1645 7.68952 31.602 8.48625 30.9795 9.76404Z" fill="#4CA4DB"/>
<path d="M62.7641 41.2568C61.3391 41.2644 59.6892 41.5124 58.7217 41.7003L59.4717 41.7679C60.5666 41.6101 61.6616 41.4372 62.7641 41.2568Z" fill="#4CA4DB"/>
<path d="M83.4861 38.0481C84.1761 37.5595 83.8687 37.6121 83.0362 37.8677C82.1962 38.1157 80.8087 38.5141 79.3237 38.6945C75.4988 39.5288 71.5314 40.2955 67.789 40.6488L65.5391 41.1223C66.664 41.0471 67.9915 40.9569 69.4465 40.8367C70.9089 40.7164 72.4989 40.5661 74.1339 40.3406C75.7688 40.1226 77.4338 39.8295 79.0313 39.4461C80.6362 39.0628 82.1587 38.5818 83.4861 38.0481Z" fill="#4CA4DB"/>
<path d="M25.9848 41.2347C28.3997 41.6631 31.2872 42.1216 34.2421 42.3622C37.2046 42.6102 40.227 42.6478 42.882 42.3697C41.652 42.3096 41.0296 42.2569 40.2271 42.1742C39.4321 42.0991 38.4571 42.0239 36.5446 41.8736C37.9921 41.6631 39.462 41.7308 41.007 41.8511C42.552 41.9563 44.1644 42.1292 45.8894 42.0841C44.4869 42.0465 44.7044 41.9488 45.5744 41.8511C46.4444 41.7533 47.9518 41.6406 49.1443 41.5654C51.4018 41.5504 54.3192 41.4001 57.4317 41.152C60.5441 40.9115 63.844 40.5733 66.889 40.2576C68.1864 40.0171 71.0064 39.784 73.3538 39.4533C75.7013 39.1301 77.5538 38.6866 76.8713 38.5288C78.7313 38.1455 79.8037 37.9651 80.7712 37.8223C81.0112 37.7847 81.2437 37.7471 81.4836 37.7095C81.7236 37.6719 81.9637 37.6344 82.2187 37.5742C82.4737 37.5216 82.7437 37.4615 83.0287 37.3863C83.3212 37.3036 83.6287 37.2134 83.9736 37.1007C84.9561 36.6272 85.9011 36.1536 86.8161 35.6651C87.0486 35.5448 87.266 35.417 87.491 35.2892L87.8286 35.1013L88.1585 34.9059C88.376 34.7782 88.601 34.6504 88.8185 34.5226C89.036 34.3873 89.246 34.252 89.4635 34.1167C89.681 33.9889 89.8911 33.8461 90.1011 33.7033C90.311 33.5605 90.521 33.4252 90.731 33.2824C91.1435 32.9817 91.556 32.6961 91.9535 32.3804C92.1485 32.2226 92.3584 32.0722 92.5459 31.9069L93.1234 31.4108C93.3184 31.2454 93.4984 31.0575 93.6859 30.8847C93.8734 30.7043 94.0609 30.5314 94.2334 30.336C94.4134 30.1481 94.5859 29.9526 94.7659 29.7647C94.9384 29.5693 95.1034 29.3588 95.2759 29.1559L95.5309 28.8477L95.7634 28.5245C95.9209 28.3065 96.0784 28.0886 96.2284 27.8631C96.5134 27.4046 96.8133 26.9461 97.0533 26.4425C97.3083 25.9614 97.5484 25.4278 97.7509 24.8866C98.5383 22.7219 98.8008 20.2565 98.2833 17.7611C98.3883 17.9039 98.4258 17.7009 98.4033 17.28C98.3808 16.8591 98.2908 16.2202 98.1108 15.5137C97.9308 14.8071 97.6608 14.0254 97.3383 13.3264C97.0233 12.6274 96.6559 12.0035 96.3784 11.5676C96.0634 11.094 95.6734 10.5529 95.1784 10.0117C94.6909 9.4705 94.1059 8.92181 93.446 8.44076C92.756 7.92965 91.991 7.50873 91.2185 7.19304C90.4385 6.87735 89.651 6.67443 88.916 6.55417C88.1735 6.4339 87.4911 6.40382 86.8986 6.41885C86.3061 6.44892 85.8111 6.50906 85.4511 6.59174C85.0911 6.6669 84.8661 6.7571 84.7986 6.83227C84.7386 6.90743 84.8362 6.95252 85.1287 6.99011C85.8786 6.99762 86.7936 6.98259 87.8286 7.08782C88.0911 7.10285 88.3535 7.15547 88.6235 7.18554C88.8935 7.23815 89.171 7.27573 89.456 7.34338C90.0185 7.46364 90.596 7.64402 91.1735 7.87703C91.466 7.98978 91.7435 8.13259 92.0285 8.2754C92.306 8.43324 92.5909 8.58357 92.8534 8.77148C93.3859 9.13227 93.8735 9.52312 94.316 9.97411C94.7585 10.4176 95.1559 10.8911 95.4934 11.3947C95.8309 11.8983 96.1084 12.4094 96.3259 12.9205C96.7009 13.8075 96.8284 14.3787 96.8808 14.6718C96.9258 14.9725 96.8959 14.995 96.7984 14.8297C96.6109 14.499 96.1684 13.379 95.3509 12.1914C94.946 11.5977 94.4434 10.9963 93.8959 10.4702C93.3409 9.93653 92.7485 9.48553 92.1635 9.13978C91.586 8.79402 91.046 8.59109 90.6485 8.47083C90.251 8.3656 90.0035 8.33554 89.9585 8.40319C90.4685 8.53097 90.8285 8.76398 91.376 9.16235C91.6535 9.35777 91.9684 9.6058 92.3734 9.92149C92.7634 10.2447 93.2434 10.6355 93.8059 11.1842C93.2134 10.598 92.7485 10.2522 92.4185 10.0568C92.0885 9.85383 91.9085 9.7862 91.8485 9.7862C91.781 9.7862 91.8335 9.86888 91.9385 9.99666C91.991 10.0568 92.066 10.132 92.141 10.2146C92.216 10.2973 92.306 10.395 92.3884 10.4927C92.7409 10.8911 93.1234 11.3722 93.2359 11.6427C93.2959 11.7705 93.3034 11.8457 93.2209 11.8156C93.1759 11.8006 93.1159 11.763 93.0259 11.7029C92.9359 11.6352 92.8159 11.545 92.6584 11.4323C93.2509 12.0561 93.6709 12.6725 93.9934 13.2362C94.3159 13.7999 94.5334 14.3035 94.6984 14.7545C94.8634 15.2055 94.9759 15.5964 95.0509 15.9421C95.1334 16.2879 95.1784 16.596 95.2084 16.8741C95.2684 17.4303 95.2609 17.8964 95.2084 18.4225C95.1559 18.9487 95.0584 19.55 94.8334 20.3617C94.8109 21.3314 94.7359 21.9928 94.7059 22.4663C94.6909 22.6993 94.6834 22.8872 94.6759 23.0376C94.6759 23.1879 94.6909 23.3082 94.6984 23.4134C94.7584 23.8118 94.9459 23.8794 94.8634 24.4807C94.5109 25.5255 94.0309 26.4876 93.446 27.3144C92.861 28.1487 92.201 28.8853 91.5035 29.5392C90.086 30.8471 88.556 31.8768 86.9285 32.9291C87.4385 32.3579 87.3186 32.2526 86.8086 32.433C86.6811 32.4781 86.531 32.5458 86.3585 32.6209C86.1785 32.6961 85.9836 32.7863 85.7661 32.884C85.5486 32.9893 85.3086 33.0945 85.0536 33.2072C84.9261 33.2674 84.7987 33.3275 84.6637 33.3876C84.5287 33.4477 84.3861 33.5079 84.2436 33.568C83.0962 34.0641 81.7012 34.5752 80.2912 34.9961C78.8812 35.417 77.4712 35.7478 76.3388 35.9582C74.8763 36.2213 74.0063 36.3791 73.4513 36.537C72.8964 36.6873 72.6414 36.8151 72.3789 36.9504C71.8539 37.2059 71.2839 37.484 68.059 37.7772C66.4315 37.7246 68.059 37.4239 69.5364 37.1232C71.0214 36.8151 72.3563 36.5069 70.2414 36.5219C69.2664 36.6873 68.2915 36.8527 67.309 37.0105C65.449 37.5442 63.979 38.1379 61.7366 38.5964C60.3866 38.7242 58.3617 38.9046 58.2942 38.7769C60.9341 38.4086 60.0866 38.1455 57.2966 38.1831C56.0142 38.4236 55.6917 38.4837 55.0842 38.6641C56.4642 38.8069 56.7942 38.8971 56.4567 38.9873C56.1192 39.0775 55.1143 39.1376 53.8168 39.2128C52.5193 39.2729 50.9293 39.3406 49.4293 39.4158C47.9293 39.4909 46.5119 39.5736 45.552 39.7314C44.8545 39.7991 44.2169 39.8367 43.6395 39.8742C43.062 39.9118 42.537 39.9268 42.0645 39.9344C41.112 39.9569 40.3621 39.9269 39.7396 39.8818C39.1171 39.8367 38.6221 39.7615 38.2021 39.6788C37.7746 39.5961 37.4221 39.5059 37.0621 39.4007C36.3496 39.1902 35.6521 38.9873 34.4521 38.7769C33.2522 38.5739 31.5497 38.386 28.8498 38.1004C29.6448 38.4236 29.5997 38.5514 29.0148 38.5514C28.4298 38.5589 27.3198 38.4236 25.9923 38.1981C25.3323 38.0778 24.6199 37.9576 23.8999 37.7997C23.5399 37.7246 23.1724 37.6494 22.8124 37.5667C22.4524 37.484 22.0924 37.3938 21.7475 37.3112C20.345 36.9804 19.055 36.6272 18.1775 36.4318C17.45 36.2063 16.8575 35.9582 16.3325 35.7553C15.8075 35.5448 15.3725 35.3268 14.9601 35.1164C14.5476 34.9059 14.1651 34.703 13.7826 34.47C13.3926 34.237 12.9951 34.004 12.5376 33.7259C12.3426 33.6582 12.0576 33.553 11.7426 33.4252C11.4276 33.2974 11.0676 33.1621 10.7376 33.0118C10.0702 32.7186 9.44768 32.4556 9.25269 32.4481C9.74768 33.3124 11.4351 34.8683 14.2251 36.5069C14.5776 36.7098 14.9375 36.9203 15.32 37.1383C15.7025 37.3412 16.1 37.5442 16.5125 37.7621C16.925 37.9801 17.3525 38.1755 17.8025 38.3785C18.245 38.5814 18.7025 38.7994 19.1825 38.9873C19.655 39.1827 20.1424 39.3932 20.6449 39.5811C21.1474 39.769 21.6649 39.9569 22.1899 40.1523C22.7224 40.3327 23.2624 40.5131 23.8099 40.6935C24.3649 40.8739 24.9274 41.0318 25.4974 41.2046C25.7674 41.2422 25.9923 41.2573 25.9848 41.2347Z" fill="#4CA4DB"/>
<path d="M51.8371 24.5415C51.7846 24.6017 51.6945 24.6167 51.612 24.5866C51.5295 24.5491 51.4545 24.4664 51.4395 24.3311L51.3721 24.1732C51.4846 24.1807 51.9271 24.0304 51.8371 24.5415Z" fill="#4CA4DB"/>
<path d="M52.887 28.1795L52.962 28.2246C52.887 28.1795 52.797 28.1795 52.7445 28.1945C52.6995 28.0668 52.767 27.9014 52.887 27.924C52.8945 28.0367 52.7895 28.0743 52.887 28.1795Z" fill="#4CA4DB"/>
<path d="M49.6622 26.0445C49.6847 26.4579 49.9397 27.0216 50.2247 27.3674L50.2548 28.0514C50.1423 27.901 50.0073 27.8935 49.8723 27.9236C49.7373 27.9462 49.5872 28.0138 49.4522 28.0363C49.3622 28.1867 49.7298 28.2318 49.4823 28.4046C49.4373 28.3069 49.4372 28.1341 49.3773 28.0814C49.1598 28.2919 49.3472 28.803 48.8073 28.7279L48.6047 28.4197C48.1548 28.4498 47.7048 28.6151 47.2473 28.7279C46.7898 28.8181 46.3248 28.8707 45.8973 28.6978C45.7248 29.0285 45.2824 28.8857 44.9899 29.0736L45.0049 28.8707C44.8174 29.2014 44.5923 28.7579 44.3973 28.773L44.2474 28.555C44.2249 28.2167 44.7498 28.4648 44.6598 27.9462C44.3448 27.6079 43.9999 28.322 43.7449 27.9236C43.4674 27.7883 43.4598 28.0363 43.2498 28.104C43.1673 28.2994 43.2724 28.3145 43.2124 28.54C42.4999 28.5249 42.6948 27.4651 42.1099 27.4275C42.0499 27.5854 41.4724 27.871 41.8474 28.2318C41.9374 28.1867 42.0199 28.1341 42.1099 28.0739L42.1998 28.3295C42.1173 28.3145 41.9974 28.2919 41.9074 28.2919C41.8099 28.2919 41.7274 28.322 41.7199 28.4422C41.7124 28.0439 41.3899 28.1341 41.1574 28.2092C40.925 28.2769 40.7899 28.322 41.1799 27.8259C41.3974 28.089 41.4949 28.0739 41.7499 27.8259C41.4574 27.7056 41.1949 27.5252 40.9474 27.3674C40.7074 27.202 40.4824 27.0216 40.2424 26.9314L39.9799 27.202C40.0849 26.8788 39.935 26.5857 39.7475 26.4203C39.6275 26.4429 39.515 26.3677 39.4775 26.5331C39.4175 26.6158 39.605 26.7435 39.74 26.8788C39.875 27.0141 39.9499 27.1795 39.6275 27.3824C39.5675 27.3373 39.5 27.2922 39.44 27.2471C39.38 27.1945 39.32 27.1419 39.2675 27.0893C39.155 26.9765 39.05 26.8563 38.96 26.7285C38.7725 26.473 38.6375 26.1948 38.585 25.9017C38.855 25.9393 38.9975 26.1046 39.4324 25.804C39.5599 25.7965 39.6799 25.804 39.7999 25.8265C39.9199 25.8416 40.0324 25.8641 40.1524 25.8867C40.3849 25.9318 40.6099 25.9994 40.8349 26.0595C40.9474 26.0896 41.0599 26.1197 41.1724 26.1497C41.2849 26.1723 41.4049 26.1873 41.5174 26.1948C41.7499 26.2099 41.9899 26.1948 42.2299 26.1197C42.1999 26.3527 42.4024 26.503 42.2749 26.721C42.3124 26.9089 42.5824 26.7736 42.5599 27.1118C42.7474 27.0667 42.9349 27.0517 43.1224 27.0667C43.3099 27.0742 43.4899 27.1193 43.6699 27.1419C44.0299 27.2095 44.3748 27.3148 44.6823 27.3749C44.6298 27.0592 44.7348 26.984 44.8773 26.9465C45.0198 26.9014 45.1924 26.9089 45.2899 26.7962C45.4249 27.0667 45.7098 26.9765 45.9123 26.9841C45.9423 26.8863 46.0698 26.8563 46.0473 26.6834C45.8973 26.7435 45.8523 26.6082 45.7023 26.5406C45.7473 26.3226 45.8223 26.3301 45.9198 26.4053C45.9648 26.4429 46.0173 26.488 46.0773 26.5331C46.1298 26.5707 46.1898 26.6082 46.2423 26.6157L46.1148 26.8563C46.3023 26.8638 46.5048 27.0592 46.7073 27.202C46.9098 27.3449 47.1198 27.4275 47.2848 27.2171C47.1873 27.0743 47.0823 26.9314 46.9923 26.7886C47.0973 26.7435 47.2098 26.751 47.3223 26.7586C47.4348 26.7736 47.5473 26.8037 47.6598 26.8262C47.8848 26.8713 48.0948 26.8713 48.2298 26.6082C47.9448 26.4654 47.4948 26.8187 47.4873 26.2474C47.4948 25.9393 47.8023 25.9393 47.9598 26.0595C48.1248 26.1948 48.2823 26.2174 48.4323 26.1873C48.5748 26.1497 48.7098 26.0595 48.8373 25.9769C49.0848 25.7814 49.3173 25.6612 49.6622 26.0445Z" fill="#4CA4DB"/>
<path d="M48.6795 25.1505C48.1845 25.2407 48.4995 26.0074 47.9895 25.9623C48.0345 25.6541 47.7795 25.4061 47.6145 25.3911C47.4645 25.5714 47.2695 25.4737 47.127 25.4737C47.0295 25.4061 47.0445 25.0378 47.2245 25.0303C47.457 25.3234 47.712 25.2182 47.9595 25.1129C48.0795 25.0603 48.1995 25.0077 48.3195 25.0002C48.447 24.9852 48.5595 25.0227 48.6795 25.1505Z" fill="#4CA4DB"/>
<path d="M47.0824 25.9841C46.9174 26.0216 46.5274 25.8413 46.5274 25.4354C46.5049 25.4053 46.55 25.1949 46.46 25.27C46.595 25.3978 47.0149 25.4429 47.0824 25.9841Z" fill="#4CA4DB"/>
<path d="M46.8576 26.7357C46.8876 27.0364 46.7076 26.8109 46.6626 26.8109L46.5576 26.6831C46.6626 26.608 46.7826 26.5704 46.8576 26.7357Z" fill="#4CA4DB"/>
<path d="M45.4397 25.7736C45.2147 25.6308 45.7172 25.4053 45.4397 25.3377L45.6047 25.3076L45.6272 25.7812L45.4397 25.7736Z" fill="#4CA4DB"/>
<path d="M45.1173 25.3307C45.0423 25.4284 44.9673 25.466 44.8623 25.3533L44.9448 25.1879C44.9898 25.1278 45.0198 25.3307 45.1173 25.3307Z" fill="#4CA4DB"/>
<path d="M45.3274 26.4124C45.1999 26.5101 45.2374 26.2771 45.1699 26.1719C45.2299 26.0366 45.4549 26.3824 45.3274 26.4124Z" fill="#4CA4DB"/>
<path d="M43.707 29.0736C43.8945 28.7203 44.1196 28.9759 44.3821 28.9007C44.1196 28.9759 43.9845 29.1713 43.707 29.0736Z" fill="#4CA4DB"/>
<path d="M53.2695 23.6697C53.4045 23.7524 53.4646 23.6171 53.4871 23.4968L53.3896 23.3916L53.2695 23.6697Z" fill="#4CA4DB"/>
<path d="M51.9492 23.9476C51.9867 24.4061 52.0843 24.1431 52.3768 24.3986C52.5118 24.3986 52.6167 24.3009 52.7142 24.1806C52.8117 24.0604 52.8942 23.9326 53.0142 23.895L53.0668 23.6094C52.9018 23.5943 52.6918 23.6019 52.4893 23.6545C52.2718 23.7071 52.0767 23.7898 51.9492 23.9476Z" fill="#4CA4DB"/>
<path d="M55.2717 22.3765C55.1442 22.4592 54.9417 22.4818 54.7767 22.5644C54.6942 22.602 54.6193 22.6621 54.5593 22.7448C54.5293 22.7899 54.5067 22.8426 54.4917 22.9027C54.4692 22.9628 54.4618 23.0305 54.4543 23.1131C54.6418 23.1282 54.7017 23.2409 54.9642 23.1883C55.0242 23.4889 54.9267 23.5265 54.7917 23.4965C54.6567 23.4589 54.4842 23.3612 54.3867 23.4138C54.6117 23.4439 54.5068 23.7746 54.3718 23.8873C54.1993 23.8873 54.0117 23.955 53.8242 24.0452C53.6292 24.1203 53.4268 24.2255 53.2393 24.3157C53.1943 24.451 53.0068 24.4886 52.8568 24.5638C52.7143 24.6314 52.6093 24.7216 52.7443 24.9772C52.5118 25.105 52.3393 24.6991 52.1218 24.639C52.0393 24.8419 51.9118 24.8945 51.7693 24.8644C51.6268 24.8344 51.4618 24.7141 51.2968 24.6089C50.9743 24.3909 50.6743 24.188 50.4793 24.654C50.4418 24.3158 50.1719 24.4135 50.0519 24.4135C49.8044 24.436 49.2343 24.5112 49.4518 25.12C49.5718 25.3229 49.6918 25.2252 49.8193 25.135C49.9468 25.0448 50.0819 24.9471 50.2544 25.135C50.8469 25.7213 49.8268 25.4808 49.9093 26.052C49.9618 25.9393 50.0818 26.4279 50.2693 26.2099C50.0668 26.3828 50.1344 26.5256 50.2469 26.6834C50.3519 26.8337 50.4943 26.9916 50.4043 27.187C50.7118 27.3073 50.8543 27.3674 50.9743 27.4802C51.0943 27.5929 51.1918 27.7658 51.4168 28.0815C51.7318 27.8785 51.5218 27.4125 51.5518 27.1269C51.6943 26.9465 51.8667 26.9916 52.0467 27.0667C52.2267 27.1344 52.4068 27.2246 52.5343 27.0968C52.5493 28.0288 53.2468 27.5854 53.6068 27.4501C53.8543 27.3975 53.8243 27.1945 53.7943 26.9916C53.7718 26.7961 53.7493 26.6007 53.9968 26.5406C54.1918 26.6909 54.1243 26.8713 54.0643 27.0517C54.0043 27.2321 53.9518 27.4125 54.1918 27.5628L54.3568 27.2997C54.3718 26.9164 54.3192 26.4654 54.3867 26.1723C54.4842 26.1272 54.6267 26.0596 54.6792 26.1873C54.5442 26.3978 54.7318 26.6834 55.0167 26.7736C55.0542 26.6007 55.0617 26.5556 55.0542 26.4128C54.6642 26.0671 54.7617 26.0069 54.9567 25.9543C55.1517 25.9017 55.4592 25.8491 55.4667 25.5334C55.6767 24.9998 55.8942 25.1876 56.1492 25.4206C56.4042 25.6537 56.6892 25.9242 56.9667 25.5184C56.6367 25.2252 56.7117 25.0599 56.8617 24.9171C57.0192 24.7743 57.2517 24.6239 57.2817 24.421C57.4917 24.3082 57.6867 24.4511 57.9791 24.5713C57.9791 24.4586 58.1067 24.3157 58.0392 24.1729C57.6567 23.7595 57.1992 23.4138 56.7267 23.1131C56.2467 22.805 55.7592 22.5569 55.2642 22.3164C55.2567 22.3314 55.2567 22.3615 55.2717 22.3765Z" fill="#4CA4DB"/>
</g>
</svg>
