<svg width="113" height="63" viewBox="0 0 113 63" fill="none" xmlns="http://www.w3.org/2000/svg">
<g id="Vector">
<path d="M52.2276 56.5386C52.6699 56.0363 53.1498 55.4141 53.5846 54.7543C54.027 54.0945 54.4243 53.3972 54.7392 52.7749C54.8142 52.6174 54.8892 52.4676 54.9567 52.3251C54.9866 52.2577 55.0166 52.1902 55.0466 52.1302C55.0541 52.1152 55.0616 52.1002 55.0766 52.0852C55.1141 52.0327 55.1441 51.9951 55.1666 51.9726C55.2116 51.9276 55.2491 51.9652 55.2716 52.0326C55.3091 52.0476 55.3316 52.0777 55.3615 52.1152C55.3541 52.1302 55.3465 52.1601 55.3315 52.1901C55.3315 52.1976 55.3241 52.2051 55.3166 52.2126C55.3016 52.2501 55.2791 52.2877 55.2641 52.3326C55.1516 52.5801 55.0466 52.8423 54.9117 53.1047C54.8442 53.2322 54.7843 53.3672 54.7168 53.5021C54.6418 53.6296 54.5743 53.7645 54.4993 53.892L54.3869 54.0869L54.2669 54.2819C54.1844 54.4093 54.1094 54.5368 54.027 54.6643C53.6971 55.1591 53.3522 55.6315 53.0148 56.0289C52.9324 56.1263 52.8499 56.2237 52.7674 56.3212C52.6849 56.4112 52.6024 56.5012 52.5275 56.5837C52.4525 56.6661 52.3775 56.7487 52.3026 56.8236C52.2276 56.8986 52.1601 56.9659 52.0926 57.0334C51.9577 57.1609 51.8452 57.2735 51.7477 57.3559C51.6503 57.4384 51.5678 57.5059 51.5153 57.5434C51.4029 57.6184 51.3954 57.5958 51.5078 57.4383C51.6278 57.2884 51.8677 57.0035 52.2276 56.5386Z" fill="#4CA4DB" fill-opacity="0.7"/>
<path d="M50.6827 54.3643L50.4127 54.6491C50.3228 54.7391 50.2328 54.8366 50.1353 54.9266C50.2703 54.7916 50.4277 54.6341 50.5777 54.4617C50.6527 54.3717 50.7276 54.2893 50.8026 54.1994C50.8401 54.1544 50.8776 54.1093 50.9151 54.0643L51.0275 53.9219C51.1025 53.8244 51.17 53.7345 51.245 53.6371C51.3125 53.5396 51.3799 53.442 51.4399 53.3521C51.5673 53.1721 51.6798 52.9847 51.7773 52.8273C51.8298 52.8198 51.7023 53.1497 51.4174 53.622C51.125 54.0944 50.6752 54.7016 50.1204 55.2489C50.2178 55.1065 50.5102 54.7466 50.6976 54.4917C50.8851 54.2218 50.9751 54.0794 50.6827 54.3643Z" fill="#4CA4DB" fill-opacity="0.7"/>
<path d="M84.8419 49.4085C84.9019 49.0561 84.4745 49.446 83.6872 50.1883C82.9075 50.9305 81.7304 51.9801 80.2909 52.9473C80.4109 52.7524 80.5308 52.5574 80.6433 52.355L80.8082 52.0627L80.9656 51.7628C81.0406 51.7029 81.1231 51.6429 81.1981 51.5754C81.273 51.5079 81.3555 51.4404 81.438 51.3654C81.6029 51.223 81.7754 51.0654 81.9478 50.893C82.0378 50.8105 82.1278 50.7207 82.2103 50.6232C82.3002 50.5332 82.3902 50.4357 82.4802 50.3382C82.5701 50.2407 82.6526 50.1358 82.7425 50.0309C82.7875 49.9784 82.8326 49.9259 82.8775 49.8734C82.9225 49.821 82.9675 49.761 83.0125 49.7085C83.3724 49.2662 83.7173 48.7787 84.0396 48.2464C84.0771 48.1789 84.1221 48.1114 84.1596 48.0439C84.2046 47.9689 84.2346 47.9316 84.302 47.8041C84.422 47.5867 84.5345 47.3692 84.6544 47.1518C84.6844 47.0993 84.7144 47.0393 84.7369 46.9793L84.8194 46.7994C84.8719 46.6794 84.9319 46.5595 84.9843 46.4395C85.0968 46.2071 85.1943 45.9297 85.2992 45.6598L85.5541 45.5474L85.929 45.3074C85.9665 45.2849 85.9815 45.2623 86.004 45.2474L86.0714 45.18C86.1614 45.0975 86.2589 45.015 86.3189 44.925L86.4163 44.7976C86.4313 44.7751 86.4538 44.7526 86.4613 44.7376L86.4838 44.8051C86.4988 44.8501 86.5063 44.9025 86.5288 44.9475L86.5963 45.0899C86.6188 45.1349 86.6563 45.1799 86.6862 45.2323C86.7012 45.2548 86.7162 45.2774 86.7312 45.2999L86.7987 45.3674L86.8662 45.4348C86.8887 45.4573 86.9037 45.4798 86.9412 45.5023C87.0012 45.5473 87.0611 45.5923 87.1136 45.6447C87.1361 45.6672 87.1811 45.6898 87.2186 45.7123L87.4585 45.8472L87.601 45.9147C87.7059 46.4246 87.8484 46.7618 87.9983 47.0917C88.2907 47.5865 88.2982 47.5641 88.1782 47.2867C88.1483 47.2192 88.1033 47.1293 88.0583 47.0394C88.0358 46.9869 88.0058 46.9494 87.9908 46.8819C87.9683 46.822 87.9458 46.7545 87.9234 46.687C87.8784 46.552 87.8334 46.4095 87.7809 46.2671C87.7434 46.0872 87.7059 45.8997 87.6759 45.7273C87.6309 45.7048 87.5935 45.6823 87.5485 45.6673C87.5035 45.6448 87.481 45.6297 87.451 45.6072C87.391 45.5697 87.331 45.5398 87.286 45.5098C87.1736 45.4499 87.1361 45.4049 87.1136 45.3824C87.0986 45.36 87.1136 45.36 87.1811 45.3824C87.1961 45.3899 87.2261 45.3973 87.2561 45.4048C87.2861 45.4123 87.3236 45.4273 87.3685 45.4423C87.4585 45.4723 87.5485 45.5099 87.7284 45.5549C87.7884 45.7798 87.8334 46.1171 87.9458 46.357C87.9983 46.4919 88.0508 46.6419 88.1183 46.7919C88.1933 46.9268 88.2682 47.0693 88.3507 47.2193C88.3732 47.2643 88.3882 47.3092 88.4032 47.3467C88.4182 47.3842 88.4332 47.4143 88.4482 47.4443C88.4707 47.5042 88.4931 47.5492 88.5081 47.5867C88.5081 47.5942 88.5156 47.6092 88.5156 47.6167C88.5156 47.6242 88.5156 47.6242 88.5156 47.6317C88.5156 47.6392 88.5156 47.654 88.5156 47.6615C88.5156 47.684 88.5156 47.6991 88.5156 47.7216C88.5231 47.804 88.5532 47.9315 88.7781 48.2464C89.048 48.5538 89.2954 48.7788 89.5203 48.9588C89.5728 49.0038 89.6253 49.0412 89.6777 49.0862C89.7302 49.1237 89.7827 49.1611 89.8277 49.1911C89.9252 49.2585 90.0151 49.3185 90.1051 49.371C90.4575 49.5809 90.7499 49.7233 91.1473 49.9033C91.5446 50.0757 92.047 50.3082 92.8792 50.5707C93.2991 50.6981 93.8014 50.818 94.4162 50.9005C94.7236 50.938 95.0535 50.968 95.4284 50.9605C95.5258 50.9605 95.6158 50.9605 95.7133 50.9605C95.8107 50.9605 95.9082 50.953 96.0131 50.9455C96.2156 50.9305 96.433 50.9305 96.6505 50.893L96.9503 50.878C97.0478 50.8705 97.1528 50.8705 97.2503 50.8555L97.85 50.7881L98.4498 50.683C98.6523 50.6456 98.8472 50.5931 99.0496 50.5406C99.7994 50.2707 100.527 49.9258 101.224 49.5284C101.929 49.1235 102.596 48.6513 103.233 48.1415C103.871 47.6241 104.478 47.0693 105.033 46.462C105.108 46.3871 105.175 46.312 105.243 46.2371L105.85 45.5399L106.225 45.0524L106.412 44.8051C106.442 44.7676 106.472 44.7225 106.502 44.685L106.592 44.5576C108.489 41.8585 109.666 38.6646 110.093 35.3882C110.311 33.7537 110.356 32.0967 110.236 30.4623C110.116 28.8278 109.816 27.2234 109.374 25.6715C108.931 24.1195 108.332 22.6349 107.589 21.2403C106.847 19.8458 105.947 18.5563 104.935 17.4017C104.523 17.0343 103.938 16.4795 103.188 15.8872C103.016 15.7447 102.836 15.5947 102.648 15.4448C102.551 15.3698 102.461 15.2874 102.364 15.2125L102.349 15.1975C102.341 15.19 102.334 15.19 102.334 15.1825L102.311 15.0474C102.304 14.9874 102.289 14.9274 102.281 14.8599C102.236 14.62 102.199 14.3726 102.154 14.1252C102.146 14.0652 102.131 13.9977 102.124 13.9378L102.109 13.8404L102.086 13.7503C102.019 13.5029 101.959 13.248 101.884 12.9856C101.794 12.7306 101.711 12.4684 101.614 12.2135C101.216 11.1788 100.639 10.159 99.9568 9.28183C99.2746 8.40462 98.5023 7.66247 97.7676 7.13764L97.7901 6.97272C97.5651 6.83776 97.3177 6.69525 97.0628 6.5303C96.9354 6.45533 96.8004 6.38031 96.6579 6.29783C96.5904 6.26035 96.523 6.21543 96.448 6.17794C96.3805 6.13296 96.3056 6.09535 96.2306 6.05786C96.0807 5.98289 95.9307 5.90805 95.7807 5.82558C95.7057 5.78809 95.6308 5.74299 95.5483 5.7055C95.4658 5.66801 95.3909 5.6381 95.3084 5.60062C95.1509 5.52564 94.986 5.45813 94.8211 5.38316C94.6561 5.32318 94.4837 5.2632 94.3112 5.19572C94.2288 5.16573 94.1388 5.13583 94.0563 5.09834L93.7939 5.02329C93.6215 4.97081 93.4415 4.92586 93.2616 4.87338C93.0816 4.83589 92.9017 4.7983 92.7217 4.76831C92.6318 4.75332 92.5418 4.73096 92.4518 4.71596C92.3619 4.70846 92.2719 4.69344 92.1819 4.68594C92.002 4.66345 91.8221 4.6409 91.6421 4.6259C91.4622 4.61841 91.2822 4.61089 91.1098 4.60339C91.0198 4.60339 90.9373 4.59588 90.8474 4.59588C90.7649 4.59588 90.6749 4.60339 90.5925 4.60339C90.42 4.61089 90.2551 4.62591 90.0901 4.63341C89.9927 4.62591 89.8952 4.64092 89.7977 4.64842L89.2129 4.69345C89.1154 4.69345 89.018 4.71579 88.9205 4.73079L88.3357 4.81334C88.1408 4.85083 87.9533 4.89575 87.7584 4.93324C87.526 4.94073 87.8109 4.82087 88.3582 4.65592C88.4932 4.62593 88.6506 4.58834 88.8156 4.55086C88.898 4.52836 88.9805 4.51349 89.0704 4.491C89.1604 4.46851 89.2504 4.46097 89.3404 4.44597C89.5278 4.41598 89.7152 4.38591 89.9102 4.36342C90.1051 4.34093 90.3001 4.33356 90.495 4.31107C90.5925 4.30357 90.6899 4.29605 90.7874 4.28855C90.8849 4.28106 90.9749 4.28855 91.0723 4.28105C91.2598 4.28105 91.4397 4.27354 91.6046 4.27354C91.942 4.28104 92.2269 4.29606 92.4369 4.29606C92.5418 4.29606 92.6243 4.29606 92.6842 4.29606C92.7442 4.29606 92.7742 4.28854 92.7817 4.27354C92.7892 4.25855 92.7592 4.236 92.7068 4.2135C92.6468 4.18351 92.5568 4.14611 92.4219 4.11612C91.2448 3.93618 90.1201 3.9737 89.0855 4.14614C88.0433 4.32608 87.0911 4.64844 86.2064 5.04581C85.7641 5.24074 85.3517 5.48058 84.9394 5.71301C84.7444 5.84046 84.542 5.96793 84.347 6.09539C84.2421 6.15537 84.1596 6.23036 84.0621 6.29783L83.6348 6.61267L83.5673 6.6652L83.4998 6.72524L83.2299 6.9502C83.1249 7.04017 83.02 7.12254 82.9225 7.21251C82.8476 7.27999 82.78 7.35498 82.7051 7.42246L82.4952 7.63992C82.3527 7.78987 82.2103 7.93239 82.0678 8.08234C81.9253 8.23229 81.7754 8.37462 81.6404 8.52457C81.3705 8.82447 81.0931 9.12434 80.8157 9.42424C80.6658 9.12434 80.5158 8.80194 80.3659 8.48705C80.2909 8.3296 80.2159 8.17224 80.1409 8.01479C80.0585 7.85734 79.9835 7.6998 79.901 7.54235C79.796 7.33992 79.6911 7.15265 79.5861 6.96521C79.5336 6.87524 79.4886 6.7777 79.4362 6.69522C79.4212 6.67273 79.4137 6.65767 79.3987 6.62768L79.3537 6.56782C79.3387 6.54533 79.3237 6.51527 79.3012 6.49278C79.1663 6.29784 79.0463 6.11792 78.9263 5.94547C78.7989 5.78803 78.6789 5.638 78.5665 5.49555C78.454 5.36059 78.3565 5.22564 78.244 5.12067C78.0341 4.90325 77.8617 4.7083 77.6892 4.55086C77.5168 4.39341 77.3669 4.2661 77.2244 4.13864C77.0819 4.01118 76.9395 3.91357 76.797 3.80111C76.6546 3.69614 76.5046 3.58372 76.3472 3.47126C76.1823 3.3588 75.9948 3.23884 75.7849 3.10389C75.7324 3.0664 75.6799 3.02899 75.6199 2.999C75.5599 2.96152 75.5 2.93142 75.44 2.89394C75.3125 2.81896 75.1851 2.73662 75.0426 2.65415C74.3979 2.40673 75.6949 3.23896 75.3725 3.22397C75.2451 3.14149 75.1251 3.06647 75.0052 2.9915C74.8852 2.91652 74.7652 2.83401 74.6452 2.76654C74.3978 2.63158 74.1654 2.49661 73.933 2.37665C73.7006 2.26419 73.4681 2.15177 73.2432 2.04681C73.0183 1.94934 72.7934 1.85928 72.5759 1.76931C72.5234 1.74682 72.471 1.72444 72.4185 1.70195C72.366 1.68695 72.3135 1.66441 72.2535 1.64942C72.1486 1.61193 72.0436 1.57434 71.9387 1.54435C71.8337 1.50686 71.7287 1.46945 71.6313 1.43946C71.5263 1.40947 71.4288 1.3869 71.3239 1.35691C71.1214 1.30443 70.9265 1.23698 70.7391 1.19949C70.5441 1.15451 70.3567 1.11708 70.1768 1.0796C69.9968 1.03461 69.8094 1.01202 69.6369 0.982035C69.457 0.952044 69.2845 0.929654 69.1196 0.899664C68.9472 0.884669 68.7822 0.86963 68.6173 0.854635C68.4523 0.83964 68.2949 0.817111 68.1299 0.817111C67.4926 0.794619 66.8853 0.80216 66.293 0.86214C65.9931 0.899628 65.7008 0.914733 65.4009 0.974713C65.1085 1.0272 64.8011 1.07217 64.5087 1.15465C64.3587 1.19213 64.2087 1.22955 64.0513 1.26704C63.8938 1.30452 63.7439 1.36446 63.5864 1.40944C63.429 1.46193 63.2715 1.51438 63.1141 1.56686C62.9566 1.63434 62.7992 1.69433 62.6343 1.7618C62.3044 1.88926 61.9745 2.0618 61.6296 2.23424C61.5846 2.25674 61.5396 2.27911 61.5021 2.3016C61.4572 2.3241 61.4196 2.35416 61.3746 2.37665C61.2922 2.42913 61.2022 2.48159 61.1123 2.53407C60.9398 2.63904 60.7524 2.74396 60.5799 2.87142C60.4 2.99888 60.2201 3.12634 60.0326 3.2538C59.8527 3.39625 59.6727 3.54627 59.4853 3.69622C59.4403 3.73371 59.3878 3.77112 59.3429 3.80861C59.2979 3.8461 59.2529 3.89121 59.2079 3.93619C59.1179 4.01866 59.028 4.10852 58.9305 4.19849C58.8405 4.28847 58.7431 4.37102 58.6531 4.46849C58.5631 4.56595 58.4731 4.66334 58.3832 4.76081C58.3682 4.7908 58.3157 4.87331 58.2332 4.98577C58.2107 5.01576 58.1882 5.04584 58.1657 5.07583C58.1507 5.09082 58.1433 5.10569 58.1283 5.12818C58.1208 5.13568 58.1132 5.15071 58.1057 5.1657C58.0983 5.1807 58.0833 5.19574 58.0758 5.21073C57.9933 5.33069 57.9108 5.45816 57.8133 5.59311C57.7159 5.73556 57.6184 5.87808 57.5135 6.03553C57.461 6.11051 57.4085 6.19285 57.3485 6.27532C57.296 6.35779 57.236 6.44784 57.1836 6.53781C56.9586 6.89769 56.7187 7.27252 56.5013 7.62491C56.1564 7.28002 55.819 6.95014 55.5491 6.69522C55.5116 6.66523 55.4816 6.63516 55.4516 6.60517C55.4217 6.57518 55.3917 6.55279 55.3617 6.5303C55.3017 6.48532 55.2492 6.44039 55.2042 6.4029C55.1067 6.32793 55.0393 6.2753 55.0018 6.2528C54.9193 6.21532 54.9643 6.29791 55.1967 6.56782C55.2567 6.6353 55.3242 6.71765 55.4067 6.81512C55.4891 6.92008 55.5866 7.03252 55.6991 7.16748C55.924 7.42989 56.2014 7.75983 56.5463 8.1572C56.7412 7.88729 56.9737 7.57238 57.2436 7.205C57.5135 6.82263 57.8209 6.44035 58.1657 5.9905L58.3756 5.698L58.4806 5.55559L58.5331 5.48054L58.5631 5.4432L58.803 5.1657L59.0429 4.88089C59.1179 4.78342 59.2079 4.70086 59.2979 4.61089L59.6803 4.206L59.8152 4.0786C60.0026 3.91366 60.1751 3.74128 60.37 3.58383C60.9473 3.22395 61.5321 2.88654 62.1469 2.62413C62.0869 2.66162 62.0195 2.69152 61.952 2.72901C61.8845 2.7665 61.817 2.7966 61.757 2.84158C61.6221 2.92406 61.4871 3.01391 61.3447 3.09638C61.2772 3.14137 61.2022 3.1863 61.1348 3.23129C61.0673 3.27627 60.9998 3.3289 60.9248 3.38138C60.7824 3.47885 60.6399 3.58375 60.4975 3.68872C60.4225 3.7412 60.355 3.79366 60.2875 3.85364L60.0851 4.02607C60.0176 4.08605 59.9501 4.13851 59.8827 4.19849C59.8152 4.25098 59.7477 4.31094 59.6877 4.37092C59.5603 4.49088 59.4403 4.611 59.3203 4.72347C59.2604 4.78345 59.2004 4.83592 59.1404 4.8959C59.0879 4.95587 59.0354 5.01585 58.9829 5.07583C58.878 5.19579 58.773 5.30821 58.6756 5.41318C58.6531 5.44317 58.6306 5.46556 58.6006 5.49555L58.5856 5.51806C58.5781 5.52556 58.5631 5.54059 58.5556 5.55559C58.5331 5.58558 58.5181 5.60815 58.4956 5.63814C58.4132 5.7506 58.3382 5.85552 58.2632 5.96048C58.1133 6.17041 57.9708 6.36537 57.8358 6.54531C57.7084 6.72525 57.5884 6.89014 57.4834 7.05509C57.0636 7.69238 56.8612 8.03734 57.0186 7.87989C56.8836 8.03734 56.7412 8.21725 56.5838 8.41969C56.2689 8.03731 55.924 7.61734 55.5416 7.18249C55.3467 6.95007 55.1592 6.76274 54.9643 6.54531C54.7694 6.33538 54.5594 6.11786 54.3495 5.89294L54.267 5.81057L54.2295 5.76554L54.207 5.74303L54.1921 5.73552C54.1621 5.70553 54.1321 5.68314 54.1021 5.65315C54.0421 5.60067 53.9746 5.54802 53.9147 5.48804C53.7872 5.38308 53.6597 5.26316 53.5173 5.1582C53.3748 5.05323 53.2324 4.94833 53.0824 4.84336C53.0074 4.79088 52.9325 4.73843 52.8575 4.68594C52.7825 4.63346 52.7 4.58851 52.6251 4.53603C52.4676 4.43856 52.3102 4.34099 52.1452 4.24352C51.9803 4.14606 51.8153 4.07101 51.6429 3.98104C51.313 3.8011 50.9606 3.65874 50.6232 3.51629L50.4958 3.46375L50.3683 3.41872C50.2783 3.38873 50.1959 3.35884 50.1134 3.32885C49.941 3.26887 49.776 3.20141 49.6036 3.15642C49.4312 3.11144 49.2662 3.0665 49.1087 3.01401C49.0263 2.99152 48.9513 2.96896 48.8688 2.94647C48.7863 2.92398 48.7114 2.90893 48.6289 2.89394C48.0066 2.75148 47.4518 2.6766 47.0169 2.61662C46.7995 2.59413 46.6121 2.57908 46.4621 2.56409C46.3872 2.55659 46.3197 2.54907 46.2672 2.54157C46.2147 2.53408 46.1697 2.53406 46.1322 2.52657C45.9973 2.50407 46.0273 2.48168 46.2897 2.4442C46.4171 2.4367 46.6121 2.42918 46.8595 2.42168C47.1144 2.40669 47.4293 2.4292 47.8192 2.4442C48.0591 2.48918 48.284 2.56415 48.5014 2.62413C48.6064 2.65412 48.7189 2.68401 48.8163 2.714C48.9213 2.7365 49.0188 2.78158 49.1162 2.81157C49.3112 2.87904 49.4986 2.93903 49.6786 3.00651C49.8585 3.07399 50.0234 3.14898 50.1809 3.20896C50.2633 3.23895 50.3383 3.27635 50.4208 3.30634C50.4583 3.32133 50.4958 3.33637 50.5333 3.35136C50.5708 3.36636 50.6082 3.3889 50.6457 3.4039C50.7957 3.47138 50.9306 3.53869 51.0731 3.60616C51.3505 3.72612 51.5979 3.86859 51.8378 3.99605C51.9578 4.06353 52.0777 4.11601 52.1902 4.18349C52.3027 4.25096 52.4151 4.31845 52.5276 4.37843C52.6401 4.44591 52.7525 4.50589 52.865 4.57337C52.9775 4.64085 53.0824 4.71585 53.1949 4.78332C53.4123 4.92578 53.6522 5.0608 53.8771 5.23325C53.9896 5.31572 54.1096 5.39807 54.2371 5.48804C54.267 5.51054 54.297 5.5331 54.327 5.55559L54.3495 5.5706L54.387 5.60062L54.462 5.66798C54.5594 5.75795 54.6569 5.848 54.7619 5.93797L54.5145 5.68299L54.387 5.55559C54.357 5.5256 54.3345 5.51053 54.3045 5.48054C54.1995 5.39057 54.0946 5.3007 53.9896 5.21073C53.8847 5.12076 53.7797 5.03072 53.6747 4.94825C53.5623 4.86577 53.4498 4.78343 53.3448 4.70095C53.2324 4.61848 53.1199 4.53595 53.015 4.45348C52.9025 4.3785 52.7825 4.30349 52.6701 4.22851C52.5576 4.15354 52.4377 4.07853 52.3252 4.00355C52.2652 3.96606 52.2127 3.92866 52.1527 3.89867L51.9728 3.80111C51.0281 3.26128 50.0309 2.83397 49.0113 2.53407C47.9916 2.23417 46.9494 2.05424 45.9148 1.98677C45.7873 1.97927 45.6599 1.97175 45.525 1.96425C45.4575 1.95675 45.3975 1.95675 45.33 1.95675H45.1351C45.0076 1.95675 44.8801 1.95675 44.7527 1.95675H44.5577C44.4903 1.95675 44.4303 1.96426 44.3703 1.97176C44.1154 1.99425 43.8605 2.0093 43.6056 2.0318C43.3582 2.06928 43.1033 2.1067 42.8558 2.14418C40.8765 2.50407 39.0096 3.31386 37.4276 4.46098C37.2327 4.60343 37.0303 4.73845 36.8428 4.9034C36.6554 5.06085 36.468 5.2107 36.288 5.36815C36.1081 5.5331 35.9356 5.69797 35.7632 5.86292C35.6732 5.94539 35.5982 6.03543 35.5158 6.1179L35.2684 6.38039C35.1859 6.47036 35.1034 6.55272 35.0284 6.64269L34.8035 6.92019C34.6535 7.10762 34.4961 7.28007 34.3611 7.4825C34.2262 7.67743 34.0838 7.87238 33.9488 8.05982C33.8288 8.26225 33.7014 8.46472 33.5814 8.65966C33.499 8.8246 33.439 8.997 33.3715 9.16944L33.349 9.2368L33.3265 9.28183L33.319 9.30434L33.229 9.51429C33.169 9.65675 33.1166 9.79926 33.0566 9.94921L32.7492 10.9089C32.6442 11.2388 32.5318 11.5761 32.4343 11.9135C32.4043 11.906 32.3443 11.9885 32.2619 12.1459C32.2169 12.2284 32.1719 12.3258 32.1194 12.4382C32.0894 12.4982 32.0669 12.5582 32.0369 12.6182C32.0219 12.6482 32.0069 12.6858 31.9919 12.7157C31.9769 12.7457 31.962 12.7981 31.9395 12.7981C31.767 12.5507 31.5646 12.2809 31.3546 11.9885C31.1447 11.7036 30.9048 11.3887 30.6499 11.0663C30.5224 10.9089 30.3949 10.7438 30.26 10.5714C30.1325 10.4364 29.9976 10.3014 29.8626 10.1665C29.7277 10.0315 29.5927 9.88921 29.4503 9.74676C29.3453 9.65679 29.2329 9.55923 29.1204 9.46926C29.0079 9.3793 28.8955 9.27442 28.7755 9.18445C28.6555 9.09448 28.5281 9.00443 28.4006 8.91446C28.3406 8.86947 28.2732 8.82454 28.2057 8.77955C28.1382 8.73457 28.0708 8.69714 28.0033 8.65215C27.8683 8.56968 27.7259 8.48714 27.5834 8.39717C27.5159 8.35219 27.4409 8.31477 27.366 8.27728C27.291 8.23979 27.216 8.20219 27.141 8.16471C27.0661 8.12722 26.9911 8.0898 26.9161 8.05232C26.8412 8.01483 26.7662 7.97724 26.6912 7.94725C26.5338 7.87977 26.3838 7.81978 26.2264 7.75231C26.1514 7.72232 26.0689 7.68492 25.9939 7.65493L25.754 7.57237C25.6641 7.54238 25.5666 7.51999 25.4691 7.49C25.3716 7.46751 25.2742 7.42995 25.1767 7.41496C24.9818 7.36997 24.7794 7.32504 24.5844 7.28756C24.4869 7.26506 24.3895 7.25002 24.292 7.23502C24.1945 7.22003 24.1046 7.20499 24.0146 7.18999C23.8347 7.16 23.6622 7.13014 23.5048 7.13014C23.3473 7.12264 23.2049 7.11512 23.0849 7.10762C22.965 7.10013 22.8675 7.09263 22.7925 7.10762C22.65 7.12262 22.6125 7.13749 22.7325 7.16748C22.6875 7.17498 22.7025 7.1825 22.7625 7.18999C22.7925 7.18999 22.8375 7.19751 22.89 7.205C22.9425 7.2125 23.0024 7.22003 23.0774 7.23502C23.2199 7.25751 23.4073 7.28007 23.6247 7.30257C23.8421 7.34005 24.0821 7.39249 24.3445 7.43747C24.3745 7.44497 24.412 7.45249 24.442 7.45998C24.472 7.46748 24.5094 7.47501 24.5394 7.49C24.6069 7.505 24.6744 7.52736 24.7493 7.54235C24.8918 7.57984 25.0343 7.61744 25.1842 7.65493C25.3267 7.69991 25.4766 7.75236 25.6265 7.80484C25.7765 7.85732 25.934 7.90229 26.0839 7.96976C26.3838 8.09722 26.6912 8.20971 26.9836 8.36715C27.126 8.44213 27.276 8.50964 27.4184 8.58461C27.5534 8.66708 27.6958 8.74961 27.8308 8.83209C28.3706 9.15448 28.828 9.51423 29.1803 9.82163C29.2253 9.85911 29.2703 9.89671 29.3078 9.9342C29.3678 9.99418 29.4278 10.0542 29.4803 10.1141C29.5927 10.2266 29.6977 10.339 29.7877 10.4365C29.8852 10.5339 29.9676 10.624 30.0351 10.7065C30.0726 10.744 30.1026 10.7814 30.14 10.8189C30.155 10.8338 30.17 10.8564 30.185 10.8789C30.2 10.9014 30.215 10.9163 30.23 10.9387C30.4474 11.2386 30.4549 11.2987 30.14 10.9763C30.1176 10.9538 30.1026 10.9387 30.0801 10.9237C30.0576 10.9087 30.0351 10.8864 30.0126 10.8714C29.9676 10.8339 29.9151 10.7888 29.8626 10.7438C29.7502 10.6463 29.6227 10.5339 29.4653 10.4065C29.3903 10.339 29.3078 10.264 29.2179 10.189C29.1954 10.1665 29.1729 10.1516 29.1504 10.1291C29.1354 10.1141 29.1204 10.1066 29.1054 10.0991C29.0754 10.0766 29.0454 10.0616 29.0079 10.0391C28.8805 9.95661 28.738 9.85922 28.5806 9.74676C26.9986 8.55466 25.0342 7.78983 23.0474 7.60239C22.0577 7.50493 21.0606 7.54986 20.1084 7.7373C19.1562 7.92473 18.2415 8.25464 17.4018 8.6895C16.5621 9.12435 15.7898 9.66425 15.1151 10.2716C14.4403 10.8788 13.863 11.546 13.3756 12.2358C12.3935 13.6153 11.8386 15.0924 11.5537 16.4045C11.6812 15.4373 11.9436 14.5525 12.2885 13.7353C12.4534 13.3229 12.6634 12.9407 12.8583 12.5583C12.9708 12.3709 13.0832 12.191 13.1957 12.0035C13.2482 11.9061 13.3157 11.8235 13.3756 11.7335L13.5631 11.4712C14.5752 10.0767 15.8498 8.79444 17.7017 7.72979C18.8113 7.17498 20.0334 6.80017 21.3005 6.68021C22.5676 6.56025 23.8571 6.65781 25.1092 6.95771L25.3416 7.01006C25.4166 7.03255 25.4991 7.05511 25.574 7.0776L26.0389 7.22001C26.1964 7.265 26.3463 7.33245 26.4963 7.38494L26.9461 7.55736L27.3885 7.75981L27.6059 7.86488L27.7184 7.91723L27.8233 7.97727L28.2507 8.21724L28.4606 8.33713L29.0679 8.74203C29.1354 8.78701 29.2029 8.83195 29.2629 8.88444L29.4578 9.03453C29.5853 9.1395 29.7127 9.2294 29.8476 9.33436L30.2375 9.68672C30.4999 9.90415 30.7398 10.1891 30.9798 10.444C31.1072 10.5714 31.2122 10.7139 31.3247 10.8489L31.6621 11.2613C31.6696 11.2688 31.677 11.2763 31.677 11.2763L31.6845 11.2463L31.752 11.0663L31.9994 10.3466C32.1269 10.0317 32.2618 9.72431 32.3893 9.40941C32.4568 9.25196 32.5392 9.10944 32.6142 8.95949L32.8317 8.53958C32.9816 8.26967 33.154 8.00721 33.3115 7.7373C33.9863 6.68765 34.796 5.7281 35.7182 4.88089C37.5476 3.18645 39.8043 1.94924 42.211 1.38693C44.6177 0.817119 47.1519 0.937101 49.4911 1.59688C50.6607 1.92677 51.7854 2.39919 52.835 2.98399C53.0899 3.14144 53.3523 3.2913 53.6072 3.44874C53.8547 3.62119 54.1021 3.79376 54.3495 3.95871C54.5894 4.13865 54.8218 4.32608 55.0543 4.51351C55.1742 4.60349 55.2717 4.70086 55.3766 4.79083L55.6766 5.06082C55.774 5.20327 56.0589 5.58551 56.4263 6.04285C56.6063 5.81793 56.7937 5.57807 56.9736 5.35314C57.176 5.13571 57.371 4.91825 57.5359 4.7533C57.5734 4.71582 57.6109 4.6709 57.6484 4.64091C57.6859 4.61092 57.7159 4.58085 57.7459 4.55836C57.8059 4.51338 57.8508 4.47598 57.8733 4.46849C57.9258 4.44599 57.9108 4.49848 57.8059 4.65592C58.0533 4.4385 58.3682 4.08613 58.773 3.73374C58.8705 3.64377 58.9754 3.54622 59.0804 3.45625C59.1929 3.36628 59.3054 3.27641 59.4178 3.18644C59.5303 3.09647 59.6428 2.99892 59.7627 2.90895C59.8827 2.81898 60.0026 2.73662 60.1226 2.65415C60.2425 2.57167 60.3625 2.48164 60.4824 2.39917C60.6024 2.31669 60.7299 2.24918 60.8499 2.1742C61.0898 2.03175 61.3222 1.88928 61.5471 1.78432C61.772 1.67935 61.9745 1.58198 62.1544 1.50701C62.3419 1.43953 62.4918 1.39441 62.6193 1.37192C62.9941 1.17698 63.399 1.02709 63.7964 0.86214C63.9988 0.787165 64.2012 0.727163 64.4112 0.652188L64.7186 0.547303L65.0334 0.46475C65.8732 0.22483 66.7504 0.0974969 67.6351 0.0300193C67.86 0.0225218 68.0775 0.00749751 68.3024 0C68.5273 0 68.7522 0.00751215 68.9696 0.0150097C69.0821 0.0225072 69.1946 0.0150243 69.307 0.0300193L69.9818 0.0898749L70.1467 0.104885L70.3117 0.134904C70.5366 0.172391 70.754 0.209806 70.979 0.247293C71.2039 0.292278 71.4213 0.352412 71.6387 0.404895C71.7512 0.434885 71.8562 0.457275 71.9686 0.487265L72.6135 0.697217C72.7184 0.734705 72.8309 0.764621 72.9358 0.809606L73.5731 1.06459C73.6781 1.10208 73.783 1.15451 73.888 1.207L74.5028 1.50701L75.1026 1.83685C75.2001 1.88934 75.305 1.9493 75.395 2.00928L75.9723 2.38416C76.0698 2.44414 76.1598 2.51162 76.2497 2.5791L76.8045 2.98399L77.067 3.20145L77.3294 3.42623C77.4118 3.5012 77.5093 3.56872 77.5843 3.65119L78.0791 4.12363C78.1616 4.1986 78.2366 4.28845 78.3115 4.37092L78.7764 4.88089C78.8514 4.96336 78.9189 5.06072 78.9863 5.14319C79.1288 5.32313 79.2712 5.49554 79.4062 5.67548C79.5337 5.86292 79.6611 6.05035 79.7885 6.23029C79.8185 6.26778 79.8635 6.34291 79.901 6.3954L80.4258 7.29506C80.5008 7.41502 80.5533 7.54247 80.6133 7.66243L80.8007 8.03731L80.8907 8.22474L80.9582 8.35965L80.9731 8.38216C80.9806 8.38966 80.9807 8.40467 80.9882 8.39717C81.2056 8.15725 81.423 7.91736 81.6404 7.67744C81.7454 7.55748 81.8654 7.44505 81.9778 7.33259L82.3227 6.99505C82.4426 6.88259 82.5476 6.76267 82.6751 6.6652L83.2749 6.18544C83.3799 6.11047 83.4848 6.03547 83.5898 5.96799C84.4295 5.38318 85.3217 4.89573 86.2439 4.54335C87.1661 4.18347 88.1108 3.92872 89.0555 3.77877C90.0002 3.64382 90.9299 3.60621 91.8296 3.65119C91.1548 3.52373 91.1773 3.46372 91.6571 3.42623C91.7771 3.41123 91.927 3.42623 92.092 3.42623C92.2644 3.43373 92.4593 3.44125 92.6768 3.45625C93.1041 3.51623 93.6065 3.56878 94.1463 3.71123C94.2812 3.74122 94.4162 3.77112 94.5586 3.80861C94.6936 3.8536 94.836 3.89871 94.971 3.9437C95.1134 3.98868 95.2559 4.03362 95.3983 4.0786C95.5333 4.13858 95.6758 4.19105 95.8182 4.25103C95.9607 4.31101 96.0956 4.36348 96.2381 4.42346C96.373 4.49093 96.508 4.55843 96.643 4.6259C96.7779 4.69338 96.9128 4.76087 97.0478 4.82835C97.1753 4.90333 97.3027 4.97834 97.4302 5.05331C97.5576 5.12829 97.6851 5.2033 97.8051 5.27828C97.925 5.35325 98.045 5.43559 98.1574 5.51806C98.3823 5.68301 98.6148 5.81805 98.8098 5.983C99.0122 6.14044 99.1996 6.28277 99.3721 6.41773C99.537 6.56018 99.6869 6.69515 99.8219 6.80761C100.054 7.04753 100.272 7.3325 100.519 7.62491C100.647 7.76736 100.759 7.9324 100.879 8.09735C100.939 8.17982 100.999 8.26217 101.066 8.34464C101.126 8.42711 101.194 8.50965 101.254 8.59962C101.734 9.29689 102.191 10.0915 102.588 10.9463C102.963 11.8085 103.263 12.7232 103.458 13.6379C103.496 13.8703 103.533 14.1027 103.578 14.3351L103.601 14.4702V14.5001L103.608 14.5076L103.743 14.6201C103.833 14.6951 103.923 14.7701 104.006 14.8451C104.178 14.9951 104.35 15.1299 104.515 15.2723C104.673 15.4223 104.83 15.5723 104.98 15.7147C105.055 15.7672 105.213 15.8872 105.393 16.0521C105.565 16.217 105.767 16.412 105.947 16.5844C106.037 16.6744 106.127 16.7494 106.202 16.8244C106.277 16.8993 106.337 16.9593 106.39 17.0043C106.487 17.0943 106.525 17.1018 106.472 16.9893C106.367 16.8693 106.277 16.7569 106.172 16.6519C106.075 16.547 105.977 16.4494 105.887 16.3519C105.797 16.2545 105.707 16.1571 105.617 16.0671C105.535 15.9771 105.453 15.8871 105.363 15.8046C105.19 15.6397 105.033 15.4823 104.875 15.3249C104.8 15.2499 104.718 15.1674 104.643 15.0924C104.56 15.0174 104.485 14.9499 104.403 14.8749C104.26 14.74 104.11 14.6125 103.961 14.4775C103.923 14.4476 103.893 14.4177 103.856 14.3802C103.856 14.3727 103.848 14.3727 103.841 14.3652V14.3502L103.833 14.3126L103.826 14.2378C103.811 14.1403 103.803 14.0352 103.788 13.9378C103.773 13.8178 103.758 13.6978 103.743 13.5779C103.728 13.4504 103.691 13.3229 103.661 13.1805C103.601 12.9106 103.548 12.6182 103.443 12.3109C103.481 12.3708 103.526 12.4383 103.563 12.5208C103.608 12.6033 103.638 12.7082 103.676 12.8131C103.713 12.9256 103.751 13.0455 103.788 13.1805C103.826 13.3155 103.878 13.458 103.901 13.6154C103.923 13.7504 103.946 13.8929 103.976 14.0428C103.983 14.1103 103.998 14.1703 104.006 14.2378C104.006 14.2752 104.036 14.2901 104.058 14.3201C104.08 14.3426 104.11 14.3652 104.14 14.3877C104.26 14.4926 104.388 14.6051 104.515 14.7175C104.59 14.785 104.673 14.8525 104.748 14.9275C104.823 15.0024 104.898 15.0775 104.973 15.1524C106.217 16.367 107.492 18.0165 108.459 19.666L108.317 19.4635L108.159 19.2686L107.852 18.8787C107.747 18.7512 107.649 18.6162 107.537 18.4888L107.207 18.1139C108.144 19.381 108.946 20.8355 109.576 22.38C109.659 22.5674 109.734 22.7698 109.801 22.9648C109.876 23.1597 109.944 23.3622 110.018 23.5571C110.153 23.9545 110.273 24.3594 110.393 24.7643L110.551 25.379L110.626 25.6865C110.656 25.7914 110.678 25.8888 110.701 25.9938C110.746 26.1962 110.783 26.4062 110.828 26.6087L110.896 26.916C110.918 27.0209 110.933 27.1258 110.948 27.2233C111.233 28.8653 111.353 30.5149 111.346 32.0894C111.338 33.6639 111.211 35.1708 111.016 36.5654C111.406 35.0209 111.638 33.4238 111.72 31.8119C111.773 33.5738 111.608 35.4482 111.188 37.2926C110.761 39.137 110.108 40.9439 109.254 42.5859C108.392 44.2278 107.349 45.6972 106.247 46.9268C105.7 47.5491 105.145 48.1114 104.583 48.6212C104.515 48.6887 104.448 48.7487 104.38 48.8087C104.313 48.8686 104.238 48.9286 104.17 48.9886C104.035 49.1086 103.901 49.2285 103.766 49.341C103.631 49.4534 103.496 49.566 103.361 49.671C103.293 49.7235 103.233 49.7759 103.166 49.8359C103.098 49.8884 103.031 49.9408 102.971 49.9858C103.031 49.9483 103.098 49.9034 103.158 49.8659C103.218 49.8209 103.286 49.7758 103.346 49.7309C103.473 49.6409 103.601 49.551 103.728 49.461C103.856 49.3711 103.983 49.266 104.11 49.1685C104.238 49.0636 104.373 48.9662 104.5 48.8612C104.755 48.6438 105.018 48.4264 105.265 48.1865C105.393 48.0665 105.52 47.9541 105.64 47.8266C105.76 47.6992 105.887 47.5792 106.007 47.4518C106.487 46.9419 106.952 46.4095 107.372 45.8547C107.477 45.7197 107.589 45.5847 107.687 45.4423C107.784 45.2998 107.882 45.165 107.972 45.0226C108.069 44.8876 108.159 44.7526 108.257 44.6177C108.347 44.4827 108.429 44.3402 108.512 44.2053C108.594 44.0703 108.676 43.9353 108.759 43.8079C108.796 43.7404 108.841 43.6804 108.879 43.6129C108.916 43.5455 108.954 43.478 108.991 43.418C109.134 43.1556 109.269 42.9082 109.404 42.6758C109.531 42.4358 109.636 42.211 109.749 41.9936C109.854 41.7836 109.959 41.5887 110.041 41.4087C110.206 41.0488 110.348 40.7639 110.461 40.5764C110.566 40.389 110.633 40.2991 110.678 40.3291C110.693 40.3666 110.678 40.4865 110.626 40.6665C110.573 40.8464 110.498 41.0788 110.393 41.3712C110.296 41.6561 110.153 41.9785 109.996 42.3384C109.959 42.4284 109.914 42.5182 109.876 42.6082C109.839 42.6982 109.794 42.7957 109.741 42.8857C109.644 43.0732 109.546 43.2606 109.441 43.4555C109.389 43.553 109.336 43.6504 109.284 43.7479C109.231 43.8453 109.171 43.9429 109.111 44.0404C108.991 44.2353 108.871 44.4303 108.751 44.6327L108.661 44.7826L108.564 44.925C108.496 45.0225 108.429 45.1125 108.362 45.21C108.227 45.3975 108.099 45.5849 107.964 45.7723C107.822 45.9523 107.679 46.1247 107.544 46.2896C107.477 46.3721 107.409 46.4544 107.342 46.5369C107.312 46.5744 107.274 46.6195 107.244 46.657C107.207 46.6945 107.177 46.7319 107.139 46.7694C106.862 47.0693 106.607 47.3542 106.375 47.5867C104.845 49.0937 103.181 50.3307 101.404 51.2304C99.6345 52.1301 97.7301 52.6924 95.8182 52.7824C95.5783 52.7899 95.3384 52.7899 95.106 52.7974L94.7461 52.7824C94.6261 52.7749 94.5062 52.7674 94.3862 52.7524C93.9064 52.7074 93.4415 52.625 92.9767 52.5126C92.0545 52.2877 91.1773 51.9352 90.36 51.4853C89.5428 51.0205 88.7855 50.4657 88.1333 49.7909C87.8034 49.4535 87.5035 49.0937 87.2261 48.7038L87.0836 48.4938L86.9862 48.3364C86.9262 48.2314 86.8662 48.119 86.8137 48.0066C86.6338 47.6167 86.5138 47.1892 86.4613 46.7168L86.4538 46.627C86.4463 46.642 86.4389 46.672 86.4314 46.6945L86.3789 46.8444C86.3414 46.9419 86.3039 47.0393 86.2589 47.1367C86.2214 47.2342 86.1689 47.3318 86.1239 47.4292L86.049 47.5792L85.9665 47.7291C85.9065 47.8415 85.8465 47.9465 85.7791 48.0589L85.6741 48.2238L85.5616 48.3965L85.4417 48.5764L85.0668 49.1162L84.8419 49.4085Z" fill="#4CA4DB" fill-opacity="0.7"/>
<path d="M92.9019 53.1272C93.5242 53.2846 94.109 53.3672 94.6413 53.4047C94.7763 53.4122 94.9037 53.4197 95.0312 53.4197C95.1586 53.4197 95.2786 53.4197 95.3985 53.4197C95.5185 53.4197 95.631 53.4122 95.7434 53.4122C95.7959 53.4122 95.8559 53.4122 95.9084 53.4047C95.9608 53.3972 96.0133 53.3972 96.0658 53.3897C96.2758 53.3672 96.4782 53.3521 96.6656 53.3296C96.8531 53.3071 97.033 53.2697 97.198 53.2473C97.2804 53.2323 97.3629 53.2172 97.4454 53.2022C97.4829 53.1947 97.5278 53.1872 97.5653 53.1797C97.6028 53.1722 97.6403 53.1647 97.6778 53.1497C97.8278 53.1122 97.9627 53.0748 98.0977 53.0448C98.3601 52.9848 98.5925 52.9023 98.8024 52.8274C99.0124 52.7524 99.1923 52.6924 99.3572 52.6099C99.5222 52.5349 99.6721 52.4674 99.8146 52.3999C99.957 52.34 100.084 52.2575 100.219 52.19C100.347 52.1225 100.482 52.0475 100.617 51.98C100.752 51.9051 100.887 51.8227 101.037 51.7327C101.337 51.5678 101.666 51.3578 102.094 51.0954C102.304 50.9604 102.536 50.8106 102.791 50.6381C102.919 50.5482 103.054 50.4581 103.196 50.3606C103.263 50.3082 103.338 50.2632 103.413 50.2107C103.488 50.1582 103.563 50.0983 103.638 50.0458C104.253 49.596 104.973 49.011 105.798 48.2238C105.445 48.6886 106.15 48.2239 107.102 47.2342C107.222 47.1143 107.35 46.9868 107.477 46.8444C107.597 46.7019 107.724 46.5594 107.852 46.4019C107.979 46.252 108.114 46.0946 108.242 45.9372C108.362 45.7722 108.489 45.6072 108.609 45.4347C108.729 45.2623 108.864 45.0974 108.977 44.9174C109.089 44.7375 109.201 44.5651 109.314 44.3852C109.366 44.2952 109.426 44.2126 109.479 44.1227C109.509 44.0777 109.531 44.0328 109.561 43.9953C109.584 43.9503 109.614 43.9053 109.636 43.8604C109.734 43.6804 109.831 43.5078 109.921 43.3429C110.566 42.0008 111.173 40.479 111.616 38.957C112.058 37.435 112.343 35.9129 112.463 34.6159C112.575 33.7312 112.65 33.3563 112.71 33.6337C112.748 33.7761 112.748 34.076 112.733 34.5708C112.725 34.6908 112.718 34.8258 112.71 34.9757C112.703 35.1182 112.68 35.2757 112.665 35.4482C112.643 35.6206 112.62 35.8005 112.598 35.9955C112.575 36.1904 112.538 36.3927 112.5 36.6101C112.44 36.8726 112.373 37.1425 112.313 37.4124C112.238 37.6748 112.163 37.9448 112.088 38.2147C112.051 38.3497 112.021 38.4847 111.976 38.6196C111.931 38.7546 111.886 38.8895 111.848 39.0245C111.803 39.1595 111.758 39.2943 111.721 39.4292C111.676 39.5642 111.638 39.6992 111.586 39.8341C111.488 40.104 111.391 40.374 111.286 40.6439C111.241 40.7789 111.181 40.9138 111.128 41.0488C111.068 41.1838 111.016 41.3187 110.956 41.4537C110.896 41.5886 110.843 41.7234 110.783 41.8584C110.723 41.9934 110.656 42.1283 110.596 42.2558C110.469 42.5182 110.349 42.7957 110.214 43.0581C109.666 44.1152 109.036 45.15 108.332 46.1396C108.144 46.3796 107.964 46.6269 107.777 46.8669C107.732 46.9268 107.687 46.9868 107.634 47.0468L106.885 47.9089C106.78 48.0214 106.675 48.1338 106.57 48.2463C106.465 48.3588 106.36 48.4714 106.255 48.5763L105.925 48.8987C105.04 49.7459 104.081 50.5182 103.054 51.1854C102.026 51.8452 100.924 52.3925 99.7846 52.7898C98.645 53.1872 97.4604 53.4271 96.2907 53.487C96.1483 53.4945 95.9984 53.5021 95.8559 53.5021C95.7135 53.5021 95.5635 53.4946 95.4211 53.4946C95.2786 53.4871 95.1361 53.487 94.9937 53.4795C94.8512 53.4645 94.7013 53.4572 94.5588 53.4422C93.9815 53.4047 93.4267 53.2846 92.9019 53.1272Z" fill="#4CA4DB" fill-opacity="0.7"/>
<path d="M112.2 33.5663C112.283 32.0743 112.253 29.585 111.885 27.4633C111.84 27.2008 111.803 26.9384 111.758 26.691C111.705 26.4436 111.66 26.1962 111.615 25.9638C111.593 25.8438 111.57 25.7314 111.548 25.6264C111.525 25.5139 111.495 25.409 111.473 25.3041C111.428 25.0941 111.383 24.8992 111.345 24.7192C111.323 24.6293 111.308 24.5467 111.293 24.4643C111.27 24.3818 111.255 24.3068 111.233 24.2318C111.195 24.0893 111.173 23.9619 111.15 23.8494C111.105 23.632 111.098 23.4972 111.12 23.4597C111.06 23.2423 111.12 23.3022 111.12 23.2197C111.12 23.1373 111.06 22.9049 110.716 22.1176C110.835 22.4325 110.978 22.8299 111.143 23.2723C111.218 23.4972 111.293 23.7371 111.375 23.992C111.413 24.1195 111.458 24.2469 111.495 24.3744C111.533 24.5093 111.57 24.6443 111.608 24.7793C111.923 25.8664 112.17 27.1185 112.32 28.3331C112.335 28.483 112.357 28.6329 112.372 28.7828C112.387 28.9328 112.41 29.0828 112.417 29.2252C112.432 29.5176 112.455 29.81 112.47 30.0874C112.477 30.2298 112.477 30.3648 112.485 30.4998C112.485 30.6347 112.485 30.7697 112.485 30.8972C112.485 31.1596 112.492 31.407 112.47 31.6394C112.455 31.8718 112.44 32.0892 112.425 32.2916C112.417 32.3891 112.41 32.4866 112.402 32.5766C112.395 32.6666 112.38 32.7566 112.365 32.8391C112.305 33.1915 112.253 33.4314 112.2 33.5663Z" fill="#4CA4DB" fill-opacity="0.7"/>
<path d="M111.608 29.7125C111.571 29.8625 111.533 29.7801 111.496 29.5626C111.481 29.4577 111.466 29.3152 111.443 29.1502C111.421 28.9853 111.391 28.7979 111.368 28.6029C111.346 28.408 111.323 28.198 111.293 27.9881C111.263 27.7781 111.226 27.5759 111.196 27.3809C111.166 27.186 111.136 26.9986 111.106 26.8411C111.068 26.6837 111.038 26.5487 111.016 26.4437L110.933 26.0163L110.896 25.7989L110.843 25.5889L110.641 24.7343C110.701 24.9292 110.768 25.1317 110.836 25.3416C110.903 25.5515 110.971 25.7614 111.023 25.9788C111.128 26.4137 111.256 26.856 111.331 27.2984C111.368 27.5158 111.413 27.7408 111.451 27.9507C111.488 28.1682 111.503 28.378 111.533 28.5804C111.556 28.7828 111.578 28.9853 111.593 29.1727C111.601 29.3677 111.608 29.5476 111.608 29.7125Z" fill="#4CA4DB" fill-opacity="0.7"/>
<path d="M101.157 7.25745C100.43 6.40273 100.227 6.22277 100.355 6.29775C100.385 6.32024 100.437 6.35783 100.497 6.40281C100.557 6.4553 100.64 6.51528 100.722 6.59776C100.887 6.7552 101.082 6.94262 101.269 7.13756C101.367 7.22753 101.449 7.3324 101.532 7.42237C101.614 7.51234 101.689 7.60238 101.757 7.67735C101.892 7.8273 101.989 7.92465 102.004 7.93215C102.027 7.93965 101.974 7.85725 101.809 7.63233C101.727 7.51986 101.622 7.37735 101.479 7.19741C101.337 7.01747 101.142 6.80765 100.917 6.56023L101.449 7.13756L101.944 7.74471L102.064 7.89481C102.102 7.94729 102.139 7.99975 102.177 8.05223L102.626 8.69691C102.701 8.80938 102.761 8.92198 102.829 9.03445L102.979 9.61159C103.024 9.80652 103.054 10.0015 103.091 10.1889C102.574 9.13176 101.922 8.14965 101.157 7.25745Z" fill="#4CA4DB" fill-opacity="0.7"/>
<path d="M95.713 3.0664C95.3981 2.97643 95.0832 2.87906 94.7458 2.78909C94.5733 2.7516 94.4009 2.71399 94.2285 2.66901C94.1385 2.64652 94.0485 2.62415 93.9586 2.60915C93.9136 2.60166 93.8686 2.58663 93.8161 2.57913C93.7711 2.57164 93.7186 2.56412 93.6737 2.55662C93.2838 2.49664 92.8714 2.40667 92.3991 2.36918C92.2791 2.35419 92.1592 2.34665 92.0392 2.33166C91.9792 2.32416 91.9192 2.31664 91.8518 2.30914C91.7918 2.30164 91.7243 2.30164 91.6568 2.30164C91.3944 2.28664 91.1245 2.27929 90.8396 2.2643L91.7993 2.19675C91.9042 2.18926 92.0092 2.19675 92.1217 2.19675C92.3391 2.20425 92.564 2.2268 92.8115 2.25679C93.0589 2.29428 93.3138 2.36173 93.6062 2.42171C94.176 2.54917 94.8583 2.759 95.713 3.0664Z" fill="#4CA4DB" fill-opacity="0.7"/>
<path d="M100.166 6.83764C99.7765 6.49276 99.514 6.23031 99.2891 6.05037C99.0717 5.86293 98.9293 5.72059 98.8093 5.60063C98.6819 5.48067 98.5694 5.37572 98.4269 5.24076C98.352 5.17328 98.277 5.10578 98.1795 5.0233C98.082 4.94083 97.9621 4.86579 97.8271 4.76832C97.8721 4.79081 97.9321 4.82089 97.9996 4.85838C98.067 4.89587 98.142 4.9408 98.2245 4.99328C98.3819 5.10575 98.5768 5.24072 98.7718 5.39067C98.8243 5.42816 98.8693 5.46558 98.9217 5.50306C98.9667 5.54805 99.0192 5.58566 99.0717 5.63065C99.1692 5.72062 99.2667 5.80298 99.3716 5.89295C99.4691 5.98292 99.5665 6.06546 99.664 6.15543C99.754 6.2454 99.8364 6.33527 99.9189 6.42524C100.084 6.59768 100.234 6.75522 100.339 6.89018C100.444 7.02513 100.519 7.13001 100.556 7.1825C100.594 7.24248 100.586 7.24999 100.526 7.19751C100.496 7.16752 100.451 7.13009 100.391 7.07011C100.361 7.04012 100.331 7.00271 100.294 6.96522C100.264 6.92024 100.219 6.88263 100.166 6.83764Z" fill="#4CA4DB" fill-opacity="0.7"/>
<path d="M81.9475 9.28927C82.2849 8.8844 82.6523 8.45707 83.0571 7.99972C83.1096 7.93974 83.1546 7.88727 83.2071 7.82729C83.2296 7.7973 83.2596 7.77473 83.282 7.74474L83.3195 7.7074C83.3345 7.6924 83.342 7.68486 83.372 7.66237L83.4095 7.63235L83.4545 7.60233L83.492 7.5648C83.5144 7.54231 83.5445 7.51994 83.567 7.49744C83.6719 7.39998 83.7844 7.30241 83.8968 7.20494C83.9493 7.15246 84.0168 7.10751 84.0768 7.06253C84.1368 7.01754 84.2042 6.96511 84.2717 6.92012C84.4067 6.82265 84.5341 6.71759 84.6766 6.62761C84.819 6.53764 84.969 6.44777 85.1264 6.3503C85.2014 6.30532 85.2764 6.25288 85.3589 6.20789C85.4413 6.16291 85.5238 6.1253 85.6063 6.08031C85.7712 5.99784 85.9361 5.90799 86.1161 5.82551C86.296 5.75054 86.476 5.67553 86.6559 5.60055C86.8359 5.51808 87.0233 5.46558 87.2182 5.3981C87.4057 5.33812 87.6006 5.25565 87.7956 5.21067C87.9905 5.15818 88.1929 5.10573 88.3878 5.05325C88.5903 5.00826 88.7927 4.97065 88.9951 4.92567C89.1001 4.91067 89.1976 4.88081 89.3025 4.86581L89.9173 4.77575C89.9698 4.76826 90.0223 4.76074 90.0748 4.75324L90.2322 4.74573C89.415 4.8357 88.7177 4.97821 88.0954 5.17314C87.938 5.21813 87.788 5.27057 87.6381 5.31555C87.4881 5.37553 87.3457 5.42799 87.2032 5.48047C87.1283 5.51046 87.0608 5.53304 86.9858 5.56303L86.8808 5.60055L86.7759 5.64558C86.6409 5.71306 86.4985 5.77305 86.3635 5.84052C86.296 5.87051 86.2211 5.90042 86.1536 5.9379C86.0861 5.97539 86.0186 6.0128 85.9512 6.05029C85.8162 6.12527 85.6738 6.20028 85.5388 6.27525C85.3963 6.34273 85.2614 6.44027 85.1189 6.53024C84.9765 6.62021 84.834 6.70258 84.6841 6.80004C84.5416 6.90501 84.3992 7.0026 84.2492 7.11506C84.1742 7.16755 84.0918 7.22001 84.0243 7.27999C83.9493 7.33997 83.8744 7.39995 83.7994 7.46742C83.7244 7.5274 83.6419 7.59488 83.567 7.65486L83.4695 7.73723L83.4395 7.75975L83.3945 7.80478L83.327 7.86481C83.2446 7.95478 83.1546 8.04465 83.0646 8.13462C82.6898 8.5095 82.3298 8.8919 81.9475 9.28927Z" fill="#4CA4DB" fill-opacity="0.7"/>
<path d="M26.6088 51.3879C26.6088 51.3204 26.6088 51.2454 26.6013 51.1779L26.5938 51.0803L26.5863 51.0353C26.5788 51.0353 26.5713 51.0578 26.5638 51.0728C26.5188 51.1628 26.4738 51.2604 26.4289 51.3353C26.4064 51.3728 26.3914 51.4102 26.3764 51.4402C26.3689 51.4552 26.3614 51.4702 26.3539 51.4852C26.3464 51.5002 26.3389 51.5153 26.3314 51.5303C26.3839 51.5153 26.4064 51.5378 26.4289 51.5603C26.4438 51.5078 26.4738 51.4328 26.5113 51.3278C26.5188 51.3128 26.5263 51.2978 26.5263 51.2828C26.5263 51.2828 26.5338 51.2828 26.5338 51.2903C26.5413 51.2978 26.5413 51.3053 26.5488 51.3128C26.5713 51.3278 26.5938 51.3579 26.6088 51.3879Z" fill="#4CA4DB" fill-opacity="0.7"/>
<path d="M48.0514 60.2948C48.4637 59.9724 48.5762 59.8524 48.4712 59.8749C48.4188 59.8899 48.3063 59.935 48.1489 60.01C48.0739 60.0475 47.9764 60.0924 47.8789 60.1449C47.7739 60.1899 47.6615 60.2498 47.534 60.3098C47.2866 60.4298 46.9867 60.5573 46.6569 60.6997C46.4919 60.7597 46.312 60.8272 46.132 60.8947C45.9521 60.9621 45.7571 61.0221 45.5547 61.0896C44.7525 61.337 43.8303 61.5394 42.8781 61.6144C42.8031 61.6219 42.7206 61.6369 42.6457 61.6444L42.4057 61.6669C42.2483 61.6819 42.0908 61.6969 41.9334 61.7044C41.6185 61.7194 41.2961 61.7418 40.9812 61.7343C40.6588 61.7418 40.3439 61.7194 40.0215 61.7044C39.8641 61.6969 39.6991 61.6744 39.5417 61.6594C39.3842 61.6444 39.2193 61.6294 39.0619 61.6069L38.582 61.5393L38.1097 61.4495C38.0272 61.4345 37.9522 61.4194 37.8698 61.4044L37.6373 61.3444C37.4799 61.3069 37.3224 61.2695 37.1725 61.2245C36.5502 61.0521 35.9429 60.8421 35.3506 60.6021C32.9739 59.6125 30.8671 58.0232 29.2926 56.0738C28.6103 55.3166 27.9955 54.4918 27.4632 53.6071C28.1455 54.9641 29.1801 56.4786 30.5972 57.8431C32.0142 59.2077 33.8061 60.4373 35.8529 61.232C36.8726 61.6294 37.9597 61.9144 39.0544 62.0718C40.1565 62.2368 41.2736 62.2441 42.3458 62.1317C43.4179 62.0192 44.4526 61.7869 45.4122 61.472C46.3794 61.1496 47.2566 60.7447 48.0514 60.2948Z" fill="#4CA4DB" fill-opacity="0.7"/>
<path d="M0.112638 34.466C0.210105 35.3207 0.390058 36.228 0.734944 37.1502L0.794891 37.3226L0.869893 37.495C0.922376 37.6075 0.967324 37.7274 1.01981 37.8399C1.07229 37.9523 1.1323 38.0648 1.19228 38.1847C1.25226 38.2972 1.30474 38.4171 1.37972 38.5221C1.51467 38.747 1.6496 38.972 1.81454 39.182C1.89701 39.2869 1.97199 39.3993 2.05447 39.5043C2.14444 39.6168 2.24191 39.7292 2.33938 39.8341C2.53431 40.0516 2.74425 40.239 2.96168 40.4265C3.18661 40.6064 3.41152 40.7788 3.65144 40.9288C4.13128 41.2362 4.64861 41.4911 5.19592 41.6785C5.74324 41.8659 6.31308 41.9934 6.91288 42.0459C7.21278 42.0684 7.51265 42.0759 7.82005 42.0609C7.79756 42.0609 7.80509 42.0609 7.80509 42.0609C7.80509 42.0609 7.80505 42.0609 7.81255 42.0534C7.82004 42.0459 7.82756 42.0384 7.83506 42.0459L7.84257 42.0534V42.1434L7.83506 42.2035L7.82005 42.4132C7.79006 42.6982 7.79007 42.9757 7.78257 43.2606C7.79007 43.538 7.79006 43.8153 7.82005 44.0927C7.86504 44.64 7.94752 45.1799 8.06748 45.6973C8.11996 45.9597 8.20245 46.2071 8.26993 46.462C8.3524 46.7094 8.42735 46.9568 8.52482 47.1893C8.50233 47.1068 8.47235 47.0243 8.44986 46.9493C8.42737 46.8668 8.40486 46.7918 8.38987 46.7168C8.35238 46.5669 8.31488 46.4245 8.28489 46.2821C8.2549 46.1396 8.22492 46.0121 8.20243 45.8772C8.17994 45.7497 8.16493 45.6223 8.14244 45.5023C8.11995 45.3824 8.11245 45.2624 8.09746 45.1499C8.08246 45.0375 8.07497 44.9251 8.05998 44.8126C8.05248 44.7001 8.04501 44.595 8.03751 44.4826C8.03001 44.3701 8.0225 44.2652 8.0225 44.1527C8.0225 44.0403 8.0225 43.9353 8.0225 43.8229C8.0225 43.7104 8.03 43.598 8.03 43.478C8.03 43.2456 8.06 42.9982 8.08249 42.7283C8.09749 42.5933 8.11998 42.4583 8.13498 42.3084C8.14248 42.2709 8.14245 42.2335 8.14994 42.196C8.14994 42.1735 8.15745 42.1659 8.15745 42.1509C8.16495 42.1285 8.17246 42.0984 8.17246 42.0684C8.17246 42.0534 8.17996 42.0385 8.17996 42.0235L8.18742 42.001L8.19493 41.986C8.20242 41.971 8.20244 41.9485 8.20994 41.9335C8.21743 41.896 8.23242 41.8511 8.24741 41.8136C8.2924 41.7011 8.35988 41.5211 8.47984 41.3036C8.51732 41.3336 8.47985 41.4986 8.44986 41.7085C8.44236 41.7685 8.42739 41.8285 8.41989 41.896L8.40488 42.001L8.38236 42.2035L8.3674 42.3459C8.3599 42.4509 8.34488 42.5483 8.33738 42.6532C8.32239 42.8557 8.3074 43.0656 8.2999 43.2681C8.26991 44.0928 8.32241 44.9324 8.45737 45.7796C8.59982 46.6268 8.83973 47.4741 9.19211 48.3064C9.37205 48.7187 9.57449 49.131 9.81441 49.5284C10.0468 49.9332 10.3242 50.3157 10.6241 50.6905C10.4742 50.5031 10.3617 50.3307 10.2642 50.1883C10.1668 50.0458 10.0993 49.9259 10.0393 49.8284C9.92687 49.6409 9.88938 49.5359 9.89688 49.5284C9.90437 49.5134 9.96433 49.581 10.0618 49.7085C10.1143 49.7685 10.1743 49.8508 10.2492 49.9408C10.2867 49.9858 10.3242 50.0382 10.3617 50.0907C10.4067 50.1432 10.4517 50.1958 10.4967 50.2483C10.864 50.7056 11.4114 51.2979 12.0861 51.8452C12.7459 52.4 13.5406 52.8724 14.2829 53.2098C14.7552 53.4347 15.2726 53.6446 15.8274 53.7871C16.3822 53.937 16.967 54.042 17.5818 54.1019C18.8039 54.2144 20.1235 54.0944 21.428 53.7346C22.7326 53.3747 24.0297 52.7599 25.1843 51.8827C25.3268 51.7702 25.4692 51.6578 25.6117 51.5453C25.7466 51.4254 25.8741 51.3129 26.009 51.193C26.054 51.148 26.1065 51.0954 26.1515 51.0504C26.1965 51.0054 26.2414 50.9605 26.2789 50.908C26.4439 50.7131 26.5863 50.5032 26.7063 50.2708L26.7438 50.1883C26.7513 50.1733 26.7513 50.1883 26.7513 50.1958V50.2183L26.7588 50.2633C26.7663 50.3233 26.7738 50.3758 26.7813 50.4357C26.7963 50.5482 26.8187 50.6681 26.8412 50.7806C26.8637 50.893 26.8937 51.0055 26.9237 51.1179L26.9762 51.2829C26.9837 51.3129 26.9912 51.3429 27.0062 51.3654L27.0587 51.5153C27.1636 51.8227 27.2986 52.1226 27.4261 52.4225C27.4935 52.5724 27.5685 52.715 27.636 52.8649L27.7409 53.0824L27.8534 53.2921C28.1458 53.8619 28.4907 54.4019 28.8506 54.9192C29.3754 55.609 30.2226 56.6661 31.3622 57.6708C32.4944 58.6754 33.9039 59.62 35.3059 60.2348C36.0032 60.5497 36.693 60.7823 37.3153 60.9548C37.6302 61.0297 37.9226 61.112 38.1925 61.157C38.3274 61.1795 38.4624 61.2021 38.5823 61.2246C38.7098 61.2396 38.8222 61.2546 38.9347 61.2696C39.0472 61.2846 39.1447 61.2921 39.2421 61.2996C39.3396 61.3071 39.4221 61.3071 39.5045 61.3146C39.662 61.3221 39.7819 61.3146 39.8644 61.3146C39.9469 61.3071 39.9844 61.2921 39.9844 61.2696C39.9769 61.2471 39.9319 61.2245 39.8344 61.187C39.9844 61.202 40.1343 61.2096 40.2768 61.2171C40.4192 61.2246 40.5617 61.2321 40.6966 61.2396C40.8316 61.2396 40.9665 61.2396 41.094 61.2396C41.1615 61.2396 41.2215 61.2396 41.2814 61.2396C41.3414 61.2396 41.4089 61.2321 41.4689 61.2321C41.9562 61.2171 42.3911 61.1872 42.7884 61.1422C43.5832 61.0597 44.2205 60.9396 44.8203 60.8122C44.9702 60.7747 45.1202 60.7448 45.2626 60.7073C45.4051 60.6698 45.555 60.6247 45.6975 60.5872C45.8474 60.5497 45.9899 60.5048 46.1323 60.4523C46.2823 60.3998 46.4322 60.3549 46.5822 60.3024C47.1895 60.0775 47.8567 59.785 48.644 59.3277C49.1238 59.0053 49.5737 58.653 50.0085 58.3006C50.4359 57.9332 50.8558 57.5734 51.2456 57.176C51.643 56.7936 52.0029 56.3812 52.3628 55.9763C52.7077 55.5564 53.045 55.1366 53.3449 54.6868L53.5699 54.3569L53.7873 54.0196C53.9372 53.7946 54.0647 53.5621 54.1997 53.3297C54.3346 53.0972 54.4471 52.8574 54.5745 52.6249C54.6795 52.4075 54.777 52.19 54.8819 51.9726C55.0469 51.6427 55.1518 51.3504 55.2118 51.148L55.2193 51.1329L55.2493 51.193L55.2943 51.2754C55.3243 51.3278 55.3467 51.3803 55.3767 51.4328C55.4292 51.5377 55.4817 51.6278 55.5267 51.7103C55.5792 51.7927 55.6167 51.8753 55.6616 51.9427L55.6767 51.9651L55.6842 51.9801V51.9876C55.6692 51.9726 55.6767 51.9801 55.6842 51.9876L55.8566 52.19C55.9765 52.325 56.089 52.4675 56.2165 52.5949C56.6963 53.1272 57.2211 53.6296 57.7759 54.1094C58.3308 54.5893 58.9156 55.0392 59.5379 55.444C60.7825 56.2687 62.1545 56.966 63.6465 57.4683C65.1385 57.9706 66.743 58.293 68.4299 58.353C68.2425 58.3904 68.4674 58.4656 68.9473 58.5181C69.4271 58.578 70.1693 58.6079 71.0016 58.5704C71.8338 58.5329 72.7635 58.413 73.6107 58.2331C74.4579 58.0531 75.2226 57.8282 75.77 57.6407C76.3623 57.4383 77.0446 57.176 77.7643 56.8311C78.4841 56.4862 79.2413 56.0738 79.9761 55.5864C80.7183 55.1066 81.4456 54.5593 82.1129 53.9745C82.7801 53.3897 83.3949 52.7748 83.9348 52.16C84.0622 52.0026 84.1972 51.8602 84.3171 51.7028C84.4371 51.5528 84.557 51.4028 84.6695 51.2528C84.8869 50.9529 85.0969 50.6756 85.2768 50.3982C85.4642 50.1283 85.6142 49.8734 85.7566 49.6409C85.8916 49.4085 86.0041 49.191 86.094 49.0111L86.1091 48.9811L86.1165 48.9661V48.9512C86.1165 48.9437 86.1165 48.9362 86.1165 48.9287C86.1165 48.9137 86.1165 48.8912 86.1165 48.8762C86.1165 48.8462 86.109 48.8086 86.1015 48.7861C86.0791 48.7411 86.0491 48.7038 85.9591 48.7488C85.9366 48.7713 85.9141 48.7937 85.8916 48.8162C85.8841 48.8236 85.8916 48.8162 85.8766 48.8312L85.8541 48.8687L85.8016 48.9362C85.7716 48.9812 85.7342 49.0336 85.7042 49.0786C85.6367 49.1761 85.5692 49.2735 85.5018 49.3785C85.4268 49.4759 85.3593 49.581 85.2843 49.686C84.9919 50.1058 84.6545 50.5482 84.2946 51.0055C83.9272 51.4629 83.5224 51.9351 83.08 52.4C82.6377 52.8648 82.1579 53.3297 81.6405 53.7796C81.1232 54.2219 80.5759 54.6568 79.9986 55.0541C79.4213 55.4515 78.814 55.8188 78.1917 56.1412C76.9471 56.786 75.6425 57.2659 74.3904 57.5208C74.1205 57.5733 73.8806 57.6258 73.6557 57.6557C73.4382 57.6932 73.2358 57.7233 73.0634 57.7383C72.8909 57.7533 72.741 57.7681 72.606 57.7831C72.4786 57.7906 72.3661 57.7982 72.2836 57.7982C71.9313 57.8056 71.9163 57.7833 72.1337 57.7308C72.2387 57.7008 72.4111 57.6707 72.6285 57.6332C72.7335 57.6107 72.8535 57.5884 72.9884 57.5584C73.0559 57.5434 73.1233 57.5283 73.1908 57.5133C73.2583 57.4983 73.3333 57.4758 73.4083 57.4608C74.0081 57.3258 74.7503 57.1159 75.5375 56.8384C76.3248 56.5535 77.157 56.1937 77.9368 55.7739C78.7165 55.3615 79.4513 54.8891 80.0661 54.4393C80.6809 53.9819 81.1832 53.5547 81.5206 53.2173C81.6031 53.1348 81.6855 53.0598 81.7455 52.9923C81.8055 52.9248 81.8654 52.8574 81.9029 52.8049C81.9854 52.6999 82.0304 52.6324 82.0154 52.6099C81.9104 52.7224 81.8055 52.8198 81.693 52.9173C81.5805 53.0147 81.4681 53.0973 81.3481 53.1873C81.2281 53.2772 81.1082 53.3673 80.9657 53.4572C80.8233 53.5472 80.6808 53.6521 80.5084 53.7571C80.171 53.967 79.7736 54.2295 79.2563 54.5443C78.739 54.8592 78.1092 55.2491 77.277 55.6765C78.1617 55.2266 78.739 54.8368 79.1139 54.5744C79.4887 54.3045 79.6612 54.1544 79.6986 54.0944C79.7361 54.0344 79.6387 54.072 79.4588 54.162C79.3688 54.207 79.2638 54.2594 79.1363 54.3194C79.0089 54.3794 78.8814 54.4544 78.7315 54.5218C78.1542 54.8142 77.4569 55.1066 77.1195 55.204C76.9471 55.249 76.8721 55.249 76.9471 55.189C77.022 55.1216 77.2395 54.9792 77.6593 54.7243C76.6772 55.2191 75.7924 55.549 75.0127 55.7889C74.2255 56.0288 73.5432 56.1787 72.9434 56.2761C71.7438 56.4636 70.8966 56.4787 70.1843 56.4412C70.0943 56.4337 70.0119 56.4337 69.9219 56.4262C69.8394 56.4187 69.757 56.4112 69.6745 56.4037C69.5095 56.3887 69.3521 56.3737 69.1947 56.3512C69.0372 56.3287 68.8798 56.3061 68.7223 56.2836C68.5649 56.2537 68.4074 56.2237 68.2425 56.1863C67.5902 56.0438 66.8479 55.8414 65.8433 55.459C64.6212 55.1516 63.804 54.8667 63.2341 54.6717C62.6643 54.4693 62.3269 54.3644 62.0945 54.3119C61.8546 54.2594 61.7271 54.2518 61.5622 54.2368C61.4797 54.2293 61.3898 54.207 61.2773 54.177C61.1649 54.147 61.0299 54.0945 60.8574 54.0196C59.5528 53.2848 58.4207 52.3924 57.4835 51.4103C57.3636 51.2903 57.2511 51.1628 57.1387 51.0354L56.9737 50.8479C56.9512 50.8255 56.9063 50.7655 56.8688 50.7281L56.7638 50.6007C56.6963 50.5107 56.6213 50.4281 56.5538 50.3382C56.4864 50.2482 56.4114 50.1658 56.3439 50.0684C56.209 49.8809 56.074 49.686 55.939 49.4985C55.6766 49.1012 55.4067 48.6887 55.1443 48.2688C55.0094 48.0589 54.8819 47.8491 54.762 47.6392L54.5745 47.3242L54.4771 47.1667L54.4546 47.1292C54.4471 47.1217 54.4396 47.0917 54.4321 47.0992H54.4021C54.3346 47.4741 54.2671 47.8415 54.1772 48.2538C54.1322 48.4563 54.0947 48.6587 54.0497 48.8612C54.0047 49.0636 53.9597 49.2661 53.9148 49.476C53.8698 49.686 53.8173 49.8734 53.7648 50.0684L53.6823 50.3607C53.6523 50.4581 53.6299 50.5632 53.5924 50.6457L53.3899 51.193L53.3374 51.3279C53.3299 51.3504 53.3224 51.3804 53.3149 51.3879L53.2924 51.4328L53.21 51.6127C53.0001 52.1 52.7451 52.565 52.4827 53.0298C52.3403 53.2548 52.2128 53.4871 52.0553 53.712C51.9804 53.8245 51.9129 53.9369 51.8304 54.0494C51.7555 54.1619 51.673 54.2745 51.598 54.3794C51.703 54.177 51.7705 54.027 51.808 53.9145C51.8454 53.802 51.8529 53.742 51.8304 53.7196C51.7929 53.6746 51.6655 53.7945 51.4405 54.0344C51.3881 54.0944 51.3281 54.1619 51.2606 54.2368C51.1931 54.3118 51.1182 54.3868 51.0432 54.4768C50.9607 54.5593 50.8857 54.6568 50.7958 54.7468C50.7058 54.8443 50.6083 54.9417 50.5109 55.0466C50.106 55.459 49.6112 55.9389 49.0189 56.4112C48.4341 56.8836 47.7518 57.3633 47.0095 57.7756C46.2673 58.1955 45.4576 58.5555 44.6403 58.8329C43.8156 59.1028 42.9759 59.2827 42.1811 59.3727C41.3864 59.4627 40.6292 59.4552 39.9694 59.3952C39.1147 59.3052 38.4474 59.1628 37.9076 59.0278C37.7726 58.9979 37.6526 58.9528 37.5327 58.9228C37.4127 58.8853 37.3003 58.8629 37.2028 58.8329C37.0004 58.7654 36.8129 58.7205 36.6555 58.668C36.498 58.6155 36.3631 58.5704 36.2356 58.5329C36.1157 58.4954 36.0032 58.458 35.9057 58.428C35.8083 58.398 35.7183 58.3755 35.6358 58.353C35.5534 58.3305 35.4784 58.3081 35.3959 58.2856C35.2385 58.2406 35.0735 58.1956 34.8711 58.1132C34.7661 58.0682 34.6611 58.0231 34.5262 57.9631C34.3987 57.9031 34.2563 57.8283 34.0989 57.7383C33.7765 57.5584 33.3866 57.3034 32.8992 56.9285C32.4119 56.5461 31.8421 56.0439 31.2048 55.3241C30.9199 54.9417 30.7999 54.7392 30.7924 54.6717C30.7849 54.6418 30.8074 54.6418 30.8524 54.6717C30.8974 54.7017 30.9574 54.7617 31.0474 54.8442C31.3773 55.1666 32.037 55.8114 32.7268 56.3437C33.4166 56.8835 34.1288 57.3108 34.4212 57.4233C34.5637 57.4833 34.6011 57.4684 34.4812 57.3484C34.3612 57.236 34.0838 57.011 33.634 56.6212C33.4015 56.4637 33.1841 56.2912 32.9667 56.1187C32.8543 56.0287 32.7493 55.9389 32.6443 55.8489L32.4869 55.7138L32.3294 55.5714C31.9095 55.1965 31.5272 54.7843 31.1523 54.3644C31.0548 54.2669 30.9648 54.1694 30.8674 54.0794C30.7774 53.9819 30.6875 53.8846 30.605 53.7871C30.56 53.7421 30.515 53.6897 30.47 53.6447L30.3426 53.4946C30.2601 53.3971 30.1776 53.2997 30.0952 53.2023C29.7803 52.7974 29.4654 52.3926 29.1955 51.9427C29.0455 51.7253 28.9256 51.4853 28.7906 51.2453C28.7231 51.1254 28.6706 50.9979 28.6032 50.8705L28.5807 50.8181L28.5432 50.7431C28.5207 50.6981 28.5057 50.6456 28.4832 50.6007C28.4457 50.5032 28.4157 50.4056 28.3783 50.3006C28.3408 50.2032 28.3108 50.1058 28.2733 50.0008C28.2583 49.9483 28.2358 49.9034 28.2208 49.8509C28.2058 49.8059 28.1833 49.7535 28.1758 49.6935C28.1233 49.4836 28.0708 49.266 28.0108 49.0411C27.9808 48.9361 27.9584 48.8162 27.9359 48.7038C27.9134 48.5913 27.8909 48.4789 27.8684 48.3589C27.8459 48.2464 27.8234 48.134 27.8009 48.014C27.7784 47.9016 27.7634 47.7815 27.7409 47.669C27.7259 47.5341 27.7034 47.3917 27.6884 47.2493C27.666 47.1068 27.6585 46.9718 27.6435 46.8294C27.6285 46.6869 27.6135 46.5444 27.5985 46.3945L27.591 46.3419V46.3121C27.591 46.3046 27.591 46.3046 27.591 46.2971H27.4935L27.4035 46.477C27.3735 46.537 27.3436 46.597 27.3061 46.6645C27.2386 46.7919 27.1711 46.9194 27.0962 47.0468C26.9612 47.3018 26.8112 47.5567 26.6688 47.7966C26.5263 48.044 26.3839 48.2614 26.2489 48.4863C26.114 48.6962 25.9865 48.8762 25.8666 49.0561C25.8066 49.1536 25.7466 49.2136 25.6941 49.2811C25.6341 49.3486 25.5816 49.4085 25.5292 49.4685C25.4767 49.5285 25.4317 49.5885 25.3792 49.6334C25.3343 49.6784 25.2892 49.7234 25.2443 49.7608C25.0793 49.9108 24.9744 50.0008 24.9519 50.0008C25.0494 49.9033 25.1393 49.806 25.2218 49.7085C25.2668 49.6635 25.3042 49.6184 25.3492 49.5734C25.3867 49.5284 25.4242 49.4685 25.4692 49.4235C25.5442 49.326 25.6191 49.2286 25.6866 49.1387C25.7241 49.0937 25.7541 49.0486 25.7841 49.0036C25.8141 48.9511 25.8441 48.8987 25.8741 48.8462C25.994 48.6362 26.099 48.4563 26.1964 48.2839C26.2939 48.0964 26.3764 47.9315 26.4514 47.7891C26.5938 47.5042 26.6913 47.2867 26.7288 47.1667C26.7738 47.0468 26.7588 47.0167 26.6988 47.0917C26.6388 47.1667 26.5189 47.3242 26.3464 47.5941C26.2639 47.7216 26.159 47.8939 26.054 48.0514C25.9415 48.2163 25.8216 48.4038 25.6866 48.6137C25.5517 48.7861 25.3942 48.9586 25.2368 49.161C25.2143 49.1835 25.1993 49.2136 25.1768 49.2361C25.1543 49.2585 25.1318 49.2811 25.1093 49.2961C25.0643 49.3411 25.0193 49.386 24.9744 49.4235C24.8844 49.5135 24.7869 49.6035 24.6894 49.701C24.6819 49.7085 24.6595 49.7308 24.652 49.7308L24.6295 49.7458L24.5845 49.7834C24.5545 49.8059 24.517 49.8359 24.487 49.8584C24.4196 49.9109 24.3596 49.9633 24.2846 50.0158C24.1421 50.1208 23.9997 50.2332 23.8348 50.3307C23.2799 50.788 22.89 51.0279 22.5826 51.2153C22.2677 51.3953 22.0354 51.5378 21.7205 51.7028C22.4777 51.5078 22.9351 51.3128 23.1675 51.2378C23.3999 51.1554 23.4149 51.1854 23.2499 51.3054C23.085 51.4253 22.7401 51.6202 22.2528 51.8377C21.7579 52.0551 21.1132 52.2725 20.3634 52.4225C20.2734 52.445 20.176 52.46 20.0785 52.475C19.981 52.49 19.8836 52.5051 19.7861 52.5201C19.5837 52.5425 19.3812 52.5724 19.1788 52.5799C18.7664 52.6174 18.3316 52.6099 17.8967 52.5874C17.027 52.5349 16.1348 52.3475 15.3251 52.0326C15.2276 51.9951 15.1227 51.9502 15.0252 51.9127C14.9277 51.8677 14.8302 51.8226 14.7328 51.7776C14.6353 51.7326 14.5453 51.6802 14.4479 51.6352C14.3579 51.5827 14.2604 51.5378 14.1705 51.4853C14.0805 51.4328 13.9905 51.3804 13.908 51.3279C13.8181 51.2754 13.7356 51.2155 13.6531 51.163C13.4807 51.0505 13.3307 50.9306 13.1733 50.8181C12.566 50.3383 12.0787 49.8358 11.6963 49.4085C11.3064 48.9286 10.9915 48.4489 10.7291 47.969C10.6691 47.8491 10.6016 47.7366 10.5492 47.6167C10.4967 47.4967 10.4367 47.3843 10.3842 47.2718C10.2868 47.0394 10.1893 46.8143 10.1143 46.5894C10.0918 46.5369 10.0768 46.477 10.0543 46.4245C10.0393 46.372 10.0243 46.312 10.0019 46.2596C9.97186 46.1546 9.93437 46.0422 9.90438 45.9372C9.8519 45.7273 9.79941 45.5248 9.76193 45.3224C9.67945 44.925 9.63446 44.5576 9.61197 44.2128C9.55948 43.523 9.60449 42.9381 9.67946 42.4433C9.68696 42.4133 9.68693 42.3834 9.69443 42.3534C9.70193 42.3159 9.70944 42.2858 9.71694 42.2483C9.73194 42.1734 9.74693 42.1059 9.76193 42.0384C9.77692 41.9709 9.79191 41.9036 9.80691 41.8361C9.8219 41.7686 9.84441 41.7011 9.8669 41.6262C9.90439 41.4912 9.94935 41.3562 9.98684 41.2213C10.0468 41.0863 10.0993 40.9513 10.1518 40.8164C10.1518 40.7564 10.1443 40.6964 10.1518 40.6439C10.1593 40.5915 10.1593 40.539 10.1668 40.4865C10.1743 40.3816 10.1743 40.284 10.1893 40.1865C10.2043 40.0965 10.2193 40.0142 10.2343 39.9317C10.2418 39.8867 10.2492 39.8491 10.2492 39.8041C10.2567 39.7666 10.2718 39.7292 10.2793 39.6917C10.3017 39.6168 10.3167 39.5418 10.3317 39.4743C10.3467 39.4068 10.3767 39.3393 10.3992 39.2793C10.4067 39.2494 10.4217 39.2194 10.4292 39.182L10.4442 39.1369C10.4367 39.1444 10.4217 39.1595 10.4142 39.167C10.3692 39.2119 10.3317 39.2494 10.2793 39.2868C10.1518 39.3768 10.0093 39.4443 9.7994 39.4518C9.58198 39.4593 9.31206 39.4069 8.80973 39.1895C8.71976 39.2494 8.6298 39.3019 8.53983 39.3619C8.45736 39.3919 8.38238 39.4143 8.2999 39.4368C8.13496 39.5042 7.985 39.5043 7.82005 39.5268C7.79756 39.5268 7.7826 39.5343 7.7601 39.5343H7.62511C7.58012 39.5343 7.53514 39.5343 7.49016 39.5343C7.40019 39.5268 7.30272 39.5268 7.20525 39.5118C7.01031 39.4893 6.80041 39.4592 6.57549 39.4067C6.35806 39.3543 6.12565 39.2869 5.88573 39.197C5.41338 39.0095 4.90351 38.7395 4.43867 38.3346C4.31871 38.2372 4.20627 38.1248 4.09381 38.0048C4.04133 37.9448 3.98883 37.8848 3.93635 37.8174C3.88387 37.7499 3.8314 37.6749 3.77142 37.6074C3.74143 37.5699 3.71891 37.54 3.68892 37.5025C3.66642 37.465 3.63645 37.4274 3.61396 37.3825C3.56148 37.3075 3.50898 37.2251 3.4565 37.1427C3.41151 37.0602 3.35903 36.9702 3.31404 36.8877C3.29155 36.8427 3.26158 36.7978 3.23909 36.7603C3.21659 36.7153 3.19413 36.6702 3.17163 36.6252C3.29909 37.0675 3.37405 37.2926 3.34406 37.3376C3.32907 37.3601 3.29156 37.3451 3.23158 37.2851C3.1791 37.2251 3.10414 37.12 3.01417 36.9851C2.96918 36.9176 2.9242 36.8352 2.87922 36.7453C2.83423 36.6553 2.78174 36.5577 2.72926 36.4453C2.68428 36.3328 2.63178 36.2129 2.5793 36.0929C2.53432 35.9654 2.48934 35.8305 2.44435 35.6805C2.26441 35.1032 2.12947 34.3836 2.08449 33.5888C2.0395 32.7941 2.062 31.9243 2.18196 31.0396C2.19695 30.9271 2.21195 30.8222 2.22694 30.7097L2.28689 30.3799C2.32437 30.155 2.36188 29.9374 2.39937 29.7125L2.42934 29.5476L2.46687 29.3827C2.48936 29.2702 2.51933 29.1653 2.54182 29.0603C2.59431 28.8429 2.6393 28.6254 2.69178 28.4155C3.14163 26.721 3.75641 25.2141 4.22126 24.217C4.31872 24.007 4.43868 23.8196 4.54364 23.6321C4.64861 23.4447 4.7536 23.2648 4.85107 23.0923C5.061 22.755 5.27093 22.4549 5.45836 22.1625C5.54833 22.02 5.65326 21.8852 5.75073 21.7578C5.8482 21.6303 5.94567 21.5028 6.03564 21.3829C6.13311 21.2629 6.21558 21.143 6.31305 21.0305C6.41051 20.9181 6.50049 20.813 6.59795 20.708C7.33271 19.8608 8.05998 19.2011 9.04965 18.3914C9.13962 18.3014 9.24458 18.1888 9.37204 18.0689C9.43202 18.0089 9.49951 17.9414 9.56698 17.8739C9.63446 17.8064 9.71692 17.7464 9.7919 17.6715C9.94935 17.5365 10.1143 17.3942 10.2793 17.2442C10.3617 17.1693 10.4442 17.0943 10.5341 17.0268C10.6241 16.9593 10.7141 16.8918 10.7966 16.8243C10.969 16.6894 11.1415 16.5544 11.2989 16.427C11.3814 16.3595 11.4564 16.307 11.5388 16.2545C11.6138 16.202 11.6888 16.1496 11.7562 16.0971C12.0337 15.8947 12.2361 15.7372 12.3111 15.6547C12.0486 15.7147 11.6963 15.8271 11.2539 15.9995C11.0365 16.082 10.8116 16.2021 10.5567 16.3296C10.4292 16.397 10.3017 16.457 10.1668 16.532C10.0318 16.5995 9.89687 16.6893 9.75442 16.7718C8.6223 17.4316 7.26523 18.4364 5.89319 19.8834C5.72074 20.0633 5.54834 20.2508 5.3684 20.4382C5.20345 20.6331 5.03102 20.8354 4.85857 21.0453C4.7761 21.1503 4.6861 21.2554 4.59613 21.3604C4.51366 21.4653 4.43117 21.5778 4.3487 21.6902C4.18376 21.9151 4.01133 22.14 3.84638 22.3724C3.2016 23.3171 2.5643 24.3669 2.00948 25.529C1.46217 26.6911 0.982336 27.9656 0.614958 29.3301C0.255077 30.6872 -0.00734085 32.1791 0.00015666 33.7836C0.0601367 34.1735 0.0976426 34.4735 0.112638 34.466Z" fill="#4CA4DB" fill-opacity="0.7"/>
<path d="M46.3724 18.114C46.2525 18.2189 46.065 18.324 45.9001 18.3765C45.7426 18.4364 45.6152 18.4439 45.6002 18.3389L45.4802 18.2789C45.5402 18.2414 45.6452 18.1739 45.7651 18.1065C45.8851 18.039 46.0201 17.9715 46.14 17.9265C46.3799 17.8366 46.5374 17.8366 46.3724 18.114Z" fill="#4CA4DB" fill-opacity="0.7"/>
<path d="M47.6316 20.3778L47.7288 20.3703C47.6316 20.3778 47.5043 20.4301 47.4295 20.475C47.3771 20.4002 47.4669 20.2281 47.6465 20.1757C47.654 20.258 47.5043 20.3479 47.6316 20.3778Z" fill="#4CA4DB" fill-opacity="0.7"/>
<path d="M42.7885 22.1925C42.9609 22.4174 43.5008 22.4025 43.9581 22.2675C44.0406 22.4025 44.1306 22.545 44.2206 22.6799C44.0406 22.7249 43.8832 22.8824 43.7407 23.0773C43.6732 23.1748 43.6057 23.2872 43.5383 23.3922C43.5083 23.4447 43.4708 23.4971 43.4408 23.5496C43.4108 23.6021 43.3808 23.6545 43.3508 23.707C43.3358 23.9094 43.7032 23.4371 43.5533 23.8644C43.4708 23.8719 43.3883 23.7746 43.3058 23.8346C43.2534 24.037 43.3283 24.1419 43.3508 24.2768C43.3658 24.3443 43.3658 24.4268 43.3358 24.5318C43.3208 24.5843 43.2908 24.6443 43.2533 24.7117C43.2309 24.7417 43.2159 24.7791 43.1859 24.8166C43.1484 24.8841 43.1034 24.9666 43.0584 25.0491C42.9235 25.1616 42.7885 25.2665 42.6611 25.3564L42.5786 25.5364L42.5336 25.6264L42.4961 25.7388C42.4436 25.8888 42.3987 26.0313 42.3462 26.1812C42.2487 26.4811 42.1437 26.781 42.0538 27.1109C41.9563 27.4408 41.8588 27.7707 41.7689 28.1081C41.6789 28.4455 41.5814 28.7753 41.4915 29.1127L41.409 29.0528C41.379 29.0303 41.349 28.9852 41.319 28.9478L41.1315 28.7303C41.0041 28.5804 40.8767 28.4305 40.7492 28.2881C40.4943 27.9882 40.2243 27.6733 39.9619 27.3509C39.6995 27.0285 39.4371 26.6985 39.1822 26.3687C39.0548 26.2037 38.9348 26.0463 38.8073 25.8814C38.7474 25.7989 38.6874 25.7239 38.6274 25.6414L38.4925 25.4615C38.485 25.4465 38.4849 25.4465 38.4774 25.439L38.4699 25.424C38.125 25.3865 37.6752 24.8091 37.2628 24.6367L37.3453 24.5243C37.1729 24.5318 37.0679 24.4118 36.9555 24.2768C36.8505 24.1344 36.753 23.9844 36.6256 23.9019L36.4831 23.6396C36.5056 23.5122 36.6781 23.602 36.8505 23.677C37.0154 23.752 37.1804 23.8121 37.1879 23.6021C37.0979 23.4672 36.9854 23.3771 36.873 23.3171C36.753 23.2496 36.6331 23.2197 36.5131 23.1822C36.2732 23.1147 36.0482 23.0698 35.8833 22.8449C35.6809 22.7099 35.5684 22.6875 35.4709 22.695C35.3735 22.7024 35.2985 22.7325 35.1485 22.7175C35.0286 22.8224 35.186 22.8748 35.1036 23.0173C34.6237 22.8823 34.4213 22.6724 34.2038 22.4625C33.9864 22.2526 33.754 22.0426 33.2817 22.0726C33.2742 22.1026 33.2217 22.14 33.1617 22.1925C33.1018 22.245 33.0342 22.2974 32.9893 22.3574C32.8993 22.4699 32.9068 22.59 33.2067 22.6574C33.3042 22.6124 33.4016 22.56 33.4991 22.515C33.5666 22.575 33.6265 22.6275 33.6865 22.6874C33.4616 22.665 33.0568 22.6649 33.1092 22.8299C33.0718 22.7699 33.0193 22.725 32.9593 22.71C32.8993 22.695 32.8318 22.695 32.7643 22.71C32.6969 22.7175 32.6219 22.7548 32.5619 22.7923C32.5319 22.8073 32.4944 22.8299 32.4644 22.8449C32.4344 22.8674 32.4045 22.8899 32.382 22.9049C32.3295 22.9424 32.2845 22.9723 32.247 23.0023C32.217 23.0248 32.1945 23.0398 32.1721 23.0323C32.1571 23.0248 32.1495 23.0022 32.1495 22.9422C32.157 22.8898 32.157 22.7999 32.202 22.6874C32.2995 22.6949 32.382 22.6949 32.4495 22.6874C32.5169 22.6874 32.5694 22.6799 32.6219 22.6574C32.6669 22.6349 32.7119 22.6124 32.7643 22.5749C32.8093 22.5374 32.8618 22.4924 32.9143 22.425C32.6894 22.44 32.472 22.4475 32.2695 22.485C32.217 22.4925 32.1645 22.5 32.1121 22.5075C32.0671 22.515 32.0146 22.5299 31.9696 22.5374C31.9246 22.5523 31.8721 22.5524 31.8272 22.5674C31.7822 22.5824 31.7297 22.5974 31.6847 22.6124C31.3098 22.7324 30.9574 22.9348 30.6875 23.2122C30.6875 23.3172 30.71 23.4296 30.725 23.5271C30.6351 23.4596 30.4926 23.4671 30.3502 23.5421C30.2077 23.6096 30.0577 23.7445 29.9453 23.9019C29.9303 23.9844 29.9003 24.0744 29.8853 24.1419C29.8778 24.2094 29.8853 24.2543 29.9528 24.2543C29.9828 24.2843 30.0202 24.2244 30.0877 24.1344C30.1177 24.0894 30.1552 24.037 30.1927 23.9845C30.2377 23.932 30.2827 23.8796 30.3201 23.8346C30.3426 23.8121 30.3576 23.7895 30.3801 23.767C30.4026 23.752 30.4251 23.7295 30.4476 23.722C30.4926 23.692 30.5301 23.677 30.5601 23.677C30.6276 23.677 30.665 23.752 30.665 23.9245C30.4176 24.2019 30.2152 24.5167 30.0578 24.8316C29.9003 25.1465 29.7953 25.4689 29.6978 25.7763C29.6679 25.6864 29.6379 25.5965 29.6154 25.514C29.6004 25.4241 29.5854 25.3415 29.5629 25.259C29.5479 25.1691 29.5329 25.0865 29.4954 24.9815C29.4655 24.8841 29.4279 24.7717 29.3679 24.6442C29.3679 24.2393 29.4879 23.8121 29.6904 23.4297C29.8928 23.0473 30.1777 22.7023 30.5076 22.4024C30.8375 22.11 31.2049 21.8626 31.6022 21.6677C31.9996 21.4728 32.4119 21.3304 32.8393 21.1954C32.8768 21.2704 33.0117 21.3229 33.1167 21.3679C33.2217 21.4204 33.2967 21.4803 33.2367 21.5628C33.3117 21.6228 33.4541 21.6152 33.5891 21.6377C33.724 21.6602 33.8515 21.6902 33.889 21.8176C34.1964 21.7951 34.5188 21.8252 34.8412 21.8927C35.1636 21.9676 35.4785 22.0801 35.7859 22.215C36.0858 22.3575 36.3706 22.5225 36.6405 22.695C36.903 22.8749 37.1429 23.0548 37.3678 23.2348C37.3678 22.9798 37.5477 23.0247 37.7727 23.1597C37.9976 23.2947 38.26 23.5196 38.4325 23.5721C38.5374 23.9095 38.9648 24.2319 39.2347 24.5168C39.2722 24.5093 39.3396 24.5468 39.3996 24.5693C39.4596 24.5918 39.5121 24.5993 39.5346 24.5393C39.3097 24.3669 39.2946 24.2169 39.1147 23.977C39.2647 23.917 39.3771 24.037 39.4896 24.217C39.6095 24.4119 39.6695 24.5993 39.7895 24.7568C39.7145 24.7568 39.6321 24.7492 39.5496 24.7343C39.662 24.8692 39.767 25.0341 39.872 25.2365C39.9844 25.454 40.1044 25.679 40.2244 25.8964C40.3518 26.1288 40.4868 26.3612 40.6217 26.5486C40.7567 26.7285 40.8842 26.8634 40.9816 26.8634C40.9067 26.691 40.8392 26.5186 40.7717 26.3612C40.7042 26.2037 40.6442 26.0537 40.5917 25.9112C40.6667 25.9712 40.7342 26.0537 40.8092 26.1437C40.8466 26.1887 40.8841 26.2411 40.9216 26.3011L40.9816 26.3837C40.9816 26.3912 40.9891 26.3837 40.9891 26.3837L40.9966 26.3762L41.0041 26.3612L41.0191 26.3236C41.0716 26.2112 41.1166 26.1062 41.1616 25.9938C41.2065 25.8813 41.2665 25.7689 41.319 25.6414C41.3715 25.5215 41.409 25.3865 41.4465 25.2515C41.484 25.1166 41.499 24.9816 41.499 24.8391C41.4315 24.9216 41.3715 25.034 41.319 25.1615C41.2665 25.2889 41.2215 25.4239 41.1765 25.5364C41.1315 25.6488 41.0941 25.7388 41.0566 25.7463C41.0191 25.7613 40.9891 25.694 40.9516 25.514C40.9216 25.3191 40.9366 25.139 40.9666 25.0041C41.0041 24.8766 41.0641 24.7867 41.1241 24.7493C41.1916 24.7118 41.2515 24.6443 41.304 24.5618C41.334 24.5168 41.3565 24.4717 41.379 24.4267C41.4015 24.3818 41.4315 24.3293 41.454 24.2768C41.499 24.1719 41.5364 24.067 41.5664 23.962C41.6189 23.827 41.6714 23.6845 41.7239 23.5496C41.8213 23.2722 41.9563 23.0097 42.1137 22.7698C42.1887 22.6499 42.2937 22.5449 42.4061 22.4475C42.5186 22.3575 42.6461 22.2675 42.7885 22.1925Z" fill="#4CA4DB" fill-opacity="0.7"/>
<path d="M41.1842 23.3921C41.1467 23.4596 41.1167 23.5196 41.0942 23.572C41.0793 23.602 41.0718 23.6246 41.0568 23.6546C41.0493 23.6696 41.0493 23.6769 41.0493 23.6769V23.6919C41.0493 23.7369 41.0493 23.7745 41.0568 23.8195C41.0718 23.902 41.1093 23.9768 41.1467 24.0593C41.1842 24.1418 41.2067 24.2243 41.2142 24.3143C41.2217 24.4043 41.1992 24.5242 41.1243 24.6516C41.0793 24.5017 40.9968 24.4417 40.9368 24.4117C40.8769 24.3817 40.8243 24.3817 40.8018 24.4267C40.8093 24.5766 40.7868 24.6742 40.7644 24.7267L40.7569 24.7417L40.7494 24.7492C40.7494 24.7492 40.7419 24.7417 40.7419 24.7342C40.7344 24.7192 40.7194 24.6967 40.7119 24.6817C40.6894 24.6517 40.6744 24.6216 40.6594 24.5991C40.6069 24.4642 40.6069 24.0669 40.6444 24.1043C40.6519 24.1418 40.6594 24.1794 40.6744 24.2169L40.6819 24.2392C40.6819 24.2467 40.6819 24.2468 40.6894 24.2543C40.6894 24.2618 40.6969 24.2693 40.6969 24.2693C40.7344 24.3217 40.7569 24.2619 40.7719 24.1869C40.7944 24.1044 40.7943 24.0069 40.8018 23.9244C40.8018 23.8869 40.8093 23.8495 40.8093 23.8195C40.8093 23.812 40.8094 23.8045 40.8168 23.797L40.8319 23.767C40.8394 23.7445 40.8468 23.7294 40.8618 23.707C40.8843 23.6695 40.9068 23.6396 40.9443 23.6171L40.9593 23.6096C40.9668 23.6021 40.9818 23.5871 40.9893 23.5796C41.0118 23.5571 41.0343 23.5345 41.0568 23.512C41.0943 23.4745 41.1392 23.4296 41.1842 23.3921Z" fill="#4CA4DB" fill-opacity="0.7"/>
<path d="M40.6741 25.1542C40.6142 25.1018 40.5017 24.9218 40.4267 24.7418C40.3517 24.5544 40.3218 24.367 40.3743 24.2095C40.3743 24.1721 40.4417 24.0369 40.3817 24.0519C40.3892 24.1344 40.4417 24.232 40.4942 24.4045C40.5542 24.5619 40.6292 24.8094 40.6741 25.1542Z" fill="#4CA4DB" fill-opacity="0.7"/>
<path d="M40.4644 25.7015C40.4793 25.8739 40.4344 25.8438 40.3744 25.7538C40.3219 25.6639 40.2544 25.529 40.2319 25.499L40.1345 25.2441C40.2619 25.319 40.3894 25.4241 40.4644 25.7015Z" fill="#4CA4DB" fill-opacity="0.7"/>
<path d="M39.0173 23.1672C38.8523 22.9573 38.9948 23.0023 39.1297 23.0473C39.2572 23.0923 39.3847 23.1298 39.1597 22.8974C39.2572 22.9724 39.3471 23.0547 39.4446 23.1297L39.3172 23.4522L39.0173 23.1672Z" fill="#4CA4DB" fill-opacity="0.7"/>
<path d="M38.5963 22.4093C38.4317 22.3644 38.297 22.2821 38.1174 22.0651H38.3119C38.4167 22.095 38.4317 22.2746 38.5963 22.4093Z" fill="#4CA4DB" fill-opacity="0.7"/>
<path d="M38.6269 23.4066C38.3949 23.2944 38.5371 23.1971 38.4547 23.0474C38.5969 23.0399 38.8289 23.5638 38.6269 23.4066Z" fill="#4CA4DB" fill-opacity="0.7"/>
<path d="M35.7105 23.6397C35.8529 23.5722 35.9879 23.6171 36.1228 23.6995C36.1903 23.7445 36.2578 23.7897 36.3328 23.8421C36.4078 23.8946 36.4828 23.9471 36.5727 23.9845C36.4003 23.9096 36.2578 23.8721 36.1304 23.8421C36.0029 23.7972 35.8754 23.7522 35.7105 23.6397Z" fill="#4CA4DB" fill-opacity="0.7"/>
<path d="M49.9037 16.4044C50.1436 16.4344 50.3836 16.3069 50.5185 16.202L50.3836 16.1421L49.9037 16.4044Z" fill="#4CA4DB" fill-opacity="0.7"/>
<path d="M46.7851 17.4692C46.7476 17.6642 46.8076 17.6716 46.935 17.6416C47.0625 17.6042 47.2724 17.5291 47.5198 17.5291C47.6622 17.4841 47.7897 17.4091 47.9246 17.3416C48.0596 17.2742 48.1871 17.1916 48.322 17.1092C48.4495 17.0267 48.5844 16.9519 48.7269 16.8844C48.8618 16.8169 49.0043 16.7569 49.1467 16.712L49.4467 16.4495C49.2667 16.472 49.0493 16.5094 48.8244 16.5694C48.5994 16.6294 48.3445 16.6894 48.1046 16.7868C47.8572 16.8768 47.6173 16.9744 47.3923 17.0943C47.1674 17.2068 46.9575 17.3343 46.7851 17.4692Z" fill="#4CA4DB" fill-opacity="0.7"/>
<path d="M55.6692 15.9171C55.4818 15.8947 55.2718 15.8646 55.0544 15.8196C54.837 15.7821 54.6046 15.7522 54.3722 15.7372C53.9073 15.7072 53.42 15.7372 53.0151 15.9472C53.21 15.9697 53.3075 16.0071 53.435 16.0445C53.5624 16.082 53.7124 16.1271 54.0048 16.1571C53.8923 16.2546 53.7798 16.2995 53.6674 16.3145C53.5549 16.3295 53.4349 16.307 53.3225 16.277C53.2025 16.247 53.0826 16.2094 52.9551 16.1795C52.8951 16.1645 52.8276 16.1496 52.7602 16.1421C52.6927 16.1346 52.6252 16.1346 52.5652 16.1421C53.0076 16.1871 52.4453 16.412 52.0854 16.472C51.913 16.4645 51.7105 16.4795 51.4931 16.4945C51.4406 16.502 51.3806 16.502 51.3282 16.5095C51.2757 16.517 51.2157 16.5243 51.1632 16.5393C51.0507 16.5618 50.9308 16.5769 50.8108 16.5994C50.3385 16.6893 49.8436 16.8318 49.3938 16.9817C49.3038 17.0417 49.1614 17.1092 48.9889 17.1692C48.824 17.2367 48.6291 17.2891 48.4641 17.3641C48.1342 17.5066 47.8868 17.6566 48.0518 17.799C47.5569 18.0689 47.347 17.829 46.9271 17.964C46.4698 18.4663 45.9 18.5938 45.2927 18.7737C45.1427 18.8262 44.9928 18.8787 44.8503 18.9387C44.7004 18.9986 44.5579 19.0662 44.4229 19.1561C44.288 19.2461 44.1605 19.3435 44.0481 19.471C43.9356 19.5984 43.8381 19.7408 43.7557 19.9132C43.7107 19.8007 43.5607 19.8683 43.4033 19.9882C43.2458 20.1157 43.0809 20.2957 42.9759 20.3856C42.8635 20.4906 42.736 20.6406 42.5936 20.8055C42.5261 20.888 42.4511 20.9704 42.3911 21.0528C42.3312 21.1428 42.2712 21.2253 42.2187 21.3153C42.1137 21.4878 42.0387 21.6378 42.0312 21.7502C42.0237 21.8627 42.0688 21.9377 42.2037 21.9377C42.4361 21.8627 42.5936 21.6077 42.7585 21.3228C42.9385 21.0529 43.1334 20.7381 43.4558 20.6256C43.9881 20.4157 43.8231 20.6481 43.5757 20.9555C43.3283 21.2703 43.0059 21.6901 43.1634 21.8251C43.2009 21.6602 43.5157 21.8251 43.7107 21.4127C43.4707 21.8251 43.6132 21.8177 43.8006 21.7803C43.9881 21.7428 44.213 21.6752 44.1455 21.9302C44.3555 21.7727 44.5204 21.6751 44.6479 21.6001C44.7753 21.5252 44.8653 21.4802 44.9628 21.4577C45.1502 21.4127 45.3077 21.4277 45.6525 21.4502C46.0349 21.0154 45.6975 20.8505 45.7125 20.5956C45.8025 20.4531 45.9224 20.3557 46.0499 20.2732C46.1773 20.1908 46.3048 20.1383 46.4473 20.0933C46.5822 20.0483 46.7172 20.0032 46.8447 19.9507C46.9721 19.8982 47.0921 19.8382 47.197 19.7408C47.182 20.1081 47.4369 20.0857 47.7518 19.9432C47.9168 19.8757 48.0967 19.7784 48.2767 19.6809C48.4566 19.5909 48.629 19.4934 48.7715 19.4259C49.5362 19.1485 48.8165 18.8112 49.6787 18.5638C49.9336 18.6313 49.7462 18.7962 49.5887 18.9537C49.4313 19.1111 49.2963 19.2686 49.6112 19.321C49.7162 19.2386 49.8286 19.156 49.9411 19.0736C50.0236 18.9236 50.0986 18.7661 50.181 18.6086C50.2635 18.4512 50.361 18.3014 50.496 18.1814C50.6759 18.1364 50.9533 18.0614 50.9833 18.1514C50.8108 18.2414 50.7734 18.3387 50.8183 18.4137C50.8708 18.4962 51.0058 18.5413 51.2007 18.5788C51.3507 18.4513 51.3956 18.4213 51.4631 18.3163C51.0358 18.0614 51.2232 18.0164 51.5906 17.979C51.7705 17.964 51.9954 17.9564 52.2054 17.9264C52.4153 17.9039 52.6102 17.8515 52.7377 17.7465C52.8352 17.7015 52.9251 17.6716 53.0001 17.6491C53.0826 17.6266 53.1575 17.6116 53.225 17.5966C53.36 17.5741 53.4649 17.5741 53.5549 17.5966C53.7348 17.6416 53.8323 17.7464 53.9298 17.8589C54.0272 17.9713 54.1247 18.0914 54.2822 18.1814C54.3647 18.2264 54.4621 18.2563 54.5896 18.2713C54.717 18.2863 54.867 18.2938 55.0544 18.2788C54.8595 17.9714 55.1144 17.9189 55.4893 17.9414C55.6767 17.9564 55.8941 17.9865 56.0966 18.009C56.299 18.039 56.4865 18.054 56.6214 18.0315C56.8313 18.084 56.9588 18.1738 57.0637 18.2713C57.1687 18.3688 57.2587 18.4737 57.3637 18.6086C57.4911 18.5861 57.8135 18.6613 57.896 18.5713C57.9035 18.3764 57.866 18.1589 57.776 17.9414C57.686 17.7165 57.5586 17.4767 57.3787 17.2517C57.2887 17.1318 57.1837 17.0193 57.0712 16.8994C56.9588 16.7794 56.8313 16.6668 56.6964 16.5543C56.4265 16.3144 56.1191 16.1046 55.7667 15.8871C55.7067 15.8871 55.6692 15.8947 55.6692 15.9171Z" fill="#4CA4DB" fill-opacity="0.7"/>
<path d="M83.3732 28.8204C83.3207 28.8504 83.2607 28.8654 83.2007 28.8804C83.1407 28.8954 83.0733 28.9029 83.0133 28.8879C82.8933 28.8729 82.8034 28.8203 82.8183 28.7228L82.7584 28.6179C82.8033 28.6104 82.8783 28.6029 82.9683 28.5954C83.0583 28.5879 83.1482 28.5654 83.2307 28.5654C83.3956 28.5729 83.5156 28.6255 83.3732 28.8204Z" fill="#4CA4DB" fill-opacity="0.7"/>
<path d="M84.0093 31.3318L84.1291 31.3466C84.0019 31.3316 83.8372 31.3616 83.7324 31.3915C83.7025 31.3017 83.8821 31.1596 84.1066 31.1372C84.0842 31.212 83.8671 31.2719 84.0093 31.3318Z" fill="#4CA4DB" fill-opacity="0.7"/>
<path d="M78.9566 28.9252C78.9566 29.0976 79.0916 29.3827 79.2341 29.6526C79.3015 29.7726 79.3765 29.8925 79.444 30.005C79.474 30.0575 79.5115 30.1099 79.5415 30.1699C79.5715 30.2224 79.609 30.2673 79.6465 30.3123C79.6015 30.4623 79.5565 30.6123 79.534 30.7622C79.4815 30.6273 79.3765 30.5597 79.279 30.5148C79.1666 30.4548 79.0616 30.4474 78.9717 30.3949C78.9717 30.4399 79.0391 30.5223 79.0916 30.5898C79.1441 30.6573 79.1741 30.7172 79.1441 30.7472C79.0766 30.6423 79.0092 30.4848 78.9342 30.3949C78.9042 30.4399 79.0017 30.6123 79.0691 30.7397C79.0991 30.8072 79.1291 30.8596 79.1366 30.8821C79.1441 30.9046 79.1291 30.8971 79.0616 30.8146L78.8892 30.5748L78.8442 30.5148C78.8292 30.4923 78.8142 30.4697 78.7992 30.4547L78.7392 30.3649C78.7917 30.4248 78.8442 30.4998 78.8892 30.5823C78.9567 30.6948 79.0091 30.8222 79.0541 30.9422C79.0991 31.0546 79.1291 31.1595 79.1441 31.242C79.1591 31.2945 79.1666 31.3394 79.1666 31.3844C79.1666 31.3844 79.1666 31.3844 79.1666 31.3919L79.1591 31.4144L79.1516 31.4595C79.1441 31.4894 79.1441 31.5193 79.1366 31.5493L79.0991 31.7218C79.0691 31.8342 79.0391 31.9468 78.9941 32.0593C78.8367 32.5016 78.6043 32.9064 78.2969 33.2438C78.2969 33.4462 78.1244 33.7461 77.8695 34.0311C77.7495 34.1735 77.5996 34.316 77.4571 34.4435C77.3897 34.5109 77.3147 34.5709 77.2472 34.6309C77.1798 34.6984 77.1198 34.7433 77.0598 34.8033L76.9773 34.6909C76.9323 34.7884 76.8574 34.8557 76.7674 34.9232C76.6699 34.9757 76.5574 35.0133 76.4375 35.0508C76.3175 35.0883 76.1976 35.1032 76.0776 35.1257C75.9577 35.1482 75.8527 35.1782 75.7552 35.2082C75.6203 35.2007 75.4928 35.1857 75.3654 35.1782C75.2754 35.0807 75.5153 34.9908 75.7177 34.8934C75.9202 34.7809 76.0851 34.6533 75.8827 34.5483C75.7927 34.5558 75.7027 34.5709 75.6278 34.5934C75.5453 34.6084 75.4703 34.6309 75.4028 34.6609C75.3279 34.6909 75.2604 34.7283 75.1929 34.7508C75.1255 34.7808 75.058 34.8108 74.9905 34.8408C74.8555 34.9083 74.7206 34.9533 74.5781 34.9832C74.4357 35.0132 74.2932 35.0057 74.1358 34.9457C73.9858 34.9382 73.8883 34.9307 73.8059 34.9382C73.7234 34.9457 73.6634 34.9608 73.6109 34.9757C73.506 35.0132 73.431 35.0583 73.2436 35.0808C73.1311 35.2083 73.3485 35.2307 73.296 35.3881C73.2061 35.3806 73.1236 35.3806 73.0486 35.3656C72.9736 35.3506 72.8987 35.3356 72.8387 35.3206C72.7037 35.2831 72.5913 35.2457 72.4938 35.1932C72.3963 35.1407 72.3064 35.0808 72.2314 35.0283C72.1564 34.9683 72.0889 34.9008 72.0215 34.8408C71.8865 34.7134 71.7741 34.5859 71.6241 34.4585C71.5491 34.3985 71.4666 34.3385 71.3692 34.2785C71.2717 34.2185 71.1667 34.1661 71.0393 34.1061C70.9943 34.1436 70.7394 34.1361 70.5744 34.1511C70.492 34.1661 70.432 34.1885 70.432 34.256C70.432 34.316 70.4995 34.4209 70.6794 34.5633C70.8294 34.5858 70.9718 34.6084 71.1217 34.6234C71.1892 34.7134 71.2492 34.7959 71.3242 34.8859C71.1742 34.8184 70.9568 34.7284 70.7844 34.6534C70.612 34.5784 70.477 34.5484 70.4695 34.6384C70.4395 34.4734 70.2895 34.3385 70.0946 34.226C69.9146 34.1135 69.6897 34.0236 69.5098 33.9337C69.3224 33.8512 69.1874 33.7762 69.1649 33.7237C69.1424 33.6712 69.2474 33.6487 69.5398 33.6337C69.6223 33.7461 69.6972 33.8287 69.7647 33.8961C69.8322 33.9636 69.8997 34.0161 69.9671 34.0536C70.0346 34.0911 70.1021 34.1136 70.1771 34.1286C70.2596 34.1436 70.342 34.1511 70.447 34.1511C69.9372 33.8062 69.5473 33.4013 69.2099 32.9965C68.8725 32.5916 68.5951 32.1867 68.3177 31.8118C68.1977 31.7893 68.0853 31.7593 67.9653 31.7293C68.1378 31.5793 68.0028 31.1221 67.8379 30.7247C67.7029 30.5898 67.5979 30.3723 67.5229 30.4772C67.478 30.4772 67.508 30.5672 67.553 30.6872C67.5755 30.7472 67.6129 30.8222 67.6429 30.8971C67.6804 30.9721 67.7104 31.0471 67.7404 31.1221C67.8004 31.2721 67.8529 31.3995 67.8304 31.4745C67.8154 31.5419 67.7254 31.5494 67.5304 31.4369C67.2755 30.9646 67.0806 30.4548 66.9606 29.9825C66.8407 29.5026 66.7957 29.0603 66.8257 28.7004C67.0581 29.1053 67.1406 29.4426 67.6354 29.735C68.1453 30.3948 68.6101 31.0995 69.1574 31.7293C69.4348 32.0442 69.7347 32.3292 70.0646 32.5766C70.3945 32.8165 70.7469 33.0189 71.1217 33.1314C71.0768 33.3038 71.4217 33.5512 71.2342 33.6412C71.2567 33.6862 71.2942 33.7238 71.3467 33.7612C71.3992 33.7987 71.4592 33.8286 71.5191 33.8586C71.5791 33.8961 71.6391 33.926 71.6841 33.971C71.729 34.016 71.7591 34.0611 71.7666 34.1286C72.4113 34.2561 73.0786 34.391 73.7609 34.4284C74.0983 34.4509 74.4357 34.4359 74.7581 34.4134C75.0805 34.3684 75.3953 34.316 75.6727 34.2185C75.4553 34.076 75.5978 33.9561 75.8077 33.8361C75.9127 33.7686 76.0326 33.7011 76.1376 33.6262C76.2425 33.5437 76.3325 33.4688 76.37 33.3939C76.5349 33.3939 76.7149 33.2889 76.8649 33.1539C77.0148 33.0114 77.1423 32.8389 77.2547 32.689C77.2398 32.6515 77.2547 32.584 77.2622 32.524C77.2697 32.4641 77.2622 32.4116 77.2023 32.3966C77.1798 32.4566 77.1497 32.5016 77.1198 32.5391C77.0898 32.5765 77.0598 32.6066 77.0223 32.6366C76.9548 32.6891 76.8724 32.7341 76.7674 32.809C76.6924 32.6666 76.7824 32.5765 76.9174 32.4715C77.0523 32.3665 77.2322 32.2392 77.3372 32.0743C77.3522 32.1568 77.3672 32.2466 77.3747 32.3366C77.5321 32.0892 77.7721 31.8417 77.9595 31.5418C78.0045 31.4669 78.0495 31.392 78.087 31.317C78.1095 31.2796 78.1245 31.242 78.1394 31.197C78.1544 31.167 78.1694 31.1296 78.1844 31.0996C78.2294 30.9721 78.2519 30.8522 78.2294 30.7097C78.2219 30.6422 78.1994 30.5747 78.1769 30.4998C78.1469 30.5372 78.1094 30.5747 78.0719 30.6121L78.027 30.6647C78.012 30.6872 77.9895 30.7022 77.9745 30.7247C77.937 30.7622 77.907 30.8146 77.8695 30.8596C77.8695 30.7996 77.862 30.7397 77.862 30.6722C77.862 30.6422 77.862 30.6048 77.862 30.5748C77.8545 30.5373 77.8545 30.5072 77.847 30.4697C77.877 30.3123 77.907 30.17 77.922 30.0275C77.937 29.885 77.937 29.7501 77.922 29.6226C77.892 29.3602 77.7946 29.0903 77.6671 28.8729C77.6296 28.8054 77.5921 28.7379 77.5546 28.6854C77.5846 28.7304 77.6071 28.7753 77.6371 28.8278C77.7271 29.0078 77.8021 29.2627 77.8171 29.4577C77.8171 29.5027 77.8171 29.5476 77.8171 29.5851C77.8096 29.6226 77.802 29.6525 77.787 29.6674C77.7645 29.7049 77.7121 29.6976 77.6446 29.6301C77.6071 29.5851 77.5921 29.5176 77.5771 29.4427C77.5771 29.4052 77.5771 29.3676 77.5771 29.3226C77.5771 29.2851 77.5771 29.2477 77.5846 29.2027C77.5996 29.0453 77.5996 28.9178 77.5921 28.8428C77.5921 28.8053 77.5771 28.7602 77.5621 28.7228C77.5321 28.6478 77.4872 28.573 77.4347 28.5055C77.4047 28.4755 77.3822 28.4379 77.3522 28.4079C77.3297 28.3854 77.2622 28.3179 77.3297 28.3704C77.4722 28.4679 77.5771 28.5654 77.7196 28.5954C77.7871 28.6104 77.847 28.6329 77.9145 28.6479C77.997 28.6479 78.0794 28.6479 78.1619 28.6554C78.2069 28.6629 78.2519 28.6629 78.2969 28.6779C78.3493 28.6779 78.4168 28.6779 78.4768 28.6854C78.5968 28.7004 78.7242 28.7303 78.8592 28.8128C78.8742 28.8428 78.9117 28.8802 78.9566 28.9252Z" fill="#4CA4DB" fill-opacity="0.7"/>
<path d="M77.4643 28.3629C77.4343 28.3704 77.4193 28.3629 77.4043 28.3629C77.3893 28.3629 77.3743 28.3554 77.3593 28.3554C77.3368 28.3479 77.3144 28.3481 77.2919 28.3406C77.2844 28.3406 77.2769 28.3331 77.2694 28.3331L77.2544 28.3256C77.2469 28.3256 77.2543 28.3256 77.2618 28.3331C77.2693 28.3406 77.2844 28.3554 77.2919 28.3629C77.3144 28.3854 77.3368 28.408 77.3668 28.453C77.3818 28.4755 77.4043 28.5054 77.4268 28.5354C77.4493 28.5728 77.4718 28.618 77.4943 28.6704C77.5018 28.6929 77.5093 28.7228 77.5243 28.7528C77.4793 28.6778 77.4718 28.6853 77.4418 28.7228C77.4343 28.7378 77.4043 28.7754 77.3893 28.8129C77.3593 28.8578 77.3368 28.8953 77.3068 28.9553C77.2993 29.0902 77.2394 29.2402 77.1494 29.3827C77.1269 29.4202 77.0969 29.4576 77.0669 29.4951L77.022 29.5551C77.007 29.5776 76.992 29.6001 76.9695 29.6151C76.902 29.7051 76.8345 29.7875 76.7745 29.8624C76.7895 29.8924 76.8045 29.9225 76.8195 29.9525C76.842 29.9975 76.857 30.0349 76.872 30.0724C76.8795 30.1024 76.8645 30.1174 76.857 30.1249C76.842 30.1474 76.8195 30.1549 76.7895 30.1399C76.7595 30.1249 76.7221 30.08 76.6846 30.02C76.6771 30.005 76.662 29.9825 76.6545 29.9675C76.6321 29.945 76.6171 29.9149 76.5946 29.8849C76.5496 29.825 76.4971 29.75 76.4446 29.675C76.4746 29.6075 76.5346 29.5177 76.6021 29.4427C76.9694 29.2403 77.1344 29.0453 77.2244 28.8729C77.3143 28.7004 77.3293 28.5505 77.3143 28.4605C77.3068 28.3855 77.2694 28.3481 77.2244 28.3331C77.2094 28.3331 77.2319 28.3331 77.2394 28.3331H77.2618C77.2768 28.3331 77.2918 28.3331 77.3068 28.3406C77.3218 28.3406 77.3368 28.3479 77.3593 28.3554C77.4193 28.3479 77.4343 28.3629 77.4643 28.3629Z" fill="#4CA4DB" fill-opacity="0.7"/>
<path d="M77.3068 30.3799C77.3143 30.4474 77.3293 30.5222 77.3293 30.5972C77.3218 30.6722 77.3144 30.7472 77.2994 30.8297C77.2619 31.0171 77.2169 31.0696 77.1644 31.1595C77.0519 31.317 76.9095 31.422 76.7745 31.377C76.737 31.3995 76.6321 31.2946 76.6321 31.4295C76.7146 31.3545 76.812 31.1821 76.917 31.0171C76.932 30.9946 76.947 30.9723 76.962 30.9573C76.9695 30.9423 76.9769 30.9422 76.9844 30.9197C76.9919 30.8972 77.007 30.8747 77.0145 30.8522C77.0519 30.7697 77.0744 30.6797 77.1119 30.6122C77.1269 30.5747 77.1419 30.5448 77.1644 30.5223C77.1794 30.4924 77.1869 30.4623 77.2019 30.4473C77.2244 30.4023 77.2618 30.3799 77.3068 30.3799Z" fill="#4CA4DB" fill-opacity="0.7"/>
<path d="M77.7868 31.0997C78.0038 31.0847 77.7794 31.369 77.7494 31.4439C77.7045 31.4963 77.6596 31.5411 77.6072 31.586C77.6222 31.4139 77.6446 31.2044 77.7868 31.0997Z" fill="#4CA4DB" fill-opacity="0.7"/>
<path d="M76.0548 32.7484C75.8902 32.8158 75.9276 32.7035 75.9576 32.6137C75.9725 32.5688 75.98 32.5238 75.9725 32.5014C75.9576 32.4789 75.9277 32.4864 75.8453 32.5313C75.8977 32.4864 75.9426 32.4341 75.995 32.3817C76.0848 32.4491 76.1746 32.5089 76.2644 32.5688C76.2045 32.6287 76.1297 32.6885 76.0548 32.7484Z" fill="#4CA4DB" fill-opacity="0.7"/>
<path d="M75.4551 32.7641C75.4252 32.8165 75.3953 32.8613 75.3429 32.8913C75.2905 32.9212 75.2231 32.9362 75.1259 32.9362C75.1408 32.8913 75.1633 32.839 75.1783 32.7941C75.2082 32.7267 75.3354 32.8314 75.4551 32.7641Z" fill="#4CA4DB" fill-opacity="0.7"/>
<path d="M76.2419 33.1613C76.1072 33.3335 76.0473 33.1763 75.9126 33.1838C75.9201 33.124 76.0398 33.0939 76.1446 33.0864C76.2344 33.0715 76.3167 33.0865 76.2419 33.1613Z" fill="#4CA4DB" fill-opacity="0.7"/>
<path d="M74.4737 35.7256C74.5412 35.6581 74.6161 35.6057 74.7136 35.5757C74.8111 35.5382 74.916 35.5231 75.036 35.5007C75.156 35.4782 75.2759 35.4558 75.4034 35.4333C75.5308 35.3958 75.6583 35.3582 75.7858 35.3057C75.6658 35.3582 75.5608 35.4108 75.4634 35.4633C75.3659 35.5158 75.2759 35.5532 75.1785 35.5907C75.081 35.6282 74.9835 35.6656 74.871 35.6881C74.7511 35.7031 74.6236 35.7181 74.4737 35.7256Z" fill="#4CA4DB" fill-opacity="0.7"/>
<path d="M85.4199 27.2902C85.5921 27.2528 85.637 27.0508 85.6445 26.9311H85.5247L85.4798 27.1106C85.4649 27.178 85.4424 27.2304 85.4199 27.2902Z" fill="#4CA4DB" fill-opacity="0.7"/>
<path d="M83.6803 28.3406C83.6428 28.678 83.8452 28.4606 84.2126 28.5281C84.2651 28.5131 84.3101 28.498 84.355 28.468C84.4 28.4381 84.4375 28.408 84.4825 28.378C84.565 28.3105 84.64 28.243 84.7075 28.168C84.8424 28.0031 84.9698 27.8532 85.1123 27.7183C85.1348 27.6208 85.1573 27.5308 85.1723 27.4408C85.0673 27.4933 84.9549 27.5608 84.8349 27.6432C84.7749 27.6807 84.7074 27.7108 84.64 27.7483C84.5725 27.7858 84.5125 27.8307 84.445 27.8682C84.3775 27.9057 84.31 27.9431 84.2426 27.9806C84.1751 28.0181 84.1152 28.0632 84.0477 28.1007C83.9052 28.1681 83.7927 28.2657 83.6803 28.3406Z" fill="#4CA4DB" fill-opacity="0.7"/>
<path d="M86.5967 23.8046C86.5967 23.8646 86.5967 23.9245 86.5892 23.992C86.5817 24.0595 86.5667 24.127 86.5517 24.1945C86.5367 24.2619 86.5217 24.3294 86.5142 24.4044C86.4992 24.4719 86.4767 24.5467 86.4617 24.6142C86.4468 24.6892 86.4318 24.7567 86.4243 24.8316C86.4093 24.9066 86.4018 24.9741 86.3943 25.0491C86.3943 25.1241 86.3943 25.1991 86.4018 25.2816C86.4093 25.3565 86.4168 25.4391 86.4393 25.514C86.5068 25.4016 86.5742 25.3565 86.6342 25.2816C86.6942 25.2066 86.7542 25.1166 86.8366 24.9217C86.9866 25.1166 86.9416 25.2815 86.8291 25.424C86.7691 25.4989 86.7017 25.5664 86.6417 25.6339C86.5817 25.7089 86.5292 25.7839 86.4917 25.8664C86.5892 25.7464 86.6417 25.7914 86.6567 25.8964C86.6717 26.0089 86.6492 26.1812 86.6042 26.3161C86.5217 26.4136 86.4317 26.5335 86.3493 26.6685C86.2593 26.7959 86.1619 26.9309 86.0644 27.0809C86.0119 27.1484 85.9594 27.2159 85.8994 27.2908C85.847 27.3583 85.7945 27.4408 85.7345 27.5008C85.6146 27.6283 85.5096 27.7782 85.3746 27.8832C85.3446 27.9581 85.2697 28.0482 85.1722 28.1382C85.0672 28.2206 84.9547 28.303 84.8498 28.3779C84.6398 28.5204 84.4749 28.6629 84.6324 28.7978C84.5424 28.8653 84.4599 28.8879 84.3849 28.8954C84.31 28.9029 84.2425 28.8954 84.175 28.8804C84.1075 28.8654 84.0475 28.8504 83.9801 28.8354C83.9126 28.8204 83.8451 28.8054 83.7627 28.8129C83.5902 29.0078 83.3653 29.0603 83.1479 29.0753C83.0354 29.0753 82.9229 29.0528 82.8105 29.0303C82.758 29.0153 82.698 29.0078 82.6455 28.9928C82.5931 28.9778 82.5331 28.9552 82.4806 28.9328C82.3756 28.8953 82.2707 28.8579 82.1657 28.8279C82.0607 28.7904 81.9557 28.7528 81.8508 28.7378C81.7983 28.7303 81.7458 28.7303 81.6933 28.7228C81.6409 28.7153 81.5884 28.7153 81.5284 28.7228C81.4159 28.7303 81.3035 28.7754 81.176 28.8204C81.2585 28.5954 80.8011 28.573 80.6362 28.5055C80.5987 28.498 80.5612 28.4905 80.5237 28.4755C80.5012 28.468 80.4862 28.468 80.4562 28.4605C80.4113 28.4455 80.3588 28.423 80.3063 28.4005C80.1038 28.3255 79.8939 28.243 79.684 28.1755L79.609 28.1532C79.6015 28.1532 79.594 28.1532 79.5865 28.1457L79.5191 28.1006C79.4591 28.0631 79.3916 28.018 79.3316 27.9806C79.2117 27.9056 79.0917 27.8383 78.9868 27.7783C78.8818 27.7183 78.7843 27.6657 78.7018 27.6282C78.6194 27.5907 78.5519 27.5758 78.4919 27.5383C78.4169 27.7033 78.4169 27.8232 78.5294 27.9432C78.5519 27.9507 78.5744 27.9657 78.5969 27.9657C78.6194 27.9882 78.6418 28.0181 78.6643 28.0406C78.6868 28.0631 78.7093 28.0781 78.7318 28.1006C78.7768 28.1381 78.8218 28.1755 78.8593 28.2055C78.9492 28.273 79.0392 28.333 79.1367 28.393C79.2341 28.4529 79.3316 28.5054 79.4366 28.5654C79.4666 28.5804 79.4891 28.5954 79.5191 28.6104C79.5415 28.6254 79.5716 28.6404 79.594 28.6479C79.639 28.6554 79.684 28.6705 79.7365 28.6855C79.9239 28.7304 80.1264 28.7829 80.3213 28.8579L80.3588 28.8729L80.3813 28.8804L80.4188 28.8954C80.4487 28.9029 80.4712 28.9178 80.4937 28.9328C80.5462 28.9627 80.5912 28.9928 80.6362 29.0378C80.7936 29.1953 80.8386 29.2701 80.7861 29.3076C80.7336 29.3526 80.6062 29.3376 80.4487 29.3226C80.4112 29.3151 80.3663 29.3151 80.3288 29.3076C80.2838 29.3001 80.2538 29.3076 80.1863 29.2851C80.0664 29.2551 79.9539 29.2252 79.8564 29.2102C79.759 29.1953 79.669 29.1877 79.609 29.2027C79.549 29.2177 79.5041 29.2326 79.5041 29.2851C79.5491 29.2926 79.579 29.3077 79.6165 29.3451C79.654 29.3751 79.684 29.4276 79.729 29.4725C79.819 29.57 79.9314 29.6675 80.1564 29.675C79.684 29.615 79.7815 29.765 79.8864 29.9225C79.9989 30.0799 80.1264 30.2449 79.9089 30.3049C79.9314 30.3198 79.9464 30.3349 79.9764 30.3499C80.0064 30.3649 80.0289 30.3799 80.0589 30.3874C80.1114 30.4099 80.1564 30.4398 80.2013 30.4548C80.2913 30.4998 80.3663 30.5374 80.4338 30.5748C80.5687 30.6498 80.6662 30.6948 80.7411 30.7548C80.8986 30.8672 80.9886 31.0172 81.2585 31.2796C81.4309 31.2721 81.5434 31.242 81.6258 31.197C81.7083 31.152 81.7533 31.0921 81.7833 31.0321C81.8433 30.9121 81.8433 30.7772 81.9333 30.6797C82.2632 30.5898 82.548 30.6122 82.8479 30.6572C82.9979 30.6722 83.1404 30.6872 83.2903 30.6797C83.3653 30.6797 83.4403 30.6797 83.5077 30.6572C83.5752 30.6422 83.6502 30.6198 83.7177 30.5823C83.6502 30.7623 83.6802 30.8597 83.7776 30.9047C83.8751 30.9497 84.055 30.9497 84.2575 30.9047C84.3624 30.8822 84.4674 30.8446 84.5799 30.8071C84.6923 30.7696 84.8048 30.7247 84.9173 30.6647C85.0222 30.6122 85.1347 30.5523 85.2321 30.4998C85.2846 30.4773 85.3296 30.4472 85.3746 30.4247C85.4196 30.3948 85.4646 30.3724 85.5021 30.3424C85.712 30.2224 85.8245 30.1248 85.877 30.0349C85.9295 29.9449 85.922 29.8625 85.922 29.7876C85.922 29.7051 85.9145 29.6301 85.9669 29.5401C85.9894 29.4951 86.0269 29.4427 86.0794 29.3902C86.1394 29.3377 86.2068 29.2702 86.2968 29.1952C86.5667 29.1428 86.4618 29.3827 86.3418 29.6076C86.2143 29.8251 86.0944 30.0425 86.4617 29.96C86.5742 29.8325 86.6642 29.6901 86.7542 29.5551C86.7691 29.4576 86.7841 29.3678 86.7916 29.2703C86.7991 29.1803 86.8066 29.0828 86.8066 28.9928C86.8141 28.8054 86.8216 28.6179 86.8666 28.4455C86.9341 28.378 87.0016 28.273 87.069 28.2055C87.1365 28.1305 87.204 28.0856 87.2415 28.1156C87.084 28.483 87.324 28.543 87.6989 28.2731C87.7363 28.0556 87.7363 27.9956 87.7138 27.8682C87.4664 27.9506 87.369 27.9356 87.369 27.8757C87.3615 27.8082 87.4439 27.6958 87.5564 27.5458C87.6164 27.4708 87.6688 27.3883 87.7288 27.2908C87.7888 27.2009 87.8413 27.1035 87.8938 27.006C87.9838 26.8111 88.0287 26.6087 87.9987 26.4437C88.0137 26.3387 88.0137 26.2487 88.0212 26.1662C88.0287 26.0837 88.0362 26.0087 88.0512 25.9488C88.0662 25.8813 88.0812 25.8288 88.1037 25.7763C88.1187 25.7238 88.1412 25.6789 88.1562 25.6414C88.2387 25.484 88.3661 25.4091 88.5011 25.3341C88.636 25.2591 88.771 25.1765 88.876 25.0116C88.9285 24.9291 88.9809 24.8242 89.0034 24.6817C89.0259 24.5393 89.0334 24.3669 89.0109 24.1644C88.861 24.2844 88.771 24.2694 88.7185 24.1794C88.6735 24.0895 88.6435 23.9245 88.6285 23.737C88.621 23.5421 88.5985 23.3171 88.5685 23.1147C88.5461 22.9047 88.4786 22.7249 88.4111 22.6049C88.3961 22.4999 88.3961 22.4026 88.3961 22.3201C88.3961 22.2376 88.4036 22.1626 88.4186 22.0876C88.4336 22.0126 88.4561 21.9451 88.4786 21.8702C88.5011 21.7952 88.5236 21.7126 88.5386 21.6227C88.4336 21.5252 88.2837 21.203 88.1637 21.1955C88.0062 21.3304 87.8713 21.4953 87.7438 21.6902C87.6839 21.7877 87.6239 21.8851 87.5639 21.99C87.5039 22.095 87.4364 22.2076 87.3765 22.3201C87.1365 22.7699 86.8591 23.2647 86.5442 23.7295C86.5667 23.782 86.5817 23.8046 86.5967 23.8046Z" fill="#4CA4DB" fill-opacity="0.7"/>
</g>
</svg>
