<svg width="10" height="14" viewBox="0 0 10 14" fill="none" xmlns="http://www.w3.org/2000/svg">
<path d="M9.98665 5.06884C9.98665 2.40634 7.82665 0.246338 5.16415 0.246338C2.50165 0.246338 0.349121 2.40634 0.349121 5.06884C0.349121 6.05884 0.649156 6.98884 1.18166 7.74634V7.76134L5.17162 13.7538L9.18414 7.74634H9.17664C9.67914 6.98884 9.98665 6.05884 9.98665 5.06884ZM5.15665 7.74634C3.67165 7.74634 2.47163 6.54634 2.47163 5.06884C2.47163 3.59134 3.67165 2.38384 5.15665 2.38384C6.64915 2.38384 7.84161 3.59134 7.84161 5.06884C7.84161 6.54634 6.65665 7.74634 5.15665 7.74634Z" fill="#EBEBEB"/>
</svg>
