<svg width="102" height="105" viewBox="0 0 102 105" fill="none" xmlns="http://www.w3.org/2000/svg">
<g id="Vector">
<path d="M33.115 37.0619C32.0808 35.8619 32.4886 38.5218 32.5383 39.1719L32.8167 38.9721C33.3437 39.1021 33.3636 37.782 33.115 37.0619Z" fill="#FCEA0D"/>
<path d="M40.0856 36.8218C40.0459 36.5718 40.0359 36.1818 40.1155 35.9018L40.0359 36.1821C39.8371 36.4921 39.7476 35.9921 39.5487 35.9121C39.5189 36.4321 39.847 36.8818 40.0856 36.8218Z" fill="#FCEA0D"/>
<path d="M37.6394 63.2527C37.5002 62.5027 37.5698 61.4326 37.1025 60.6325C37.003 59.7325 37.2716 58.3627 37.8781 58.6027C37.5898 55.9226 36.3567 57.5328 35.8595 54.7627C35.1734 57.2928 37.4505 60.1427 36.7246 62.8128C36.9135 63.8228 37.6096 63.7827 37.6394 63.2527Z" fill="#FCEA0D"/>
<path d="M40.3242 65.8729L40.4734 65.3128C40.4237 65.0628 40.6922 64.0828 40.1751 64.3328C39.9365 64.7828 40.1055 65.4028 40.3242 65.8729Z" fill="#FCEA0D"/>
<path d="M38.962 72.4932C38.8228 70.9532 39.7078 73.493 39.7277 72.1729L39.5487 71.1729L38.7432 71.6329L38.962 72.4932Z" fill="#FCEA0D"/>
<path d="M39.2702 74.2531C39.3597 74.7531 39.0415 75.0931 39.2006 75.3131L39.5685 75.6232C39.6481 74.9532 39.5188 74.5831 39.2702 74.2531Z" fill="#FCEA0D"/>
<path d="M40.9507 72.273C40.7817 71.663 40.3939 73.063 40.6822 73.253C40.7916 72.843 41.2391 72.8631 40.9507 72.273Z" fill="#FCEA0D"/>
<path d="M47.0562 77.6233C46.9568 76.3332 46.5093 75.9129 46.1315 74.8229C46.5093 75.9229 46.2806 77.1533 47.0562 77.6233Z" fill="#FCEA0D"/>
<path d="M30.7285 26.4719L30.5296 26.7819L31.1064 27.9519C31.2655 27.3919 30.9771 26.8119 30.7285 26.4719Z" fill="#FCEA0D"/>
<path d="M32.7073 34.0019C32.6477 32.5718 31.7825 31.2016 31.6135 29.8015L31.0368 29.0217C31.0169 30.7318 31.2058 33.712 31.9217 35.642C32.8167 36.0821 32.2797 35.1619 32.7073 34.0019Z" fill="#FCEA0D"/>
<path d="M46.6983 28.3316L46.8076 28.0016C47.3247 27.8116 46.5193 26.6614 45.863 26.1714C44.2521 25.7314 46.2508 27.8016 46.6983 28.3316Z" fill="#FCEA0D"/>
<path d="M51.4414 21.9615C51.2525 21.7715 50.994 21.4316 50.8846 21.1416L50.994 21.4317C51.0239 21.8117 50.636 21.4317 50.4173 21.4717C50.7255 21.9617 51.2823 22.1515 51.4414 21.9615Z" fill="#FCEA0D"/>
<path d="M63.2349 42.1623C61.3256 39.9922 61.3157 42.1023 59.1778 39.9723C60.192 42.5623 63.8514 43.7421 64.9154 46.4822C65.691 47.2522 66.2379 46.8321 65.9296 46.3421C65.3529 45.7621 64.7364 44.802 63.8514 44.362C63.215 43.652 62.5786 42.3023 63.2349 42.1623Z" fill="#FCEA0D"/>
<path d="M68.4554 49.4823C68.4056 49.3923 68.336 49.2825 68.2565 49.1625C68.2167 49.2425 68.2267 49.3423 68.4554 49.4823Z" fill="#FCEA0D"/>
<path d="M68.3659 48.9623C68.8531 48.3922 67.5505 46.5624 66.8246 45.9324C66.4169 46.7724 67.6599 48.2922 68.2465 49.1722C68.3062 49.0922 68.3957 49.0323 68.3659 48.9623Z" fill="#FCEA0D"/>
<path d="M68.704 45.8521C68.7935 46.3821 69.3204 46.8121 69.7878 47.1021L69.5591 46.522C69.3602 46.332 68.9725 45.3221 68.704 45.8521Z" fill="#FCEA0D"/>
<path d="M82.685 53.4424C81.8 52.3823 81.1635 52.2822 80.1692 51.5522C81.1635 52.2722 81.7503 53.4824 82.685 53.4424Z" fill="#FCEA0D"/>
<path d="M37.2517 18.3915L37.2815 18.7714L38.4946 19.4516C38.2659 18.8816 37.6594 18.5415 37.2517 18.3915Z" fill="#FCEA0D"/>
<path d="M43.6057 23.7618C42.661 22.5618 41.0899 21.8718 40.0657 20.7617L39.1012 20.4214C40.1552 21.9114 42.1838 24.3715 43.9836 25.6315C44.9979 25.5015 43.9736 25.0118 43.6057 23.7618Z" fill="#FCEA0D"/>
<path d="M69.1613 73.1732C69.4199 73.1932 69.7978 73.2932 70.0563 73.4432L69.7978 73.2933C69.5492 73.0133 70.0663 73.0634 70.1955 72.8934C69.6884 72.7234 69.1713 72.9232 69.1613 73.1732Z" fill="#FCEA0D"/>
<path d="M34.7757 63.3025L35.7999 63.4026L35.5712 62.5027L34.6662 62.4827C36.2175 62.7527 33.5029 62.9325 34.7757 63.3025Z" fill="#FCEA0D"/>
<path d="M31.8522 61.9625L31.4544 62.2428C32.0908 62.4928 32.4786 62.4626 32.8764 62.3126C32.3593 62.2626 32.1107 61.8625 31.8522 61.9625Z" fill="#FCEA0D"/>
<path d="M34.358 64.4626C35.0043 64.4626 33.7414 63.7126 33.473 63.9426C33.8508 64.1626 33.7017 64.5926 34.358 64.4626Z" fill="#FCEA0D"/>
<path d="M27.5067 68.9729C28.7894 69.2229 29.3165 68.8927 30.4799 68.8127C29.3165 68.8927 28.1729 68.3429 27.5067 68.9729Z" fill="#FCEA0D"/>
<path d="M80.1891 66.8026C80.6962 67.1026 81.3425 66.9727 81.7303 66.8227L81.4818 66.5429L80.1891 66.8026Z" fill="#FCEA0D"/>
<path d="M72.4925 65.5725C71.8263 66.3226 72.8604 66.0427 73.8747 66.7728C75.2867 67.0928 76.8479 66.6128 78.26 66.8128L79.1748 66.4627C77.5042 65.9827 74.5609 65.3925 72.4925 65.5725Z" fill="#FCEA0D"/>
<path d="M68.2366 27.1617C68.6343 27.0317 69.1017 26.7618 69.3901 26.4918C70.116 25.0318 67.7692 26.5316 67.1626 26.8116L67.461 26.9918C67.4908 27.2818 67.8289 27.2917 68.2366 27.1617Z" fill="#FCEA0D"/>
<path d="M72.2837 32.9017C72.5124 32.7517 72.8903 32.5821 73.1886 32.5321L72.8903 32.5819C72.5124 32.5319 72.9699 32.2318 72.9699 32.0018C72.4428 32.1918 72.1346 32.6917 72.2837 32.9017Z" fill="#FCEA0D"/>
<path d="M49.5124 37.5718C48.2893 38.3918 47.0463 39.2221 45.6243 39.3121C44.6797 39.7921 44.9084 40.4421 45.4553 40.3121C46.1713 39.9621 47.2253 39.6522 47.8915 38.9522C48.7467 38.5622 50.1786 38.3623 50.1289 39.0323C52.6944 37.8622 50.7355 37.2418 53.2711 35.8017C52.595 35.8617 51.9685 36.1021 51.352 36.4321C50.7255 36.7521 50.1189 37.1618 49.5124 37.5718Z" fill="#FCEA0D"/>
<path d="M42.144 41.592C42.2037 41.662 42.2235 41.7724 42.3031 41.7624C42.6809 42.4124 44.7692 41.7722 45.5746 41.2922C44.9183 40.6421 43.1384 41.322 42.144 41.592Z" fill="#FCEA0D"/>
<path d="M41.796 41.672C41.8954 41.652 42.0147 41.6219 42.154 41.5919C42.0843 41.5219 41.9949 41.492 41.796 41.672Z" fill="#FCEA0D"/>
<path d="M43.5958 43.7022L44.2024 43.6719C44.441 43.5519 45.505 43.5021 45.0973 43.082C44.5703 42.992 44.0035 43.3522 43.5958 43.7022Z" fill="#FCEA0D"/>
<path d="M33.3935 53.6724C34.6961 53.2224 35.0143 52.6724 36.0385 52.0024C35.0143 52.6724 33.6918 52.7823 33.3935 53.6724Z" fill="#FCEA0D"/>
<path d="M78.3693 19.7217L77.9915 19.6816L77.1363 20.7314C77.7329 20.6214 78.1605 20.0917 78.3693 19.7217Z" fill="#FCEA0D"/>
<path d="M72.1246 24.8414C72.7909 24.5114 73.3676 24.0115 73.9244 23.4815C74.4714 22.9415 75.0182 22.4018 75.6348 22.0118L76.122 21.1416C75.3165 21.5116 74.2427 22.0717 73.1787 22.7217C72.1047 23.3518 71.0307 24.0714 70.2651 24.8014C70.2054 25.8114 70.8618 24.9214 72.1246 24.8414Z" fill="#FCEA0D"/>
<path d="M77.6832 34.2717H78.0313C78.3694 34.7118 79.2046 33.5915 79.4532 32.8215C79.3737 31.1815 78.0312 33.6917 77.6832 34.2717Z" fill="#FCEA0D"/>
<path d="M85.3101 35.7421C84.9521 36.1722 84.9422 36.7518 85.171 36.8418C85.2903 36.6018 85.5289 36.272 85.7676 36.082L85.5289 36.2719C85.1809 36.4119 85.4195 35.9422 85.3101 35.7421Z" fill="#FCEA0D"/>
<path d="M67.2223 58.1427C67.5504 57.4027 68.2465 56.5126 68.3459 55.5425C68.8034 54.7025 69.8375 53.6624 70.1856 54.2324C71.5479 51.7324 69.579 52.4024 70.8518 49.7123C70.3347 50.1623 69.9469 50.7325 69.6287 51.3725C69.3205 52.0125 69.0719 52.7226 68.8332 53.4326C68.346 54.8527 67.8388 56.2825 66.745 57.2325C66.2975 58.2226 66.8842 58.5927 67.2223 58.1427Z" fill="#FCEA0D"/>
<path d="M65.6612 61.3023C66.3672 61.5624 67.6002 59.7323 67.9283 58.8423C67.0135 58.7423 66.029 60.4228 65.4225 61.2628C65.5219 61.2828 65.6015 61.3524 65.6612 61.3023Z" fill="#FCEA0D"/>
<path d="M65.2037 61.5627C65.2733 61.4827 65.3429 61.3827 65.4324 61.2727C65.3429 61.2527 65.2534 61.2927 65.2037 61.5627Z" fill="#FCEA0D"/>
<path d="M67.8786 61.9929L68.336 61.5925C68.4454 61.3525 69.2409 60.6427 68.6641 60.5627C68.2067 60.8227 67.988 61.4629 67.8786 61.9929Z" fill="#FCEA0D"/>
<path d="M66.7052 76.1232C67.3516 74.9332 67.2124 74.3132 67.5107 73.1432C67.2124 74.3232 66.3274 75.2832 66.7052 76.1232Z" fill="#FCEA0D"/>
<path d="M83.5302 23.8517C84.0075 23.4716 84.1467 22.7914 84.1566 22.3614L83.7987 22.5015L83.5302 23.8517Z" fill="#FCEA0D"/>
<path d="M79.3836 30.8817C79.8311 31.8017 79.9703 30.692 81.0343 29.972C81.8695 28.7119 82.0386 27.0219 82.7744 25.7218L82.8043 24.7018C82.2574 25.4218 81.5613 26.4417 80.9149 27.5417C80.2785 28.6617 79.7018 29.8416 79.3836 30.8817Z" fill="#FCEA0D"/>
<path d="M90.103 10.7513C90.0931 10.8613 90.0832 10.9515 90.1229 10.9715C89.9937 11.2215 89.8345 11.4715 89.6655 11.7416C89.2777 11.8116 88.8899 11.8813 88.4921 11.9613C88.4325 12.0513 88.3927 12.1315 88.4225 12.1615C87.6867 12.7215 86.7023 13.2613 85.7874 13.9013C85.33 14.2213 84.8826 14.5814 84.4848 14.9814C84.2859 15.1814 84.097 15.3915 83.9279 15.6216C83.7589 15.8416 83.5998 16.0815 83.4705 16.3315C84.3456 15.9315 84.5047 16.1116 85.7874 15.3715C85.6582 16.1416 85.1809 16.4516 84.5942 16.6616C84.0075 16.8716 83.3214 16.9816 82.7844 17.3716C83.8086 16.9316 82.9037 18.1315 82.1878 18.7315C81.3923 19.1215 80.4377 19.7417 79.4433 20.4318C78.429 21.1018 77.375 21.8617 76.3905 22.5417C76.0723 22.9917 75.1177 23.5618 74.3719 24.0818C73.6162 24.6018 73.0594 25.0719 73.5566 25.3919C72.3732 26.2519 71.7666 25.6718 70.7325 26.0618C70.2154 26.7618 69.579 27.182 68.873 27.472C68.167 27.752 67.4013 27.8918 66.6257 28.0418C65.0844 28.3419 63.553 28.692 62.4493 30.2221C62.32 29.5721 60.8781 30.5019 60.2716 30.7919C59.8937 30.9919 59.3766 31.2817 58.8496 31.5918C58.8297 31.5318 58.8098 31.4618 58.7999 31.4018L57.5967 31.9619C57.6265 32.1019 57.6564 32.2521 57.6762 32.3921C56.9802 32.9421 56.6023 33.482 57.189 33.792C57.368 33.822 57.537 33.802 57.716 33.752C57.6464 34.402 57.4277 34.9221 57.0597 35.1221C57.0796 35.1921 57.1095 35.2521 57.1293 35.3121C56.6421 35.4521 56.1946 35.6622 55.767 35.9122C55.061 35.0622 53.4899 34.4121 53.0623 33.082C52.0779 30.2519 55.3792 34.7721 56.1747 34.062C55.7968 33.922 56.2046 33.2218 55.4091 32.6118C57.189 33.7518 55.3494 30.9118 56.6719 31.3818C55.0809 28.8317 55.2798 29.0221 55.2102 27.012C53.828 25.902 53.5098 26.9019 52.7939 26.8919C51.1133 25.9219 50.9542 24.002 49.6317 23.0319C51.6602 22.7619 48.6473 20.2017 47.2949 18.8516C45.6343 17.0216 45.6741 19.2716 43.9637 17.2915C43.6256 15.8015 46.5591 18.4617 45.9625 16.6416L44.8885 16.0117C43.8941 15.9117 42.8799 16.0416 41.9153 15.7016C41.5275 15.3116 40.9408 14.7312 41.1099 14.5512C42.0446 15.1312 42.2633 14.4616 41.7264 13.4115C41.1795 13.2115 41.0402 13.1715 40.6822 13.1615C40.9507 15.9916 38.9918 11.5612 37.182 11.1712C32.9858 8.93116 37.013 8.01131 33.3735 5.35123C33.2244 7.41129 30.7484 3.80124 29.3164 3.16123C28.4812 2.2412 28.4812 1.62118 28.2227 0.661152C27.8647 0.531148 27.1388 -0.0887727 26.8305 0.0112302C25.8361 1.95129 26.4527 5.36135 27.815 9.22146C27.9144 9.26146 28.0039 9.30127 28.0337 9.27127C28.5806 9.82129 29.1375 10.5315 29.754 11.2415C29.3264 12.1816 28.9286 13.2212 28.5707 14.3412C28.6204 14.4312 28.6701 14.5016 28.7099 14.4916C28.9983 16.2617 28.7298 18.8114 30.0324 20.6114C30.0722 19.6814 30.3109 19.6318 30.2711 18.2017C31.4942 19.1017 30.4401 20.3915 30.6489 21.6515C30.7186 20.5815 31.3749 21.8719 31.5936 22.7419C31.5638 24.4519 32.061 27.0919 32.4587 29.3519C32.9957 30.272 32.8664 33.5819 33.831 32.9619C34.1293 34.332 33.3636 34.652 33.294 35.712C34.9944 38.5821 31.9118 41.5623 33.9105 44.6224C33.2641 44.5224 33.6122 46.1426 33.6619 46.7826C33.7613 47.5027 33.9304 48.7225 34.2089 49.6226C33.0156 50.0826 31.7328 50.5726 30.4401 51.1026C29.565 51.4826 28.6701 51.8225 27.805 52.2325C26.9399 52.6325 26.1145 53.0723 25.3389 53.5524C24.8119 53.0924 23.8374 53.8525 23.3303 53.7125C23.5192 53.1725 22.3061 53.4424 21.9978 53.0924C21.0134 53.7324 19.9494 54.2924 18.8556 54.8024C18.3087 55.0524 17.7518 55.3127 17.185 55.5427C16.6182 55.7627 16.0415 55.9828 15.4647 56.2028C14.3112 56.6428 13.1578 57.0727 12.0142 57.5427C11.4474 57.7827 10.8806 58.0129 10.3238 58.263C9.76692 58.513 9.22002 58.7725 8.68305 59.0525C7.59918 60.2826 6.62466 60.423 5.40157 60.973C6.4059 61.123 7.66877 61.1027 9.04102 60.9627C9.72714 60.8927 10.4331 60.7927 11.1491 60.6727C11.5071 60.6127 11.8651 60.553 12.2231 60.473C12.581 60.393 12.9291 60.313 13.2771 60.223C14.1422 59.3329 13.476 59.3227 12.6009 59.4627C11.7259 59.6227 10.642 59.8929 10.6917 59.6829C10.4431 59.4329 11.0994 59.2727 11.5668 58.9827C12.7799 58.7427 14.0925 58.7127 14.351 59.2928L14.8582 58.4426C16.0713 58.0226 17.3839 57.7426 18.7561 57.4026C20.1284 57.0626 21.5702 56.7129 23.0519 56.2229C22.4154 57.0829 22.0575 57.2926 20.6355 57.4426C19.2633 60.2727 22.5447 56.0829 24.0462 57.0329C23.8871 56.8629 24.1656 56.6526 24.5733 56.4426C24.981 56.2326 25.5179 56.0225 25.8958 55.8625L25.0804 55.7326C24.802 55.9826 24.5236 56.2426 24.2451 56.4826C22.0078 56.8326 23.9568 55.2525 23.9369 54.9225C26.6217 53.6625 27.5166 55.4526 30.5594 53.9625C30.4799 53.5225 29.9827 53.7326 30.0622 53.2926C30.8478 52.7526 30.5197 52.4127 31.9615 51.9727C33.125 51.9727 33.7713 51.1125 34.6762 50.5225C34.8651 50.7325 35.0938 50.7725 35.3524 50.5425C35.4319 50.4125 35.4717 50.2726 35.4916 50.1226C35.6805 50.0626 35.8694 50.0124 36.0882 49.9824C37.1522 50.5325 34.5071 51.3125 35.0441 51.7525H35.9689C36.1976 51.6325 36.4661 51.5625 36.7445 51.5025C36.7843 53.8726 38.5045 55.8927 38.0869 58.7928C37.9775 59.6028 38.2162 61.253 38.783 61.243C39.837 61.113 38.8625 58.8626 38.9222 57.4026C40.1254 58.8126 39.4791 61.5927 40.1652 63.6528L40.4336 62.873C40.5132 62.903 40.6126 62.9331 40.7121 62.9731C40.7021 62.8931 40.6425 62.8329 40.4336 62.8529L40.7021 62.0829C40.901 62.3929 41.0303 62.7327 41.0999 63.0927C40.9607 63.0527 40.8314 63.0128 40.7121 62.9828C40.722 63.0728 40.6922 63.1728 40.7518 63.2128C40.7419 63.4328 40.9109 63.6329 41.1794 63.8129C41.1993 64.3629 41.1496 64.9332 41.09 65.5132C40.9905 65.5232 40.901 65.533 40.8115 65.543L41.07 65.6929C41.0502 65.9129 41.0203 66.1428 41.0004 66.3628C40.2248 66.0628 39.4393 65.7428 38.6935 65.6128C38.7034 65.5528 38.7134 65.5029 38.7233 65.4429L39.1409 65.2031C39.0117 65.1831 38.8825 65.1528 38.7532 65.1128C38.8029 64.4827 38.7531 63.793 38.6537 63.373C38.2361 63.593 38.067 64.1927 37.9875 64.8427C37.2417 64.5527 36.5854 64.2827 36.3169 64.8027C37.0329 64.9827 37.3013 65.2331 37.9576 65.2231C37.9477 65.3131 37.9477 65.4031 37.9477 65.4931C37.7786 65.5732 37.53 65.6131 37.4505 65.7231C36.4263 65.6231 35.0043 65.683 34.2486 65.103C33.3338 65.453 30.6489 64.7629 31.3848 65.9629C28.3022 65.5429 24.3346 64.7328 20.8444 64.9629C20.6057 64.3128 19.4422 64.513 19.0644 64.163C19.4621 63.763 18.3086 63.4631 18.1993 63.0131C13.6649 63.5231 8.80236 62.3129 4.1586 62.6229C2.71674 63.303 1.82182 63.0331 0.539062 63.0331C2.17979 64.1331 4.99389 65.0327 7.67872 65.5928C9.89619 64.7327 5.39165 64.3729 5.67008 64.0229C5.55075 63.6929 6.18714 63.8231 6.71417 63.7431C7.86765 64.0431 9.0112 64.5928 8.99131 65.2129L9.77688 64.663C12.2231 64.9531 14.7687 65.833 17.722 66.293C16.8071 66.773 16.4193 66.7928 15.1465 66.3027C12.77 68.2128 17.354 65.9431 18.2092 67.4732C18.0899 67.0232 19.5019 67.223 20.2775 67.293L19.6511 66.793L18.607 67.0728C16.5685 66.3728 18.9053 65.843 19.0445 65.543C21.8785 65.683 21.8188 67.693 25.0406 67.813C25.1798 67.383 24.6727 67.3329 24.9412 66.9829C25.8461 66.8829 25.7367 66.4329 27.1388 66.753C28.5309 67.573 29.8634 66.323 31.5141 67.043C32.1306 68.043 29.5651 67.4228 29.8037 68.0728L30.5594 68.523C31.4643 68.543 32.5979 69.4732 33.3835 68.9132L33.3735 69.2931C34.6662 69.0431 36.7246 69.4832 37.5102 68.9332C38.4449 69.1832 39.4194 69.3532 40.4038 69.4532C40.3939 69.8932 40.4834 70.2229 40.8613 70.3029C40.8613 69.9728 40.8911 69.723 40.911 69.503C41.1297 69.523 41.3485 69.5428 41.5672 69.5528C41.7562 70.4529 41.9948 71.483 41.7065 72.1931C42.2832 72.9731 42.323 75.7132 43.2776 74.6931C43.6853 77.7432 43.9339 81.7436 45.0575 85.0137C44.4907 85.4038 44.9879 86.4735 44.7493 86.9235C44.262 86.6435 44.272 87.8236 43.8643 88.0436C44.6896 90.1437 45.1172 92.4339 45.5249 94.744C45.9326 97.0541 46.3104 99.3837 47.0363 101.574C48.0506 102.784 48.0108 103.704 48.339 104.944C48.9853 103.104 49.1544 100.184 49.0251 97.4638C47.6429 95.5538 48.4186 99.9542 48.0109 99.7842C47.7225 99.9842 47.6827 99.334 47.4838 98.854C47.4838 97.674 47.7225 96.4436 48.329 96.3036L47.5932 95.684C47.2551 93.2739 47.454 90.6138 47.1457 87.6637C47.8418 88.4137 47.9611 88.7835 47.812 90.1335C50.2582 91.9236 46.9071 88.1135 48.15 86.9035C47.7423 87.1335 47.5733 85.7237 47.4441 84.9737L47.1259 85.7037L47.6628 86.6237C47.5136 88.7537 46.4099 86.6536 46.0818 86.6036C45.4951 83.8636 47.4341 83.4035 46.7181 80.2934C46.2707 80.2734 46.3602 80.7735 45.9525 80.6035C45.6144 79.7634 45.2166 79.9934 45.1569 78.5634C45.5845 77.0233 44.0333 76.0833 44.2918 74.3132C45.0873 73.4632 45.1669 76.0732 45.7337 75.6731L45.9625 74.8333C45.7437 73.9632 46.3403 72.6434 45.6044 72.0334L45.9723 71.943C45.6641 71.323 45.4851 70.4532 45.2763 69.6832C46.9469 69.7232 48.6175 69.7532 50.2482 69.9332L51.0039 70.6329C53.4402 71.183 52.9529 70.123 54.1263 69.923C54.3848 70.073 54.2456 70.3729 54.3649 70.5729C55.6576 70.4429 53.997 70.0932 54.5141 69.8932C55.7969 70.0132 57.4774 69.8631 58.2331 70.5631L58.7899 69.3531C57.7856 68.5031 57.0498 67.3028 57.3282 66.5728C54.5539 64.6727 51.6503 66.6629 48.339 65.2129C47.5733 64.8929 45.9028 64.6631 45.7636 65.2231C45.6045 66.2731 48.0606 65.9431 49.4626 66.3931C48.1003 67.0131 46.211 66.2632 44.3913 65.9932C44.2919 65.1731 44.1427 64.3431 43.9637 63.5131C44.0135 63.5531 44.0632 63.5927 44.1427 63.6127C44.9084 63.6827 45.9326 64.0327 46.8474 63.8027C47.7424 63.9527 49.0152 64.573 48.6075 65.103C51.3023 65.543 50.0593 63.9228 52.8933 64.1928C50.6161 62.8428 47.2153 64.2827 44.8089 62.8627C44.272 62.8127 43.9737 62.973 43.8842 63.163C43.3273 60.6729 42.5517 58.1726 42.144 55.6725L42.6113 54.7726C42.492 52.3125 41.607 53.0528 41.0999 51.9927C41.1795 51.7127 41.4977 51.7624 41.6568 51.5923C41.1894 50.3923 41.2988 52.0724 40.9706 51.6324C40.8712 51.0624 40.6922 50.4423 40.5729 49.8423C41.428 49.3623 42.2633 48.8923 42.5119 48.3623C44.5703 47.7223 46.5392 46.6424 48.4882 45.5023C50.4272 44.3223 52.3364 43.0325 54.3252 42.0125L55.3693 42.1424C57.7856 41.1323 56.7713 40.5624 57.6563 39.7023C57.9646 39.6723 58.0143 40.002 58.2331 40.092C59.2772 39.212 57.6365 39.9224 57.9745 39.4523C58.5314 39.1323 59.138 38.7122 59.7247 38.3722C61.077 39.4123 62.5984 40.3721 63.5829 42.2122C64.0005 42.9822 65.2236 44.2825 65.681 43.9525C66.4666 43.2425 64.2591 41.8325 63.4039 40.5324C65.2733 41.0725 66.4766 43.8625 68.336 45.2626L67.799 43.5823C69.6486 44.3624 70.3546 47.1022 71.7666 48.5923L71.001 48.4423C71.5379 49.0324 71.8959 49.9226 72.3036 50.3926C72.1147 51.0126 71.9158 51.6528 71.6473 52.2828C71.3291 53.0328 70.9115 53.7728 70.285 54.4728C69.7083 55.1228 68.9227 56.6929 69.3901 57.0129C70.3248 57.5129 70.8717 54.9926 71.7865 53.7526C71.9257 55.6826 69.7381 57.7126 69.0917 59.9227L70.464 58.8626C70.3844 60.8426 68.1073 62.4231 67.2124 64.2431L67.0831 63.4731C66.7947 64.0331 66.2976 64.5531 65.9595 65.0132C65.154 64.7731 64.2889 64.7131 63.3243 65.0132C63.6028 64.4131 61.9322 64.3128 61.2859 64.1928C59.8738 63.9928 56.5327 63.5527 57.1393 64.8027C58.0144 65.7027 60.1125 64.6427 61.4947 65.5928C63.9011 67.1428 58.78 65.773 58.6209 66.833C58.9789 66.693 59.0982 67.5032 60.0429 67.4532C58.0541 67.7132 61.0969 68.723 59.844 69.213C60.6992 69.513 61.256 69.7229 61.6538 69.9029L61.7134 70.1129C61.7532 70.0729 61.783 70.023 61.8128 69.983C62.5387 70.343 62.7178 70.6832 63.5133 71.6432C64.1596 71.6332 64.4977 71.4831 64.7065 71.2731C64.7761 71.4131 64.9352 71.4632 65.2335 71.3932C64.5375 72.8533 63.6724 74.5032 62.8669 76.2332C62.0714 77.9633 61.3455 79.7734 60.908 81.5434C60.2119 81.5834 60.0329 82.8032 59.5854 83.0733C59.3269 82.5532 58.6905 83.6135 58.2231 83.6035C57.3183 88.2637 54.6832 92.774 53.6391 97.5141C53.8777 99.1442 53.3507 99.9542 52.9828 101.244C54.5141 99.9042 56.1747 97.3339 57.5072 94.8138C57.3481 92.3638 55.6577 96.7437 55.4091 96.3837C55.0611 96.4137 55.3693 95.8041 55.4389 95.264C56.0653 94.204 56.9304 93.2136 57.5271 93.4036L57.2288 92.4637C57.7359 91.2936 58.3723 90.1238 59.0783 88.9138C59.7744 87.7037 60.5202 86.4338 61.1963 85.0338C61.3753 86.0838 61.2759 86.4734 60.4108 87.5934C61.5046 90.5035 60.7389 85.3036 62.4592 84.8936C61.9919 84.8736 62.6184 83.5335 62.9266 82.7935L62.2504 83.2735L62.1907 84.3834C60.908 86.2034 61.1069 83.7335 60.8682 83.5034C61.8924 80.7334 63.7818 81.3936 64.9054 78.2435C64.5474 77.9735 64.3386 78.4731 64.09 78.0931C64.2789 77.1631 63.8215 77.1434 64.5773 75.8533C65.8103 74.7333 65.0446 73.033 66.2677 71.613C67.4113 71.313 65.9992 73.6533 66.6953 73.6233L67.3615 73.0134C67.6101 72.3034 68.4553 71.6332 68.6542 70.9132C69.0718 71.0532 69.4994 71.1532 69.9568 71.1232C68.6244 72.6332 72.3633 72.673 74.1631 72.843C76.4701 73.193 75.1077 71.483 77.544 71.903C78.6776 72.823 74.9387 72.6633 76.4601 73.6833L77.6235 73.4831C78.419 72.9331 79.0853 72.1729 80.0001 71.8229C80.5172 71.8729 81.2829 71.943 81.2729 72.1931C80.2387 72.3431 80.4774 72.9933 81.4917 73.4734C82.0088 73.2734 82.148 73.2234 82.4065 72.9934C80.5371 70.9933 84.5942 73.1434 86.1653 72.2834C90.5804 71.3234 88.1541 74.613 92.42 74.323C91.3162 72.643 95.2738 73.8433 96.7057 73.4133C96.7952 73.4233 96.8847 73.4431 96.9643 73.4631C97.2626 73.7031 97.5609 73.9331 97.8592 74.1531C98.247 74.2631 98.5751 74.3934 98.8536 74.5335C98.8933 74.5635 98.9431 74.6031 98.9828 74.6331C98.9928 74.6331 99.0127 74.6233 99.0227 74.6233C99.8182 75.0733 100.315 75.6635 101.061 76.2835C100.872 75.6935 100.574 75.0533 100.216 74.3733C100.295 74.3333 100.365 74.2934 100.405 74.2434C100.136 72.8534 98.9729 71.4133 97.2825 69.9933C97.1433 69.8133 97.0041 69.6332 96.8549 69.4532C96.7058 69.4032 96.5765 69.3629 96.477 69.3429C95.7909 68.8129 95.0352 68.2933 94.2297 67.7833C94.1303 67.8133 94.0408 67.8429 94.0408 67.8829C93.9513 67.8729 93.8519 67.8631 93.7524 67.8531C92.2808 66.133 90.9184 64.1127 89.1385 62.1127C90.1826 62.3627 90.5207 62.6029 91.2366 63.853C94.3689 63.973 89.218 62.6429 89.4766 60.8729C89.2876 61.3029 88.2634 60.1926 87.6767 59.6126L87.8756 60.4329L88.8999 60.9227C90.1229 62.8428 87.8955 61.6826 87.5873 61.8226C85.3698 59.7926 86.6823 58.2727 84.1268 56.0026C83.7489 56.2426 84.1367 56.6226 83.6892 56.7126C82.8838 56.1826 82.6949 56.6126 81.7602 55.4025C81.1437 53.8225 79.2742 53.8925 78.3793 52.2125C78.5086 51.0124 80.199 53.2326 80.4178 52.5626L80.0797 51.7027C79.3637 51.0727 79.0157 49.5824 78.0313 49.4824L78.2799 49.2026C78.0014 49.0526 77.723 48.8425 77.4346 48.6025C77.5142 48.4025 77.6037 48.2124 77.6832 48.0224C77.9915 47.3824 78.3395 46.8422 78.8069 46.5922L77.8821 45.6425C76.7187 46.3325 75.3265 46.6422 74.7498 46.1122C74.6404 46.1922 74.541 46.2724 74.4515 46.3524C74.1631 45.9724 73.8548 45.5923 73.5267 45.2323C74.1432 44.3123 74.2128 42.5524 75.3464 41.7024C77.6733 39.8924 74.5211 44.4222 75.4458 44.9422C75.4458 44.5422 76.2413 44.7023 76.5496 43.7723C76.0623 45.8023 78.1207 43.1823 78.1207 44.5824C79.9802 42.3023 79.8609 42.5421 81.7204 41.8621C82.317 40.222 81.2729 40.232 81.0542 39.552C81.432 37.6719 83.1623 36.9522 83.6594 35.4122C84.5544 37.2422 86.0161 33.6522 86.8613 31.9721C88.0645 29.8621 85.9664 30.562 87.2989 28.3719C88.5916 27.6219 86.9906 31.1617 88.522 30.0717L88.7904 28.8719C88.5816 27.9019 88.154 26.982 88.1839 25.972C88.4325 25.4919 88.8004 24.7716 89.0291 24.8816C88.7706 25.9416 89.4567 25.9516 90.292 25.1516C90.3118 24.5716 90.3218 24.4315 90.2124 24.0915C87.6171 25.1416 91.2168 22.0416 91.0576 20.2115C91.9426 15.6014 94.001 19.1915 95.4628 15.0014C94.5976 15.1814 94.6175 14.6513 94.9457 13.8612C95.602 13.5512 96.1389 13.5616 96.8947 13.4516C97.0538 13.1116 97.7498 12.4715 97.6802 12.1415C97.2427 11.8515 96.7057 11.6413 96.0892 11.5013C96.2483 11.1513 96.3577 10.8211 96.3975 10.5511C97.0339 9.51106 97.6206 9.35135 98.4658 8.85133C98.4857 8.48132 98.8735 7.6213 98.6845 7.35129C96.477 6.93128 93.3944 8.40122 90.103 10.7513ZM35.2629 14.4516C34.6961 15.0516 34.3978 14.6315 34.1889 13.8515C34.4475 13.9215 34.885 14.1716 35.2629 14.4516ZM37.0826 47.1025C37.1025 47.1525 37.1223 47.1924 37.1422 47.2324C37.1323 47.2324 37.1323 47.2426 37.1224 47.2426C37.1124 47.1926 37.0925 47.1425 37.0826 47.1025ZM38.1864 46.8222C38.3256 46.6222 38.4847 46.5225 38.6736 46.6825C38.5145 46.7325 38.3455 46.7822 38.1864 46.8222ZM35.3226 49.1626C35.3126 49.1226 35.3026 49.0922 35.2927 49.0522C35.3325 49.0722 35.3623 49.1025 35.412 49.1225C35.3822 49.1425 35.3524 49.1526 35.3226 49.1626ZM35.1436 48.5825C34.895 47.8225 34.6364 47.0023 34.9049 46.2123C35.5214 44.2422 35.7203 46.5024 36.1877 47.8125C36.0385 47.8925 35.8993 47.9825 35.77 48.0625C35.4817 48.2425 35.253 48.4125 35.1436 48.5825ZM52.3364 38.3522C51.6403 38.7622 50.8647 39.0924 49.9499 39.2624C49.1146 39.4324 47.5534 40.1924 47.7225 40.7424C48.16 41.7124 50.109 40.0323 51.5707 39.6022C51.0536 40.4123 50.0493 40.892 48.9555 41.342C48.4086 41.562 47.8318 41.7822 47.275 42.0222C46.7181 42.2622 46.1812 42.5121 45.7139 42.8421L47.454 42.8724C46.1613 44.3724 43.387 44.1623 41.5672 45.0223L41.9451 44.3421C41.6667 44.4621 41.3585 44.5422 41.0502 44.6122C40.7419 44.6722 40.4337 44.7226 40.1552 44.7826C39.6083 44.9026 39.2106 45.0823 39.2305 45.5223C40.016 45.2823 40.384 45.3925 41.0403 44.9325C41.3187 45.1425 40.7419 45.4923 40.7121 45.7123C40.1353 45.9823 39.4691 46.3822 38.8227 46.6322C39.0117 44.0522 39.0813 44.2425 40.1652 42.7024C39.6978 41.1124 38.8526 41.712 38.2758 41.322C37.4803 39.682 38.4747 38.1323 37.9676 36.6822C39.7674 37.5623 38.8228 33.992 38.5244 32.2319C38.256 29.9418 36.9732 31.6819 36.7545 29.2518C37.3511 27.9318 38.1565 31.5317 38.7432 29.8217L38.246 28.7621C37.5102 28.1521 36.6152 27.712 36.0385 26.9319C35.949 26.4319 35.8297 25.6719 36.0683 25.6219C36.476 26.5719 37.0428 26.1818 37.2417 25.0818C36.9136 24.6318 36.834 24.5218 36.5456 24.3318C35.1038 26.6318 36.128 22.2016 34.9049 20.9215C32.8763 16.9714 36.5854 18.4115 35.3126 14.5014C35.4021 14.5714 35.4916 14.6416 35.5612 14.7016C36.6152 16.1917 38.6935 18.1717 40.4336 19.9117C41.4479 20.4017 43.4268 23.3319 43.8345 22.2419C44.9382 23.2619 44.5106 23.9719 45.1172 24.9319C48.3191 26.4419 47.6429 30.7917 51.1929 32.3017C50.5863 32.5817 51.8889 33.7918 52.3364 34.3218C52.9032 34.9318 53.8976 36.0021 54.723 36.6022C54.5639 36.7222 54.4047 36.8423 54.2456 36.9723C53.649 37.4323 53.0325 37.9322 52.3364 38.3522ZM61.2759 31.792C63.3044 31.642 61.4847 32.5619 60.3412 33.4619C60.023 33.1719 59.7147 32.8818 59.4661 32.5918C60.0031 32.1818 60.5898 31.822 61.2759 31.792ZM61.1367 34.1919C61.1466 34.1919 61.1466 34.1822 61.1566 34.1822C61.1466 34.1822 61.1466 34.1819 61.1367 34.1919ZM66.6555 64.5527C67.0036 64.5427 66.7848 65.1728 66.914 65.3628C66.9041 65.3928 66.8842 65.4231 66.8743 65.4531C66.7052 65.3731 66.5362 65.3031 66.3671 65.2431C66.4865 65.0531 66.576 64.8527 66.6555 64.5527ZM85.6582 61.0726C85.4394 61.7426 86.5233 62.3727 86.6028 62.9027C86.0261 62.9427 86.7719 63.9528 86.5829 64.3828C87.8657 65.2428 89.0689 66.2628 90.2422 67.3428C89.3573 67.2728 88.4723 67.3131 87.637 67.6431C88.5319 67.9131 88.522 68.1632 89.934 68.4932C88.7407 69.4533 87.7563 68.0932 86.4636 67.9732C87.4878 68.3232 86.0559 68.6231 85.151 68.6031C83.4904 68.1331 80.7857 67.9329 78.4687 67.7129C77.4346 67.993 74.2327 66.9931 74.5907 68.1031C73.1687 68.0331 73.0693 67.2031 72.0451 66.8531C71.2993 67.0531 70.6131 67.0128 69.9668 66.8428C69.9767 66.6628 69.9768 66.503 69.937 66.353C69.9469 66.333 69.9668 66.313 69.9767 66.293C70.2552 66.353 70.5336 66.373 70.7722 66.353C71.5578 65.983 71.1104 65.7132 70.4342 65.5332C71.349 63.9631 72.0749 62.2228 72.7411 60.4427C73.3378 58.8827 73.9145 57.2929 74.5608 55.7629C74.6105 55.8529 74.6603 55.9228 74.7498 55.9528L75.247 56.0026C75.0779 55.7126 74.9089 55.5025 74.7398 55.3425C74.9089 54.9524 75.0779 54.5725 75.2569 54.1925L76.1817 53.6925C76.3109 53.4825 76.4203 53.3024 76.5098 53.1324C77.1065 53.6124 77.6136 53.8827 77.6932 53.1427C79.9604 55.5728 82.675 58.8925 85.6582 61.0726ZM72.403 49.8423C72.2539 49.6223 72.0848 49.4126 71.7766 49.1826C71.876 48.8626 72.3732 49.2527 72.6019 49.2427C72.5323 49.4327 72.4726 49.6323 72.403 49.8423ZM85.4294 22.4919C84.8427 23.5819 84.2561 24.7516 83.6992 25.8416C83.6197 26.3916 83.043 27.352 82.6253 28.182C82.2077 29.012 81.969 29.7121 82.5457 29.7421C81.9392 31.0921 81.1238 30.8921 80.4078 31.7622C80.189 33.5022 79.0057 34.5321 77.8522 35.6221C76.6888 36.7122 75.5353 37.8421 75.3961 39.7522C74.9387 39.2721 74.2327 40.8821 73.8747 41.4622C73.5068 42.1622 72.8704 43.3623 72.5522 44.3123C70.1756 41.8823 67.282 39.7524 64.8855 37.2824L64.7065 36.232C64.2988 35.712 63.9806 35.4022 63.7022 35.2022C64.0701 35.1122 64.3486 35.0618 64.6071 35.0518C65.1441 35.0318 65.5816 35.1821 66.5461 35.3721C67.9283 34.2821 67.0434 33.732 67.2124 33.042C67.8687 32.332 68.6642 32.0617 69.4498 31.8217C70.2353 31.5817 71.0209 31.4017 71.6175 30.8417C71.4484 32.9018 74.5509 30.4721 76.1419 29.432C77.2059 28.812 77.176 28.3918 77.1661 27.9618C77.1562 27.5418 77.1662 27.112 78.2799 26.452C79.7814 26.392 76.6689 28.7816 78.5483 28.5516L79.3637 27.6117C79.6521 26.6516 79.7018 25.6317 80.199 24.7517C80.6465 24.4417 81.3027 23.9819 81.4618 24.1819C80.7359 24.9919 81.3425 25.3317 82.4761 25.0017C82.7546 24.4917 82.8241 24.3619 82.8838 24.0119C80.0995 23.8019 84.7035 22.6115 85.3698 20.8815C86.205 19.7714 86.8117 19.3415 87.3387 19.2115C87.279 19.3815 87.2194 19.5415 87.1597 19.6915C86.6128 20.4215 86.026 21.4118 85.4294 22.4919Z" fill="#FCEA0D"/>
</g>
</svg>
