<svg width="22" height="22" viewBox="0 0 22 22" fill="none" xmlns="http://www.w3.org/2000/svg">
<path d="M10.9317 21.4175C16.6851 21.4175 21.3491 16.7534 21.3491 11C21.3491 5.24659 16.6851 0.58252 10.9317 0.58252C5.17824 0.58252 0.51416 5.24659 0.51416 11C0.51416 16.7534 5.17824 21.4175 10.9317 21.4175Z" fill="white"/>
<path d="M16.5116 9.48505C16.5116 8.10505 15.3941 6.98755 14.0141 6.98755H7.61661C6.23661 6.98755 5.11914 8.10505 5.11914 9.48505V12.4625C5.11914 13.8425 6.23661 14.96 7.61661 14.96H14.0141C15.3941 14.96 16.5116 13.8425 16.5116 12.4625V9.48505ZM12.7466 11.195L9.88162 12.6125C9.76912 12.6725 9.3866 12.59 9.3866 12.4625V9.55255C9.3866 9.42505 9.76912 9.34255 9.88162 9.40255L12.6266 10.895C12.7466 10.9625 12.8666 11.1275 12.7466 11.195Z" fill="#0A6375"/>
</svg>
