<svg width="117" height="32" viewBox="0 0 117 32" fill="none" xmlns="http://www.w3.org/2000/svg">
<g id="Group">
<g id="Group_2">
<path id="Vector" d="M100.295 31.5195C108.999 31.5195 116.055 24.4636 116.055 15.7598C116.055 7.0559 108.999 0 100.295 0C91.5915 0 84.5356 7.0559 84.5356 15.7598C84.5356 24.4636 91.5915 31.5195 100.295 31.5195Z" fill="#005E90"/>
<path id="Vector_2" d="M108.73 13.4705C108.73 11.38 107.037 9.68726 104.946 9.68726H95.271C93.1806 9.68726 91.4878 11.38 91.4878 13.4705V17.9708C91.4878 20.0612 93.1806 21.754 95.271 21.754H104.946C107.037 21.754 108.73 20.0612 108.73 17.9708V13.4705ZM103.036 16.055L98.6989 18.1997C98.5303 18.2901 97.9519 18.1696 97.9519 17.9768V13.5729C97.9519 13.3741 98.5363 13.2537 98.705 13.35L102.856 15.6092C103.03 15.7116 103.217 15.9586 103.036 16.055Z" fill="white"/>
</g>
<g id="Group_3">
<path id="Vector_3" d="M58.3 31.5195C67.0038 31.5195 74.0597 24.4636 74.0597 15.7598C74.0597 7.0559 67.0038 0 58.3 0C49.5961 0 42.5403 7.0559 42.5403 15.7598C42.5403 24.4636 49.5961 31.5195 58.3 31.5195Z" fill="#005E90"/>
<g id="Group_4">
<g id="Group_5">
<path id="Vector_4" d="M63.1918 9.79614C62.5954 9.79614 62.1074 10.2841 62.1074 10.8806C62.1074 11.477 62.5954 11.9649 63.1918 11.9649C63.7882 11.9649 64.2762 11.477 64.2762 10.8806C64.2762 10.2841 63.7882 9.79614 63.1918 9.79614Z" fill="white"/>
<path id="Vector_5" d="M58.3723 11.188C55.8662 11.188 53.824 13.2302 53.824 15.7363C53.824 18.2425 55.8662 20.2848 58.3723 20.2848C60.8785 20.2848 62.9208 18.2425 62.9208 15.7363C62.9268 13.2302 60.8845 11.188 58.3723 11.188ZM58.3723 18.6522C56.7638 18.6522 55.4566 17.3448 55.4566 15.7363C55.4566 14.1278 56.7638 12.8206 58.3723 12.8206C59.9808 12.8206 61.2882 14.1278 61.2882 15.7363C61.2882 17.3448 59.9808 18.6522 58.3723 18.6522Z" fill="white"/>
<path id="Vector_6" d="M61.9867 24.9777H54.6129C51.5525 24.9777 49.0645 22.4896 49.0645 19.4292V12.0494C49.0645 8.98902 51.5525 6.50098 54.6129 6.50098H61.9867C65.0471 6.50098 67.5352 8.98902 67.5352 12.0494V19.4292C67.5352 22.4836 65.0471 24.9777 61.9867 24.9777ZM54.6129 8.236C52.5104 8.236 50.7995 9.94689 50.7995 12.0494V19.4292C50.7995 21.5317 52.5104 23.2427 54.6129 23.2427H61.9867C64.0892 23.2427 65.8002 21.5317 65.8002 19.4292V12.0494C65.8002 9.94689 64.0892 8.236 61.9867 8.236H54.6129Z" fill="white"/>
</g>
</g>
</g>
<g id="Group_6">
<g id="Group_7">
<path id="Vector_7" d="M32.064 15.7598C32.064 7.05455 25.0094 0 16.3042 0C7.59899 0 0.544434 7.05455 0.544434 15.7598C0.544434 23.6276 6.30979 30.1459 13.8403 31.3267V20.3142H9.84007V15.7598H13.8403V12.2897C13.8403 8.33774 16.1958 6.15696 19.7923 6.15696C21.5153 6.15696 23.3226 6.46413 23.3226 6.46413V10.3439H21.3345C19.3766 10.3439 18.7681 11.5608 18.7681 12.8018V15.7598H23.1358L22.437 20.3142H18.7681V31.3267C26.2986 30.1459 32.064 23.6216 32.064 15.7598Z" fill="#005E90"/>
<path id="Vector_8" d="M22.4371 20.314L23.1358 15.7595H18.7682V12.8016C18.7682 11.5545 19.3766 10.3436 21.3346 10.3436H23.3226V6.46391C23.3226 6.46391 21.5213 6.15674 19.7924 6.15674C16.1958 6.15674 13.8403 8.33752 13.8403 12.2895V15.7595H9.84009V20.314H13.8403V31.3265C14.6415 31.453 15.4668 31.5193 16.3042 31.5193C17.1416 31.5193 17.9669 31.453 18.7682 31.3265V20.314H22.4371Z" fill="white"/>
</g>
</g>
</g>
</svg>
